v 3.780574791 3.804421853 44.459000000
v 6.247574791 4.415421854 44.459000000
v 8.630574791 5.005421854 44.459000000
v 10.322574791 1.268421854 44.459000000
v 17.938574791 5.131421854 44.459000000
v 21.305574791 -2.591578146 44.459000000
v 22.818574791 -6.061578146 44.459000000
v 19.731574791 -7.328578146 44.459000000
v 18.368574791 -3.593578147 44.459000000
v 16.313574791 -4.294578146 44.459000000
v 15.904574791 -2.132578147 44.459000000
v 11.705574791 -1.785578147 44.459000000
v 13.670574791 -6.122578147 44.459000000
v 9.614574791 -5.464578146 44.459000000
v 9.192574791 -5.629578146 44.459000000
v 6.766574791 -6.576578147 44.459000000
v 4.376574791 -8.698578146 44.459000000
v 2.332574791 -4.446578147 44.459000000
v 1.713574791 -3.158578146 44.459000000
v 2.034574791 -3.003578147 44.459000000
v 1.258574791 -1.506578146 44.459000000
v -0.372425209 1.638421853 44.459000000
v 2.359574791 1.847421854 44.459000000
v 2.954574791 2.052421854 44.459000000
v 4.329574791 2.526421853 44.459000000
v 4.329574791 2.526421853 51.614000000
v 2.954574791 2.052421854 51.429000000
v 3.780574791 3.804421853 49.169000000
v -0.372425209 1.638421853 48.074000000
v 1.258574791 -1.506578146 48.352000000
v 10.322574791 1.268421854 47.671000000
v 8.630574791 5.005421854 47.767000000
v 6.247574791 4.415421854 49.888000000
v 6.247574791 4.415421854 50.422000000
v 17.938574791 5.131421854 47.850000000
v 21.305574791 -2.591578146 47.652000000
v 21.305574791 -2.591578146 47.246000000
v 11.705574791 -1.785578147 47.593000000
v 15.904574791 -2.132578147 47.619000000
v 22.818574791 -6.061578146 47.232000000
v 1.713574791 -3.158578146 50.859000000
v 2.332574791 -4.446578147 48.160000000
v 2.332574791 -4.446578147 50.456000000
v 9.547574791 -0.210578146 50.835000000
v 9.547574791 -0.210578146 49.090000000
v 9.385574791 0.037421853 49.146000000
v 9.385574791 0.037421853 50.938000000
v 2.034574791 -3.003578147 50.868000000
v 18.368574791 -3.593578147 47.597000000
v 18.368574791 -3.593578147 47.167000000
v 19.731574791 -7.328578146 47.147000000
v 9.020574791 -1.563578147 50.204000000
v 9.020574791 -1.563578147 50.429000000
v 8.048574791 -0.729578147 50.825000000
v 8.712574791 1.071421853 49.380000000
v 8.712574791 1.071421853 50.642000000
v 1.258574791 -1.506578146 50.403000000
v 2.852574791 -0.485578147 50.390000000
v 2.359574791 1.847421854 50.903000000
v 8.334574791 0.260421854 50.812000000
v 8.334574791 0.260421854 50.110000000
v 7.736574791 -0.043578147 50.843000000
v 4.376574791 -8.698578146 48.373000000
v 6.766574791 -6.576578147 51.483000000
v 6.766574791 -6.576578147 51.685000000
v 6.774574791 -6.388578147 51.774000000
v 9.192574791 -5.629578146 51.316000000
v 13.670574791 -6.122578147 47.483000000
v 9.614574791 -5.464578146 51.287000000
v 9.119574791 -1.571578147 50.415000000
v 9.119574791 -1.571578147 50.108000000
v 9.192574791 -5.629578146 51.783000000
v 16.313574791 -4.294578146 47.559000000
v 2.954574791 2.052421854 51.588000000
v 3.026574791 1.964421853 51.622000000
v 4.218574791 -3.129578146 50.618000000
v 5.785574791 3.301421854 51.368000000
v 8.961574791 -5.358578146 51.899000000
v 7.808574791 -0.452578147 50.947000000
v 4.052574791 -2.028578146 50.927000000
v 4.678574791 1.712421853 53.169000000
v 7.618574791 -5.140578146 53.159000000
v 4.406574791 10.965421854 44.459000000
v 5.980574791 7.779421854 44.459000000
v -1.188425209 4.669421853 44.459000000
v -2.283425209 8.175421854 44.459000000
v -2.283425209 8.175421854 47.272000000
v -1.188425209 4.669421853 47.325000000
v 5.980574791 7.779421854 47.362000000
v 4.406574791 10.965421854 47.307000000
f 83 84 85
f 83 85 86
f 87 86 85
f 87 85 88
f 88 85 84
f 88 84 89
f 90 83 86
f 90 86 87
f 89 84 83
f 89 83 90
f 89 90 87
f 89 87 88
f 1 2 3
f 1 3 4
f 1 4 5
f 1 5 6
f 1 6 7
f 1 7 8
f 1 8 9
f 1 9 10
f 1 10 11
f 1 11 12
f 1 12 13
f 1 13 14
f 1 14 15
f 1 15 16
f 1 16 17
f 1 17 18
f 1 18 19
f 1 19 20
f 1 20 21
f 1 21 22
f 1 22 23
f 1 23 24
f 1 24 25
f 26 25 24
f 26 24 27
f 28 1 25
f 28 25 26
f 29 22 21
f 29 21 30
f 31 4 3
f 31 3 32
f 32 3 2
f 32 2 33
f 32 33 34
f 35 5 4
f 35 4 31
f 36 37 6
f 36 6 5
f 36 5 35
f 38 12 11
f 38 11 39
f 40 7 6
f 40 6 37
f 41 19 18
f 41 18 42
f 41 42 43
f 44 45 46
f 44 46 47
f 48 20 19
f 48 19 41
f 49 50 37
f 49 37 36
f 51 8 7
f 51 7 40
f 52 53 54
f 47 46 55
f 47 55 56
f 57 30 21
f 57 21 20
f 57 20 48
f 59 23 22
f 59 22 29
f 60 61 62
f 42 18 17
f 42 17 63
f 63 17 16
f 63 16 64
f 63 64 65
f 65 64 66
f 64 16 15
f 64 15 67
f 68 13 12
f 68 12 38
f 69 14 13
f 69 13 68
f 70 71 45
f 70 45 44
f 53 52 71
f 53 71 70
f 72 67 15
f 72 15 14
f 72 14 69
f 73 10 9
f 73 9 50
f 73 50 49
f 50 9 8
f 50 8 51
f 27 74 75
f 74 27 24
f 74 24 23
f 74 23 59
f 39 11 10
f 39 10 73
f 56 55 61
f 56 61 60
f 43 42 76
f 34 33 77
f 33 2 1
f 33 1 28
f 67 72 78
f 53 70 44
f 53 44 47
f 53 47 79
f 53 79 54
f 50 51 40
f 50 40 37
f 39 73 49
f 39 49 36
f 39 36 35
f 39 35 31
f 39 31 38
f 56 60 62
f 56 62 79
f 56 79 47
f 80 48 41
f 80 41 43
f 80 43 76
f 48 80 58
f 48 58 57
f 81 75 74
f 81 74 59
f 81 59 29
f 81 29 30
f 81 30 58
f 81 58 80
f 81 80 76
f 81 76 42
f 81 42 63
f 81 63 65
f 81 65 66
f 81 66 82
f 67 78 82
f 67 82 66
f 67 66 64
f 33 28 26
f 33 26 27
f 33 27 75
f 33 75 81
f 33 81 77
f 78 72 69
f 78 69 68
f 78 68 38
f 78 38 31
f 78 31 32
f 78 32 34
f 78 34 77
f 78 77 81
f 78 81 82
f 54 79 62
f 54 62 61
f 54 61 55
f 54 55 46
f 54 46 45
f 54 45 71
f 54 71 52
