v 2.446156372 -8.832471933 16.059000000
v 2.371156372 -8.552471933 16.059000000
v -2.120843628 8.143528068 16.059000000
v -2.327843628 8.909528067 16.059000000
v 1.581156372 9.931528067 16.059000000
v 0.670156372 13.217528067 16.059000000
v 4.282156372 15.018528068 16.059000000
v 5.802156372 15.775528067 16.059000000
v 6.661156372 15.463528067 16.059000000
v 8.573156372 14.769528067 16.059000000
v 9.508156372 11.012528067 16.059000000
v 8.908156372 10.779528067 16.059000000
v 6.662156372 9.088528067 16.059000000
v 10.744156372 -6.832471933 16.059000000
v 10.838156372 -7.201471933 16.059000000
v 2.371156372 -8.552471933 19.218000000
v 2.371156372 -8.552471933 18.966000000
v 2.446156372 -8.832471933 19.083000000
v 3.426156372 -7.485471933 19.575000000
v 6.478156372 13.751528068 18.557000000
v 6.478156372 13.751528068 17.373000000
v 4.282156372 15.018528068 16.523000000
v 4.282156372 15.018528068 18.566000000
v 5.802156372 15.775528067 16.357000000
v 6.661156372 15.463528067 16.605000000
v 0.670156372 13.217528067 18.562000000
v 6.661156372 15.463528067 18.565000000
v 6.662156372 9.088528067 18.944000000
v 6.662156372 9.088528067 18.535000000
v 6.346156372 10.320528067 18.541000000
v 6.346156372 10.320528067 18.940000000
v 6.140156372 11.123528067 18.545000000
v 8.908156372 10.779528067 18.540000000
v 8.573156372 14.769528067 18.559000000
v 9.508156372 11.012528067 18.540000000
v 10.744156372 -6.832471933 18.993000000
v 10.838156372 -7.201471933 18.814000000
v -2.120843628 8.143528068 18.924000000
v 1.581156372 9.931528067 18.545000000
v 4.644156372 7.787528067 20.026000000
v 4.644156372 7.787528067 19.905000000
v 4.199156372 6.678528067 20.363000000
v 5.164156372 8.315528067 19.724000000
v -2.327843628 8.909528067 18.546000000
v 5.568156372 -3.781471933 20.996000000
v 3.242156372 5.053528067 20.997000000
f 1 2 3
f 1 3 4
f 1 4 5
f 1 5 6
f 1 6 7
f 1 7 8
f 1 8 9
f 1 9 10
f 1 10 11
f 1 11 12
f 1 12 13
f 1 13 14
f 1 14 15
f 16 17 2
f 16 2 1
f 16 1 18
f 20 21 22
f 20 22 23
f 24 8 7
f 24 7 22
f 25 9 8
f 25 8 24
f 23 22 7
f 23 7 6
f 23 6 26
f 27 25 21
f 27 21 20
f 28 29 30
f 28 30 31
f 31 30 32
f 29 13 12
f 29 12 33
f 34 10 9
f 34 9 25
f 34 25 27
f 33 12 11
f 33 11 35
f 35 11 10
f 35 10 34
f 36 14 13
f 36 13 29
f 36 29 28
f 37 15 14
f 37 14 36
f 38 3 2
f 38 2 17
f 18 1 15
f 18 15 37
f 26 6 5
f 26 5 39
f 40 41 42
f 41 40 43
f 39 5 4
f 39 4 44
f 44 4 3
f 44 3 38
f 21 25 24
f 21 24 22
f 18 37 36
f 18 36 45
f 18 45 19
f 18 19 16
f 46 38 17
f 46 17 19
f 46 19 45
f 39 32 30
f 39 30 29
f 39 29 33
f 39 33 35
f 39 35 34
f 39 34 27
f 39 27 20
f 39 20 23
f 39 23 26
f 43 40 42
f 43 42 46
f 43 46 45
f 43 45 36
f 43 36 28
f 43 28 31
f 44 38 46
f 44 46 42
f 44 42 41
f 44 41 43
f 44 43 31
f 44 31 32
f 44 32 39
