v -1.076066939 8.783730368 11.909000000
v -4.118066939 11.340730368 11.909000000
v -1.152066939 14.817730368 11.909000000
v 1.896933061 11.914730368 11.909000000
v 1.896933061 11.914730368 14.569000000
v -1.152066939 14.817730368 14.121000000
v -1.076066939 8.783730368 14.529000000
v -4.118066939 11.340730368 14.104000000
v 3.664933061 -16.529269631 11.909000000
v 5.486933061 -17.390269632 11.909000000
v 2.488933061 -23.226269632 11.909000000
v 0.900933061 -22.352269632 11.909000000
v 0.375933061 -22.063269632 11.909000000
v 0.057933061 -22.264269631 11.909000000
v -0.887066939 -21.553269631 11.909000000
v 1.814933061 -15.654269631 11.909000000
v 1.814933061 -15.654269631 14.085000000
v -0.887066939 -21.553269631 14.184000000
v 2.488933061 -23.226269632 14.275000000
v 5.486933061 -17.390269632 14.058000000
v 0.900933061 -22.352269632 16.068000000
v 0.375933061 -22.063269632 15.493000000
v 3.664933061 -16.529269631 16.054000000
v 0.057933061 -22.264269631 15.300000000
v -3.683066939 -29.419269632 11.909000000
v -13.497066939 -27.669269632 11.909000000
v -13.508066939 -25.392269632 11.909000000
v -13.183066939 -23.633269631 11.909000000
v -12.470066939 -19.767269632 11.909000000
v -2.736066939 -21.049269632 11.909000000
v -2.457066939 -24.375269632 11.909000000
v -2.715066939 -25.436269632 11.909000000
v -13.183066939 -23.633269631 18.394000000
v -13.508066939 -25.392269632 16.901000000
v -12.470066939 -19.767269632 15.146000000
v -13.497066939 -27.669269632 15.028000000
v -3.683066939 -29.419269632 14.986000000
v -2.715066939 -25.436269632 18.401000000
v -2.457066939 -24.375269632 17.501000000
v -2.736066939 -21.049269632 14.831000000
f 9 10 11
f 9 11 12
f 9 12 13
f 9 13 14
f 9 14 15
f 9 15 16
f 17 16 15
f 17 15 18
f 19 11 10
f 19 10 20
f 21 12 11
f 21 11 19
f 22 13 12
f 22 12 21
f 20 10 9
f 20 9 23
f 23 9 16
f 23 16 17
f 24 14 13
f 24 13 22
f 18 15 14
f 18 14 24
f 20 23 21
f 20 21 19
f 18 24 22
f 18 22 21
f 18 21 23
f 18 23 17
f 1 2 3
f 1 3 4
f 5 4 3
f 5 3 6
f 7 1 4
f 7 4 5
f 6 3 2
f 6 2 8
f 8 2 1
f 8 1 7
f 8 7 5
f 8 5 6
f 25 26 27
f 25 27 28
f 25 28 29
f 25 29 30
f 25 30 31
f 25 31 32
f 33 28 27
f 33 27 34
f 35 29 28
f 35 28 33
f 36 26 25
f 36 25 37
f 34 27 26
f 34 26 36
f 37 25 32
f 37 32 38
f 38 32 31
f 38 31 39
f 40 30 29
f 40 29 35
f 39 31 30
f 39 30 40
f 38 33 34
f 38 34 36
f 38 36 37
f 39 40 35
f 39 35 33
f 39 33 38
