v -21.442720338 1.385177077 2.049000000
v -21.048720338 2.551177076 2.049000000
v -21.136720338 3.654177076 2.049000000
v -21.740720338 4.732177076 2.049000000
v -21.290720338 5.598177076 2.049000000
v -21.351720338 6.361177077 2.049000000
v -18.872720338 5.627177076 2.049000000
v -18.815720338 6.644177076 2.049000000
v -18.712720338 6.578177077 2.049000000
v -18.794720338 7.012177076 2.049000000
v -16.283720338 6.629177077 2.049000000
v -14.744720338 4.822177077 2.049000000
v -13.547720338 7.344177077 2.049000000
v -11.325720338 6.675177077 2.049000000
v -10.204720338 6.337177076 2.049000000
v -8.555720338 5.953177077 2.049000000
v -7.015720338 5.594177077 2.049000000
v -4.304720338 5.252177076 2.049000000
v -4.395720338 4.403177076 2.049000000
v 3.512279662 3.392177076 2.049000000
v 2.587279662 3.072177077 2.049000000
v 0.926279662 -0.058822923 2.049000000
v -4.800720338 0.644177076 2.049000000
v -4.911720338 -0.391822924 2.049000000
v -6.267720338 0.823177076 2.049000000
v -10.546720338 1.349177076 2.049000000
v -10.038720338 1.024177076 2.049000000
v -11.640720338 1.443177076 2.049000000
v -11.763720338 1.322177077 2.049000000
v -11.112720338 0.559177076 2.049000000
v -12.048720338 0.571177077 2.049000000
v -12.056720338 0.512177076 2.049000000
v -12.309720338 0.575177076 2.049000000
v -13.277720338 0.588177077 2.049000000
v -18.340720338 0.655177076 2.049000000
v -18.601720338 -0.835822924 2.049000000
v -19.211720338 -0.387822923 2.049000000
v -20.197720338 0.337177076 2.049000000
v -22.005720338 -0.276822924 2.049000000
v -21.478720338 1.278177076 2.049000000
v -21.562720338 1.340177076 2.049000000
v -12.048720338 0.571177077 9.925000000
v -11.112720338 0.559177076 9.056000000
v -12.048720338 0.571177077 9.998000000
v -11.982720338 1.104177076 9.926000000
v -11.982720338 1.104177076 9.999000000
v -13.547720338 7.344177077 7.800000000
v -14.744720338 4.822177077 6.961000000
v -16.283720338 6.629177077 5.299000000
v -4.800720338 0.644177076 6.166000000
v 0.926279662 -0.058822923 6.176000000
v -4.800720338 0.644177076 8.856000000
v -4.715720338 1.430177077 5.999000000
v -4.715720338 1.430177077 8.840000000
v -19.014720338 3.114177076 8.851000000
v -19.014720338 3.114177076 6.020000000
v -19.053720338 2.414177076 6.163000000
v -19.053720338 2.414177076 8.908000000
v -21.478720338 1.278177076 5.862000000
v -22.005720338 -0.276822924 5.524000000
v -21.562720338 1.340177076 5.873000000
v -11.462720338 1.893177076 9.538000000
v -11.462720338 1.893177076 9.555000000
v -10.787720338 2.378177077 8.970000000
v -12.021720338 1.530177076 10.000000000
v -12.021720338 1.530177076 9.913000000
v -11.931720338 1.519177076 10.000000000
v -21.136720338 3.654177076 5.914000000
v -21.048720338 2.551177076 6.138000000
v -13.277720338 0.588177077 8.836000000
v -12.309720338 0.575177076 9.751000000
v -12.031720338 1.449177076 9.913000000
v -18.340720338 0.655177076 8.253000000
v -11.325720338 6.675177077 9.976000000
v -11.918720338 1.924177077 9.581000000
v -11.918720338 1.924177077 9.964000000
v -12.298720338 1.951177076 9.603000000
v -4.715720338 1.430177077 9.172000000
v -4.395720338 4.403177076 5.369000000
v -4.395720338 4.403177076 6.074000000
v -17.768720338 2.165177076 10.079000000
v -17.768720338 2.165177076 9.931000000
v -17.661720338 2.223177076 10.006000000
v -12.056720338 0.512177076 9.998000000
v -6.267720338 0.823177076 9.993000000
v -4.911720338 -0.391822924 8.878000000
v -10.204720338 6.337177076 8.899000000
v -8.555720338 5.953177077 7.326000000
v -8.555720338 5.953177077 5.010000000
v 2.587279662 3.072177077 5.481000000
v -11.763720338 1.322177077 10.181000000
v -11.763720338 1.322177077 9.749000000
v -11.640720338 1.443177076 10.041000000
v -11.482720338 1.894177076 9.556000000
v -7.015720338 5.594177077 5.182000000
v -4.304720338 5.252177076 5.189000000
v -8.732720338 3.809177076 7.237000000
v -19.180720338 0.166177076 7.626000000
v -19.180720338 0.166177076 5.691000000
v -19.211720338 -0.387822923 5.575000000
v -19.211720338 -0.387822923 7.034000000
v -18.601720338 -0.835822924 6.637000000
v 3.512279662 3.392177076 5.392000000
v -5.180720338 1.462177076 9.199000000
v -18.496720338 3.054177077 9.258000000
v -18.496720338 3.054177077 6.031000000
v -18.989720338 3.545177076 8.815000000
v -18.989720338 3.545177076 5.932000000
v -19.108720338 1.440177076 5.958000000
v -19.108720338 1.440177076 8.988000000
v -21.740720338 4.732177076 5.695000000
v -10.546720338 1.349177076 9.998000000
v -10.038720338 1.024177076 10.268000000
v -19.598720338 0.912177077 8.364000000
v -19.598720338 0.912177077 5.836000000
v -20.300720338 2.547177076 6.138000000
v -20.300720338 2.547177076 6.157000000
v -19.434720338 2.441177077 6.158000000
v -17.812720338 2.374177077 9.870000000
v -18.872720338 5.627177076 6.660000000
v -18.872720338 5.627177076 5.508000000
v -21.351720338 6.361177077 5.363000000
v -18.815720338 6.644177076 5.607000000
v -18.712720338 6.578177077 5.661000000
v -18.794720338 7.012177076 5.226000000
v -21.442720338 1.385177077 5.885000000
v -19.612720338 1.168177077 5.888000000
v -19.612720338 1.168177077 8.634000000
v -20.197720338 0.337177076 5.700000000
v -20.821720338 2.536177076 6.141000000
v -21.290720338 5.598177076 5.518000000
f 1 2 3
f 1 3 4
f 1 4 5
f 1 5 6
f 1 6 7
f 1 7 8
f 1 8 9
f 1 9 10
f 1 10 11
f 1 11 12
f 1 12 13
f 1 13 14
f 1 14 15
f 1 15 16
f 1 16 17
f 1 17 18
f 1 18 19
f 1 19 20
f 1 20 21
f 1 21 22
f 1 22 23
f 1 23 24
f 1 24 25
f 1 25 26
f 1 26 27
f 1 27 28
f 1 28 29
f 1 29 30
f 1 30 31
f 1 31 32
f 1 32 33
f 1 33 34
f 1 34 35
f 1 35 36
f 1 36 37
f 1 37 38
f 1 38 39
f 1 39 40
f 1 40 41
f 42 31 30
f 42 30 43
f 44 42 45
f 44 45 46
f 47 13 12
f 47 12 48
f 48 12 11
f 48 11 49
f 50 23 22
f 50 22 51
f 52 50 53
f 52 53 54
f 55 56 57
f 55 57 58
f 59 40 39
f 59 39 60
f 61 41 40
f 61 40 59
f 65 66 67
f 68 3 2
f 68 2 69
f 70 34 33
f 70 33 71
f 66 65 72
f 73 35 34
f 73 34 70
f 74 14 13
f 74 13 47
f 78 54 53
f 81 82 83
f 71 33 32
f 71 32 84
f 84 32 31
f 84 31 42
f 84 42 44
f 85 25 24
f 85 24 86
f 87 15 14
f 87 14 74
f 88 89 16
f 88 16 15
f 88 15 87
f 51 22 21
f 51 21 90
f 91 92 29
f 91 29 28
f 91 28 93
f 43 30 29
f 43 29 92
f 46 45 92
f 46 92 91
f 95 17 16
f 95 16 89
f 96 18 17
f 96 17 95
f 80 79 19
f 80 19 18
f 80 18 96
f 98 99 100
f 98 100 101
f 101 100 37
f 101 37 36
f 101 36 102
f 103 20 19
f 103 19 79
f 90 21 20
f 90 20 103
f 54 78 104
f 102 36 35
f 102 35 73
f 86 24 23
f 86 23 50
f 86 50 52
f 105 106 56
f 105 56 55
f 107 108 106
f 107 106 105
f 58 57 109
f 58 109 110
f 111 4 3
f 111 3 68
f 112 26 25
f 112 25 85
f 113 27 26
f 113 26 112
f 114 115 99
f 114 99 98
f 82 81 119
f 120 121 108
f 120 108 107
f 121 7 6
f 121 6 122
f 123 8 7
f 123 7 121
f 123 121 120
f 124 9 8
f 124 8 123
f 125 10 9
f 125 9 124
f 49 11 10
f 49 10 125
f 126 1 41
f 126 41 61
f 110 109 127
f 110 127 128
f 128 127 115
f 128 115 114
f 129 38 37
f 129 37 100
f 60 39 38
f 60 38 129
f 131 5 4
f 131 4 111
f 122 6 5
f 122 5 131
f 69 2 1
f 69 1 126
f 93 28 27
f 93 27 113
f 76 74 47
f 76 47 48
f 76 48 77
f 92 45 42
f 92 42 43
f 46 91 67
f 46 67 66
f 46 66 72
f 46 72 70
f 46 70 71
f 46 71 84
f 46 84 44
f 64 97 88
f 64 88 87
f 64 87 74
f 64 74 76
f 64 76 94
f 64 94 62
f 90 103 79
f 90 79 53
f 90 53 50
f 90 50 51
f 104 85 86
f 104 86 52
f 104 52 54
f 82 119 105
f 82 105 55
f 82 55 58
f 82 58 110
f 128 114 98
f 128 98 101
f 128 101 102
f 128 102 73
f 128 73 70
f 128 70 72
f 128 72 65
f 128 65 83
f 128 83 82
f 128 82 110
f 69 130 116
f 69 116 118
f 69 118 57
f 69 57 56
f 69 56 106
f 69 106 108
f 69 108 121
f 69 121 122
f 69 122 131
f 69 131 111
f 69 111 68
f 69 126 61
f 69 61 59
f 69 59 60
f 69 60 129
f 69 129 100
f 69 100 99
f 69 99 115
f 69 115 127
f 69 127 109
f 69 109 57
f 69 57 118
f 69 118 117
f 69 117 130
f 93 113 112
f 93 112 85
f 93 85 104
f 93 104 78
f 93 78 80
f 93 80 96
f 93 96 95
f 93 95 89
f 93 89 97
f 93 97 64
f 93 64 63
f 93 63 94
f 93 94 75
f 93 75 77
f 93 77 48
f 93 48 49
f 93 49 125
f 93 125 124
f 93 124 123
f 93 123 120
f 93 120 107
f 93 107 105
f 93 105 119
f 93 119 81
f 93 81 83
f 93 83 65
f 93 65 67
f 93 67 91
