v 5.948368118 7.038451377 23.690000000
v 6.599368118 -1.394548623 23.690000000
v 6.636368118 -1.873548623 23.690000000
v -10.208631882 -3.038548623 23.690000000
v -12.454631882 -3.193548623 23.690000000
v -13.103631882 5.375451378 23.690000000
v -13.141631882 5.886451378 23.690000000
v 1.204368118 7.447451377 23.690000000
v 1.355368118 9.792451377 23.690000000
v 10.466368118 11.053451377 23.690000000
v 11.483368118 7.947451377 23.690000000
v 5.472368118 7.628451377 26.460000000
v 5.472368118 7.628451377 25.877000000
v 5.286368118 7.891451377 25.875000000
v 5.286368118 7.891451377 26.329000000
v 1.204368118 7.447451377 25.864000000
v 1.204368118 7.447451377 26.303000000
v -13.103631882 5.375451378 26.452000000
v -12.454631882 -3.193548623 26.259000000
v -10.208631882 -3.038548623 27.281000000
v -10.208631882 -3.038548623 26.627000000
v -10.244631882 -1.463548623 27.354000000
v -13.141631882 5.886451378 26.215000000
v 10.466368118 11.053451377 25.873000000
v 1.355368118 9.792451377 25.850000000
v 6.599368118 -1.394548623 26.455000000
v 5.948368118 7.038451377 25.883000000
v 5.948368118 7.038451377 26.278000000
v 5.895368118 7.029451377 25.883000000
v 5.895368118 7.029451377 26.302000000
v 6.636368118 -1.873548623 26.233000000
v 11.483368118 7.947451377 25.896000000
v -7.940631882 1.425451377 28.557000000
v 1.454368118 2.562451378 28.562000000
f 1 2 3
f 1 3 4
f 1 4 5
f 1 5 6
f 1 6 7
f 1 7 8
f 1 8 9
f 1 9 10
f 1 10 11
f 12 13 14
f 12 14 15
f 15 14 16
f 15 16 17
f 18 6 5
f 18 5 19
f 20 21 22
f 19 5 4
f 19 4 21
f 19 21 20
f 23 7 6
f 23 6 18
f 24 10 9
f 24 9 25
f 26 2 1
f 26 1 27
f 26 27 28
f 28 27 29
f 28 29 30
f 17 16 8
f 17 8 7
f 17 7 23
f 25 9 8
f 25 8 16
f 21 4 3
f 21 3 31
f 30 29 13
f 30 13 12
f 32 11 10
f 32 10 24
f 27 1 11
f 27 11 32
f 31 3 2
f 31 2 26
f 22 33 18
f 22 18 19
f 22 19 20
f 34 12 15
f 34 15 17
f 34 17 23
f 34 23 18
f 34 18 33
f 27 32 24
f 27 24 25
f 27 25 16
f 27 16 14
f 27 14 13
f 27 13 29
f 34 26 28
f 34 28 30
f 34 30 12
f 26 34 33
f 26 33 22
f 26 22 21
f 26 21 31
