v 20.610947790 -8.892167971 2.220000000
v 22.796947790 -6.126167972 2.220000000
v 19.797947790 -3.841167971 2.220000000
v 24.695947790 2.333832028 2.220000000
v 27.750947790 0.143832029 2.220000000
v 32.267947790 -3.091167971 2.220000000
v 25.048947790 -12.233167971 2.220000000
v 32.267947790 -3.091167971 5.384000000
v 27.750947790 0.143832029 5.391000000
v 27.750947790 0.143832029 5.651000000
v 24.695947790 2.333832028 5.304000000
v 19.797947790 -3.841167971 5.311000000
v 22.796947790 -6.126167972 5.398000000
v 22.796947790 -6.126167972 5.658000000
v 20.610947790 -8.892167971 5.661000000
v 25.048947790 -12.233167971 5.395000000
v -12.874052210 -37.466167971 2.220000000
v -20.870052210 -34.412167971 2.220000000
v -23.458052210 -42.912167971 2.220000000
v -26.259052210 -41.594167971 2.220000000
v -28.894052210 -40.354167972 2.220000000
v -24.147052210 -27.496167972 2.220000000
v -24.228052210 -27.320167972 2.220000000
v -24.056052210 -27.251167972 2.220000000
v -22.266052210 -22.402167971 2.220000000
v -18.812052210 -23.595167971 2.220000000
v -15.402052210 -24.772167971 2.220000000
v -15.534052210 -25.488167971 2.220000000
v -14.673052210 -25.144167972 2.220000000
v -15.760052210 -26.720167971 2.220000000
v -16.254052210 -29.406167972 2.220000000
v -16.338052210 -29.438167972 2.220000000
v -16.201052210 -29.597167972 2.220000000
v -8.810052210 -32.448167971 2.220000000
v -9.984052210 -35.265167971 2.220000000
v -10.018052210 -35.349167972 2.220000000
v -16.316052210 -27.525167972 8.125000000
v -16.316052210 -27.525167972 5.540000000
v -16.193052210 -27.347167972 5.487000000
v -16.193052210 -27.347167972 7.878000000
v -17.285052210 -26.186167971 7.029000000
v -16.338052210 -29.438167972 4.813000000
v -16.254052210 -29.406167972 4.742000000
v -18.412052210 -27.051167971 7.858000000
v -18.412052210 -27.051167971 7.811000000
v -17.062052210 -28.606167971 5.859000000
v -17.062052210 -28.606167971 6.703000000
v -26.259052210 -41.594167971 8.586000000
v -23.458052210 -42.912167971 4.781000000
v -21.675052210 -31.468167972 9.587000000
v -21.675052210 -31.468167972 9.329000000
v -21.721052210 -31.270167971 9.452000000
v -18.812052210 -23.595167971 9.562000000
v -22.266052210 -22.402167971 5.104000000
v -24.056052210 -27.251167972 5.088000000
v -21.958052210 -31.575167972 9.308000000
v -21.958052210 -31.575167972 7.869000000
v -21.675052210 -31.468167972 8.111000000
v -18.260052210 -26.839167971 7.743000000
v -18.260052210 -26.839167971 8.139000000
v -17.996052210 -26.469167971 7.625000000
v -10.018052210 -35.349167972 8.646000000
v -9.984052210 -35.265167971 8.756000000
v -12.874052210 -37.466167971 5.034000000
v -8.810052210 -32.448167971 5.082000000
v -15.760052210 -26.720167971 5.302000000
v -14.673052210 -25.144167972 4.837000000
v -16.201052210 -29.597167972 4.935000000
v -15.534052210 -25.488167971 5.559000000
v -15.402052210 -24.772167971 5.709000000
v -23.761052210 -28.937167971 6.559000000
v -23.761052210 -28.937167971 6.135000000
v -24.578052210 -29.987167971 5.639000000
v -24.578052210 -29.987167971 8.044000000
v -23.040052210 -30.620167972 7.667000000
v -23.040052210 -30.620167972 8.175000000
v -23.132052210 -30.947167971 7.699000000
v -24.295052210 -30.292167972 6.091000000
v -24.295052210 -30.292167972 8.279000000
v -23.515052210 -31.132167972 7.339000000
v -23.070052210 -29.832167972 7.302000000
v -24.147052210 -27.496167972 5.088000000
v -28.894052210 -40.354167972 5.046000000
v -20.870052210 -34.412167971 5.402000000
v -20.870052210 -34.412167971 5.111000000
v -20.796052210 -34.169167971 5.420000000
v -24.228052210 -27.320167972 4.921000000
v -22.914052210 -30.171167972 7.623000000
v -22.684052210 -31.851167971 8.592000000
v -20.960052210 -31.195167972 8.723000000
f 1 2 3
f 1 3 4
f 1 4 5
f 1 5 6
f 1 6 7
f 8 6 5
f 8 5 9
f 8 9 10
f 11 4 3
f 11 3 12
f 12 3 2
f 12 2 13
f 9 5 4
f 9 4 11
f 10 9 13
f 10 13 14
f 15 1 7
f 15 7 16
f 16 7 6
f 16 6 8
f 14 13 2
f 14 2 1
f 14 1 15
f 13 9 11
f 13 11 12
f 14 15 16
f 14 16 8
f 14 8 10
f 17 18 19
f 17 19 20
f 17 20 21
f 17 21 22
f 17 22 23
f 17 23 24
f 17 24 25
f 17 25 26
f 17 26 27
f 17 27 28
f 17 28 29
f 17 29 30
f 17 30 31
f 17 31 32
f 17 32 33
f 17 33 34
f 17 34 35
f 17 35 36
f 37 38 39
f 37 39 40
f 40 39 41
f 42 32 31
f 42 31 43
f 44 45 46
f 44 46 47
f 48 20 19
f 48 19 49
f 50 51 52
f 53 26 25
f 53 25 54
f 54 25 24
f 54 24 55
f 56 57 58
f 56 58 51
f 56 51 50
f 59 60 61
f 62 36 35
f 62 35 63
f 64 17 36
f 64 36 62
f 63 35 34
f 63 34 65
f 43 31 30
f 43 30 66
f 60 59 45
f 60 45 44
f 66 30 29
f 66 29 67
f 65 34 33
f 65 33 68
f 68 33 32
f 68 32 42
f 47 46 38
f 47 38 37
f 67 29 28
f 67 28 69
f 69 28 27
f 69 27 70
f 70 27 26
f 70 26 53
f 71 72 73
f 71 73 74
f 74 73 78
f 74 78 79
f 79 78 80
f 72 71 81
f 82 22 21
f 82 21 83
f 84 85 86
f 87 23 22
f 87 22 82
f 55 24 23
f 55 23 87
f 83 21 20
f 83 20 48
f 57 56 89
f 49 19 18
f 49 18 85
f 49 85 84
f 85 18 17
f 85 17 64
f 51 58 90
f 41 61 60
f 41 60 37
f 41 37 40
f 47 37 60
f 47 60 44
f 79 80 77
f 79 77 76
f 90 63 65
f 90 65 68
f 90 68 42
f 88 81 71
f 88 71 74
f 88 74 79
f 88 79 76
f 49 84 86
f 49 86 57
f 49 57 89
f 49 89 48
f 90 58 57
f 90 57 86
f 90 86 85
f 90 85 64
f 90 64 62
f 90 62 63
f 52 53 54
f 52 54 55
f 52 55 87
f 52 87 82
f 52 82 83
f 52 83 48
f 52 48 89
f 52 89 56
f 52 56 50
f 81 88 75
f 81 75 77
f 81 77 80
f 81 80 78
f 81 78 73
f 81 73 72
f 53 52 51
f 53 51 90
f 53 90 42
f 53 42 43
f 53 43 66
f 53 66 67
f 53 67 69
f 53 69 70
f 39 38 46
f 39 46 45
f 39 45 59
f 39 59 61
f 39 61 41
