v -1.543548135 -4.425577775 25.219000000
v -5.592548135 -4.706577774 25.219000000
v -7.382548135 8.165422225 25.219000000
v -9.536548135 8.255422225 25.219000000
v -8.450548135 10.931422225 25.219000000
v -2.866548136 11.418422226 25.219000000
v 1.034451865 11.758422226 25.219000000
v 3.676451865 -4.065577774 25.219000000
v -2.866548136 11.418422226 30.167000000
v -8.450548135 10.931422225 27.510000000
v -9.536548135 8.255422225 26.892000000
v -7.382548135 8.165422225 27.906000000
v -5.592548135 -4.706577774 28.245000000
v -1.543548135 -4.425577775 30.168000000
v 3.676451865 -4.065577774 27.697000000
v 1.034451865 11.758422226 28.318000000
v 14.266451865 -11.470577775 25.219000000
v 12.710451865 -5.086577774 25.219000000
v 11.646451865 -5.099577774 25.219000000
v 11.189451864 2.984422226 25.219000000
v 16.020451864 3.367422226 25.219000000
v 16.961451865 -11.109577774 25.219000000
v 12.710451865 -5.086577774 27.974000000
v 14.266451865 -11.470577775 27.910000000
v 16.961451865 -11.109577774 27.751000000
v 16.020451864 3.367422226 27.745000000
v 11.189451864 2.984422226 28.030000000
v 11.646451865 -5.099577774 28.037000000
f 17 18 19
f 17 19 20
f 17 20 21
f 17 21 22
f 23 18 17
f 23 17 24
f 24 17 22
f 24 22 25
f 25 22 21
f 25 21 26
f 26 21 20
f 26 20 27
f 28 19 18
f 28 18 23
f 27 20 19
f 27 19 28
f 27 28 23
f 27 23 24
f 27 24 25
f 27 25 26
f 1 2 3
f 1 3 4
f 1 4 5
f 1 5 6
f 1 6 7
f 1 7 8
f 9 6 5
f 9 5 10
f 10 5 4
f 10 4 11
f 11 4 3
f 11 3 12
f 13 2 1
f 13 1 14
f 12 3 2
f 12 2 13
f 14 1 8
f 14 8 15
f 15 8 7
f 15 7 16
f 16 7 6
f 16 6 9
f 14 9 10
f 14 10 11
f 14 11 12
f 14 12 13
f 16 9 14
f 16 14 15
