v 0.328697243 -2.978727885 12.090000000
v -0.717302758 -3.385727884 12.090000000
v 3.866697242 -5.365727885 12.090000000
v 2.343697242 -9.523727885 12.090000000
v 0.897697242 -13.471727884 12.090000000
v -6.300302758 -11.492727884 12.090000000
v -6.808302758 -13.222727885 12.090000000
v -11.726302758 -11.445727884 12.090000000
v -8.792302758 -4.777727884 12.090000000
v -8.216302758 -5.022727884 12.090000000
v -5.793302758 -5.361727884 12.090000000
v -5.396302758 -5.206727884 12.090000000
v -7.312302758 -0.408727884 12.090000000
v -4.547302758 5.667272116 12.090000000
v -1.187302758 4.479272116 12.090000000
v 0.239697243 3.974272116 12.090000000
v 2.354697242 9.208272115 12.090000000
v 4.112697243 13.559272116 12.090000000
v 14.392697242 8.845272115 12.090000000
v 12.618697242 4.744272116 12.090000000
v 10.687697242 0.279272116 12.090000000
v 2.102697243 3.315272116 12.090000000
v -0.384302758 -1.804727884 12.090000000
v 2.102697243 3.315272116 14.618000000
v 10.687697242 0.279272116 14.910000000
v 12.618697242 4.744272116 17.172000000
v 14.392697242 8.845272115 15.080000000
v 0.897697242 -13.471727884 15.342000000
v 2.343697242 -9.523727885 17.006000000
v -6.300302758 -11.492727884 14.950000000
v 0.239697243 3.974272116 15.931000000
v 0.239697243 3.974272116 14.554000000
v -1.187302758 4.479272116 16.602000000
v 2.354697242 9.208272115 17.179000000
v 4.112697243 13.559272116 14.981000000
v 3.866697242 -5.365727885 15.017000000
v -4.547302758 5.667272116 15.004000000
v -7.312302758 -0.408727884 14.945000000
v 2.102697243 3.315272116 15.056000000
v -5.793302758 -5.361727884 16.724000000
v -8.216302758 -5.022727884 17.013000000
v -6.808302758 -13.222727885 14.241000000
v -11.726302758 -11.445727884 14.127000000
v -0.717302758 -3.385727884 15.010000000
v -5.396302758 -5.206727884 16.590000000
v -0.384302758 -1.804727884 15.156000000
v 0.328697243 -2.978727885 14.656000000
v -8.792302758 -4.777727884 17.013000000
f 1 2 3
f 1 3 4
f 1 4 5
f 1 5 6
f 1 6 7
f 1 7 8
f 1 8 9
f 1 9 10
f 1 10 11
f 1 11 12
f 1 12 13
f 1 13 14
f 1 14 15
f 1 15 16
f 1 16 17
f 1 17 18
f 1 18 19
f 1 19 20
f 1 20 21
f 1 21 22
f 1 22 23
f 24 22 21
f 24 21 25
f 26 20 19
f 26 19 27
f 28 5 4
f 28 4 29
f 25 21 20
f 25 20 26
f 30 6 5
f 30 5 28
f 31 32 16
f 31 16 15
f 31 15 33
f 34 17 16
f 34 16 32
f 27 19 18
f 27 18 35
f 35 18 17
f 35 17 34
f 29 4 3
f 29 3 36
f 37 14 13
f 37 13 38
f 33 15 14
f 33 14 37
f 39 24 32
f 39 32 31
f 40 11 10
f 40 10 41
f 42 7 6
f 42 6 30
f 43 8 7
f 43 7 42
f 36 3 2
f 36 2 44
f 38 13 12
f 38 12 45
f 46 23 22
f 46 22 24
f 46 24 39
f 45 12 11
f 45 11 40
f 47 1 23
f 47 23 46
f 41 10 9
f 41 9 48
f 48 9 8
f 48 8 43
f 44 2 1
f 44 1 47
f 35 34 26
f 35 26 27
f 32 24 25
f 32 25 26
f 32 26 34
f 38 45 33
f 38 33 37
f 29 41 48
f 29 48 43
f 29 43 42
f 29 42 30
f 29 30 28
f 44 47 46
f 44 46 39
f 44 39 31
f 44 31 33
f 44 33 45
f 41 29 36
f 41 36 44
f 41 44 45
f 41 45 40
