v 9.241017042 -19.580351654 49.990000000
v 8.741017042 -14.757351655 49.990000000
v 15.848017042 -14.157351654 49.990000000
v 16.207017042 -18.881351654 49.990000000
v 8.741017042 -14.757351655 52.966000000
v 9.241017042 -19.580351654 52.974000000
v 16.207017042 -18.881351654 52.803000000
v 15.848017042 -14.157351654 52.792000000
v 10.822017042 -8.747351654 49.990000000
v 11.365017042 -8.999351654 49.990000000
v 10.861017042 -9.120351654 49.990000000
v 11.075017042 -11.192351654 49.990000000
v 9.733017042 -9.391351654 49.990000000
v 5.501017042 -10.406351654 49.990000000
v 2.475017042 -11.152351654 49.990000000
v 2.446017042 -10.731351654 49.990000000
v 0.359017042 -10.871351654 49.990000000
v -0.298982958 -3.215351654 49.990000000
v 1.917017042 -2.859351655 49.990000000
v 1.307017042 6.201648346 49.990000000
v 1.302017042 6.275648346 49.990000000
v 5.880017042 5.942648346 49.990000000
v 8.703017042 5.782648345 49.990000000
v 9.202017042 6.907648345 49.990000000
v 9.322017042 5.747648346 49.990000000
v 9.328017042 5.691648345 49.990000000
v 9.733017042 -9.391351654 53.745000000
v 11.075017042 -11.192351654 52.861000000
v 2.475017042 -11.152351654 53.203000000
v 5.501017042 -10.406351654 53.434000000
v 5.880017042 5.942648346 53.707000000
v 1.302017042 6.275648346 53.358000000
v 8.703017042 5.782648345 53.901000000
v 9.202017042 6.907648345 53.422000000
v 9.328017042 5.691648345 53.969000000
v 9.328017042 5.691648345 53.943000000
v 9.322017042 5.747648346 53.944000000
v 10.861017042 -9.120351654 53.828000000
v 1.307017042 6.201648346 53.391000000
v 1.917017042 -2.859351655 53.297000000
v 11.365017042 -8.999351654 53.590000000
v 10.822017042 -8.747351654 53.830000000
v 10.870017042 -9.118351654 53.823000000
v 10.870017042 -9.118351654 49.990000000
v 6.264017042 1.934648346 55.509000000
v -0.298982958 -3.215351654 53.137000000
v 2.446017042 -10.731351654 53.216000000
v 2.446017042 -10.731351654 53.399000000
v 2.833017042 -10.705351654 53.396000000
v 0.359017042 -10.871351654 53.068000000
v 9.322017042 5.754648346 53.941000000
v 9.322017042 5.754648346 49.990000000
v 6.947017042 -5.816351654 55.504000000
f 9 10 11
f 9 11 12
f 9 12 13
f 9 13 14
f 9 14 15
f 9 15 16
f 9 16 17
f 9 17 18
f 9 18 19
f 9 19 20
f 9 20 21
f 9 21 22
f 9 22 23
f 9 23 24
f 9 24 25
f 9 25 26
f 27 13 12
f 27 12 28
f 29 15 14
f 29 14 30
f 31 22 21
f 31 21 32
f 33 23 22
f 33 22 31
f 34 24 23
f 34 23 33
f 35 36 26
f 35 26 25
f 35 25 37
f 28 12 11
f 28 11 38
f 39 20 19
f 39 19 40
f 41 10 9
f 41 9 42
f 43 44 10
f 43 10 41
f 40 19 18
f 40 18 46
f 47 48 49
f 32 21 20
f 32 20 39
f 48 47 16
f 48 16 15
f 48 15 29
f 50 17 16
f 50 16 47
f 46 18 17
f 46 17 50
f 42 9 26
f 42 26 36
f 30 14 13
f 30 13 27
f 51 52 24
f 51 24 34
f 46 50 47
f 46 47 40
f 53 49 48
f 53 48 29
f 53 29 30
f 53 30 27
f 53 27 28
f 53 28 38
f 43 41 42
f 43 42 36
f 43 36 45
f 43 45 53
f 51 34 33
f 51 33 31
f 51 31 32
f 51 32 39
f 51 39 45
f 51 45 35
f 49 53 45
f 49 45 39
f 49 39 40
f 49 40 47
f 1 2 3
f 1 3 4
f 5 2 1
f 5 1 6
f 6 1 4
f 6 4 7
f 7 4 3
f 7 3 8
f 8 3 2
f 8 2 5
f 8 5 6
f 8 6 7
