v 9.917306104 -4.640782112 34.479000000
v 5.374306104 -4.243782112 34.479000000
v 0.981306104 -3.860782112 34.479000000
v 1.080306104 -3.224782112 34.479000000
v -2.894693896 -2.351782112 34.479000000
v -1.744693896 4.048217888 34.479000000
v 2.123306104 3.528217888 34.479000000
v 3.518306104 12.563217888 34.479000000
v -0.589693896 12.814217888 34.479000000
v 0.167306104 17.817217887 34.479000000
v 12.193306104 15.768217888 34.479000000
v 11.363306104 12.083217888 34.479000000
v 12.372306104 12.021217887 34.479000000
v 12.193306104 15.768217888 37.887000000
v 0.167306104 17.817217887 37.484000000
v 3.518306104 12.563217888 38.820000000
v 3.518306104 12.563217888 37.598000000
v 2.123306104 3.528217888 38.724000000
v 2.123306104 3.528217888 40.474000000
v 2.804306104 3.436217887 39.055000000
v 1.080306104 -3.224782112 40.472000000
v 1.080306104 -3.224782112 38.652000000
v 1.780306104 -3.378782112 38.995000000
v 7.595306104 12.313217888 40.782000000
v 7.595306104 12.313217888 37.735000000
v -0.589693896 12.814217888 37.461000000
v -1.744693896 4.048217888 38.672000000
v -2.894693896 -2.351782112 38.597000000
v 9.917306104 -4.640782112 38.607000000
v 12.372306104 12.021217887 38.521000000
v 11.363306104 12.083217888 37.861000000
v 11.363306104 12.083217888 38.999000000
v 0.981306104 -3.860782112 38.645000000
v 5.374306104 -4.243782112 40.766000000
f 1 2 3
f 1 3 4
f 1 4 5
f 1 5 6
f 1 6 7
f 1 7 8
f 1 8 9
f 1 9 10
f 1 10 11
f 1 11 12
f 1 12 13
f 14 11 10
f 14 10 15
f 16 17 8
f 21 22 23
f 24 25 17
f 24 17 16
f 26 9 8
f 26 8 17
f 15 10 9
f 15 9 26
f 19 18 7
f 19 7 6
f 19 6 27
f 27 6 5
f 27 5 28
f 29 1 13
f 29 13 30
f 30 13 12
f 30 12 31
f 30 31 32
f 31 12 11
f 31 11 14
f 32 31 25
f 32 25 24
f 22 4 3
f 22 3 33
f 28 5 4
f 28 4 22
f 28 22 21
f 33 3 2
f 33 2 34
f 34 2 1
f 34 1 29
f 19 21 23
f 19 23 20
f 25 31 14
f 25 14 15
f 25 15 26
f 25 26 17
f 28 21 19
f 28 19 27
f 34 24 16
f 34 16 18
f 34 18 20
f 34 20 23
f 34 23 22
f 34 22 33
f 24 34 29
f 24 29 30
f 24 30 32
