v 2.004432837 10.785017505 55.919000000
v 6.729432837 -1.066982495 55.919000000
v 11.862432837 1.124017506 55.919000000
v 16.590432837 -10.489982494 55.919000000
v 12.777432837 -10.029982494 55.919000000
v 12.674432837 -8.601982495 55.919000000
v 7.412432837 -8.025982494 55.919000000
v 7.041432837 -4.653982494 55.919000000
v 3.348432837 -6.215982494 55.919000000
v -0.740567163 -7.945982494 55.919000000
v -3.199567163 -1.930982495 55.919000000
v -6.887567163 -2.112982495 55.919000000
v -8.477567163 2.034017506 55.919000000
v -10.118567163 6.317017506 55.919000000
v -8.800567163 7.289017506 55.919000000
v -7.816567163 7.056017506 55.919000000
v -6.828567163 7.431017506 55.919000000
v -2.758567163 8.977017506 55.919000000
v 12.777432837 -10.029982494 58.636000000
v 16.590432837 -10.489982494 58.722000000
v 11.862432837 1.124017506 58.699000000
v -7.816567163 7.056017506 58.901000000
v -8.800567163 7.289017506 58.634000000
v -6.828567163 7.431017506 58.914000000
v -3.199567163 -1.930982495 58.862000000
v -3.199567163 -1.930982495 58.252000000
v -0.740567163 -7.945982494 58.881000000
v -6.887567163 -2.112982495 58.820000000
v 6.729432837 -1.066982495 58.562000000
v 2.004432837 10.785017505 58.541000000
v -1.169567163 5.025017506 60.896000000
v -1.169567163 5.025017506 60.896000000
v -8.477567163 2.034017506 60.887000000
v -1.169567163 5.025017506 60.895000000
v -3.691567163 -0.726982495 58.858000000
v -10.118567163 6.317017506 58.813000000
v -2.758567163 8.977017506 60.894000000
v 3.348432837 -6.215982494 60.900000000
v 7.041432837 -4.653982494 58.542000000
v 7.412432837 -8.025982494 58.525000000
v 7.041432837 -4.653982494 59.047000000
v 6.651432837 -1.099982494 58.560000000
v 6.651432837 -1.099982494 58.601000000
v 12.674432837 -8.601982495 58.644000000
f 1 2 3
f 1 3 4
f 1 4 5
f 1 5 6
f 1 6 7
f 1 7 8
f 1 8 9
f 1 9 10
f 1 10 11
f 1 11 12
f 1 12 13
f 1 13 14
f 1 14 15
f 1 15 16
f 1 16 17
f 1 17 18
f 19 5 4
f 19 4 20
f 20 4 3
f 20 3 21
f 22 16 15
f 22 15 23
f 24 17 16
f 24 16 22
f 25 26 11
f 25 11 10
f 25 10 27
f 28 12 11
f 28 11 26
f 29 2 1
f 29 1 30
f 31 32 33
f 36 14 13
f 36 13 33
f 37 18 17
f 37 17 24
f 32 31 34
f 33 13 12
f 33 12 28
f 27 10 9
f 27 9 38
f 39 8 7
f 39 7 40
f 38 9 8
f 38 8 39
f 38 39 41
f 41 39 42
f 41 42 43
f 30 1 18
f 30 18 37
f 23 15 14
f 23 14 36
f 43 42 29
f 21 3 2
f 21 2 29
f 40 7 6
f 40 6 44
f 44 6 5
f 44 5 19
f 34 37 24
f 26 35 31
f 26 31 33
f 26 33 28
f 38 34 35
f 38 35 25
f 38 25 27
f 23 36 33
f 23 33 32
f 23 32 24
f 23 24 22
f 43 29 30
f 43 30 37
f 43 37 34
f 43 34 38
f 43 38 41
f 44 19 20
f 44 20 21
f 44 21 29
f 44 29 42
f 44 42 39
f 44 39 40
