v 7.355263198 1.447252160 37.200000000
v 3.312263198 -0.012747840 37.200000000
v -0.682736802 -1.454747840 37.200000000
v -3.162736802 5.523252160 37.200000000
v -1.628736802 6.124252160 37.200000000
v -2.440736802 9.601252160 37.200000000
v 2.015263198 11.273252160 37.200000000
v 3.238263198 8.502252160 37.200000000
v 3.858263198 8.277252160 37.200000000
v 4.397263198 8.489252160 37.200000000
v 4.435263198 8.607252160 37.200000000
v 4.701263198 7.972252160 37.200000000
v 5.286263198 7.760252160 37.200000000
v 4.954263198 7.367252160 37.200000000
v 5.858263198 5.210252160 37.200000000
v 7.461263198 1.383252160 37.200000000
v -3.162736802 5.523252160 40.167000000
v -0.682736802 -1.454747840 40.041000000
v -1.628736802 6.124252160 42.004000000
v -1.628736802 6.124252160 40.263000000
v 3.858263198 8.277252160 40.896000000
v 3.238263198 8.502252160 40.193000000
v 3.238263198 8.502252160 41.460000000
v 1.698263198 7.430252160 43.512000000
v 1.698263198 7.430252160 40.252000000
v 0.670263198 7.026252160 40.255000000
v 0.670263198 7.026252160 44.757000000
v 2.894263198 8.627252160 41.773000000
v 2.894263198 8.627252160 40.165000000
v 4.435263198 8.607252160 40.156000000
v 4.397263198 8.489252160 40.243000000
v 4.701263198 7.972252160 40.782000000
v -2.440736802 9.601252160 39.830000000
v 2.015263198 11.273252160 39.824000000
v 3.312263198 -0.012747840 44.778000000
v 5.286263198 7.760252160 41.155000000
v 4.954263198 7.367252160 41.378000000
v 5.858263198 5.210252160 43.506000000
v 7.355263198 1.447252160 39.932000000
v 7.461263198 1.383252160 39.846000000
v 2.973263198 4.100252160 43.496000000
f 1 2 3
f 1 3 4
f 1 4 5
f 1 5 6
f 1 6 7
f 1 7 8
f 1 8 9
f 1 9 10
f 1 10 11
f 1 11 12
f 1 12 13
f 1 13 14
f 1 14 15
f 1 15 16
f 17 4 3
f 17 3 18
f 19 20 5
f 19 5 4
f 19 4 17
f 21 9 8
f 21 8 22
f 21 22 23
f 24 25 26
f 24 26 27
f 28 29 25
f 28 25 24
f 30 11 10
f 30 10 31
f 32 12 11
f 32 11 30
f 33 6 5
f 33 5 20
f 27 26 20
f 27 20 19
f 34 7 6
f 34 6 33
f 23 22 29
f 23 29 28
f 18 3 2
f 18 2 35
f 31 10 9
f 31 9 21
f 36 13 12
f 36 12 32
f 37 14 13
f 37 13 36
f 38 15 14
f 38 14 37
f 39 1 16
f 39 16 40
f 40 16 15
f 40 15 38
f 35 2 1
f 35 1 39
f 22 8 7
f 22 7 34
f 18 35 27
f 18 27 19
f 18 19 17
f 38 37 36
f 38 36 32
f 38 32 30
f 38 30 31
f 38 31 41
f 40 38 41
f 40 41 39
f 35 39 41
f 35 41 31
f 35 31 21
f 35 21 23
f 35 23 28
f 35 28 24
f 35 24 27
f 22 34 33
f 22 33 20
f 22 20 26
f 22 26 25
f 22 25 29
