v -40.428978968 15.047773507 0.980000000
v -38.462978969 16.922773507 0.980000000
v -37.812978968 15.948773507 0.980000000
v -31.539978968 22.242773507 0.980000000
v -31.919978968 22.894773507 0.980000000
v -32.479978969 23.857773507 0.980000000
v -32.862978968 24.197773507 0.980000000
v -26.356978968 30.803773507 0.980000000
v -23.452978969 28.317773507 0.980000000
v -21.182978968 30.948773507 0.980000000
v -20.268978968 31.223773507 0.980000000
v -12.383978968 41.171773507 0.980000000
v -6.115978968 35.686773507 0.980000000
v -5.888978968 35.952773507 0.980000000
v 0.038021032 30.047773507 0.980000000
v -25.050978969 0.866773507 0.980000000
v -31.345978968 6.183773507 0.980000000
v -31.692978968 5.776773507 0.980000000
v -38.363978968 13.456773507 0.980000000
v -37.975978968 13.364773507 0.980000000
v -38.739978969 13.888773507 0.980000000
v -39.264978968 14.492773507 0.980000000
v -39.408978969 14.347773507 0.980000000
v -23.452978969 28.317773507 4.721000000
v -26.356978968 30.803773507 4.313000000
v -32.862978968 24.197773507 4.207000000
v -32.479978969 23.857773507 4.262000000
v -29.547978968 21.250773507 5.654000000
v -29.547978968 21.250773507 4.680000000
v -31.685978969 23.151773507 4.375000000
v -31.685978969 23.151773507 4.639000000
v -23.452978969 28.317773507 5.671000000
v -31.919978968 22.894773507 4.372000000
v -31.919978968 22.894773507 4.635000000
v -31.539978968 22.242773507 4.888000000
v 0.038021032 30.047773507 5.743000000
v -5.888978968 35.952773507 8.653000000
v -37.812978968 15.948773507 4.645000000
v -25.050978969 0.866773507 5.769000000
v -20.268978968 31.223773507 5.860000000
v -21.182978968 30.948773507 5.677000000
v -31.692978968 5.776773507 8.642000000
v -31.345978968 6.183773507 8.642000000
v -6.115978968 35.686773507 8.652000000
v -12.383978968 41.171773507 5.696000000
v -38.462978969 16.922773507 4.622000000
v -40.428978968 15.047773507 4.557000000
v -37.812978968 15.948773507 4.847000000
v -39.264978968 14.492773507 4.808000000
v -39.264978968 14.492773507 4.589000000
v -39.408978969 14.347773507 4.804000000
v -38.739978969 13.888773507 4.870000000
v -37.975978968 13.364773507 5.197000000
v -38.363978968 13.456773507 5.071000000
v 6.507021032 27.850773507 0.980000000
v 0.928021032 32.609773507 0.980000000
v 16.490021032 50.537773507 0.980000000
v 14.657021031 51.902773507 0.980000000
v 9.577021032 46.332773507 0.980000000
v 7.307021032 48.845773507 0.980000000
v 9.850021032 51.195773507 0.980000000
v 9.745021032 53.866773507 0.980000000
v 11.073021032 54.571773507 0.980000000
v 11.804021032 54.027773507 0.980000000
v 12.072021032 55.102773507 0.980000000
v 17.196021032 57.825773507 0.980000000
v 18.225021032 59.622773507 0.980000000
v 31.981021032 47.679773507 0.980000000
v 27.430021032 42.387773507 0.980000000
v 11.367021032 23.705773507 0.980000000
v 16.490021032 50.537773507 4.210000000
v 0.928021032 32.609773507 4.165000000
v 22.391021032 46.141773507 7.705000000
v 22.391021032 46.141773507 4.201000000
v 21.173021032 47.049773507 4.203000000
v 21.173021032 47.049773507 6.983000000
v 27.430021032 42.387773507 4.194000000
v 31.981021032 47.679773507 4.207000000
v 27.430021032 42.387773507 4.704000000
v 9.577021032 46.332773507 3.943000000
v 14.657021031 51.902773507 3.958000000
v 14.657021031 51.902773507 4.213000000
v 6.507021032 27.850773507 7.656000000
v 11.367021032 23.705773507 4.597000000
v 9.850021032 51.195773507 3.968000000
v 7.307021032 48.845773507 3.963000000
v 9.745021032 53.866773507 3.983000000
v 11.804021032 54.027773507 4.217000000
v 11.804021032 54.027773507 3.978000000
v 11.073021032 54.571773507 3.983000000
v 17.196021032 57.825773507 4.228000000
v 12.072021032 55.102773507 4.220000000
v 18.225021032 59.622773507 4.232000000
v 17.109021032 51.251773507 4.212000000
v 14.330021032 3.162773507 0.980000000
v 15.691021032 1.970773507 0.980000000
v 17.664021032 -0.455226493 0.980000000
v 8.992021032 -9.449226493 0.980000000
v 4.848021032 -6.764226492 0.980000000
v 5.584021032 -5.993226493 0.980000000
v 1.352021032 -3.527226493 0.980000000
v 10.615021032 6.416773507 0.980000000
v 17.664021032 -0.455226493 4.550000000
v 15.691021032 1.970773507 6.690000000
v 4.848021032 -6.764226492 7.935000000
v 8.992021032 -9.449226493 4.589000000
v 5.584021032 -5.993226493 7.935000000
v 10.615021032 6.416773507 4.540000000
v 1.352021032 -3.527226493 4.655000000
v 14.330021032 3.162773507 7.937000000
f 55 56 57
f 55 57 58
f 55 58 59
f 55 59 60
f 55 60 61
f 55 61 62
f 55 62 63
f 55 63 64
f 55 64 65
f 55 65 66
f 55 66 67
f 55 67 68
f 55 68 69
f 55 69 70
f 71 57 56
f 71 56 72
f 73 74 75
f 73 75 76
f 77 69 68
f 77 68 78
f 79 77 74
f 79 74 73
f 80 59 58
f 80 58 81
f 82 81 58
f 82 58 57
f 82 57 71
f 83 55 70
f 83 70 84
f 85 61 60
f 85 60 86
f 86 60 59
f 86 59 80
f 87 62 61
f 87 61 85
f 88 89 81
f 88 81 82
f 89 64 63
f 89 63 90
f 90 63 62
f 90 62 87
f 91 66 65
f 91 65 92
f 93 67 66
f 93 66 91
f 92 65 64
f 92 64 89
f 92 89 88
f 78 68 67
f 78 67 93
f 84 70 69
f 84 69 77
f 84 77 79
f 72 56 55
f 72 55 83
f 76 75 94
f 90 87 85
f 90 85 86
f 90 86 80
f 90 80 81
f 90 81 89
f 84 79 73
f 84 73 83
f 94 71 72
f 94 72 83
f 94 83 73
f 94 73 76
f 71 94 75
f 71 75 74
f 71 74 77
f 71 77 78
f 71 78 93
f 71 93 91
f 71 91 92
f 71 92 88
f 71 88 82
f 95 96 97
f 95 97 98
f 95 98 99
f 95 99 100
f 95 100 101
f 95 101 102
f 103 97 96
f 103 96 104
f 105 99 98
f 105 98 106
f 107 100 99
f 107 99 105
f 108 102 101
f 108 101 109
f 109 101 100
f 109 100 107
f 110 95 102
f 110 102 108
f 106 98 97
f 106 97 103
f 104 96 95
f 104 95 110
f 110 107 105
f 110 105 106
f 110 106 103
f 110 103 104
f 107 110 108
f 107 108 109
f 1 2 3
f 1 3 4
f 1 4 5
f 1 5 6
f 1 6 7
f 1 7 8
f 1 8 9
f 1 9 10
f 1 10 11
f 1 11 12
f 1 12 13
f 1 13 14
f 1 14 15
f 1 15 16
f 1 16 17
f 1 17 18
f 1 18 19
f 1 19 20
f 1 20 21
f 1 21 22
f 1 22 23
f 24 9 8
f 24 8 25
f 26 7 6
f 26 6 27
f 25 8 7
f 25 7 26
f 28 29 30
f 28 30 31
f 32 24 29
f 32 29 28
f 31 30 33
f 31 33 34
f 34 33 5
f 34 5 4
f 34 4 35
f 36 15 14
f 36 14 37
f 27 6 5
f 27 5 33
f 35 4 3
f 35 3 38
f 39 16 15
f 39 15 36
f 40 11 10
f 40 10 41
f 41 10 9
f 41 9 24
f 41 24 32
f 42 18 17
f 42 17 43
f 43 17 16
f 43 16 39
f 44 13 12
f 44 12 45
f 37 14 13
f 37 13 44
f 45 12 11
f 45 11 40
f 46 2 1
f 46 1 47
f 48 38 3
f 48 3 2
f 48 2 46
f 49 50 38
f 49 38 48
f 47 1 23
f 47 23 51
f 51 23 22
f 51 22 50
f 51 50 49
f 50 22 21
f 50 21 52
f 52 21 20
f 52 20 53
f 53 20 19
f 53 19 54
f 54 19 18
f 54 18 42
f 27 33 30
f 27 30 29
f 27 29 24
f 27 24 25
f 27 25 26
f 51 49 48
f 51 48 46
f 51 46 47
f 44 43 39
f 44 39 36
f 44 36 37
f 43 44 45
f 43 45 40
f 43 40 41
f 43 41 32
f 43 32 28
f 43 28 31
f 43 31 34
f 43 34 35
f 43 35 38
f 43 38 50
f 43 50 52
f 43 52 53
f 43 53 54
f 43 54 42
