v -3.873307424 6.876914173 29.569000000
v -5.280307424 7.473914173 29.569000000
v -7.258307424 2.685914173 29.569000000
v -12.901307424 5.308914173 29.569000000
v -11.822307424 6.505914173 29.569000000
v -12.754307424 9.756914173 29.569000000
v -14.403307424 9.846914173 29.569000000
v -12.937307424 14.766914173 29.569000000
v -2.801307424 11.821914174 29.569000000
v -3.667307424 7.828914173 29.569000000
v 1.443692576 6.243914173 29.569000000
v 5.761692576 4.905914173 29.569000000
v 4.619692576 0.852914173 29.569000000
v 4.788692576 0.673914174 29.569000000
v 4.572692576 0.684914174 29.569000000
v 4.037692576 -1.214085827 29.569000000
v 3.579692576 -2.842085827 29.569000000
v 2.136692576 -7.965085827 29.569000000
v -2.206307424 -6.734085827 29.569000000
v -6.413307424 -5.542085826 29.569000000
v -5.737307424 -3.157085827 29.569000000
v -5.413307424 -2.012085827 29.569000000
v -3.806307424 3.661914174 29.569000000
v -3.476307424 4.825914173 29.569000000
v -4.205307424 5.343914174 29.569000000
v 4.619692576 0.852914173 33.286000000
v 5.761692576 4.905914173 33.296000000
v 4.788692576 0.673914174 33.067000000
v -4.205307424 5.343914174 32.601000000
v -3.476307424 4.825914173 33.471000000
v -3.806307424 3.661914174 35.944000000
v 1.443692576 6.243914173 37.981000000
v 2.136692576 -7.965085827 33.265000000
v 3.579692576 -2.842085827 33.277000000
v -6.413307424 -5.542085826 33.419000000
v -2.206307424 -6.734085827 37.943000000
v -1.288307424 3.018914173 36.153000000
v -1.288307424 3.018914173 36.593000000
v -0.834307424 2.556914173 36.733000000
v 2.807692576 -2.385085827 35.469000000
v 2.807692576 -2.385085827 34.176000000
v 3.579692576 -2.842085827 35.240000000
v 2.452692576 -3.577085827 34.193000000
v -3.667307424 7.828914173 32.140000000
v -3.667307424 7.828914173 32.448000000
v -3.873307424 6.876914173 32.122000000
v -3.873307424 6.876914173 32.507000000
v -12.937307424 14.766914173 32.165000000
v -14.403307424 9.846914173 32.068000000
v -12.754307424 9.756914173 32.083000000
v -2.677307424 -2.848085827 36.396000000
v -2.677307424 -2.848085827 36.648000000
v -2.629307424 -2.736085827 36.653000000
v 4.037692576 -1.214085827 36.975000000
v -5.413307424 -2.012085827 35.934000000
v -5.737307424 -3.157085827 33.431000000
v -11.822307424 6.505914173 32.037000000
v -7.258307424 2.685914173 32.018000000
v -5.280307424 7.473914173 32.118000000
v -2.801307424 11.821914174 32.216000000
v 1.128692576 -0.406085826 36.411000000
v 1.128692576 -0.406085826 36.936000000
v 1.009692576 -0.058085827 36.628000000
v -2.333307424 -2.813085827 36.729000000
v 3.736692576 0.726914173 35.157000000
v 3.736692576 0.726914173 34.131000000
v 3.977692576 1.533914173 34.120000000
v 3.977692576 1.533914173 34.306000000
v 3.887692576 1.629914173 34.236000000
v 4.572692576 0.684914174 34.982000000
v 4.572692576 0.684914174 33.286000000
v -2.096307424 3.842914173 35.120000000
v 1.270692576 -0.819085827 36.570000000
v 1.270692576 -0.819085827 36.152000000
v 1.077692576 -1.062085827 36.275000000
v -12.901307424 5.308914173 32.007000000
v -14.629307424 -12.271085827 29.569000000
v -13.878307424 -10.503085827 29.569000000
v -9.438307424 -11.487085827 29.569000000
v -9.235307424 -13.625085827 29.569000000
v -9.235307424 -13.625085827 32.721000000
v -9.438307424 -11.487085827 31.722000000
v -14.629307424 -12.271085827 32.642000000
v -13.878307424 -10.503085827 31.719000000
f 1 2 3
f 1 3 4
f 1 4 5
f 1 5 6
f 1 6 7
f 1 7 8
f 1 8 9
f 1 9 10
f 1 10 11
f 1 11 12
f 1 12 13
f 1 13 14
f 1 14 15
f 1 15 16
f 1 16 17
f 1 17 18
f 1 18 19
f 1 19 20
f 1 20 21
f 1 21 22
f 1 22 23
f 1 23 24
f 1 24 25
f 26 13 12
f 26 12 27
f 28 14 13
f 28 13 26
f 29 25 24
f 29 24 30
f 30 24 23
f 30 23 31
f 27 12 11
f 27 11 32
f 33 18 17
f 33 17 34
f 35 20 19
f 35 19 36
f 40 41 34
f 40 34 42
f 41 40 43
f 32 11 10
f 32 10 44
f 32 44 45
f 45 44 46
f 45 46 47
f 48 8 7
f 48 7 49
f 49 7 6
f 49 6 50
f 51 52 53
f 42 34 17
f 42 17 16
f 42 16 54
f 55 22 21
f 55 21 56
f 50 6 5
f 50 5 57
f 58 3 2
f 58 2 59
f 44 10 9
f 44 9 60
f 60 9 8
f 60 8 48
f 61 62 63
f 52 51 64
f 65 66 67
f 65 67 68
f 68 67 69
f 70 71 66
f 70 66 65
f 31 23 22
f 31 22 55
f 73 74 75
f 62 61 74
f 62 74 73
f 36 19 18
f 36 18 33
f 57 5 4
f 57 4 76
f 76 4 3
f 76 3 58
f 56 21 20
f 56 20 35
f 47 46 1
f 47 1 25
f 47 25 29
f 59 2 1
f 59 1 46
f 54 16 15
f 54 15 71
f 54 71 70
f 71 15 14
f 71 14 28
f 56 51 53
f 56 53 55
f 31 38 72
f 31 72 30
f 64 39 38
f 64 38 31
f 64 31 55
f 64 53 52
f 59 46 44
f 59 44 60
f 59 60 48
f 59 48 49
f 59 49 50
f 59 50 57
f 59 57 76
f 59 76 58
f 54 62 73
f 54 73 75
f 54 75 43
f 54 43 40
f 54 40 42
f 54 70 65
f 54 65 68
f 54 68 69
f 54 69 63
f 54 63 62
f 32 36 33
f 32 33 34
f 32 34 41
f 32 41 43
f 32 43 75
f 32 75 74
f 32 74 61
f 32 61 63
f 32 63 69
f 32 69 67
f 32 67 66
f 32 66 71
f 32 71 28
f 32 28 26
f 32 26 27
f 36 32 45
f 36 45 47
f 36 47 29
f 36 29 30
f 36 30 72
f 36 72 37
f 36 37 39
f 36 39 64
f 36 64 51
f 36 51 56
f 36 56 35
f 77 78 79
f 77 79 80
f 81 80 79
f 81 79 82
f 83 77 80
f 83 80 81
f 82 79 78
f 82 78 84
f 84 78 77
f 84 77 83
f 84 83 81
f 84 81 82
