v 4.624010385 -1.590865187 69.000000000
v 1.254010385 1.834134812 69.000000000
v 0.764010385 1.823134813 69.000000000
v 4.123010385 5.849134813 69.000000000
v 2.061010385 6.033134812 69.000000000
v 1.109010385 5.837134813 69.000000000
v -2.429989615 5.111134813 69.000000000
v -2.414989615 4.630134813 69.000000000
v -9.130989615 10.838134813 69.000000000
v -9.217989615 10.918134812 69.000000000
v 0.684010385 21.179134813 69.000000000
v 0.676010385 21.475134812 69.000000000
v 15.474010385 7.246134813 69.000000000
v 15.217010385 7.210134813 69.000000000
v 5.408010385 -3.373865187 69.000000000
v 5.468010385 -2.449865188 69.000000000
v 5.293010385 -2.270865187 69.000000000
v 3.746010385 -2.434865187 69.000000000
v 0.867010385 14.733134813 73.657000000
v 0.867010385 14.733134813 73.656000000
v 0.867010385 14.733134813 73.654000000
v 0.684010385 21.179134813 71.539000000
v -2.609989615 11.038134812 73.659000000
v -9.217989615 10.918134812 71.460000000
v -9.130989615 10.838134813 71.515000000
v 2.061010385 6.033134812 71.108000000
v 4.123010385 5.849134813 71.480000000
v 4.123010385 5.849134813 71.706000000
v 0.764010385 1.823134813 71.620000000
v 15.217010385 7.210134813 71.599000000
v 15.217010385 7.210134813 71.529000000
v 15.474010385 7.246134813 71.505000000
v 0.894010385 13.596134813 73.280000000
v 12.933010385 6.888134813 72.439000000
v 12.933010385 6.888134813 72.188000000
v -2.414989615 4.630134813 71.524000000
v -2.429989615 5.111134813 71.684000000
v 1.109010385 5.837134813 70.703000000
v 0.676010385 21.475134812 71.442000000
v 1.109010385 5.837134813 70.737000000
v 8.718010385 5.440134813 73.134000000
v 8.718010385 5.440134813 73.040000000
v 7.373010385 5.560134812 72.650000000
v 5.481010385 -2.250865187 71.759000000
v 5.481010385 -2.250865187 71.772000000
v 5.495010385 -2.031865187 71.837000000
v 8.857010385 5.587134813 73.134000000
v 5.408010385 -3.373865187 71.440000000
v 5.468010385 -2.449865188 71.713000000
v 5.293010385 -2.270865187 71.828000000
v 5.293010385 -2.270865187 71.692000000
v 1.254010385 1.834134812 71.779000000
v 4.624010385 -1.590865187 71.707000000
v 3.746010385 -2.434865187 71.147000000
v 11.084010385 7.233134813 72.914000000
v 8.810010385 7.187134813 73.657000000
v 5.399010385 1.928134813 73.126000000
f 1 2 3
f 1 3 4
f 1 4 5
f 1 5 6
f 1 6 7
f 1 7 8
f 1 8 9
f 1 9 10
f 1 10 11
f 1 11 12
f 1 12 13
f 1 13 14
f 1 14 15
f 1 15 16
f 1 16 17
f 1 17 18
f 19 20 21
f 24 10 9
f 24 9 25
f 26 5 4
f 26 4 27
f 26 27 28
f 27 4 3
f 27 3 29
f 30 31 14
f 30 14 13
f 30 13 32
f 34 35 31
f 34 31 30
f 36 8 7
f 36 7 37
f 37 7 6
f 37 6 38
f 32 13 12
f 32 12 39
f 40 38 6
f 40 6 5
f 40 5 26
f 41 42 43
f 28 27 43
f 44 45 46
f 25 9 8
f 25 8 36
f 42 41 47
f 22 11 10
f 22 10 24
f 39 12 11
f 39 11 22
f 48 15 14
f 48 14 31
f 49 16 15
f 49 15 48
f 50 51 17
f 50 17 16
f 50 16 49
f 45 44 51
f 45 51 50
f 52 2 1
f 52 1 53
f 29 3 2
f 29 2 52
f 53 1 18
f 53 18 54
f 54 18 17
f 54 17 51
f 35 34 55
f 38 33 20
f 38 20 23
f 38 23 37
f 25 36 37
f 25 37 23
f 22 24 25
f 22 25 23
f 22 23 19
f 35 55 56
f 35 56 47
f 35 47 41
f 35 41 57
f 35 57 46
f 35 46 45
f 35 45 50
f 35 50 49
f 35 49 48
f 35 48 31
f 29 52 57
f 29 57 41
f 29 41 43
f 29 43 27
f 56 21 33
f 56 33 40
f 56 40 26
f 56 26 28
f 56 28 43
f 56 43 42
f 56 42 47
f 54 51 44
f 54 44 46
f 54 46 57
f 54 57 52
f 54 52 53
f 55 34 30
f 55 30 32
f 55 32 39
f 55 39 22
f 55 22 21
f 55 21 56
