v 81.700986457 -20.151980536 77.209000000
v 66.485986457 -18.328980535 77.209000000
v 67.279986457 -13.601980535 77.209000000
v 68.006986457 -9.269980536 77.209000000
v 82.956986457 -11.549980535 77.209000000
v 82.358986457 -15.642980536 77.209000000
v 68.006986457 -9.269980536 83.622000000
v 67.279986457 -13.601980535 88.017000000
v 82.956986457 -11.549980535 83.885000000
v 66.485986457 -18.328980535 83.255000000
v 81.700986457 -20.151980536 83.498000000
v 82.358986457 -15.642980536 88.026000000
v 82.334986457 -59.853980536 77.209000000
v 82.815986457 -55.960980535 77.209000000
v 83.272986457 -52.262980536 77.209000000
v 96.942986457 -53.724980536 77.209000000
v 96.263986457 -57.580980536 77.209000000
v 95.623986457 -61.207980536 77.209000000
v 95.623986457 -61.207980536 83.881000000
v 96.263986457 -57.580980536 86.129000000
v 96.942986457 -53.724980536 83.686000000
v 83.272986457 -52.262980536 83.830000000
v 82.815986457 -55.960980535 86.158000000
v 82.334986457 -59.853980536 83.759000000
v 49.340986457 -45.095980535 77.209000000
v 48.927986457 -48.117980536 77.209000000
v 41.891986457 -47.254980535 77.209000000
v 42.259986457 -44.090980535 77.209000000
v 42.627986457 -40.923980536 77.209000000
v 49.482986457 -41.874980535 77.209000000
v 49.527986457 -45.121980536 77.209000000
v 42.259986457 -44.090980535 82.980000000
v 41.891986457 -47.254980535 81.804000000
v 48.927986457 -48.117980536 81.906000000
v 49.482986457 -41.874980535 81.821000000
v 42.627986457 -40.923980536 81.778000000
v 49.527986457 -45.121980536 83.034000000
v 49.340986457 -45.095980535 83.033000000
v 61.954986457 -43.295980535 77.209000000
v 62.432986457 -37.948980535 77.209000000
v 62.922986457 -32.455980536 77.209000000
v 85.141986457 -35.581980536 77.209000000
v 85.198986457 -35.095980535 77.209000000
v 86.697986457 -22.189980536 77.209000000
v 91.078986457 -22.576980536 77.209000000
v 95.347986457 -22.953980535 77.209000000
v 93.269986457 -35.362980535 77.209000000
v 107.880986457 -37.170980535 77.209000000
v 107.065986457 -42.241980536 77.209000000
v 106.260986457 -47.255980535 77.209000000
v 92.090986457 -45.347980536 77.209000000
v 91.879986457 -47.364980536 77.209000000
v 79.299986457 -45.672980536 77.209000000
v 76.677986457 -45.319980536 77.209000000
v 76.606986457 -45.745980536 77.209000000
v 74.877986457 -46.488980535 77.209000000
v 75.368986457 -44.829980535 77.209000000
v 74.225986457 -44.965980535 77.209000000
v 75.326986457 -43.923980536 77.209000000
v 72.198986457 -44.833980535 77.209000000
v 92.090986457 -45.347980536 84.937000000
v 92.090986457 -45.347980536 83.985000000
v 92.439986457 -42.012980536 86.577000000
v 92.439986457 -42.012980536 87.162000000
v 106.260986457 -47.255980535 83.954000000
v 92.615986457 -40.322980535 87.890000000
v 92.615986457 -40.322980535 86.013000000
v 92.481986457 -41.611980536 86.889000000
v 91.750986457 -40.207980536 87.891000000
v 91.750986457 -40.207980536 86.014000000
v 93.136986457 -35.346980535 83.994000000
v 93.136986457 -35.346980535 83.531000000
v 93.002986457 -36.626980536 83.502000000
v 93.002986457 -36.626980536 84.996000000
v 62.432986457 -37.948980535 87.144000000
v 61.954986457 -43.295980535 83.584000000
v 85.141986457 -35.581980536 83.511000000
v 62.922986457 -32.455980536 83.419000000
v 93.269986457 -35.362980535 83.426000000
v 95.347986457 -22.953980535 83.101000000
v 93.269986457 -35.362980535 83.993000000
v 85.198986457 -35.095980535 83.180000000
v 92.934986457 -37.272980535 83.941000000
v 92.934986457 -37.272980535 85.502000000
v 75.368986457 -44.829980535 84.580000000
v 75.368986457 -44.829980535 83.558000000
v 76.786986457 -44.659980536 83.738000000
v 76.786986457 -44.659980536 85.815000000
v 74.877986457 -46.488980535 80.804000000
v 86.697986457 -22.189980536 83.008000000
v 107.880986457 -37.170980535 83.879000000
v 107.065986457 -42.241980536 87.879000000
v 91.078986457 -22.576980536 86.441000000
v 76.677986457 -45.319980536 85.843000000
v 76.677986457 -45.319980536 82.635000000
v 79.299986457 -45.672980536 83.576000000
v 75.326986457 -43.923980536 84.370000000
v 74.225986457 -44.965980535 83.586000000
v 72.198986457 -44.833980535 83.491000000
v 76.606986457 -45.745980536 81.925000000
v 91.879986457 -47.364980536 83.591000000
v 88.695986457 -40.432980536 86.440000000
v 77.202986457 -42.145980536 85.708000000
f 39 40 41
f 39 41 42
f 39 42 43
f 39 43 44
f 39 44 45
f 39 45 46
f 39 46 47
f 39 47 48
f 39 48 49
f 39 49 50
f 39 50 51
f 39 51 52
f 39 52 53
f 39 53 54
f 39 54 55
f 39 55 56
f 39 56 57
f 39 57 58
f 39 58 59
f 39 59 60
f 61 62 63
f 61 63 64
f 62 51 50
f 62 50 65
f 66 67 68
f 64 63 68
f 69 70 67
f 69 67 66
f 71 72 73
f 71 73 74
f 75 40 39
f 75 39 76
f 77 42 41
f 77 41 78
f 78 41 40
f 78 40 75
f 79 47 46
f 79 46 80
f 81 79 72
f 81 72 71
f 82 43 42
f 82 42 77
f 74 73 83
f 74 83 84
f 85 86 87
f 85 87 88
f 86 57 56
f 86 56 89
f 90 44 43
f 90 43 82
f 91 48 47
f 91 47 79
f 91 79 81
f 92 49 48
f 92 48 91
f 65 50 49
f 65 49 92
f 93 45 44
f 93 44 90
f 80 46 45
f 80 45 93
f 94 95 54
f 94 54 53
f 94 53 96
f 88 87 95
f 88 95 94
f 84 83 70
f 84 70 69
f 97 59 58
f 97 58 98
f 99 60 59
f 99 59 97
f 98 58 57
f 98 57 86
f 98 86 85
f 76 39 60
f 76 60 99
f 100 55 54
f 100 54 95
f 89 56 55
f 89 55 100
f 96 53 52
f 96 52 101
f 101 52 51
f 101 51 62
f 101 62 61
f 66 92 91
f 66 91 81
f 66 81 71
f 66 71 74
f 66 74 84
f 66 84 69
f 93 102 73
f 93 73 72
f 93 72 79
f 93 79 80
f 102 82 77
f 102 77 78
f 102 78 75
f 102 75 64
f 102 64 68
f 102 68 67
f 102 67 70
f 102 70 83
f 102 83 73
f 92 66 68
f 92 68 63
f 92 63 62
f 92 62 65
f 103 88 94
f 103 94 96
f 89 100 95
f 89 95 87
f 89 87 86
f 102 93 90
f 102 90 82
f 97 103 96
f 97 96 101
f 97 101 61
f 97 61 64
f 97 64 75
f 97 75 76
f 97 76 99
f 103 97 98
f 103 98 85
f 103 85 88
f 25 26 27
f 25 27 28
f 25 28 29
f 25 29 30
f 25 30 31
f 32 28 27
f 32 27 33
f 33 27 26
f 33 26 34
f 35 30 29
f 35 29 36
f 36 29 28
f 36 28 32
f 37 31 30
f 37 30 35
f 38 25 31
f 38 31 37
f 34 26 25
f 34 25 38
f 38 37 35
f 38 35 36
f 38 36 32
f 34 38 32
f 34 32 33
f 13 14 15
f 13 15 16
f 13 16 17
f 13 17 18
f 19 18 17
f 19 17 20
f 21 16 15
f 21 15 22
f 22 15 14
f 22 14 23
f 20 17 16
f 20 16 21
f 24 13 18
f 24 18 19
f 23 14 13
f 23 13 24
f 20 21 22
f 20 22 23
f 23 24 19
f 23 19 20
f 1 2 3
f 1 3 4
f 1 4 5
f 1 5 6
f 7 4 3
f 7 3 8
f 9 5 4
f 9 4 7
f 10 2 1
f 10 1 11
f 8 3 2
f 8 2 10
f 11 1 6
f 11 6 12
f 12 6 5
f 12 5 9
f 11 12 8
f 11 8 10
f 12 9 7
f 12 7 8
