v 13.013201116 9.460709666 38.619000000
v 13.115201116 9.149709666 38.619000000
v 13.796201116 7.095709666 38.619000000
v 14.777201116 7.141709666 38.619000000
v 14.997201116 4.916709666 38.619000000
v 15.780201116 3.094709666 38.619000000
v 15.179201116 3.071709666 38.619000000
v 15.209201116 2.761709666 38.619000000
v 15.855201116 0.790709666 38.619000000
v 9.612201116 -0.667290334 38.619000000
v 5.716201116 2.715709666 38.619000000
v -7.247798884 2.228709666 38.619000000
v -7.383798884 2.072709667 38.619000000
v -7.348798884 2.224709666 38.619000000
v -7.494798884 2.219709666 38.619000000
v -8.224798884 10.359709666 38.619000000
v -7.935798884 10.373709667 38.619000000
v 14.963201116 11.495709666 38.619000000
v 14.636201116 9.547709666 38.619000000
v 15.179201116 3.071709666 42.754000000
v 15.780201116 3.094709666 42.540000000
v 15.209201116 2.761709666 42.742000000
v 15.179201116 3.071709666 42.771000000
v -8.224798884 10.359709666 42.658000000
v -7.494798884 2.219709666 42.806000000
v -7.348798884 2.224709666 42.856000000
v 14.963201116 11.495709666 42.675000000
v 14.963201116 11.495709666 42.675000000
v 13.013201116 9.460709666 43.377000000
v -7.935798884 10.373709667 42.692000000
v 14.777201116 7.141709666 42.803000000
v 13.796201116 7.095709666 43.153000000
v 15.103201116 3.084709666 42.777000000
v 15.103201116 3.084709666 42.781000000
v 10.745201116 6.952709666 44.240000000
v 15.103201116 3.084709666 42.772000000
v 5.716201116 2.715709666 42.807000000
v 13.013201116 9.460709666 43.377000000
v 14.636201116 9.547709666 42.821000000
v 12.811201116 9.249709666 43.453000000
v 12.811201116 9.249709666 43.450000000
v 11.877201116 8.211709666 43.809000000
v 10.745201116 6.952709666 44.244000000
v 14.997201116 4.916709666 42.776000000
v 9.612201116 -0.667290334 42.466000000
v 13.115201116 9.149709666 43.348000000
v 15.128201116 3.080709666 42.772000000
v -7.247798884 2.228709666 42.890000000
v -7.247798884 2.228709666 42.856000000
v -6.386798884 3.218709666 43.196000000
v -3.727798884 6.273709666 44.247000000
v -3.727798884 6.273709666 44.244000000
v -3.727798884 6.273709666 44.139000000
v -5.852798884 8.394709666 43.442000000
v 15.855201116 0.790709666 42.555000000
v -7.383798884 2.072709667 42.842000000
v -7.935798884 10.373709667 42.757000000
v -7.857798884 10.131709666 42.780000000
v 12.991201116 9.437709666 43.385000000
v 2.221201116 6.552709666 44.244000000
v -10.838798884 -7.457290334 38.619000000
v -10.918798884 -5.539290334 38.619000000
v -6.637798884 -3.054290334 38.619000000
v -6.575798884 -7.115290334 38.619000000
v -6.637798884 -3.054290334 42.583000000
v -10.918798884 -5.539290334 42.412000000
v -6.575798884 -7.115290334 42.565000000
v -10.838798884 -7.457290334 42.405000000
f 1 2 3
f 1 3 4
f 1 4 5
f 1 5 6
f 1 6 7
f 1 7 8
f 1 8 9
f 1 9 10
f 1 10 11
f 1 11 12
f 1 12 13
f 1 13 14
f 1 14 15
f 1 15 16
f 1 16 17
f 1 17 18
f 1 18 19
f 20 7 6
f 20 6 21
f 22 8 7
f 22 7 20
f 22 20 23
f 24 16 15
f 24 15 25
f 25 15 14
f 25 14 26
f 27 28 29
f 28 18 17
f 28 17 30
f 31 4 3
f 31 3 32
f 29 38 1
f 29 1 19
f 29 19 39
f 39 19 18
f 39 18 28
f 39 28 27
f 43 35 42
f 21 6 5
f 21 5 44
f 37 11 10
f 37 10 45
f 32 3 2
f 32 2 46
f 44 5 4
f 44 4 31
f 34 33 36
f 34 36 47
f 23 20 47
f 48 49 50
f 51 52 53
f 55 9 8
f 55 8 22
f 49 12 11
f 49 11 37
f 56 13 12
f 56 12 49
f 56 49 48
f 57 30 17
f 57 17 16
f 57 16 24
f 30 57 58
f 26 14 13
f 26 13 56
f 45 10 9
f 45 9 55
f 46 2 1
f 46 1 38
f 38 29 59
f 35 43 60
f 39 27 29
f 26 56 48
f 26 48 50
f 26 50 53
f 26 53 54
f 26 54 58
f 26 58 57
f 26 57 24
f 26 24 25
f 45 55 22
f 45 22 23
f 45 23 47
f 45 47 36
f 45 36 37
f 38 40 42
f 38 42 35
f 38 35 34
f 38 34 47
f 38 47 20
f 38 20 21
f 38 21 44
f 38 44 31
f 38 31 32
f 38 32 46
f 35 60 51
f 35 51 50
f 35 50 49
f 35 49 37
f 35 37 33
f 52 60 43
f 52 43 42
f 52 42 41
f 52 41 59
f 52 59 29
f 52 29 28
f 52 28 30
f 52 30 58
f 52 58 54
f 61 62 63
f 61 63 64
f 65 63 62
f 65 62 66
f 67 64 63
f 67 63 65
f 68 61 64
f 68 64 67
f 66 62 61
f 66 61 68
f 66 68 67
f 66 67 65
