v -34.885240996 -75.904136011 16.950000000
v -40.909240996 -75.213136012 16.950000000
v -39.045240996 -59.710136011 16.950000000
v -32.920240996 -60.343136012 16.950000000
v -40.909240996 -75.213136012 22.984000000
v -34.885240996 -75.904136011 22.327000000
v -39.045240996 -59.710136011 22.989000000
v -32.920240996 -60.343136012 22.322000000
v -26.986240996 -66.929136012 16.950000000
v -19.895240996 -67.360136012 16.950000000
v -12.957240996 -67.781136012 16.950000000
v -13.824240996 -76.074136011 16.950000000
v -20.931240996 -74.842136011 16.950000000
v -27.859240996 -73.642136011 16.950000000
v -13.824240996 -76.074136011 23.157000000
v -12.957240996 -67.781136012 23.146000000
v -20.931240996 -74.842136011 23.997000000
v -20.931240996 -74.842136011 23.141000000
v -20.297240996 -68.014136012 23.998000000
v -20.297240996 -68.014136012 23.110000000
v -19.895240996 -67.360136012 23.958000000
v -19.895240996 -67.360136012 23.127000000
v -26.986240996 -66.929136012 22.713000000
v -27.859240996 -73.642136011 22.729000000
v -35.617240996 -28.620136011 16.950000000
v -34.896240996 -29.215136011 16.950000000
v -35.207240996 -32.065136012 16.950000000
v -36.824240996 -31.358136011 16.950000000
v -36.824240996 -31.358136011 21.127000000
v -35.207240996 -32.065136012 21.810000000
v -35.617240996 -28.620136011 21.540000000
v -34.896240996 -29.215136011 21.854000000
v -30.597240996 -29.076136012 16.950000000
v -28.962240996 -29.229136012 16.950000000
v -27.498240996 -29.366136012 16.950000000
v -28.141240996 -35.682136011 16.950000000
v -29.700240996 -35.570136012 16.950000000
v -31.356240996 -35.450136011 16.950000000
v -31.356240996 -35.450136011 21.332000000
v -29.700240996 -35.570136012 21.957000000
v -28.141240996 -35.682136011 21.291000000
v -27.498240996 -29.366136012 21.376000000
v -28.962240996 -29.229136012 22.003000000
v -30.597240996 -29.076136012 21.386000000
v -24.624240996 -29.943136011 16.950000000
v -22.938240996 -29.813136011 16.950000000
v -22.417240996 -29.773136011 16.950000000
v -21.445240996 -29.976136011 16.950000000
v -22.313240996 -36.428136012 16.950000000
v -23.771240996 -36.075136011 16.950000000
v -25.069240996 -35.761136011 16.950000000
v -24.624240996 -29.943136011 21.191000000
v -25.069240996 -35.761136011 21.350000000
v -22.313240996 -36.428136012 21.309000000
v -21.445240996 -29.976136011 21.269000000
v -22.417240996 -29.773136011 21.639000000
v -22.938240996 -29.813136011 21.831000000
v -23.771240996 -36.075136011 21.866000000
v 15.995759004 -62.993136011 16.950000000
v 18.450759004 -62.478136011 16.950000000
v 18.788759004 -57.311136012 16.950000000
v 25.771759004 -58.061136012 16.950000000
v 26.088759004 -54.923136012 16.950000000
v 29.856759004 -55.224136012 16.950000000
v 31.263759004 -55.337136012 16.950000000
v 33.810759004 -56.458136012 16.950000000
v 32.483759004 -68.526136012 16.950000000
v 28.522759004 -68.035136011 16.950000000
v 24.808759004 -67.575136011 16.950000000
v 18.170759004 -66.754136012 16.950000000
v 18.341759004 -64.131136011 16.950000000
v 16.228759004 -64.472136011 16.950000000
v 26.088759004 -54.923136012 22.800000000
v 25.771759004 -58.061136012 22.802000000
v 29.856759004 -55.224136012 26.632000000
v 15.995759004 -62.993136011 21.973000000
v 16.228759004 -64.472136011 21.987000000
v 24.808759004 -67.575136011 22.810000000
v 28.522759004 -68.035136011 26.604000000
v 18.170759004 -66.754136012 22.857000000
v 18.341759004 -64.131136011 22.855000000
v 18.341759004 -64.131136011 22.020000000
v 32.483759004 -68.526136012 22.563000000
v 33.810759004 -56.458136012 22.518000000
v 18.788759004 -57.311136012 22.851000000
v 18.450759004 -62.478136011 22.010000000
v 18.450759004 -62.478136011 22.854000000
v 31.263759004 -55.337136012 25.202000000
v -20.051240996 -51.202136012 16.950000000
v -20.174240996 -54.130136011 16.950000000
v -20.282240996 -56.719136012 16.950000000
v -45.266240996 -55.211136011 16.950000000
v -45.324240996 -55.095136012 16.950000000
v -45.337240996 -55.207136012 16.950000000
v -48.795240996 -54.998136012 16.950000000
v -52.098240996 -54.798136012 16.950000000
v -50.557240996 -39.562136011 16.950000000
v -47.158240996 -40.181136011 16.950000000
v -43.650240996 -40.819136011 16.950000000
v -44.531240996 -48.335136011 16.950000000
v -20.174240996 -54.130136011 23.735000000
v -20.051240996 -51.202136012 22.423000000
v -48.795240996 -54.998136012 24.229000000
v -45.337240996 -55.207136012 21.887000000
v -52.098240996 -54.798136012 22.098000000
v -50.557240996 -39.562136011 21.988000000
v -47.158240996 -40.181136011 24.211000000
v -44.531240996 -48.335136011 22.156000000
v -44.531240996 -48.335136011 21.848000000
v -44.888240996 -51.381136011 21.865000000
v -44.888240996 -51.381136011 23.531000000
v -45.324240996 -55.095136012 21.887000000
v -45.266240996 -55.211136011 21.839000000
v -20.282240996 -56.719136012 22.600000000
v -43.650240996 -40.819136011 21.805000000
f 1 2 3
f 1 3 4
f 5 2 1
f 5 1 6
f 7 3 2
f 7 2 5
f 6 1 4
f 6 4 8
f 8 4 3
f 8 3 7
f 8 7 5
f 8 5 6
f 89 90 91
f 89 91 92
f 89 92 93
f 89 93 94
f 89 94 95
f 89 95 96
f 89 96 97
f 89 97 98
f 89 98 99
f 89 99 100
f 101 90 89
f 101 89 102
f 103 95 94
f 103 94 104
f 105 96 95
f 105 95 103
f 106 97 96
f 106 96 105
f 107 98 97
f 107 97 106
f 108 109 110
f 108 110 111
f 112 93 92
f 112 92 113
f 104 94 93
f 104 93 112
f 111 110 112
f 102 89 100
f 102 100 109
f 102 109 108
f 114 91 90
f 114 90 101
f 109 100 99
f 109 99 115
f 115 99 98
f 115 98 107
f 113 92 91
f 113 91 114
f 107 106 105
f 107 105 103
f 102 108 111
f 102 111 101
f 115 107 103
f 115 103 104
f 115 104 112
f 115 112 110
f 115 110 109
f 113 114 101
f 113 101 111
f 113 111 112
f 9 10 11
f 9 11 12
f 9 12 13
f 9 13 14
f 15 12 11
f 15 11 16
f 17 18 13
f 17 13 12
f 17 12 15
f 19 20 18
f 19 18 17
f 21 22 20
f 21 20 19
f 23 9 14
f 23 14 24
f 24 14 13
f 24 13 18
f 22 10 9
f 22 9 23
f 16 11 10
f 16 10 22
f 16 22 21
f 22 23 24
f 22 24 18
f 22 18 20
f 16 21 19
f 16 19 17
f 16 17 15
f 59 60 61
f 59 61 62
f 59 62 63
f 59 63 64
f 59 64 65
f 59 65 66
f 59 66 67
f 59 67 68
f 59 68 69
f 59 69 70
f 59 70 71
f 59 71 72
f 73 63 62
f 73 62 74
f 75 64 63
f 75 63 73
f 76 59 72
f 76 72 77
f 78 69 68
f 78 68 79
f 80 70 69
f 80 69 78
f 81 82 71
f 81 71 70
f 81 70 80
f 79 68 67
f 79 67 83
f 83 67 66
f 83 66 84
f 85 61 60
f 85 60 86
f 85 86 87
f 74 62 61
f 74 61 85
f 77 72 71
f 77 71 82
f 87 86 82
f 87 82 81
f 86 60 59
f 86 59 76
f 84 66 65
f 84 65 88
f 88 65 64
f 88 64 75
f 87 81 80
f 87 80 78
f 87 78 74
f 87 74 85
f 86 76 77
f 86 77 82
f 75 79 83
f 75 83 84
f 75 84 88
f 79 75 73
f 79 73 74
f 79 74 78
f 45 46 47
f 45 47 48
f 45 48 49
f 45 49 50
f 45 50 51
f 52 45 51
f 52 51 53
f 54 49 48
f 54 48 55
f 56 47 46
f 56 46 57
f 55 48 47
f 55 47 56
f 53 51 50
f 53 50 58
f 58 50 49
f 58 49 54
f 57 46 45
f 57 45 52
f 58 57 52
f 58 52 53
f 57 58 54
f 57 54 55
f 57 55 56
f 25 26 27
f 25 27 28
f 29 28 27
f 29 27 30
f 31 25 28
f 31 28 29
f 30 27 26
f 30 26 32
f 32 26 25
f 32 25 31
f 32 31 29
f 32 29 30
f 33 34 35
f 33 35 36
f 33 36 37
f 33 37 38
f 39 38 37
f 39 37 40
f 41 36 35
f 41 35 42
f 42 35 34
f 42 34 43
f 44 33 38
f 44 38 39
f 43 34 33
f 43 33 44
f 40 37 36
f 40 36 41
f 43 44 39
f 43 39 40
f 40 41 42
f 40 42 43
