v -7.113781521 3.417239013 33.340000000
v 3.653218479 5.065239013 33.340000000
v 4.333218479 1.094239013 33.340000000
v 5.095218479 -3.351760986 33.340000000
v -0.266781521 -4.083760986 33.340000000
v -0.543781521 -4.120760987 33.340000000
v 0.633218479 -10.639760987 33.340000000
v -4.408781521 -12.360760987 33.340000000
v -5.774781521 -4.391760986 33.340000000
v -6.406781521 -0.708760986 33.340000000
v -6.406781521 -0.708760986 38.154000000
v -5.774781521 -4.391760986 36.420000000
v -7.113781521 3.417239013 36.210000000
v -4.408781521 -12.360760987 36.427000000
v 0.633218479 -10.639760987 36.375000000
v 5.095218479 -3.351760986 36.030000000
v 4.333218479 1.094239013 38.124000000
v 3.653218479 5.065239013 36.253000000
v -0.543781521 -4.120760987 36.370000000
v -0.266781521 -4.083760986 36.123000000
v -0.266781521 -4.083760986 36.368000000
v -0.923781521 -3.650760987 36.373000000
v -4.021781521 6.783239014 33.340000000
v -7.598781521 6.241239013 33.340000000
v -8.805781521 13.282239013 33.340000000
v -5.335781521 13.713239013 33.340000000
v -7.598781521 6.241239013 35.658000000
v -4.021781521 6.783239014 35.653000000
v -5.335781521 13.713239013 35.777000000
v -8.805781521 13.282239013 35.784000000
f 1 2 3
f 1 3 4
f 1 4 5
f 1 5 6
f 1 6 7
f 1 7 8
f 1 8 9
f 1 9 10
f 11 10 9
f 11 9 12
f 13 1 10
f 13 10 11
f 12 9 8
f 12 8 14
f 14 8 7
f 14 7 15
f 16 4 3
f 16 3 17
f 17 3 2
f 17 2 18
f 15 7 6
f 15 6 19
f 19 6 5
f 19 5 20
f 19 20 21
f 21 20 22
f 20 5 4
f 20 4 16
f 18 2 1
f 18 1 13
f 21 22 12
f 21 12 14
f 21 14 15
f 21 15 19
f 11 17 18
f 11 18 13
f 17 11 12
f 17 12 22
f 17 22 20
f 17 20 16
f 23 24 25
f 23 25 26
f 27 24 23
f 27 23 28
f 28 23 26
f 28 26 29
f 30 25 24
f 30 24 27
f 29 26 25
f 29 25 30
f 29 30 27
f 29 27 28
