v 12.525860119 -3.090509059 30.260000000
v -0.727139881 -4.216509059 30.260000000
v -1.035139881 -3.853509059 30.260000000
v -1.276139881 -2.023509059 30.260000000
v -4.879139881 -2.593509058 30.260000000
v -5.513139881 -0.490509059 30.260000000
v -6.317139881 2.177490941 30.260000000
v -4.238139881 3.559490941 30.260000000
v -2.072139881 3.998490941 30.260000000
v 10.715860119 6.592490941 30.260000000
v 11.001860119 5.541490941 30.260000000
v 11.208860119 5.022490941 30.260000000
v 14.352860119 6.109490941 30.260000000
v 14.532860119 5.267490941 30.260000000
v 14.649860119 5.288490941 30.260000000
v 15.535860119 5.280490941 30.260000000
v 15.586860119 5.459490941 30.260000000
v 17.647860119 5.833490941 30.260000000
v 19.588860119 -4.897509059 30.260000000
v 18.180860119 -5.547509059 30.260000000
v 18.659860119 -6.989509059 30.260000000
v 17.827860119 -7.447509059 30.260000000
v 18.294860119 -7.809509058 30.260000000
v 17.673860119 -7.956509059 30.260000000
v 18.317860119 -9.394509058 30.260000000
v 15.745860119 -9.851509059 30.260000000
v 15.493860119 -8.734509059 30.260000000
v 15.437860119 -8.483509059 30.260000000
v 7.872860119 -10.265509059 30.260000000
v 7.067860119 -7.314509059 30.260000000
v 11.879860119 -6.801509059 30.260000000
v 15.745860119 -9.851509059 35.608000000
v 18.317860119 -9.394509058 34.323000000
v 16.126860119 -4.500509059 32.788000000
v 16.126860119 -4.500509059 32.007000000
v 16.039860119 -6.357509059 31.148000000
v 16.039860119 -6.357509059 32.771000000
v 16.542860119 -6.303509058 32.865000000
v 16.542860119 -6.303509058 32.744000000
v -0.837139881 -1.625509059 34.950000000
v -0.837139881 -1.625509059 33.341000000
v -0.874139881 -1.960509059 33.242000000
v -0.874139881 -1.960509059 34.797000000
v -1.315139881 -1.729509059 34.946000000
v -1.315139881 -1.729509059 33.341000000
v 18.180860119 -5.547509059 33.170000000
v 18.180860119 -5.547509059 32.662000000
v 19.588860119 -4.897509059 32.591000000
v 17.647860119 5.833490941 32.825000000
v 15.386860119 -2.847509059 32.849000000
v 15.253860119 1.886490941 32.912000000
v 15.253860119 1.886490941 35.073000000
v 16.247860119 -2.774509059 32.802000000
v 15.493860119 -8.734509059 34.897000000
v 15.493860119 -8.734509059 32.669000000
v 12.360860119 2.124490941 35.457000000
v 12.360860119 2.124490941 34.647000000
v 11.208860119 5.022490941 33.174000000
v 11.208860119 5.022490941 34.001000000
v -1.276139881 -2.023509059 34.805000000
v -1.276139881 -2.023509059 33.249000000
v -1.035139881 -3.853509059 33.928000000
v 18.659860119 -6.989509059 33.259000000
v -4.879139881 -2.593509058 33.313000000
v -0.727139881 -4.216509059 33.729000000
v -5.513139881 -0.490509059 33.990000000
v -1.584139881 0.303490941 34.983000000
v -1.584139881 0.303490941 33.973000000
v -1.454139881 -0.676509059 33.668000000
v -1.454139881 -0.676509059 35.451000000
v 11.001860119 5.541490941 33.740000000
v 10.715860119 6.592490941 33.224000000
v -2.072139881 3.998490941 33.218000000
v -2.072139881 3.998490941 32.653000000
v 14.352860119 6.109490941 33.012000000
v 14.532860119 5.267490941 32.992000000
v 14.532860119 5.267490941 33.423000000
v 11.952860119 2.042490941 35.457000000
v 11.952860119 2.042490941 34.641000000
v 12.177860119 1.215490941 35.050000000
v 17.673860119 -7.956509059 33.527000000
v 17.673860119 -7.956509059 33.075000000
v 17.521860119 -7.616509059 33.047000000
v 17.521860119 -7.616509059 33.339000000
v 14.983860119 -6.470509059 31.194000000
v 14.983860119 -6.470509059 32.575000000
v 15.437860119 -8.483509059 33.103000000
v 15.437860119 -8.483509059 32.659000000
v 14.983860119 -6.470509059 33.085000000
v 11.879860119 -6.801509059 32.998000000
v 11.879860119 -6.801509059 31.332000000
v 7.067860119 -7.314509059 32.862000000
v 7.872860119 -10.265509059 32.894000000
v 12.525860119 -3.090509059 33.005000000
v 14.649860119 5.288490941 32.986000000
v 15.535860119 5.280490941 32.936000000
v 15.586860119 5.459490941 32.935000000
v -4.238139881 3.559490941 32.663000000
v -6.317139881 2.177490941 33.007000000
v 18.294860119 -7.809509058 33.191000000
v 17.827860119 -7.447509059 33.104000000
f 1 2 3
f 1 3 4
f 1 4 5
f 1 5 6
f 1 6 7
f 1 7 8
f 1 8 9
f 1 9 10
f 1 10 11
f 1 11 12
f 1 12 13
f 1 13 14
f 1 14 15
f 1 15 16
f 1 16 17
f 1 17 18
f 1 18 19
f 1 19 20
f 1 20 21
f 1 21 22
f 1 22 23
f 1 23 24
f 1 24 25
f 1 25 26
f 1 26 27
f 1 27 28
f 1 28 29
f 1 29 30
f 1 30 31
f 32 26 25
f 32 25 33
f 34 35 36
f 34 36 37
f 38 39 37
f 40 41 42
f 40 42 43
f 44 45 41
f 44 41 40
f 46 47 39
f 46 39 38
f 47 20 19
f 47 19 48
f 48 19 18
f 48 18 49
f 35 34 50
f 54 55 27
f 54 27 26
f 54 26 32
f 56 57 58
f 56 58 59
f 60 61 4
f 60 4 3
f 60 3 62
f 63 21 20
f 63 20 47
f 63 47 46
f 64 5 4
f 64 4 61
f 62 3 2
f 62 2 65
f 66 6 5
f 66 5 64
f 67 68 69
f 67 69 70
f 70 69 45
f 70 45 44
f 71 11 10
f 71 10 72
f 73 74 68
f 73 68 67
f 75 13 12
f 75 12 58
f 59 58 12
f 59 12 11
f 59 11 71
f 78 79 57
f 78 57 56
f 79 78 80
f 81 82 83
f 81 83 84
f 84 83 55
f 84 55 54
f 37 36 85
f 37 85 86
f 87 88 86
f 87 86 89
f 90 91 31
f 90 31 30
f 90 30 92
f 92 30 29
f 92 29 93
f 88 28 27
f 88 27 55
f 94 1 31
f 94 31 91
f 89 86 85
f 95 15 14
f 95 14 76
f 77 76 14
f 77 14 13
f 77 13 75
f 96 16 15
f 96 15 95
f 97 17 16
f 97 16 96
f 49 18 17
f 49 17 97
f 98 8 7
f 98 7 99
f 99 7 6
f 99 6 66
f 72 10 9
f 72 9 74
f 72 74 73
f 74 9 8
f 74 8 98
f 43 42 61
f 43 61 60
f 93 29 28
f 93 28 88
f 93 88 87
f 33 25 24
f 33 24 82
f 33 82 81
f 82 24 23
f 82 23 100
f 100 23 22
f 100 22 101
f 101 22 21
f 101 21 63
f 65 2 1
f 65 1 94
f 77 75 58
f 77 58 57
f 77 57 79
f 77 79 80
f 77 80 52
f 49 97 96
f 49 96 95
f 49 95 76
f 49 76 51
f 49 51 53
f 49 53 50
f 49 50 34
f 49 34 37
f 49 37 39
f 49 39 47
f 49 47 48
f 72 73 67
f 72 67 70
f 72 70 78
f 72 78 56
f 72 56 59
f 72 59 71
f 74 98 99
f 74 99 66
f 74 66 68
f 61 42 41
f 61 41 45
f 61 45 69
f 61 69 68
f 61 68 66
f 61 66 64
f 93 87 89
f 93 89 90
f 93 90 92
f 33 81 84
f 33 84 54
f 33 54 32
f 101 63 46
f 101 46 38
f 101 38 37
f 101 37 86
f 101 86 88
f 101 88 55
f 101 55 83
f 101 83 82
f 101 82 100
f 65 94 91
f 65 91 85
f 65 85 36
f 65 36 35
f 65 35 50
f 65 50 53
f 65 53 52
f 65 52 80
f 65 80 78
f 65 78 70
f 65 70 44
f 65 44 40
f 65 40 43
f 65 43 60
f 65 60 62
