v 6.533066295 8.798532943 45.099000000
v 8.069066295 -1.541467057 45.099000000
v 6.580066295 -2.084467057 45.099000000
v 4.956066295 -2.676467056 45.099000000
v 3.360066295 8.367532943 45.099000000
v 4.921066295 8.477532944 45.099000000
v 6.374066295 8.580532943 45.099000000
v 4.921066295 8.477532944 48.224000000
v 3.360066295 8.367532943 47.429000000
v 6.533066295 8.798532943 47.415000000
v 6.374066295 8.580532943 47.509000000
v 6.580066295 -2.084467057 48.201000000
v 8.069066295 -1.541467057 47.436000000
v 4.956066295 -2.676467056 47.335000000
v 2.299066295 8.931532944 45.099000000
v 3.126066295 8.350532943 45.099000000
v 2.370066295 8.297532943 45.099000000
v 2.685066295 5.503532943 45.099000000
v -2.911933705 5.294532944 45.099000000
v -2.938933705 4.464532943 45.099000000
v -2.979933705 3.208532943 45.099000000
v -6.905933705 2.683532943 45.099000000
v -6.706933705 1.494532944 45.099000000
v -11.895933705 2.277532944 45.099000000
v -11.096933705 3.371532943 45.099000000
v -16.206933705 2.929532943 45.099000000
v -16.811933705 7.273532943 45.099000000
v -17.466933705 11.977532944 45.099000000
v 1.622066295 14.934532943 45.099000000
v 2.150066295 10.253532943 45.099000000
v -16.811933705 7.273532943 50.157000000
v -16.206933705 2.929532943 47.909000000
v 2.685066295 5.503532943 47.702000000
v 2.370066295 8.297532943 49.141000000
v 3.126066295 8.350532943 49.108000000
v 1.622066295 14.934532943 47.756000000
v -17.466933705 11.977532944 47.742000000
v 2.150066295 10.253532943 50.149000000
v -2.979933705 3.208532943 47.753000000
v -2.938933705 4.464532943 47.626000000
v 2.299066295 8.931532944 49.468000000
v -11.096933705 3.371532943 47.724000000
v -2.911933705 5.294532944 48.044000000
v -11.895933705 2.277532944 47.234000000
v -6.905933705 2.683532943 49.768000000
v -6.706933705 1.494532944 49.770000000
v -7.779933705 7.912532943 49.758000000
v 10.905066295 3.583532943 45.099000000
v 10.289066295 3.519532943 45.099000000
v 10.712066295 1.286532943 45.099000000
v 8.679066295 2.241532943 45.099000000
v 8.488066295 3.331532943 45.099000000
v 7.587066295 8.448532944 45.099000000
v 10.072066295 8.871532943 45.099000000
v 10.072066295 8.871532943 47.781000000
v 7.587066295 8.448532944 47.806000000
v 10.905066295 3.583532943 47.685000000
v 8.488066295 3.331532943 47.712000000
v 8.679066295 2.241532943 46.856000000
v 10.712066295 1.286532943 45.937000000
v 10.289066295 3.519532943 47.692000000
f 15 16 17
f 15 17 18
f 15 18 19
f 15 19 20
f 15 20 21
f 15 21 22
f 15 22 23
f 15 23 24
f 15 24 25
f 15 25 26
f 15 26 27
f 15 27 28
f 15 28 29
f 15 29 30
f 31 27 26
f 31 26 32
f 33 18 17
f 33 17 34
f 34 17 16
f 34 16 35
f 36 29 28
f 36 28 37
f 38 30 29
f 38 29 36
f 39 21 20
f 39 20 40
f 41 15 30
f 41 30 38
f 32 26 25
f 32 25 42
f 37 28 27
f 37 27 31
f 43 19 18
f 43 18 33
f 42 25 24
f 42 24 44
f 45 22 21
f 45 21 39
f 46 23 22
f 46 22 45
f 40 20 19
f 40 19 43
f 44 24 23
f 44 23 46
f 35 16 15
f 35 15 41
f 31 38 36
f 31 36 37
f 40 47 45
f 40 45 39
f 44 46 45
f 44 45 47
f 44 47 42
f 35 41 38
f 35 38 31
f 35 31 32
f 35 32 42
f 35 42 47
f 35 47 40
f 35 40 43
f 35 43 33
f 35 33 34
f 1 2 3
f 1 3 4
f 1 4 5
f 1 5 6
f 1 6 7
f 8 6 5
f 8 5 9
f 10 1 7
f 10 7 11
f 11 7 6
f 11 6 8
f 12 3 2
f 12 2 13
f 13 2 1
f 13 1 10
f 14 4 3
f 14 3 12
f 9 5 4
f 9 4 14
f 13 10 11
f 13 11 8
f 13 8 12
f 9 14 12
f 9 12 8
f 48 49 50
f 48 50 51
f 48 51 52
f 48 52 53
f 48 53 54
f 55 54 53
f 55 53 56
f 57 48 54
f 57 54 55
f 56 53 52
f 56 52 58
f 58 52 51
f 58 51 59
f 59 51 50
f 59 50 60
f 60 50 49
f 60 49 61
f 61 49 48
f 61 48 57
f 60 61 58
f 60 58 59
f 61 57 55
f 61 55 56
f 61 56 58
