v 7.979515956 9.286847609 16.510000000
v 5.378515956 8.614847610 16.510000000
v 6.243515956 6.330847610 16.510000000
v 1.052515956 4.886847610 16.510000000
v 0.591515956 7.378847609 16.510000000
v -0.764484044 14.701847609 16.510000000
v -1.073484044 15.490847609 16.510000000
v -3.914484044 14.639847609 16.510000000
v -5.218484044 23.379847609 16.510000000
v 0.618515956 24.788847609 16.510000000
v 0.714515956 22.351847610 16.510000000
v 5.675515956 21.276847609 16.510000000
v 6.359515956 17.718847609 16.510000000
v 4.519515956 8.392847610 19.164000000
v 4.519515956 8.392847610 23.141000000
v 0.591515956 7.378847609 19.178000000
v 1.052515956 4.886847610 19.042000000
v -0.764484044 14.701847609 19.576000000
v -1.073484044 15.490847609 19.464000000
v -3.914484044 14.639847609 19.483000000
v 2.553515956 16.577847609 23.158000000
v 2.553515956 16.577847609 19.439000000
v 6.243515956 6.330847610 19.030000000
v -5.218484044 23.379847609 18.306000000
v 5.378515956 8.614847610 19.161000000
v 5.378515956 8.614847610 22.267000000
v 6.359515956 17.718847609 19.250000000
v 6.359515956 17.718847609 19.413000000
v 6.199515956 17.670847610 19.414000000
v 5.675515956 21.276847609 18.929000000
v 7.979515956 9.286847609 19.620000000
v 0.714515956 22.351847610 18.630000000
v 0.618515956 24.788847609 18.311000000
f 1 2 3
f 1 3 4
f 1 4 5
f 1 5 6
f 1 6 7
f 1 7 8
f 1 8 9
f 1 9 10
f 1 10 11
f 1 11 12
f 1 12 13
f 16 5 4
f 16 4 17
f 18 6 5
f 18 5 16
f 19 7 6
f 19 6 18
f 20 8 7
f 20 7 19
f 17 4 3
f 17 3 23
f 24 9 8
f 24 8 20
f 27 28 29
f 28 27 13
f 28 13 12
f 28 12 30
f 31 1 13
f 31 13 27
f 32 11 10
f 32 10 33
f 30 12 11
f 30 11 32
f 23 3 2
f 23 2 25
f 26 25 2
f 26 2 1
f 26 1 31
f 33 10 9
f 33 9 24
f 15 21 19
f 15 19 18
f 15 18 16
f 23 25 14
f 23 14 16
f 23 16 17
f 26 31 27
f 26 27 29
f 26 29 21
f 26 21 15
f 33 24 20
f 33 20 19
f 33 19 22
f 33 22 29
f 33 29 28
f 33 28 30
f 33 30 32
