v 7.695939263 -7.629399371 70.540000000
v 4.168939263 -6.657399371 70.540000000
v 4.300939263 -11.881399372 70.540000000
v 3.731939263 -11.724399372 70.540000000
v 2.486939263 -16.076399372 70.540000000
v -12.248060737 -12.027399371 70.540000000
v -11.217060737 -7.595399371 70.540000000
v -10.085060737 -2.729399372 70.540000000
v 0.378939263 -5.613399372 70.540000000
v 1.669939263 -2.056399371 70.540000000
v 2.841939263 1.172600629 70.540000000
v 9.433939263 -0.661399372 70.540000000
v 8.464939263 -3.942399371 70.540000000
v 8.852939263 -4.049399371 70.540000000
v -11.217060737 -7.595399371 75.549000000
v -12.248060737 -12.027399371 73.458000000
v -10.085060737 -2.729399372 73.374000000
v 2.486939263 -16.076399372 73.465000000
v 0.378939263 -5.613399372 73.369000000
v 1.669939263 -2.056399371 75.135000000
v 4.168939263 -6.657399371 73.367000000
v 7.695939263 -7.629399371 73.365000000
v 8.852939263 -4.049399371 75.125000000
v 2.841939263 1.172600629 73.550000000
v 8.464939263 -3.942399371 75.125000000
v 9.433939263 -0.661399372 73.543000000
v 4.300939263 -11.881399372 75.546000000
v 3.731939263 -11.724399372 75.546000000
f 1 2 3
f 1 3 4
f 1 4 5
f 1 5 6
f 1 6 7
f 1 7 8
f 1 8 9
f 1 9 10
f 1 10 11
f 1 11 12
f 1 12 13
f 1 13 14
f 15 7 6
f 15 6 16
f 17 8 7
f 17 7 15
f 16 6 5
f 16 5 18
f 19 9 8
f 19 8 17
f 20 10 9
f 20 9 19
f 21 2 1
f 21 1 22
f 22 1 14
f 22 14 23
f 24 11 10
f 24 10 20
f 23 14 13
f 23 13 25
f 25 13 12
f 25 12 26
f 26 12 11
f 26 11 24
f 27 3 2
f 27 2 21
f 28 4 3
f 28 3 27
f 18 5 4
f 18 4 28
f 25 20 19
f 25 19 21
f 25 21 22
f 25 22 23
f 26 24 20
f 26 20 25
f 28 15 16
f 28 16 18
f 15 28 27
f 15 27 21
f 15 21 19
f 15 19 17
