v 4.477412936 -13.585789734 47.049000000
v 2.144412936 -9.711789734 47.049000000
v -0.908587064 -14.175789733 47.049000000
v -3.370587064 -10.771789733 47.049000000
v -5.457587064 -7.883789733 47.049000000
v -3.956587064 -6.872789733 47.049000000
v -3.440587064 -4.857789733 47.049000000
v -2.929587064 -2.867789733 47.049000000
v 0.526412936 -0.592789734 47.049000000
v 1.077412936 -0.230789733 47.049000000
v 3.264412936 2.140210266 47.049000000
v -0.565587064 8.799210266 47.049000000
v 1.336412936 10.187210266 47.049000000
v 8.304412936 2.176210267 47.049000000
v 6.449412936 0.226210266 47.049000000
v 11.596412936 -7.415789734 47.049000000
v 8.168412936 -10.235789733 47.049000000
v 6.292412936 -11.777789733 47.049000000
v -3.440587064 -4.857789733 54.402000000
v -3.956587064 -6.872789733 54.954000000
v -5.457587064 -7.883789733 54.890000000
v 8.168412936 -10.235789733 57.130000000
v 11.596412936 -7.415789734 55.064000000
v -3.370587064 -10.771789733 56.460000000
v -0.908587064 -14.175789733 54.592000000
v 2.854412936 -5.783789733 56.500000000
v 2.854412936 -5.783789733 56.454000000
v 2.847412936 -5.855789733 56.476000000
v 2.925412936 -5.793789733 56.522000000
v 2.925412936 -5.793789733 56.477000000
v 0.526412936 -0.592789734 57.122000000
v -2.929587064 -2.867789733 55.176000000
v 3.984412936 -4.956789733 57.144000000
v 3.984412936 -4.956789733 57.114000000
v 1.077412936 -0.230789733 56.850000000
v 0.526412936 -0.592789734 57.156000000
v 6.449412936 0.226210266 54.752000000
v 8.304412936 2.176210267 54.678000000
v 3.264412936 2.140210266 54.670000000
v 3.264412936 2.140210266 55.368000000
v 5.135412936 2.178210267 54.672000000
v 1.336412936 10.187210266 54.347000000
v -0.565587064 8.799210266 54.399000000
v 4.477412936 -13.585789734 54.839000000
v 6.292412936 -11.777789733 56.011000000
v 2.144412936 -9.711789734 55.114000000
v 2.144412936 -9.711789734 55.318000000
v 2.520412936 -9.161789733 55.408000000
f 1 2 3
f 1 3 4
f 1 4 5
f 1 5 6
f 1 6 7
f 1 7 8
f 1 8 9
f 1 9 10
f 1 10 11
f 1 11 12
f 1 12 13
f 1 13 14
f 1 14 15
f 1 15 16
f 1 16 17
f 1 17 18
f 19 7 6
f 19 6 20
f 20 6 5
f 20 5 21
f 22 17 16
f 22 16 23
f 21 5 4
f 21 4 24
f 24 4 3
f 24 3 25
f 26 27 28
f 29 30 27
f 29 27 26
f 31 9 8
f 31 8 32
f 33 34 30
f 33 30 29
f 32 8 7
f 32 7 19
f 35 10 9
f 35 9 31
f 35 31 36
f 37 15 14
f 37 14 38
f 38 14 13
f 38 13 42
f 36 31 34
f 36 34 33
f 23 16 15
f 23 15 37
f 42 13 12
f 42 12 43
f 43 12 11
f 43 11 39
f 44 1 18
f 44 18 45
f 45 18 17
f 45 17 22
f 40 39 11
f 40 11 10
f 40 10 35
f 25 3 2
f 25 2 46
f 25 46 47
f 46 2 1
f 46 1 44
f 47 46 48
f 34 31 32
f 34 32 19
f 34 19 27
f 34 27 30
f 43 39 41
f 43 41 37
f 43 37 38
f 43 38 42
f 40 35 36
f 40 36 33
f 40 33 22
f 40 22 23
f 40 23 37
f 40 37 41
f 24 28 27
f 24 27 19
f 24 19 20
f 24 20 21
f 48 28 24
f 48 24 25
f 48 25 47
f 28 48 46
f 28 46 44
f 28 44 45
f 28 45 22
f 28 22 33
f 28 33 29
f 28 29 26
