v 0.603728378 9.355934104 90.519000000
v -1.662271622 -1.042065895 90.519000000
v -7.468271622 1.026934104 90.519000000
v -4.803271622 10.120934105 90.519000000
v -4.775271622 10.612934104 90.519000000
v -4.624271622 13.276934104 90.519000000
v -4.456271622 13.924934104 90.519000000
v -3.422271622 17.911934105 90.519000000
v 8.279728378 15.445934105 90.519000000
v 7.363728378 11.000934104 90.519000000
v 6.729728378 7.924934104 90.519000000
v -1.662271622 -1.042065895 93.855000000
v 0.603728378 9.355934104 93.845000000
v -4.624271622 13.276934104 94.494000000
v -4.775271622 10.612934104 93.842000000
v 6.729728378 7.924934104 93.848000000
v 7.363728378 11.000934104 94.627000000
v -7.468271622 1.026934104 93.852000000
v -4.803271622 10.120934105 93.843000000
v -4.456271622 13.924934104 94.660000000
v -3.422271622 17.911934105 93.613000000
v 8.279728378 15.445934105 93.474000000
f 1 2 3
f 1 3 4
f 1 4 5
f 1 5 6
f 1 6 7
f 1 7 8
f 1 8 9
f 1 9 10
f 1 10 11
f 12 2 1
f 12 1 13
f 14 6 5
f 14 5 15
f 13 1 11
f 13 11 16
f 16 11 10
f 16 10 17
f 18 3 2
f 18 2 12
f 19 4 3
f 19 3 18
f 20 7 6
f 20 6 14
f 15 5 4
f 15 4 19
f 21 8 7
f 21 7 20
f 17 10 9
f 17 9 22
f 22 9 8
f 22 8 21
f 15 19 18
f 15 18 12
f 15 12 13
f 17 20 14
f 17 14 15
f 17 15 13
f 17 13 16
f 20 17 22
f 20 22 21
