v -11.269445390 16.195091551 32.830000000
v -11.462445390 16.168091551 32.830000000
v -11.665445390 16.035091552 32.830000000
v -11.724445390 15.957091551 32.830000000
v -11.782445390 15.822091551 32.830000000
v -11.797445390 15.726091552 32.830000000
v -4.041445390 11.752091551 32.830000000
v 15.403554610 10.498091551 32.830000000
v 15.033554610 6.117091551 32.830000000
v 14.662554610 1.731091551 32.830000000
v 4.802554610 2.215091552 32.830000000
v 4.916554610 -4.943908448 32.830000000
v 0.907554610 -4.024908449 32.830000000
v 0.197554610 -4.029908448 32.830000000
v -5.030445390 -4.070908449 32.830000000
v -3.167445390 3.487091552 32.830000000
v -4.386445390 2.410091552 32.830000000
v -4.207445390 7.247091551 32.830000000
v 4.916554610 -4.943908448 35.433000000
v 4.802554610 2.215091552 35.523000000
v 4.802554610 2.215091552 35.610000000
v 14.662554610 1.731091551 35.556000000
v 15.033554610 6.117091551 37.127000000
v 4.798554610 2.477091552 35.616000000
v -5.030445390 -4.070908449 35.300000000
v 0.197554610 -4.029908448 37.144000000
v -3.167445390 3.487091552 35.811000000
v 0.758554610 6.353091552 36.914000000
v 0.758554610 6.353091552 37.141000000
v 1.162554610 6.568091552 36.999000000
v -0.951445390 5.444091552 36.555000000
v 15.403554610 10.498091551 35.526000000
v -4.386445390 2.410091552 35.401000000
v 0.907554610 -4.024908449 36.889000000
v -4.041445390 11.752091551 35.487000000
v -4.207445390 7.247091551 37.130000000
v 23.594554610 10.577091551 32.830000000
v 23.430554610 8.481091551 32.830000000
v 21.673554610 8.463091551 32.830000000
v 21.246554610 10.437091552 32.830000000
v 21.812554610 10.400091551 32.830000000
v 21.246554610 10.437091552 35.045000000
v 21.673554610 8.463091551 34.601000000
v 21.812554610 10.400091551 35.042000000
v 23.594554610 10.577091551 35.097000000
v 23.430554610 8.481091551 34.620000000
v -6.936445390 4.829091552 32.830000000
v -12.449445390 4.907091551 32.830000000
v -6.022445390 15.882091551 32.830000000
v -6.022445390 15.882091551 35.470000000
v -11.269445390 16.195091551 35.481000000
v -11.462445390 16.168091551 35.482000000
v -11.797445390 15.726091552 35.481000000
v -12.449445390 4.907091551 35.459000000
v -11.724445390 15.957091551 35.482000000
v -11.782445390 15.822091551 35.481000000
v -6.936445390 4.829091552 35.448000000
v -11.665445390 16.035091552 35.482000000
f 7 8 9
f 7 9 10
f 7 10 11
f 7 11 12
f 7 12 13
f 7 13 14
f 7 14 15
f 7 15 16
f 7 16 17
f 7 17 18
f 19 12 11
f 19 11 20
f 19 20 21
f 22 10 9
f 22 9 23
f 20 11 10
f 20 10 22
f 21 20 24
f 25 15 14
f 25 14 26
f 27 16 15
f 27 15 25
f 23 9 8
f 23 8 32
f 33 17 16
f 33 16 27
f 26 14 13
f 26 13 34
f 34 13 12
f 34 12 19
f 35 7 18
f 35 18 36
f 36 18 17
f 36 17 33
f 32 8 7
f 32 7 35
f 31 27 25
f 31 25 26
f 31 26 29
f 34 19 21
f 34 21 24
f 34 24 30
f 34 30 29
f 34 29 26
f 23 36 33
f 23 33 27
f 23 27 31
f 23 31 28
f 23 28 30
f 23 30 24
f 23 24 20
f 23 20 22
f 32 35 36
f 32 36 23
f 37 38 39
f 37 39 40
f 37 40 41
f 42 40 39
f 42 39 43
f 44 41 40
f 44 40 42
f 45 37 41
f 45 41 44
f 43 39 38
f 43 38 46
f 46 38 37
f 46 37 45
f 46 45 44
f 46 44 42
f 46 42 43
f 47 48 6
f 47 6 5
f 47 5 4
f 47 4 3
f 47 3 2
f 47 2 1
f 47 1 49
f 50 49 1
f 50 1 51
f 51 1 2
f 51 2 52
f 53 6 48
f 53 48 54
f 55 4 5
f 55 5 56
f 56 5 6
f 56 6 53
f 57 47 49
f 57 49 50
f 52 2 3
f 52 3 58
f 58 3 4
f 58 4 55
f 54 48 47
f 54 47 57
f 54 57 50
f 54 50 51
f 54 51 52
f 54 52 58
f 54 58 55
f 54 55 56
f 54 56 53
