v 4.699542942 -15.755003626 50.270000000
v 5.298542943 -13.898003626 50.270000000
v 7.955542942 -16.630003626 50.270000000
v 21.017542942 -6.754003625 50.270000000
v 21.395542942 -9.310003625 50.270000000
v 21.628542942 -9.633003625 50.270000000
v 23.143542942 -11.736003625 50.270000000
v 23.318542942 -11.980003625 50.270000000
v 25.831542942 -13.141003625 50.270000000
v 12.571542942 -23.287003625 50.270000000
v 19.087542942 -32.448003625 50.270000000
v 18.942542942 -32.603003626 50.270000000
v 16.209542942 -34.556003626 50.270000000
v 15.674542942 -34.938003626 50.270000000
v 12.726542942 -36.046003626 50.270000000
v 1.091542942 -20.445003625 50.270000000
v -0.028457058 -18.943003626 50.270000000
v 1.188542942 -18.322003625 50.270000000
v 1.426542942 -18.057003626 50.270000000
v 1.632542942 -17.827003625 50.270000000
v 1.581542942 -17.775003625 50.270000000
v 1.677542942 -17.776003625 50.270000000
v 3.151542942 -16.132003625 50.270000000
v 2.926542942 -19.176003626 55.759000000
v 2.926542942 -19.176003626 55.275000000
v 3.009542942 -19.262003626 55.293000000
v 3.009542942 -19.262003626 55.773000000
v 1.091542942 -20.445003625 53.182000000
v 1.091542942 -20.445003625 52.636000000
v 7.441542942 -22.000003626 57.596000000
v 7.441542942 -22.000003626 57.183000000
v 7.393542942 -22.430003625 57.163000000
v 7.393542942 -22.430003625 57.248000000
v 21.395542942 -9.310003625 55.599000000
v 21.017542942 -6.754003625 52.947000000
v 7.955542942 -16.630003626 52.884000000
v 7.955542942 -16.630003626 52.946000000
v 3.587542942 -19.206003625 56.341000000
v 3.587542942 -19.206003625 55.884000000
v 3.790542942 -18.578003625 56.518000000
v 3.790542942 -18.578003625 56.973000000
v 3.274542942 -18.935003625 56.248000000
v 3.274542942 -18.935003625 55.775000000
v 16.209542942 -34.556003626 57.142000000
v 16.209542942 -34.556003626 57.147000000
v 15.952542942 -34.202003625 57.145000000
v 18.942542942 -32.603003626 53.403000000
v 19.087542942 -32.448003625 53.170000000
v 9.342542942 -25.167003625 57.121000000
v 9.342542942 -25.167003625 57.185000000
v 9.784542942 -25.816003625 57.151000000
v 7.314542942 -23.128003625 58.114000000
v 7.314542942 -23.128003625 56.683000000
v 9.342542942 -25.167003625 57.699000000
v 1.426542942 -18.057003626 55.188000000
v 1.188542942 -18.322003625 54.782000000
v 25.831542942 -13.141003625 53.092000000
v 23.318542942 -11.980003625 55.808000000
v 12.571542942 -23.287003625 53.013000000
v 12.571542942 -23.287003625 52.978000000
v 7.380542942 -22.546003626 58.215000000
v 7.380542942 -22.546003626 57.154000000
v 7.912542942 -16.663003625 52.946000000
v 6.980542942 -21.863003626 57.253000000
v 6.980542942 -21.863003626 57.142000000
v 7.056542942 -21.816003625 57.151000000
v 1.581542942 -17.775003625 54.976000000
v 1.632542942 -17.827003625 55.089000000
v 7.036542942 -21.939003625 57.252000000
v 7.036542942 -21.939003625 57.145000000
v 23.143542942 -11.736003625 56.142000000
v 23.143542942 -11.736003625 55.789000000
v 22.993542942 -11.829003626 56.159000000
v 7.574542942 -22.575003626 58.205000000
v 7.574542942 -22.575003626 56.998000000
v 15.674542942 -34.938003626 56.364000000
v 21.628542942 -9.633003625 55.624000000
v 21.628542942 -9.633003625 56.065000000
v 21.464542942 -9.782003625 56.088000000
v 3.189542942 -18.994003626 55.653000000
v 3.189542942 -18.994003626 56.129000000
v 4.219542942 -18.281003625 57.429000000
v 4.219542942 -18.281003625 57.135000000
v 6.545542942 -21.265003625 57.258000000
v 4.166542942 -18.317003625 57.502000000
v 4.166542942 -18.317003625 57.059000000
v 5.298542943 -13.898003626 53.528000000
v -0.028457058 -18.943003626 53.230000000
v 12.726542942 -36.046003626 52.776000000
v 3.151542942 -16.132003625 54.357000000
v 1.677542942 -17.776003625 55.067000000
v 4.699542942 -15.755003626 55.311000000
v 21.677542942 -11.221003626 57.582000000
v 3.962542942 -18.044003625 57.510000000
v -13.556457058 15.254996374 50.270000000
v -20.253457058 12.766996374 50.270000000
v -27.254457058 22.098996375 50.270000000
v -21.403457058 26.786996375 50.270000000
v -21.403457058 26.786996375 54.359000000
v -27.254457058 22.098996375 55.333000000
v -13.556457058 15.254996374 54.386000000
v -20.253457058 12.766996374 55.285000000
f 95 96 97
f 95 97 98
f 99 98 97
f 99 97 100
f 101 95 98
f 101 98 99
f 100 97 96
f 100 96 102
f 102 96 95
f 102 95 101
f 102 101 99
f 102 99 100
f 1 2 3
f 1 3 4
f 1 4 5
f 1 5 6
f 1 6 7
f 1 7 8
f 1 8 9
f 1 9 10
f 1 10 11
f 1 11 12
f 1 12 13
f 1 13 14
f 1 14 15
f 1 15 16
f 1 16 17
f 1 17 18
f 1 18 19
f 1 19 20
f 1 20 21
f 1 21 22
f 1 22 23
f 24 25 26
f 24 26 27
f 28 29 25
f 28 25 24
f 30 31 32
f 30 32 33
f 34 5 4
f 34 4 35
f 35 4 3
f 35 3 36
f 35 36 37
f 38 39 40
f 38 40 41
f 42 43 39
f 42 39 38
f 44 45 46
f 45 44 13
f 45 13 12
f 45 12 47
f 47 12 11
f 47 11 48
f 52 53 50
f 52 50 54
f 55 19 18
f 55 18 56
f 57 9 8
f 57 8 58
f 59 60 10
f 59 10 9
f 59 9 57
f 61 62 53
f 61 53 52
f 37 36 63
f 64 65 66
f 67 21 20
f 67 20 68
f 69 70 31
f 69 31 30
f 71 72 73
f 74 75 62
f 74 62 61
f 68 20 19
f 68 19 55
f 65 64 69
f 33 32 70
f 33 70 69
f 48 11 10
f 48 10 60
f 76 14 13
f 76 13 44
f 54 50 49
f 54 49 75
f 54 75 74
f 58 8 7
f 58 7 72
f 58 72 71
f 77 78 79
f 72 7 6
f 72 6 77
f 27 26 80
f 27 80 81
f 82 83 84
f 85 86 83
f 85 83 82
f 36 3 2
f 36 2 87
f 78 77 6
f 78 6 5
f 78 5 34
f 88 17 16
f 88 16 29
f 88 29 28
f 56 18 17
f 56 17 88
f 29 16 15
f 29 15 89
f 89 15 14
f 89 14 76
f 90 23 22
f 90 22 91
f 91 22 21
f 91 21 67
f 92 1 23
f 92 23 90
f 87 2 1
f 87 1 92
f 41 40 86
f 41 86 85
f 81 80 43
f 81 43 42
f 70 32 31
f 75 49 51
f 75 51 46
f 75 46 45
f 75 45 47
f 75 47 48
f 75 48 60
f 54 74 61
f 54 61 52
f 58 71 73
f 58 73 93
f 58 93 30
f 58 30 33
f 58 33 62
f 58 62 75
f 58 75 59
f 58 59 57
f 79 93 73
f 79 73 72
f 79 72 77
f 78 34 35
f 78 35 37
f 78 37 63
f 78 63 66
f 78 66 65
f 78 65 69
f 78 69 30
f 78 30 93
f 78 93 79
f 94 92 90
f 94 90 91
f 94 91 67
f 94 67 68
f 94 68 55
f 81 42 38
f 81 38 41
f 81 41 85
f 81 85 94
f 81 94 55
f 81 55 56
f 81 56 88
f 81 88 28
f 81 28 24
f 81 24 27
f 94 85 82
f 94 82 84
f 94 84 64
f 94 64 66
f 94 66 63
f 94 63 36
f 94 36 87
f 94 87 92
f 43 80 26
f 43 26 25
f 43 25 29
f 43 29 89
f 43 89 76
f 43 76 44
f 43 44 46
f 43 46 51
f 43 51 50
f 43 50 53
f 43 53 62
f 43 62 33
f 43 33 69
f 43 69 64
f 43 64 84
f 43 84 83
f 43 83 86
f 43 86 40
f 43 40 39
