v 0.338802234 1.320157230 61.630000000
v 1.813802234 5.076157230 61.630000000
v 4.214802234 4.080157231 61.630000000
v 3.006802234 0.127157230 61.630000000
v 3.006802234 0.127157230 64.478000000
v 4.214802234 4.080157231 64.452000000
v 0.338802234 1.320157230 64.135000000
v 1.813802234 5.076157230 64.147000000
v -4.371197766 9.152157230 61.630000000
v -2.686197766 8.089157230 61.630000000
v -2.888197766 7.581157231 61.630000000
v -3.070197766 7.765157230 61.630000000
v -3.540197766 7.392157231 61.630000000
v -4.940197766 8.218157230 61.630000000
v -6.568197766 7.987157230 61.630000000
v -5.139197766 9.602157230 61.630000000
v -4.680197766 9.399157231 61.630000000
v -6.568197766 7.987157230 62.964000000
v -4.940197766 8.218157230 63.705000000
v -3.540197766 7.392157231 63.577000000
v -5.139197766 9.602157230 64.668000000
v -4.680197766 9.399157231 64.677000000
v -4.371197766 9.152157230 64.600000000
v -3.070197766 7.765157230 64.019000000
v -2.888197766 7.581157231 63.945000000
v -2.686197766 8.089157230 64.395000000
v -2.055197766 9.671157231 61.630000000
v -2.495197766 8.566157230 61.630000000
v -2.721197766 8.534157231 61.630000000
v -4.353197766 9.255157230 61.630000000
v -4.236197766 9.931157230 61.630000000
v -5.250197766 9.978157231 61.630000000
v -5.976197766 10.716157231 61.630000000
v -4.448197766 10.308157231 61.630000000
v -4.165197766 10.426157231 61.630000000
v -3.929197766 10.170157230 61.630000000
v -4.448197766 10.308157231 63.854000000
v -5.976197766 10.716157231 64.044000000
v -4.165197766 10.426157231 63.661000000
v -5.250197766 9.978157231 64.399000000
v -4.236197766 9.931157230 64.091000000
v -4.353197766 9.255157230 64.684000000
v -2.721197766 8.534157231 64.715000000
v -2.495197766 8.566157230 64.612000000
v -3.929197766 10.170157230 63.790000000
v -2.055197766 9.671157231 63.558000000
v 15.307802234 2.766157230 61.630000000
v 15.681802234 2.643157231 61.630000000
v 9.299802234 -11.584842769 61.630000000
v 8.072802234 -14.318842770 61.630000000
v 7.935802234 -14.255842770 61.630000000
v 3.874802234 -12.383842770 61.630000000
v 4.926802234 -10.687842770 61.630000000
v 4.434802234 -10.489842770 61.630000000
v 4.253802234 -10.416842770 61.630000000
v 4.770802234 -9.510842769 61.630000000
v 4.719802234 -9.442842769 61.630000000
v 4.090802234 -9.597842770 61.630000000
v 4.246802234 -9.315842770 61.630000000
v 1.920802234 -9.050842769 61.630000000
v 8.106802234 5.939157231 61.630000000
v 9.977802234 4.523157231 61.630000000
v 10.167802234 4.460157230 61.630000000
v 8.572802234 7.066157230 61.630000000
v 8.634802234 7.217157231 61.630000000
v 16.058802234 4.501157231 61.630000000
v 15.681802234 2.643157231 65.270000000
v 15.307802234 2.766157230 65.670000000
v 8.805802234 -12.247842770 66.049000000
v 8.805802234 -12.247842770 65.867000000
v 8.805802234 -12.247842770 62.973000000
v 9.141802234 -11.471842770 62.968000000
v 9.141802234 -11.471842770 66.030000000
v 8.034802234 -11.937842770 66.897000000
v 8.034802234 -11.937842770 65.870000000
v 9.977802234 4.523157231 67.859000000
v 8.106802234 5.939157231 65.504000000
v 13.316802234 3.423157230 65.458000000
v 13.316802234 3.423157230 67.804000000
v 12.574802234 4.038157230 67.386000000
v 12.574802234 4.038157230 65.356000000
v 11.466802234 4.032157230 65.261000000
v 11.466802234 4.032157230 67.958000000
v 4.770802234 -9.510842769 68.259000000
v 4.253802234 -10.416842770 66.805000000
v 7.161802234 -10.508842770 68.271000000
v 7.161802234 -10.508842770 65.839000000
v 4.719802234 -9.442842769 68.319000000
v 4.246802234 -9.315842770 67.815000000
v 4.090802234 -9.597842770 67.776000000
v 4.434802234 -10.489842770 65.885000000
v 4.434802234 -10.489842770 66.810000000
v 5.046802234 -10.493842769 65.874000000
v 5.046802234 -10.493842769 67.138000000
v 4.926802234 -10.687842770 65.883000000
v 5.506802234 -10.496842770 67.384000000
v 5.506802234 -10.496842770 65.867000000
v 5.254802234 -10.158842769 65.860000000
v 5.254802234 -10.158842769 67.684000000
v 3.874802234 -12.383842770 65.955000000
v 12.628802234 3.649157231 65.385000000
v 12.628802234 3.649157231 67.861000000
v 10.167802234 4.460157230 65.122000000
v 10.167802234 4.460157230 68.066000000
v 9.299802234 -11.584842769 65.837000000
v 9.299802234 -11.584842769 62.895000000
v 16.058802234 4.501157231 65.626000000
v 8.634802234 7.217157231 64.818000000
v 7.935802234 -14.255842770 62.986000000
v 7.935802234 -14.255842770 65.947000000
v 8.072802234 -14.318842770 62.928000000
v 1.920802234 -9.050842769 65.476000000
v 8.572802234 7.066157230 64.822000000
v 6.276802234 -9.059842770 69.663000000
v 11.147802234 2.860157230 69.638000000
f 27 28 29
f 27 29 30
f 27 30 31
f 27 31 32
f 27 32 33
f 27 33 34
f 27 34 35
f 27 35 36
f 37 34 33
f 37 33 38
f 39 35 34
f 39 34 37
f 40 32 31
f 40 31 41
f 42 30 29
f 42 29 43
f 41 31 30
f 41 30 42
f 43 29 28
f 43 28 44
f 38 33 32
f 38 32 40
f 45 36 35
f 45 35 39
f 46 27 36
f 46 36 45
f 44 28 27
f 44 27 46
f 44 46 45
f 44 45 39
f 44 39 37
f 44 37 38
f 44 38 40
f 44 40 41
f 44 41 42
f 44 42 43
f 9 10 11
f 9 11 12
f 9 12 13
f 9 13 14
f 9 14 15
f 9 15 16
f 9 16 17
f 18 15 14
f 18 14 19
f 19 14 13
f 19 13 20
f 21 16 15
f 21 15 18
f 22 17 16
f 22 16 21
f 23 9 17
f 23 17 22
f 24 12 11
f 24 11 25
f 20 13 12
f 20 12 24
f 25 11 10
f 25 10 26
f 26 10 9
f 26 9 23
f 26 23 22
f 26 22 21
f 26 21 18
f 26 18 19
f 26 19 20
f 26 20 24
f 26 24 25
f 47 48 49
f 47 49 50
f 47 50 51
f 47 51 52
f 47 52 53
f 47 53 54
f 47 54 55
f 47 55 56
f 47 56 57
f 47 57 58
f 47 58 59
f 47 59 60
f 47 60 61
f 47 61 62
f 47 62 63
f 47 63 64
f 47 64 65
f 47 65 66
f 67 48 47
f 67 47 68
f 69 70 71
f 69 71 72
f 69 72 73
f 74 75 70
f 74 70 69
f 76 62 61
f 76 61 77
f 78 79 68
f 80 81 82
f 80 82 83
f 84 56 55
f 84 55 85
f 86 87 75
f 86 75 74
f 88 57 56
f 88 56 84
f 89 59 58
f 89 58 90
f 90 58 57
f 90 57 88
f 85 55 54
f 85 54 91
f 85 91 92
f 92 91 93
f 92 93 94
f 91 54 53
f 91 53 95
f 96 97 87
f 96 87 86
f 94 93 98
f 94 98 99
f 95 53 52
f 95 52 100
f 99 98 97
f 99 97 96
f 79 78 101
f 79 101 102
f 83 82 103
f 83 103 104
f 105 106 49
f 105 49 48
f 105 48 67
f 73 72 106
f 73 106 105
f 68 47 66
f 68 66 107
f 107 66 65
f 107 65 108
f 102 101 81
f 102 81 80
f 100 52 51
f 100 51 109
f 100 109 110
f 109 51 50
f 109 50 111
f 110 109 71
f 110 71 70
f 111 50 49
f 111 49 106
f 77 61 60
f 77 60 112
f 104 103 63
f 104 63 62
f 104 62 76
f 113 64 63
f 113 63 103
f 108 65 64
f 108 64 113
f 112 60 59
f 112 59 89
f 86 114 88
f 86 88 84
f 86 84 85
f 86 85 92
f 86 92 94
f 86 94 99
f 86 99 96
f 73 105 67
f 73 67 68
f 73 68 79
f 73 79 115
f 73 115 114
f 73 114 86
f 73 86 74
f 73 74 69
f 102 80 83
f 102 83 104
f 102 104 115
f 102 115 79
f 110 70 75
f 110 75 87
f 110 87 97
f 110 97 98
f 110 98 93
f 110 93 91
f 110 91 95
f 110 95 100
f 111 106 72
f 111 72 71
f 111 71 109
f 108 113 103
f 108 103 82
f 108 82 81
f 108 81 101
f 108 101 78
f 108 78 68
f 108 68 107
f 112 89 90
f 112 90 88
f 112 88 114
f 112 114 115
f 112 115 104
f 112 104 76
f 112 76 77
f 1 2 3
f 1 3 4
f 5 4 3
f 5 3 6
f 7 1 4
f 7 4 5
f 6 3 2
f 6 2 8
f 8 2 1
f 8 1 7
f 8 7 5
f 8 5 6
