v 16.993660124 -0.553338002 52.110000000
v 14.932660124 0.756661997 52.110000000
v 20.440660124 10.960661997 52.110000000
v 22.272660124 9.812661997 52.110000000
v 23.890660124 8.798661998 52.110000000
v 18.609660124 -1.579338003 52.110000000
v 20.440660124 10.960661997 54.944000000
v 14.932660124 0.756661997 54.842000000
v 23.890660124 8.798661998 55.015000000
v 22.272660124 9.812661997 55.716000000
v 16.993660124 -0.553338002 55.714000000
v 18.609660124 -1.579338003 55.012000000
v -26.807339876 -15.212338002 52.110000000
v -24.288339876 -4.089338003 52.110000000
v -19.451339876 -5.978338002 52.110000000
v -21.115339876 -13.260338003 52.110000000
v -20.793339876 -14.135338003 52.110000000
v -14.600339876 -16.117338003 52.110000000
v -8.966339876 -16.404338002 52.110000000
v -8.683339876 -16.419338003 52.110000000
v -7.703339876 -12.706338002 52.110000000
v -7.064339876 -13.322338003 52.110000000
v -0.390339876 -14.191338003 52.110000000
v -0.299339876 -14.203338003 52.110000000
v -2.781339876 -24.673338003 52.110000000
v -2.917339876 -25.246338002 52.110000000
v -3.948339876 -23.483338003 52.110000000
v -22.869339876 -22.050338003 52.110000000
v -22.184339876 -20.074338003 52.110000000
v -21.274339876 -19.366338002 52.110000000
v -21.930339876 -19.339338003 52.110000000
v -20.860339876 -16.249338003 52.110000000
v -21.377339876 -15.772338003 52.110000000
v -22.210339876 -15.004338003 52.110000000
v -5.752339876 -21.110338002 58.991000000
v -5.752339876 -21.110338002 58.891000000
v -5.645339876 -21.134338003 58.890000000
v -8.966339876 -16.404338002 54.676000000
v -14.600339876 -16.117338003 55.815000000
v -2.917339876 -25.246338002 54.868000000
v -2.781339876 -24.673338003 55.559000000
v -8.683339876 -16.419338003 54.960000000
v -3.948339876 -23.483338003 56.627000000
v -22.869339876 -22.050338003 53.502000000
v -20.609339876 -15.524338002 56.721000000
v -20.609339876 -15.524338002 55.319000000
v -20.707339876 -15.806338003 55.316000000
v -20.707339876 -15.806338003 56.673000000
v -21.377339876 -15.772338003 55.261000000
v -21.377339876 -15.772338003 55.738000000
v -7.703339876 -12.706338002 55.042000000
v -5.847339876 -21.088338003 58.892000000
v -0.299339876 -14.203338003 55.703000000
v -22.184339876 -20.074338003 55.938000000
v -21.115339876 -13.260338003 55.241000000
v -19.451339876 -5.978338002 55.254000000
v -20.860339876 -16.249338003 56.597000000
v -22.210339876 -15.004338003 55.181000000
v -21.930339876 -19.339338003 56.065000000
v -21.274339876 -19.366338002 56.978000000
v -26.807339876 -15.212338002 54.813000000
v -0.390339876 -14.191338003 55.787000000
v -7.064339876 -13.322338003 55.824000000
v -24.288339876 -4.089338003 54.832000000
v -20.793339876 -14.135338003 55.281000000
v -20.450339876 -15.066338003 55.324000000
v -20.450339876 -15.066338003 56.190000000
v -4.452339876 -15.841338003 59.018000000
v -19.467339876 -17.963338003 59.040000000
v 25.327660124 16.020661998 52.110000000
v 24.144660124 16.450661997 52.110000000
v 25.589660124 19.238661997 52.110000000
v 26.683660124 18.753661998 52.110000000
v 24.144660124 16.450661997 54.349000000
v 25.327660124 16.020661998 53.834000000
v 25.589660124 19.238661997 54.316000000
v 26.683660124 18.753661998 53.825000000
f 13 14 15
f 13 15 16
f 13 16 17
f 13 17 18
f 13 18 19
f 13 19 20
f 13 20 21
f 13 21 22
f 13 22 23
f 13 23 24
f 13 24 25
f 13 25 26
f 13 26 27
f 13 27 28
f 13 28 29
f 13 29 30
f 13 30 31
f 13 31 32
f 13 32 33
f 13 33 34
f 35 36 37
f 38 19 18
f 38 18 39
f 40 26 25
f 40 25 41
f 42 20 19
f 42 19 38
f 43 27 26
f 43 26 40
f 44 28 27
f 44 27 43
f 45 46 47
f 45 47 48
f 48 47 49
f 48 49 50
f 51 21 20
f 51 20 42
f 36 35 52
f 41 25 24
f 41 24 53
f 54 29 28
f 54 28 44
f 55 16 15
f 55 15 56
f 50 49 33
f 50 33 32
f 50 32 57
f 58 34 33
f 58 33 49
f 57 32 31
f 57 31 59
f 59 31 30
f 59 30 60
f 61 13 34
f 61 34 58
f 53 24 23
f 53 23 62
f 62 23 22
f 62 22 63
f 63 22 21
f 63 21 51
f 60 30 29
f 60 29 54
f 56 15 14
f 56 14 64
f 39 18 17
f 39 17 65
f 65 17 16
f 65 16 55
f 66 67 65
f 67 66 46
f 67 46 45
f 64 14 13
f 64 13 61
f 68 63 51
f 68 51 42
f 68 42 38
f 68 38 52
f 68 52 35
f 63 68 62
f 37 41 53
f 37 53 62
f 37 62 68
f 37 68 35
f 69 45 48
f 69 48 50
f 69 50 57
f 69 57 59
f 69 59 60
f 45 69 52
f 45 52 38
f 45 38 39
f 45 39 65
f 45 65 67
f 64 61 58
f 64 58 49
f 64 49 47
f 64 47 46
f 64 46 66
f 64 66 65
f 64 65 55
f 64 55 56
f 41 37 36
f 41 36 52
f 41 52 69
f 41 69 60
f 41 60 54
f 41 54 44
f 41 44 43
f 41 43 40
f 1 2 3
f 1 3 4
f 1 4 5
f 1 5 6
f 7 3 2
f 7 2 8
f 9 5 4
f 9 4 10
f 11 1 6
f 11 6 12
f 12 6 5
f 12 5 9
f 10 4 3
f 10 3 7
f 8 2 1
f 8 1 11
f 10 11 12
f 10 12 9
f 11 10 7
f 11 7 8
f 70 71 72
f 70 72 73
f 74 71 70
f 74 70 75
f 76 72 71
f 76 71 74
f 77 73 72
f 77 72 76
f 75 70 73
f 75 73 77
f 75 77 76
f 75 76 74
