v -5.805993025 17.035188920 14.850000000
v -3.101993025 15.769188920 14.850000000
v -2.222993025 14.926188920 14.850000000
v 1.543006975 11.315188920 14.850000000
v 2.448006975 10.446188919 14.850000000
v 3.333006975 10.528188920 14.850000000
v 6.802006975 7.005188920 14.850000000
v 4.521006975 3.958188919 14.850000000
v 1.232006975 5.893188920 14.850000000
v 2.187006975 6.890188919 14.850000000
v 0.778006975 10.292188920 14.850000000
v 0.198006975 10.239188920 14.850000000
v -5.554993025 5.633188920 14.850000000
v -8.470993025 7.379188919 14.850000000
v -12.031993025 9.511188920 14.850000000
v 3.333006975 10.528188920 18.210000000
v 2.448006975 10.446188919 18.212000000
v -3.101993025 15.769188920 22.198000000
v -5.805993025 17.035188920 19.467000000
v -12.031993025 9.511188920 19.408000000
v -2.222993025 14.926188920 23.344000000
v 0.778006975 10.292188920 18.216000000
v 2.187006975 6.890188919 18.253000000
v 0.198006975 10.239188920 18.627000000
v 0.778006975 10.292188920 18.230000000
v -8.470993025 7.379188919 23.283000000
v -5.554993025 5.633188920 20.030000000
v 0.650006975 10.601188920 18.213000000
v 0.650006975 10.601188920 18.517000000
v 1.543006975 11.315188920 18.204000000
v 1.543006975 11.315188920 18.299000000
v 1.232006975 5.893188920 18.265000000
v 6.802006975 7.005188920 18.245000000
v 4.521006975 3.958188919 18.282000000
f 1 2 3
f 1 3 4
f 1 4 5
f 1 5 6
f 1 6 7
f 1 7 8
f 1 8 9
f 1 9 10
f 1 10 11
f 1 11 12
f 1 12 13
f 1 13 14
f 1 14 15
f 16 6 5
f 16 5 17
f 18 2 1
f 18 1 19
f 19 1 15
f 19 15 20
f 21 3 2
f 21 2 18
f 22 11 10
f 22 10 23
f 24 12 11
f 24 11 22
f 24 22 25
f 26 14 13
f 26 13 27
f 20 15 14
f 20 14 26
f 27 13 12
f 27 12 24
f 25 22 28
f 25 28 29
f 17 5 4
f 17 4 30
f 29 28 30
f 29 30 31
f 31 30 4
f 31 4 3
f 31 3 21
f 23 10 9
f 23 9 32
f 33 7 6
f 33 6 16
f 32 9 8
f 32 8 34
f 34 8 7
f 34 7 33
f 20 26 21
f 20 21 18
f 20 18 19
f 31 21 26
f 31 26 27
f 31 27 24
f 31 24 25
f 31 25 29
f 34 33 16
f 34 16 17
f 34 17 30
f 34 30 28
f 34 28 22
f 34 22 23
f 34 23 32
