v -13.925394550 -7.871510007 24.610000000
v -13.891394550 -8.014510008 24.610000000
v -13.785394550 -8.178510007 24.610000000
v -13.668394550 -8.267510007 24.610000000
v -13.530394550 -8.318510007 24.610000000
v -13.384394550 -8.327510008 24.610000000
v 17.673605450 1.487489993 24.610000000
v 17.632605450 4.333489993 24.610000000
v 25.268605450 4.292489992 24.610000000
v 25.466605450 1.953489993 24.610000000
v 25.268605450 4.292489992 26.728000000
v 17.632605450 4.333489993 26.680000000
v 17.673605450 1.487489993 26.709000000
v 25.466605450 1.953489993 26.752000000
v 7.092605450 0.360489992 24.610000000
v 3.966605450 2.505489993 24.610000000
v 4.981605450 4.267489993 24.610000000
v 11.162605450 4.799489993 24.610000000
v 15.504605450 5.173489993 24.610000000
v 16.536605450 -5.752510007 24.610000000
v 12.078605450 -6.135510007 24.610000000
v 7.727605450 -6.510510007 24.610000000
v 2.679605450 -6.944510007 24.610000000
v 2.666605450 -3.041510007 24.610000000
v 7.345605450 -2.377510007 24.610000000
v 7.727605450 -6.510510007 27.377000000
v 12.078605450 -6.135510007 29.403000000
v 2.679605450 -6.944510007 27.371000000
v 2.666605450 -3.041510007 27.357000000
v 15.504605450 5.173489993 27.382000000
v 11.162605450 4.799489993 29.405000000
v 4.981605450 4.267489993 26.528000000
v 7.092605450 0.360489992 27.351000000
v 7.345605450 -2.377510007 27.362000000
v 3.966605450 2.505489993 25.990000000
v 16.536605450 -5.752510007 27.325000000
v -14.328394550 -3.114510007 24.610000000
v -11.953394550 -5.368510007 24.610000000
v -12.105394550 -8.217510007 24.610000000
v -13.891394550 -8.014510008 26.962000000
v -13.785394550 -8.178510007 26.993000000
v -13.925394550 -7.871510007 26.953000000
v -13.668394550 -8.267510007 27.028000000
v -13.530394550 -8.318510007 27.070000000
v -13.384394550 -8.327510008 27.116000000
v -12.105394550 -8.217510007 27.516000000
v -14.328394550 -3.114510007 26.888000000
v -11.953394550 -5.368510007 27.600000000
f 7 8 9
f 7 9 10
f 11 9 8
f 11 8 12
f 13 7 10
f 13 10 14
f 14 10 9
f 14 9 11
f 12 8 7
f 12 7 13
f 12 13 14
f 12 14 11
f 15 16 17
f 15 17 18
f 15 18 19
f 15 19 20
f 15 20 21
f 15 21 22
f 15 22 23
f 15 23 24
f 15 24 25
f 26 22 21
f 26 21 27
f 28 23 22
f 28 22 26
f 29 24 23
f 29 23 28
f 30 19 18
f 30 18 31
f 31 18 17
f 31 17 32
f 33 15 25
f 33 25 34
f 34 25 24
f 34 24 29
f 32 17 16
f 32 16 35
f 27 21 20
f 27 20 36
f 35 16 15
f 35 15 33
f 36 20 19
f 36 19 30
f 34 29 28
f 34 28 26
f 35 33 34
f 35 34 26
f 35 26 27
f 35 27 31
f 35 31 32
f 36 30 31
f 36 31 27
f 37 38 39
f 37 39 6
f 37 6 5
f 37 5 4
f 37 4 3
f 37 3 2
f 37 2 1
f 40 2 3
f 40 3 41
f 42 1 2
f 42 2 40
f 43 4 5
f 43 5 44
f 41 3 4
f 41 4 43
f 44 5 6
f 44 6 45
f 45 6 39
f 45 39 46
f 47 37 1
f 47 1 42
f 46 39 38
f 46 38 48
f 48 38 37
f 48 37 47
f 48 47 42
f 48 42 40
f 48 40 41
f 48 41 43
f 48 43 44
f 48 44 45
f 48 45 46
