v -10.958673732 4.213373907 31.450000000
v -4.547673732 7.759373907 31.450000000
v -4.109673732 6.070373907 31.450000000
v -2.028673732 2.881373907 31.450000000
v -11.301673732 2.667373907 31.450000000
v -10.193673732 3.456373907 31.450000000
v -11.301673732 2.667373907 34.873000000
v -2.028673732 2.881373907 34.266000000
v -10.193673732 3.456373907 34.901000000
v -4.109673732 6.070373907 34.827000000
v -4.547673732 7.759373907 35.079000000
v -10.958673732 4.213373907 35.053000000
v 13.748326268 3.019373907 31.450000000
v 6.261326268 2.769373907 31.450000000
v 5.220326268 2.735373907 31.450000000
v 3.254326268 1.867373907 31.450000000
v 1.566326268 6.641373906 31.450000000
v 2.765326268 7.201373907 31.450000000
v 2.836326268 7.172373907 31.450000000
v 2.806326268 8.882373907 31.450000000
v 4.178326268 8.984373907 31.450000000
v 5.441326268 9.489373907 31.450000000
v 9.353326268 11.053373907 31.450000000
v 9.584326268 11.146373906 31.450000000
v 12.295326268 5.856373906 31.450000000
v 6.261326268 2.769373907 41.861000000
v 6.261326268 2.769373907 40.941000000
v 6.451326268 3.278373906 41.408000000
v 5.220326268 2.735373907 41.401000000
v 13.748326268 3.019373907 37.629000000
v 12.295326268 5.856373906 41.438000000
v 3.254326268 1.867373907 41.391000000
v 1.566326268 6.641373906 35.483000000
v 9.584326268 11.146373906 34.490000000
v 9.353326268 11.053373907 34.479000000
v 2.765326268 7.201373907 35.457000000
v 2.836326268 7.172373907 35.521000000
v 5.441326268 9.489373907 39.530000000
v 4.178326268 8.984373907 37.885000000
v 2.806326268 8.882373907 36.312000000
v 7.234326268 5.375373906 39.539000000
f 13 14 15
f 13 15 16
f 13 16 17
f 13 17 18
f 13 18 19
f 13 19 20
f 13 20 21
f 13 21 22
f 13 22 23
f 13 23 24
f 13 24 25
f 26 27 28
f 29 15 14
f 29 14 27
f 29 27 26
f 30 13 25
f 30 25 31
f 32 16 15
f 32 15 29
f 33 17 16
f 33 16 32
f 34 24 23
f 34 23 35
f 27 14 13
f 27 13 30
f 36 18 17
f 36 17 33
f 37 19 18
f 37 18 36
f 35 23 22
f 35 22 38
f 38 22 21
f 38 21 39
f 31 25 24
f 31 24 34
f 40 20 19
f 40 19 37
f 39 21 20
f 39 20 40
f 27 30 31
f 27 31 28
f 41 35 38
f 31 34 35
f 31 35 41
f 31 41 37
f 31 37 36
f 31 36 33
f 31 33 32
f 31 32 29
f 31 29 26
f 31 26 28
f 39 40 37
f 39 37 41
f 39 41 38
f 1 2 3
f 1 3 4
f 1 4 5
f 1 5 6
f 7 5 4
f 7 4 8
f 9 6 5
f 9 5 7
f 10 3 2
f 10 2 11
f 8 4 3
f 8 3 10
f 12 1 6
f 12 6 9
f 11 2 1
f 11 1 12
f 11 12 9
f 11 9 7
f 11 7 8
f 11 8 10
