v -3.679495345 -1.990762997 7.250000000
v -3.040495345 -3.346762997 7.250000000
v -5.617495345 -6.679762998 7.250000000
v -4.966495345 -8.195762997 7.250000000
v -7.544495345 -8.463762998 7.250000000
v -7.795495345 -2.829762997 7.250000000
v -7.544495345 -8.463762998 9.670000000
v -4.966495345 -8.195762997 9.789000000
v -7.795495345 -2.829762997 9.677000000
v -5.617495345 -6.679762998 9.764000000
v -3.040495345 -3.346762997 9.893000000
v -3.679495345 -1.990762997 9.868000000
v 6.417504655 13.158237003 7.250000000
v 3.350504655 13.034237002 7.250000000
v 3.557504655 14.261237003 7.250000000
v 3.999504655 16.875237002 7.250000000
v 6.235504655 17.218237002 7.250000000
v 6.364504655 14.335237003 7.250000000
v 6.364504655 14.335237003 10.484000000
v 6.235504655 17.218237002 9.601000000
v 3.999504655 16.875237002 9.725000000
v 3.557504655 14.261237003 10.530000000
v 3.350504655 13.034237002 10.148000000
v 6.417504655 13.158237003 10.111000000
v 12.196504655 2.634237003 7.250000000
v 11.928504655 8.739237002 7.250000000
v 15.723504655 8.950237002 7.250000000
v 15.801504655 2.977237003 7.250000000
v 15.723504655 8.950237002 9.383000000
v 11.928504655 8.739237002 9.904000000
v 15.801504655 2.977237003 9.379000000
v 12.196504655 2.634237003 9.874000000
v 12.239504655 -15.546762997 7.250000000
v 11.617504655 -7.222762997 7.250000000
v 15.933504655 -7.238762997 7.250000000
v 16.043504655 -15.777762998 7.250000000
v 15.933504655 -7.238762997 9.579000000
v 11.617504655 -7.222762997 9.570000000
v 16.043504655 -15.777762998 9.580000000
v 12.239504655 -15.546762997 9.572000000
v 0.340504655 -5.409762997 7.250000000
v -0.662495345 -5.626762997 7.250000000
v 0.299504655 9.405237002 7.250000000
v 4.657504655 9.723237002 7.250000000
v 6.573504655 9.863237003 7.250000000
v 9.467504655 9.588237002 7.250000000
v 10.546504655 -10.202762998 7.250000000
v 5.792504655 -9.588762998 7.250000000
v 5.839504655 -10.389762998 7.250000000
v 1.370504655 -10.567762998 7.250000000
v -0.662495345 -5.626762997 9.666000000
v 0.340504655 -5.409762997 10.250000000
v 0.299504655 9.405237002 10.734000000
v 1.370504655 -10.567762998 10.665000000
v 5.839504655 -10.389762998 13.238000000
v 5.792504655 -9.588762998 13.238000000
v 10.546504655 -10.202762998 10.520000000
v 6.573504655 9.863237003 12.140000000
v 4.657504655 9.723237002 13.248000000
v 9.467504655 9.588237002 10.482000000
f 33 34 35
f 33 35 36
f 37 35 34
f 37 34 38
f 39 36 35
f 39 35 37
f 40 33 36
f 40 36 39
f 38 34 33
f 38 33 40
f 38 40 39
f 38 39 37
f 41 42 43
f 41 43 44
f 41 44 45
f 41 45 46
f 41 46 47
f 41 47 48
f 41 48 49
f 41 49 50
f 51 42 41
f 51 41 52
f 53 43 42
f 53 42 51
f 52 41 50
f 52 50 54
f 55 49 48
f 55 48 56
f 56 48 47
f 56 47 57
f 54 50 49
f 54 49 55
f 58 45 44
f 58 44 59
f 60 46 45
f 60 45 58
f 57 47 46
f 57 46 60
f 59 44 43
f 59 43 53
f 57 60 58
f 57 58 59
f 57 59 56
f 59 53 51
f 59 51 52
f 59 52 54
f 59 54 55
f 59 55 56
f 13 14 15
f 13 15 16
f 13 16 17
f 13 17 18
f 19 18 17
f 19 17 20
f 21 16 15
f 21 15 22
f 20 17 16
f 20 16 21
f 23 14 13
f 23 13 24
f 22 15 14
f 22 14 23
f 24 13 18
f 24 18 19
f 20 21 22
f 20 22 19
f 24 19 22
f 24 22 23
f 1 2 3
f 1 3 4
f 1 4 5
f 1 5 6
f 7 5 4
f 7 4 8
f 9 6 5
f 9 5 7
f 8 4 3
f 8 3 10
f 10 3 2
f 10 2 11
f 12 1 6
f 12 6 9
f 11 2 1
f 11 1 12
f 11 12 9
f 11 9 7
f 11 7 8
f 11 8 10
f 25 26 27
f 25 27 28
f 29 27 26
f 29 26 30
f 31 28 27
f 31 27 29
f 32 25 28
f 32 28 31
f 30 26 25
f 30 25 32
f 30 32 31
f 30 31 29
