v 1.557102590 2.323549433 23.069000000
v 5.690102590 2.644549432 23.069000000
v 5.820102590 1.208549432 23.069000000
v 8.798102590 1.549549432 23.069000000
v 9.537102590 -6.485450568 23.069000000
v 6.556102590 -6.905450568 23.069000000
v 7.476102590 -17.047450568 23.069000000
v 2.259102590 -17.389450568 23.069000000
v -2.166897410 -17.680450568 23.069000000
v -5.240897410 -17.882450568 23.069000000
v -5.685897410 -11.227450567 23.069000000
v -2.428897410 -10.763450568 23.069000000
v -2.955897410 3.185549432 23.069000000
v 0.558102590 2.514549432 23.069000000
v 2.259102590 -17.389450568 27.241000000
v 7.476102590 -17.047450568 25.294000000
v -2.166897410 -17.680450568 25.629000000
v -5.685897410 -11.227450567 25.495000000
v -5.240897410 -17.882450568 25.397000000
v 0.558102590 2.514549432 27.234000000
v -2.955897410 3.185549432 25.982000000
v 5.820102590 1.208549432 25.324000000
v 5.690102590 2.644549432 25.326000000
v 8.798102590 1.549549432 25.386000000
v 6.556102590 -6.905450568 25.311000000
v 9.537102590 -6.485450568 25.374000000
v -2.428897410 -10.763450568 25.746000000
v 1.557102590 2.323549433 26.870000000
f 1 2 3
f 1 3 4
f 1 4 5
f 1 5 6
f 1 6 7
f 1 7 8
f 1 8 9
f 1 9 10
f 1 10 11
f 1 11 12
f 1 12 13
f 1 13 14
f 15 8 7
f 15 7 16
f 17 9 8
f 17 8 15
f 18 11 10
f 18 10 19
f 19 10 9
f 19 9 17
f 20 14 13
f 20 13 21
f 22 3 2
f 22 2 23
f 24 4 3
f 24 3 22
f 25 6 5
f 25 5 26
f 16 7 6
f 16 6 25
f 26 5 4
f 26 4 24
f 27 12 11
f 27 11 18
f 21 13 12
f 21 12 27
f 28 1 14
f 28 14 20
f 23 2 1
f 23 1 28
f 26 24 22
f 26 22 25
f 27 18 19
f 27 19 17
f 15 20 21
f 15 21 27
f 15 27 17
f 20 15 16
f 20 16 25
f 20 25 22
f 20 22 23
f 20 23 28
