v 11.491374375 3.725589126 18.770000000
v 11.412374375 3.944589126 18.770000000
v 11.353374375 4.018589126 18.770000000
v 11.282374375 4.079589127 18.770000000
v 11.200374375 4.126589126 18.770000000
v 8.618374375 -6.289410873 18.770000000
v 9.071374375 -10.230410874 18.770000000
v 8.975374375 -10.669410874 18.770000000
v 7.949374375 -15.369410873 18.770000000
v -1.073625625 -14.559410874 18.770000000
v -0.802625625 -9.863410873 18.770000000
v -0.556625625 -5.603410874 18.770000000
v 9.071374375 -10.230410874 26.681000000
v 8.618374375 -6.289410873 23.615000000
v -0.556625625 -5.603410874 23.684000000
v -0.802625625 -9.863410873 27.048000000
v 8.975374375 -10.669410874 27.033000000
v -1.073625625 -14.559410874 23.353000000
v 7.949374375 -15.369410873 23.287000000
v 11.865374375 0.352589127 18.770000000
v 9.387374375 -2.340410873 18.770000000
v 7.782374375 -1.917410874 18.770000000
v 6.816374375 6.112589126 18.770000000
v 11.282374375 4.079589127 21.452000000
v 11.200374375 4.126589126 21.453000000
v 11.353374375 4.018589126 21.452000000
v 6.816374375 6.112589126 21.474000000
v 7.782374375 -1.917410874 21.547000000
v 11.865374375 0.352589127 21.485000000
v 11.491374375 3.725589126 21.454000000
v 9.387374375 -2.340410873 21.536000000
v 11.412374375 3.944589126 21.453000000
f 6 7 8
f 6 8 9
f 6 9 10
f 6 10 11
f 6 11 12
f 13 7 6
f 13 6 14
f 14 6 12
f 14 12 15
f 15 12 11
f 15 11 16
f 17 8 7
f 17 7 13
f 16 11 10
f 16 10 18
f 18 10 9
f 18 9 19
f 19 9 8
f 19 8 17
f 16 17 13
f 16 13 14
f 16 14 15
f 19 17 16
f 19 16 18
f 1 20 21
f 1 21 22
f 1 22 23
f 1 23 5
f 1 5 4
f 1 4 3
f 1 3 2
f 24 4 5
f 24 5 25
f 26 3 4
f 26 4 24
f 25 5 23
f 25 23 27
f 27 23 22
f 27 22 28
f 29 20 1
f 29 1 30
f 28 22 21
f 28 21 31
f 31 21 20
f 31 20 29
f 30 1 2
f 30 2 32
f 32 2 3
f 32 3 26
f 32 26 24
f 32 24 25
f 32 25 27
f 32 27 28
f 32 28 31
f 32 31 29
f 32 29 30
