v 36.094613281 3.664837691 41.610000000
v 32.796613281 3.609837691 41.610000000
v 31.161613281 -10.516162309 41.610000000
v 31.104613281 -11.005162309 41.610000000
v 31.130613281 -11.084162309 41.610000000
v 31.628613281 -12.614162309 41.610000000
v 30.912613281 -12.666162309 41.610000000
v 30.889613281 -12.869162309 41.610000000
v 31.065613281 -12.882162309 41.610000000
v 30.844613281 -15.459162309 41.610000000
v 30.994613281 -15.716162309 41.610000000
v 30.814613281 -15.817162309 41.610000000
v 30.681613281 -17.371162309 41.610000000
v 30.771613281 -17.674162309 41.610000000
v 30.663613281 -17.579162309 41.610000000
v 29.656613281 -29.335162309 41.610000000
v 27.520613281 -28.200162309 41.610000000
v 26.801613281 -28.212162309 41.610000000
v 21.478613281 -28.303162308 41.610000000
v 19.462613281 -28.337162309 41.610000000
v 20.590613281 -14.646162309 41.610000000
v 20.953613281 -14.242162309 41.610000000
v 21.362613281 -10.032162309 41.610000000
v 21.103613281 -9.617162309 41.610000000
v 21.002613281 -9.457162309 41.610000000
v 21.332613281 -9.461162309 41.610000000
v 21.418613281 -9.462162309 41.610000000
v 21.424613281 -9.399162309 41.610000000
v 22.834613281 5.093837691 41.610000000
v 22.985613281 5.141837691 41.610000000
v 25.157613281 4.865837691 41.610000000
v 30.109613281 4.237837691 41.610000000
v 31.497613281 5.187837691 41.610000000
v 31.695613281 11.999837691 41.610000000
v 31.730613281 13.204837691 41.610000000
v 36.945613281 12.593837691 41.610000000
v 36.923613281 12.365837691 41.610000000
v 21.850613281 -15.534162309 46.683000000
v 21.850613281 -15.534162309 45.921000000
v 23.826613281 -14.480162309 47.705000000
v 26.462613281 -13.074162309 50.019000000
v 26.462613281 -13.074162309 49.193000000
v 27.200613281 -12.680162309 49.615000000
v 26.801613281 -28.212162309 47.554000000
v 27.520613281 -28.200162309 46.875000000
v 20.867613281 -15.125162309 46.987000000
v 20.867613281 -15.125162309 44.946000000
v 20.953613281 -14.242162309 47.760000000
v 20.953613281 -14.242162309 44.945000000
v 25.926613281 -13.728162309 49.643000000
v 25.926613281 -13.728162309 49.636000000
v 24.634613281 -26.666162309 49.620000000
v 24.634613281 -26.666162309 49.741000000
v 21.362613281 -10.032162309 47.774000000
v 21.103613281 -9.617162309 47.432000000
v 21.103613281 -9.617162309 44.653000000
v 25.056613281 -10.695162309 48.522000000
v 25.056613281 -10.695162309 48.054000000
v 25.061613281 -11.126162309 48.430000000
v 25.061613281 -11.126162309 48.567000000
v 25.928613281 -12.232162309 49.497000000
v 25.928613281 -12.232162309 49.326000000
v 26.085613281 -12.140162309 49.233000000
v 26.085613281 -12.140162309 49.637000000
v 24.634613281 -26.666162309 49.189000000
v 24.353613281 -26.516162309 49.338000000
v 20.590613281 -14.646162309 44.637000000
v 19.462613281 -28.337162309 44.849000000
v 30.560613281 -15.706162309 47.288000000
v 30.560613281 -15.706162309 45.084000000
v 30.828613281 -15.647162309 44.835000000
v 30.828613281 -15.647162309 47.367000000
v 30.844613281 -15.459162309 44.836000000
v 30.844613281 -15.459162309 47.535000000
v 31.628613281 -12.614162309 46.956000000
v 31.130613281 -11.084162309 47.745000000
v 31.130613281 -11.084162309 47.900000000
v 30.716613281 -11.390162309 48.202000000
v 31.104613281 -11.005162309 47.833000000
v 31.161613281 -10.516162309 44.993000000
v 31.161613281 -10.516162309 47.401000000
v 36.094613281 3.664837691 44.701000000
v 36.923613281 12.365837691 44.420000000
v 36.923613281 12.365837691 44.586000000
v 31.450613281 3.586837691 44.837000000
v 31.450613281 3.586837691 46.068000000
v 32.796613281 3.609837691 44.798000000
v 31.695613281 11.999837691 43.874000000
v 31.695613281 11.999837691 44.742000000
v 31.464613281 4.065837692 44.832000000
v 31.464613281 4.065837692 46.100000000
v 31.730613281 13.204837691 43.906000000
v 21.478613281 -28.303162308 46.767000000
v 29.656613281 -29.335162309 44.754000000
v 30.889613281 -12.869162309 47.809000000
v 30.912613281 -12.666162309 47.806000000
v 30.994613281 -15.716162309 44.672000000
v 30.814613281 -15.817162309 44.834000000
v 30.663613281 -17.579162309 44.824000000
v 26.400613281 -12.993162309 49.953000000
v 26.400613281 -12.993162309 49.258000000
v 26.052613281 -13.019162308 50.004000000
v 26.052613281 -13.019162308 49.689000000
v 26.052613281 -13.019162308 49.586000000
v 31.497613281 5.187837691 44.819000000
v 30.109613281 4.237837691 44.870000000
v 30.109613281 4.237837691 47.398000000
v 22.985613281 5.141837691 45.060000000
v 22.834613281 5.093837691 44.920000000
v 36.945613281 12.593837691 44.428000000
v 24.269613281 -12.368162309 49.566000000
v 24.269613281 -12.368162309 49.580000000
v 22.748613281 -12.243162309 49.594000000
v 26.110613281 -12.692162309 49.714000000
v 25.898613281 -12.545162309 49.498000000
v 25.898613281 -12.545162309 49.602000000
v 26.008613281 -12.556162309 49.603000000
v 21.424613281 -9.399162309 44.939000000
v 22.618613281 -8.587162309 46.000000000
v 22.618613281 -8.587162309 46.408000000
v 23.753613281 -9.568162309 47.174000000
v 26.466613281 -11.915162309 49.005000000
v 26.466613281 -11.915162309 49.298000000
v 31.065613281 -12.882162309 47.596000000
v 28.938613281 -16.066162309 46.588000000
v 28.938613281 -16.066162309 46.807000000
v 28.315613281 -15.518162309 47.226000000
v 30.208613281 -15.784162309 45.410000000
v 30.208613281 -15.784162309 47.183000000
v 30.372613281 -9.618162309 45.825000000
v 30.372613281 -9.618162309 46.681000000
v 30.303613281 -16.102162309 46.912000000
v 30.303613281 -16.102162309 45.293000000
v 30.529613281 -15.976162309 45.090000000
v 30.529613281 -15.976162309 47.047000000
v 21.424613281 -9.399162309 47.215000000
v 21.418613281 -9.462162309 47.271000000
v 25.157613281 4.865837691 47.155000000
v 26.634613281 -12.060162309 49.118000000
v 26.634613281 -12.060162309 49.126000000
v 27.412613281 -11.359162309 48.443000000
v 27.412613281 -11.359162309 48.457000000
v 27.461613281 -11.330162309 48.413000000
v 25.824613281 -27.298162309 48.559000000
v 21.332613281 -9.461162309 44.857000000
v 21.002613281 -9.457162309 44.542000000
v 21.332613281 -9.461162309 47.277000000
v 30.771613281 -17.674162309 44.713000000
v 30.681613281 -17.371162309 44.825000000
v 25.935613281 -13.679162309 49.639000000
v 29.358613281 -12.905162309 49.636000000
v 27.545613281 2.483837691 49.655000000
f 1 2 3
f 1 3 4
f 1 4 5
f 1 5 6
f 1 6 7
f 1 7 8
f 1 8 9
f 1 9 10
f 1 10 11
f 1 11 12
f 1 12 13
f 1 13 14
f 1 14 15
f 1 15 16
f 1 16 17
f 1 17 18
f 1 18 19
f 1 19 20
f 1 20 21
f 1 21 22
f 1 22 23
f 1 23 24
f 1 24 25
f 1 25 26
f 1 26 27
f 1 27 28
f 1 28 29
f 1 29 30
f 1 30 31
f 1 31 32
f 1 32 33
f 1 33 34
f 1 34 35
f 1 35 36
f 1 36 37
f 38 39 40
f 41 42 43
f 44 18 17
f 44 17 45
f 46 47 39
f 46 39 38
f 48 49 47
f 48 47 46
f 54 23 22
f 54 22 49
f 54 49 48
f 55 56 24
f 55 24 23
f 55 23 54
f 57 58 59
f 57 59 60
f 61 62 63
f 61 63 64
f 60 59 62
f 60 62 61
f 65 52 66
f 67 21 20
f 67 20 68
f 69 70 71
f 69 71 72
f 72 71 73
f 72 73 74
f 75 6 5
f 75 5 76
f 79 4 3
f 79 3 80
f 79 80 81
f 77 76 5
f 77 5 4
f 77 4 79
f 82 1 37
f 82 37 83
f 82 83 84
f 85 86 87
f 84 83 88
f 84 88 89
f 86 85 90
f 86 90 91
f 92 35 34
f 92 34 88
f 49 22 21
f 49 21 67
f 68 20 19
f 68 19 93
f 45 17 16
f 45 16 94
f 95 8 7
f 95 7 96
f 97 11 10
f 97 10 73
f 98 12 11
f 98 11 97
f 94 16 15
f 94 15 99
f 100 101 42
f 100 42 41
f 102 103 104
f 102 104 101
f 102 101 100
f 89 88 34
f 89 34 33
f 89 33 105
f 91 90 106
f 91 106 107
f 105 33 32
f 105 32 106
f 108 30 29
f 108 29 109
f 110 36 35
f 110 35 92
f 83 37 36
f 83 36 110
f 111 112 113
f 112 111 115
f 112 115 116
f 116 115 117
f 109 29 28
f 109 28 118
f 119 120 121
f 58 57 121
f 64 63 122
f 64 122 123
f 74 73 10
f 74 10 9
f 74 9 124
f 124 9 8
f 124 8 95
f 96 7 6
f 96 6 75
f 125 126 127
f 126 125 128
f 126 128 129
f 81 80 130
f 81 130 131
f 80 3 2
f 80 2 87
f 87 2 1
f 87 1 82
f 132 133 134
f 132 134 135
f 120 119 118
f 120 118 136
f 136 118 28
f 136 28 27
f 136 27 137
f 107 106 32
f 107 32 31
f 107 31 138
f 123 122 139
f 123 139 140
f 140 139 141
f 140 141 142
f 138 31 30
f 138 30 108
f 131 130 143
f 142 141 143
f 53 52 65
f 93 19 18
f 93 18 44
f 145 26 25
f 145 25 146
f 146 25 24
f 146 24 56
f 147 145 56
f 147 56 55
f 137 27 26
f 137 26 145
f 137 145 147
f 135 134 70
f 135 70 69
f 129 128 133
f 129 133 132
f 99 15 14
f 99 14 148
f 148 14 13
f 148 13 149
f 149 13 12
f 149 12 98
f 83 110 92
f 83 92 88
f 40 115 111
f 40 111 113
f 40 113 48
f 40 48 46
f 40 46 38
f 96 75 76
f 96 76 78
f 96 78 151
f 96 151 74
f 96 74 124
f 96 124 95
f 87 82 84
f 87 84 89
f 87 89 105
f 87 105 106
f 87 106 90
f 87 90 85
f 107 138 152
f 138 108 109
f 138 109 118
f 138 118 119
f 138 119 121
f 138 121 57
f 138 57 60
f 138 60 61
f 138 61 64
f 138 64 152
f 142 143 130
f 142 130 80
f 142 80 87
f 142 87 86
f 142 86 91
f 142 91 107
f 142 107 152
f 142 152 64
f 142 64 123
f 142 123 140
f 93 44 144
f 93 144 65
f 93 65 66
f 56 145 146
f 113 54 48
f 129 132 135
f 129 135 69
f 129 69 72
f 129 72 74
f 129 74 151
f 129 151 43
f 129 43 42
f 129 42 127
f 129 127 126
f 51 150 103
f 51 114 117
f 51 117 115
f 51 115 40
f 51 40 39
f 51 39 47
f 51 47 49
f 51 49 67
f 51 67 68
f 51 68 93
f 51 93 66
f 51 66 52
f 54 113 112
f 54 112 116
f 54 116 117
f 54 117 114
f 54 114 102
f 54 102 100
f 54 100 41
f 54 41 43
f 54 43 151
f 54 151 78
f 54 78 77
f 54 77 79
f 54 79 81
f 54 81 131
f 54 131 143
f 54 143 141
f 54 141 139
f 54 139 122
f 54 122 63
f 54 63 62
f 54 62 59
f 54 59 58
f 54 58 121
f 54 121 120
f 54 120 136
f 54 136 137
f 54 137 147
f 54 147 55
f 104 150 50
f 104 50 53
f 104 53 144
f 104 144 44
f 104 44 45
f 104 45 94
f 104 94 99
f 104 99 148
f 104 148 149
f 104 149 98
f 104 98 97
f 104 97 73
f 104 73 71
f 104 71 70
f 104 70 134
f 104 134 133
f 104 133 128
f 104 128 125
f 104 125 127
f 104 127 42
f 104 42 101
