v 7.662534397 5.707902481 5.150000000
v 19.474534397 -0.400097519 5.150000000
v 17.863534397 -4.119097520 5.150000000
v 17.340534397 -5.329097520 5.150000000
v 16.915534397 -4.974097519 5.150000000
v 15.695534397 -7.991097519 5.150000000
v 9.116534397 -4.356097519 5.150000000
v 9.051534397 -4.473097519 5.150000000
v 7.750534397 -6.798097519 5.150000000
v 4.141534397 -5.871097519 5.150000000
v 4.200534397 -1.640097519 5.150000000
v 3.344534397 -1.167097519 5.150000000
v 5.502534397 2.267902480 5.150000000
v 5.502534397 2.267902480 9.685000000
v 3.344534397 -1.167097519 7.811000000
v 17.863534397 -4.119097520 9.683000000
v 19.474534397 -0.400097519 7.790000000
v 17.340534397 -5.329097520 9.073000000
v 15.695534397 -7.991097519 7.627000000
v 16.915534397 -4.974097519 9.129000000
v 9.116534397 -4.356097519 7.725000000
v 7.662534397 5.707902481 7.790000000
v 4.200534397 -1.640097519 7.798000000
v 4.141534397 -5.871097519 7.399000000
v 9.051534397 -4.473097519 7.663000000
v 9.051534397 -4.473097519 7.712000000
v 8.374534397 -3.946097519 7.736000000
v 7.750534397 -6.798097519 7.446000000
v 7.411534397 9.062902480 5.150000000
v 5.309534397 5.405902481 5.150000000
v -0.899465603 8.602902480 5.150000000
v 0.962534397 12.301902480 5.150000000
v 5.309534397 5.405902481 7.873000000
v 7.411534397 9.062902480 8.009000000
v 0.962534397 12.301902480 7.989000000
v -0.899465603 8.602902480 7.856000000
f 29 30 31
f 29 31 32
f 33 30 29
f 33 29 34
f 34 29 32
f 34 32 35
f 35 32 31
f 35 31 36
f 36 31 30
f 36 30 33
f 36 33 34
f 36 34 35
f 1 2 3
f 1 3 4
f 1 4 5
f 1 5 6
f 1 6 7
f 1 7 8
f 1 8 9
f 1 9 10
f 1 10 11
f 1 11 12
f 1 12 13
f 14 13 12
f 14 12 15
f 16 3 2
f 16 2 17
f 18 4 3
f 18 3 16
f 19 6 5
f 19 5 20
f 20 5 4
f 20 4 18
f 21 7 6
f 21 6 19
f 22 1 13
f 22 13 14
f 23 11 10
f 23 10 24
f 25 8 7
f 25 7 21
f 26 25 27
f 28 9 8
f 28 8 25
f 28 25 26
f 24 10 9
f 24 9 28
f 15 12 11
f 15 11 23
f 17 2 1
f 17 1 22
f 24 28 26
f 24 26 27
f 24 27 23
f 16 14 15
f 16 15 23
f 16 23 27
f 16 27 25
f 16 25 21
f 16 21 19
f 16 19 20
f 16 20 18
f 17 22 14
f 17 14 16
