v -13.849266844 16.250683478 43.349000000
v -8.697266844 16.200683478 43.349000000
v -9.088266844 12.631683478 43.349000000
v -14.259266844 13.324683478 43.349000000
v -9.088266844 12.631683478 46.201000000
v -8.697266844 16.200683478 46.037000000
v -13.849266844 16.250683478 45.888000000
v -14.259266844 13.324683478 46.020000000
v 8.217733156 5.476683479 43.349000000
v 7.373733156 2.822683479 43.349000000
v -5.545266844 3.017683478 43.349000000
v -5.577266844 8.065683478 43.349000000
v -5.608266844 13.085683478 43.349000000
v 8.289733156 12.982683478 43.349000000
v 8.240733156 7.903683478 43.349000000
v -5.577266844 8.065683478 49.093000000
v -5.545266844 3.017683478 47.342000000
v 7.373733156 2.822683479 47.318000000
v 8.217733156 5.476683479 48.241000000
v 8.240733156 7.903683478 49.083000000
v -5.608266844 13.085683478 47.365000000
v 8.289733156 12.982683478 47.334000000
f 1 2 3
f 1 3 4
f 5 3 2
f 5 2 6
f 7 1 4
f 7 4 8
f 8 4 3
f 8 3 5
f 6 2 1
f 6 1 7
f 6 7 8
f 6 8 5
f 9 10 11
f 9 11 12
f 9 12 13
f 9 13 14
f 9 14 15
f 16 12 11
f 16 11 17
f 17 11 10
f 17 10 18
f 19 9 15
f 19 15 20
f 18 10 9
f 18 9 19
f 21 13 12
f 21 12 16
f 22 14 13
f 22 13 21
f 20 15 14
f 20 14 22
f 18 19 20
f 18 20 16
f 18 16 17
f 20 22 21
f 20 21 16
