v 0.907039459 -26.069304280 28.989000000
v -3.674960541 -25.003304279 28.989000000
v -3.133960541 -23.766304280 28.989000000
v -2.854960541 -22.232304280 28.989000000
v -2.322960541 -19.303304279 28.989000000
v 0.508039459 -19.300304280 28.989000000
v 1.475039459 -19.299304279 28.989000000
v 1.959039459 -14.331304279 28.989000000
v 2.157039459 -12.292304279 28.989000000
v 1.443039459 -11.395304279 28.989000000
v 0.910039459 -11.942304280 28.989000000
v 0.758039459 -12.706304279 28.989000000
v 0.333039459 -10.800304280 28.989000000
v -2.396960541 -10.273304280 28.989000000
v -1.688960541 -7.546304280 28.989000000
v -2.090960541 -7.059304279 28.989000000
v -0.663960541 -1.794304280 28.989000000
v 2.810039459 -2.383304279 28.989000000
v 6.510039459 -3.011304280 28.989000000
v 5.426039459 -8.471304280 28.989000000
v 9.081039459 -9.151304279 28.989000000
v 9.640039459 -6.537304279 28.989000000
v 18.297039459 -8.177304280 28.989000000
v 17.807039459 -10.774304279 28.989000000
v 17.188039459 -14.050304280 28.989000000
v 16.694039459 -16.665304280 28.989000000
v 9.937039459 -15.508304279 28.989000000
v 8.081039459 -26.267304280 28.989000000
v 4.131039459 -25.754304280 28.989000000
v 1.451039459 -25.406304279 28.989000000
v -0.663960541 -1.794304280 33.614000000
v -2.090960541 -7.059304279 33.417000000
v 2.810039459 -2.383304279 35.371000000
v 2.157039459 -12.292304279 34.660000000
v 1.959039459 -14.331304279 33.415000000
v 6.819039459 -12.050304280 35.360000000
v 6.819039459 -12.050304280 35.353000000
v -1.688960541 -7.546304280 33.660000000
v 1.443039459 -11.395304279 35.114000000
v 0.910039459 -11.942304280 34.724000000
v 16.694039459 -16.665304280 33.748000000
v 17.188039459 -14.050304280 35.373000000
v 9.937039459 -15.508304279 33.648000000
v 1.451039459 -25.406304279 33.943000000
v 1.451039459 -25.406304279 34.130000000
v 1.820039459 -24.956304279 34.254000000
v 4.131039459 -25.754304280 35.339000000
v 8.081039459 -26.267304280 33.595000000
v 17.807039459 -10.774304279 33.433000000
v 9.937039459 -15.508304279 33.743000000
v 9.640039459 -6.537304279 32.582000000
v 9.081039459 -9.151304279 33.450000000
v 5.426039459 -8.471304280 33.458000000
v 4.555039459 -23.618304280 35.344000000
v 4.555039459 -23.618304280 35.356000000
v 4.555039459 -23.618304280 35.363000000
v -2.854960541 -22.232304280 35.368000000
v -3.674960541 -25.003304279 33.613000000
v 0.907039459 -26.069304280 33.485000000
v -3.133960541 -23.766304280 34.416000000
v 0.508039459 -19.300304280 33.198000000
v -2.322960541 -19.303304279 33.526000000
v 1.111039459 -10.930304280 35.331000000
v 1.111039459 -10.930304280 35.354000000
v 0.063039459 -9.664304280 34.720000000
v -1.688960541 -7.546304280 33.699000000
v 1.475039459 -19.299304279 33.623000000
v 9.865039459 -15.495304280 33.647000000
v 9.865039459 -15.495304280 33.775000000
v 0.333039459 -10.800304280 35.340000000
v 0.758039459 -12.706304279 34.248000000
v -2.396960541 -10.273304280 35.335000000
v 7.418039459 -12.740304279 35.011000000
v 7.418039459 -12.740304279 35.070000000
v 6.510039459 -3.011304280 33.506000000
v 5.426039459 -8.471304280 33.495000000
v 5.413039459 -8.533304280 33.494000000
v 18.297039459 -8.177304280 32.575000000
v 6.695039459 -12.836304280 35.372000000
v 6.695039459 -12.836304280 34.868000000
v 2.294039459 -10.296304280 34.840000000
v -12.548960541 15.443695720 28.989000000
v -12.122960541 16.828695720 28.989000000
v -10.744960541 15.885695720 28.989000000
v -12.548960541 15.443695720 32.965000000
v -10.744960541 15.885695720 32.319000000
v -12.122960541 16.828695720 31.974000000
f 82 83 84
f 85 82 84
f 85 84 86
f 86 84 83
f 86 83 87
f 87 83 82
f 87 82 85
f 87 85 86
f 1 2 3
f 1 3 4
f 1 4 5
f 1 5 6
f 1 6 7
f 1 7 8
f 1 8 9
f 1 9 10
f 1 10 11
f 1 11 12
f 1 12 13
f 1 13 14
f 1 14 15
f 1 15 16
f 1 16 17
f 1 17 18
f 1 18 19
f 1 19 20
f 1 20 21
f 1 21 22
f 1 22 23
f 1 23 24
f 1 24 25
f 1 25 26
f 1 26 27
f 1 27 28
f 1 28 29
f 1 29 30
f 31 17 16
f 31 16 32
f 33 18 17
f 33 17 31
f 34 9 8
f 34 8 35
f 36 37 35
f 32 16 15
f 32 15 38
f 39 10 9
f 39 9 34
f 40 11 10
f 40 10 39
f 41 26 25
f 41 25 42
f 43 27 26
f 43 26 41
f 47 29 28
f 47 28 48
f 42 25 24
f 42 24 49
f 48 28 27
f 48 27 43
f 48 43 50
f 51 22 21
f 51 21 52
f 52 21 20
f 52 20 53
f 54 55 56
f 58 2 1
f 58 1 59
f 60 3 2
f 60 2 58
f 59 1 30
f 59 30 44
f 45 44 30
f 45 30 29
f 45 29 47
f 57 4 3
f 57 3 60
f 61 6 5
f 61 5 62
f 63 64 65
f 67 7 6
f 67 6 61
f 50 43 68
f 50 68 69
f 70 13 12
f 70 12 71
f 72 14 13
f 72 13 70
f 71 12 11
f 71 11 40
f 35 8 7
f 35 7 67
f 62 5 4
f 62 4 57
f 69 68 73
f 69 73 74
f 66 38 15
f 66 15 14
f 66 14 72
f 75 19 18
f 75 18 33
f 53 76 77
f 49 24 23
f 49 23 78
f 78 23 22
f 78 22 51
f 76 53 20
f 76 20 19
f 76 19 75
f 79 80 37
f 79 37 36
f 74 73 80
f 74 80 79
f 64 63 81
f 45 47 54
f 45 54 46
f 57 60 58
f 57 58 59
f 57 59 44
f 57 44 46
f 57 46 56
f 71 40 39
f 71 39 34
f 71 34 35
f 71 35 37
f 71 37 70
f 80 73 68
f 80 68 43
f 80 43 41
f 80 41 42
f 80 42 37
f 62 57 55
f 62 55 61
f 78 51 52
f 78 52 49
f 33 64 81
f 33 81 77
f 33 77 76
f 33 76 75
f 79 36 35
f 79 35 67
f 79 67 61
f 79 61 54
f 74 79 54
f 74 54 47
f 74 47 48
f 74 48 50
f 74 50 69
f 81 63 65
f 81 65 66
f 81 66 72
f 81 72 70
f 81 70 37
f 81 37 42
f 81 42 49
f 81 49 52
f 81 52 53
f 81 53 77
f 64 33 31
f 64 31 32
f 64 32 38
f 64 38 65
