v 22.466641657 8.124485472 72.830000000
v 16.077641657 6.705485472 72.830000000
v 16.203641657 6.042485472 72.830000000
v 17.017641657 5.766485472 72.830000000
v 18.254641657 1.618485472 72.830000000
v 12.162641657 -1.021514527 72.830000000
v 11.187641657 5.063485472 72.830000000
v 11.452641657 5.520485472 72.830000000
v 12.525641657 6.113485472 72.830000000
v 11.823641657 6.159485472 72.830000000
v 12.486641657 7.300485472 72.830000000
v 11.438641657 7.655485473 72.830000000
v 13.113641657 8.381485472 72.830000000
v 13.316641657 8.731485472 72.830000000
v 13.599641657 9.218485472 72.830000000
v 11.396641657 15.189485473 72.830000000
v 15.782641657 16.801485472 72.830000000
v 19.817641657 18.285485473 72.830000000
v 22.428641657 11.203485472 72.830000000
v 21.643641657 10.966485472 72.830000000
v 11.396641657 15.189485473 79.025000000
v 13.599641657 9.218485472 79.082000000
v 13.209641657 6.068485472 76.980000000
v 13.209641657 6.068485472 76.701000000
v 12.525641657 6.113485472 76.708000000
v 12.525641657 6.113485472 76.950000000
v 15.782641657 16.801485472 84.884000000
v 13.644641657 8.611485472 78.877000000
v 13.644641657 8.611485472 76.690000000
v 15.254641657 9.309485472 76.672000000
v 15.254641657 9.309485472 79.478000000
v 15.254641657 9.309485472 81.073000000
v 15.233641657 8.032485472 76.676000000
v 15.233641657 8.032485472 79.465000000
v 15.868641657 7.801485472 76.670000000
v 15.868641657 7.801485472 79.459000000
v 18.041641657 10.517485472 79.475000000
v 18.041641657 10.517485472 84.875000000
v 11.452641657 5.520485472 76.893000000
v 11.187641657 5.063485472 76.874000000
v 13.113641657 8.381485472 76.696000000
v 11.438641657 7.655485473 76.715000000
v 13.316641657 8.731485472 76.693000000
v 19.817641657 18.285485473 79.543000000
v 21.357641657 11.954485472 79.471000000
v 21.357641657 11.954485472 80.395000000
v 21.643641657 10.966485472 80.475000000
v 21.643641657 10.966485472 79.460000000
v 22.428641657 11.203485472 79.458000000
v 18.254641657 1.618485472 77.141000000
v 17.017641657 5.766485472 77.146000000
v 16.077641657 6.705485472 77.118000000
v 16.077641657 6.705485472 76.671000000
v 16.203641657 6.042485472 77.114000000
v 11.823641657 6.159485472 76.715000000
v 12.486641657 7.300485472 76.705000000
v 13.316641657 8.731485472 78.541000000
v 22.466641657 8.124485472 79.427000000
v 16.077641657 6.705485472 79.447000000
v 12.162641657 -1.021514527 76.829000000
f 1 2 3
f 1 3 4
f 1 4 5
f 1 5 6
f 1 6 7
f 1 7 8
f 1 8 9
f 1 9 10
f 1 10 11
f 1 11 12
f 1 12 13
f 1 13 14
f 1 14 15
f 1 15 16
f 1 16 17
f 1 17 18
f 1 18 19
f 1 19 20
f 21 16 15
f 21 15 22
f 23 24 25
f 23 25 26
f 27 17 16
f 27 16 21
f 28 29 30
f 28 30 31
f 28 31 32
f 31 30 33
f 31 33 34
f 34 33 35
f 34 35 36
f 32 31 37
f 32 37 38
f 26 25 9
f 26 9 8
f 26 8 39
f 39 8 7
f 39 7 40
f 41 13 12
f 41 12 42
f 43 14 13
f 43 13 41
f 44 18 17
f 44 17 27
f 38 37 45
f 38 45 46
f 47 48 20
f 47 20 19
f 47 19 49
f 46 45 48
f 46 48 47
f 50 5 4
f 50 4 51
f 52 53 24
f 52 24 23
f 51 4 3
f 51 3 54
f 49 19 18
f 49 18 44
f 55 10 9
f 55 9 25
f 56 11 10
f 56 10 55
f 42 12 11
f 42 11 56
f 57 43 29
f 57 29 28
f 22 15 14
f 22 14 43
f 22 43 57
f 58 1 20
f 58 20 48
f 54 3 2
f 54 2 53
f 54 53 52
f 36 35 53
f 36 53 52
f 36 52 59
f 40 7 6
f 40 6 60
f 60 6 5
f 60 5 50
f 59 52 53
f 59 53 2
f 59 2 1
f 59 1 58
f 49 44 27
f 49 27 38
f 49 38 46
f 49 46 47
f 22 57 28
f 22 28 32
f 22 32 38
f 22 38 27
f 22 27 21
f 53 35 33
f 53 33 30
f 53 30 29
f 53 29 43
f 53 43 41
f 53 41 42
f 53 42 56
f 53 56 55
f 53 55 25
f 53 25 24
f 60 50 51
f 60 51 54
f 60 54 52
f 60 52 23
f 60 23 26
f 60 26 39
f 60 39 40
f 59 58 48
f 59 48 45
f 59 45 37
f 59 37 31
f 59 31 34
f 59 34 36
