v 31.952192962 31.897961332 2.970000000
v 32.705192962 31.811961332 2.970000000
v 32.794192962 31.801961333 2.970000000
v 35.565192962 31.486961333 2.970000000
v 35.271192962 31.149961333 2.970000000
v 36.828192962 30.087961333 2.970000000
v 32.854192962 25.693961333 2.970000000
v 32.791192962 25.746961333 2.970000000
v 27.830192962 29.930961332 2.970000000
v 29.163192962 31.539961332 2.970000000
v 30.752192962 33.456961333 2.970000000
v 31.576192962 33.424961332 2.970000000
v 32.953192962 26.416961333 6.273000000
v 32.953192962 26.416961333 6.150000000
v 32.928192962 26.970961332 6.526000000
v 32.928192962 26.970961332 6.624000000
v 31.952192962 31.897961332 5.618000000
v 31.576192962 33.424961332 4.789000000
v 30.752192962 33.456961333 5.242000000
v 32.853192962 28.383961333 7.491000000
v 32.853192962 28.383961333 7.505000000
v 32.853192962 28.383961333 7.514000000
v 32.851192962 27.125961333 6.682000000
v 32.854192962 25.693961333 5.758000000
v 36.828192962 30.087961333 5.675000000
v 32.794192962 31.801961333 5.308000000
v 32.794192962 31.801961333 5.198000000
v 32.825192962 29.238961332 6.935000000
v 35.565192962 31.486961333 7.501000000
v 32.705192962 31.811961332 5.242000000
v 35.271192962 31.149961333 7.500000000
v 29.163192962 31.539961332 7.472000000
v 27.830192962 29.930961332 5.643000000
v 32.791192962 25.746961333 5.738000000
v 32.865192962 26.049961332 5.979000000
v 32.791192962 25.746961333 5.838000000
v 38.494192962 5.382961333 2.970000000
v 39.030192962 5.460961333 2.970000000
v 39.921192962 5.937961332 2.970000000
v 38.061192962 7.516961332 2.970000000
v 38.166192962 7.631961333 2.970000000
v 39.933192962 7.585961333 2.970000000
v 28.873192962 17.018961333 2.970000000
v 29.459192962 17.679961333 2.970000000
v 33.356192962 22.073961332 2.970000000
v 34.241192962 23.071961333 2.970000000
v 34.275192962 22.717961333 2.970000000
v 49.461192962 40.634961332 2.970000000
v 49.671192962 40.428961333 2.970000000
v 68.681192962 21.810961332 2.970000000
v 68.384192962 21.464961332 2.970000000
v 65.221192962 17.786961333 2.970000000
v 63.423192962 18.805961332 2.970000000
v 61.448192962 18.385961332 2.970000000
v 58.606192962 15.057961333 2.970000000
v 58.039192962 9.132961333 2.970000000
v 54.528192962 5.302961333 2.970000000
v 54.402192962 4.981961332 2.970000000
v 54.198192962 4.465961332 2.970000000
v 54.054192962 4.309961333 2.970000000
v 50.232192962 0.166961333 2.970000000
v 49.528192962 -0.596038667 2.970000000
v 44.857192962 3.386961333 2.970000000
v 44.684192962 3.373961332 2.970000000
v 43.107192962 1.645961333 2.970000000
v 42.857192962 1.371961333 2.970000000
v 40.983192962 3.094961332 2.970000000
v 40.714192962 3.074961333 2.970000000
v 40.659192962 3.392961333 2.970000000
v 38.934192962 19.248961332 2.970000000
v 40.472192962 17.790961333 2.970000000
v 49.696192962 9.049961332 2.970000000
v 55.158192962 12.037961333 2.970000000
v 55.734192962 12.958961332 2.970000000
v 53.312192962 14.439961333 2.970000000
v 54.063192962 15.373961332 2.970000000
v 54.128192962 15.662961333 2.970000000
v 54.234192962 15.585961333 2.970000000
v 58.614192962 21.027961332 2.970000000
v 59.296192962 21.875961333 2.970000000
v 50.123192962 30.856961332 2.970000000
v 49.786192962 30.458961332 2.970000000
v 46.261192962 26.293961332 2.970000000
v 45.399192962 25.274961333 2.970000000
v 44.552192962 24.272961332 2.970000000
v 44.353192962 25.769961333 2.970000000
v 44.283192962 25.803961333 2.970000000
v 59.296192962 21.875961333 6.615000000
v 58.614192962 21.027961332 5.496000000
v 58.614192962 21.027961332 5.964000000
v 45.399192962 25.274961333 7.435000000
v 45.399192962 25.274961333 5.988000000
v 46.261192962 26.293961332 5.981000000
v 46.261192962 26.293961332 7.415000000
v 43.853192962 12.955961333 9.057000000
v 43.853192962 12.955961333 7.433000000
v 43.192192962 13.312961332 7.617000000
v 43.192192962 13.312961332 10.069000000
v 48.357192962 4.493961332 9.814000000
v 48.357192962 4.493961332 10.039000000
v 48.479192962 4.263961333 9.705000000
v 46.953192962 2.932961333 10.057000000
v 46.953192962 2.932961333 7.407000000
v 47.930192962 1.960961333 7.293000000
v 47.930192962 1.960961333 8.173000000
v 42.152192962 12.109961333 10.101000000
v 42.152192962 12.109961333 9.413000000
v 42.726192962 11.818961333 9.238000000
v 68.384192962 21.464961332 6.038000000
v 68.384192962 21.464961332 6.152000000
v 64.955192962 21.311961332 8.727000000
v 49.671192962 40.428961333 5.695000000
v 49.461192962 40.634961332 5.384000000
v 50.311192962 5.604961333 9.684000000
v 50.311192962 5.604961333 9.729000000
v 56.359192962 12.575961333 9.614000000
v 43.777192962 28.424961332 9.579000000
v 43.777192962 28.424961332 9.568000000
v 42.960192962 27.485961333 9.593000000
v 42.960192962 27.485961333 9.608000000
v 34.986192962 18.312961332 9.839000000
v 34.986192962 18.312961332 9.409000000
v 34.858192962 18.164961332 9.630000000
v 34.858192962 18.164961332 9.843000000
v 34.833192962 18.294961332 9.732000000
v 34.833192962 18.294961332 9.537000000
v 39.921192962 5.937961332 7.527000000
v 39.921192962 5.937961332 7.116000000
v 39.030192962 5.460961333 6.748000000
v 40.983192962 3.094961332 6.307000000
v 42.857192962 1.371961333 6.229000000
v 43.107192962 1.645961333 6.536000000
v 40.193192962 6.083961332 7.228000000
v 49.786192962 30.458961332 5.950000000
v 50.123192962 30.856961332 6.487000000
v 63.888192962 21.248961332 9.553000000
v 63.888192962 21.248961332 9.539000000
v 63.888192962 21.248961332 9.530000000
v 61.448192962 18.385961332 9.594000000
v 63.888192962 21.248961332 9.509000000
v 60.095192962 21.093961333 6.626000000
v 49.761192962 35.241961333 9.431000000
v 55.734192962 12.958961332 9.110000000
v 55.734192962 12.958961332 8.850000000
v 56.281192962 12.623961332 9.519000000
v 56.359192962 12.575961333 9.577000000
v 56.405192962 14.032961332 8.984000000
v 56.405192962 14.032961332 8.632000000
v 54.234192962 15.585961333 5.822000000
v 54.234192962 15.585961333 7.266000000
v 56.302192962 13.866961333 9.003000000
v 56.302192962 13.866961333 8.666000000
v 57.080192962 13.410961333 9.577000000
v 57.080192962 13.410961333 9.603000000
v 57.024192962 13.443961333 9.535000000
v 49.696192962 9.049961332 6.786000000
v 49.696192962 9.049961332 6.453000000
v 49.490192962 8.937961332 6.701000000
v 50.004192962 5.818961333 8.985000000
v 50.004192962 5.818961333 9.290000000
v 49.793192962 5.939961333 9.038000000
v 49.992192962 5.652961332 9.137000000
v 49.992192962 5.652961332 9.397000000
v 55.158192962 12.037961333 9.036000000
v 40.659192962 3.392961333 6.321000000
v 40.714192962 3.074961333 6.150000000
v 45.844192962 3.461961333 7.038000000
v 45.844192962 3.461961333 8.394000000
v 46.846192962 4.369961333 8.576000000
v 44.857192962 3.386961333 6.235000000
v 49.528192962 -0.596038667 6.265000000
v 39.933192962 7.585961333 6.204000000
v 38.166192962 7.631961333 4.922000000
v 33.873192962 17.137961333 9.993000000
v 33.873192962 17.137961333 9.975000000
v 31.383192962 16.803961333 7.823000000
v 39.734192962 8.737961332 9.496000000
v 39.734192962 8.737961332 7.057000000
v 41.172192962 8.897961332 8.270000000
v 38.494192962 5.382961333 6.411000000
v 48.449192962 2.923961333 8.518000000
v 34.275192962 22.717961333 6.170000000
v 39.645192962 9.250961333 10.023000000
v 39.645192962 9.250961333 7.436000000
v 39.729192962 9.341961333 10.023000000
v 39.729192962 9.341961333 7.577000000
v 46.381192962 3.501961333 7.474000000
v 46.381192962 3.501961333 8.916000000
v 44.353192962 25.769961333 7.216000000
v 44.552192962 24.272961332 5.995000000
v 44.784192962 25.565961333 7.873000000
v 44.784192962 25.565961333 6.710000000
v 54.402192962 4.981961332 6.451000000
v 54.402192962 4.981961332 5.894000000
v 52.707192962 5.239961333 7.483000000
v 41.858192962 14.033961332 7.986000000
v 40.472192962 17.790961333 5.801000000
v 68.681192962 21.810961332 5.686000000
v 44.684192962 3.373961332 6.362000000
v 43.506192962 11.959961332 8.541000000
v 48.297192962 4.607961332 9.868000000
v 34.241192962 23.071961333 5.893000000
v 45.451192962 27.233961333 8.223000000
v 45.451192962 27.233961333 7.323000000
v 45.152192962 26.866961333 8.224000000
v 45.152192962 26.866961333 7.317000000
v 54.063192962 15.373961332 7.272000000
v 53.312192962 14.439961333 7.299000000
v 54.128192962 15.662961333 7.181000000
v 50.311192962 5.604961333 8.942000000
v 50.282192962 5.097961333 9.397000000
v 50.232192962 0.166961333 7.455000000
v 28.873192962 17.018961333 6.134000000
v 38.061192962 7.516961332 4.912000000
v 40.795192962 10.508961333 9.388000000
v 40.795192962 10.508961333 10.018000000
v 41.170192962 9.360961333 8.671000000
v 39.439192962 10.661961333 8.508000000
v 40.685192962 10.843961333 9.597000000
v 33.873192962 17.137961333 10.017000000
v 33.893192962 17.067961332 9.929000000
v 32.408192962 15.481961332 10.027000000
v 65.221192962 17.786961333 6.115000000
v 54.054192962 4.309961333 7.282000000
v 54.528192962 5.302961333 6.015000000
v 58.039192962 9.132961333 5.796000000
v 33.763192962 13.733961333 6.935000000
v 54.198192962 4.465961332 7.043000000
v 63.423192962 18.805961332 8.272000000
v 38.934192962 19.248961332 7.180000000
v 44.283192962 25.803961333 7.298000000
v 58.606192962 15.057961333 9.495000000
v 33.356192962 22.073961332 7.400000000
v 29.459192962 17.679961333 7.147000000
v 29.459192962 17.679961333 7.028000000
v 29.849192962 17.724961333 7.477000000
v 34.570192962 19.686961332 8.542000000
v 58.606192962 15.057961333 9.663000000
v 58.533192962 15.092961333 9.581000000
v 34.883192962 18.029961333 9.727000000
v 41.778192962 12.300961332 9.527000000
v 49.701192962 35.238961332 9.385000000
v 43.085192962 3.253961333 7.537000000
v 50.268192962 3.728961333 10.577000000
v 33.029192962 18.597961333 10.613000000
v 38.110192962 18.239961333 7.162000000
v 18.136192962 11.136961333 2.970000000
v 17.128192962 11.954961332 2.970000000
v 18.077192962 13.362961332 2.970000000
v 19.264192962 12.203961332 2.970000000
v 19.264192962 12.203961332 5.356000000
v 18.077192962 13.362961332 6.012000000
v 17.128192962 11.954961332 5.905000000
v 18.136192962 11.136961333 5.393000000
v 15.385192962 13.371961333 2.970000000
v 16.688192962 14.718961333 2.970000000
v 18.001192962 13.436961332 2.970000000
v 16.824192962 12.202961332 2.970000000
v 16.688192962 14.718961333 5.126000000
v 15.385192962 13.371961333 5.125000000
v 18.001192962 13.436961332 6.054000000
v 16.824192962 12.202961332 6.060000000
v 22.501192962 18.832961333 2.970000000
v 19.678192962 15.222961333 2.970000000
v 17.647192962 17.012961333 2.970000000
v 20.576192962 20.273961333 2.970000000
v 22.501192962 18.832961333 5.963000000
v 20.576192962 20.273961333 5.341000000
v 17.647192962 17.012961333 5.370000000
v 19.678192962 15.222961333 6.074000000
f 37 38 39
f 37 39 40
f 37 40 41
f 37 41 42
f 37 42 43
f 37 43 44
f 37 44 45
f 37 45 46
f 37 46 47
f 37 47 48
f 37 48 49
f 37 49 50
f 37 50 51
f 37 51 52
f 37 52 53
f 37 53 54
f 37 54 55
f 37 55 56
f 37 56 57
f 37 57 58
f 37 58 59
f 37 59 60
f 37 60 61
f 37 61 62
f 37 62 63
f 37 63 64
f 37 64 65
f 37 65 66
f 37 66 67
f 37 67 68
f 37 68 69
f 70 71 72
f 70 72 73
f 70 73 74
f 70 74 75
f 70 75 76
f 70 76 77
f 70 77 78
f 70 78 79
f 70 79 80
f 70 80 81
f 70 81 82
f 70 82 83
f 70 83 84
f 70 84 85
f 70 85 86
f 70 86 87
f 88 80 79
f 88 79 89
f 88 89 90
f 91 92 84
f 91 84 83
f 91 83 93
f 91 93 94
f 95 96 97
f 95 97 98
f 99 100 101
f 102 103 104
f 102 104 105
f 112 49 48
f 112 48 113
f 117 118 119
f 117 119 120
f 121 122 123
f 121 123 124
f 125 126 122
f 125 122 121
f 127 128 39
f 127 39 38
f 127 38 129
f 130 67 66
f 130 66 131
f 131 66 65
f 131 65 132
f 128 127 133
f 134 82 81
f 134 81 135
f 135 81 80
f 135 80 88
f 136 137 138
f 140 138 137
f 143 144 145
f 116 146 145
f 147 148 149
f 147 149 150
f 151 152 148
f 151 148 147
f 153 154 155
f 152 151 155
f 156 157 158
f 159 160 161
f 160 159 162
f 160 162 163
f 144 74 73
f 144 73 164
f 165 69 68
f 165 68 166
f 166 68 67
f 166 67 130
f 167 168 169
f 170 63 62
f 170 62 171
f 172 42 41
f 172 41 173
f 177 178 179
f 180 37 69
f 180 69 165
f 105 104 181
f 113 48 47
f 113 47 182
f 183 184 178
f 183 178 177
f 185 186 184
f 185 184 183
f 168 167 187
f 168 187 188
f 188 187 103
f 188 103 102
f 189 86 85
f 189 85 190
f 190 85 84
f 190 84 92
f 191 192 92
f 191 92 91
f 193 194 195
f 98 97 196
f 157 72 71
f 157 71 197
f 198 50 49
f 198 49 112
f 132 65 64
f 132 64 199
f 96 95 200
f 100 99 201
f 182 47 46
f 182 46 202
f 93 83 82
f 93 82 134
f 203 204 118
f 203 118 117
f 205 206 204
f 205 204 203
f 94 93 206
f 94 206 205
f 207 76 75
f 207 75 208
f 208 75 74
f 208 74 144
f 208 144 143
f 209 77 76
f 209 76 207
f 150 149 78
f 150 78 77
f 150 77 209
f 89 79 78
f 89 78 149
f 115 114 210
f 163 162 210
f 163 210 114
f 171 62 61
f 171 61 212
f 164 73 72
f 164 72 157
f 164 157 156
f 129 38 37
f 129 37 180
f 213 43 42
f 213 42 172
f 173 41 40
f 173 40 214
f 214 40 39
f 214 39 128
f 186 185 218
f 175 174 220
f 175 220 221
f 223 52 51
f 223 51 109
f 212 61 60
f 212 60 224
f 194 58 57
f 194 57 225
f 225 57 56
f 225 56 226
f 154 153 146
f 154 146 116
f 224 60 59
f 224 59 228
f 110 109 51
f 110 51 50
f 110 50 198
f 229 53 52
f 229 52 223
f 139 54 53
f 139 53 229
f 90 89 141
f 230 70 87
f 230 87 231
f 226 56 55
f 226 55 232
f 202 46 45
f 202 45 233
f 234 235 44
f 234 44 43
f 234 43 213
f 235 234 236
f 233 45 44
f 233 44 235
f 126 125 237
f 228 59 58
f 228 58 194
f 228 194 193
f 232 238 239
f 238 232 55
f 238 55 54
f 238 54 139
f 120 119 192
f 120 192 191
f 231 87 86
f 231 86 189
f 199 64 63
f 199 63 170
f 124 123 240
f 197 71 70
f 197 70 230
f 242 134 135
f 242 135 88
f 242 88 141
f 242 141 140
f 242 140 142
f 200 95 98
f 200 98 106
f 200 106 108
f 181 101 100
f 181 100 102
f 181 102 105
f 206 93 134
f 206 134 242
f 206 242 118
f 206 118 204
f 129 180 165
f 129 165 166
f 129 166 130
f 129 130 131
f 129 131 132
f 129 132 243
f 129 243 127
f 214 128 133
f 214 133 172
f 214 172 173
f 216 185 183
f 216 183 177
f 216 177 179
f 216 179 217
f 219 218 185
f 219 185 216
f 212 224 244
f 146 153 155
f 146 155 151
f 146 151 147
f 146 147 150
f 146 150 209
f 146 209 207
f 146 207 208
f 146 208 143
f 146 143 145
f 227 221 220
f 227 220 222
f 110 198 112
f 110 112 142
f 110 142 137
f 110 137 111
f 139 229 223
f 139 223 109
f 139 109 111
f 139 111 136
f 90 141 88
f 176 222 174
f 233 235 236
f 233 236 245
f 237 125 121
f 237 121 119
f 237 119 118
f 237 118 242
f 237 242 142
f 237 142 112
f 237 112 113
f 237 113 182
f 201 169 168
f 201 168 188
f 201 188 102
f 201 102 100
f 197 246 240
f 197 240 123
f 197 123 122
f 197 122 126
f 197 126 237
f 197 237 182
f 197 182 202
f 197 202 233
f 197 233 245
f 197 245 244
f 197 244 224
f 197 224 228
f 197 228 193
f 197 193 195
f 197 195 211
f 197 211 210
f 197 210 162
f 197 162 159
f 197 159 161
f 197 161 158
f 197 158 157
f 96 200 108
f 96 108 107
f 96 107 241
f 96 241 196
f 96 196 97
f 232 239 154
f 232 154 116
f 232 116 115
f 232 115 211
f 232 211 195
f 232 195 194
f 232 194 225
f 232 225 226
f 238 139 138
f 238 138 141
f 238 141 89
f 238 89 149
f 238 149 148
f 238 148 152
f 238 152 155
f 238 155 154
f 238 154 239
f 120 191 91
f 120 91 94
f 120 94 205
f 120 205 203
f 120 203 117
f 243 199 170
f 243 170 172
f 243 172 133
f 243 133 127
f 172 170 171
f 172 171 212
f 172 212 244
f 172 244 245
f 172 245 236
f 172 236 234
f 172 234 213
f 99 101 181
f 99 181 104
f 99 104 103
f 99 103 187
f 99 187 167
f 99 167 169
f 99 169 201
f 176 175 221
f 176 221 227
f 218 219 215
f 218 215 217
f 218 217 179
f 218 179 178
f 218 178 184
f 218 184 186
f 199 243 132
f 241 106 98
f 241 98 196
f 158 161 160
f 158 160 163
f 158 163 114
f 158 114 116
f 158 116 145
f 158 145 144
f 158 144 164
f 158 164 156
f 230 246 197
f 246 230 231
f 246 231 189
f 246 189 190
f 246 190 92
f 246 92 192
f 246 192 119
f 246 119 121
f 246 121 124
f 246 124 240
f 247 248 249
f 247 249 250
f 251 250 249
f 251 249 252
f 252 249 248
f 252 248 253
f 254 247 250
f 254 250 251
f 253 248 247
f 253 247 254
f 253 254 251
f 253 251 252
f 255 256 257
f 255 257 258
f 259 256 255
f 259 255 260
f 261 257 256
f 261 256 259
f 262 258 257
f 262 257 261
f 260 255 258
f 260 258 262
f 260 262 261
f 260 261 259
f 1 2 3
f 1 3 4
f 1 4 5
f 1 5 6
f 1 6 7
f 1 7 8
f 1 8 9
f 1 9 10
f 1 10 11
f 1 11 12
f 17 1 12
f 17 12 18
f 18 12 11
f 18 11 19
f 20 21 22
f 24 7 6
f 24 6 25
f 26 27 28
f 29 4 3
f 29 3 27
f 29 27 26
f 27 3 2
f 27 2 30
f 31 5 4
f 31 4 29
f 25 6 5
f 25 5 31
f 19 11 10
f 19 10 32
f 32 10 9
f 32 9 33
f 33 9 8
f 33 8 34
f 34 36 35
f 36 34 8
f 36 8 7
f 36 7 24
f 30 2 1
f 30 1 17
f 20 31 29
f 20 29 26
f 20 26 28
f 34 35 13
f 34 13 16
f 34 16 23
f 34 23 22
f 34 22 32
f 34 32 33
f 36 24 25
f 36 25 31
f 36 31 20
f 36 20 23
f 36 23 15
f 36 15 14
f 36 14 35
f 30 17 18
f 30 18 19
f 30 19 32
f 30 32 21
f 30 21 28
f 30 28 27
f 263 264 265
f 263 265 266
f 267 263 266
f 267 266 268
f 268 266 265
f 268 265 269
f 269 265 264
f 269 264 270
f 270 264 263
f 270 263 267
f 270 267 268
f 270 268 269
