v -13.913992694 -13.071417491 50.939000000
v -13.821992694 -13.295417491 50.939000000
v -13.588992694 -13.468417491 50.939000000
v -13.494992694 -13.492417491 50.939000000
v -13.347992694 -13.493417491 50.939000000
v 20.604007306 -8.563417491 50.939000000
v 12.850007306 -9.689417491 50.939000000
v 12.217007306 -4.454417491 50.939000000
v 19.346007306 -3.838417491 50.939000000
v 12.850007306 -9.689417491 53.331000000
v 20.604007306 -8.563417491 53.475000000
v 19.346007306 -3.838417491 53.513000000
v 12.217007306 -4.454417491 53.386000000
v 16.039007306 4.012582509 50.939000000
v 16.071007306 3.533582509 50.939000000
v -4.346992694 0.677582509 50.939000000
v -4.172992694 0.910582509 50.939000000
v -5.231992694 9.228582509 50.939000000
v -5.699992694 9.573582509 50.939000000
v 15.178007306 12.652582509 50.939000000
v 15.449007306 12.692582509 50.939000000
v -4.172992694 0.910582509 53.862000000
v -4.346992694 0.677582509 53.766000000
v 16.071007306 3.533582509 53.710000000
v 16.039007306 4.012582509 53.934000000
v -5.699992694 9.573582509 53.761000000
v -5.231992694 9.228582509 53.951000000
v 15.178007306 12.652582509 53.770000000
v 15.449007306 12.692582509 53.646000000
v 11.218007306 7.488582509 55.867000000
v -0.536992694 5.759582509 55.860000000
v -13.092992694 -9.735417491 50.939000000
v -10.694992694 -9.635417491 50.939000000
v -10.505992694 -13.080417491 50.939000000
v -14.032992694 -12.257417491 50.939000000
v -12.583992694 -12.108417490 50.939000000
v -13.913992694 -13.071417491 52.986000000
v -13.821992694 -13.295417491 52.981000000
v -14.032992694 -12.257417491 53.008000000
v -13.588992694 -13.468417491 52.981000000
v -13.494992694 -13.492417491 52.982000000
v -13.347992694 -13.493417491 52.986000000
v -10.505992694 -13.080417491 53.063000000
v -12.583992694 -12.108417490 53.045000000
v -10.694992694 -9.635417491 53.164000000
v -13.092992694 -9.735417491 53.106000000
f 14 15 16
f 14 16 17
f 14 17 18
f 14 18 19
f 14 19 20
f 14 20 21
f 22 17 16
f 22 16 23
f 24 15 14
f 24 14 25
f 26 19 18
f 26 18 27
f 28 20 19
f 28 19 26
f 29 21 20
f 29 20 28
f 25 14 21
f 25 21 29
f 27 18 17
f 27 17 22
f 23 16 15
f 23 15 24
f 25 29 28
f 25 28 30
f 31 27 22
f 27 31 30
f 27 30 28
f 27 28 26
f 23 24 25
f 23 25 30
f 23 30 31
f 23 31 22
f 6 7 8
f 6 8 9
f 10 7 6
f 10 6 11
f 11 6 9
f 11 9 12
f 13 8 7
f 13 7 10
f 12 9 8
f 12 8 13
f 12 13 10
f 12 10 11
f 32 33 34
f 32 34 5
f 32 5 4
f 32 4 3
f 32 3 2
f 32 2 1
f 32 1 35
f 32 35 36
f 37 1 2
f 37 2 38
f 39 35 1
f 39 1 37
f 40 3 4
f 40 4 41
f 38 2 3
f 38 3 40
f 42 5 34
f 42 34 43
f 44 36 35
f 44 35 39
f 41 4 5
f 41 5 42
f 43 34 33
f 43 33 45
f 46 32 36
f 46 36 44
f 45 33 32
f 45 32 46
f 45 46 44
f 45 44 39
f 45 39 37
f 45 37 38
f 45 38 40
f 45 40 41
f 45 41 42
f 45 42 43
