v -3.933729599 40.454508229 44.950000000
v -2.639729599 42.979508229 44.950000000
v 4.785270401 41.580508229 44.950000000
v 5.189270401 44.907508229 44.950000000
v 8.906270401 44.539508229 44.950000000
v 11.965270401 44.236508229 44.950000000
v 10.791270401 31.798508229 44.950000000
v 14.363270401 31.570508229 44.950000000
v 13.736270401 23.615508229 44.950000000
v 10.032270401 23.758508229 44.950000000
v 9.904270401 22.408508229 44.950000000
v 3.488270401 22.989508229 44.950000000
v 4.540270401 27.136508229 44.950000000
v 3.813270401 27.102508229 44.950000000
v 3.834270401 27.849508229 44.950000000
v 3.841270401 27.907508229 44.950000000
v 4.056270401 34.168508229 44.950000000
v -4.176729599 34.877508229 44.950000000
v -4.004729599 38.836508229 44.950000000
v -2.639729599 42.979508229 46.757000000
v -3.933729599 40.454508229 49.614000000
v 4.785270401 41.580508229 47.483000000
v 4.785270401 41.580508229 47.207000000
v 4.056270401 34.168508229 47.194000000
v 3.841270401 27.907508229 47.666000000
v -4.176729599 34.877508229 47.151000000
v 3.834270401 27.849508229 47.664000000
v 5.189270401 44.907508229 47.306000000
v 5.029270401 41.534508229 47.507000000
v 8.906270401 44.539508229 51.821000000
v 11.965270401 44.236508229 48.120000000
v 3.488270401 22.989508229 47.487000000
v 9.904270401 22.408508229 47.485000000
v 10.032270401 23.758508229 47.534000000
v 10.032270401 23.758508229 48.033000000
v 13.736270401 23.615508229 47.248000000
v 4.540270401 27.136508229 48.597000000
v 4.540270401 27.136508229 47.640000000
v 7.221270401 27.239508229 47.652000000
v 7.221270401 27.239508229 51.810000000
v 10.303270401 26.635508229 47.639000000
v 10.303270401 26.635508229 48.045000000
v -4.004729599 38.836508229 51.365000000
v 3.813270401 27.102508229 47.727000000
v 14.363270401 31.570508229 47.308000000
v 10.791270401 31.798508229 48.067000000
v 7.831270401 37.718508229 51.323000000
v -10.911729599 -4.917491771 44.950000000
v -8.996729599 10.958508229 44.950000000
v -4.500729599 10.446508229 44.950000000
v -6.451729599 -5.623491771 44.950000000
v -8.996729599 10.958508229 48.556000000
v -10.911729599 -4.917491771 48.580000000
v -4.500729599 10.446508229 49.369000000
v -6.451729599 -5.623491771 49.390000000
v 9.044270401 -3.652491771 44.950000000
v 7.719270401 -13.347491771 44.950000000
v 5.196270401 -13.162491771 44.950000000
v 2.345270401 -12.952491771 44.950000000
v 3.539270401 -3.007491771 44.950000000
v 6.150270401 -3.397491771 44.950000000
v 8.550270401 -3.755491771 44.950000000
v 5.196270401 -13.162491771 50.733000000
v 7.719270401 -13.347491771 50.069000000
v 2.345270401 -12.952491771 50.024000000
v 3.539270401 -3.007491771 50.074000000
v 6.150270401 -3.397491771 50.727000000
v 8.550270401 -3.755491771 50.092000000
v 9.044270401 -3.652491771 49.965000000
f 1 2 3
f 1 3 4
f 1 4 5
f 1 5 6
f 1 6 7
f 1 7 8
f 1 8 9
f 1 9 10
f 1 10 11
f 1 11 12
f 1 12 13
f 1 13 14
f 1 14 15
f 1 15 16
f 1 16 17
f 1 17 18
f 1 18 19
f 20 2 1
f 20 1 21
f 22 23 3
f 22 3 2
f 22 2 20
f 24 17 16
f 24 16 25
f 26 18 17
f 26 17 24
f 25 16 15
f 25 15 27
f 28 4 3
f 28 3 23
f 23 22 29
f 30 5 4
f 30 4 28
f 31 6 5
f 31 5 30
f 32 12 11
f 32 11 33
f 33 11 10
f 33 10 34
f 35 34 10
f 35 10 9
f 35 9 36
f 37 38 39
f 37 39 40
f 40 39 41
f 40 41 42
f 42 41 34
f 42 34 35
f 43 19 18
f 43 18 26
f 27 15 14
f 27 14 44
f 38 13 12
f 38 12 32
f 44 14 13
f 44 13 38
f 44 38 37
f 36 9 8
f 36 8 45
f 46 7 6
f 46 6 31
f 21 1 19
f 21 19 43
f 45 8 7
f 45 7 46
f 43 26 24
f 43 24 47
f 38 32 33
f 38 33 34
f 38 34 41
f 38 41 39
f 44 37 40
f 44 40 30
f 44 30 28
f 44 28 23
f 44 23 29
f 44 29 47
f 44 47 24
f 44 24 25
f 44 25 27
f 46 31 30
f 46 30 40
f 46 40 42
f 21 43 47
f 21 47 29
f 21 29 22
f 21 22 20
f 45 46 42
f 45 42 35
f 45 35 36
f 56 57 58
f 56 58 59
f 56 59 60
f 56 60 61
f 56 61 62
f 63 58 57
f 63 57 64
f 65 59 58
f 65 58 63
f 66 60 59
f 66 59 65
f 67 61 60
f 67 60 66
f 68 62 61
f 68 61 67
f 69 56 62
f 69 62 68
f 64 57 56
f 64 56 69
f 63 67 66
f 63 66 65
f 64 69 68
f 64 68 67
f 64 67 63
f 48 49 50
f 48 50 51
f 52 49 48
f 52 48 53
f 54 50 49
f 54 49 52
f 53 48 51
f 53 51 55
f 55 51 50
f 55 50 54
f 55 54 52
f 55 52 53
