v 18.441536361 1.999231532 95.480000000
v 18.570536361 2.146231533 95.480000000
v 18.611536361 2.236231533 95.480000000
v 18.631536361 2.479231533 95.480000000
v 18.605536361 2.574231532 95.480000000
v 18.533536361 2.703231532 95.480000000
v 11.421536361 9.529231532 95.480000000
v 12.509536361 10.490231533 95.480000000
v 15.469536361 6.664231532 95.480000000
v 9.628536361 -4.718768467 95.480000000
v 6.457536361 -0.299768467 95.480000000
v 4.065536361 3.033231532 95.480000000
v 8.228536361 6.710231532 95.480000000
v 4.583536361 11.543231533 95.480000000
v 7.996536361 14.122231533 95.480000000
v 18.570536361 2.146231533 97.400000000
v 18.611536361 2.236231533 97.444000000
v 18.441536361 1.999231532 97.366000000
v 18.605536361 2.574231532 97.701000000
v 18.533536361 2.703231532 97.839000000
v 18.631536361 2.479231533 97.615000000
v 15.469536361 6.664231532 102.600000000
v 12.509536361 10.490231533 97.975000000
v 6.457536361 -0.299768467 102.643000000
v 9.628536361 -4.718768467 97.478000000
v 4.065536361 3.033231532 98.722000000
v 8.228536361 6.710231532 98.354000000
v 4.583536361 11.543231533 98.293000000
v 11.421536361 9.529231532 98.071000000
v 7.996536361 14.122231533 98.012000000
f 7 8 9
f 7 9 6
f 7 6 5
f 7 5 4
f 7 4 3
f 7 3 2
f 7 2 1
f 7 1 10
f 7 10 11
f 7 11 12
f 7 12 13
f 7 13 14
f 7 14 15
f 16 2 3
f 16 3 17
f 18 1 2
f 18 2 16
f 19 5 6
f 19 6 20
f 17 3 4
f 17 4 21
f 21 4 5
f 21 5 19
f 20 6 9
f 20 9 22
f 22 9 8
f 22 8 23
f 24 11 10
f 24 10 25
f 25 10 1
f 25 1 18
f 26 12 11
f 26 11 24
f 27 13 12
f 27 12 26
f 28 14 13
f 28 13 27
f 29 7 15
f 29 15 30
f 23 8 7
f 23 7 29
f 30 15 14
f 30 14 28
f 25 18 16
f 25 16 17
f 25 17 21
f 25 21 19
f 25 19 20
f 25 20 22
f 25 22 24
f 23 29 27
f 23 27 26
f 23 26 24
f 23 24 22
f 30 28 27
f 30 27 29
