v 10.418119095 -18.231122456 12.199000000
v 10.468119095 -18.239122455 12.199000000
v 10.518119095 -18.242122456 12.199000000
v 10.569119095 -18.241122455 12.199000000
v 10.619119095 -18.234122455 12.199000000
v 10.668119095 -18.222122455 12.199000000
v 10.716119095 -18.205122455 12.199000000
v 10.762119095 -18.183122455 12.199000000
v 10.805119095 -18.157122456 12.199000000
v 10.846119095 -18.126122455 12.199000000
v 10.883119095 -18.092122455 12.199000000
v 10.917119095 -18.054122455 12.199000000
v 10.946119095 -18.013122455 12.199000000
v 10.971119095 -17.969122455 12.199000000
v 10.992119095 -17.923122455 12.199000000
v 19.635119095 3.693877544 12.199000000
v 19.628119095 3.838877545 12.199000000
v 19.579119095 3.975877545 12.199000000
v 19.525119095 4.056877545 12.199000000
v 19.457119095 4.125877544 12.199000000
v 19.332119095 4.201877545 12.199000000
v 9.407119095 -2.174122456 12.199000000
v 9.441119095 -2.053122455 12.199000000
v 10.387119095 -2.113122456 12.199000000
v 12.534119095 7.074877544 12.199000000
v 15.151119095 -7.342122455 12.199000000
v 8.559119095 -5.212122455 12.199000000
v 7.356119095 -9.525122455 12.199000000
v 13.855119095 -10.519122455 12.199000000
v 12.185119095 -14.836122455 12.199000000
v 4.314119095 -16.886122456 12.199000000
v 5.136119095 -13.453122456 12.199000000
v 2.454119095 -12.927122455 12.199000000
v -1.485880905 -12.153122456 12.199000000
v 1.689119095 -0.270122455 12.199000000
v 5.424119095 -1.191122456 12.199000000
v 9.105119095 -2.100122456 12.199000000
v 9.311119095 -14.272122456 12.199000000
v 9.218119095 -14.502122455 12.199000000
v 9.372119095 -14.284122455 12.199000000
v 10.468119095 -18.239122455 16.863000000
v 10.518119095 -18.242122456 16.861000000
v 10.418119095 -18.231122456 16.865000000
v 10.569119095 -18.241122455 16.859000000
v 10.619119095 -18.234122455 16.857000000
v 10.668119095 -18.222122455 16.855000000
v 10.716119095 -18.205122455 16.853000000
v 10.762119095 -18.183122455 16.851000000
v 10.805119095 -18.157122456 16.850000000
v 10.883119095 -18.092122455 16.847000000
v 10.917119095 -18.054122455 16.846000000
v 10.946119095 -18.013122455 16.845000000
v 10.846119095 -18.126122455 16.848000000
v 10.971119095 -17.969122455 16.845000000
v 10.992119095 -17.923122455 16.844000000
v 19.332119095 4.201877545 17.755000000
v 12.534119095 7.074877544 17.721000000
v 19.635119095 3.693877544 17.758000000
v 19.628119095 3.838877545 17.758000000
v 15.151119095 -7.342122455 17.778000000
v 19.579119095 3.975877545 17.757000000
v 19.525119095 4.056877545 17.757000000
v 19.457119095 4.125877544 17.756000000
v 10.387119095 -2.113122456 17.743000000
v 2.454119095 -12.927122455 18.785000000
v 5.136119095 -13.453122456 17.115000000
v 5.136119095 -13.453122456 18.312000000
v 9.105119095 -2.100122456 18.154000000
v 9.105119095 -2.100122456 17.739000000
v 5.424119095 -1.191122456 18.811000000
v 9.372119095 -14.284122455 16.937000000
v 9.218119095 -14.502122455 16.942000000
v 9.372119095 -14.284122455 17.566000000
v 12.185119095 -14.836122455 16.819000000
v 12.185119095 -14.836122455 17.071000000
v 9.311119095 -14.272122456 17.577000000
v 9.311119095 -14.272122456 16.940000000
v 9.441119095 -2.053122455 17.740000000
v 6.920119095 -9.458122456 18.192000000
v 6.920119095 -9.458122456 17.755000000
v 9.407119095 -2.174122456 17.740000000
v 4.314119095 -16.886122456 17.122000000
v -1.485880905 -12.153122456 17.327000000
v 7.356119095 -9.525122455 17.757000000
v 8.559119095 -5.212122455 17.747000000
v 7.356119095 -9.525122455 18.116000000
v 1.689119095 -0.270122455 17.413000000
v 13.855119095 -10.519122455 16.984000000
f 22 23 24
f 22 24 25
f 22 25 21
f 22 21 20
f 22 20 19
f 22 19 18
f 22 18 17
f 22 17 16
f 22 16 26
f 22 26 27
f 22 27 28
f 22 28 29
f 22 29 30
f 22 30 15
f 22 15 14
f 22 14 13
f 22 13 12
f 22 12 11
f 22 11 10
f 22 10 9
f 22 9 8
f 22 8 7
f 22 7 6
f 22 6 5
f 22 5 4
f 22 4 3
f 22 3 2
f 22 2 1
f 22 1 31
f 22 31 32
f 22 32 33
f 22 33 34
f 22 34 35
f 22 35 36
f 22 36 37
f 38 39 40
f 41 2 3
f 41 3 42
f 43 1 2
f 43 2 41
f 44 4 5
f 44 5 45
f 45 5 6
f 45 6 46
f 46 6 7
f 46 7 47
f 42 3 4
f 42 4 44
f 47 7 8
f 47 8 48
f 48 8 9
f 48 9 49
f 50 11 12
f 50 12 51
f 51 12 13
f 51 13 52
f 49 9 10
f 49 10 53
f 53 10 11
f 53 11 50
f 52 13 14
f 52 14 54
f 54 14 15
f 54 15 55
f 56 21 25
f 56 25 57
f 58 16 17
f 58 17 59
f 60 26 16
f 60 16 58
f 59 17 18
f 59 18 61
f 61 18 19
f 61 19 62
f 63 20 21
f 63 21 56
f 62 19 20
f 62 20 63
f 57 25 24
f 57 24 64
f 65 33 32
f 65 32 66
f 65 66 67
f 68 69 37
f 68 37 36
f 68 36 70
f 71 40 39
f 71 39 72
f 73 71 74
f 73 74 75
f 76 77 38
f 76 38 40
f 76 40 71
f 76 71 73
f 64 24 23
f 64 23 78
f 79 80 69
f 79 69 68
f 81 22 37
f 81 37 69
f 66 32 31
f 66 31 82
f 55 15 30
f 55 30 74
f 83 34 33
f 83 33 65
f 82 31 1
f 82 1 43
f 84 28 27
f 84 27 85
f 86 84 80
f 86 80 79
f 70 36 35
f 70 35 87
f 87 35 34
f 87 34 83
f 67 66 77
f 67 77 76
f 75 74 30
f 75 30 29
f 75 29 88
f 85 27 26
f 85 26 60
f 72 39 38
f 72 38 77
f 88 29 28
f 88 28 84
f 88 84 86
f 78 23 22
f 78 22 81
f 72 77 66
f 72 66 82
f 72 82 43
f 72 43 41
f 72 41 42
f 72 42 44
f 72 44 45
f 72 45 46
f 72 46 47
f 72 47 48
f 72 48 49
f 72 49 53
f 72 53 50
f 72 50 51
f 72 51 52
f 72 52 54
f 72 54 55
f 72 55 74
f 72 74 71
f 65 70 87
f 65 87 83
f 78 81 69
f 78 69 80
f 78 80 84
f 78 84 85
f 78 85 60
f 78 60 58
f 78 58 59
f 78 59 61
f 78 61 62
f 78 62 63
f 78 63 56
f 78 56 57
f 78 57 64
f 70 65 67
f 70 67 76
f 70 76 73
f 70 73 75
f 70 75 88
f 70 88 86
f 70 86 79
f 70 79 68
