v -22.562559042 11.625250974 31.920000000
v -20.274559042 11.104250973 31.920000000
v -20.438559042 8.605250973 31.920000000
v -22.986559042 8.763250973 31.920000000
v -20.274559042 11.104250973 34.249000000
v -22.562559042 11.625250974 34.210000000
v -22.986559042 8.763250973 34.193000000
v -20.438559042 8.605250973 34.238000000
v 13.914440958 -6.368749026 31.920000000
v 9.666440958 -7.281749027 31.920000000
v 8.691440958 -7.491749027 31.920000000
v 5.865440958 -5.583749027 31.920000000
v 5.649440958 -5.437749026 31.920000000
v -1.832559042 -4.411749027 31.920000000
v 2.903440958 3.076250973 31.920000000
v 3.126440958 3.427250973 31.920000000
v 2.885440958 5.627250973 31.920000000
v 6.395440958 5.502250973 31.920000000
v 6.296440958 3.431250974 31.920000000
v 6.254440958 2.555250973 31.920000000
v 10.142440958 3.016250974 31.920000000
v 10.127440958 2.683250973 31.920000000
v 14.006440958 2.735250973 31.920000000
v 14.006440958 2.735250973 35.650000000
v 10.127440958 2.683250973 38.423000000
v 10.142440958 3.016250974 38.423000000
v -1.832559042 -4.411749027 35.807000000
v 5.649440958 -5.437749026 35.694000000
v 2.903440958 3.076250973 35.746000000
v 2.903440958 3.076250973 34.227000000
v 6.254440958 2.555250973 35.696000000
v 5.865440958 -5.583749027 35.691000000
v 8.691440958 -7.491749027 37.747000000
v 9.666440958 -7.281749027 38.428000000
v 13.914440958 -6.368749026 35.419000000
v 3.126440958 3.427250973 34.225000000
v 6.296440958 3.431250974 35.696000000
v 6.296440958 3.431250974 34.160000000
v 2.885440958 5.627250973 34.249000000
v 6.395440958 5.502250973 34.176000000
f 1 2 3
f 1 3 4
f 5 2 1
f 5 1 6
f 6 1 4
f 6 4 7
f 8 3 2
f 8 2 5
f 7 4 3
f 7 3 8
f 7 8 5
f 7 5 6
f 9 10 11
f 9 11 12
f 9 12 13
f 9 13 14
f 9 14 15
f 9 15 16
f 9 16 17
f 9 17 18
f 9 18 19
f 9 19 20
f 9 20 21
f 9 21 22
f 9 22 23
f 24 23 22
f 24 22 25
f 25 22 21
f 25 21 26
f 27 14 13
f 27 13 28
f 29 30 15
f 29 15 14
f 29 14 27
f 26 21 20
f 26 20 31
f 32 12 11
f 32 11 33
f 33 11 10
f 33 10 34
f 28 13 12
f 28 12 32
f 35 9 23
f 35 23 24
f 34 10 9
f 34 9 35
f 36 16 15
f 36 15 30
f 37 38 30
f 37 30 29
f 31 20 19
f 31 19 38
f 31 38 37
f 39 17 16
f 39 16 36
f 38 19 18
f 38 18 40
f 40 18 17
f 40 17 39
f 34 35 24
f 34 24 25
f 32 31 37
f 32 37 29
f 32 29 27
f 32 27 28
f 40 39 36
f 40 36 30
f 40 30 38
f 31 32 33
f 31 33 34
f 31 34 25
f 31 25 26
