v -4.179693779 8.081210924 1.559000000
v -4.268693779 8.093210924 1.559000000
v -6.639693779 7.501210924 1.559000000
v -6.926693779 8.992210925 1.559000000
v -10.343693779 8.891210925 1.559000000
v -10.554693779 10.712210924 1.559000000
v -13.831693779 10.274210924 1.559000000
v -14.817693779 16.458210925 1.559000000
v -11.281693779 16.985210924 1.559000000
v -10.296693779 17.132210924 1.559000000
v -8.378693779 17.758210924 1.559000000
v -6.992693779 17.946210925 1.559000000
v -2.614693779 18.539210925 1.559000000
v -2.390693779 17.147210925 1.559000000
v 0.149306221 17.600210925 1.559000000
v 0.653306221 11.635210925 1.559000000
v -1.480693779 11.487210925 1.559000000
v -1.219693779 9.859210924 1.559000000
v -1.337693779 9.600210925 1.559000000
v -2.164693779 7.791210924 1.559000000
v -6.926693779 8.992210925 7.411000000
v -6.639693779 7.501210924 7.383000000
v -10.343693779 8.891210925 6.854000000
v -6.926693779 8.992210925 10.985000000
v -11.281693779 16.985210924 7.140000000
v -11.281693779 16.985210924 5.289000000
v -10.554693779 10.712210924 5.295000000
v -10.554693779 10.712210924 6.919000000
v 0.149306221 17.600210925 5.527000000
v -2.390693779 17.147210925 5.788000000
v 0.653306221 11.635210925 5.567000000
v -14.817693779 16.458210925 5.351000000
v -13.831693779 10.274210924 5.352000000
v -1.337693779 9.600210925 7.130000000
v -1.337693779 9.600210925 4.497000000
v -1.219693779 9.859210924 6.943000000
v -2.368693779 9.921210924 8.313000000
v -2.368693779 9.921210924 4.497000000
v -1.480693779 11.487210925 5.784000000
v -1.480693779 11.487210925 6.974000000
v -10.788693779 13.748210925 9.621000000
v -10.788693779 13.748210925 7.167000000
v -10.259693779 13.112210925 7.693000000
v -10.259693779 13.112210925 10.272000000
v -2.390693779 17.147210925 7.080000000
v -2.614693779 18.539210925 7.107000000
v -6.992693779 17.946210925 12.470000000
v -9.064693779 11.673210924 8.880000000
v -10.296693779 17.132210924 8.351000000
v -8.378693779 17.758210924 10.769000000
v -9.585693779 14.893210924 8.815000000
v -5.698693779 9.028210925 7.392000000
v -5.698693779 9.028210925 12.469000000
v -3.158693779 9.104210924 9.405000000
v -3.158693779 9.104210924 4.495000000
v -2.898693779 9.743210925 4.497000000
v -2.898693779 9.743210925 8.981000000
v -2.164693779 7.791210924 4.491000000
v -4.268693779 8.093210924 7.356000000
v -4.161693779 9.074210924 10.614000000
v -4.161693779 9.074210924 7.369000000
v -4.161693779 9.074210924 4.495000000
v -4.179693779 8.081210924 7.354000000
v -4.179693779 8.081210924 4.492000000
v -8.136693779 13.475210925 10.312000000
f 1 2 3
f 1 3 4
f 1 4 5
f 1 5 6
f 1 6 7
f 1 7 8
f 1 8 9
f 1 9 10
f 1 10 11
f 1 11 12
f 1 12 13
f 1 13 14
f 1 14 15
f 1 15 16
f 1 16 17
f 1 17 18
f 1 18 19
f 1 19 20
f 21 4 3
f 21 3 22
f 23 5 4
f 23 4 21
f 23 21 24
f 25 26 27
f 25 27 28
f 29 15 14
f 29 14 30
f 31 16 15
f 31 15 29
f 32 8 7
f 32 7 33
f 33 7 6
f 33 6 27
f 34 35 19
f 34 19 18
f 34 18 36
f 37 38 35
f 37 35 34
f 39 17 16
f 39 16 31
f 36 18 17
f 36 17 39
f 36 39 40
f 41 42 43
f 41 43 44
f 26 9 8
f 26 8 32
f 45 30 14
f 45 14 13
f 45 13 46
f 46 13 12
f 46 12 47
f 44 43 48
f 49 10 9
f 49 9 26
f 49 26 25
f 50 11 10
f 50 10 49
f 28 27 6
f 28 6 5
f 28 5 23
f 42 41 51
f 40 39 30
f 40 30 45
f 24 21 52
f 24 52 53
f 54 55 56
f 54 56 57
f 57 56 38
f 57 38 37
f 58 20 19
f 58 19 35
f 22 3 2
f 22 2 59
f 47 12 11
f 47 11 50
f 60 61 62
f 60 62 55
f 60 55 54
f 63 64 62
f 63 62 61
f 59 2 1
f 59 1 64
f 59 64 63
f 64 1 20
f 64 20 58
f 53 52 61
f 53 61 60
f 26 32 33
f 26 33 27
f 65 44 48
f 30 39 31
f 30 31 29
f 47 50 49
f 47 49 25
f 47 25 28
f 47 28 23
f 47 23 24
f 47 24 53
f 51 65 48
f 51 48 43
f 51 43 42
f 53 60 54
f 53 54 57
f 53 57 37
f 53 37 34
f 53 34 36
f 53 36 40
f 53 40 45
f 53 45 46
f 53 46 47
f 65 51 41
f 65 41 44
f 64 58 35
f 64 35 38
f 64 38 56
f 64 56 55
f 64 55 62
f 61 52 21
f 61 21 22
f 61 22 59
f 61 59 63
