v 9.502751013 14.798207939 32.180000000
v 7.011751013 13.506207939 32.180000000
v 7.070751013 -1.962792061 32.180000000
v 3.100751013 -2.781792061 32.180000000
v -1.413248987 -3.711792061 32.180000000
v -2.770248987 14.319207939 32.180000000
v 1.790751013 14.671207939 32.180000000
v 1.750751013 15.206207938 32.180000000
v 2.268751013 15.138207939 32.180000000
v 3.186751014 20.197207939 32.180000000
v 8.646751013 20.608207939 32.180000000
v 1.790751013 14.671207939 36.963000000
v -2.770248987 14.319207939 34.824000000
v 1.750751013 15.206207938 36.963000000
v 3.186751014 20.197207939 34.315000000
v 2.268751013 15.138207939 34.481000000
v 6.748751013 14.553207939 34.636000000
v 6.748751013 14.553207939 34.513000000
v 2.268751013 15.138207939 36.722000000
v -1.413248987 -3.711792061 34.821000000
v 3.100751013 -2.781792061 36.959000000
v 6.682751013 13.336207939 34.710000000
v 6.682751013 13.336207939 34.554000000
v 7.011751013 13.506207939 34.549000000
v 9.502751013 14.798207939 34.513000000
v 7.070751013 -1.962792061 35.064000000
v 8.646751013 20.608207939 34.317000000
f 1 2 3
f 1 3 4
f 1 4 5
f 1 5 6
f 1 6 7
f 1 7 8
f 1 8 9
f 1 9 10
f 1 10 11
f 12 7 6
f 12 6 13
f 14 8 7
f 14 7 12
f 15 10 9
f 15 9 16
f 17 18 16
f 17 16 19
f 13 6 5
f 13 5 20
f 20 5 4
f 20 4 21
f 22 23 18
f 22 18 17
f 24 2 1
f 24 1 25
f 19 16 9
f 19 9 8
f 19 8 14
f 21 4 3
f 21 3 26
f 27 11 10
f 27 10 15
f 26 3 2
f 26 2 24
f 23 22 24
f 25 1 11
f 25 11 27
f 21 12 13
f 21 13 20
f 25 27 15
f 25 15 16
f 25 16 18
f 25 18 23
f 25 23 24
f 12 21 26
f 12 26 24
f 12 24 22
f 12 22 17
f 12 17 19
f 12 19 14
