v 3.055056175 -15.124705492 30.510000000
v 2.040056175 -15.258705492 30.510000000
v 1.560056175 -17.188705492 30.510000000
v -0.542943825 -17.878705492 30.510000000
v -2.798943825 -14.842705492 30.510000000
v -5.391943825 -11.350705492 30.510000000
v -1.023943825 -10.190705492 30.510000000
v -1.998943825 -9.028705492 30.510000000
v -8.681943825 -1.057705492 30.510000000
v -7.833943825 -0.422705492 30.510000000
v -8.192943825 0.854294508 30.510000000
v -3.108943825 5.248294508 30.510000000
v -2.097943825 6.122294508 30.510000000
v 11.224056175 -8.602705492 30.510000000
v 7.938056175 -12.705705492 30.510000000
v 7.291056175 -11.955705492 30.510000000
v 5.085056175 -14.854705492 30.510000000
v 7.291056175 -11.955705492 36.364000000
v 7.938056175 -12.705705492 36.364000000
v 11.224056175 -8.602705492 33.396000000
v 5.085056175 -14.854705492 34.332000000
v -0.542943825 -17.878705492 33.505000000
v 1.560056175 -17.188705492 33.019000000
v -4.675943825 1.939294508 34.052000000
v -4.675943825 1.939294508 36.369000000
v -1.329943825 4.443294508 33.973000000
v 3.055056175 -15.124705492 33.355000000
v -1.023943825 -10.190705492 34.314000000
v -5.391943825 -11.350705492 33.170000000
v -1.998943825 -9.028705492 33.442000000
v -2.798943825 -14.842705492 35.663000000
v -3.108943825 5.248294508 34.446000000
v -8.192943825 0.854294508 34.446000000
v -7.833943825 -0.422705492 34.126000000
v 2.496056175 -9.911705492 35.520000000
v 2.496056175 -9.911705492 35.054000000
v 2.370056175 -9.325705492 35.218000000
v -8.681943825 -1.057705492 33.523000000
v -2.097943825 6.122294508 33.678000000
v 2.793056175 -10.002705492 35.671000000
v 2.793056175 -10.002705492 35.149000000
v 3.427056175 -10.194705492 35.351000000
v 2.040056175 -15.258705492 33.675000000
v 12.989056175 -6.081705492 30.510000000
v 19.196056175 -0.475705492 30.510000000
v 25.975056175 -8.687705492 30.510000000
v 20.229056175 -13.747705492 30.510000000
v 19.196056175 -0.475705492 33.836000000
v 12.989056175 -6.081705492 33.844000000
v 25.975056175 -8.687705492 33.842000000
v 20.229056175 -13.747705492 33.849000000
f 1 2 3
f 1 3 4
f 1 4 5
f 1 5 6
f 1 6 7
f 1 7 8
f 1 8 9
f 1 9 10
f 1 10 11
f 1 11 12
f 1 12 13
f 1 13 14
f 1 14 15
f 1 15 16
f 1 16 17
f 18 16 15
f 18 15 19
f 19 15 14
f 19 14 20
f 21 17 16
f 21 16 18
f 22 4 3
f 22 3 23
f 27 1 17
f 27 17 21
f 28 7 6
f 28 6 29
f 30 8 7
f 30 7 28
f 29 6 5
f 29 5 31
f 31 5 4
f 31 4 22
f 32 12 11
f 32 11 33
f 35 36 37
f 38 9 8
f 38 8 30
f 34 10 9
f 34 9 38
f 33 11 10
f 33 10 34
f 39 13 12
f 39 12 32
f 40 41 36
f 40 36 35
f 41 40 42
f 23 3 2
f 23 2 43
f 43 2 1
f 43 1 27
f 20 14 13
f 20 13 39
f 33 34 24
f 33 24 26
f 33 26 32
f 41 42 27
f 41 27 21
f 41 21 18
f 41 18 25
f 41 25 34
f 41 34 38
f 41 38 30
f 41 30 37
f 41 37 36
f 40 31 22
f 40 22 23
f 40 23 43
f 40 43 27
f 40 27 42
f 31 40 35
f 31 35 37
f 31 37 30
f 31 30 28
f 31 28 29
f 20 39 32
f 20 32 26
f 20 26 25
f 20 25 18
f 20 18 19
f 44 45 46
f 44 46 47
f 48 45 44
f 48 44 49
f 50 46 45
f 50 45 48
f 49 44 47
f 49 47 51
f 51 47 46
f 51 46 50
f 51 50 48
f 51 48 49
