v -1.330414122 0.436487912 12.409000000
v -1.737414122 3.005487912 12.409000000
v -0.279414122 3.021487912 12.409000000
v -0.332414122 6.287487913 12.409000000
v 8.752585878 6.443487912 12.409000000
v 8.751585878 3.120487913 12.409000000
v 9.651585878 3.130487912 12.409000000
v 9.786585878 -7.615512087 12.409000000
v 5.332585878 -7.693512088 12.409000000
v 1.410585878 -7.761512088 12.409000000
v 0.513585878 0.696487913 12.409000000
v 9.786585878 -7.615512087 15.502000000
v 9.651585878 3.130487912 15.486000000
v 5.332585878 -7.693512088 17.584000000
v -1.737414122 3.005487912 14.358000000
v -1.330414122 0.436487912 14.525000000
v -0.279414122 3.021487912 15.046000000
v 8.751585878 3.120487913 15.907000000
v 8.751585878 3.120487913 14.902000000
v 5.134585878 3.080487913 14.960000000
v 5.134585878 3.080487913 17.597000000
v 8.752585878 6.443487912 14.909000000
v 0.513585878 0.696487913 15.396000000
v -0.332414122 6.287487913 15.053000000
v 1.410585878 -7.761512088 15.736000000
f 1 2 3
f 1 3 4
f 1 4 5
f 1 5 6
f 1 6 7
f 1 7 8
f 1 8 9
f 1 9 10
f 1 10 11
f 12 8 7
f 12 7 13
f 14 9 8
f 14 8 12
f 15 2 1
f 15 1 16
f 17 3 2
f 17 2 15
f 18 19 20
f 18 20 21
f 19 6 5
f 19 5 22
f 13 7 6
f 13 6 19
f 13 19 18
f 16 1 11
f 16 11 23
f 21 20 17
f 22 5 4
f 22 4 24
f 24 4 3
f 24 3 17
f 23 11 10
f 23 10 25
f 25 10 9
f 25 9 14
f 24 17 20
f 24 20 19
f 24 19 22
f 21 14 12
f 21 12 13
f 21 13 18
f 25 14 21
f 25 21 17
f 25 17 15
f 25 15 16
f 25 16 23
