v 8.479062480 3.690675797 27.239000000
v 4.000062480 -3.892324203 27.239000000
v 3.957062480 -3.965324203 27.239000000
v -10.833937520 5.143675797 27.239000000
v -11.254937520 5.402675797 27.239000000
v -11.411937520 5.364675797 27.239000000
v -6.903937520 12.784675797 27.239000000
v -7.156937520 13.738675797 27.239000000
v -11.104937520 16.101675797 27.239000000
v -9.383937520 18.036675797 27.239000000
v -8.257937520 19.302675797 27.239000000
v -1.065937520 15.097675797 27.239000000
v -1.353937520 14.557675797 27.239000000
v -3.091937520 11.305675797 27.239000000
v 6.521062480 5.551675797 27.239000000
v 7.475062480 3.461675797 27.239000000
v -11.104937520 16.101675797 30.373000000
v -7.156937520 13.738675797 30.377000000
v -6.903937520 12.784675797 30.378000000
v -9.383937520 18.036675797 30.373000000
v -9.383937520 18.036675797 29.190000000
v -6.903937520 12.784675797 30.699000000
v -11.411937520 5.364675797 30.689000000
v 4.000062480 -3.892324203 30.626000000
v 8.479062480 3.690675797 30.671000000
v 7.475062480 3.461675797 31.002000000
v -3.091937520 11.305675797 30.382000000
v -1.353937520 14.557675797 28.669000000
v -1.353937520 14.557675797 30.381000000
v -6.545937520 13.372675797 30.378000000
v -11.254937520 5.402675797 30.742000000
v 6.521062480 5.551675797 30.393000000
v -9.256937520 16.296675797 29.855000000
v -9.256937520 16.296675797 30.374000000
v 3.957062480 -3.965324203 30.587000000
v -1.065937520 15.097675797 28.384000000
v -8.257937520 19.302675797 28.416000000
v -10.833937520 5.143675797 30.737000000
v -10.833937520 5.143675797 30.965000000
v -10.389937520 5.612675797 31.028000000
v -5.328937520 6.837675797 32.701000000
v 2.349062480 2.284675797 32.692000000
f 1 2 3
f 1 3 4
f 1 4 5
f 1 5 6
f 1 6 7
f 1 7 8
f 1 8 9
f 1 9 10
f 1 10 11
f 1 11 12
f 1 12 13
f 1 13 14
f 1 14 15
f 1 15 16
f 17 9 8
f 17 8 18
f 18 8 7
f 18 7 19
f 20 21 10
f 20 10 9
f 20 9 17
f 22 19 7
f 22 7 6
f 22 6 23
f 24 2 1
f 24 1 25
f 25 1 16
f 25 16 26
f 27 14 13
f 27 13 28
f 27 28 29
f 23 6 5
f 23 5 31
f 32 15 14
f 32 14 27
f 26 16 15
f 26 15 32
f 29 28 33
f 29 33 34
f 35 3 2
f 35 2 24
f 28 13 12
f 28 12 36
f 37 11 10
f 37 10 21
f 34 33 21
f 34 21 20
f 36 12 11
f 36 11 37
f 31 5 4
f 31 4 38
f 31 38 39
f 39 38 40
f 38 4 3
f 38 3 35
f 26 32 27
f 26 27 30
f 26 30 22
f 26 22 41
f 26 41 42
f 34 20 17
f 34 17 18
f 34 18 19
f 34 19 30
f 34 30 27
f 34 27 29
f 36 37 21
f 36 21 33
f 36 33 28
f 39 40 41
f 39 41 22
f 39 22 23
f 39 23 31
f 24 42 41
f 24 41 40
f 24 40 38
f 24 38 35
f 42 24 25
f 42 25 26
