v 0.493524155 3.391574897 77.900000000
v -0.049475845 2.733574897 77.900000000
v -0.814475845 1.806574897 77.900000000
v -1.274475845 -0.411425103 77.900000000
v -0.876475845 -0.561425103 77.900000000
v -2.278475845 -2.947425103 77.900000000
v -2.437475845 -3.414425103 77.900000000
v -4.298475845 -8.884425103 77.900000000
v -6.072475845 -7.747425104 77.900000000
v -8.780475845 -6.678425103 77.900000000
v -15.333475845 -4.090425103 77.900000000
v -15.641475845 -3.969425104 77.900000000
v -14.868475845 -0.480425104 77.900000000
v -18.391475845 2.789574897 77.900000000
v -17.037475845 5.250574897 77.900000000
v -16.351475845 6.498574897 77.900000000
v -15.648475845 8.228574897 77.900000000
v -4.830475845 4.418574897 77.900000000
v -3.767475845 5.020574897 77.900000000
v -1.247475845 11.852574897 77.900000000
v 10.551524155 8.021574897 77.900000000
v 8.299524155 0.777574897 77.900000000
v 7.507524155 -1.769425103 77.900000000
v 4.669524155 -0.310425103 77.900000000
v 5.439524155 1.735574896 77.900000000
v 10.551524155 8.021574897 80.992000000
v -1.247475845 11.852574897 81.011000000
v -5.957475845 1.287574897 82.496000000
v -5.957475845 1.287574897 82.472000000
v -10.162475845 0.241574896 81.684000000
v 7.507524155 -1.769425103 80.274000000
v 8.299524155 0.777574897 80.616000000
v 8.299524155 0.777574897 81.365000000
v -15.641475845 -3.969425104 80.900000000
v -15.333475845 -4.090425103 80.899000000
v -4.298475845 -8.884425103 81.380000000
v -2.437475845 -3.414425103 81.420000000
v -6.072475845 -7.747425104 81.828000000
v -14.868475845 -0.480425104 81.054000000
v -14.868475845 -0.480425104 80.943000000
v -18.391475845 2.789574897 81.590000000
v -5.933475845 1.355574897 82.496000000
v -5.933475845 1.355574897 82.496000000
v 5.439524155 1.735574896 81.368000000
v 5.439524155 1.735574896 80.637000000
v 4.669524155 -0.310425103 80.357000000
v -14.785475845 -0.106425103 81.070000000
v -2.278475845 -2.947425103 81.587000000
v -8.780475845 -6.678425103 82.461000000
v -16.351475845 6.498574897 82.026000000
v -17.037475845 5.250574897 82.514000000
v -0.876475845 -0.561425103 82.512000000
v -1.274475845 -0.411425103 82.510000000
v 0.493524155 3.391574897 81.374000000
v -5.933475845 1.355574897 82.510000000
v -5.869475845 1.309574896 82.517000000
v -5.869475845 1.309574896 82.480000000
v -1.274475845 -0.411425103 82.551000000
v -3.767475845 5.020574897 81.059000000
v -4.830475845 4.418574897 81.379000000
v -3.767475845 5.020574897 81.369000000
v -4.086475845 4.156574897 81.379000000
v -4.086475845 4.156574897 81.414000000
v -15.648475845 8.228574897 81.379000000
v -0.814475845 1.806574897 81.771000000
v -0.049475845 2.733574897 81.379000000
v -0.049475845 2.733574897 81.413000000
v -13.386475845 -0.608425103 81.064000000
f 1 2 3
f 1 3 4
f 1 4 5
f 1 5 6
f 1 6 7
f 1 7 8
f 1 8 9
f 1 9 10
f 1 10 11
f 1 11 12
f 1 12 13
f 1 13 14
f 1 14 15
f 1 15 16
f 1 16 17
f 1 17 18
f 1 18 19
f 1 19 20
f 1 20 21
f 1 21 22
f 1 22 23
f 1 23 24
f 1 24 25
f 26 21 20
f 26 20 27
f 31 23 22
f 31 22 32
f 33 32 22
f 33 22 21
f 33 21 26
f 34 12 11
f 34 11 35
f 36 8 7
f 36 7 37
f 38 9 8
f 38 8 36
f 39 40 13
f 39 13 12
f 39 12 34
f 41 14 13
f 41 13 40
f 42 43 29
f 44 45 32
f 44 32 33
f 45 25 24
f 45 24 46
f 40 39 47
f 37 7 6
f 37 6 48
f 49 10 9
f 49 9 38
f 46 24 23
f 46 23 31
f 35 11 10
f 35 10 49
f 50 16 15
f 50 15 51
f 51 15 14
f 51 14 41
f 48 6 5
f 48 5 52
f 52 5 4
f 52 4 53
f 54 1 25
f 54 25 45
f 54 45 44
f 43 42 55
f 56 57 53
f 56 53 58
f 59 19 18
f 59 18 60
f 27 20 19
f 27 19 59
f 27 59 61
f 61 59 62
f 61 62 63
f 55 42 57
f 55 57 56
f 60 18 17
f 60 17 64
f 64 17 16
f 64 16 50
f 58 53 4
f 58 4 3
f 58 3 65
f 65 3 2
f 65 2 66
f 63 62 66
f 63 66 67
f 67 66 2
f 67 2 1
f 67 1 54
f 46 31 32
f 46 32 45
f 68 30 29
f 68 29 43
f 68 43 51
f 68 51 41
f 68 41 40
f 68 40 47
f 53 57 37
f 53 37 48
f 53 48 52
f 57 42 28
f 57 28 49
f 57 49 38
f 57 38 36
f 57 36 37
f 35 68 47
f 35 47 39
f 35 39 34
f 68 35 49
f 68 49 28
f 68 28 30
f 66 62 59
f 66 59 60
f 66 60 64
f 66 64 50
f 66 50 51
f 66 51 55
f 66 55 56
f 66 56 58
f 66 58 65
f 67 54 44
f 67 44 33
f 67 33 26
f 67 26 27
f 67 27 61
f 67 61 63
