v 19.092070691 -10.926795498 42.659000000
v 21.957070691 -10.953795498 42.659000000
v 28.013070691 -19.185795499 42.659000000
v 26.323070691 -28.586795499 42.659000000
v 20.391070691 -33.092795499 42.659000000
v 18.963070691 -33.108795498 42.659000000
v 28.013070691 -19.185795499 46.267000000
v 21.957070691 -10.953795498 46.271000000
v 19.092070691 -10.926795498 46.273000000
v 18.963070691 -33.108795498 46.271000000
v 20.391070691 -33.092795499 46.270000000
v 26.323070691 -28.586795499 46.268000000
v 118.765070691 -80.865795499 42.659000000
v 117.526070691 -81.895795499 42.659000000
v 116.103070691 -83.078795498 42.659000000
v 114.388070691 -82.098795499 42.659000000
v 114.043070691 -81.360795499 42.659000000
v 112.865070691 -78.840795498 42.659000000
v 116.577070691 -77.077795499 42.659000000
v 117.863070691 -79.303795499 42.659000000
v 116.577070691 -77.077795499 47.891000000
v 112.865070691 -78.840795498 47.840000000
v 116.417070691 -80.871795499 48.283000000
v 116.417070691 -80.871795499 48.597000000
v 115.877070691 -80.373795498 48.446000000
v 114.043070691 -81.360795499 48.443000000
v 117.517070691 -79.490795499 48.449000000
v 117.517070691 -79.490795499 46.216000000
v 117.863070691 -79.303795499 46.216000000
v 117.863070691 -79.303795499 48.449000000
v 118.765070691 -80.865795499 46.215000000
v 114.388070691 -82.098795499 48.252000000
v 116.103070691 -83.078795498 47.862000000
v 117.526070691 -81.895795499 46.216000000
v 117.526070691 -81.895795499 47.950000000
v 116.417070691 -80.871795499 46.216000000
v 31.594070691 -33.104795499 42.659000000
v 33.678070691 -24.154795499 42.659000000
v 35.634070691 -22.547795499 42.659000000
v 35.681070691 -22.470795498 42.659000000
v 35.837070691 -22.379795498 42.659000000
v 38.500070691 -20.191795499 42.659000000
v 47.632070691 -20.150795499 42.659000000
v 48.514070691 -20.843795499 42.659000000
v 50.608070691 -21.402795498 42.659000000
v 51.485070691 -23.178795499 42.659000000
v 54.614070691 -29.511795498 42.659000000
v 54.133070691 -36.010795498 42.659000000
v 48.571070691 -40.563795499 42.659000000
v 45.146070691 -43.368795498 42.659000000
v 42.750070691 -42.641795498 42.659000000
v 35.830070691 -40.543795499 42.659000000
v 48.514070691 -20.843795499 46.354000000
v 47.632070691 -20.150795499 46.352000000
v 50.608070691 -21.402795498 45.010000000
v 48.571070691 -40.563795499 47.202000000
v 48.571070691 -40.563795499 46.380000000
v 46.854070691 -41.176795498 46.377000000
v 42.750070691 -42.641795498 46.371000000
v 42.750070691 -42.641795498 44.406000000
v 45.146070691 -43.368795498 45.200000000
v 35.634070691 -22.547795499 46.332000000
v 33.678070691 -24.154795499 46.330000000
v 38.500070691 -20.191795499 46.334000000
v 35.837070691 -22.379795498 46.332000000
v 35.681070691 -22.470795498 46.332000000
v 54.133070691 -36.010795498 46.385000000
v 54.614070691 -29.511795498 46.377000000
v 51.485070691 -23.178795499 46.363000000
v 35.830070691 -40.543795499 46.355000000
v 31.594070691 -33.104795499 46.337000000
v 96.703070691 -70.518795499 42.659000000
v 96.826070691 -70.115795499 42.659000000
v 96.973070691 -70.370795499 42.659000000
v 112.864070691 -61.679795499 42.659000000
v 113.229070691 -62.364795499 42.659000000
v 119.773070691 -58.845795498 42.659000000
v 118.843070691 -57.194795499 42.659000000
v 115.110070691 -59.593795499 42.659000000
v 107.434070691 -46.036795499 42.659000000
v 111.382070691 -43.942795498 42.659000000
v 108.431070691 -38.703795498 42.659000000
v 116.970070691 -33.972795499 42.659000000
v 121.839070691 -42.755795498 42.659000000
v 121.213070691 -43.104795499 42.659000000
v 124.822070691 -49.139795499 42.659000000
v 125.376070691 -48.880795498 42.659000000
v 130.610070691 -57.811795498 42.659000000
v 121.430070691 -63.803795499 42.659000000
v 121.857070691 -64.547795499 42.659000000
v 116.281070691 -67.648795499 42.659000000
v 116.641070691 -68.785795499 42.659000000
v 106.571070691 -73.288795498 42.659000000
v 106.851070691 -73.779795499 42.659000000
v 127.438070691 -109.817795498 42.659000000
v 120.738070691 -113.659795498 42.659000000
v 115.623070691 -116.593795499 42.659000000
v 94.151070691 -79.927795499 42.659000000
v 90.588070691 -81.269795499 42.659000000
v 89.669070691 -82.042795499 42.659000000
v 117.484070691 -130.419795498 42.659000000
v 111.918070691 -133.803795499 42.659000000
v 111.391070691 -132.876795499 42.659000000
v 77.872070691 -86.057795499 42.659000000
v 73.186070691 -88.512795499 42.659000000
v 88.366070691 -126.331795499 42.659000000
v 84.763070691 -128.386795498 42.659000000
v 76.679070691 -132.999795498 42.659000000
v 35.112070691 -60.161795499 42.659000000
v 43.165070691 -55.462795499 42.659000000
v 52.195070691 -50.192795498 42.659000000
v 64.965070691 -68.029795499 42.659000000
v 56.633070691 -47.271795498 42.659000000
v 61.438070691 -45.088795499 42.659000000
v 66.280070691 -42.889795499 42.659000000
v 65.571070691 -41.469795499 42.659000000
v 71.336070691 -38.558795499 42.659000000
v 91.801070691 -28.221795498 42.659000000
v 96.140070691 -35.456795499 42.659000000
v 101.668070691 -44.672795499 42.659000000
v 92.540070691 -45.718795499 42.659000000
v 90.708070691 -48.598795499 42.659000000
v 93.642070691 -54.056795498 42.659000000
v 94.942070691 -53.973795499 42.659000000
v 99.380070691 -53.688795499 42.659000000
v 97.955070691 -54.989795499 42.659000000
v 98.561070691 -56.194795499 42.659000000
v 100.534070691 -55.516795498 42.659000000
v 99.094070691 -57.548795499 42.659000000
v 97.173070691 -60.259795499 42.659000000
v 96.168070691 -61.676795498 42.659000000
v 95.621070691 -59.539795498 42.659000000
v 94.639070691 -61.184795499 42.659000000
v 91.720070691 -59.192795498 42.659000000
v 91.324070691 -58.922795499 42.659000000
v 91.786070691 -58.550795498 42.659000000
v 91.627070691 -57.313795499 42.659000000
v 91.616070691 -57.222795499 42.659000000
v 91.427070691 -55.752795499 42.659000000
v 91.330070691 -54.996795499 42.659000000
v 91.264070691 -54.953795498 42.659000000
v 88.726070691 -56.365795499 42.659000000
v 92.749070691 -63.824795499 42.659000000
v 92.879070691 -63.699795499 42.659000000
v 92.993070691 -64.276795499 42.659000000
v 93.724070691 -65.632795499 42.659000000
v 94.154070691 -65.479795499 42.659000000
v 96.735070691 -69.956795499 42.659000000
v 96.555070691 -70.599795499 42.659000000
v 76.628070691 -84.320795499 42.659000000
v 72.338070691 -86.398795499 42.659000000
v 72.338070691 -86.398795499 48.528000000
v 64.965070691 -68.029795499 47.556000000
v 76.628070691 -84.320795499 48.541000000
v 107.434070691 -46.036795499 48.612000000
v 115.110070691 -59.593795499 48.604000000
v 118.843070691 -57.194795499 48.666000000
v 118.843070691 -57.194795499 50.618000000
v 66.280070691 -42.889795499 48.926000000
v 61.438070691 -45.088795499 51.325000000
v 65.571070691 -41.469795499 49.633000000
v 66.280070691 -42.889795499 49.618000000
v 56.633070691 -47.271795498 48.911000000
v 52.195070691 -50.192795498 48.372000000
v 92.749070691 -63.824795499 47.811000000
v 88.726070691 -56.365795499 47.692000000
v 85.259070691 -58.293795499 51.786000000
v 85.259070691 -58.293795499 51.931000000
v 85.356070691 -58.239795499 51.812000000
v 85.808070691 -59.275795499 51.791000000
v 85.808070691 -59.275795499 51.929000000
v 119.773070691 -58.845795498 48.665000000
v 113.229070691 -62.364795499 48.562000000
v 75.129070691 -46.614795499 52.217000000
v 75.129070691 -46.614795499 50.974000000
v 75.265070691 -46.901795499 50.970000000
v 75.265070691 -46.901795499 52.068000000
v 96.735070691 -69.956795499 47.275000000
v 94.154070691 -65.479795499 47.359000000
v 121.839070691 -42.755795498 48.806000000
v 116.970070691 -33.972795499 48.812000000
v 76.594070691 -63.515795499 49.521000000
v 76.594070691 -63.515795499 49.393000000
v 75.151070691 -60.629795498 49.413000000
v 75.151070691 -60.629795498 49.438000000
v 78.798070691 -63.134795499 48.569000000
v 78.798070691 -63.134795499 49.896000000
v 76.789070691 -63.481795498 49.437000000
v 78.415070691 -46.038795498 51.719000000
v 78.415070691 -46.038795498 51.713000000
v 77.788070691 -44.916795499 52.312000000
v 77.788070691 -44.916795499 52.323000000
v 84.517070691 -60.035795499 51.437000000
v 84.517070691 -60.035795499 50.138000000
v 85.684070691 -59.348795499 51.757000000
v 91.427070691 -55.752795499 67.381000000
v 91.616070691 -57.222795499 67.423000000
v 79.439070691 -63.024795499 50.042000000
v 79.439070691 -63.024795499 48.716000000
v 94.942070691 -53.973795499 67.762000000
v 93.642070691 -54.056795498 49.379000000
v 93.642070691 -54.056795498 67.325000000
v 66.342070691 -42.861795499 48.896000000
v 66.342070691 -42.861795499 49.632000000
v 94.151070691 -79.927795499 48.240000000
v 94.151070691 -79.927795499 48.048000000
v 94.444070691 -79.816795499 48.190000000
v 43.165070691 -55.462795499 52.147000000
v 117.484070691 -130.419795498 48.528000000
v 89.669070691 -82.042795499 48.558000000
v 96.140070691 -35.456795499 52.325000000
v 91.801070691 -28.221795498 48.431000000
v 108.431070691 -38.703795498 48.677000000
v 115.623070691 -116.593795499 48.591000000
v 120.738070691 -113.659795498 51.283000000
v 111.391070691 -132.876795499 51.477000000
v 111.918070691 -133.803795499 51.478000000
v 71.336070691 -38.558795499 48.342000000
v 71.336070691 -38.558795499 50.972000000
v 73.689070691 -43.554795499 50.895000000
v 78.749070691 -44.407795499 52.318000000
v 78.826070691 -46.112795498 51.802000000
v 78.826070691 -46.112795498 51.609000000
v 78.826070691 -46.112795498 51.595000000
v 78.415070691 -46.038795498 51.725000000
v 101.668070691 -44.672795499 47.323000000
v 124.822070691 -49.139795499 48.188000000
v 121.213070691 -43.104795499 48.199000000
v 121.213070691 -43.104795499 48.796000000
v 90.708070691 -48.598795499 49.367000000
v 90.708070691 -48.598795499 48.030000000
v 89.356070691 -46.082795499 49.362000000
v 88.366070691 -126.331795499 50.642000000
v 73.186070691 -88.512795499 48.640000000
v 84.763070691 -128.386795498 52.139000000
v 77.872070691 -86.057795499 48.646000000
v 112.756070691 -43.214795498 48.695000000
v 112.756070691 -43.214795498 49.934000000
v 115.382070691 -42.508795499 48.732000000
v 111.382070691 -43.942795498 48.674000000
v 111.382070691 -43.942795498 50.642000000
v 76.403070691 -48.800795498 51.028000000
v 76.403070691 -48.800795498 50.996000000
v 77.393070691 -47.453795498 51.353000000
v 77.393070691 -47.453795498 51.363000000
v 70.924070691 -43.719795499 50.419000000
v 70.924070691 -43.719795499 50.377000000
v 70.699070691 -43.733795498 50.335000000
v 70.699070691 -43.733795498 50.370000000
v 78.032070691 -46.568795498 51.586000000
v 91.264070691 -54.953795498 49.827000000
v 91.330070691 -54.996795499 49.820000000
v 91.330070691 -54.996795499 66.955000000
v 94.904070691 -57.451795499 69.921000000
v 94.904070691 -57.451795499 69.468000000
v 94.904070691 -57.451795499 69.374000000
v 94.969070691 -57.428795499 69.408000000
v 94.969070691 -57.428795499 69.920000000
v 94.906070691 -57.327795499 69.915000000
v 94.906070691 -57.327795499 69.475000000
v 95.075070691 -75.847795499 51.935000000
v 95.075070691 -75.847795499 51.911000000
v 94.449070691 -77.899795499 50.056000000
v 94.449070691 -77.899795499 50.166000000
v 106.851070691 -73.779795499 47.496000000
v 106.571070691 -73.288795498 48.159000000
v 116.641070691 -68.785795499 47.185000000
v 121.072070691 -42.869795498 48.796000000
v 121.072070691 -42.869795498 48.199000000
v 121.098070691 -43.168795499 48.794000000
v 121.098070691 -43.168795499 48.203000000
v 117.025070691 -45.442795498 48.730000000
v 117.025070691 -45.442795498 48.358000000
v 120.283070691 -51.258795499 48.726000000
v 120.283070691 -51.258795499 48.353000000
v 124.822070691 -49.139795499 48.795000000
v 121.430070691 -63.803795499 48.649000000
v 130.610070691 -57.811795498 48.801000000
v 122.127070691 -55.083795499 48.843000000
v 122.127070691 -55.083795499 48.720000000
v 122.072070691 -54.453795498 48.724000000
v 80.172070691 -47.134795499 50.884000000
v 78.856070691 -46.473795499 51.768000000
v 98.561070691 -56.194795499 67.425000000
v 97.955070691 -54.989795499 67.456000000
v 93.029070691 -54.095795498 49.478000000
v 93.029070691 -54.095795498 67.119000000
v 92.332070691 -55.638795499 67.656000000
v 92.332070691 -55.638795499 49.719000000
v 92.252070691 -64.299795499 49.939000000
v 92.252070691 -64.299795499 48.522000000
v 91.416070691 -64.627795499 49.473000000
v 91.416070691 -64.627795499 50.054000000
v 125.376070691 -48.880795498 48.804000000
v 127.438070691 -109.817795498 47.724000000
v 112.864070691 -61.679795499 47.703000000
v 95.106070691 -57.599795499 69.393000000
v 95.106070691 -57.599795499 69.386000000
v 97.173070691 -60.259795499 67.618000000
v 99.380070691 -53.688795499 66.407000000
v 94.937070691 -56.866795499 69.249000000
v 94.937070691 -56.866795499 69.232000000
v 94.912070691 -56.767795498 69.189000000
v 92.540070691 -45.718795499 48.835000000
v 88.726070691 -56.365795499 50.343000000
v 86.124070691 -57.811795498 50.873000000
v 74.890070691 -46.449795499 52.339000000
v 74.890070691 -46.449795499 50.942000000
v 91.324070691 -58.922795499 67.153000000
v 91.720070691 -59.192795498 67.387000000
v 91.786070691 -58.550795498 67.461000000
v 91.627070691 -57.313795499 67.426000000
v 35.112070691 -60.161795499 48.771000000
v 90.588070691 -81.269795499 48.843000000
v 76.679070691 -132.999795498 48.770000000
v 94.937070691 -56.866795499 69.892000000
v 94.399070691 -57.098795499 69.170000000
v 94.399070691 -57.098795499 69.900000000
v 95.106070691 -57.599795499 69.376000000
v 95.106070691 -57.599795499 69.929000000
v 95.040070691 -57.268795499 69.912000000
v 95.040070691 -57.268795499 69.408000000
v 95.469070691 -57.257795499 69.915000000
v 95.469070691 -57.257795499 69.285000000
v 96.168070691 -61.676795498 66.986000000
v 95.621070691 -59.539795498 68.243000000
v 92.993070691 -64.276795499 49.852000000
v 92.879070691 -63.699795499 49.832000000
v 92.749070691 -63.824795499 49.854000000
v 67.236070691 -43.940795499 49.686000000
v 67.236070691 -43.940795499 48.787000000
v 68.245070691 -46.066795499 48.870000000
v 68.245070691 -46.066795499 49.597000000
v 68.245070691 -46.066795499 49.654000000
v 74.723070691 -47.454795498 51.961000000
v 74.723070691 -47.454795498 50.795000000
v 69.759070691 -44.626795499 50.074000000
v 94.639070691 -61.184795499 67.481000000
v 71.039070691 -43.799795499 50.434000000
v 74.924070691 -60.152795498 49.420000000
v 93.724070691 -65.632795499 49.843000000
v 93.724070691 -65.632795499 47.840000000
v 95.075070691 -75.847795499 51.885000000
v 96.703070691 -70.518795499 47.596000000
v 96.555070691 -70.599795499 47.595000000
v 96.555070691 -70.599795499 47.776000000
v 91.963070691 -66.262795499 50.083000000
v 91.963070691 -66.262795499 49.811000000
v 91.738070691 -65.591795499 50.071000000
v 91.738070691 -65.591795499 49.673000000
v 116.281070691 -67.648795499 48.560000000
v 121.857070691 -64.547795499 48.648000000
v 94.106070691 -57.725795499 68.954000000
v 96.973070691 -70.370795499 47.598000000
v 96.826070691 -70.115795499 47.272000000
v 100.534070691 -55.516795498 66.238000000
v 99.094070691 -57.548795499 67.466000000
v 99.094070691 -57.548795499 67.277000000
v 98.128070691 -57.186795498 67.884000000
v 91.118070691 -65.385795498 50.145000000
v 91.118070691 -65.385795498 50.131000000
v 91.129070691 -65.375795498 50.129000000
v 91.536070691 -64.985795499 50.060000000
v 91.536070691 -64.985795499 49.547000000
v 91.139070691 -65.392795498 50.129000000
v 94.399070691 -78.062795498 50.026000000
v 95.075070691 -75.847795499 51.884000000
v 95.208070691 -75.799795499 51.910000000
v 95.247070691 -75.285795499 51.433000000
v 95.824070691 -73.218795499 49.740000000
v 95.824070691 -73.218795499 49.820000000
v 95.788070691 -73.514795499 50.008000000
v 116.104070691 -67.747795499 48.557000000
v 112.710070691 -66.224795499 52.023000000
v 98.683070691 -74.816795499 50.985000000
f 37 38 39
f 37 39 40
f 37 40 41
f 37 41 42
f 37 42 43
f 37 43 44
f 37 44 45
f 37 45 46
f 37 46 47
f 37 47 48
f 37 48 49
f 37 49 50
f 37 50 51
f 37 51 52
f 53 44 43
f 53 43 54
f 55 45 44
f 55 44 53
f 56 57 58
f 59 60 58
f 60 51 50
f 60 50 61
f 61 50 49
f 61 49 57
f 61 57 56
f 62 39 38
f 62 38 63
f 54 43 42
f 54 42 64
f 65 41 40
f 65 40 66
f 64 42 41
f 64 41 65
f 66 40 39
f 66 39 62
f 57 49 48
f 57 48 67
f 68 47 46
f 68 46 69
f 67 48 47
f 67 47 68
f 70 52 51
f 70 51 60
f 70 60 59
f 69 46 45
f 69 45 55
f 71 37 52
f 71 52 70
f 63 38 37
f 63 37 71
f 61 56 58
f 61 58 60
f 69 55 53
f 63 71 70
f 63 70 59
f 63 59 58
f 63 58 57
f 63 57 67
f 63 67 68
f 63 68 69
f 63 69 53
f 63 53 54
f 63 54 64
f 63 64 65
f 63 65 66
f 63 66 62
f 1 2 3
f 1 3 4
f 1 4 5
f 1 5 6
f 7 3 2
f 7 2 8
f 9 1 6
f 9 6 10
f 10 6 5
f 10 5 11
f 12 4 3
f 12 3 7
f 11 5 4
f 11 4 12
f 8 2 1
f 8 1 9
f 8 9 10
f 8 10 11
f 8 11 12
f 8 12 7
f 72 73 74
f 72 74 75
f 72 75 76
f 72 76 77
f 72 77 78
f 72 78 79
f 72 79 80
f 72 80 81
f 72 81 82
f 72 82 83
f 72 83 84
f 72 84 85
f 72 85 86
f 72 86 87
f 72 87 88
f 72 88 89
f 72 89 90
f 72 90 91
f 72 91 92
f 72 92 93
f 72 93 94
f 72 94 95
f 72 95 96
f 72 96 97
f 72 97 98
f 72 98 99
f 72 99 100
f 72 100 101
f 72 101 102
f 72 102 103
f 72 103 104
f 72 104 105
f 72 105 106
f 72 106 107
f 72 107 108
f 72 108 109
f 72 109 110
f 72 110 111
f 72 111 112
f 72 112 113
f 72 113 114
f 72 114 115
f 72 115 116
f 72 116 117
f 72 117 118
f 72 118 119
f 72 119 120
f 72 120 121
f 72 121 122
f 72 122 123
f 72 123 124
f 72 124 125
f 72 125 126
f 72 126 127
f 72 127 128
f 72 128 129
f 72 129 130
f 72 130 131
f 72 131 132
f 72 132 133
f 72 133 134
f 72 134 135
f 72 135 136
f 72 136 137
f 72 137 138
f 72 138 139
f 72 139 140
f 72 140 141
f 72 141 142
f 72 142 143
f 72 143 144
f 72 144 145
f 72 145 146
f 72 146 147
f 72 147 148
f 72 148 149
f 150 112 151
f 152 151 112
f 152 112 153
f 154 150 151
f 154 151 152
f 153 112 150
f 153 150 154
f 155 80 79
f 155 79 156
f 156 79 78
f 156 78 157
f 156 157 158
f 159 115 114
f 159 114 160
f 161 116 115
f 161 115 159
f 161 159 162
f 163 113 112
f 163 112 153
f 153 112 111
f 153 111 164
f 165 143 142
f 165 142 166
f 167 168 169
f 168 167 170
f 168 170 171
f 172 77 76
f 172 76 173
f 174 175 176
f 174 176 177
f 178 148 147
f 178 147 179
f 180 84 83
f 180 83 181
f 182 183 184
f 182 184 185
f 186 187 188
f 183 182 188
f 189 190 191
f 189 191 192
f 193 194 195
f 171 170 195
f 196 139 138
f 196 138 197
f 198 199 194
f 198 194 193
f 200 124 123
f 200 123 201
f 200 201 202
f 162 159 203
f 162 203 204
f 187 186 199
f 187 199 198
f 205 206 207
f 160 114 113
f 160 113 163
f 164 111 110
f 164 110 208
f 209 101 100
f 209 100 210
f 211 119 118
f 211 118 212
f 181 83 82
f 181 82 213
f 214 97 96
f 214 96 215
f 216 103 102
f 216 102 217
f 217 102 101
f 217 101 209
f 192 191 221
f 222 223 224
f 222 224 190
f 222 190 189
f 222 189 225
f 226 120 119
f 226 119 211
f 157 78 77
f 157 77 172
f 227 86 85
f 227 85 228
f 229 228 85
f 229 85 84
f 229 84 180
f 230 231 232
f 233 106 105
f 233 105 234
f 235 107 106
f 235 106 233
f 234 105 104
f 234 104 236
f 237 238 239
f 238 237 240
f 238 240 241
f 241 240 81
f 241 81 80
f 241 80 155
f 213 82 81
f 213 81 240
f 242 243 244
f 242 244 245
f 246 247 248
f 246 248 249
f 225 189 250
f 245 244 250
f 253 252 140
f 253 140 139
f 253 139 196
f 254 255 256
f 254 256 257
f 254 257 258
f 259 260 255
f 259 255 254
f 206 98 97
f 206 97 214
f 265 94 93
f 265 93 266
f 266 93 92
f 266 92 267
f 268 269 228
f 268 228 229
f 270 271 269
f 270 269 268
f 272 273 271
f 272 271 270
f 274 275 273
f 274 273 272
f 276 227 275
f 276 275 274
f 277 89 88
f 277 88 278
f 279 280 281
f 158 157 280
f 158 280 279
f 223 222 283
f 284 127 126
f 284 126 285
f 201 123 122
f 201 122 231
f 201 231 230
f 202 201 286
f 202 286 287
f 288 289 252
f 288 252 253
f 290 291 292
f 290 292 293
f 212 118 117
f 212 117 218
f 294 87 86
f 294 86 227
f 294 227 276
f 278 88 87
f 278 87 294
f 215 96 95
f 215 95 295
f 295 95 94
f 295 94 265
f 287 286 289
f 287 289 288
f 173 76 75
f 173 75 296
f 297 298 299
f 285 126 125
f 285 125 300
f 301 302 303
f 304 121 120
f 304 120 226
f 307 308 175
f 307 175 174
f 309 135 134
f 309 134 310
f 311 136 135
f 311 135 309
f 312 137 136
f 312 136 311
f 208 110 109
f 208 109 313
f 314 99 98
f 314 98 206
f 314 206 205
f 210 100 99
f 210 99 314
f 313 109 108
f 313 108 315
f 315 108 107
f 315 107 235
f 316 301 317
f 316 317 318
f 318 317 260
f 318 260 259
f 258 257 319
f 258 319 298
f 258 298 297
f 258 297 320
f 321 322 302
f 321 302 301
f 321 301 316
f 323 324 322
f 323 322 321
f 325 131 130
f 325 130 299
f 326 132 131
f 326 131 325
f 327 145 144
f 327 144 328
f 328 144 143
f 328 143 165
f 328 165 329
f 330 331 332
f 330 332 333
f 330 333 334
f 335 336 243
f 335 243 242
f 204 203 331
f 204 331 330
f 334 333 337
f 249 248 337
f 338 133 132
f 338 132 326
f 298 319 338
f 329 165 291
f 329 291 290
f 308 307 339
f 247 246 339
f 185 184 340
f 333 332 340
f 177 176 336
f 177 336 335
f 310 134 133
f 310 133 338
f 341 342 146
f 341 146 145
f 341 145 327
f 179 147 146
f 179 146 342
f 320 297 324
f 320 324 323
f 300 125 124
f 300 124 200
f 231 122 121
f 231 121 304
f 344 72 149
f 344 149 345
f 346 345 149
f 346 149 148
f 346 148 178
f 347 348 342
f 347 342 341
f 349 350 348
f 349 348 347
f 267 92 91
f 267 91 351
f 351 91 90
f 351 90 352
f 352 90 89
f 352 89 277
f 219 218 117
f 219 117 116
f 219 116 161
f 354 74 73
f 354 73 355
f 296 75 74
f 296 74 354
f 356 128 127
f 356 127 284
f 357 358 129
f 357 129 128
f 357 128 356
f 299 130 129
f 299 129 358
f 360 361 362
f 363 364 362
f 293 292 364
f 293 364 363
f 350 349 365
f 361 360 365
f 305 166 142
f 197 138 137
f 197 137 312
f 367 343 262
f 367 262 261
f 367 261 368
f 355 73 72
f 355 72 344
f 236 104 103
f 236 103 216
f 234 152 153
f 234 153 164
f 234 164 208
f 234 208 235
f 234 235 233
f 152 234 236
f 152 236 154
f 241 155 156
f 241 156 158
f 272 270 268
f 272 268 229
f 272 229 180
f 272 180 181
f 272 181 213
f 272 213 240
f 272 240 237
f 272 237 239
f 275 227 228
f 275 228 269
f 275 269 271
f 275 271 273
f 158 279 281
f 158 281 274
f 158 274 272
f 158 272 239
f 158 239 238
f 158 238 241
f 373 173 374
f 315 235 208
f 315 208 313
f 298 338 326
f 298 326 325
f 298 325 299
f 247 339 307
f 247 307 192
f 247 192 221
f 247 221 211
f 247 211 212
f 247 212 218
f 247 218 220
f 336 176 175
f 336 175 308
f 336 308 339
f 336 339 246
f 336 246 249
f 336 249 337
f 336 337 333
f 336 333 340
f 336 340 184
f 336 184 183
f 336 183 188
f 336 188 187
f 336 187 198
f 336 198 193
f 336 193 195
f 336 195 170
f 336 170 167
f 336 167 169
f 336 169 283
f 336 283 222
f 336 222 225
f 336 225 250
f 336 250 244
f 336 244 243
f 177 335 242
f 177 242 245
f 177 245 250
f 177 250 189
f 177 189 192
f 177 192 307
f 177 307 174
f 262 171 195
f 262 195 194
f 262 194 263
f 320 323 321
f 320 321 316
f 320 316 318
f 320 318 259
f 320 259 254
f 320 254 258
f 303 200 202
f 303 202 287
f 303 287 288
f 303 288 253
f 303 253 196
f 303 196 317
f 303 317 301
f 300 200 303
f 300 303 302
f 300 302 322
f 300 322 324
f 300 324 285
f 231 304 226
f 231 226 211
f 231 211 221
f 231 221 191
f 231 191 190
f 231 190 224
f 231 224 282
f 231 282 232
f 352 277 278
f 352 278 294
f 352 294 276
f 352 276 274
f 352 274 281
f 352 281 280
f 352 280 157
f 352 157 172
f 352 172 173
f 352 173 373
f 352 373 351
f 256 353 310
f 256 310 338
f 256 338 319
f 256 319 257
f 219 161 162
f 219 162 204
f 219 204 330
f 219 330 334
f 219 334 337
f 219 337 248
f 219 248 247
f 219 247 220
f 359 357 356
f 359 356 284
f 359 284 285
f 359 285 324
f 299 358 359
f 299 359 324
f 299 324 297
f 361 365 349
f 361 349 347
f 361 347 341
f 361 341 327
f 361 327 328
f 361 328 329
f 361 329 290
f 361 290 293
f 361 293 363
f 361 363 362
f 305 251 252
f 305 252 289
f 305 289 286
f 305 286 201
f 305 201 230
f 305 230 232
f 305 232 282
f 305 282 306
f 375 215 295
f 375 295 265
f 215 375 207
f 215 207 206
f 215 206 214
f 197 312 311
f 197 311 309
f 197 309 310
f 197 310 353
f 197 353 255
f 197 255 260
f 197 260 317
f 197 317 196
f 368 261 264
f 368 264 366
f 368 366 314
f 368 314 205
f 368 205 207
f 368 207 375
f 368 375 265
f 368 265 266
f 368 266 267
f 368 267 351
f 368 351 373
f 368 373 374
f 371 346 178
f 371 178 179
f 371 179 342
f 371 342 348
f 371 348 350
f 371 350 365
f 371 365 360
f 371 360 362
f 371 362 364
f 371 364 292
f 371 292 291
f 371 291 165
f 371 165 166
f 371 166 306
f 371 306 282
f 371 282 223
f 371 223 283
f 371 283 169
f 371 169 168
f 371 168 171
f 371 171 343
f 371 343 369
f 371 369 372
f 345 370 372
f 345 372 369
f 345 369 367
f 345 367 368
f 345 368 374
f 345 374 173
f 345 173 296
f 345 296 354
f 345 354 355
f 345 355 344
f 216 160 163
f 216 163 153
f 216 153 154
f 216 154 236
f 210 186 188
f 210 188 182
f 210 182 185
f 210 185 340
f 210 340 332
f 210 332 331
f 210 331 203
f 210 203 159
f 210 159 160
f 210 160 216
f 210 216 217
f 210 217 209
f 186 210 314
f 186 314 366
f 186 366 263
f 186 263 194
f 186 194 199
f 13 14 15
f 13 15 16
f 13 16 17
f 13 17 18
f 13 18 19
f 13 19 20
f 21 19 18
f 21 18 22
f 22 18 17
f 22 17 26
f 27 28 29
f 27 29 30
f 30 29 20
f 30 20 19
f 30 19 21
f 31 13 20
f 31 20 29
f 26 17 16
f 26 16 32
f 33 15 14
f 33 14 34
f 33 34 35
f 35 34 36
f 35 36 23
f 34 14 13
f 34 13 31
f 32 16 15
f 32 15 33
f 24 23 36
f 24 36 28
f 24 28 27
f 28 36 34
f 28 34 31
f 28 31 29
f 32 33 35
f 32 35 23
f 32 23 25
f 32 25 26
f 24 27 30
f 24 30 21
f 24 21 22
f 24 22 26
f 24 26 25
