v 1.057893791 7.653898255 84.709000000
v 1.185893791 8.335898255 84.709000000
v 1.885893791 12.064898254 84.709000000
v 14.143893791 10.042898254 84.709000000
v 14.174893791 7.923898255 84.709000000
v 13.848893791 6.244898255 84.709000000
v 13.148893791 2.644898254 84.709000000
v 1.028893791 4.539898255 84.709000000
v 1.185893791 8.335898255 92.219000000
v 1.057893791 7.653898255 91.402000000
v 1.028893791 4.539898255 87.778000000
v 13.148893791 2.644898254 87.905000000
v 13.848893791 6.244898255 92.224000000
v 1.885893791 12.064898254 87.736000000
v 14.174893791 7.923898255 90.204000000
v 14.143893791 10.042898254 87.739000000
v 18.822893791 11.823898255 84.709000000
v 8.892893791 13.763898254 84.709000000
v 8.998893791 17.032898255 84.709000000
v 18.921893791 15.399898255 84.709000000
v 18.822893791 11.823898255 87.587000000
v 18.921893791 15.399898255 86.749000000
v 8.998893791 17.032898255 86.715000000
v 8.892893791 13.763898254 87.483000000
f 1 2 3
f 1 3 4
f 1 4 5
f 1 5 6
f 1 6 7
f 1 7 8
f 9 2 1
f 9 1 10
f 10 1 8
f 10 8 11
f 12 7 6
f 12 6 13
f 11 8 7
f 11 7 12
f 14 3 2
f 14 2 9
f 13 6 5
f 13 5 15
f 15 5 4
f 15 4 16
f 16 4 3
f 16 3 14
f 11 12 13
f 11 13 9
f 11 9 10
f 16 14 9
f 16 9 13
f 16 13 15
f 17 18 19
f 17 19 20
f 21 17 20
f 21 20 22
f 22 20 19
f 22 19 23
f 23 19 18
f 23 18 24
f 24 18 17
f 24 17 21
f 24 21 22
f 24 22 23
