v 8.514148579 6.103211107 31.809000000
v 8.373148579 6.408211106 31.809000000
v 8.256148579 6.497211107 31.809000000
v 8.118148579 6.547211107 31.809000000
v 7.972148579 6.556211106 31.809000000
v 3.994148579 -1.817788893 31.809000000
v -4.040851421 -2.587788893 31.809000000
v -4.414851421 1.344211107 31.809000000
v -4.800851421 5.408211106 31.809000000
v 3.429148579 6.147211106 31.809000000
v 3.718148579 2.076211107 31.809000000
v -4.800851421 5.408211106 34.356000000
v -4.414851421 1.344211107 38.539000000
v -4.040851421 -2.587788893 34.581000000
v 3.994148579 -1.817788893 34.637000000
v 3.718148579 2.076211107 38.547000000
v 3.429148579 6.147211106 34.365000000
v 5.287148579 -2.203788893 31.809000000
v 5.098148579 6.297211107 31.809000000
v 9.292148579 -2.539788893 31.809000000
v 5.098148579 6.297211107 34.185000000
v 5.287148579 -2.203788893 34.037000000
v 9.292148579 -2.539788893 34.080000000
v 8.514148579 6.103211107 34.223000000
v 8.373148579 6.408211106 34.226000000
v 8.256148579 6.497211107 34.227000000
v 7.972148579 6.556211106 34.224000000
v 8.118148579 6.547211107 34.226000000
f 18 19 5
f 18 5 4
f 18 4 3
f 18 3 2
f 18 2 1
f 18 1 20
f 21 19 18
f 21 18 22
f 23 20 1
f 23 1 24
f 24 1 2
f 24 2 25
f 25 2 3
f 25 3 26
f 27 5 19
f 27 19 21
f 28 4 5
f 28 5 27
f 22 18 20
f 22 20 23
f 26 3 4
f 26 4 28
f 26 28 27
f 26 27 21
f 26 21 22
f 26 22 23
f 26 23 24
f 26 24 25
f 6 7 8
f 6 8 9
f 6 9 10
f 6 10 11
f 12 9 8
f 12 8 13
f 14 7 6
f 14 6 15
f 13 8 7
f 13 7 14
f 15 6 11
f 15 11 16
f 16 11 10
f 16 10 17
f 17 10 9
f 17 9 12
f 15 16 13
f 15 13 14
f 17 12 13
f 17 13 16
