v 20.478479915 14.017497987 51.540000000
v 20.465479915 14.260497987 51.540000000
v 20.339479915 14.468497987 51.540000000
v 20.263479915 14.530497988 51.540000000
v 20.176479915 14.575497988 51.540000000
v 20.082479915 14.603497988 51.540000000
v 5.124479915 10.112497987 51.540000000
v 6.962479915 16.489497988 51.540000000
v 19.533479915 13.056497987 51.540000000
v 19.860479915 14.647497987 51.540000000
v 17.982479915 1.150497987 51.540000000
v 14.799479915 1.700497988 51.540000000
v 12.838479915 -8.147502013 51.540000000
v 7.936479915 -7.104502013 51.540000000
v 3.539479915 -6.169502012 51.540000000
v 6.409479915 10.041497988 51.540000000
v 11.460479915 9.856497987 51.540000000
v 11.520479915 10.036497988 51.540000000
v 11.267479915 10.095497987 51.540000000
v 11.205479915 9.778497987 51.540000000
v 11.007479915 8.754497987 51.540000000
v 11.090479915 8.742497987 51.540000000
v 11.344479915 9.505497987 51.540000000
v 11.471479915 9.764497987 51.540000000
v 11.505479915 9.833497987 51.540000000
v 20.263479915 14.530497988 55.324000000
v 20.176479915 14.575497988 55.320000000
v 20.465479915 14.260497987 55.336000000
v 20.339479915 14.468497987 55.328000000
v 20.478479915 14.017497987 55.339000000
v 20.082479915 14.603497988 55.316000000
v 19.860479915 14.647497987 55.306000000
v 14.799479915 1.700497988 55.224000000
v 17.982479915 1.150497987 55.365000000
v 12.838479915 -8.147502013 55.242000000
v 19.533479915 13.056497987 55.309000000
v 6.962479915 16.489497988 54.740000000
v 7.936479915 -7.104502013 57.498000000
v 11.007479915 8.754497987 57.508000000
v 11.205479915 9.778497987 54.989000000
v 11.205479915 9.778497987 57.509000000
v 14.641479915 8.207497987 55.151000000
v 14.641479915 8.207497987 55.855000000
v 16.053479915 7.995497988 55.213000000
v 3.539479915 -6.169502012 55.479000000
v 6.409479915 10.041497988 55.371000000
v 6.409479915 10.041497988 54.783000000
v 5.124479915 10.112497987 54.727000000
v 12.204479915 12.098497988 55.246000000
v 12.204479915 12.098497988 55.007000000
v 11.520479915 10.036497988 55.000000000
v 11.520479915 10.036497988 55.414000000
v 11.267479915 10.095497987 54.988000000
v 11.090479915 8.742497987 57.471000000
v 11.344479915 9.505497987 57.424000000
v 11.659479915 9.754497987 57.307000000
v 11.659479915 9.754497987 55.435000000
v 11.471479915 9.764497987 55.435000000
v 11.471479915 9.764497987 57.391000000
v 11.505479915 9.833497987 55.430000000
v 11.460479915 9.856497987 55.428000000
v 13.945479915 8.568497987 55.511000000
v 13.945479915 8.568497987 55.117000000
v 14.433479915 9.350497987 55.130000000
v 14.433479915 9.350497987 55.446000000
v 13.945479915 8.568497987 56.194000000
v 15.626479915 9.069497988 55.184000000
v 15.626479915 9.069497988 55.459000000
v -3.023520085 14.187497987 51.540000000
v -3.759520085 10.649497988 51.540000000
v -4.758520085 11.073497987 51.540000000
v -4.155520085 14.311497987 51.540000000
v -3.759520085 10.649497988 54.440000000
v -3.023520085 14.187497987 54.426000000
v -4.758520085 11.073497987 55.306000000
v -4.155520085 14.311497987 55.349000000
f 69 70 71
f 69 71 72
f 73 70 69
f 73 69 74
f 75 71 70
f 75 70 73
f 74 69 72
f 74 72 76
f 76 72 71
f 76 71 75
f 76 75 73
f 76 73 74
f 7 8 9
f 7 9 10
f 7 10 6
f 7 6 5
f 7 5 4
f 7 4 3
f 7 3 2
f 7 2 1
f 7 1 11
f 7 11 12
f 7 12 13
f 7 13 14
f 7 14 15
f 7 15 16
f 17 18 19
f 17 19 20
f 17 20 21
f 17 21 22
f 17 22 23
f 17 23 24
f 17 24 25
f 26 4 5
f 26 5 27
f 28 2 3
f 28 3 29
f 30 1 2
f 30 2 28
f 27 5 6
f 27 6 31
f 29 3 4
f 29 4 26
f 31 6 10
f 31 10 32
f 33 12 11
f 33 11 34
f 35 13 12
f 35 12 33
f 36 9 8
f 36 8 37
f 38 14 13
f 38 13 35
f 32 10 9
f 32 9 36
f 39 21 20
f 39 20 40
f 39 40 41
f 34 11 1
f 34 1 30
f 42 43 44
f 45 15 14
f 45 14 38
f 46 47 16
f 46 16 15
f 46 15 45
f 48 7 16
f 48 16 47
f 37 8 7
f 37 7 48
f 41 40 47
f 41 47 46
f 49 50 51
f 49 51 52
f 53 19 18
f 53 18 51
f 54 22 21
f 54 21 39
f 55 23 22
f 55 22 54
f 40 20 19
f 40 19 53
f 56 57 58
f 56 58 59
f 59 58 24
f 59 24 23
f 59 23 55
f 60 25 24
f 60 24 58
f 61 17 25
f 61 25 60
f 62 63 64
f 62 64 65
f 43 42 63
f 43 63 62
f 43 62 66
f 66 62 57
f 66 57 56
f 65 64 67
f 65 67 68
f 52 51 18
f 52 18 17
f 52 17 61
f 68 67 50
f 68 50 49
f 68 49 52
f 68 52 61
f 68 61 60
f 68 60 58
f 68 58 57
f 68 57 62
f 68 62 65
f 38 39 41
f 38 41 46
f 38 46 45
f 39 38 35
f 39 35 33
f 39 33 44
f 39 44 43
f 39 43 66
f 39 66 56
f 39 56 59
f 39 59 55
f 39 55 54
f 50 67 64
f 50 64 63
f 50 63 42
f 50 42 44
f 50 44 33
f 50 33 34
f 50 34 30
f 50 30 28
f 50 28 29
f 50 29 26
f 50 26 27
f 50 27 31
f 50 31 32
f 50 32 36
f 50 36 37
f 50 37 48
f 50 48 47
f 50 47 40
f 50 40 53
f 50 53 51
