v 80.252039136 -112.885117534 59.849000000
v 80.256039136 -112.885117534 59.849000000
v 89.651039136 -114.365117534 59.849000000
v 89.699039136 -114.370117534 59.849000000
v 89.748039136 -114.371117533 59.849000000
v 89.797039136 -114.366117533 59.849000000
v 89.845039136 -114.357117534 59.849000000
v 89.893039136 -114.344117533 59.849000000
v 89.938039136 -114.325117534 59.849000000
v 89.981039136 -114.302117534 59.849000000
v 90.023039136 -114.276117533 59.849000000
v 90.061039136 -114.245117534 59.849000000
v 90.096039136 -114.210117534 59.849000000
v 90.127039136 -114.173117533 59.849000000
v 90.155039136 -114.132117534 59.849000000
v 90.178039136 -114.089117534 59.849000000
v 90.198039136 -114.044117534 59.849000000
v 90.212039136 -113.997117533 59.849000000
v 90.222039136 -113.949117534 59.849000000
v 90.227039136 -113.900117533 59.849000000
v 90.228039136 -113.851117534 59.849000000
v 76.928039136 218.865882467 59.849000000
v 76.924039136 218.912882467 59.849000000
v 76.915039136 218.959882466 59.849000000
v 76.902039136 219.005882466 59.849000000
v 76.885039136 219.049882466 59.849000000
v 76.863039136 219.092882467 59.849000000
v 76.838039136 219.132882467 59.849000000
v 76.809039136 219.169882466 59.849000000
v 76.776039136 219.204882466 59.849000000
v 76.740039136 219.236882467 59.849000000
v 76.702039136 219.263882467 59.849000000
v 76.661039136 219.288882466 59.849000000
v 76.617039136 219.308882467 59.849000000
v 76.572039136 219.324882466 59.849000000
v -167.187960864 292.731882466 59.849000000
v -167.234960864 292.742882466 59.849000000
v -167.283960864 292.749882466 59.849000000
v -167.332960864 292.752882467 59.849000000
v -167.381960864 292.749882466 59.849000000
v -167.429960864 292.742882466 59.849000000
v -167.477960864 292.730882467 59.849000000
v -167.523960864 292.713882467 59.849000000
v -167.568960864 292.692882466 59.849000000
v -167.610960864 292.667882467 59.849000000
v -167.649960864 292.637882466 59.849000000
v -167.685960864 292.604882467 59.849000000
v -167.718960864 292.568882466 59.849000000
v -167.747960864 292.528882466 59.849000000
v -167.772960864 292.486882467 59.849000000
v -167.793960864 292.442882466 59.849000000
v -167.810960864 292.395882467 59.849000000
v -167.821960864 292.348882467 59.849000000
v -167.828960864 292.299882466 59.849000000
v -201.949960864 -66.370117534 59.849000000
v -201.952960864 -66.420117534 59.849000000
v -201.949960864 -66.470117534 59.849000000
v -201.941960864 -66.520117533 59.849000000
v -201.928960864 -66.568117534 59.849000000
v -201.911960864 -66.615117534 59.849000000
v -201.889960864 -66.660117534 59.849000000
v -201.862960864 -66.703117534 59.849000000
v -201.832960864 -66.742117533 59.849000000
v -201.797960864 -66.779117534 59.849000000
v -201.759960864 -66.811117534 59.849000000
v -201.718960864 -66.840117534 59.849000000
v -201.675960864 -66.865117534 59.849000000
v -201.629960864 -66.885117534 59.849000000
v -201.581960864 -66.900117533 59.849000000
v -201.532960864 -66.911117533 59.849000000
v 41.880039136 -106.521117534 59.849000000
v 80.252039136 -112.885117534 60.189000000
v 80.256039136 -112.885117534 60.189000000
v 89.651039136 -114.365117534 60.189000000
v 89.699039136 -114.370117534 60.189000000
v 89.748039136 -114.371117533 60.189000000
v 89.797039136 -114.366117533 60.189000000
v 89.845039136 -114.357117534 60.189000000
v 89.893039136 -114.344117533 60.189000000
v 89.938039136 -114.325117534 60.189000000
v 89.981039136 -114.302117534 60.189000000
v 90.023039136 -114.276117533 60.189000000
v 90.061039136 -114.245117534 60.189000000
v 90.096039136 -114.210117534 60.189000000
v 90.127039136 -114.173117533 60.189000000
v 90.155039136 -114.132117534 60.189000000
v 90.178039136 -114.089117534 60.189000000
v 90.198039136 -114.044117534 60.189000000
v 90.212039136 -113.997117533 60.189000000
v 90.222039136 -113.949117534 60.189000000
v 90.227039136 -113.900117533 60.189000000
v 90.228039136 -113.851117534 60.189000000
v 76.928039136 218.865882467 60.189000000
v 76.924039136 218.912882467 60.189000000
v 76.915039136 218.959882466 60.189000000
v 76.902039136 219.005882466 60.189000000
v 76.885039136 219.049882466 60.189000000
v 76.863039136 219.092882467 60.189000000
v 76.838039136 219.132882467 60.189000000
v 76.809039136 219.169882466 60.189000000
v 76.776039136 219.204882466 60.189000000
v 76.740039136 219.236882467 60.189000000
v 76.702039136 219.263882467 60.189000000
v 76.661039136 219.288882466 60.189000000
v 76.617039136 219.308882467 60.189000000
v 76.572039136 219.324882466 60.189000000
v -167.187960864 292.731882466 60.189000000
v -167.234960864 292.742882466 60.189000000
v -167.283960864 292.749882466 60.189000000
v -167.332960864 292.752882467 60.189000000
v -167.381960864 292.749882466 60.189000000
v -167.429960864 292.742882466 60.189000000
v -167.477960864 292.730882467 60.189000000
v -167.523960864 292.713882467 60.189000000
v -167.568960864 292.692882466 60.189000000
v -167.610960864 292.667882467 60.189000000
v -167.649960864 292.637882466 60.189000000
v -167.685960864 292.604882467 60.189000000
v -167.718960864 292.568882466 60.189000000
v -167.747960864 292.528882466 60.189000000
v -167.772960864 292.486882467 60.189000000
v -167.793960864 292.442882466 60.189000000
v -167.810960864 292.395882467 60.189000000
v -167.821960864 292.348882467 60.189000000
v -167.828960864 292.299882466 60.189000000
v -201.949960864 -66.370117534 60.189000000
v -201.952960864 -66.420117534 60.189000000
v -201.949960864 -66.470117534 60.189000000
v -201.941960864 -66.520117533 60.189000000
v -201.928960864 -66.568117534 60.189000000
v -201.911960864 -66.615117534 60.189000000
v -201.889960864 -66.660117534 60.189000000
v -201.862960864 -66.703117534 60.189000000
v -201.832960864 -66.742117533 60.189000000
v -201.797960864 -66.779117534 60.189000000
v -201.759960864 -66.811117534 60.189000000
v -201.718960864 -66.840117534 60.189000000
v -201.675960864 -66.865117534 60.189000000
v -201.629960864 -66.885117534 60.189000000
v -201.581960864 -66.900117533 60.189000000
v -201.532960864 -66.911117533 60.189000000
v 41.880039136 -106.521117534 60.189000000
f 72 73 74
f 72 74 75
f 72 75 76
f 72 76 77
f 72 77 78
f 72 78 79
f 72 79 80
f 72 80 81
f 72 81 82
f 72 82 83
f 72 83 84
f 72 84 85
f 72 85 86
f 72 86 87
f 72 87 88
f 72 88 89
f 72 89 90
f 72 90 91
f 72 91 92
f 72 92 93
f 72 93 94
f 72 94 95
f 72 95 96
f 72 96 97
f 72 97 98
f 72 98 99
f 72 99 100
f 72 100 101
f 72 101 102
f 72 102 103
f 72 103 104
f 72 104 105
f 72 105 106
f 72 106 107
f 72 107 108
f 72 108 109
f 72 109 110
f 72 110 111
f 72 111 112
f 72 112 113
f 72 113 114
f 72 114 115
f 72 115 116
f 72 116 117
f 72 117 118
f 72 118 119
f 72 119 120
f 72 120 121
f 72 121 122
f 72 122 123
f 72 123 124
f 72 124 125
f 72 125 126
f 72 126 127
f 72 127 128
f 72 128 129
f 72 129 130
f 72 130 131
f 72 131 132
f 72 132 133
f 72 133 134
f 72 134 135
f 72 135 136
f 72 136 137
f 72 137 138
f 72 138 139
f 72 139 140
f 72 140 141
f 72 141 142
f 71 1 72
f 71 72 142
f 1 2 73
f 1 73 72
f 2 3 74
f 2 74 73
f 3 4 75
f 3 75 74
f 4 5 76
f 4 76 75
f 5 6 77
f 5 77 76
f 6 7 78
f 6 78 77
f 7 8 79
f 7 79 78
f 8 9 80
f 8 80 79
f 9 10 81
f 9 81 80
f 10 11 82
f 10 82 81
f 11 12 83
f 11 83 82
f 12 13 84
f 12 84 83
f 13 14 85
f 13 85 84
f 14 15 86
f 14 86 85
f 15 16 87
f 15 87 86
f 16 17 88
f 16 88 87
f 17 18 89
f 17 89 88
f 18 19 90
f 18 90 89
f 19 20 91
f 19 91 90
f 20 21 92
f 20 92 91
f 21 22 93
f 21 93 92
f 22 23 94
f 22 94 93
f 23 24 95
f 23 95 94
f 24 25 96
f 24 96 95
f 25 26 97
f 25 97 96
f 26 27 98
f 26 98 97
f 27 28 99
f 27 99 98
f 28 29 100
f 28 100 99
f 29 30 101
f 29 101 100
f 30 31 102
f 30 102 101
f 31 32 103
f 31 103 102
f 32 33 104
f 32 104 103
f 33 34 105
f 33 105 104
f 34 35 106
f 34 106 105
f 35 36 107
f 35 107 106
f 36 37 108
f 36 108 107
f 37 38 109
f 37 109 108
f 38 39 110
f 38 110 109
f 39 40 111
f 39 111 110
f 40 41 112
f 40 112 111
f 41 42 113
f 41 113 112
f 42 43 114
f 42 114 113
f 43 44 115
f 43 115 114
f 44 45 116
f 44 116 115
f 45 46 117
f 45 117 116
f 46 47 118
f 46 118 117
f 47 48 119
f 47 119 118
f 48 49 120
f 48 120 119
f 49 50 121
f 49 121 120
f 50 51 122
f 50 122 121
f 51 52 123
f 51 123 122
f 52 53 124
f 52 124 123
f 53 54 125
f 53 125 124
f 54 55 126
f 54 126 125
f 55 56 127
f 55 127 126
f 56 57 128
f 56 128 127
f 57 58 129
f 57 129 128
f 58 59 130
f 58 130 129
f 59 60 131
f 59 131 130
f 60 61 132
f 60 132 131
f 61 62 133
f 61 133 132
f 62 63 134
f 62 134 133
f 63 64 135
f 63 135 134
f 64 65 136
f 64 136 135
f 65 66 137
f 65 137 136
f 66 67 138
f 66 138 137
f 67 68 139
f 67 139 138
f 68 69 140
f 68 140 139
f 69 70 141
f 69 141 140
f 70 71 142
f 70 142 141
f 71 70 69
f 71 69 68
f 71 68 67
f 71 67 66
f 71 66 65
f 71 65 64
f 71 64 63
f 71 63 62
f 71 62 61
f 71 61 60
f 71 60 59
f 71 59 58
f 71 58 57
f 71 57 56
f 71 56 55
f 71 55 54
f 71 54 53
f 71 53 52
f 71 52 51
f 71 51 50
f 71 50 49
f 71 49 48
f 71 48 47
f 71 47 46
f 71 46 45
f 71 45 44
f 71 44 43
f 71 43 42
f 71 42 41
f 71 41 40
f 71 40 39
f 71 39 38
f 71 38 37
f 71 37 36
f 71 36 35
f 71 35 34
f 71 34 33
f 71 33 32
f 71 32 31
f 71 31 30
f 71 30 29
f 71 29 28
f 71 28 27
f 71 27 26
f 71 26 25
f 71 25 24
f 71 24 23
f 71 23 22
f 71 22 21
f 71 21 20
f 71 20 19
f 71 19 18
f 71 18 17
f 71 17 16
f 71 16 15
f 71 15 14
f 71 14 13
f 71 13 12
f 71 12 11
f 71 11 10
f 71 10 9
f 71 9 8
f 71 8 7
f 71 7 6
f 71 6 5
f 71 5 4
f 71 4 3
f 71 3 2
f 71 2 1
