v 11.657278348 9.770386466 94.879000000
v 10.823278348 12.495386466 94.879000000
v 20.846278348 14.114386466 94.879000000
v 20.634278348 11.247386466 94.879000000
v 10.823278348 12.495386466 99.915000000
v 11.657278348 9.770386466 99.062000000
v 20.634278348 11.247386466 99.074000000
v 20.846278348 14.114386466 99.919000000
v -14.761721652 -83.853613534 94.879000000
v -12.444721652 -86.418613533 94.879000000
v -13.787721652 -87.589613534 94.879000000
v -16.233721652 -85.166613534 94.879000000
v -12.444721652 -86.418613533 96.459000000
v -14.761721652 -83.853613534 96.557000000
v -13.787721652 -87.589613534 96.022000000
v -16.233721652 -85.166613534 96.072000000
v -18.084721652 -21.588613533 94.879000000
v -18.081721652 -20.600613534 94.879000000
v -18.077721652 -19.266613534 94.879000000
v -14.711721652 -19.160613534 94.879000000
v -14.077721652 -19.023613534 94.879000000
v -13.991721652 -18.933613534 94.879000000
v -13.606721652 -18.530613534 94.879000000
v -13.507721652 -18.900613533 94.879000000
v -9.682721652 -18.074613534 94.879000000
v -5.366721652 -17.143613534 94.879000000
v -4.693721652 -18.607613534 94.879000000
v -5.031721652 -18.972613534 94.879000000
v -3.765721652 -26.587613534 94.879000000
v -3.636721652 -27.363613534 94.879000000
v -0.660721652 -26.820613534 94.879000000
v 0.598278348 -30.392613534 94.879000000
v 0.259278348 -30.452613533 94.879000000
v 1.047278348 -36.976613534 94.879000000
v -0.756721652 -37.134613534 94.879000000
v -3.353721652 -37.613613534 94.879000000
v -8.486721652 -38.561613534 94.879000000
v -8.965721652 -33.799613534 94.879000000
v -9.090721652 -33.650613533 94.879000000
v -8.981721652 -33.634613534 94.879000000
v -9.504721652 -28.435613533 94.879000000
v -12.769721652 -29.031613533 94.879000000
v -13.276721652 -26.122613533 94.879000000
v -13.500721652 -24.840613534 94.879000000
v -13.633721652 -24.077613533 94.879000000
v -13.760721652 -23.349613533 94.879000000
v -17.099721652 -24.976613534 94.879000000
v -17.748721652 -24.000613534 94.879000000
v -19.203721652 -21.813613534 94.879000000
v -15.278721652 -22.634613534 100.643000000
v -15.278721652 -22.634613534 99.603000000
v -15.886721652 -23.315613533 99.602000000
v -15.886721652 -23.315613533 100.098000000
v -4.693721652 -18.607613534 99.141000000
v -5.366721652 -17.143613534 99.492000000
v -8.981721652 -33.634613534 101.693000000
v -8.981721652 -33.634613534 98.664000000
v -8.981721652 -33.634613534 98.619000000
v -8.965721652 -33.799613534 98.489000000
v -8.965721652 -33.799613534 98.655000000
v -8.965721652 -33.799613534 101.557000000
v -13.606721652 -18.530613534 99.855000000
v -13.991721652 -18.933613534 99.477000000
v -9.090721652 -33.650613533 98.620000000
v -12.769721652 -29.031613533 99.044000000
v -9.504721652 -28.435613533 98.948000000
v -9.504721652 -28.435613533 101.839000000
v -13.760721652 -23.349613533 99.740000000
v -13.633721652 -24.077613533 99.037000000
v -3.636721652 -27.363613534 101.553000000
v -3.765721652 -26.587613534 99.485000000
v -3.765721652 -26.587613534 101.551000000
v -0.660721652 -26.820613534 99.040000000
v -17.099721652 -24.976613534 98.725000000
v -9.682721652 -18.074613534 103.176000000
v -13.507721652 -18.900613533 99.884000000
v -7.962721652 -28.153613534 100.253000000
v -7.962721652 -28.153613534 103.159000000
v -13.276721652 -26.122613533 99.040000000
v -6.056721652 -33.209613534 101.647000000
v -6.056721652 -33.209613534 101.123000000
v -5.941721652 -33.102613534 101.232000000
v -5.941721652 -33.102613534 101.570000000
v -6.557721652 -32.302613534 100.837000000
v -8.486721652 -38.561613534 98.395000000
v -3.353721652 -37.613613534 102.738000000
v -13.633721652 -24.077613533 101.384000000
v -13.500721652 -24.840613534 102.089000000
v -12.993721652 -23.286613534 100.757000000
v -12.993721652 -23.286613534 99.682000000
v -13.276721652 -26.122613533 100.996000000
v -10.495721652 -24.762613534 101.543000000
v -10.495721652 -24.762613534 101.714000000
v -13.281721652 -19.742613534 100.358000000
v -13.281721652 -19.742613534 99.951000000
v -13.401721652 -19.292613533 99.915000000
v -15.003721652 -22.712613534 100.528000000
v -15.003721652 -22.712613534 100.174000000
v -15.003721652 -22.712613534 99.613000000
v -14.020721652 -21.348613534 99.108000000
v -14.020721652 -21.348613534 99.609000000
v -14.484721652 -21.992613534 99.611000000
v -12.998721652 -22.253613533 100.065000000
v -12.998721652 -22.253613533 99.826000000
v -13.240721652 -22.092613534 99.648000000
v -13.240721652 -22.092613534 99.886000000
v -13.295721652 -21.825613534 99.640000000
v 0.598278348 -30.392613534 98.502000000
v -5.116721652 -27.117613534 102.731000000
v -5.116721652 -27.117613534 100.671000000
v -6.291721652 -27.578613534 101.703000000
v 0.259278348 -30.452613533 98.789000000
v 1.047278348 -36.976613534 99.044000000
v -0.756721652 -37.134613534 100.544000000
v -14.077721652 -19.023613534 99.547000000
v -14.711721652 -19.160613534 99.566000000
v -18.077721652 -19.266613534 99.087000000
v -18.081721652 -20.600613534 100.337000000
v -12.614721652 -22.509613534 100.353000000
v -12.614721652 -22.509613534 100.107000000
v -12.998721652 -22.253613533 100.652000000
v -12.509721652 -22.620613534 100.233000000
v -12.509721652 -22.620613534 100.178000000
v -12.496721652 -22.671613534 100.183000000
v -10.829721652 -24.406613533 102.056000000
v -10.829721652 -24.406613533 101.317000000
v -11.475721652 -23.719613533 100.879000000
v -11.475721652 -23.719613533 101.351000000
v -5.031721652 -18.972613534 99.470000000
v -17.748721652 -24.000613534 99.740000000
v -17.748721652 -24.000613534 99.565000000
v -19.203721652 -21.813613534 99.475000000
v -18.084721652 -21.588613533 99.501000000
v -13.711721652 -19.819613534 99.583000000
v -13.711721652 -19.819613534 100.356000000
v -13.534721652 -20.673613533 99.608000000
v -7.963721652 -34.990613534 99.313000000
v -7.963721652 -34.990613534 100.454000000
v -7.155721652 -31.862613534 100.406000000
v -6.247721652 -27.840613534 101.703000000
v -14.577721652 -22.834613534 100.349000000
v -14.577721652 -22.834613534 100.345000000
v 23.805278348 -12.231613534 94.879000000
v 23.557278348 -12.271613534 94.879000000
v 22.955278348 -5.821613533 94.879000000
v 25.441278348 -5.421613534 94.879000000
v 26.037278348 -4.761613534 94.879000000
v 27.222278348 -4.681613534 94.879000000
v 27.496278348 -4.662613533 94.879000000
v 27.106278348 -3.986613533 94.879000000
v 27.048278348 -3.640613534 94.879000000
v 27.354278348 -3.301613534 94.879000000
v 27.034278348 -1.473613534 94.879000000
v 26.843278348 -0.377613534 94.879000000
v 25.835278348 5.384386466 94.879000000
v 29.620278348 5.452386466 94.879000000
v 28.275278348 13.558386466 94.879000000
v 32.618278348 14.351386466 94.879000000
v 37.822278348 15.302386466 94.879000000
v 37.613278348 12.105386466 94.879000000
v 37.544278348 11.050386466 94.879000000
v 38.292278348 11.162386466 94.879000000
v 38.074278348 8.099386467 94.879000000
v 39.503278348 7.069386466 94.879000000
v 35.189278348 6.146386466 94.879000000
v 35.265278348 5.423386467 94.879000000
v 36.186278348 5.320386467 94.879000000
v 35.355278348 4.559386467 94.879000000
v 35.467278348 3.472386466 94.879000000
v 35.582278348 2.373386466 94.879000000
v 36.389278348 2.496386467 94.879000000
v 35.677278348 1.458386466 94.879000000
v 35.719278348 1.053386467 94.879000000
v 37.002278348 0.701386467 94.879000000
v 37.070278348 0.782386466 94.879000000
v 37.159278348 0.658386466 94.879000000
v 37.322278348 0.613386466 94.879000000
v 37.658278348 0.521386466 94.879000000
v 38.659278348 0.689386467 94.879000000
v 38.367278348 -0.661613534 94.879000000
v 39.559278348 -0.851613534 94.879000000
v 39.083278348 -1.823613534 94.879000000
v 38.973278348 -1.863613534 94.879000000
v 39.176278348 -2.145613533 94.879000000
v 39.448278348 -2.523613534 94.879000000
v 38.712278348 -2.582613533 94.879000000
v 38.068278348 -3.898613534 94.879000000
v 36.679278348 -3.538613534 94.879000000
v 36.422278348 -3.589613534 94.879000000
v 34.447278348 -3.983613534 94.879000000
v 34.310278348 -4.201613533 94.879000000
v 32.863278348 -4.299613534 94.879000000
v 31.994278348 -4.473613534 94.879000000
v 32.061278348 -4.874613534 94.879000000
v 32.934278348 -8.090613534 94.879000000
v 33.068278348 -8.583613534 94.879000000
v 33.094278348 -9.033613534 94.879000000
v 33.276278348 -12.214613534 94.879000000
v 33.394278348 -14.277613534 94.879000000
v 28.994278348 -15.321613533 94.879000000
v 28.776278348 -15.373613534 94.879000000
v 24.608278348 -15.873613534 94.879000000
v 27.222278348 -4.681613534 101.267000000
v 26.037278348 -4.761613534 101.175000000
v 24.608278348 -15.873613534 99.647000000
v 28.776278348 -15.373613534 103.155000000
v 27.048278348 -3.640613534 99.789000000
v 27.106278348 -3.986613533 99.789000000
v 35.716278348 -2.719613533 100.910000000
v 35.716278348 -2.719613533 100.456000000
v 35.792278348 -3.193613534 100.459000000
v 38.973278348 -1.863613534 97.663000000
v 39.083278348 -1.823613534 97.568000000
v 37.002278348 0.701386467 100.688000000
v 35.719278348 1.053386467 100.234000000
v 37.070278348 0.782386466 100.633000000
v 34.403278348 3.687386466 101.406000000
v 34.403278348 3.687386466 100.642000000
v 32.493278348 1.939386467 102.452000000
v 32.493278348 1.939386467 102.644000000
v 33.094278348 -9.033613534 102.265000000
v 33.068278348 -8.583613534 101.905000000
v 27.295278348 -5.123613534 103.344000000
v 27.295278348 -5.123613534 101.600000000
v 25.441278348 -5.421613534 101.583000000
v 25.441278348 -5.421613534 101.773000000
v 35.719278348 1.053386467 101.485000000
v 35.677278348 1.458386466 101.849000000
v 37.613278348 12.105386466 100.340000000
v 37.822278348 15.302386466 99.725000000
v 32.618278348 14.351386466 104.156000000
v 39.559278348 -0.851613534 97.042000000
v 32.934278348 -8.090613534 101.496000000
v 32.934278348 -8.090613534 99.125000000
v 30.437278348 -8.129613534 101.178000000
v 32.061278348 -4.874613534 99.402000000
v 27.034278348 -1.473613534 100.076000000
v 27.034278348 -1.473613534 97.344000000
v 27.354278348 -3.301613534 100.088000000
v 27.496278348 -4.662613533 100.017000000
v 35.450278348 1.127386467 101.587000000
v 35.450278348 1.127386467 100.139000000
v 32.573278348 1.917386467 102.673000000
v 32.573278348 1.917386467 102.390000000
v 33.394278348 -14.277613534 99.591000000
v 33.276278348 -12.214613534 99.407000000
v 28.994278348 -15.321613533 103.342000000
v 36.186278348 5.320386467 98.951000000
v 35.265278348 5.423386467 99.692000000
v 35.189278348 6.146386466 99.653000000
v 34.447278348 -3.983613534 101.674000000
v 36.422278348 -3.589613534 99.998000000
v 34.310278348 -4.201613533 101.816000000
v 28.275278348 13.558386466 100.434000000
v 39.176278348 -2.145613533 100.928000000
v 38.973278348 -1.863613534 100.697000000
v 29.620278348 5.452386466 103.164000000
v 29.620278348 5.452386466 100.444000000
v 25.835278348 5.384386466 100.031000000
v 26.843278348 -0.377613534 97.335000000
v 26.843278348 -0.377613534 100.069000000
v 30.321278348 5.465386466 103.744000000
v 30.321278348 5.465386466 101.029000000
v 32.158278348 5.498386466 102.231000000
v 32.158278348 5.498386466 102.562000000
v 31.959278348 5.494386466 102.396000000
v 30.182278348 -4.834613534 102.210000000
v 30.182278348 -4.834613534 100.937000000
v 31.994278348 -4.473613534 99.403000000
v 31.994278348 -4.473613534 103.755000000
v 32.863278348 -4.299613534 103.018000000
v 27.496278348 -4.662613533 103.116000000
v 27.222278348 -4.681613534 103.344000000
v 37.159278348 0.658386466 100.743000000
v 37.658278348 0.521386466 100.920000000
v 37.322278348 0.613386466 100.801000000
v 37.322278348 0.613386466 101.041000000
v 38.712278348 -2.582613533 100.592000000
v 39.448278348 -2.523613534 100.538000000
v 38.307278348 -0.937613534 98.081000000
v 38.307278348 -0.937613534 99.934000000
v 35.189278348 6.146386466 103.166000000
v 39.503278348 7.069386466 99.475000000
v 38.352278348 -0.732613534 99.790000000
v 38.352278348 -0.732613534 98.016000000
v 38.367278348 -0.661613534 97.994000000
v 38.367278348 -0.661613534 99.846000000
v 37.219278348 0.448386466 100.919000000
v 23.805278348 -12.231613534 99.486000000
v 22.955278348 -5.821613533 99.667000000
v 35.257278348 0.119386466 100.915000000
v 35.257278348 0.119386466 100.437000000
v 35.348278348 -0.439613534 100.441000000
v 35.618278348 -2.111613533 100.452000000
v 35.355278348 4.559386467 99.739000000
v 35.467278348 3.472386466 99.798000000
v 35.162278348 0.708386466 100.433000000
v 29.396278348 -4.757613534 101.572000000
v 36.679278348 -3.538613534 100.007000000
v 38.068278348 -3.898613534 99.467000000
v 36.389278348 2.496386467 102.671000000
v 35.582278348 2.373386466 102.671000000
v 38.659278348 0.689386467 100.922000000
v 38.074278348 8.099386467 100.513000000
v 34.021278348 5.896386466 100.647000000
v 34.021278348 5.896386466 104.166000000
v 35.467278348 3.472386466 101.725000000
v 23.557278348 -12.271613534 99.276000000
v 29.487278348 -0.936613534 99.459000000
v 29.487278348 -0.936613534 102.174000000
v 29.385278348 -1.049613534 99.358000000
v 29.385278348 -1.049613534 102.074000000
v 38.292278348 11.162386466 103.085000000
v 37.544278348 11.050386466 103.076000000
v 37.613278348 12.105386466 102.211000000
v 34.725278348 10.630386466 102.930000000
v 34.725278348 10.630386466 103.045000000
v 34.631278348 10.582386467 103.014000000
v 29.359278348 -4.536613534 101.572000000
v 29.397278348 -9.652613534 102.238000000
v 36.259278348 -1.086613534 99.783000000
v 43.374278348 23.293386466 94.879000000
v 35.291278348 22.728386466 94.879000000
v 34.858278348 24.917386467 94.879000000
v 34.416278348 27.155386467 94.879000000
v 42.472278348 28.548386467 94.879000000
v 42.876278348 26.195386467 94.879000000
v 34.858278348 24.917386467 101.217000000
v 35.291278348 22.728386466 100.541000000
v 34.416278348 27.155386467 100.474000000
v 42.472278348 28.548386467 100.439000000
v 43.374278348 23.293386466 100.324000000
v 42.876278348 26.195386467 101.217000000
v -7.561721652 7.720386466 94.879000000
v 8.316278348 10.373386466 94.879000000
v 10.289278348 -0.893613534 94.879000000
v 10.208278348 -0.906613533 94.879000000
v -5.552721652 -3.350613534 94.879000000
v -7.843721652 7.673386467 94.879000000
v 10.208278348 -0.906613533 100.178000000
v 10.289278348 -0.893613534 100.109000000
v 8.316278348 10.373386466 100.184000000
v -5.552721652 -3.350613534 100.324000000
v -7.561721652 7.720386466 100.200000000
v -7.843721652 7.673386467 99.962000000
v -5.552721652 -3.350613534 100.346000000
v -2.236721652 2.818386466 103.899000000
v 4.882278348 4.011386466 103.889000000
v 37.061278348 -51.805613534 94.879000000
v 35.229278348 -52.318613534 94.879000000
v 34.677278348 -52.473613534 94.879000000
v 33.443278348 -52.493613534 94.879000000
v 31.926278348 -52.517613534 94.879000000
v 27.085278348 -52.594613533 94.879000000
v 27.003278348 -51.866613533 94.879000000
v 25.753278348 -51.872613533 94.879000000
v 24.232278348 -51.833613534 94.879000000
v 23.177278348 -51.806613534 94.879000000
v 23.190278348 -51.885613534 94.879000000
v 18.559278348 -51.907613534 94.879000000
v 18.339278348 -49.752613534 94.879000000
v 16.319278348 -50.154613534 94.879000000
v 15.421278348 -50.333613534 94.879000000
v 14.618278348 -50.345613534 94.879000000
v 11.333278348 -50.397613534 94.879000000
v 8.530278348 -50.441613534 94.879000000
v 8.010278348 -46.449613534 94.879000000
v 7.431278348 -41.999613534 94.879000000
v 8.632278348 -41.411613534 94.879000000
v 10.511278348 -40.492613534 94.879000000
v 10.579278348 -40.856613534 94.879000000
v 17.400278348 -40.549613534 94.879000000
v 17.682278348 -43.314613534 94.879000000
v 25.888278348 -42.033613534 94.879000000
v 26.098278348 -43.891613534 94.879000000
v 26.208278348 -43.967613534 94.879000000
v 29.409278348 -43.657613534 94.879000000
v 29.292278348 -43.122613533 94.879000000
v 36.263278348 -42.611613533 94.879000000
v 36.633278348 -46.875613534 94.879000000
v 34.677278348 -52.473613534 100.375000000
v 35.229278348 -52.318613534 98.257000000
v 35.229278348 -52.318613534 99.840000000
v 18.142278348 -47.818613534 99.973000000
v 18.142278348 -47.818613534 102.564000000
v 17.986278348 -46.287613533 101.289000000
v 17.834278348 -44.801613534 102.565000000
v 7.431278348 -41.999613534 98.868000000
v 8.010278348 -46.449613534 102.578000000
v 16.319278348 -50.154613534 98.261000000
v 18.339278348 -49.752613534 98.312000000
v 8.530278348 -50.441613534 99.132000000
v 11.333278348 -50.397613534 98.769000000
v 26.208278348 -43.967613534 100.537000000
v 26.208278348 -43.967613534 98.720000000
v 26.098278348 -43.891613534 100.459000000
v 18.339278348 -49.752613534 100.917000000
v 22.664278348 -48.795613534 101.437000000
v 22.664278348 -48.795613534 101.085000000
v 22.583278348 -48.773613534 101.115000000
v 22.583278348 -48.773613534 101.369000000
v 14.118278348 -47.165613534 101.101000000
v 14.118278348 -47.165613534 101.444000000
v 14.550278348 -47.133613533 101.066000000
v 13.741278348 -47.192613534 101.131000000
v 32.878278348 -49.396613534 101.429000000
v 32.878278348 -49.396613534 100.976000000
v 32.091278348 -49.880613534 100.688000000
v 18.559278348 -51.907613534 99.081000000
v 23.190278348 -51.885613534 98.422000000
v 21.716278348 -51.769613534 98.735000000
v 21.716278348 -51.769613534 100.223000000
v 36.633278348 -46.875613534 102.530000000
v 36.263278348 -42.611613533 98.987000000
v 23.177278348 -51.806613534 98.490000000
v 23.177278348 -51.806613534 101.488000000
v 23.507278348 -49.018613534 100.775000000
v 26.382278348 -46.395613533 100.731000000
v 26.382278348 -46.395613533 102.550000000
v 26.505278348 -47.472613534 101.630000000
v 26.627278348 -48.548613533 100.712000000
v 26.627278348 -48.548613533 102.528000000
v 17.682278348 -43.314613534 101.331000000
v 17.682278348 -43.314613534 98.811000000
v 17.400278348 -40.549613534 99.036000000
v 10.579278348 -40.856613534 96.357000000
v 10.579278348 -40.856613534 98.363000000
v 11.266278348 -44.574613534 99.477000000
v 11.266278348 -44.574613534 101.489000000
v 10.511278348 -40.492613534 96.051000000
v 25.888278348 -42.033613534 98.908000000
v 14.618278348 -50.345613534 101.474000000
v 15.421278348 -50.333613534 100.778000000
v 16.319278348 -50.154613534 99.976000000
v 15.140278348 -47.563613534 100.618000000
v 25.753278348 -51.872613533 98.058000000
v 27.003278348 -51.866613533 97.880000000
v 27.003278348 -51.866613533 99.755000000
v 31.926278348 -52.517613534 98.547000000
v 31.926278348 -52.517613534 100.199000000
v 31.842278348 -50.239613534 100.426000000
v 33.443278348 -52.493613534 101.509000000
v 24.232278348 -51.833613534 98.313000000
v 24.232278348 -51.833613534 100.620000000
v 24.050278348 -49.389613533 100.385000000
v 27.085278348 -52.594613533 99.147000000
v 29.292278348 -43.122613533 98.450000000
v 26.108278348 -43.977613534 100.531000000
v 26.108278348 -43.977613534 98.714000000
v 33.069278348 -49.279613534 101.232000000
v 33.069278348 -49.279613534 101.046000000
v 37.061278348 -51.805613534 98.427000000
v 29.409278348 -43.657613534 98.904000000
v 8.632278348 -41.411613534 96.546000000
v 8.632278348 -41.411613534 98.552000000
v 11.017278348 -44.395613533 99.298000000
v 11.017278348 -44.395613533 101.309000000
v 39.312278348 31.532386466 94.879000000
v 38.388278348 36.864386466 94.879000000
v 40.579278348 37.570386467 94.879000000
v 41.853278348 31.224386467 94.879000000
v 38.388278348 36.864386466 100.445000000
v 39.312278348 31.532386466 100.438000000
v 40.579278348 37.570386467 100.661000000
v 41.853278348 31.224386467 100.669000000
v 29.844278348 30.152386466 94.879000000
v 28.158278348 31.133386467 94.879000000
v 28.886278348 32.510386466 94.879000000
v 30.720278348 31.241386467 94.879000000
v 29.844278348 30.152386466 100.505000000
v 30.720278348 31.241386467 100.470000000
v 28.886278348 32.510386466 100.539000000
v 28.158278348 31.133386467 100.569000000
v -4.921721652 15.143386466 94.879000000
v -6.045721652 21.068386466 94.879000000
v 27.402278348 29.824386466 94.879000000
v 28.343278348 23.852386466 94.879000000
v -4.921721652 15.143386466 99.834000000
v 28.343278348 23.852386466 99.913000000
v 27.402278348 29.824386466 100.087000000
v -6.045721652 21.068386466 100.008000000
v 33.939278348 -33.190613533 94.879000000
v 34.001278348 -33.579613534 94.879000000
v 34.503278348 -36.766613534 94.879000000
v 30.051278348 -37.104613534 94.879000000
v 30.103278348 -37.418613533 94.879000000
v 25.887278348 -38.031613533 94.879000000
v 24.306278348 -30.092613534 94.879000000
v 20.908278348 -30.319613534 94.879000000
v 20.514278348 -28.896613534 94.879000000
v 21.005278348 -28.336613534 94.879000000
v 20.677278348 -26.609613534 94.879000000
v 20.478278348 -25.563613534 94.879000000
v 19.463278348 -20.224613533 94.879000000
v 23.808278348 -19.439613534 94.879000000
v 28.782278348 -18.541613534 94.879000000
v 29.917278348 -23.351613534 94.879000000
v 30.055278348 -23.934613533 94.879000000
v 29.243278348 -23.895613533 94.879000000
v 29.443278348 -25.109613534 94.879000000
v 30.039278348 -28.727613534 94.879000000
v 33.507278348 -27.795613534 94.879000000
v 33.780278348 -31.201613533 94.879000000
v 36.130278348 -31.879613534 94.879000000
v 33.866278348 -32.276613533 94.879000000
v 20.478278348 -25.563613534 96.194000000
v 20.677278348 -26.609613534 96.216000000
v 30.055278348 -23.934613533 101.389000000
v 29.917278348 -23.351613534 98.473000000
v 29.917278348 -23.351613534 101.859000000
v 23.002278348 -26.056613534 101.330000000
v 23.002278348 -26.056613534 98.220000000
v 22.856278348 -26.224613533 98.076000000
v 22.856278348 -26.224613533 101.185000000
v 20.478278348 -25.563613534 99.316000000
v 29.243278348 -23.895613533 101.519000000
v 25.601278348 -29.919613534 102.928000000
v 25.601278348 -29.919613534 99.845000000
v 25.615278348 -30.004613534 99.845000000
v 25.615278348 -30.004613534 102.928000000
v 30.039278348 -28.727613534 101.397000000
v 30.039278348 -28.727613534 99.125000000
v 28.709278348 -29.084613534 100.265000000
v 28.709278348 -29.084613534 102.538000000
v 31.252278348 -32.733613534 100.958000000
v 31.252278348 -32.733613534 101.407000000
v 30.867278348 -32.615613534 101.257000000
v 36.130278348 -31.879613534 95.081000000
v 33.780278348 -31.201613533 97.102000000
v 33.866278348 -32.276613533 101.456000000
v 33.866278348 -32.276613533 97.230000000
v 33.780278348 -31.201613533 98.672000000
v 33.780278348 -31.201613533 100.620000000
v 34.001278348 -33.579613534 98.821000000
v 34.001278348 -33.579613534 100.411000000
v 30.051278348 -37.104613534 102.549000000
v 34.503278348 -36.766613534 98.850000000
v 30.103278348 -37.418613533 102.550000000
v 25.177278348 -30.033613534 102.563000000
v 25.177278348 -30.033613534 99.478000000
v 29.443278348 -25.109613534 100.550000000
v 29.443278348 -25.109613534 99.107000000
v 27.163278348 -24.949613534 100.953000000
v 33.507278348 -27.795613534 98.423000000
v 23.808278348 -19.439613534 102.931000000
v 19.463278348 -20.224613533 99.234000000
v 20.677278348 -26.609613534 99.332000000
v 21.005278348 -28.336613534 99.359000000
v 20.514278348 -28.896613534 98.875000000
v 20.908278348 -30.319613534 98.998000000
v 28.782278348 -18.541613534 98.730000000
v 25.887278348 -38.031613533 98.969000000
v 27.390278348 -29.439613534 101.395000000
v 27.464278348 -29.881613534 101.396000000
v 26.515278348 -23.938613534 101.343000000
v 26.515278348 -23.938613534 101.819000000
v 26.515278348 -23.938613534 101.825000000
v 26.243278348 -23.643613534 101.524000000
v 29.174278348 -23.478613534 99.100000000
v 29.174278348 -23.478613534 101.851000000
v 29.112278348 -23.103613534 99.098000000
v 29.112278348 -23.103613534 101.514000000
v 26.351278348 -24.333613534 101.532000000
v 26.896278348 -22.769613534 100.867000000
v 24.306278348 -30.092613534 101.835000000
v 24.306278348 -30.092613534 98.747000000
v 32.091278348 -30.714613534 99.990000000
v 33.939278348 -33.190613533 100.726000000
v -6.357721652 -46.838613533 94.879000000
v -6.732721652 -45.684613533 94.879000000
v -5.868721652 -45.466613534 94.879000000
v -5.654721652 -45.161613534 94.879000000
v -5.392721652 -45.345613534 94.879000000
v -3.455721652 -44.855613533 94.879000000
v -3.494721652 -45.261613534 94.879000000
v 3.796278348 -43.381613534 94.879000000
v 4.817278348 -48.082613533 94.879000000
v 5.915278348 -53.137613534 94.879000000
v -4.427721652 -54.825613534 94.879000000
v -8.880721652 -55.551613534 94.879000000
v -9.965721652 -55.728613534 94.879000000
v -9.812721652 -56.671613534 94.879000000
v -11.978721652 -56.975613534 94.879000000
v -14.781721652 -57.367613534 94.879000000
v -15.326721652 -52.613613534 94.879000000
v -15.391721652 -52.040613534 94.879000000
v -15.874721652 -52.120613534 94.879000000
v -15.762721652 -48.076613533 94.879000000
v -9.734721652 -47.127613534 94.879000000
v -9.828721652 -46.529613534 94.879000000
v -8.880721652 -55.551613534 100.445000000
v -8.880721652 -55.551613534 99.126000000
v -10.311721652 -53.599613533 100.925000000
v -10.311721652 -53.599613533 101.390000000
v -9.965721652 -55.728613534 101.399000000
v -4.752721652 -51.778613534 101.653000000
v -4.752721652 -51.778613534 100.690000000
v -5.039721652 -50.895613533 101.477000000
v -5.039721652 -50.895613533 102.417000000
v -6.357721652 -46.838613533 99.916000000
v -6.357721652 -46.838613533 98.936000000
v -5.398721652 -49.791613534 101.470000000
v -5.398721652 -49.791613534 102.459000000
v -3.494721652 -45.261613534 99.026000000
v -3.455721652 -44.855613533 98.700000000
v -5.392721652 -45.345613534 98.832000000
v -5.868721652 -45.466613534 98.864000000
v -6.732721652 -45.684613533 98.922000000
v -5.654721652 -45.161613534 98.644000000
v 5.915278348 -53.137613534 98.059000000
v 4.817278348 -48.082613533 102.481000000
v -15.391721652 -52.040613534 101.949000000
v -15.326721652 -52.613613534 102.425000000
v 3.796278348 -43.381613534 98.503000000
v -4.427721652 -54.825613534 98.073000000
v -5.214721652 -50.356613534 101.956000000
v -14.781721652 -57.367613534 98.450000000
v -11.978721652 -56.975613534 98.385000000
v -11.978721652 -56.975613534 99.554000000
v -9.812721652 -56.671613534 101.403000000
v -10.491721652 -53.353613534 101.151000000
v -10.491721652 -53.353613534 101.272000000
v -4.427721652 -54.825613534 99.109000000
v -9.734721652 -47.127613534 98.714000000
v -15.762721652 -48.076613533 98.671000000
v -15.874721652 -52.120613534 101.949000000
v -9.828721652 -46.529613534 98.215000000
v 28.952278348 18.823386466 94.879000000
v 28.811278348 21.172386467 94.879000000
v 33.199278348 22.330386466 94.879000000
v 33.579278348 19.566386466 94.879000000
v 33.897278348 17.258386467 94.879000000
v 29.096278348 16.412386466 94.879000000
v 33.579278348 19.566386466 100.183000000
v 33.199278348 22.330386466 99.429000000
v 29.096278348 16.412386466 99.439000000
v 33.897278348 17.258386467 99.475000000
v 28.952278348 18.823386466 100.171000000
v 28.811278348 21.172386467 99.539000000
v -34.615721652 11.198386466 94.879000000
v -35.408721652 17.258386467 94.879000000
v -20.686721652 19.518386466 94.879000000
v -20.728721652 13.606386466 94.879000000
v -35.408721652 17.258386467 100.153000000
v -34.615721652 11.198386466 99.987000000
v -20.728721652 13.606386466 100.002000000
v -20.686721652 19.518386466 100.161000000
v -25.532721652 2.603386466 94.879000000
v -21.517721652 2.349386467 94.879000000
v -21.676721652 3.311386466 94.879000000
v -17.000721652 3.007386466 94.879000000
v -15.797721652 -4.177613534 94.879000000
v -13.560721652 -3.492613534 94.879000000
v -13.102721652 -6.401613533 94.879000000
v -13.350721652 -6.559613533 94.879000000
v -11.668721652 -15.247613533 94.879000000
v -16.077721652 -15.977613534 94.879000000
v -20.657721652 -16.734613534 94.879000000
v -22.460721652 -12.389613533 94.879000000
v -22.359721652 -11.286613534 94.879000000
v -22.244721652 -10.012613534 94.879000000
v -21.882721652 -6.042613533 94.879000000
v -24.480721652 -6.837613534 94.879000000
v -24.839721652 -3.617613534 94.879000000
v -24.995721652 -2.216613534 94.879000000
v -25.313721652 0.645386466 94.879000000
v -17.943721652 -4.835613534 103.519000000
v -17.943721652 -4.835613534 101.983000000
v -18.835721652 -5.108613534 102.752000000
v -20.209721652 -5.529613534 103.936000000
v -20.209721652 -5.529613534 101.571000000
v -11.668721652 -15.247613533 99.770000000
v -13.350721652 -6.559613533 99.967000000
v -21.676721652 3.311386466 103.933000000
v -21.517721652 2.349386467 103.933000000
v -17.000721652 3.007386466 100.141000000
v -24.839721652 -3.617613534 100.383000000
v -24.480721652 -6.837613534 100.239000000
v -21.882721652 -6.042613533 102.488000000
v -21.882721652 -6.042613533 100.134000000
v -24.839721652 -3.617613534 101.700000000
v -22.819721652 -2.708613534 102.171000000
v -25.313721652 0.645386466 100.573000000
v -24.995721652 -2.216613534 102.900000000
v -22.359721652 -11.286613534 99.021000000
v -22.460721652 -12.389613533 98.787000000
v -13.102721652 -6.401613533 99.741000000
v -13.560721652 -3.492613534 99.719000000
v -16.077721652 -15.977613534 103.506000000
v -15.730721652 -4.573613534 101.658000000
v -15.730721652 -4.573613534 100.134000000
v -16.970721652 -4.537613533 101.145000000
v -16.970721652 -4.537613533 102.675000000
v -15.797721652 -4.177613534 101.658000000
v -15.797721652 -4.177613534 100.134000000
v -20.657721652 -16.734613534 99.661000000
v -22.359721652 -11.286613534 102.429000000
v -18.586721652 -10.660613534 102.190000000
v -18.586721652 -10.660613534 102.468000000
v -22.244721652 -10.012613534 99.292000000
v -22.244721652 -10.012613534 101.363000000
v -19.254721652 -9.929613533 101.746000000
v -25.532721652 2.603386466 100.660000000
v -18.781721652 -10.247613533 102.088000000
v -22.115721652 -1.739613534 102.883000000
v 15.541278348 -60.802613534 94.879000000
v 16.217278348 -63.064613534 94.879000000
v 15.157278348 -63.717613534 94.879000000
v 14.754278348 -61.440613533 94.879000000
v 16.217278348 -63.064613534 98.171000000
v 15.541278348 -60.802613534 97.960000000
v 14.754278348 -61.440613533 97.367000000
v 15.157278348 -63.717613534 97.393000000
f 1 2 3
f 1 3 4
f 5 2 1
f 5 1 6
f 6 1 4
f 6 4 7
f 7 4 3
f 7 3 8
f 8 3 2
f 8 2 5
f 8 5 6
f 8 6 7
f 143 144 145
f 143 145 146
f 143 146 147
f 143 147 148
f 143 148 149
f 143 149 150
f 143 150 151
f 143 151 152
f 143 152 153
f 143 153 154
f 143 154 155
f 143 155 156
f 143 156 157
f 143 157 158
f 143 158 159
f 143 159 160
f 143 160 161
f 143 161 162
f 143 162 163
f 143 163 164
f 143 164 165
f 143 165 166
f 143 166 167
f 143 167 168
f 143 168 169
f 143 169 170
f 143 170 171
f 143 171 172
f 143 172 173
f 143 173 174
f 143 174 175
f 143 175 176
f 143 176 177
f 143 177 178
f 143 178 179
f 143 179 180
f 143 180 181
f 143 181 182
f 143 182 183
f 143 183 184
f 143 184 185
f 143 185 186
f 143 186 187
f 143 187 188
f 143 188 189
f 143 189 190
f 143 190 191
f 143 191 192
f 143 192 193
f 143 193 194
f 143 194 195
f 143 195 196
f 143 196 197
f 143 197 198
f 143 198 199
f 143 199 200
f 143 200 201
f 143 201 202
f 203 148 147
f 203 147 204
f 205 202 201
f 205 201 206
f 207 151 150
f 207 150 208
f 212 183 182
f 212 182 213
f 214 174 173
f 214 173 215
f 216 175 174
f 216 174 214
f 217 218 219
f 217 219 220
f 221 197 196
f 221 196 222
f 223 224 225
f 223 225 226
f 227 215 173
f 227 173 172
f 227 172 228
f 229 160 159
f 229 159 230
f 230 159 158
f 230 158 231
f 213 182 181
f 213 181 232
f 233 234 235
f 234 195 194
f 234 194 236
f 237 238 153
f 237 153 152
f 237 152 239
f 239 152 151
f 239 151 207
f 208 150 149
f 208 149 240
f 241 242 215
f 241 215 227
f 243 244 242
f 243 242 241
f 245 199 198
f 245 198 246
f 247 200 199
f 247 199 245
f 248 167 166
f 248 166 249
f 249 166 165
f 249 165 250
f 251 190 189
f 251 189 252
f 253 191 190
f 253 190 251
f 231 158 157
f 231 157 254
f 255 184 183
f 255 183 212
f 255 212 256
f 257 258 156
f 257 156 155
f 257 155 259
f 259 155 154
f 259 154 260
f 259 260 261
f 254 157 156
f 254 156 258
f 206 201 200
f 206 200 247
f 267 268 269
f 267 269 270
f 222 196 195
f 222 195 234
f 222 234 233
f 271 192 191
f 271 191 253
f 272 240 149
f 272 149 148
f 272 148 203
f 272 203 273
f 273 203 224
f 273 224 223
f 246 198 197
f 246 197 221
f 220 219 244
f 220 244 243
f 274 176 175
f 274 175 216
f 275 178 177
f 275 177 276
f 275 276 277
f 276 177 176
f 276 176 274
f 278 186 185
f 278 185 279
f 279 185 184
f 279 184 255
f 256 212 280
f 256 280 281
f 282 250 165
f 282 165 164
f 282 164 283
f 284 285 286
f 284 286 287
f 232 181 180
f 232 180 286
f 277 276 288
f 289 143 202
f 289 202 205
f 226 225 146
f 226 146 145
f 226 145 290
f 204 147 146
f 204 146 225
f 295 168 167
f 295 167 248
f 296 169 168
f 296 168 295
f 281 280 285
f 281 285 284
f 268 267 298
f 236 194 193
f 236 193 269
f 252 189 188
f 252 188 299
f 299 188 187
f 299 187 300
f 300 187 186
f 300 186 278
f 228 172 171
f 228 171 301
f 301 171 170
f 301 170 302
f 287 286 180
f 287 180 179
f 287 179 303
f 303 179 178
f 303 178 275
f 283 164 163
f 283 163 304
f 307 296 218
f 307 218 217
f 290 145 144
f 290 144 308
f 308 144 143
f 308 143 289
f 261 260 309
f 261 309 310
f 310 309 311
f 310 311 312
f 312 311 238
f 312 238 237
f 304 163 162
f 304 162 313
f 313 162 161
f 313 161 314
f 315 229 316
f 315 316 317
f 317 316 318
f 314 161 160
f 314 160 229
f 314 229 315
f 302 170 169
f 302 169 296
f 302 296 307
f 260 154 153
f 260 153 238
f 270 269 193
f 270 193 192
f 270 192 271
f 235 320 221
f 235 221 222
f 235 222 233
f 246 221 320
f 204 225 224
f 204 224 203
f 281 284 321
f 281 321 294
f 281 294 209
f 281 209 255
f 281 255 256
f 285 280 212
f 285 212 213
f 285 213 232
f 285 232 286
f 297 291 288
f 297 288 276
f 297 276 274
f 297 274 216
f 297 216 214
f 297 214 215
f 297 215 242
f 300 278 279
f 300 279 255
f 300 255 209
f 300 209 211
f 300 211 252
f 300 252 299
f 301 302 243
f 301 243 241
f 301 241 227
f 301 227 228
f 303 275 277
f 303 277 288
f 303 288 291
f 303 291 293
f 303 293 321
f 303 321 284
f 303 284 287
f 265 306 231
f 265 231 254
f 265 254 258
f 265 258 263
f 265 263 266
f 308 289 205
f 308 205 206
f 308 206 247
f 308 247 223
f 308 223 226
f 308 226 290
f 319 272 273
f 319 273 223
f 319 223 247
f 319 247 245
f 319 245 246
f 319 246 320
f 319 320 235
f 319 235 234
f 319 234 236
f 319 236 269
f 319 269 268
f 319 268 298
f 318 316 229
f 318 229 230
f 318 230 231
f 318 231 306
f 318 306 282
f 318 282 283
f 318 283 304
f 317 314 315
f 314 317 318
f 314 318 304
f 314 304 313
f 302 307 217
f 302 217 220
f 302 220 243
f 260 238 311
f 260 311 309
f 240 319 298
f 240 298 267
f 240 267 270
f 240 270 262
f 240 262 257
f 240 257 259
f 240 259 261
f 240 261 310
f 240 310 312
f 240 312 237
f 240 237 239
f 240 239 207
f 240 207 208
f 270 271 253
f 270 253 251
f 270 251 252
f 270 252 211
f 270 211 210
f 270 210 294
f 270 294 321
f 270 321 293
f 270 293 292
f 270 292 297
f 270 297 242
f 270 242 244
f 270 244 219
f 270 219 218
f 270 218 296
f 270 296 295
f 270 295 248
f 270 248 249
f 270 249 250
f 270 250 305
f 270 305 264
f 270 264 266
f 270 266 262
f 628 629 630
f 628 630 631
f 628 631 632
f 628 632 633
f 634 631 630
f 634 630 635
f 636 633 632
f 636 632 637
f 638 628 633
f 638 633 636
f 635 630 629
f 635 629 639
f 637 632 631
f 637 631 634
f 639 629 628
f 639 628 638
f 634 638 636
f 634 636 637
f 639 638 634
f 639 634 635
f 334 335 336
f 334 336 337
f 334 337 338
f 334 338 339
f 340 337 336
f 340 336 341
f 341 336 335
f 341 335 342
f 343 338 337
f 343 337 340
f 344 334 339
f 344 339 345
f 345 339 338
f 345 338 343
f 345 343 346
f 346 343 347
f 342 335 334
f 342 334 344
f 342 348 340
f 342 340 341
f 348 347 343
f 348 343 340
f 347 344 345
f 347 345 346
f 347 348 342
f 347 342 344
f 648 649 650
f 648 650 651
f 648 651 652
f 648 652 653
f 648 653 654
f 648 654 655
f 648 655 656
f 648 656 657
f 648 657 658
f 648 658 659
f 648 659 660
f 648 660 661
f 648 661 662
f 648 662 663
f 648 663 664
f 648 664 665
f 648 665 666
f 667 668 669
f 670 671 669
f 672 656 655
f 672 655 673
f 674 650 649
f 674 649 675
f 676 651 650
f 676 650 674
f 677 664 663
f 677 663 678
f 679 680 671
f 679 671 670
f 681 677 682
f 683 666 665
f 683 665 684
f 685 660 659
f 685 659 686
f 684 665 664
f 684 664 677
f 684 677 681
f 673 655 654
f 673 654 687
f 687 654 653
f 687 653 688
f 689 657 656
f 689 656 672
f 690 691 692
f 690 692 693
f 694 695 691
f 694 691 690
f 695 652 651
f 695 651 676
f 688 653 652
f 688 652 695
f 688 695 694
f 696 658 657
f 696 657 689
f 697 685 698
f 697 698 699
f 680 662 661
f 680 661 700
f 678 663 662
f 678 662 680
f 678 680 679
f 701 700 661
f 701 661 660
f 701 660 685
f 701 685 697
f 686 659 658
f 686 658 696
f 703 648 666
f 703 666 683
f 675 649 648
f 675 648 703
f 699 698 704
f 693 692 668
f 693 668 667
f 683 684 705
f 682 705 684
f 682 684 681
f 670 675 703
f 670 703 683
f 670 683 705
f 670 705 682
f 670 682 677
f 670 677 678
f 670 678 679
f 699 704 702
f 699 702 701
f 699 701 697
f 689 667 669
f 689 669 671
f 689 671 680
f 689 680 700
f 689 700 702
f 689 702 704
f 689 704 698
f 689 698 685
f 689 685 686
f 689 686 696
f 668 692 691
f 668 691 695
f 668 695 676
f 668 676 674
f 668 674 675
f 668 675 670
f 668 670 669
f 693 667 689
f 693 689 672
f 693 672 673
f 693 673 687
f 693 687 688
f 693 688 694
f 693 694 690
f 640 641 642
f 640 642 643
f 644 641 640
f 644 640 645
f 645 640 643
f 645 643 646
f 646 643 642
f 646 642 647
f 647 642 641
f 647 641 644
f 647 644 645
f 647 645 646
f 322 323 324
f 322 324 325
f 322 325 326
f 322 326 327
f 328 324 323
f 328 323 329
f 330 325 324
f 330 324 328
f 331 326 325
f 331 325 330
f 332 322 327
f 332 327 333
f 333 327 326
f 333 326 331
f 329 323 322
f 329 322 332
f 328 333 331
f 328 331 330
f 329 332 333
f 329 333 328
f 458 459 460
f 458 460 461
f 462 459 458
f 462 458 463
f 464 460 459
f 464 459 462
f 465 461 460
f 465 460 464
f 463 458 461
f 463 461 465
f 463 465 464
f 463 464 462
f 349 350 351
f 349 351 352
f 349 352 353
f 349 353 354
f 349 354 355
f 349 355 356
f 349 356 357
f 349 357 358
f 349 358 359
f 349 359 360
f 349 360 361
f 349 361 362
f 349 362 363
f 349 363 364
f 349 364 365
f 349 365 366
f 349 366 367
f 349 367 368
f 349 368 369
f 349 369 370
f 349 370 371
f 349 371 372
f 349 372 373
f 349 373 374
f 349 374 375
f 349 375 376
f 349 376 377
f 349 377 378
f 349 378 379
f 349 379 380
f 381 351 350
f 381 350 382
f 381 382 383
f 388 368 367
f 388 367 389
f 390 362 361
f 390 361 391
f 392 366 365
f 392 365 393
f 394 395 376
f 394 376 375
f 394 375 396
f 398 399 400
f 398 400 401
f 406 407 408
f 409 360 359
f 409 359 410
f 401 400 411
f 401 411 412
f 397 391 361
f 397 361 360
f 397 360 409
f 413 380 379
f 413 379 414
f 412 411 415
f 412 415 416
f 399 398 417
f 410 359 358
f 410 358 415
f 418 419 420
f 423 424 373
f 423 373 372
f 423 372 425
f 425 372 371
f 425 371 426
f 425 426 427
f 427 426 428
f 427 428 429
f 426 371 370
f 426 370 430
f 396 375 374
f 396 374 431
f 431 374 373
f 431 373 424
f 389 367 366
f 389 366 392
f 393 365 364
f 393 364 432
f 432 364 363
f 432 363 433
f 433 363 362
f 433 362 390
f 433 390 434
f 434 390 435
f 436 356 355
f 436 355 437
f 440 439 353
f 440 353 352
f 440 352 442
f 442 352 351
f 442 351 381
f 443 357 356
f 443 356 436
f 444 443 445
f 438 437 355
f 438 355 354
f 438 354 446
f 446 354 353
f 446 353 439
f 414 379 378
f 414 378 447
f 448 449 395
f 448 395 394
f 419 418 449
f 419 449 448
f 450 451 407
f 450 407 406
f 452 349 380
f 452 380 413
f 447 378 377
f 447 377 453
f 430 370 369
f 430 369 454
f 455 454 369
f 455 369 368
f 455 368 388
f 429 428 456
f 429 456 457
f 457 456 454
f 457 454 455
f 453 377 376
f 453 376 395
f 382 350 349
f 382 349 452
f 383 382 451
f 383 451 450
f 416 415 358
f 416 358 357
f 416 357 443
f 416 443 444
f 416 398 401
f 416 401 412
f 404 435 390
f 404 390 391
f 404 391 384
f 404 384 386
f 404 386 387
f 404 387 389
f 404 389 392
f 404 392 393
f 404 393 405
f 404 405 402
f 387 423 425
f 387 425 427
f 387 427 429
f 387 429 457
f 387 457 455
f 387 455 388
f 387 388 389
f 454 456 428
f 454 428 426
f 454 426 430
f 419 385 397
f 419 397 409
f 419 409 410
f 419 410 415
f 419 415 411
f 419 411 400
f 419 400 399
f 419 399 417
f 419 417 445
f 419 445 443
f 419 443 436
f 419 436 437
f 419 437 421
f 419 421 420
f 453 395 449
f 453 449 418
f 453 418 420
f 453 420 422
f 453 422 413
f 453 413 414
f 453 414 447
f 432 403 405
f 432 405 393
f 435 404 403
f 435 403 432
f 435 432 433
f 435 433 434
f 424 386 385
f 424 385 419
f 424 419 448
f 424 448 394
f 424 394 396
f 424 396 431
f 442 406 408
f 442 408 441
f 442 441 440
f 451 382 452
f 451 452 413
f 451 413 422
f 451 422 438
f 451 438 446
f 451 446 439
f 451 439 441
f 451 441 408
f 451 408 407
f 383 450 406
f 383 406 442
f 383 442 381
f 416 444 445
f 416 445 417
f 416 417 398
f 474 475 476
f 474 476 477
f 478 474 477
f 478 477 479
f 480 476 475
f 480 475 481
f 479 477 476
f 479 476 480
f 481 475 474
f 481 474 478
f 481 478 479
f 481 479 480
f 569 570 571
f 569 571 572
f 569 572 573
f 569 573 574
f 569 574 575
f 569 575 576
f 569 576 577
f 569 577 578
f 569 578 579
f 569 579 580
f 569 580 581
f 569 581 582
f 569 582 583
f 569 583 584
f 569 584 585
f 569 585 586
f 569 586 587
f 569 587 588
f 569 588 589
f 569 589 590
f 591 592 593
f 591 593 594
f 595 581 580
f 595 580 592
f 595 592 591
f 596 597 598
f 596 598 599
f 600 601 602
f 600 602 603
f 604 575 574
f 604 574 605
f 605 574 573
f 605 573 606
f 607 571 570
f 607 570 608
f 609 572 571
f 609 571 607
f 606 573 572
f 606 572 609
f 610 578 577
f 610 577 611
f 612 586 585
f 612 585 613
f 614 576 575
f 614 575 604
f 615 579 578
f 615 578 610
f 603 602 616
f 599 598 616
f 613 585 584
f 613 584 617
f 617 584 583
f 617 583 618
f 619 618 583
f 619 583 582
f 619 582 620
f 620 582 581
f 620 581 595
f 611 577 576
f 611 576 614
f 594 593 621
f 594 621 622
f 622 621 618
f 622 618 619
f 592 580 579
f 592 579 615
f 592 615 623
f 624 589 588
f 624 588 625
f 626 587 586
f 626 586 612
f 625 588 587
f 625 587 626
f 623 615 597
f 623 597 596
f 608 570 569
f 608 569 601
f 608 601 600
f 601 569 590
f 601 590 627
f 627 590 589
f 627 589 624
f 595 591 594
f 622 619 620
f 622 620 595
f 622 595 594
f 623 596 599
f 623 599 613
f 623 613 617
f 623 617 618
f 623 618 621
f 623 621 593
f 623 593 592
f 597 615 610
f 597 610 611
f 597 611 603
f 597 603 616
f 597 616 598
f 608 600 603
f 608 603 611
f 608 611 614
f 608 614 604
f 608 604 605
f 608 605 606
f 608 606 609
f 608 609 607
f 627 624 625
f 627 625 626
f 627 626 612
f 627 612 613
f 627 613 599
f 627 599 616
f 627 616 602
f 627 602 601
f 482 483 484
f 482 484 485
f 482 485 486
f 482 486 487
f 482 487 488
f 482 488 489
f 482 489 490
f 482 490 491
f 482 491 492
f 482 492 493
f 482 493 494
f 482 494 495
f 482 495 496
f 482 496 497
f 482 497 498
f 482 498 499
f 482 499 500
f 482 500 501
f 482 501 502
f 482 502 503
f 482 503 504
f 482 504 505
f 506 493 492
f 506 492 507
f 508 498 497
f 508 497 509
f 508 509 510
f 511 512 513
f 511 513 514
f 515 506 512
f 515 512 511
f 516 499 498
f 516 498 508
f 517 518 519
f 517 519 520
f 521 522 523
f 521 523 524
f 528 504 503
f 528 503 529
f 530 531 529
f 530 529 532
f 530 532 533
f 531 505 504
f 531 504 528
f 536 485 484
f 536 484 537
f 538 486 485
f 538 485 536
f 537 484 483
f 537 483 534
f 539 540 518
f 539 518 517
f 541 542 500
f 541 500 499
f 541 499 516
f 522 501 500
f 522 500 542
f 544 502 501
f 544 501 522
f 544 522 521
f 545 495 494
f 545 494 546
f 546 494 493
f 546 493 506
f 546 506 515
f 514 513 507
f 514 507 547
f 547 507 492
f 547 492 491
f 547 491 548
f 548 491 490
f 548 490 549
f 549 490 489
f 549 489 550
f 551 496 495
f 551 495 545
f 552 487 486
f 552 486 538
f 524 523 553
f 520 519 554
f 555 556 557
f 555 557 558
f 510 509 559
f 510 559 560
f 560 559 561
f 560 561 562
f 556 555 563
f 509 497 496
f 509 496 551
f 562 561 564
f 565 566 540
f 565 540 539
f 550 489 488
f 550 488 566
f 550 566 565
f 566 488 487
f 566 487 552
f 532 529 503
f 532 503 502
f 532 502 544
f 533 532 567
f 568 482 505
f 568 505 531
f 568 531 530
f 535 534 483
f 535 483 482
f 535 482 568
f 531 528 529
f 507 513 512
f 507 512 506
f 564 561 559
f 564 559 509
f 564 509 551
f 564 551 545
f 564 545 517
f 564 517 520
f 564 520 554
f 564 554 553
f 564 553 523
f 564 523 522
f 564 522 542
f 564 542 543
f 564 543 563
f 564 563 555
f 564 555 558
f 560 556 563
f 560 563 543
f 560 543 541
f 560 541 516
f 560 516 508
f 560 508 510
f 557 560 562
f 557 562 564
f 557 564 558
f 550 565 539
f 550 539 517
f 550 517 545
f 550 545 546
f 550 546 515
f 550 515 511
f 550 511 514
f 550 514 547
f 550 547 548
f 550 548 549
f 566 552 538
f 566 538 536
f 566 536 524
f 566 524 553
f 566 553 554
f 566 554 519
f 566 519 518
f 566 518 540
f 567 532 544
f 567 544 521
f 567 521 524
f 567 524 536
f 567 536 537
f 567 537 534
f 567 534 525
f 567 525 527
f 526 530 533
f 526 533 567
f 526 567 527
f 535 568 530
f 535 530 526
f 706 707 708
f 706 708 709
f 710 707 706
f 710 706 711
f 711 706 709
f 711 709 712
f 713 708 707
f 713 707 710
f 712 709 708
f 712 708 713
f 712 713 710
f 712 710 711
f 17 18 19
f 17 19 20
f 17 20 21
f 17 21 22
f 17 22 23
f 17 23 24
f 17 24 25
f 17 25 26
f 17 26 27
f 17 27 28
f 17 28 29
f 17 29 30
f 17 30 31
f 17 31 32
f 17 32 33
f 17 33 34
f 17 34 35
f 17 35 36
f 17 36 37
f 17 37 38
f 17 38 39
f 17 39 40
f 17 40 41
f 17 41 42
f 17 42 43
f 17 43 44
f 17 44 45
f 17 45 46
f 17 46 47
f 17 47 48
f 17 48 49
f 50 51 52
f 50 52 53
f 54 27 26
f 54 26 55
f 56 57 58
f 56 58 59
f 56 59 60
f 56 60 61
f 62 23 22
f 62 22 63
f 64 39 38
f 64 38 59
f 58 40 39
f 58 39 64
f 65 42 41
f 65 41 66
f 65 66 67
f 66 41 40
f 66 40 58
f 66 58 57
f 68 46 45
f 68 45 69
f 70 30 29
f 70 29 71
f 70 71 72
f 73 31 30
f 73 30 70
f 74 47 46
f 74 46 68
f 75 25 24
f 75 24 76
f 76 24 23
f 76 23 62
f 67 66 77
f 67 77 78
f 79 43 42
f 79 42 65
f 80 81 82
f 80 82 83
f 83 82 84
f 85 37 36
f 85 36 86
f 87 69 45
f 87 45 44
f 87 44 88
f 89 90 69
f 89 69 87
f 91 79 92
f 91 92 93
f 94 95 96
f 97 98 99
f 97 99 51
f 97 51 50
f 100 101 102
f 103 104 105
f 103 105 106
f 106 105 107
f 101 100 107
f 88 44 43
f 88 43 79
f 88 79 91
f 108 32 31
f 108 31 73
f 55 26 25
f 55 25 75
f 109 110 111
f 112 33 32
f 112 32 108
f 113 34 33
f 113 33 112
f 114 35 34
f 114 34 113
f 115 21 20
f 115 20 116
f 63 22 21
f 63 21 115
f 116 20 19
f 116 19 117
f 117 19 18
f 117 18 118
f 86 36 35
f 86 35 114
f 119 120 104
f 119 104 103
f 119 103 121
f 122 123 120
f 122 120 119
f 123 122 124
f 125 126 127
f 125 127 128
f 128 127 90
f 128 90 89
f 72 71 110
f 72 110 109
f 71 29 28
f 71 28 129
f 130 131 48
f 130 48 47
f 130 47 74
f 132 49 48
f 132 48 131
f 133 17 49
f 133 49 132
f 53 52 131
f 53 131 130
f 118 18 17
f 118 17 133
f 134 135 136
f 135 134 95
f 135 95 94
f 60 59 38
f 60 38 37
f 60 37 85
f 61 60 137
f 61 137 138
f 138 137 81
f 138 81 80
f 78 77 140
f 141 142 98
f 141 98 97
f 129 28 27
f 129 27 54
f 93 92 126
f 93 126 125
f 121 103 142
f 121 142 141
f 58 64 59
f 72 109 86
f 72 86 114
f 72 114 113
f 72 113 112
f 72 112 108
f 72 108 73
f 72 73 70
f 88 125 128
f 88 128 89
f 88 89 87
f 121 141 97
f 121 97 50
f 121 50 53
f 121 53 130
f 121 130 74
f 121 74 68
f 121 68 69
f 121 69 90
f 121 90 124
f 121 124 122
f 121 122 119
f 93 125 88
f 93 88 91
f 107 136 133
f 107 133 132
f 107 132 131
f 107 131 52
f 107 52 51
f 107 51 99
f 107 99 102
f 107 102 101
f 136 135 118
f 136 118 133
f 135 94 96
f 135 96 63
f 135 63 115
f 135 115 116
f 135 116 117
f 135 117 118
f 138 80 56
f 138 56 61
f 139 84 82
f 139 82 81
f 139 81 137
f 139 137 60
f 139 60 85
f 139 85 86
f 139 86 109
f 139 109 111
f 139 111 140
f 139 140 77
f 139 77 66
f 139 66 57
f 84 139 56
f 84 56 80
f 84 80 83
f 129 54 55
f 129 55 75
f 129 75 78
f 129 78 140
f 129 140 111
f 129 111 110
f 129 110 71
f 126 92 79
f 126 79 65
f 126 65 67
f 126 67 78
f 126 78 75
f 126 75 76
f 126 76 62
f 126 62 63
f 126 63 96
f 126 96 95
f 126 95 134
f 126 134 136
f 126 136 107
f 126 107 105
f 126 105 104
f 126 104 120
f 126 120 123
f 126 123 124
f 126 124 90
f 126 90 127
f 142 103 106
f 142 106 107
f 142 107 100
f 142 100 102
f 142 102 98
f 9 10 11
f 9 11 12
f 13 10 9
f 13 9 14
f 15 11 10
f 15 10 13
f 14 9 12
f 14 12 16
f 16 12 11
f 16 11 15
f 16 15 13
f 16 13 14
f 466 467 468
f 466 468 469
f 470 466 469
f 470 469 471
f 471 469 468
f 471 468 472
f 472 468 467
f 472 467 473
f 473 467 466
f 473 466 470
f 473 470 471
f 473 471 472
