v 5.773067099 -8.606195036 66.881000000
v 5.773067099 -8.606195036 59.119000000
v 5.034067099 -8.451195036 59.119000000
v 5.623067099 -9.302195037 66.883000000
v 5.623067099 -9.302195037 59.119000000
v 5.034067099 -8.451195036 65.295000000
v 5.034067099 -8.451195036 66.092000000
v 5.741067099 -36.673195036 59.119000000
v 4.141067099 -36.467195037 59.119000000
v 6.181067099 -27.462195036 59.119000000
v 7.783067099 -27.877195036 59.119000000
v 4.141067099 -36.467195037 62.446000000
v 5.741067099 -36.673195036 61.763000000
v 6.181067099 -27.462195036 62.376000000
v 7.783067099 -27.877195036 61.673000000
v 5.146067099 -11.514195036 59.119000000
v 4.206067099 -15.874195036 59.119000000
v 4.964067099 -16.637195037 59.119000000
v 3.409067099 -16.674195036 59.119000000
v 1.587067099 -18.616195036 59.119000000
v 1.627067099 -16.716195037 59.119000000
v 0.526067099 -16.743195036 59.119000000
v 1.627067099 -16.716195037 64.451000000
v 1.587067099 -18.616195036 64.833000000
v 3.409067099 -16.674195036 66.263000000
v 4.206067099 -15.874195036 66.898000000
v 5.146067099 -11.514195036 66.888000000
v 0.526067099 -16.743195036 63.332000000
v 4.964067099 -16.637195037 67.843000000
v -14.806932901 -22.675195036 59.119000000
v -2.897932901 -25.778195037 59.119000000
v 0.499067099 -30.968195036 59.119000000
v -5.563932901 -29.725195036 59.119000000
v -6.519932901 -33.865195037 59.119000000
v -15.492932901 -32.543195036 59.119000000
v -14.490932901 -28.848195037 59.119000000
v -16.058932901 -28.495195037 59.119000000
v -15.848932901 -27.518195037 59.119000000
v -16.058932901 -28.495195037 65.605000000
v -14.490932901 -28.848195037 65.617000000
v -15.848932901 -27.518195037 66.666000000
v -15.492932901 -32.543195036 61.557000000
v -6.519932901 -33.865195037 62.344000000
v -5.563932901 -29.725195036 66.581000000
v 0.499067099 -30.968195036 66.470000000
v -2.897932901 -25.778195037 61.844000000
v -14.806932901 -22.675195036 61.371000000
v -5.563932901 -29.725195036 66.854000000
v -8.136932901 -29.198195037 66.782000000
v -8.136932901 -29.198195037 66.628000000
v -8.139932901 -29.271195036 66.705000000
v 1.199067099 -31.112195036 59.119000000
v 0.469067099 -31.543195036 59.119000000
v 0.549067099 -30.979195036 59.119000000
v 0.549067099 -30.979195036 66.525000000
v 0.469067099 -31.543195036 66.568000000
v 1.199067099 -31.112195036 67.217000000
v -11.114932901 -5.054195036 59.119000000
v -10.667932901 -1.606195036 59.119000000
v -0.281932901 -3.915195037 59.119000000
v 0.336067099 -1.659195037 59.119000000
v 5.034067099 -8.451195036 66.581000000
v 0.336067099 -1.659195037 59.781000000
v -10.667932901 -1.606195036 62.314000000
v -11.114932901 -5.054195036 66.185000000
v -0.281932901 -3.915195037 62.390000000
v 5.034067099 -8.451195036 61.673000000
v 41.161067099 -12.035195037 59.119000000
v 27.577067099 -8.992195036 59.119000000
v 28.357067099 -2.614195037 59.119000000
v 42.951067099 -5.976195036 59.119000000
v 41.161067099 -12.035195037 62.981000000
v 42.951067099 -5.976195036 62.443000000
v 28.357067099 -2.614195037 62.433000000
v 27.577067099 -8.992195036 62.980000000
v -33.444932901 -4.178195036 59.119000000
v -29.182932901 -6.448195037 59.119000000
v -29.037932901 -5.777195036 59.119000000
v -27.257932901 -6.178195036 59.119000000
v -25.410932901 -6.595195036 59.119000000
v -24.521932901 -4.042195036 59.119000000
v -17.391932901 -5.702195036 59.119000000
v -18.119932901 -8.238195037 59.119000000
v -18.882932901 -10.897195037 59.119000000
v -24.765932901 -9.384195036 59.119000000
v -25.379932901 -11.234195037 59.119000000
v -24.998932901 -14.070195036 59.119000000
v -26.224932901 -13.796195037 59.119000000
v -26.621932901 -16.136195037 59.119000000
v -26.819932901 -17.302195037 59.119000000
v -25.961932901 -18.014195036 59.119000000
v -26.521932901 -18.301195037 59.119000000
v -20.526932901 -19.611195036 59.119000000
v -21.388932901 -22.199195037 59.119000000
v -22.299932901 -24.937195037 59.119000000
v -28.836932901 -23.199195037 59.119000000
v -28.625932901 -21.513195037 59.119000000
v -30.692932901 -20.433195037 59.119000000
v -31.568932901 -19.975195036 59.119000000
v -32.101932901 -19.859195037 59.119000000
v -32.087932901 -19.794195036 59.119000000
v -36.618932901 -18.588195036 59.119000000
v -36.192932901 -15.040195037 59.119000000
v -34.942932901 -14.598195037 59.119000000
v -35.609932901 -12.224195036 59.119000000
v -35.337932901 -12.242195036 59.119000000
v -34.692932901 -9.494195037 59.119000000
v -17.391932901 -5.702195036 62.336000000
v -24.521932901 -4.042195036 62.193000000
v -26.621932901 -16.136195037 64.727000000
v -26.621932901 -16.136195037 62.780000000
v -26.224932901 -13.796195037 66.812000000
v -28.457932901 -16.144195036 64.349000000
v -32.243932901 -12.447195036 66.750000000
v -32.243932901 -12.447195036 66.749000000
v -32.243932901 -12.447195036 65.256000000
v -32.972932901 -11.825195037 64.517000000
v -32.972932901 -11.825195037 66.347000000
v -30.743932901 -12.546195037 66.924000000
v -30.743932901 -12.546195037 66.561000000
v -30.743932901 -12.546195037 66.556000000
v -32.101932901 -19.859195037 66.782000000
v -31.568932901 -19.975195036 66.304000000
v -30.692932901 -20.433195037 65.470000000
v -29.375932901 -11.369195037 66.032000000
v -29.375932901 -11.369195037 65.295000000
v -28.134932901 -11.270195036 64.983000000
v -25.403932901 -11.053195036 64.295000000
v -25.403932901 -11.053195036 62.672000000
v -25.410932901 -6.595195036 65.226000000
v -27.257932901 -6.178195036 65.204000000
v -34.692932901 -9.494195037 62.615000000
v -34.692932901 -9.494195037 64.651000000
v -29.037932901 -5.777195036 66.813000000
v -18.119932901 -8.238195037 65.313000000
v -24.765932901 -9.384195036 62.414000000
v -18.882932901 -10.897195037 62.285000000
v -25.379932901 -11.234195037 62.617000000
v -24.765932901 -9.384195036 62.443000000
v -32.087932901 -19.794195036 66.751000000
v -32.087932901 -19.794195036 66.782000000
v -30.978932901 -14.749195036 66.764000000
v -28.836932901 -23.199195037 62.381000000
v -22.299932901 -24.937195037 62.061000000
v -36.192932901 -15.040195037 62.361000000
v -36.618932901 -18.588195036 62.655000000
v -34.942932901 -14.598195037 63.348000000
v -24.998932901 -14.070195036 66.824000000
v -25.379932901 -11.234195037 64.447000000
v -26.819932901 -17.302195037 62.734000000
v -25.961932901 -18.014195036 61.868000000
v -30.497932901 -12.562195037 66.769000000
v -30.497932901 -12.562195037 66.530000000
v -30.365932901 -12.571195036 66.514000000
v -30.365932901 -12.571195036 66.654000000
v -35.337932901 -12.242195036 66.388000000
v -35.609932901 -12.224195036 66.356000000
v -35.337932901 -12.242195036 67.140000000
v -30.449932901 -13.009195036 66.632000000
v -30.449932901 -13.009195036 66.554000000
v -30.608932901 -13.065195036 66.475000000
v -30.608932901 -13.065195036 66.758000000
v -30.608932901 -13.065195036 66.768000000
v -30.449932901 -13.009195036 66.907000000
v -30.172932901 -12.911195036 66.772000000
v -34.942932901 -14.598195037 64.307000000
v -30.594932901 -12.781195036 66.737000000
v -28.625932901 -21.513195037 66.132000000
v -28.625932901 -21.513195037 64.236000000
v -28.516932901 -20.642195037 65.195000000
v -31.622932901 -13.424195036 65.967000000
v -26.521932901 -18.301195037 62.295000000
v -29.182932901 -6.448195037 66.759000000
v -29.182932901 -6.448195037 66.810000000
v -21.388932901 -22.199195037 65.209000000
v -20.526932901 -19.611195036 62.306000000
v -30.738932901 -12.546195037 66.561000000
v -33.444932901 -4.178195036 62.695000000
f 8 9 10
f 8 10 11
f 12 9 8
f 12 8 13
f 14 10 9
f 14 9 12
f 15 11 10
f 15 10 14
f 13 8 11
f 13 11 15
f 13 15 14
f 13 14 12
f 76 77 78
f 76 78 79
f 76 79 80
f 76 80 81
f 76 81 82
f 76 82 83
f 76 83 84
f 76 84 85
f 76 85 86
f 76 86 87
f 76 87 88
f 76 88 89
f 76 89 90
f 76 90 91
f 76 91 92
f 76 92 93
f 76 93 94
f 76 94 95
f 76 95 96
f 76 96 97
f 76 97 98
f 76 98 99
f 76 99 100
f 76 100 101
f 76 101 102
f 76 102 103
f 76 103 104
f 76 104 105
f 76 105 106
f 76 106 107
f 108 82 81
f 108 81 109
f 110 111 89
f 110 89 88
f 110 88 112
f 114 115 116
f 114 116 117
f 114 117 118
f 119 120 121
f 122 100 99
f 122 99 123
f 123 99 98
f 123 98 124
f 125 126 127
f 128 129 127
f 109 81 80
f 109 80 130
f 130 80 79
f 130 79 131
f 118 117 132
f 118 132 133
f 131 79 78
f 131 78 134
f 135 83 82
f 135 82 108
f 136 85 84
f 136 84 137
f 138 86 85
f 138 85 136
f 138 136 139
f 137 84 83
f 137 83 135
f 143 96 95
f 143 95 144
f 145 103 102
f 145 102 146
f 147 104 103
f 147 103 145
f 141 140 101
f 141 101 100
f 141 100 122
f 146 102 101
f 146 101 140
f 112 88 87
f 112 87 148
f 148 87 86
f 148 86 138
f 148 138 149
f 139 136 131
f 150 90 89
f 150 89 111
f 151 91 90
f 151 90 150
f 152 153 154
f 152 154 155
f 155 154 126
f 155 126 125
f 156 106 105
f 156 105 157
f 133 132 107
f 133 107 106
f 133 106 156
f 133 156 158
f 158 156 115
f 158 115 114
f 159 160 161
f 159 161 162
f 164 159 165
f 157 105 104
f 157 104 147
f 157 147 166
f 120 119 167
f 160 159 164
f 160 164 167
f 168 169 170
f 166 147 171
f 163 162 161
f 172 92 91
f 172 91 151
f 169 97 96
f 169 96 143
f 124 98 97
f 124 97 169
f 124 169 168
f 134 78 77
f 134 77 173
f 134 173 174
f 149 138 129
f 149 129 128
f 175 94 93
f 175 93 176
f 176 93 92
f 176 92 172
f 144 95 94
f 144 94 175
f 121 120 177
f 153 152 177
f 174 173 152
f 178 76 107
f 178 107 132
f 173 77 76
f 173 76 178
f 135 108 109
f 135 109 130
f 131 136 137
f 131 137 135
f 131 135 130
f 158 114 118
f 158 118 133
f 159 113 110
f 159 110 112
f 159 112 165
f 166 171 161
f 166 161 160
f 166 160 167
f 166 167 119
f 166 119 115
f 166 115 156
f 166 156 157
f 163 171 147
f 163 147 145
f 163 145 146
f 163 146 140
f 163 140 142
f 172 151 150
f 172 150 111
f 172 111 113
f 172 113 159
f 172 159 162
f 172 162 142
f 172 142 141
f 172 141 122
f 172 122 123
f 172 123 124
f 176 172 124
f 176 124 168
f 176 168 170
f 176 170 175
f 144 175 170
f 144 170 169
f 144 169 143
f 153 177 120
f 153 120 167
f 153 167 164
f 153 164 165
f 153 165 112
f 153 112 148
f 153 148 149
f 153 149 128
f 153 128 127
f 153 127 126
f 153 126 154
f 174 152 155
f 174 155 125
f 174 125 127
f 174 127 129
f 174 129 138
f 174 138 139
f 174 139 131
f 174 131 134
f 173 178 132
f 173 132 117
f 173 117 116
f 173 116 121
f 173 121 177
f 173 177 152
f 3 58 59
f 3 59 60
f 3 60 61
f 3 61 3
f 3 3 2
f 3 2 5
f 62 3 61
f 62 61 63
f 64 59 58
f 64 58 65
f 63 61 60
f 63 60 66
f 66 60 59
f 66 59 64
f 65 58 3
f 65 3 67
f 65 7 63
f 65 63 66
f 65 66 64
f 16 17 18
f 16 18 19
f 16 19 20
f 16 20 21
f 16 21 22
f 23 21 20
f 23 20 24
f 24 20 19
f 24 19 25
f 26 17 16
f 26 16 27
f 28 22 21
f 28 21 23
f 25 19 18
f 25 18 29
f 29 18 17
f 29 17 26
f 27 16 22
f 27 22 28
f 27 28 23
f 27 23 24
f 27 24 25
f 27 25 29
f 27 29 26
f 52 53 54
f 55 54 53
f 55 53 56
f 57 52 54
f 57 54 55
f 56 53 52
f 56 52 57
f 56 57 55
f 30 31 32
f 30 32 33
f 30 33 34
f 30 34 35
f 30 35 36
f 30 36 37
f 30 37 38
f 39 37 36
f 39 36 40
f 41 38 37
f 41 37 39
f 42 35 34
f 42 34 43
f 44 33 32
f 44 32 45
f 46 31 30
f 46 30 47
f 40 36 35
f 40 35 42
f 43 34 33
f 43 33 44
f 43 44 48
f 49 50 51
f 48 44 50
f 48 50 49
f 45 32 31
f 45 31 46
f 47 30 38
f 47 38 41
f 51 41 39
f 51 39 40
f 51 40 42
f 51 42 43
f 51 43 48
f 51 48 49
f 47 41 51
f 47 51 50
f 47 50 44
f 47 44 45
f 47 45 46
f 1 2 3
f 4 5 2
f 4 2 1
f 6 3 5
f 6 5 4
f 7 4 1
f 68 69 70
f 68 70 71
f 72 68 71
f 72 71 73
f 73 71 70
f 73 70 74
f 74 70 69
f 74 69 75
f 75 69 68
f 75 68 72
f 75 72 73
f 75 73 74
