v 5.425110628 3.799088309 72.739000000
v 6.729110628 2.620088309 72.739000000
v -1.533889372 -8.240911691 72.739000000
v -5.955889372 -5.798911691 72.739000000
v -5.483889372 -5.216911691 72.739000000
v -9.361889372 -2.206911691 72.739000000
v -0.144889372 8.841088309 72.739000000
v -3.068889372 11.485088309 72.739000000
v 3.973110628 20.016088309 72.739000000
v 10.474110628 14.496088309 72.739000000
v 6.896110628 8.140088309 72.739000000
v 1.575110628 10.276088309 72.739000000
v 0.389110628 8.357088309 72.739000000
v 3.357110628 5.671088309 72.739000000
v 4.744110628 7.379088309 72.739000000
v 6.692110628 5.782088309 72.739000000
v 1.575110628 10.276088309 75.317000000
v 6.896110628 8.140088309 75.443000000
v -3.068889372 11.485088309 75.215000000
v -0.144889372 8.841088309 75.302000000
v 3.973110628 20.016088309 75.247000000
v 10.474110628 14.496088309 75.435000000
v 4.744110628 7.379088309 74.775000000
v 3.357110628 5.671088309 75.162000000
v 3.357110628 5.671088309 77.945000000
v 0.389110628 8.357088309 75.318000000
v 0.389110628 8.357088309 76.092000000
v -0.144889372 8.841088309 75.759000000
v -9.361889372 -2.206911691 75.673000000
v -5.483889372 -5.216911691 77.947000000
v -5.955889372 -5.798911691 77.947000000
v -1.533889372 -8.240911691 75.655000000
v 6.729110628 2.620088309 75.851000000
v 5.425110628 3.799088309 75.172000000
v 5.425110628 3.799088309 76.660000000
v 6.692110628 5.782088309 74.763000000
f 1 2 3
f 1 3 4
f 1 4 5
f 1 5 6
f 1 6 7
f 1 7 8
f 1 8 9
f 1 9 10
f 1 10 11
f 1 11 12
f 1 12 13
f 1 13 14
f 1 14 15
f 1 15 16
f 17 12 11
f 17 11 18
f 19 8 7
f 19 7 20
f 21 9 8
f 21 8 19
f 22 10 9
f 22 9 21
f 23 15 14
f 23 14 24
f 25 24 14
f 25 14 13
f 25 13 26
f 25 26 27
f 28 20 7
f 28 7 6
f 28 6 29
f 26 13 12
f 26 12 17
f 29 6 5
f 29 5 30
f 30 5 4
f 30 4 31
f 31 4 3
f 31 3 32
f 27 26 20
f 27 20 28
f 33 2 1
f 33 1 34
f 33 34 35
f 32 3 2
f 32 2 33
f 35 34 24
f 35 24 25
f 34 1 16
f 34 16 36
f 18 11 10
f 18 10 22
f 36 16 15
f 36 15 23
f 27 28 29
f 27 29 30
f 27 30 25
f 35 25 30
f 35 30 31
f 35 31 32
f 35 32 33
f 18 22 21
f 18 21 19
f 18 19 20
f 18 20 26
f 18 26 17
f 36 23 24
f 36 24 34
