v -14.452666053 -8.767701561 8.439000000
v -14.449666053 -8.865701561 8.439000000
v -14.409666053 -9.006701561 8.439000000
v -14.361666053 -9.091701561 8.439000000
v -14.296666053 -9.165701561 8.439000000
v -14.176666053 -9.249701561 8.439000000
v -14.037666053 -9.295701561 8.439000000
v -8.726666053 3.696298439 8.439000000
v -12.237666053 4.413298439 8.439000000
v -11.393666053 9.433298439 8.439000000
v -7.803666053 8.835298439 8.439000000
v -8.414666053 5.430298439 8.439000000
v -6.264666053 5.062298439 8.439000000
v 6.365333947 2.902298439 8.439000000
v 5.456333947 -1.567701561 8.439000000
v 5.028333947 -3.672701561 8.439000000
v 3.428333947 -3.263701561 8.439000000
v 2.544333947 -5.727701561 8.439000000
v -1.000666053 -1.137701561 8.439000000
v -7.362666053 0.209298439 8.439000000
v -7.264666053 0.641298439 8.439000000
v -6.668666053 3.275298439 8.439000000
v -1.000666053 -1.137701561 15.209000000
v 2.544333947 -5.727701561 11.281000000
v 3.428333947 -3.263701561 13.863000000
v -12.237666053 4.413298439 10.698000000
v -8.726666053 3.696298439 11.155000000
v -7.362666053 0.209298439 15.458000000
v -8.414666053 5.430298439 11.157000000
v -7.803666053 8.835298439 11.162000000
v -11.393666053 9.433298439 10.697000000
v 5.028333947 -3.672701561 13.731000000
v 5.456333947 -1.567701561 15.881000000
v -7.264666053 0.641298439 15.901000000
v -6.264666053 5.062298439 10.501000000
v -6.264666053 5.062298439 11.403000000
v -6.668666053 3.275298439 10.524000000
v -6.668666053 3.275298439 13.221000000
v 6.365333947 2.902298439 11.352000000
v -7.919666053 -6.783701561 8.439000000
v -8.450666053 -10.237701561 8.439000000
v -13.145666053 -0.980701561 8.439000000
v -9.714666053 -1.765701561 8.439000000
v -9.199666053 -6.832701561 8.439000000
v -14.409666053 -9.006701561 10.782000000
v -14.361666053 -9.091701561 10.781000000
v -14.037666053 -9.295701561 10.770000000
v -8.450666053 -10.237701561 10.618000000
v -14.449666053 -8.865701561 10.785000000
v -14.296666053 -9.165701561 10.778000000
v -14.176666053 -9.249701561 10.774000000
v -13.145666053 -0.980701561 10.813000000
v -14.452666053 -8.767701561 10.785000000
v -9.714666053 -1.765701561 10.717000000
v -9.199666053 -6.832701561 10.664000000
v -7.919666053 -6.783701561 10.631000000
f 8 9 10
f 8 10 11
f 8 11 12
f 8 12 13
f 8 13 14
f 8 14 15
f 8 15 16
f 8 16 17
f 8 17 18
f 8 18 19
f 8 19 20
f 8 20 21
f 8 21 22
f 23 19 18
f 23 18 24
f 24 18 17
f 24 17 25
f 26 9 8
f 26 8 27
f 28 20 19
f 28 19 23
f 29 12 11
f 29 11 30
f 30 11 10
f 30 10 31
f 32 16 15
f 32 15 33
f 25 17 16
f 25 16 32
f 31 10 9
f 31 9 26
f 34 21 20
f 34 20 28
f 35 13 12
f 35 12 29
f 36 35 37
f 36 37 38
f 27 8 22
f 27 22 37
f 38 37 22
f 38 22 21
f 38 21 34
f 33 15 14
f 33 14 39
f 39 14 13
f 39 13 35
f 39 35 36
f 31 26 27
f 31 27 29
f 31 29 30
f 27 37 35
f 27 35 29
f 33 34 28
f 33 28 23
f 33 23 24
f 33 24 25
f 33 25 32
f 34 33 39
f 34 39 36
f 34 36 38
f 40 41 7
f 40 7 6
f 40 6 5
f 40 5 4
f 40 4 3
f 40 3 2
f 40 2 1
f 40 1 42
f 40 42 43
f 40 43 44
f 45 3 4
f 45 4 46
f 47 7 41
f 47 41 48
f 49 2 3
f 49 3 45
f 46 4 5
f 46 5 50
f 50 5 6
f 50 6 51
f 51 6 7
f 51 7 47
f 52 42 1
f 52 1 53
f 53 1 2
f 53 2 49
f 54 43 42
f 54 42 52
f 55 44 43
f 55 43 54
f 56 40 44
f 56 44 55
f 48 41 40
f 48 40 56
f 48 56 55
f 48 55 54
f 48 54 52
f 48 52 53
f 48 53 49
f 48 49 45
f 48 45 46
f 48 46 50
f 48 50 51
f 48 51 47
