v -6.171518228 10.841847006 42.770000000
v -2.207518228 9.102847006 42.770000000
v 3.084481772 6.780847006 42.770000000
v 1.158481772 6.027847006 42.770000000
v 9.747481772 2.332847006 42.770000000
v 7.784481772 -1.583152995 42.770000000
v 5.733481772 -5.676152994 42.770000000
v -2.211518228 -1.787152994 42.770000000
v -5.071518228 -8.497152994 42.770000000
v -9.142518228 -6.633152994 42.770000000
v -13.117518228 -4.813152994 42.770000000
v -2.211518228 -1.787152994 45.982000000
v -2.211518228 -1.787152994 46.093000000
v -2.392518228 -1.698152994 46.099000000
v -5.071518228 -8.497152994 45.933000000
v 5.733481772 -5.676152994 45.870000000
v 7.784481772 -1.583152995 48.517000000
v -13.117518228 -4.813152994 45.972000000
v -9.142518228 -6.633152994 48.504000000
v 9.747481772 2.332847006 45.997000000
v -9.142518228 -6.633152994 48.511000000
v -4.552518228 3.781847006 48.506000000
v -4.552518228 3.781847006 48.507000000
v -4.552518228 3.781847006 48.508000000
v -4.552518228 3.781847006 48.509000000
v 1.158481772 6.027847006 46.012000000
v 3.084481772 6.780847006 45.172000000
v -4.552518228 3.781847006 48.499000000
v -2.207518228 9.102847006 48.496000000
v -6.171518228 10.841847006 46.001000000
v -2.207518228 9.102847006 48.508000000
f 1 2 3
f 1 3 4
f 1 4 5
f 1 5 6
f 1 6 7
f 1 7 8
f 1 8 9
f 1 9 10
f 1 10 11
f 12 13 14
f 15 9 8
f 15 8 12
f 13 12 8
f 13 8 7
f 13 7 16
f 16 7 6
f 16 6 17
f 18 11 10
f 18 10 19
f 17 6 5
f 17 5 20
f 21 19 10
f 21 10 9
f 21 9 15
f 22 23 24
f 22 24 25
f 26 4 3
f 26 3 27
f 20 5 4
f 20 4 26
f 28 22 23
f 28 23 24
f 24 23 22
f 27 3 2
f 27 2 29
f 25 24 23
f 25 23 19
f 25 19 21
f 30 1 11
f 30 11 18
f 23 22 28
f 23 28 29
f 23 29 31
f 31 29 2
f 31 2 1
f 31 1 30
f 24 17 20
f 24 20 26
f 17 22 14
f 17 14 13
f 17 13 16
f 25 21 15
f 25 15 12
f 25 12 14
f 29 28 26
f 29 26 27
f 31 30 18
f 31 18 19
f 31 19 23
