v -22.645065775 28.035677242 19.360000000
v -22.838065775 28.056677242 19.360000000
v -22.845065775 27.795677242 19.360000000
v -22.681065775 27.761677242 19.360000000
v -22.856065775 26.431677242 19.360000000
v -25.699065775 26.787677241 19.360000000
v -25.398065775 28.335677242 19.360000000
v -25.129065775 29.721677242 19.360000000
v -22.455065775 29.481677242 19.360000000
v -22.856065775 26.431677242 20.988000000
v -22.681065775 27.761677242 21.736000000
v -25.699065775 26.787677241 21.015000000
v -22.645065775 28.035677242 21.890000000
v -22.455065775 29.481677242 21.082000000
v -25.129065775 29.721677242 21.112000000
v -25.398065775 28.335677242 21.892000000
v -22.845065775 27.795677242 21.745000000
v -22.838065775 28.056677242 21.890000000
v -24.041065775 -2.563322758 19.360000000
v -25.229065775 -3.799322758 19.360000000
v -26.943065775 -3.510322758 19.360000000
v -25.850065775 -1.514322758 19.360000000
v -24.041065775 -2.563322758 21.660000000
v -25.850065775 -1.514322758 22.170000000
v -26.943065775 -3.510322758 21.719000000
v -25.229065775 -3.799322758 21.439000000
v -11.334065775 2.007677242 19.360000000
v -11.473065775 8.657677242 19.360000000
v -16.617065775 8.864677242 19.360000000
v -16.522065775 11.174677242 19.360000000
v -16.351065775 11.171677242 19.360000000
v -16.421065775 13.934677242 19.360000000
v -16.534065775 13.938677242 19.360000000
v -16.454065775 16.733677242 19.360000000
v -16.445065775 17.050677242 19.360000000
v -16.019065775 17.031677242 19.360000000
v -16.118065775 20.564677242 19.360000000
v -2.923065775 20.089677242 19.360000000
v -2.119065775 15.054677241 19.360000000
v -1.795065775 15.025677242 19.360000000
v -1.899065775 14.708677242 19.360000000
v -2.109065775 1.286677242 19.360000000
v -6.852065775 1.657677242 19.360000000
v -11.246065775 8.648677242 19.360000000
v -11.477065775 8.830677242 19.360000000
v -10.139065775 13.765677242 24.413000000
v -10.139065775 13.765677242 23.921000000
v -10.139065775 14.241677242 23.905000000
v -10.139065775 14.241677242 24.104000000
v -11.477065775 8.830677242 22.716000000
v -11.477065775 8.830677242 22.275000000
v -11.246065775 8.648677242 22.957000000
v -11.473065775 8.657677242 22.267000000
v -11.473065775 8.657677242 22.725000000
v -8.122065775 15.730677241 25.914000000
v -8.122065775 15.730677241 22.772000000
v -8.251065775 15.904677242 22.738000000
v -8.251065775 15.904677242 25.777000000
v -16.118065775 20.564677242 21.873000000
v -16.019065775 17.031677242 22.566000000
v -16.445065775 17.050677242 22.565000000
v -16.454065775 16.733677242 22.627000000
v -16.617065775 8.864677242 22.283000000
v -16.534065775 13.938677242 24.449000000
v -16.421065775 13.934677242 24.448000000
v -9.521065775 15.689677242 22.789000000
v -9.521065775 15.689677242 23.147000000
v -9.521065775 15.689677242 24.489000000
v -6.852065775 1.657677242 27.664000000
v -2.109065775 1.286677242 22.848000000
v -1.899065775 14.708677242 23.012000000
v -1.795065775 15.025677242 22.917000000
v -2.119065775 15.054677241 22.867000000
v -2.119065775 15.054677241 23.246000000
v -16.351065775 11.171677242 22.380000000
v -16.522065775 11.174677242 22.380000000
v -10.138065775 13.136677242 23.942000000
v -11.885065775 9.151677242 22.289000000
v -2.923065775 20.089677242 21.882000000
v -8.231065775 15.590677242 25.808000000
v -8.231065775 15.590677242 22.800000000
v -6.442065775 15.433677242 27.637000000
v -6.442065775 15.433677242 22.819000000
v -11.334065775 2.007677242 23.082000000
v -10.060065775 14.428677242 23.980000000
v -10.142065775 15.584677242 22.813000000
v -10.142065775 15.584677242 23.230000000
v -10.143065775 16.500677242 22.633000000
v -11.746065775 11.066677242 22.369000000
f 27 28 29
f 27 29 30
f 27 30 31
f 27 31 32
f 27 32 33
f 27 33 34
f 27 34 35
f 27 35 36
f 27 36 37
f 27 37 38
f 27 38 39
f 27 39 40
f 27 40 41
f 27 41 42
f 27 42 43
f 28 44 45
f 50 51 45
f 50 45 44
f 50 44 52
f 53 28 45
f 53 45 51
f 52 44 28
f 52 28 53
f 52 53 54
f 55 56 57
f 55 57 58
f 59 37 36
f 59 36 60
f 61 35 34
f 61 34 62
f 60 36 35
f 60 35 61
f 63 29 28
f 63 28 53
f 64 33 32
f 64 32 65
f 62 34 33
f 62 33 64
f 58 57 66
f 58 66 67
f 58 67 68
f 69 43 42
f 69 42 70
f 71 41 40
f 71 40 72
f 72 40 39
f 72 39 73
f 72 73 74
f 75 31 30
f 75 30 76
f 65 32 31
f 65 31 75
f 79 38 37
f 79 37 59
f 80 81 56
f 80 56 55
f 82 83 81
f 82 81 80
f 73 39 38
f 73 38 79
f 74 73 83
f 74 83 82
f 70 42 41
f 70 41 71
f 76 30 29
f 76 29 63
f 84 27 43
f 84 43 69
f 54 53 28
f 54 28 27
f 54 27 84
f 68 67 85
f 67 66 86
f 67 86 87
f 87 86 88
f 77 46 65
f 77 65 75
f 77 75 89
f 70 71 72
f 70 72 74
f 70 74 82
f 70 82 69
f 76 63 53
f 76 53 51
f 76 51 78
f 76 78 89
f 76 89 75
f 68 85 48
f 68 48 47
f 68 47 77
f 68 77 89
f 68 89 78
f 68 78 50
f 68 50 52
f 68 52 54
f 68 54 84
f 68 84 69
f 68 69 82
f 68 82 80
f 68 80 55
f 68 55 58
f 87 88 62
f 87 62 64
f 87 64 65
f 87 65 46
f 87 46 49
f 87 49 85
f 87 85 67
f 88 86 66
f 88 66 57
f 88 57 56
f 88 56 81
f 88 81 83
f 88 83 73
f 88 73 79
f 88 79 59
f 88 59 60
f 88 60 61
f 88 61 62
f 1 2 3
f 1 3 4
f 1 4 5
f 1 5 6
f 1 6 7
f 1 7 8
f 1 8 9
f 10 5 4
f 10 4 11
f 12 6 5
f 12 5 10
f 13 1 9
f 13 9 14
f 14 9 8
f 14 8 15
f 15 8 7
f 15 7 16
f 16 7 6
f 16 6 12
f 11 4 3
f 11 3 17
f 18 2 1
f 18 1 13
f 17 3 2
f 17 2 18
f 18 13 14
f 18 14 15
f 18 15 16
f 17 18 16
f 17 16 12
f 17 12 10
f 17 10 11
f 19 20 21
f 19 21 22
f 23 19 22
f 23 22 24
f 25 21 20
f 25 20 26
f 24 22 21
f 24 21 25
f 26 20 19
f 26 19 23
f 26 23 24
f 26 24 25
