v -62.509627155 19.170832617 64.150000000
v -64.174627155 17.312832617 64.150000000
v -65.761627155 15.543832617 64.150000000
v -70.291627155 19.626832617 64.150000000
v -68.568627155 21.462832617 64.150000000
v -66.879627155 23.262832616 64.150000000
v -66.879627155 23.262832616 66.851000000
v -68.568627155 21.462832617 67.925000000
v -70.291627155 19.626832617 66.823000000
v -65.761627155 15.543832617 66.894000000
v -64.174627155 17.312832617 67.933000000
v -62.509627155 19.170832617 66.848000000
v -17.048627155 -57.755167383 64.150000000
v -11.400627155 -76.383167383 64.150000000
v -15.042627155 -77.212167383 64.150000000
v -18.758627155 -78.058167383 64.150000000
v -21.866627155 -67.326167383 64.150000000
v -22.842627155 -67.514167383 64.150000000
v -33.421627155 -69.549167383 64.150000000
v -33.115627155 -70.509167383 64.150000000
v -28.799627155 -84.032167383 64.150000000
v -32.652627155 -85.141167383 64.150000000
v -35.033627155 -85.825167383 64.150000000
v -43.551627155 -88.275167383 64.150000000
v -43.420627155 -86.973167383 64.150000000
v -43.845627155 -84.496167383 64.150000000
v -44.469627155 -80.863167383 64.150000000
v -38.454627155 -78.984167383 64.150000000
v -40.151627155 -72.172167383 64.150000000
v -40.079627155 -72.037167383 64.150000000
v -40.180627155 -72.059167383 64.150000000
v -40.518627155 -70.703167384 64.150000000
v -39.103627155 -69.270167383 64.150000000
v -38.719627155 -68.881167383 64.150000000
v -39.019627155 -67.343167383 64.150000000
v -37.048627155 -66.422167383 64.150000000
v -34.760627155 -65.352167383 64.150000000
v -35.511627155 -63.001167383 64.150000000
v -27.619627155 -61.776167383 64.150000000
v -27.780627155 -61.270167383 64.150000000
v -29.090627155 -57.150167383 64.150000000
v -26.937627155 -56.468167383 64.150000000
v -24.778627155 -55.783167383 64.150000000
v -23.599627155 -57.513167383 64.150000000
v -22.422627155 -59.239167383 64.150000000
v -20.687627155 -58.760167384 64.150000000
v -43.551627155 -88.275167383 69.378000000
v -35.033627155 -85.825167383 69.436000000
v -43.420627155 -86.973167383 70.218000000
v -36.608627155 -71.276167383 71.971000000
v -36.608627155 -71.276167383 68.800000000
v -38.184627155 -71.622167383 68.966000000
v -38.184627155 -71.622167383 70.473000000
v -34.318627155 -66.737167384 71.489000000
v -34.318627155 -66.737167384 68.783000000
v -33.421627155 -69.549167383 68.521000000
v -33.115627155 -70.509167383 68.432000000
v -33.115627155 -70.509167383 68.560000000
v -36.608627155 -71.276167383 72.000000000
v -32.652627155 -85.141167383 71.980000000
v -32.652627155 -85.141167383 71.973000000
v -28.799627155 -84.032167383 68.116000000
v -33.339627155 -82.726167383 71.981000000
v -37.048627155 -66.422167383 69.122000000
v -39.019627155 -67.343167383 68.008000000
v -34.760627155 -65.352167383 69.948000000
v -34.760627155 -65.352167383 68.913000000
v -38.454627155 -78.984167383 68.357000000
v -38.454627155 -78.984167383 69.310000000
v -37.501627155 -78.686167384 69.285000000
v -33.697627155 -81.703167384 71.922000000
v -33.697627155 -81.703167384 71.920000000
v -17.048627155 -57.755167383 68.347000000
v -20.687627155 -58.760167384 72.146000000
v -18.758627155 -78.058167383 68.205000000
v -15.042627155 -77.212167383 72.100000000
v -25.089627155 -62.357167383 70.062000000
v -25.089627155 -62.357167383 69.800000000
v -24.905627155 -62.432167383 69.931000000
v -22.842627155 -67.514167383 67.390000000
v -21.866627155 -67.326167383 68.404000000
v -43.845627155 -84.496167383 71.938000000
v -44.469627155 -80.863167383 69.465000000
v -40.079627155 -72.037167383 68.672000000
v -40.079627155 -72.037167383 67.214000000
v -40.151627155 -72.172167383 68.572000000
v -33.697627155 -81.703167384 71.924000000
v -35.033627155 -85.825167383 69.705000000
v -33.659627155 -81.605167383 71.983000000
v -33.659627155 -81.605167383 71.980000000
v -33.697627155 -81.703167384 72.044000000
v -33.612627155 -81.770167383 71.864000000
v -33.612627155 -81.770167383 71.982000000
v -11.400627155 -76.383167383 68.349000000
v -20.812627155 -63.254167384 70.895000000
v -20.812627155 -63.254167384 70.666000000
v -20.647627155 -62.649167383 71.010000000
v -20.647627155 -62.649167383 71.429000000
v -20.702627155 -63.389167383 70.733000000
v -25.014627155 -62.112167384 69.931000000
v -24.116627155 -59.194167383 68.369000000
v -24.116627155 -59.194167383 66.875000000
v -23.599627155 -57.513167383 65.320000000
v -23.599627155 -57.513167383 67.468000000
v -24.116627155 -59.194167383 68.657000000
v -24.194627155 -59.447167384 68.504000000
v -23.380627155 -60.099167383 69.104000000
v -23.380627155 -60.099167383 68.015000000
v -24.778627155 -55.783167383 67.956000000
v -26.937627155 -56.468167383 69.932000000
v -22.422627155 -59.239167383 67.428000000
v -22.422627155 -59.239167383 70.303000000
v -40.518627155 -70.703167384 67.163000000
v -40.180627155 -72.059167383 67.120000000
v -29.090627155 -57.150167383 67.966000000
v -35.511627155 -63.001167383 67.332000000
v -27.619627155 -61.776167383 68.451000000
v -39.103627155 -69.270167383 68.751000000
v -27.780627155 -61.270167383 67.888000000
v -38.719627155 -68.881167383 68.880000000
v -20.571627155 -62.371167383 71.169000000
v -22.905627155 -59.372167383 69.789000000
v -22.905627155 -59.372167383 67.419000000
v -23.784627155 -60.716167383 68.522000000
v -38.628627155 -69.348167383 69.145000000
f 13 14 15
f 13 15 16
f 13 16 17
f 13 17 18
f 13 18 19
f 13 19 20
f 13 20 21
f 13 21 22
f 13 22 23
f 13 23 24
f 13 24 25
f 13 25 26
f 13 26 27
f 13 27 28
f 13 28 29
f 13 29 30
f 13 30 31
f 13 31 32
f 13 32 33
f 13 33 34
f 13 34 35
f 13 35 36
f 13 36 37
f 13 37 38
f 13 38 39
f 13 39 40
f 13 40 41
f 13 41 42
f 13 42 43
f 13 43 44
f 13 44 45
f 13 45 46
f 47 24 23
f 47 23 48
f 49 25 24
f 49 24 47
f 50 51 52
f 50 52 53
f 54 55 56
f 57 20 19
f 57 19 56
f 58 57 51
f 58 51 50
f 58 50 59
f 60 61 22
f 60 22 21
f 60 21 62
f 64 36 35
f 64 35 65
f 66 67 55
f 66 55 54
f 67 37 36
f 67 36 64
f 71 72 70
f 73 13 46
f 73 46 74
f 75 16 15
f 75 15 76
f 77 78 79
f 56 19 18
f 56 18 80
f 81 17 16
f 81 16 75
f 82 26 25
f 82 25 49
f 83 27 26
f 83 26 82
f 84 85 30
f 84 30 29
f 84 29 86
f 53 52 85
f 53 85 84
f 87 71 82
f 80 18 17
f 80 17 81
f 62 21 20
f 62 20 57
f 62 57 58
f 88 48 23
f 89 90 72
f 89 72 71
f 89 71 87
f 89 87 91
f 91 87 92
f 91 92 93
f 76 15 14
f 76 14 94
f 94 14 13
f 94 13 73
f 95 96 97
f 95 97 98
f 96 95 99
f 78 77 100
f 101 102 103
f 101 103 104
f 105 101 106
f 107 108 102
f 107 102 101
f 107 101 105
f 104 103 44
f 104 44 43
f 104 43 109
f 109 43 42
f 109 42 110
f 111 45 44
f 111 44 103
f 74 46 45
f 74 45 111
f 74 111 112
f 113 32 31
f 113 31 114
f 114 31 30
f 114 30 85
f 110 42 41
f 110 41 115
f 116 38 37
f 116 37 67
f 116 67 66
f 117 39 38
f 117 38 116
f 93 92 48
f 93 48 88
f 118 33 32
f 118 32 113
f 115 41 40
f 115 40 119
f 119 40 39
f 119 39 117
f 59 50 90
f 59 90 89
f 120 34 33
f 120 33 118
f 98 97 121
f 69 68 28
f 69 28 27
f 69 27 83
f 86 29 28
f 86 28 68
f 122 123 108
f 122 108 107
f 112 111 123
f 112 123 122
f 65 35 34
f 65 34 120
f 93 88 61
f 93 61 63
f 94 73 74
f 94 74 76
f 110 100 77
f 110 77 79
f 110 79 124
f 110 124 106
f 110 106 101
f 110 101 104
f 110 104 109
f 48 92 87
f 48 87 82
f 48 82 49
f 48 49 47
f 115 119 78
f 115 78 100
f 115 100 110
f 98 54 56
f 98 56 80
f 98 80 99
f 98 99 95
f 59 89 91
f 59 91 93
f 59 63 60
f 59 60 62
f 59 62 58
f 125 52 51
f 125 51 57
f 125 57 56
f 125 56 55
f 125 55 67
f 125 67 64
f 52 125 118
f 52 118 113
f 52 113 114
f 52 114 85
f 69 83 82
f 69 82 71
f 69 71 70
f 86 68 70
f 86 70 72
f 86 72 90
f 86 90 50
f 86 50 53
f 86 53 84
f 112 122 107
f 112 107 105
f 112 105 106
f 112 106 124
f 112 124 121
f 112 121 97
f 112 97 96
f 112 96 99
f 112 99 80
f 112 80 81
f 112 81 75
f 112 75 76
f 112 76 74
f 123 111 103
f 123 103 102
f 123 102 108
f 65 120 118
f 65 118 125
f 65 125 64
f 54 98 121
f 54 121 124
f 54 124 79
f 54 79 78
f 54 78 119
f 54 119 117
f 54 117 116
f 54 116 66
f 1 2 3
f 1 3 4
f 1 4 5
f 1 5 6
f 7 6 5
f 7 5 8
f 9 4 3
f 9 3 10
f 10 3 2
f 10 2 11
f 8 5 4
f 8 4 9
f 12 1 6
f 12 6 7
f 11 2 1
f 11 1 12
f 8 9 10
f 8 10 11
f 11 12 7
f 11 7 8
