v -0.098070620 5.536177808 39.220000000
v -3.811070620 4.567177809 39.220000000
v -4.192070620 7.823177809 39.220000000
v -2.144070620 8.542177808 39.220000000
v -1.781070620 7.723177808 39.220000000
v -0.845070620 8.165177808 39.220000000
v 0.982929380 9.028177808 39.220000000
v 3.227929380 9.579177808 39.220000000
v 7.450929380 10.618177809 39.220000000
v 9.896929380 1.731177809 39.220000000
v 5.694929380 0.756177808 39.220000000
v 1.531929380 -0.209822192 39.220000000
v -1.781070620 7.723177808 42.723000000
v -2.144070620 8.542177808 42.697000000
v -0.845070620 8.165177808 42.925000000
v 0.982929380 9.028177808 44.895000000
v -4.192070620 7.823177809 42.270000000
v -3.811070620 4.567177809 42.172000000
v -0.098070620 5.536177808 42.929000000
v 1.531929380 -0.209822192 42.940000000
v 5.694929380 0.756177808 47.158000000
v 3.227929380 9.579177808 47.178000000
v 7.450929380 10.618177809 42.851000000
v 9.896929380 1.731177809 42.869000000
v -6.157070620 3.955177808 39.220000000
v -5.164070620 4.214177809 39.220000000
v -3.445070620 -2.744822192 39.220000000
v -5.607070620 -3.180822192 39.220000000
v -7.936070620 -3.650822191 39.220000000
v -9.366070620 3.461177808 39.220000000
v -7.360070620 3.770177809 39.220000000
v -7.360070620 3.770177809 43.801000000
v -9.366070620 3.461177808 42.390000000
v -7.936070620 -3.650822191 42.126000000
v -5.607070620 -3.180822192 43.785000000
v -3.445070620 -2.744822192 42.237000000
v -6.157070620 3.955177808 42.949000000
v -5.164070620 4.214177809 42.228000000
f 1 2 3
f 1 3 4
f 1 4 5
f 1 5 6
f 1 6 7
f 1 7 8
f 1 8 9
f 1 9 10
f 1 10 11
f 1 11 12
f 13 5 4
f 13 4 14
f 15 6 5
f 15 5 13
f 16 7 6
f 16 6 15
f 14 4 3
f 14 3 17
f 17 3 2
f 17 2 18
f 18 2 1
f 18 1 19
f 19 1 12
f 19 12 20
f 20 12 11
f 20 11 21
f 22 8 7
f 22 7 16
f 23 9 8
f 23 8 22
f 21 11 10
f 21 10 24
f 24 10 9
f 24 9 23
f 18 19 15
f 18 15 13
f 18 13 14
f 18 14 17
f 21 22 16
f 21 16 15
f 21 15 19
f 21 19 20
f 24 23 22
f 24 22 21
f 25 26 27
f 25 27 28
f 25 28 29
f 25 29 30
f 25 30 31
f 32 31 30
f 32 30 33
f 33 30 29
f 33 29 34
f 35 28 27
f 35 27 36
f 34 29 28
f 34 28 35
f 37 25 31
f 37 31 32
f 36 27 26
f 36 26 38
f 38 26 25
f 38 25 37
f 35 32 33
f 35 33 34
f 32 35 36
f 32 36 38
f 32 38 37
