v 13.859085868 -2.056554240 28.920000000
v 12.071085868 -9.958554240 28.920000000
v 7.819085868 -9.139554240 28.920000000
v 4.067085868 -8.416554241 28.920000000
v 5.536085868 0.085445760 28.920000000
v 9.808085868 -1.013554241 28.920000000
v 4.067085868 -8.416554241 37.430000000
v 7.819085868 -9.139554240 41.165000000
v 9.808085868 -1.013554241 41.152000000
v 5.536085868 0.085445760 36.836000000
v 12.071085868 -9.958554240 36.922000000
v 13.859085868 -2.056554240 37.050000000
f 1 2 3
f 1 3 4
f 1 4 5
f 1 5 6
f 7 4 3
f 7 3 8
f 9 6 5
f 9 5 10
f 10 5 4
f 10 4 7
f 8 3 2
f 8 2 11
f 12 1 6
f 12 6 9
f 11 2 1
f 11 1 12
f 10 7 8
f 10 8 9
f 11 12 9
f 11 9 8
