v -13.501246116 10.139213045 5.179000000
v -13.643246116 10.117213045 5.179000000
v -13.812246116 10.026213045 5.179000000
v -13.908246116 9.919213045 5.179000000
v -13.971246116 9.790213046 5.179000000
v -13.991246116 9.696213045 5.179000000
v -14.414246116 5.976213045 5.179000000
v -14.415246116 5.878213045 5.179000000
v -14.398246116 5.782213045 5.179000000
v -14.362246116 5.691213045 5.179000000
v -14.309246116 5.609213046 5.179000000
v -14.241246116 5.539213046 5.179000000
v -14.161246116 5.483213046 5.179000000
v -14.071246116 5.444213046 5.179000000
v -13.976246116 5.423213045 5.179000000
v -13.844246116 5.418213045 5.179000000
v -14.897246116 -3.561786954 5.179000000
v -14.173246116 2.612213045 5.179000000
v -14.278246116 7.165213046 5.179000000
v -5.042246116 10.268213046 5.179000000
v -5.197246116 7.108213046 5.179000000
v -5.357246116 3.859213046 5.179000000
v -3.751246116 2.411213045 5.179000000
v -8.078246116 -4.850786954 5.179000000
v -10.635246116 -5.044786954 5.179000000
v -10.631246116 -4.933786955 5.179000000
v -11.212246116 -5.088786955 5.179000000
v -12.273246116 -5.169786954 5.179000000
v -13.812246116 10.026213045 7.904000000
v -13.908246116 9.919213045 7.929000000
v -13.643246116 10.117213045 7.882000000
v -13.501246116 10.139213045 7.876000000
v -13.991246116 9.696213045 7.983000000
v -14.278246116 7.165213046 8.585000000
v -13.971246116 9.790213046 7.960000000
v -14.362246116 5.691213045 8.394000000
v -14.309246116 5.609213046 8.370000000
v -14.398246116 5.782213045 8.420000000
v -14.241246116 5.539213046 8.348000000
v -14.161246116 5.483213046 8.331000000
v -14.071246116 5.444213046 8.318000000
v -13.976246116 5.423213045 8.310000000
v -13.844246116 5.418213045 8.305000000
v -14.278246116 7.165213046 8.805000000
v -14.414246116 5.976213045 8.475000000
v -14.415246116 5.878213045 8.447000000
v -10.166246116 6.588213045 8.552000000
v -10.166246116 6.588213045 8.551000000
v -10.631246116 -4.933786955 8.502000000
v -9.836246116 6.920213046 8.639000000
v -9.836246116 6.920213046 8.635000000
v -9.844246116 6.912213045 8.637000000
v -10.166246116 6.588213045 8.714000000
v -10.166246116 6.588213045 8.549000000
v -14.173246116 2.612213045 7.527000000
v -5.197246116 7.108213046 8.581000000
v -5.042246116 10.268213046 7.829000000
v -11.929246116 6.836213046 8.659000000
v -5.357246116 3.859213046 7.734000000
v -5.357246116 3.859213046 7.805000000
v -5.370246116 3.589213045 7.733000000
v -5.197246116 7.108213046 8.670000000
v -3.751246116 2.411213045 7.455000000
v -10.644246116 6.887213046 8.644000000
v -11.212246116 -5.088786955 8.351000000
v -8.078246116 -4.850786954 8.085000000
v -10.635246116 -5.044786954 8.501000000
v -14.897246116 -3.561786954 7.377000000
v -12.273246116 -5.169786954 8.074000000
v -11.076246116 -18.054786955 5.179000000
v -11.436246116 -19.263786955 5.179000000
v -11.929246116 -20.914786954 5.179000000
v -16.244246116 -19.734786955 5.179000000
v -15.723246116 -18.935786955 5.179000000
v -14.412246116 -16.927786955 5.179000000
v -11.436246116 -19.263786955 7.914000000
v -11.076246116 -18.054786955 7.528000000
v -14.412246116 -16.927786955 7.231000000
v -11.929246116 -20.914786954 7.363000000
v -15.723246116 -18.935786955 7.885000000
v -16.244246116 -19.734786955 7.609000000
v 12.953753884 4.803213045 5.179000000
v 10.707753884 -6.103786955 5.179000000
v 6.397753884 -5.279786955 5.179000000
v 2.114753884 -4.460786954 5.179000000
v 1.950753884 -4.252786955 5.179000000
v 1.916753884 -4.422786955 5.179000000
v -0.283246116 -4.001786955 5.179000000
v 0.228753884 -2.069786955 5.179000000
v 1.396753884 2.341213046 5.179000000
v 0.191753884 2.328213045 5.179000000
v 0.365753884 4.321213045 5.179000000
v 0.502753884 5.885213045 5.179000000
v 4.075753884 5.920213046 5.179000000
v 3.975753884 6.051213046 5.179000000
v 4.089753884 6.627213045 5.179000000
v 8.544753884 5.711213046 5.179000000
v 12.953753884 4.803213045 7.494000000
v 8.544753884 5.711213046 11.945000000
v 4.089753884 6.627213045 7.397000000
v 2.114753884 -4.460786954 7.606000000
v 6.397753884 -5.279786955 11.965000000
v 10.707753884 -6.103786955 7.625000000
v 0.228753884 -2.069786955 6.203000000
v -0.283246116 -4.001786955 5.691000000
v 1.916753884 -4.422786955 5.570000000
v 1.950753884 -4.252786955 5.615000000
v 0.228753884 -2.069786955 7.296000000
v 1.950753884 -4.252786955 7.404000000
v 3.975753884 6.051213046 7.398000000
v 4.075753884 5.920213046 7.521000000
v 0.502753884 5.885213045 7.724000000
v 0.365753884 4.321213045 9.261000000
v 0.191753884 2.328213045 7.249000000
v 1.396753884 2.341213046 7.308000000
v 5.465753884 4.101213045 9.236000000
v 3.250753884 2.361213045 7.400000000
f 70 71 72
f 70 72 73
f 70 73 74
f 70 74 75
f 76 71 70
f 76 70 77
f 77 70 75
f 77 75 78
f 79 72 71
f 79 71 76
f 78 75 74
f 78 74 80
f 80 74 73
f 80 73 81
f 81 73 72
f 81 72 79
f 80 76 77
f 80 77 78
f 76 80 81
f 76 81 79
f 17 18 16
f 17 16 15
f 17 15 14
f 17 14 13
f 17 13 12
f 17 12 11
f 17 11 10
f 17 10 9
f 17 9 8
f 17 8 7
f 17 7 19
f 17 19 6
f 17 6 5
f 17 5 4
f 17 4 3
f 17 3 2
f 17 2 1
f 17 1 20
f 17 20 21
f 17 21 22
f 17 22 23
f 17 23 24
f 17 24 25
f 17 25 26
f 17 26 27
f 17 27 28
f 29 3 4
f 29 4 30
f 31 2 3
f 31 3 29
f 32 1 2
f 32 2 31
f 33 6 19
f 33 19 34
f 30 4 5
f 30 5 35
f 36 10 11
f 36 11 37
f 38 9 10
f 38 10 36
f 39 12 13
f 39 13 40
f 40 13 14
f 40 14 41
f 37 11 12
f 37 12 39
f 42 15 16
f 42 16 43
f 35 5 6
f 35 6 33
f 44 34 19
f 44 19 7
f 44 7 45
f 45 7 8
f 45 8 46
f 41 14 15
f 41 15 42
f 50 51 52
f 53 47 52
f 43 16 18
f 43 18 55
f 56 21 20
f 56 20 57
f 57 20 1
f 57 1 32
f 59 60 61
f 62 56 51
f 62 51 50
f 60 59 22
f 60 22 21
f 60 21 56
f 60 56 62
f 63 23 22
f 63 22 59
f 54 48 47
f 54 47 53
f 65 27 26
f 65 26 49
f 66 24 23
f 66 23 63
f 67 25 24
f 67 24 66
f 46 8 9
f 46 9 38
f 68 17 28
f 68 28 69
f 49 26 25
f 49 25 67
f 69 28 27
f 69 27 65
f 55 18 17
f 55 17 68
f 60 62 50
f 60 50 52
f 60 52 47
f 60 47 61
f 64 53 52
f 64 52 51
f 64 51 56
f 64 56 57
f 64 57 32
f 64 32 31
f 64 31 29
f 64 29 30
f 64 30 35
f 64 35 33
f 64 33 34
f 64 34 58
f 46 38 36
f 46 36 37
f 46 37 39
f 46 39 40
f 46 40 41
f 46 41 42
f 46 42 43
f 46 43 55
f 46 55 54
f 46 54 64
f 46 64 58
f 46 58 44
f 46 44 45
f 49 67 66
f 49 66 63
f 49 63 59
f 49 59 61
f 49 61 47
f 55 68 69
f 55 69 65
f 55 65 49
f 55 49 48
f 82 83 84
f 82 84 85
f 82 85 86
f 82 86 87
f 82 87 88
f 82 88 89
f 82 89 90
f 82 90 91
f 82 91 92
f 82 92 93
f 82 93 94
f 82 94 95
f 82 95 96
f 82 96 97
f 98 82 97
f 98 97 99
f 99 97 96
f 99 96 100
f 101 85 84
f 101 84 102
f 102 84 83
f 102 83 103
f 103 83 82
f 103 82 98
f 104 89 88
f 104 88 105
f 105 88 87
f 105 87 106
f 106 87 86
f 106 86 107
f 108 104 107
f 108 107 109
f 110 95 94
f 110 94 111
f 111 94 93
f 111 93 112
f 100 96 95
f 100 95 110
f 112 93 92
f 112 92 113
f 113 92 91
f 113 91 114
f 115 90 89
f 115 89 104
f 115 104 108
f 114 91 90
f 114 90 115
f 109 107 86
f 109 86 85
f 109 85 101
f 103 98 99
f 103 99 102
f 107 104 105
f 107 105 106
f 116 111 112
f 116 112 113
f 115 108 109
f 115 109 117
f 114 115 117
f 114 117 116
f 114 116 113
f 109 101 102
f 109 102 99
f 109 99 100
f 109 100 110
f 109 110 111
f 109 111 116
f 109 116 117
