v 11.410268591 12.313400462 42.880000000
v 11.653268591 7.734400462 42.880000000
v 11.706268591 6.734400462 42.880000000
v 12.528268591 3.231400462 42.880000000
v 13.258268591 0.114400462 42.880000000
v 7.910268591 -1.477599538 42.880000000
v 7.244268591 1.971400462 42.880000000
v 1.094268591 0.504400462 42.880000000
v -8.042731409 -1.955599538 42.880000000
v -9.386731409 1.837400462 42.880000000
v -8.801731409 2.001400462 42.880000000
v -11.363731409 6.174400462 42.880000000
v -10.276731409 6.467400462 42.880000000
v -11.380731409 9.556400462 42.880000000
v -1.774731409 12.263400462 42.880000000
v -0.076731409 9.217400462 42.880000000
v 7.910268591 -1.477599538 45.736000000
v 13.258268591 0.114400462 45.668000000
v 7.244268591 1.971400462 46.219000000
v 12.528268591 3.231400462 46.111000000
v 11.706268591 6.734400462 48.004000000
v 1.094268591 0.504400462 46.344000000
v 11.653268591 7.734400462 48.519000000
v 11.410268591 12.313400462 46.162000000
v -0.076731409 9.217400462 46.089000000
v -0.076731409 9.217400462 46.090000000
v -8.042731409 -1.955599538 46.388000000
v -9.386731409 1.837400462 48.503000000
v -8.801731409 2.001400462 48.503000000
v -1.774731409 12.263400462 45.629000000
v -11.380731409 9.556400462 45.570000000
v -10.276731409 6.467400462 46.011000000
v -11.363731409 6.174400462 46.020000000
v -10.276731409 6.467400462 46.027000000
f 1 2 3
f 1 3 4
f 1 4 5
f 1 5 6
f 1 6 7
f 1 7 8
f 1 8 9
f 1 9 10
f 1 10 11
f 1 11 12
f 1 12 13
f 1 13 14
f 1 14 15
f 1 15 16
f 17 6 5
f 17 5 18
f 19 7 6
f 19 6 17
f 20 4 3
f 20 3 21
f 22 8 7
f 22 7 19
f 23 2 1
f 23 1 24
f 24 1 16
f 24 16 25
f 24 25 26
f 27 9 8
f 27 8 22
f 18 5 4
f 18 4 20
f 28 10 9
f 28 9 27
f 29 11 10
f 29 10 28
f 30 15 14
f 30 14 31
f 31 14 13
f 31 13 32
f 33 12 11
f 33 11 29
f 34 32 13
f 34 13 12
f 34 12 33
f 26 25 32
f 26 32 34
f 25 16 15
f 25 15 30
f 21 3 2
f 21 2 23
f 18 20 19
f 18 19 17
f 25 30 31
f 25 31 32
f 29 23 24
f 29 24 26
f 29 26 34
f 29 34 33
f 23 29 28
f 23 28 27
f 23 27 22
f 23 22 19
f 23 19 20
f 23 20 21
