v -1.915069918 -9.811172388 50.919000000
v -6.962069918 -9.721172388 50.919000000
v -6.890069918 -8.843172387 50.919000000
v -9.448069918 -8.946172387 50.919000000
v -9.250069918 -4.863172388 50.919000000
v -6.537069918 -4.579172388 50.919000000
v -5.946069918 2.582827613 50.919000000
v -0.880069918 2.189827613 50.919000000
v 4.088930082 1.804827613 50.919000000
v 2.833930082 -9.896172388 50.919000000
v 4.088930082 1.804827613 53.761000000
v -0.880069918 2.189827613 57.464000000
v -6.537069918 -4.579172388 53.726000000
v -9.250069918 -4.863172388 53.153000000
v -5.946069918 2.582827613 53.709000000
v -6.962069918 -9.721172388 53.738000000
v -1.915069918 -9.811172388 57.460000000
v -6.890069918 -8.843172387 53.736000000
v 2.833930082 -9.896172388 53.940000000
v -9.448069918 -8.946172387 53.192000000
v 16.783930082 -5.496172387 50.919000000
v 12.884930082 -5.429172387 50.919000000
v 13.807930082 2.197827613 50.919000000
v 17.559930082 1.566827613 50.919000000
v 22.143930082 0.796827612 50.919000000
v 21.573930082 -5.578172388 50.919000000
v 12.884930082 -5.429172387 53.830000000
v 16.783930082 -5.496172387 54.512000000
v 13.807930082 2.197827613 53.826000000
v 22.143930082 0.796827612 53.847000000
v 17.559930082 1.566827613 54.495000000
v 21.573930082 -5.578172388 53.844000000
f 1 2 3
f 1 3 4
f 1 4 5
f 1 5 6
f 1 6 7
f 1 7 8
f 1 8 9
f 1 9 10
f 11 9 8
f 11 8 12
f 13 6 5
f 13 5 14
f 15 7 6
f 15 6 13
f 16 2 1
f 16 1 17
f 18 3 2
f 18 2 16
f 19 10 9
f 19 9 11
f 17 1 10
f 17 10 19
f 12 8 7
f 12 7 15
f 20 4 3
f 20 3 18
f 14 5 4
f 14 4 20
f 17 19 11
f 17 11 12
f 12 15 13
f 12 13 18
f 12 18 16
f 12 16 17
f 14 20 18
f 14 18 13
f 21 22 23
f 21 23 24
f 21 24 25
f 21 25 26
f 27 22 21
f 27 21 28
f 29 23 22
f 29 22 27
f 30 25 24
f 30 24 31
f 28 21 26
f 28 26 32
f 32 26 25
f 32 25 30
f 31 24 23
f 31 23 29
f 32 30 31
f 32 31 28
f 31 29 27
f 31 27 28
