v -5.646985902 -8.997395644 46.759000000
v -7.343985902 -8.935395644 46.759000000
v -9.646985902 -8.851395643 46.759000000
v -10.174985902 -8.832395644 46.759000000
v -15.209985902 -1.443395643 46.759000000
v -15.270985902 -1.352395643 46.759000000
v 7.822014098 15.145604356 46.759000000
v 13.254014098 7.214604356 46.759000000
v -0.957985902 -3.075395644 46.759000000
v -1.671985902 -3.590395643 46.759000000
v 0.570014098 -4.455395644 46.759000000
v 0.439014098 -6.254395643 46.759000000
v 1.277014098 -6.393395644 46.759000000
v -4.653985902 -10.652395643 46.759000000
v -5.157985902 -11.014395644 46.759000000
v 1.277014098 -6.393395644 49.369000000
v 0.439014098 -6.254395643 49.656000000
v 0.570014098 -4.455395644 49.103000000
v -0.957985902 -3.075395644 49.312000000
v 13.254014098 7.214604356 49.376000000
v -15.209985902 -1.443395643 49.359000000
v -10.174985902 -8.832395644 49.273000000
v -5.157985902 -11.014395644 49.056000000
v -4.653985902 -10.652395643 49.350000000
v -5.646985902 -8.997395644 49.439000000
v -9.646985902 -8.851395643 49.470000000
v -7.343985902 -8.935395644 48.812000000
v -5.875985902 -3.037395644 51.030000000
v -5.875985902 -3.037395644 50.663000000
v -6.424985902 -2.944395644 50.848000000
v -15.270985902 -1.352395643 49.308000000
v 7.822014098 15.145604356 49.303000000
v -5.791985902 -2.825395644 51.121000000
v -5.791985902 -2.825395644 50.721000000
v -1.671985902 -3.590395643 49.733000000
v -5.569985902 -2.258395644 50.877000000
v -6.620985902 -4.984395644 50.123000000
v -6.620985902 -4.984395644 50.199000000
v -6.692985902 -4.688395644 50.255000000
v -6.660985902 -5.038395643 50.169000000
v -6.660985902 -5.038395643 50.113000000
v -6.801985902 -5.398395644 50.014000000
v -8.597985902 -2.572395643 51.580000000
v 6.636014098 8.289604357 51.584000000
v -3.802985902 -5.552395644 51.108000000
f 1 2 3
f 1 3 4
f 1 4 5
f 1 5 6
f 1 6 7
f 1 7 8
f 1 8 9
f 1 9 10
f 1 10 11
f 1 11 12
f 1 12 13
f 1 13 14
f 1 14 15
f 16 13 12
f 16 12 17
f 17 12 11
f 17 11 18
f 19 9 8
f 19 8 20
f 21 5 4
f 21 4 22
f 23 15 14
f 23 14 24
f 25 1 15
f 25 15 23
f 26 3 2
f 26 2 27
f 28 29 30
f 31 6 5
f 31 5 21
f 22 4 3
f 22 3 26
f 24 14 13
f 24 13 16
f 20 8 7
f 20 7 32
f 33 34 29
f 33 29 28
f 18 11 10
f 18 10 35
f 34 33 36
f 35 10 9
f 35 9 19
f 32 7 6
f 32 6 31
f 27 2 1
f 27 1 25
f 37 38 39
f 40 41 42
f 38 37 41
f 38 41 40
f 22 26 43
f 22 43 21
f 20 32 44
f 45 24 16
f 45 16 17
f 35 19 36
f 35 36 33
f 35 33 45
f 35 45 17
f 35 17 18
f 32 31 21
f 32 21 43
f 32 43 44
f 38 40 42
f 38 42 27
f 38 27 25
f 38 25 23
f 38 23 24
f 38 24 45
f 38 45 33
f 38 33 28
f 38 28 30
f 38 30 39
f 41 37 39
f 41 39 30
f 41 30 29
f 41 29 34
f 41 34 36
f 41 36 19
f 41 19 20
f 41 20 44
f 41 44 43
f 41 43 26
f 41 26 27
f 41 27 42
