v 15.852379264 -1.968598185 56.930000000
v -22.311620736 1.128401815 56.930000000
v -22.247620736 1.112401815 56.930000000
v 3.833379264 -5.304598185 56.930000000
v 4.643379264 1.058401815 56.930000000
v 15.882379264 -1.904598185 56.930000000
v 12.694379264 -7.484598185 56.930000000
v 4.679379264 -5.512598185 56.930000000
v 4.571379264 -5.914598185 56.930000000
v 1.737379264 -16.400598185 56.930000000
v 2.479379264 -16.870598185 56.930000000
v -25.004620736 -9.806598185 56.930000000
v -25.073620736 -9.788598184 56.930000000
v 15.882379264 -1.904598185 59.990000000
v 4.643379264 1.058401815 59.933000000
v 15.852379264 -1.968598185 59.992000000
v 12.694379264 -7.484598185 60.158000000
v -25.004620736 -9.806598185 61.498000000
v 2.479379264 -16.870598185 61.526000000
v -25.073620736 -9.788598184 61.457000000
v 1.737379264 -16.400598185 61.683000000
v 4.571379264 -5.914598185 61.611000000
v -22.247620736 1.112401815 61.520000000
v -22.311620736 1.128401815 61.483000000
v 4.679379264 -5.512598185 60.122000000
v 4.679379264 -5.512598185 61.372000000
v 3.833379264 -5.304598185 60.118000000
v 3.833379264 -5.304598185 61.376000000
v -18.094620736 -5.782598185 64.775000000
v -2.147620736 -9.887598185 64.788000000
f 2 3 4
f 2 4 5
f 2 5 6
f 2 6 1
f 2 1 7
f 2 7 8
f 2 8 9
f 2 9 10
f 2 10 11
f 2 11 12
f 2 12 13
f 14 6 5
f 14 5 15
f 16 1 6
f 16 6 14
f 17 7 1
f 17 1 16
f 18 12 11
f 18 11 19
f 20 13 12
f 20 12 18
f 19 11 10
f 19 10 21
f 21 10 9
f 21 9 22
f 23 3 2
f 23 2 24
f 24 2 13
f 24 13 20
f 25 8 7
f 25 7 17
f 22 9 8
f 22 8 25
f 22 25 26
f 26 25 27
f 26 27 28
f 15 5 4
f 15 4 27
f 28 27 4
f 28 4 3
f 28 3 23
f 29 18 19
f 29 19 21
f 29 21 30
f 21 22 30
f 15 27 25
f 15 25 17
f 15 17 16
f 15 16 14
f 23 29 30
f 23 30 22
f 23 22 26
f 23 26 28
f 29 23 24
f 29 24 20
f 29 20 18
