v 7.512270539 -12.767536001 68.809000000
v -0.131729461 3.459463999 68.809000000
v 4.213270539 5.346463999 68.809000000
v 3.923270539 5.959463999 68.809000000
v 8.534270539 6.944463999 68.809000000
v 14.205270539 -5.181536001 68.809000000
v 18.589270539 -4.950536001 68.809000000
v 22.938270539 -13.869536001 68.809000000
v 19.535270539 -16.580536001 68.809000000
v 19.287270539 -16.778536001 68.809000000
v 14.588270539 -18.986536001 68.809000000
v 9.350270539 -21.448536001 68.809000000
v 5.550270539 -13.681536001 68.809000000
v 8.534270539 6.944463999 71.800000000
v 3.923270539 5.959463999 74.184000000
v 4.213270539 5.346463999 74.183000000
v 14.205270539 -5.181536001 71.822000000
v 18.589270539 -4.950536001 71.307000000
v -0.131729461 3.459463999 71.696000000
v 10.874270539 -11.202536001 73.613000000
v 10.874270539 -11.202536001 74.719000000
v 11.833270539 -10.755536001 74.169000000
v 19.287270539 -16.778536001 72.002000000
v 19.535270539 -16.580536001 71.842000000
v 22.938270539 -13.869536001 71.303000000
v 9.350270539 -21.448536001 71.687000000
v 14.588270539 -18.986536001 74.698000000
v 7.512270539 -12.767536001 72.790000000
v 7.512270539 -12.767536001 71.666000000
v 5.550270539 -13.681536001 71.665000000
f 1 2 3
f 1 3 4
f 1 4 5
f 1 5 6
f 1 6 7
f 1 7 8
f 1 8 9
f 1 9 10
f 1 10 11
f 1 11 12
f 1 12 13
f 14 5 4
f 14 4 15
f 15 4 3
f 15 3 16
f 17 6 5
f 17 5 14
f 18 7 6
f 18 6 17
f 16 3 2
f 16 2 19
f 23 10 9
f 23 9 24
f 24 9 8
f 24 8 25
f 25 8 7
f 25 7 18
f 26 12 11
f 26 11 27
f 27 11 10
f 27 10 23
f 28 29 1
f 28 1 13
f 28 13 30
f 30 13 12
f 30 12 26
f 19 2 1
f 19 1 29
f 25 18 17
f 25 17 24
f 21 28 30
f 21 30 26
f 21 26 27
f 22 16 19
f 22 19 29
f 22 29 20
f 16 22 21
f 16 21 27
f 16 27 23
f 16 23 24
f 16 24 17
f 16 17 14
f 16 14 15
