v -3.325525397 11.486931358 43.619000000
v -4.679525397 11.777931358 43.619000000
v -4.832525397 15.357931358 43.619000000
v -3.592525397 15.129931358 43.619000000
v -4.832525397 15.357931358 45.158000000
v -4.679525397 11.777931358 45.051000000
v -3.325525397 11.486931358 45.980000000
v -3.592525397 15.129931358 46.011000000
v -0.950525397 9.146931358 43.619000000
v 0.904474603 7.337931358 43.619000000
v 4.386474603 8.465931358 43.619000000
v 7.779474603 -5.041068642 43.619000000
v 3.110474603 -6.104068642 43.619000000
v 3.666474603 -7.161068643 43.619000000
v 2.979474603 -9.786068643 43.619000000
v 2.919474603 -10.017068642 43.619000000
v 2.001474603 -13.525068643 43.619000000
v -0.653525397 -12.370068642 43.619000000
v -0.863525397 -11.947068642 43.619000000
v -1.102525397 -11.237068642 43.619000000
v -1.490525397 -11.374068642 43.619000000
v -1.778525397 -10.333068642 43.619000000
v -6.558525397 -11.558068642 43.619000000
v -7.709525397 -7.912068642 43.619000000
v -7.566525397 -7.873068642 43.619000000
v -7.579525397 -7.822068642 43.619000000
v -8.613525397 -3.906068642 43.619000000
v -3.934525397 -2.477068642 43.619000000
v -4.252525397 -1.348068642 43.619000000
v -2.994525397 2.762931358 43.619000000
v -3.931525397 5.771931358 43.619000000
v -4.431525397 5.609931358 43.619000000
v -3.950525397 5.833931358 43.619000000
v -4.542525397 7.735931358 43.619000000
v -4.542525397 7.735931358 46.113000000
v -3.950525397 5.833931358 46.181000000
v -1.779525397 6.468931358 46.729000000
v -1.779525397 6.468931358 46.582000000
v -1.779525397 6.468931358 46.093000000
v -3.931525397 5.771931358 46.183000000
v -3.931525397 5.771931358 46.195000000
v 7.779474603 -5.041068642 45.905000000
v 4.386474603 8.465931358 45.846000000
v -6.558525397 -11.558068642 46.545000000
v -1.778525397 -10.333068642 46.506000000
v -1.778525397 -10.333068642 48.980000000
v -1.490525397 -11.374068642 48.548000000
v -4.431525397 5.609931358 46.204000000
v -2.994525397 2.762931358 46.199000000
v 0.394474603 -1.156068642 48.571000000
v 0.394474603 -1.156068642 46.695000000
v -0.526525397 -1.438068642 46.467000000
v -0.526525397 -1.438068642 48.576000000
v -4.252525397 -1.348068642 45.631000000
v -7.579525397 -7.822068642 50.658000000
v -7.579525397 -7.822068642 50.595000000
v -3.458525397 -6.703068642 50.626000000
v -3.458525397 -6.703068642 50.660000000
v -7.566525397 -7.873068642 50.540000000
v 2.864474603 -9.826068643 48.729000000
v 2.864474603 -9.826068643 46.471000000
v 2.864474603 -9.826068643 46.254000000
v 1.883474603 -6.384068642 46.257000000
v 1.883474603 -6.384068642 46.591000000
v 1.883474603 -6.384068642 50.161000000
v -1.102525397 -11.237068642 46.505000000
v -0.863525397 -11.947068642 46.505000000
v -0.588525397 -1.471068642 48.583000000
v -0.588525397 -1.471068642 46.451000000
v -1.725525397 -1.618068642 46.184000000
v -1.725525397 -1.618068642 48.500000000
v -1.646525397 -1.779068642 46.191000000
v -1.646525397 -1.779068642 48.583000000
v 3.110474603 -6.104068642 46.448000000
v 3.110474603 -6.104068642 45.983000000
v -3.934525397 -2.477068642 46.147000000
v -3.934525397 -2.477068642 45.625000000
v -8.613525397 -3.906068642 46.308000000
v -3.934525397 -2.477068642 48.597000000
v -2.858525397 -6.366068643 50.480000000
v -1.102525397 -11.237068642 48.564000000
v -3.458525397 -6.703068642 50.552000000
v -2.830525397 -6.532068642 50.558000000
v -2.830525397 -6.532068642 50.660000000
v -2.842525397 -6.464068642 50.586000000
v -2.858525397 -6.366068643 50.625000000
v 1.555474603 -5.232068642 50.640000000
v 1.555474603 -5.232068642 50.548000000
v -1.926525397 -9.797068642 47.087000000
v -1.926525397 -9.797068642 49.202000000
v -3.406525397 -6.807068642 50.507000000
v 2.234474603 -4.440068642 50.283000000
v 2.234474603 -4.440068642 46.491000000
v 0.491474603 -1.127068643 46.576000000
v 0.491474603 -1.127068643 48.570000000
v -0.950525397 9.146931358 45.952000000
v 1.555474603 -5.232068642 46.590000000
v 2.979474603 -9.786068643 48.734000000
v 2.979474603 -9.786068643 46.227000000
v 3.666474603 -7.161068643 45.928000000
v 0.904474603 7.337931358 45.982000000
v 0.904474603 7.337931358 46.262000000
v -7.709525397 -7.912068642 50.538000000
v 2.001474603 -13.525068643 46.491000000
v 2.919474603 -10.017068642 46.471000000
v 2.919474603 -10.017068642 48.650000000
v -0.653525397 -12.370068642 46.505000000
v 1.508474603 -5.065068642 46.590000000
v 1.508474603 -5.065068642 50.468000000
v 0.394474603 -1.156068642 46.587000000
f 9 10 11
f 9 11 12
f 9 12 13
f 9 13 14
f 9 14 15
f 9 15 16
f 9 16 17
f 9 17 18
f 9 18 19
f 9 19 20
f 9 20 21
f 9 21 22
f 9 22 23
f 9 23 24
f 9 24 25
f 9 25 26
f 9 26 27
f 9 27 28
f 9 28 29
f 9 29 30
f 9 30 31
f 9 31 32
f 9 32 33
f 9 33 34
f 35 34 33
f 35 33 36
f 37 38 39
f 42 12 11
f 42 11 43
f 44 23 22
f 44 22 45
f 46 45 22
f 46 22 21
f 46 21 47
f 36 33 32
f 36 32 48
f 48 32 31
f 48 31 40
f 41 40 31
f 41 31 30
f 41 30 49
f 50 51 52
f 50 52 53
f 49 30 29
f 49 29 54
f 55 56 57
f 55 57 58
f 56 26 25
f 56 25 59
f 60 61 62
f 60 62 63
f 60 63 64
f 60 64 65
f 66 20 19
f 66 19 67
f 68 69 70
f 68 70 71
f 71 70 72
f 71 72 73
f 74 75 13
f 74 13 12
f 74 12 42
f 76 77 28
f 76 28 27
f 76 27 78
f 73 72 77
f 73 77 76
f 73 76 79
f 79 76 80
f 81 66 61
f 81 61 60
f 58 57 82
f 86 80 85
f 87 88 80
f 87 80 86
f 82 57 91
f 47 21 20
f 47 20 66
f 47 66 81
f 78 27 26
f 78 26 56
f 78 56 55
f 92 93 94
f 92 94 95
f 96 9 34
f 96 34 35
f 53 52 69
f 53 69 68
f 64 63 75
f 64 75 74
f 65 64 97
f 65 97 88
f 65 88 87
f 98 99 62
f 98 62 61
f 98 61 60
f 99 15 14
f 99 14 100
f 43 11 10
f 43 10 101
f 43 101 102
f 59 25 24
f 59 24 103
f 104 17 16
f 104 16 105
f 106 105 16
f 106 16 15
f 106 15 99
f 106 99 98
f 60 61 105
f 60 105 106
f 100 14 13
f 100 13 75
f 67 19 18
f 67 18 107
f 107 18 17
f 107 17 104
f 54 29 28
f 54 28 77
f 88 97 108
f 88 108 109
f 109 108 93
f 109 93 92
f 101 10 9
f 101 9 96
f 103 24 23
f 103 23 44
f 51 110 38
f 51 38 37
f 102 101 39
f 102 39 38
f 95 94 110
f 95 110 51
f 95 51 50
f 78 55 58
f 78 58 84
f 78 84 85
f 78 85 80
f 78 80 76
f 65 87 86
f 65 86 85
f 65 85 83
f 65 83 82
f 65 82 91
f 65 91 90
f 65 90 46
f 65 46 47
f 65 47 81
f 65 81 60
f 60 106 98
f 100 75 63
f 100 63 62
f 100 62 99
f 107 104 105
f 107 105 61
f 107 61 66
f 107 66 67
f 51 37 41
f 51 41 49
f 51 49 54
f 51 54 77
f 51 77 72
f 51 72 70
f 51 70 69
f 51 69 52
f 103 44 45
f 103 45 89
f 103 89 91
f 103 91 57
f 103 57 56
f 103 56 59
f 110 94 93
f 110 93 108
f 110 108 97
f 110 97 64
f 110 64 74
f 110 74 42
f 110 42 43
f 110 43 102
f 110 102 38
f 39 101 96
f 39 96 35
f 39 35 36
f 39 36 48
f 39 48 40
f 95 50 53
f 95 53 68
f 95 68 71
f 95 71 73
f 95 73 79
f 95 79 80
f 95 80 88
f 95 88 109
f 95 109 92
f 1 2 3
f 1 3 4
f 5 3 2
f 5 2 6
f 7 1 4
f 7 4 8
f 8 4 3
f 8 3 5
f 6 2 1
f 6 1 7
f 6 7 8
f 6 8 5
