v 14.575907408 -16.482758779 74.269000000
v 14.722907408 -16.487758779 74.269000000
v 14.864907408 -16.450758779 74.269000000
v 14.950907408 -16.403758779 74.269000000
v 15.057907408 -16.303758780 74.269000000
v 15.131907408 -16.176758779 74.269000000
v 16.318907409 -12.069758779 74.269000000
v 12.477907408 -4.131758779 74.269000000
v 12.115907409 -3.450758779 74.269000000
v 10.147907408 -3.865758779 74.269000000
v 8.190907408 -4.277758779 74.269000000
v 8.490907409 -5.228758779 74.269000000
v 7.093907408 -5.348758779 74.269000000
v 7.675907408 -6.380758779 74.269000000
v 2.160907408 -4.817758779 74.269000000
v 2.142907408 -4.812758779 74.269000000
v 1.823907409 -4.722758779 74.269000000
v 2.413907408 -4.406758779 74.269000000
v 2.486907408 -4.297758779 74.269000000
v 1.716907408 -3.202758779 74.269000000
v 3.548907408 -1.311758779 74.269000000
v 2.855907409 -1.095758779 74.269000000
v -5.578092591 1.537241220 74.269000000
v -5.699092592 1.471241221 74.269000000
v -2.994092592 10.503241220 74.269000000
v 15.276907408 4.956241221 74.269000000
v 8.490907409 -5.228758779 76.874000000
v 8.190907408 -4.277758779 77.132000000
v 5.742907409 -2.948758779 78.559000000
v 5.742907409 -2.948758779 78.369000000
v 5.602907408 -2.699758779 78.463000000
v 7.093907408 -5.348758779 77.460000000
v 7.675907408 -6.380758779 77.069000000
v 2.413907408 -4.406758779 77.256000000
v 1.823907409 -4.722758779 77.032000000
v 2.142907408 -4.812758779 77.034000000
v 4.467907408 -3.307758779 78.034000000
v 15.276907408 4.956241221 76.984000000
v 15.276907408 4.956241221 76.984000000
v 9.312907408 1.827241221 79.167000000
v -2.994092592 10.503241220 76.987000000
v -2.994092592 10.503241220 76.993000000
v -5.699092592 1.471241221 76.993000000
v 6.629907408 0.676241221 78.480000000
v 6.629907408 0.676241221 78.302000000
v 6.545907408 0.942241221 78.407000000
v 2.486907408 -4.297758779 77.274000000
v 2.486907408 -4.297758779 77.315000000
v 2.522907408 -4.348758779 77.297000000
v 3.548907408 -1.311758779 77.357000000
v 1.716907408 -3.202758779 76.784000000
v 2.855907409 -1.095758779 77.018000000
v 2.160907408 -4.817758779 77.034000000
v 6.699907408 0.455241221 78.214000000
v 6.699907408 0.455241221 78.420000000
v 6.982907408 0.604241221 78.318000000
v -5.578092591 1.537241220 77.038000000
v 12.477907408 -4.131758779 76.980000000
v 12.115907409 -3.450758779 77.230000000
v 0.126907408 4.635241221 79.163000000
v 10.147907408 -3.865758779 76.345000000
v 10.147907408 -3.865758779 76.784000000
v 8.496907408 -2.228758779 77.279000000
v 16.765907408 -7.459758779 74.269000000
v 16.927907408 -7.367758779 74.269000000
v 16.600907409 -8.438758779 74.269000000
v 17.315907408 -8.612758779 74.269000000
v 14.178907408 -16.370758779 74.269000000
v 8.282907408 -14.669758779 74.269000000
v 8.497907409 -13.881758779 74.269000000
v 10.706907408 -5.775758779 74.269000000
v 14.553907408 -15.914758779 74.269000000
v 14.403907408 -15.634758779 74.269000000
v 14.337907408 -15.851758779 74.269000000
v 14.864907408 -16.450758779 76.386000000
v 14.950907408 -16.403758779 76.354000000
v 14.722907408 -16.487758779 76.445000000
v 15.057907408 -16.303758780 76.318000000
v 15.131907408 -16.176758779 76.301000000
v 16.318907409 -12.069758779 76.291000000
v 17.315907408 -8.612758779 76.284000000
v 14.575907408 -16.482758779 76.512000000
v 8.497907409 -13.881758779 76.713000000
v 8.282907408 -14.669758779 76.340000000
v 14.337907408 -15.851758779 76.700000000
v 14.337907408 -15.851758779 76.594000000
v 14.178907408 -16.370758779 76.345000000
v 14.178907408 -16.370758779 76.705000000
v 14.553907408 -15.914758779 76.594000000
v 14.403907408 -15.634758779 76.697000000
v 16.600907409 -8.438758779 76.627000000
v 16.927907408 -7.367758779 76.617000000
v 10.706907408 -5.775758779 76.677000000
v 10.706907408 -5.775758779 76.676000000
v 12.851907408 -9.688758779 78.151000000
v 16.765907408 -7.459758779 76.678000000
v 12.279907409 -11.709758779 78.151000000
f 8 9 10
f 8 10 11
f 8 11 12
f 8 12 13
f 8 13 14
f 8 14 15
f 8 15 16
f 8 16 17
f 8 17 18
f 8 18 19
f 8 19 20
f 8 20 21
f 8 21 22
f 8 22 23
f 8 23 24
f 8 24 25
f 8 25 26
f 27 12 11
f 27 11 28
f 29 30 31
f 32 13 12
f 32 12 27
f 33 14 13
f 33 13 32
f 34 18 17
f 34 17 35
f 35 17 16
f 35 16 36
f 30 29 37
f 38 39 40
f 39 38 26
f 39 26 25
f 39 25 41
f 39 41 42
f 41 25 24
f 41 24 43
f 44 45 46
f 47 48 49
f 48 47 19
f 48 19 18
f 48 18 34
f 50 21 20
f 50 20 51
f 51 20 19
f 51 19 47
f 52 22 21
f 52 21 50
f 36 16 15
f 36 15 53
f 54 55 56
f 43 24 23
f 43 23 57
f 58 8 26
f 58 26 38
f 59 9 8
f 59 8 58
f 42 41 60
f 55 54 45
f 55 45 44
f 28 11 10
f 28 10 61
f 62 61 10
f 62 10 9
f 62 9 59
f 57 23 22
f 57 22 52
f 53 15 14
f 53 14 33
f 59 58 38
f 59 38 40
f 60 41 43
f 60 43 57
f 42 60 40
f 42 40 39
f 44 31 30
f 44 30 32
f 44 32 27
f 44 27 28
f 44 28 61
f 44 61 63
f 44 63 56
f 44 56 55
f 57 52 46
f 57 46 45
f 57 45 54
f 57 54 56
f 57 56 63
f 57 63 62
f 57 62 59
f 57 59 40
f 57 40 60
f 53 33 32
f 53 32 30
f 53 30 37
f 53 37 49
f 53 49 48
f 53 48 34
f 53 34 35
f 53 35 36
f 31 44 46
f 31 46 52
f 31 52 50
f 31 50 51
f 31 51 47
f 31 47 49
f 31 49 37
f 31 37 29
f 64 65 66
f 64 66 67
f 64 67 7
f 64 7 6
f 64 6 5
f 64 5 4
f 64 4 3
f 64 3 2
f 64 2 1
f 64 1 68
f 64 68 69
f 64 69 70
f 64 70 71
f 72 73 74
f 75 3 4
f 75 4 76
f 77 2 3
f 77 3 75
f 76 4 5
f 76 5 78
f 78 5 6
f 78 6 79
f 80 7 67
f 80 67 81
f 82 1 2
f 82 2 77
f 83 70 69
f 83 69 84
f 85 86 87
f 85 87 88
f 84 69 68
f 84 68 87
f 88 87 68
f 88 68 1
f 88 1 82
f 89 72 74
f 89 74 86
f 89 86 85
f 86 74 73
f 86 73 90
f 81 67 66
f 81 66 91
f 91 66 65
f 91 65 92
f 93 94 71
f 93 71 70
f 93 70 83
f 79 6 7
f 79 7 80
f 90 73 72
f 90 72 89
f 96 64 71
f 96 71 94
f 92 65 64
f 92 64 96
f 97 83 84
f 97 84 87
f 97 87 86
f 97 86 90
f 96 94 95
f 83 97 95
f 83 95 93
f 92 96 95
f 92 95 97
f 92 97 90
f 92 90 89
f 92 89 85
f 92 85 88
f 92 88 82
f 92 82 77
f 92 77 75
f 92 75 76
f 92 76 78
f 92 78 79
f 92 79 80
f 92 80 81
f 92 81 91
