v -20.700674003 19.166947892 52.860000000
v -19.820674003 14.177947892 52.860000000
v -2.829674003 19.681947892 52.860000000
v -2.909674003 19.516947892 52.860000000
v 1.890325997 6.628947891 52.860000000
v 1.214325997 6.949947892 52.860000000
v -6.151674003 4.299947891 52.860000000
v -6.262674003 4.064947892 52.860000000
v -8.028674003 8.940947891 52.860000000
v -8.518674003 7.927947892 52.860000000
v -21.038674003 4.441947891 52.860000000
v -21.705674003 4.256947892 52.860000000
v -24.423674003 11.608947892 52.860000000
v -29.020674003 8.745947892 52.860000000
v -31.713674003 15.330947892 52.860000000
v -23.690674003 12.064947892 55.152000000
v -23.690674003 12.064947892 55.566000000
v -20.814674003 13.855947891 55.194000000
v -21.038674003 4.441947891 55.515000000
v -8.518674003 7.927947892 55.094000000
v -20.700674003 19.166947892 55.203000000
v -31.713674003 15.330947892 55.047000000
v -24.423674003 11.608947892 55.141000000
v -21.705674003 4.256947892 55.169000000
v -29.020674003 8.745947892 55.074000000
v -8.028674003 8.940947891 55.497000000
v -6.262674003 4.064947892 55.511000000
v -6.151674003 4.299947891 55.604000000
v 1.214325997 6.949947892 55.625000000
v 1.890325997 6.628947891 55.361000000
v -2.909674003 19.516947892 55.483000000
v -5.492674003 14.179947891 57.580000000
v -5.492674003 14.179947891 57.637000000
v -5.564674003 14.213947891 57.608000000
v -2.909674003 19.516947892 55.514000000
v -2.829674003 19.681947892 55.449000000
v -19.820674003 14.177947892 55.208000000
v -3.770674003 9.317947892 57.576000000
v -18.530674003 9.661947892 57.593000000
f 1 2 3
f 1 3 4
f 1 4 5
f 1 5 6
f 1 6 7
f 1 7 8
f 1 8 9
f 1 9 10
f 1 10 11
f 1 11 12
f 1 12 13
f 1 13 14
f 1 14 15
f 19 11 10
f 19 10 20
f 21 1 15
f 21 15 22
f 23 13 12
f 23 12 24
f 25 14 13
f 25 13 23
f 20 10 9
f 20 9 26
f 26 9 8
f 26 8 27
f 27 8 7
f 27 7 28
f 28 7 6
f 28 6 29
f 30 5 4
f 30 4 31
f 24 12 11
f 24 11 19
f 22 15 14
f 22 14 25
f 29 6 5
f 29 5 30
f 32 33 34
f 33 32 31
f 33 31 35
f 35 31 4
f 35 4 3
f 35 3 36
f 36 3 2
f 36 2 37
f 37 2 1
f 37 1 21
f 38 28 29
f 32 26 27
f 32 27 28
f 32 28 38
f 24 19 39
f 24 39 17
f 24 17 23
f 32 34 39
f 32 39 19
f 32 19 20
f 32 20 26
f 31 32 38
f 31 38 29
f 31 29 30
f 36 37 18
f 36 18 17
f 36 17 39
f 36 39 34
f 36 34 33
f 36 33 35
f 37 21 22
f 37 22 25
f 37 25 23
f 37 23 16
f 37 16 18
