v -1.772443420 -2.132652014 20.389000000
v -1.887443420 0.467347987 20.389000000
v -7.225443420 0.195347986 20.389000000
v -7.632443420 11.600347986 20.389000000
v -1.239443420 11.919347987 20.389000000
v 5.198556580 12.240347986 20.389000000
v 4.701556580 0.802347987 20.389000000
v 4.496556580 -3.915652013 20.389000000
v -1.686443420 -4.057652013 20.389000000
v -4.486443420 -4.121652014 20.389000000
v -4.540443420 -2.316652013 20.389000000
v 4.701556580 0.802347987 23.563000000
v 4.701556580 0.802347987 22.686000000
v 5.198556580 12.240347986 23.164000000
v -1.239443420 11.919347987 26.188000000
v 4.496556580 -3.915652013 22.873000000
v -0.809443420 0.521347987 26.153000000
v -0.809443420 0.521347987 25.168000000
v -1.887443420 0.467347987 25.653000000
v -1.772443420 -2.132652014 23.766000000
v -1.772443420 -2.132652014 25.653000000
v -7.225443420 0.195347986 23.180000000
v -7.632443420 11.600347986 23.226000000
v -1.686443420 -4.057652013 23.803000000
v -1.686443420 -4.057652013 25.654000000
v -4.540443420 -2.316652013 22.583000000
v -4.486443420 -4.121652014 22.606000000
f 1 2 3
f 1 3 4
f 1 4 5
f 1 5 6
f 1 6 7
f 1 7 8
f 1 8 9
f 1 9 10
f 1 10 11
f 12 13 7
f 12 7 6
f 12 6 14
f 14 6 5
f 14 5 15
f 16 8 7
f 16 7 13
f 19 2 1
f 19 1 20
f 19 20 21
f 22 3 2
f 22 2 19
f 23 4 3
f 23 3 22
f 21 20 24
f 21 24 25
f 25 24 9
f 25 9 8
f 25 8 16
f 15 5 4
f 15 4 23
f 20 1 11
f 20 11 26
f 26 11 10
f 26 10 27
f 27 10 9
f 27 9 24
f 25 16 13
f 25 13 18
f 25 18 19
f 25 19 21
f 15 17 12
f 15 12 14
f 17 15 23
f 17 23 22
f 17 22 19
f 27 24 20
f 27 20 26
