v -8.291115055 7.301173114 14.409000000
v -7.369115055 9.749173114 14.409000000
v -5.915115055 13.607173114 14.409000000
v 9.544884945 7.017173114 14.409000000
v 8.151884945 3.628173114 14.409000000
v -0.737115055 7.134173114 14.409000000
v -2.639115055 4.665173114 14.409000000
v 9.544884945 7.017173114 19.253000000
v -5.915115055 13.607173114 19.280000000
v -2.639115055 4.665173114 17.067000000
v -0.737115055 7.134173114 17.440000000
v -8.291115055 7.301173114 17.044000000
v 8.151884945 3.628173114 17.545000000
v -7.369115055 9.749173114 17.361000000
v 8.462884945 -4.502826886 14.409000000
v 7.747884945 -6.255826886 14.409000000
v 3.423884945 -5.503826885 14.409000000
v 6.880884945 2.549173114 14.409000000
v 11.160884945 0.134173114 14.409000000
v 9.045884945 -4.756826886 14.409000000
v 6.880884945 2.549173114 16.976000000
v 3.423884945 -5.503826885 16.610000000
v 9.045884945 -4.756826886 16.801000000
v 11.160884945 0.134173114 17.024000000
v 8.462884945 -4.502826886 16.792000000
v 7.747884945 -6.255826886 16.713000000
f 15 16 17
f 15 17 18
f 15 18 19
f 15 19 20
f 21 18 17
f 21 17 22
f 23 20 19
f 23 19 24
f 25 15 20
f 25 20 23
f 24 19 18
f 24 18 21
f 22 17 16
f 22 16 26
f 26 16 15
f 26 15 25
f 26 25 23
f 26 23 24
f 26 24 21
f 26 21 22
f 1 2 3
f 1 3 4
f 1 4 5
f 1 5 6
f 1 6 7
f 8 4 3
f 8 3 9
f 10 7 6
f 10 6 11
f 12 1 7
f 12 7 10
f 11 6 5
f 11 5 13
f 14 2 1
f 14 1 12
f 9 3 2
f 9 2 14
f 13 5 4
f 13 4 8
f 14 12 10
f 14 10 11
f 13 8 9
f 13 9 14
f 13 14 11
