v 6.554206186 2.644668331 22.450000000
v 8.966206186 1.708668332 22.450000000
v 9.580206186 1.608668332 22.450000000
v 8.897206186 -0.461331668 22.450000000
v 8.311206186 -2.240331668 22.450000000
v 8.359206186 -6.118331668 22.450000000
v 4.242206186 -5.134331669 22.450000000
v 4.815206186 -1.127331669 22.450000000
v 0.466206186 -0.455331668 22.450000000
v -1.281793814 -8.653331668 22.450000000
v -7.842793814 -7.743331668 22.450000000
v -6.902793814 0.824668332 22.450000000
v -6.529793814 4.223668331 22.450000000
v -5.824793814 10.647668332 22.450000000
v 0.490206186 9.890668332 22.450000000
v 0.185206186 8.395668332 22.450000000
v 8.339206186 6.474668331 22.450000000
v -7.842793814 -7.743331668 25.597000000
v -1.281793814 -8.653331668 25.585000000
v -6.902793814 0.824668332 25.695000000
v 0.466206186 -0.455331668 25.656000000
v 0.466206186 -0.455331668 25.677000000
v -6.529793814 4.223668331 26.969000000
v -5.824793814 10.647668332 24.572000000
v 0.478206186 -0.397331668 25.678000000
v 4.815206186 -1.127331669 25.664000000
v 4.242206186 -5.134331669 24.154000000
v 8.897206186 -0.461331668 26.149000000
v 9.580206186 1.608668332 25.357000000
v 6.587206186 2.094668332 25.345000000
v 6.587206186 2.094668332 26.955000000
v 6.721206186 -0.123331669 26.146000000
v 8.966206186 1.708668332 25.355000000
v 8.311206186 -2.240331668 25.459000000
v 8.359206186 -6.118331668 24.034000000
v 0.490206186 9.890668332 24.467000000
v 0.185206186 8.395668332 25.034000000
v 6.554206186 2.644668331 25.146000000
v 6.554206186 2.644668331 26.756000000
v 8.339206186 6.474668331 25.244000000
f 1 2 3
f 1 3 4
f 1 4 5
f 1 5 6
f 1 6 7
f 1 7 8
f 1 8 9
f 1 9 10
f 1 10 11
f 1 11 12
f 1 12 13
f 1 13 14
f 1 14 15
f 1 15 16
f 1 16 17
f 18 11 10
f 18 10 19
f 20 12 11
f 20 11 18
f 19 10 9
f 19 9 21
f 19 21 22
f 23 13 12
f 23 12 20
f 24 14 13
f 24 13 23
f 22 21 25
f 26 8 7
f 26 7 27
f 21 9 8
f 21 8 26
f 28 4 3
f 28 3 29
f 29 3 2
f 29 2 33
f 34 5 4
f 34 4 28
f 35 6 5
f 35 5 34
f 36 15 14
f 36 14 24
f 37 16 15
f 37 15 36
f 33 2 1
f 33 1 38
f 39 38 1
f 39 1 17
f 39 17 40
f 27 7 6
f 27 6 35
f 40 17 16
f 40 16 37
f 25 20 18
f 25 18 19
f 25 19 22
f 33 38 30
f 33 30 32
f 33 32 28
f 33 28 29
f 31 23 20
f 31 20 25
f 31 25 21
f 31 21 26
f 31 26 27
f 31 27 35
f 31 35 34
f 31 34 28
f 31 28 32
f 23 31 39
f 23 39 40
f 23 40 37
f 23 37 36
f 23 36 24
