v 7.070600498 -13.422452970 24.219000000
v 6.130600498 -16.979452970 24.219000000
v 0.315600498 -15.242452970 24.219000000
v 1.377600498 -11.013452970 24.219000000
v 1.377600498 -11.013452970 27.764000000
v 0.315600498 -15.242452970 27.366000000
v 6.130600498 -16.979452970 27.446000000
v 7.070600498 -13.422452970 27.782000000
v 3.108600498 -10.582452971 24.219000000
v 0.072600498 -9.803452970 24.219000000
v -0.158399502 -11.576452971 24.219000000
v -5.507399502 -10.628452970 24.219000000
v -5.028399502 -8.588452970 24.219000000
v -6.051399502 -8.448452970 24.219000000
v -4.216399502 -4.174452970 24.219000000
v -4.379399502 -2.882452970 24.219000000
v -4.848399502 0.831547030 24.219000000
v -3.693399502 0.472547030 24.219000000
v -3.218399502 3.605547030 24.219000000
v -1.675399502 3.247547030 24.219000000
v -1.474399502 2.588547030 24.219000000
v 2.098600498 1.598547030 24.219000000
v 6.620600498 0.345547030 24.219000000
v 5.911600498 -1.862452970 24.219000000
v 8.056600498 -2.508452971 24.219000000
v 6.680600498 -7.876452970 24.219000000
v 4.226600498 -7.105452970 24.219000000
v 0.072600498 -9.803452970 31.143000000
v 0.072600498 -9.803452970 26.546000000
v 3.108600498 -10.582452971 28.950000000
v 4.226600498 -7.105452970 28.955000000
v 2.098600498 1.598547030 32.255000000
v -1.474399502 2.588547030 29.373000000
v -1.474399502 2.588547030 29.603000000
v -0.529399502 -0.508452971 31.234000000
v -0.529399502 -0.508452971 30.935000000
v -1.064399502 1.242547030 30.182000000
v 6.620600498 0.345547030 28.967000000
v -1.675399502 3.247547030 28.977000000
v -3.218399502 3.605547030 29.091000000
v 5.911600498 -1.862452970 28.964000000
v -0.443399502 -0.789452970 31.056000000
v -3.693399502 0.472547030 31.300000000
v -5.028399502 -8.588452970 29.672000000
v -5.028399502 -8.588452970 26.551000000
v -1.380399502 -9.088452970 26.541000000
v -1.380399502 -9.088452970 32.267000000
v -0.158399502 -11.576452971 26.576000000
v -5.507399502 -10.628452970 26.587000000
v -1.483399502 -9.403452970 32.267000000
v -1.483399502 -9.403452970 26.547000000
v -4.848399502 0.831547030 31.324000000
v -4.379399502 -2.882452970 28.844000000
v -4.216399502 -4.174452970 29.243000000
v -6.051399502 -8.448452970 28.944000000
v 8.056600498 -2.508452971 28.827000000
v 6.680600498 -7.876452970 28.798000000
f 9 10 11
f 9 11 12
f 9 12 13
f 9 13 14
f 9 14 15
f 9 15 16
f 9 16 17
f 9 17 18
f 9 18 19
f 9 19 20
f 9 20 21
f 9 21 22
f 9 22 23
f 9 23 24
f 9 24 25
f 9 25 26
f 9 26 27
f 28 29 10
f 28 10 9
f 28 9 30
f 30 9 27
f 30 27 31
f 32 22 21
f 32 21 33
f 32 33 34
f 34 33 37
f 38 23 22
f 38 22 32
f 33 21 20
f 33 20 39
f 39 20 19
f 39 19 40
f 41 24 23
f 41 23 38
f 40 19 18
f 40 18 43
f 44 45 46
f 44 46 47
f 48 11 10
f 48 10 29
f 49 12 11
f 49 11 48
f 50 51 29
f 50 29 28
f 45 13 12
f 45 12 49
f 47 46 51
f 47 51 50
f 43 18 17
f 43 17 52
f 52 17 16
f 52 16 53
f 54 15 14
f 54 14 55
f 55 14 13
f 55 13 45
f 55 45 44
f 53 16 15
f 53 15 54
f 56 25 24
f 56 24 41
f 31 27 26
f 31 26 57
f 57 26 25
f 57 25 56
f 40 43 35
f 40 35 37
f 40 37 33
f 40 33 39
f 51 46 45
f 51 45 49
f 51 49 48
f 51 48 29
f 52 53 42
f 52 42 35
f 52 35 43
f 53 54 55
f 53 55 44
f 53 44 47
f 53 47 32
f 53 32 34
f 53 34 37
f 53 37 36
f 53 36 42
f 31 41 38
f 31 38 32
f 31 32 47
f 31 47 50
f 31 50 28
f 31 28 30
f 57 56 41
f 57 41 31
f 1 2 3
f 1 3 4
f 5 4 3
f 5 3 6
f 7 2 1
f 7 1 8
f 6 3 2
f 6 2 7
f 8 1 4
f 8 4 5
f 8 5 6
f 8 6 7
