v 22.003270805 6.082034096 50.279000000
v 23.498270805 5.647034096 50.279000000
v 26.235270805 -13.636965904 50.279000000
v 24.352270805 -13.913965904 50.279000000
v 20.336270805 -14.504965904 50.279000000
v 19.101270805 -5.945965904 50.279000000
v 18.203270805 -5.269965904 50.279000000
v 10.839270805 -6.806965904 50.279000000
v 9.517270805 -6.263965904 50.279000000
v 8.949270805 -6.029965904 50.279000000
v 6.682270805 10.899034096 50.279000000
v 7.051270805 11.558034096 50.279000000
v 7.452270805 12.275034096 50.279000000
v 15.699270805 13.186034096 50.279000000
v 15.815270805 13.199034096 50.279000000
v 17.034270805 5.366034096 50.279000000
v 18.686270805 7.048034096 50.279000000
v 21.710270805 6.168034096 50.279000000
v 21.928270805 6.456034096 50.279000000
v 18.878270805 -4.394965904 50.279000000
v 18.981270805 -5.107965904 50.279000000
v 19.619270805 -4.973965904 50.279000000
v 9.517270805 -6.263965904 53.837000000
v 10.839270805 -6.806965904 53.496000000
v 7.051270805 11.558034096 53.873000000
v 6.682270805 10.899034096 53.658000000
v 7.452270805 12.275034096 53.570000000
v 13.032270805 0.573034097 55.711000000
v 13.032270805 0.573034097 55.710000000
v 12.812270805 0.544034096 55.814000000
v 12.812270805 0.544034096 55.817000000
v 17.034270805 5.366034096 53.752000000
v 17.034270805 5.366034096 53.536000000
v 15.290270805 3.589034096 54.464000000
v 15.003270805 3.296034096 54.616000000
v 15.003270805 3.296034096 54.581000000
v 19.619270805 -4.973965904 53.328000000
v 19.619270805 -4.973965904 52.698000000
v 18.981270805 -5.107965904 53.328000000
v 18.878270805 -4.394965904 53.016000000
v 18.878270805 -4.394965904 53.324000000
v 12.774270805 0.801034096 55.816000000
v 8.949270805 -6.029965904 53.589000000
v 13.118270805 0.691034096 55.662000000
v 15.815270805 13.199034096 53.613000000
v 15.699270805 13.186034096 53.668000000
v 18.686270805 7.048034096 53.077000000
v 21.710270805 6.168034096 53.649000000
v 21.928270805 6.456034096 53.529000000
v 22.815270805 -2.979965904 53.402000000
v 22.815270805 -2.979965904 51.364000000
v 23.023270805 -2.500965904 51.230000000
v 23.023270805 -2.500965904 53.609000000
v 20.336270805 -14.504965904 53.385000000
v 24.352270805 -13.913965904 51.449000000
v 24.352270805 -13.913965904 53.382000000
v 19.101270805 -5.945965904 53.333000000
v 18.785270805 -3.751965904 53.320000000
v 18.203270805 -5.269965904 53.329000000
v 18.203270805 -5.269965904 53.707000000
v 23.511270805 -1.380965904 53.312000000
v 23.511270805 -1.380965904 50.917000000
v 22.003270805 6.082034096 51.075000000
v 22.003270805 6.082034096 53.519000000
v 22.996270805 -4.269965904 53.324000000
v 22.996270805 -4.269965904 52.794000000
v 22.996270805 -4.269965904 51.374000000
v 26.235270805 -13.636965904 50.540000000
v 23.498270805 5.647034096 50.403000000
v 13.110270805 -1.438965904 55.824000000
v 11.786270805 7.927034096 55.830000000
v 17.988270805 1.244034096 55.684000000
v 16.646270805 26.644034096 50.279000000
v 17.249270805 24.538034096 50.279000000
v 17.917270805 22.205034096 50.279000000
v 10.799270805 21.393034096 50.279000000
v 10.470270805 23.554034096 50.279000000
v 10.135270805 25.756034096 50.279000000
v 16.646270805 26.644034096 52.645000000
v 10.135270805 25.756034096 52.614000000
v 10.470270805 23.554034096 53.725000000
v 10.799270805 21.393034096 52.619000000
v 17.917270805 22.205034096 52.511000000
v 17.249270805 24.538034096 53.727000000
f 1 2 3
f 1 3 4
f 1 4 5
f 1 5 6
f 1 6 7
f 1 7 8
f 1 8 9
f 1 9 10
f 1 10 11
f 1 11 12
f 1 12 13
f 1 13 14
f 1 14 15
f 1 15 16
f 1 16 17
f 1 17 18
f 1 18 19
f 20 21 22
f 23 9 8
f 23 8 24
f 25 12 11
f 25 11 26
f 27 13 12
f 27 12 25
f 28 29 30
f 28 30 31
f 32 33 34
f 37 38 22
f 37 22 21
f 37 21 39
f 40 20 22
f 40 22 38
f 39 21 20
f 39 20 40
f 39 40 41
f 31 30 42
f 43 10 9
f 43 9 23
f 26 11 10
f 26 10 43
f 29 28 44
f 45 15 14
f 45 14 46
f 33 16 15
f 33 15 45
f 47 17 16
f 47 16 33
f 47 33 32
f 48 18 17
f 48 17 47
f 49 19 18
f 49 18 48
f 50 51 52
f 50 52 53
f 54 5 4
f 54 4 55
f 54 55 56
f 57 6 5
f 57 5 54
f 41 40 58
f 24 8 7
f 24 7 59
f 24 59 60
f 61 62 63
f 61 63 64
f 65 66 38
f 65 38 37
f 66 67 51
f 66 51 50
f 59 7 6
f 59 6 57
f 53 52 62
f 53 62 61
f 55 4 3
f 55 3 68
f 46 14 13
f 46 13 27
f 60 59 39
f 56 55 67
f 56 67 66
f 56 66 65
f 64 63 1
f 64 1 19
f 64 19 49
f 68 3 2
f 68 2 69
f 69 2 1
f 69 1 63
f 26 43 23
f 26 23 70
f 26 70 31
f 26 31 42
f 26 42 71
f 26 71 25
f 48 47 32
f 48 32 34
f 48 34 36
f 48 36 44
f 48 44 28
f 48 28 72
f 24 60 70
f 24 70 23
f 46 71 42
f 46 42 30
f 46 30 29
f 46 29 44
f 46 44 35
f 46 35 34
f 46 34 33
f 46 33 45
f 46 27 25
f 46 25 71
f 60 39 41
f 60 41 58
f 60 58 28
f 60 28 31
f 60 31 70
f 56 65 37
f 56 37 39
f 56 39 59
f 56 59 57
f 56 57 54
f 53 72 28
f 53 28 58
f 53 58 40
f 53 40 38
f 53 38 66
f 53 66 50
f 64 49 48
f 64 48 72
f 64 72 53
f 64 53 61
f 69 63 62
f 69 62 52
f 69 52 51
f 69 51 67
f 69 67 55
f 69 55 68
f 73 74 75
f 73 75 76
f 73 76 77
f 73 77 78
f 79 73 78
f 79 78 80
f 80 78 77
f 80 77 81
f 81 77 76
f 81 76 82
f 82 76 75
f 82 75 83
f 84 74 73
f 84 73 79
f 83 75 74
f 83 74 84
f 84 79 80
f 84 80 81
f 83 84 81
f 83 81 82
