v -1.357920079 -0.083021997 73.910000000
v -0.790920079 -0.023021998 73.910000000
v 0.122079921 0.073978002 73.910000000
v -0.431920079 3.427978002 73.910000000
v 1.154079921 2.051978002 73.910000000
v 2.860079921 2.231978003 73.910000000
v 3.060079921 2.933978003 73.910000000
v 2.768079921 5.682978002 73.910000000
v 6.629079921 5.188978002 73.910000000
v 6.308079921 2.596978002 73.910000000
v 6.838079921 2.652978003 73.910000000
v 6.988079921 0.247978003 73.910000000
v 7.225079921 0.226978002 73.910000000
v 6.972079921 -3.545021998 73.910000000
v 3.752079921 -3.558021997 73.910000000
v -0.228920079 -3.575021997 73.910000000
v -0.595920079 -4.500021998 73.910000000
v -4.359920079 -4.986021997 73.910000000
v -3.847920079 -8.021021998 73.910000000
v -11.563920079 -9.089021998 73.910000000
v -11.878920079 -5.959021998 73.910000000
v -5.663920079 -5.155021997 73.910000000
v -6.140920079 -2.679021997 73.910000000
v -6.479920079 -0.914021998 73.910000000
v -1.291920079 -0.141021998 73.910000000
v -11.878920079 -5.959021998 76.005000000
v -11.563920079 -9.089021998 75.983000000
v -5.663920079 -5.155021997 76.088000000
v -6.140920079 -2.679021997 78.463000000
v 1.154079921 2.051978002 79.385000000
v -0.431920079 3.427978002 77.870000000
v 0.122079921 0.073978002 78.070000000
v 0.122079921 0.073978002 81.244000000
v 2.768079921 5.682978002 79.233000000
v 3.060079921 2.933978003 80.986000000
v 3.752079921 -3.558021997 81.481000000
v 6.972079921 -3.545021998 78.067000000
v -0.790920079 -0.023021998 76.498000000
v -0.790920079 -0.023021998 77.095000000
v -0.228920079 -3.575021997 76.984000000
v -0.228920079 -3.575021997 77.281000000
v 0.097079921 -2.754021998 77.719000000
v -4.359920079 -4.986021997 76.106000000
v -0.595920079 -4.500021998 76.156000000
v -3.847920079 -8.021021998 76.087000000
v 0.399079921 -1.604021997 78.170000000
v 0.399079921 -1.604021997 79.589000000
v -1.357920079 -0.083021997 76.491000000
v -1.291920079 -0.141021998 76.554000000
v -6.479920079 -0.914021998 76.710000000
v 3.279079921 0.881978002 81.492000000
v 3.279079921 0.881978002 80.487000000
v 3.132079921 2.260978003 81.415000000
v 3.132079921 2.260978003 81.495000000
v 0.736079921 -1.877021997 79.287000000
v 0.736079921 -1.877021997 78.493000000
v 2.156079921 -0.865021997 80.107000000
v 2.860079921 2.231978003 81.409000000
v 2.860079921 2.231978003 81.205000000
v 3.056079921 2.252978003 81.414000000
v 6.988079921 0.247978003 79.883000000
v 6.988079921 0.247978003 77.632000000
v 6.838079921 2.652978003 81.496000000
v 7.225079921 0.226978002 77.383000000
v 6.308079921 2.596978002 81.484000000
v 6.629079921 5.188978002 79.884000000
v 5.956079921 -0.240021997 79.607000000
v 5.956079921 -0.240021997 78.779000000
v 6.027079921 0.333978003 78.640000000
v 6.027079921 0.333978003 79.987000000
v 4.746079921 0.266978002 80.005000000
v -0.356920079 -0.949021998 77.447000000
v 0.450079921 -1.910021997 79.287000000
v 0.450079921 -1.910021997 78.473000000
v 0.450079921 -1.910021997 78.188000000
v 0.496079921 -2.190021997 78.205000000
v 0.212079921 0.082978003 81.244000000
v 3.073079921 0.386978002 81.218000000
f 1 2 3
f 1 3 4
f 1 4 5
f 1 5 6
f 1 6 7
f 1 7 8
f 1 8 9
f 1 9 10
f 1 10 11
f 1 11 12
f 1 12 13
f 1 13 14
f 1 14 15
f 1 15 16
f 1 16 17
f 1 17 18
f 1 18 19
f 1 19 20
f 1 20 21
f 1 21 22
f 1 22 23
f 1 23 24
f 1 24 25
f 26 21 20
f 26 20 27
f 28 22 21
f 28 21 26
f 29 23 22
f 29 22 28
f 30 5 4
f 30 4 31
f 31 4 3
f 31 3 32
f 31 32 33
f 34 8 7
f 34 7 35
f 36 15 14
f 36 14 37
f 32 3 2
f 32 2 38
f 32 38 39
f 41 40 16
f 41 16 15
f 41 15 36
f 43 18 17
f 43 17 44
f 45 19 18
f 45 18 43
f 33 32 46
f 33 46 47
f 48 1 25
f 48 25 49
f 49 25 24
f 49 24 50
f 51 52 53
f 51 53 54
f 55 56 57
f 58 59 60
f 54 53 60
f 61 62 12
f 61 12 11
f 61 11 63
f 64 13 12
f 64 12 62
f 50 24 23
f 50 23 29
f 65 10 9
f 65 9 66
f 59 6 5
f 59 5 30
f 35 7 6
f 35 6 59
f 35 59 58
f 37 14 13
f 37 13 64
f 63 11 10
f 63 10 65
f 67 68 69
f 67 69 70
f 52 51 71
f 68 67 71
f 39 38 72
f 44 17 16
f 44 16 40
f 66 9 8
f 66 8 34
f 73 74 75
f 73 75 56
f 73 56 55
f 75 74 76
f 27 20 19
f 27 19 45
f 38 2 1
f 38 1 48
f 47 46 74
f 47 74 73
f 70 69 62
f 70 62 61
f 70 61 63
f 70 63 65
f 70 65 53
f 70 53 52
f 70 52 71
f 70 71 67
f 39 72 46
f 39 46 32
f 66 34 35
f 66 35 58
f 66 58 60
f 66 60 53
f 66 53 65
f 33 77 78
f 33 78 30
f 33 30 31
f 75 76 42
f 75 42 41
f 75 41 36
f 75 36 51
f 75 51 54
f 75 54 60
f 75 60 59
f 75 59 30
f 75 30 78
f 75 78 57
f 75 57 56
f 27 45 43
f 27 43 28
f 27 28 26
f 29 74 46
f 29 46 72
f 29 72 38
f 29 38 48
f 29 48 49
f 29 49 50
f 47 73 55
f 47 55 57
f 47 57 78
f 47 78 77
f 47 77 33
f 62 69 68
f 62 68 71
f 62 71 51
f 62 51 36
f 62 36 37
f 62 37 64
f 74 29 28
f 74 28 43
f 74 43 44
f 74 44 40
f 74 40 42
f 74 42 76
