v 14.154709835 -3.657704539 37.049000000
v 14.318709835 -5.833704539 37.049000000
v 9.929709835 -6.192704539 37.049000000
v 9.820709835 -4.036704538 37.049000000
v 14.318709835 -5.833704539 39.715000000
v 14.154709835 -3.657704539 39.776000000
v 9.820709835 -4.036704538 40.007000000
v 9.929709835 -6.192704539 39.950000000
v 13.183709835 9.175295462 37.049000000
v 13.931709835 -0.701704538 37.049000000
v 8.746709835 0.786295461 37.049000000
v 8.846709835 -0.930704539 37.049000000
v -7.587290165 -2.349704538 37.049000000
v -7.413290165 2.524295461 37.049000000
v -7.407290165 2.702295462 37.049000000
v -7.116290165 2.743295462 37.049000000
v -7.366290165 7.655295461 37.049000000
v 8.281709835 8.813295461 37.049000000
v 13.183709835 9.175295462 40.172000000
v 8.281709835 8.813295461 40.145000000
v 8.746709835 0.786295461 40.154000000
v 13.931709835 -0.701704538 40.184000000
v 8.846709835 -0.930704539 40.588000000
v 8.746709835 0.786295461 42.619000000
v 8.573709835 3.780295461 46.162000000
v 8.573709835 3.780295461 40.151000000
v -7.366290165 7.655295461 40.058000000
v -7.587290165 -2.349704538 40.433000000
v -7.116290165 2.743295462 45.926000000
v -7.407290165 2.702295462 45.948000000
v -7.413290165 2.524295461 46.159000000
f 9 10 11
f 9 11 12
f 9 12 13
f 9 13 14
f 9 14 15
f 9 15 16
f 9 16 17
f 9 17 18
f 19 9 18
f 19 18 20
f 21 11 10
f 21 10 22
f 23 12 11
f 23 11 21
f 23 21 24
f 25 26 20
f 20 18 17
f 20 17 27
f 28 13 12
f 28 12 23
f 24 21 26
f 24 26 25
f 29 16 15
f 29 15 30
f 27 17 16
f 27 16 29
f 30 15 14
f 30 14 31
f 31 14 13
f 31 13 28
f 22 10 9
f 22 9 19
f 31 25 20
f 31 20 27
f 31 27 29
f 31 29 30
f 22 19 20
f 22 20 26
f 22 26 21
f 25 31 28
f 25 28 23
f 25 23 24
f 1 2 3
f 1 3 4
f 5 2 1
f 5 1 6
f 6 1 4
f 6 4 7
f 7 4 3
f 7 3 8
f 8 3 2
f 8 2 5
f 8 5 6
f 8 6 7
