v -20.568952190 21.076940647 3.089000000
v -20.216952191 8.339940648 3.089000000
v -20.301952190 8.339940648 3.089000000
v -20.224952190 7.194940648 3.089000000
v -20.131952190 5.807940648 3.089000000
v -19.561952190 4.747940647 3.089000000
v -26.071952190 4.592940648 3.089000000
v -26.120952190 8.362940648 3.089000000
v -33.771952190 8.392940648 3.089000000
v -33.879952190 8.489940648 3.089000000
v -38.536952190 8.589940648 3.089000000
v -42.673952190 8.678940647 3.089000000
v -42.870952190 12.948940648 3.089000000
v -42.949952190 14.673940647 3.089000000
v -42.267952190 14.769940647 3.089000000
v -42.244952190 14.909940648 3.089000000
v -42.969952190 15.113940648 3.089000000
v -43.003952190 15.861940647 3.089000000
v -42.982952190 16.481940648 3.089000000
v -42.821952190 21.115940648 3.089000000
v -38.445952190 21.105940647 3.089000000
v -34.152952190 21.096940648 3.089000000
v -34.107952190 14.155940648 3.089000000
v -29.020952191 13.838940647 3.089000000
v -26.717952190 14.771940648 3.089000000
v -25.985952190 14.037940647 3.089000000
v -25.597952190 20.767940648 3.089000000
v -23.000952190 20.927940648 3.089000000
v -23.093952190 8.350940648 9.849000000
v -23.093952190 8.350940648 7.032000000
v -23.091952191 8.527940648 7.045000000
v -23.091952191 8.527940648 9.849000000
v -23.267952190 8.351940648 9.676000000
v -23.267952190 8.351940648 7.032000000
v -20.131952190 5.807940648 6.854000000
v -20.131952190 5.807940648 4.467000000
v -21.094952190 7.598940648 6.280000000
v -21.094952190 7.598940648 6.982000000
v -23.521952190 11.150940647 9.874000000
v -23.521952190 11.150940647 9.395000000
v -23.627952190 11.673940647 9.284000000
v -23.627952190 11.673940647 9.337000000
v -25.985952190 14.037940647 6.906000000
v -25.985952190 14.037940647 6.921000000
v -25.123952190 8.451940647 7.819000000
v -25.123952190 8.451940647 7.122000000
v -25.123952190 8.451940647 7.034000000
v -20.568952190 21.076940647 7.375000000
v -23.000952190 20.927940648 9.823000000
v -36.044952190 11.206940648 9.853000000
v -36.044952190 11.206940648 9.082000000
v -36.320952190 10.692940648 9.330000000
v -42.244952190 14.909940648 11.319000000
v -42.244952190 14.909940648 11.300000000
v -42.267952190 14.769940647 11.196000000
v -34.107952190 14.155940648 7.345000000
v -34.107952190 14.155940648 6.824000000
v -34.152952190 21.096940648 7.425000000
v -19.561952190 4.747940647 6.778000000
v -20.224952190 7.194940648 5.875000000
v -38.536952190 8.589940648 11.325000000
v -33.879952190 8.489940648 7.106000000
v -26.120952190 8.362940648 7.025000000
v -26.071952190 4.592940648 6.751000000
v -41.409952190 16.984940648 8.614000000
v -41.409952190 16.984940648 9.450000000
v -39.830952190 16.185940647 10.074000000
v -25.190952190 8.358940648 7.027000000
v -35.920952190 11.436940648 9.616000000
v -35.920952190 11.436940648 8.971000000
v -25.597952190 20.767940648 7.229000000
v -36.019952190 11.975940648 9.064000000
v -23.445952190 10.777940648 9.474000000
v -23.445952190 10.777940648 9.495000000
v -23.495952190 10.708940648 9.425000000
v -26.717952190 14.771940648 6.171000000
v -29.020952191 13.838940647 7.134000000
v -42.982952190 16.481940648 7.168000000
v -42.982952190 16.481940648 9.962000000
v -20.224952190 7.194940648 6.955000000
v -42.969952190 15.113940648 11.156000000
v -38.445952190 21.105940647 11.313000000
v -42.821952190 21.115940648 7.281000000
v -38.589952190 14.797940648 11.229000000
v -20.301952190 8.339940648 7.038000000
v -20.216952191 8.339940648 6.952000000
v -33.771952190 8.392940648 7.009000000
v -34.104952190 13.652940648 7.340000000
v -43.003952190 15.861940647 10.504000000
v -42.949952190 14.673940647 11.110000000
v -42.870952190 12.948940648 7.299000000
v -42.870952190 12.948940648 9.593000000
v -40.390952191 12.930940648 9.583000000
v -42.673952190 8.678940647 7.512000000
v -22.709952190 8.349940647 7.033000000
v -22.709952190 8.349940647 9.463000000
v -4.653952190 18.574940648 3.089000000
v -4.676952190 15.649940648 3.089000000
v -4.693952190 13.387940648 3.089000000
v -16.511952190 13.353940648 3.089000000
v -16.282952190 15.721940648 3.089000000
v -16.034952190 18.283940648 3.089000000
v -15.168952190 18.432940648 3.089000000
v -15.379952190 24.456940648 3.089000000
v -6.965952190 24.636940648 3.089000000
v -7.479952190 19.752940647 3.089000000
v -7.635952190 18.266940648 3.089000000
v -15.379952190 24.456940648 6.706000000
v -15.168952190 18.432940648 5.764000000
v -15.168952190 18.432940648 6.703000000
v -16.034952190 18.283940648 5.918000000
v -6.965952190 24.636940648 5.782000000
v -7.479952190 19.752940647 5.855000000
v -7.479952190 19.752940647 4.392000000
v -16.282952190 15.721940648 8.478000000
v -7.635952190 18.266940648 5.877000000
v -4.653952190 18.574940648 5.549000000
v -4.676952190 15.649940648 8.469000000
v -4.693952190 13.387940648 6.187000000
v -16.511952190 13.353940648 6.088000000
f 1 2 3
f 1 3 4
f 1 4 5
f 1 5 6
f 1 6 7
f 1 7 8
f 1 8 9
f 1 9 10
f 1 10 11
f 1 11 12
f 1 12 13
f 1 13 14
f 1 14 15
f 1 15 16
f 1 16 17
f 1 17 18
f 1 18 19
f 1 19 20
f 1 20 21
f 1 21 22
f 1 22 23
f 1 23 24
f 1 24 25
f 1 25 26
f 1 26 27
f 1 27 28
f 29 30 31
f 29 31 32
f 33 34 30
f 33 30 29
f 35 36 37
f 35 37 38
f 39 40 41
f 39 41 42
f 42 41 43
f 42 43 44
f 45 46 47
f 45 47 34
f 45 34 33
f 48 1 28
f 48 28 49
f 50 51 52
f 53 54 16
f 53 16 15
f 53 15 55
f 56 57 23
f 56 23 22
f 56 22 58
f 59 6 5
f 59 5 36
f 59 36 35
f 36 5 4
f 36 4 60
f 61 11 10
f 61 10 62
f 63 8 7
f 63 7 64
f 65 66 67
f 47 46 68
f 69 70 51
f 69 51 50
f 64 7 6
f 64 6 59
f 49 28 27
f 49 27 71
f 71 27 26
f 71 26 43
f 70 69 72
f 73 74 75
f 44 43 26
f 44 26 25
f 44 25 76
f 77 24 23
f 77 23 57
f 66 65 78
f 66 78 79
f 76 25 24
f 76 24 77
f 38 37 60
f 38 60 80
f 81 17 16
f 81 16 54
f 82 21 20
f 82 20 83
f 58 22 21
f 58 21 82
f 85 3 2
f 85 2 86
f 80 60 4
f 80 4 3
f 80 3 85
f 62 10 9
f 62 9 87
f 87 9 8
f 87 8 63
f 86 2 1
f 86 1 48
f 79 78 19
f 79 19 18
f 79 18 89
f 83 20 19
f 83 19 78
f 55 15 14
f 55 14 90
f 90 14 13
f 90 13 91
f 90 91 92
f 89 18 17
f 89 17 81
f 92 91 93
f 91 13 12
f 91 12 94
f 94 12 11
f 94 11 61
f 74 73 40
f 74 40 39
f 32 31 95
f 32 95 96
f 96 95 85
f 60 37 36
f 72 88 56
f 72 56 58
f 72 58 82
f 72 82 61
f 72 61 62
f 72 62 52
f 72 52 51
f 72 51 70
f 32 49 71
f 32 71 43
f 32 43 41
f 32 41 40
f 32 40 73
f 32 73 75
f 32 75 45
f 32 45 33
f 32 33 29
f 88 72 69
f 88 69 50
f 88 50 39
f 88 39 42
f 88 42 44
f 88 44 76
f 88 76 77
f 88 77 57
f 89 81 54
f 89 54 84
f 89 84 67
f 89 67 66
f 89 66 79
f 92 93 84
f 92 84 53
f 92 53 55
f 92 55 90
f 94 61 82
f 94 82 83
f 94 83 78
f 94 78 65
f 94 65 67
f 94 67 84
f 94 84 93
f 94 93 91
f 74 39 50
f 74 50 52
f 74 52 62
f 74 62 87
f 74 87 63
f 74 63 68
f 74 68 46
f 74 46 75
f 96 85 86
f 96 86 48
f 96 48 49
f 96 49 32
f 85 95 31
f 85 31 30
f 85 30 34
f 85 34 47
f 85 47 68
f 85 68 63
f 85 63 64
f 85 64 59
f 85 59 35
f 85 35 38
f 85 38 80
f 97 98 99
f 97 99 100
f 97 100 101
f 97 101 102
f 97 102 103
f 97 103 104
f 97 104 105
f 97 105 106
f 97 106 107
f 108 104 103
f 108 103 109
f 108 109 110
f 109 103 102
f 109 102 111
f 112 105 104
f 112 104 108
f 113 114 106
f 113 106 105
f 113 105 112
f 111 102 101
f 111 101 115
f 110 109 114
f 110 114 113
f 116 107 106
f 116 106 114
f 117 97 107
f 117 107 116
f 118 98 97
f 118 97 117
f 119 99 98
f 119 98 118
f 120 100 99
f 120 99 119
f 115 101 100
f 115 100 120
f 110 113 112
f 110 112 108
f 118 117 116
f 118 116 114
f 118 114 109
f 118 109 111
f 118 111 115
f 115 120 119
f 115 119 118
