v -16.610113432 2.859070920 24.510000000
v -16.727113432 2.771070920 24.510000000
v -16.814113432 2.653070920 24.510000000
v -16.862113432 2.514070921 24.510000000
v -16.861113432 2.319070920 24.510000000
v -16.785113432 2.139070921 24.510000000
v -10.733113432 0.845070920 24.510000000
v -9.812113432 0.124070920 24.510000000
v -11.953113432 -1.505929080 24.510000000
v -12.765113432 0.161070921 24.510000000
v -13.161113432 -0.003929080 24.510000000
v -14.851113432 -0.706929079 24.510000000
v -15.879113432 0.804070921 24.510000000
v -14.949113432 3.759070921 24.510000000
v -10.336113432 6.260070920 24.510000000
v -8.640113432 4.250070920 24.510000000
v -7.818113432 3.274070920 24.510000000
v -10.016113432 1.443070920 24.510000000
v -9.885113432 1.358070920 24.510000000
v -10.348113432 1.166070920 24.510000000
v -16.610113432 2.859070920 27.704000000
v -16.727113432 2.771070920 27.665000000
v -14.949113432 3.759070921 28.193000000
v -14.949113432 3.759070921 26.237000000
v -16.814113432 2.653070920 27.624000000
v -16.862113432 2.514070921 27.587000000
v -16.785113432 2.139070921 27.525000000
v -15.879113432 0.804070921 26.440000000
v -15.879113432 0.804070921 27.419000000
v -7.818113432 3.274070920 27.113000000
v -8.640113432 4.250070920 28.068000000
v -9.812113432 0.124070920 26.365000000
v -10.733113432 0.845070920 26.370000000
v -10.733113432 0.845070920 26.472000000
v -11.953113432 -1.505929080 26.399000000
v -12.765113432 0.161070921 26.560000000
v -14.605113432 3.036070921 28.108000000
v -14.605113432 3.036070921 26.875000000
v -10.336113432 6.260070920 26.038000000
v -14.851113432 -0.706929079 26.390000000
v -13.161113432 -0.003929080 26.546000000
v -10.867113432 0.950070920 26.488000000
v -15.208113432 1.124070920 26.505000000
v -15.208113432 1.124070920 26.959000000
v -15.208113432 1.124070920 27.607000000
v -14.152113432 2.082070921 26.504000000
v -14.152113432 2.082070921 26.641000000
v -14.152113432 2.082070921 27.718000000
v -14.377113432 2.556070920 27.300000000
v -14.344113432 1.939070920 26.619000000
v -16.861113432 2.319070920 27.548000000
v -13.976113432 1.711070920 28.046000000
v -13.976113432 1.711070920 26.624000000
v -13.161113432 -0.003929080 26.575000000
v -10.016113432 1.443070920 26.553000000
v -9.885113432 1.358070920 26.451000000
v -10.348113432 1.166070920 26.468000000
v -14.741113432 1.346070920 26.550000000
v -15.414113432 1.522070920 27.651000000
v 17.688886568 5.820070921 24.510000000
v 10.663886568 0.848070920 24.510000000
v 8.176886568 4.392070920 24.510000000
v 5.695886568 7.931070920 24.510000000
v 12.740886568 12.955070920 24.510000000
v 15.187886568 9.426070920 24.510000000
v 12.740886568 12.955070920 29.094000000
v 5.695886568 7.931070920 29.067000000
v 15.187886568 9.426070920 33.622000000
v 8.176886568 4.392070920 33.625000000
v 10.663886568 0.848070920 29.094000000
v 17.688886568 5.820070921 29.030000000
f 60 61 62
f 60 62 63
f 60 63 64
f 60 64 65
f 66 64 63
f 66 63 67
f 68 65 64
f 68 64 66
f 67 63 62
f 67 62 69
f 69 62 61
f 69 61 70
f 71 60 65
f 71 65 68
f 70 61 60
f 70 60 71
f 69 68 66
f 69 66 67
f 70 71 68
f 70 68 69
f 7 8 9
f 7 9 10
f 7 10 11
f 7 11 12
f 7 12 13
f 7 13 6
f 7 6 5
f 7 5 4
f 7 4 3
f 7 3 2
f 7 2 1
f 7 1 14
f 7 14 15
f 7 15 16
f 7 16 17
f 7 17 18
f 7 18 19
f 7 19 20
f 21 1 2
f 21 2 22
f 23 24 14
f 23 14 1
f 23 1 21
f 22 2 3
f 22 3 25
f 25 3 4
f 25 4 26
f 27 6 13
f 27 13 28
f 27 28 29
f 30 17 16
f 30 16 31
f 32 8 7
f 32 7 33
f 32 33 34
f 35 9 8
f 35 8 32
f 36 10 9
f 36 9 35
f 39 15 14
f 39 14 24
f 40 12 11
f 40 11 41
f 34 33 42
f 29 28 43
f 29 43 44
f 29 44 45
f 28 13 12
f 28 12 40
f 46 47 48
f 47 46 50
f 26 4 5
f 26 5 51
f 51 5 6
f 51 6 27
f 54 41 11
f 54 11 10
f 54 10 36
f 55 18 17
f 55 17 30
f 56 19 18
f 56 18 55
f 33 7 20
f 33 20 57
f 44 43 58
f 45 44 59
f 57 20 19
f 57 19 56
f 31 16 15
f 31 15 39
f 34 42 36
f 34 36 35
f 34 35 32
f 58 43 28
f 58 28 40
f 58 40 41
f 58 41 53
f 58 53 47
f 58 47 50
f 59 44 58
f 59 58 50
f 59 50 46
f 59 46 49
f 59 49 37
f 45 59 37
f 45 37 23
f 45 23 21
f 45 21 22
f 45 22 25
f 45 25 26
f 45 26 51
f 45 51 27
f 45 27 29
f 52 31 39
f 52 39 24
f 52 24 38
f 31 52 54
f 31 54 36
f 31 36 42
f 31 42 33
f 31 33 57
f 31 57 56
f 31 56 55
f 31 55 30
