v -3.518276894 12.487448896 28.159000000
v -3.672276894 12.635448896 28.159000000
v -7.453276894 11.469448896 28.159000000
v -7.190276894 15.885448896 28.159000000
v -6.405276894 15.748448896 28.159000000
v -5.207276894 19.622448897 28.159000000
v 5.150723106 17.732448896 28.159000000
v 5.437723106 13.677448897 28.159000000
v 4.810723106 13.787448896 28.159000000
v 4.487723106 10.267448897 28.159000000
v 0.394723106 10.642448897 28.159000000
v -1.316276894 10.800448896 28.159000000
v -1.376276894 10.426448897 28.159000000
v -2.112276894 11.134448896 28.159000000
v -3.231276894 11.248448896 28.159000000
v -2.814276894 11.810448896 28.159000000
v 0.876723106 11.963448896 32.830000000
v 0.876723106 11.963448896 32.430000000
v 0.616723106 12.605448897 32.993000000
v 0.616723106 12.605448897 33.188000000
v -2.814276894 11.810448896 33.071000000
v -3.231276894 11.248448896 32.729000000
v -2.112276894 11.134448896 33.933000000
v 4.487723106 10.267448897 31.419000000
v 4.810723106 13.787448896 34.789000000
v 0.394723106 10.642448897 33.105000000
v 0.394723106 10.642448897 31.107000000
v -1.316276894 10.800448896 34.833000000
v -1.376276894 10.426448897 34.835000000
v -0.672276894 14.678448897 34.835000000
v -0.672276894 14.678448897 34.792000000
v -0.672276894 14.678448897 34.737000000
v -0.791276894 14.671448897 34.711000000
v -6.405276894 15.748448896 34.813000000
v -7.190276894 15.885448896 34.815000000
v -5.207276894 19.622448897 31.051000000
v -7.453276894 11.469448896 30.611000000
v -3.672276894 12.635448896 32.324000000
v -3.518276894 12.487448896 32.209000000
v 5.150723106 17.732448896 31.101000000
v 5.437723106 13.677448897 34.787000000
v 7.978723106 16.193448897 28.159000000
v 8.086723106 18.723448897 28.159000000
v 11.707723106 18.334448896 28.159000000
v 11.395723106 15.866448897 28.159000000
v 8.086723106 18.723448897 30.440000000
v 7.978723106 16.193448897 30.691000000
v 11.707723106 18.334448896 30.480000000
v 11.395723106 15.866448897 30.725000000
f 1 2 3
f 1 3 4
f 1 4 5
f 1 5 6
f 1 6 7
f 1 7 8
f 1 8 9
f 1 9 10
f 1 10 11
f 1 11 12
f 1 12 13
f 1 13 14
f 1 14 15
f 1 15 16
f 17 18 19
f 17 19 20
f 21 16 15
f 21 15 22
f 22 15 14
f 22 14 23
f 24 10 9
f 24 9 25
f 26 27 18
f 26 18 17
f 27 11 10
f 27 10 24
f 28 12 11
f 28 11 27
f 28 27 26
f 29 13 12
f 29 12 28
f 30 31 32
f 30 32 33
f 23 14 13
f 23 13 29
f 34 5 4
f 34 4 35
f 36 6 5
f 36 5 34
f 37 3 2
f 37 2 38
f 39 1 16
f 39 16 21
f 35 4 3
f 35 3 37
f 40 7 6
f 40 6 36
f 20 19 32
f 20 32 31
f 41 8 7
f 41 7 40
f 25 9 8
f 25 8 41
f 38 2 1
f 38 1 39
f 20 31 28
f 20 28 26
f 20 26 17
f 33 39 21
f 33 21 22
f 33 22 23
f 33 23 29
f 33 29 28
f 33 28 30
f 25 34 35
f 25 35 37
f 25 37 38
f 25 38 39
f 25 39 33
f 25 33 32
f 25 32 19
f 25 19 18
f 25 18 27
f 25 27 24
f 34 25 41
f 34 41 40
f 34 40 36
f 42 43 44
f 42 44 45
f 46 43 42
f 46 42 47
f 48 44 43
f 48 43 46
f 47 42 45
f 47 45 49
f 49 45 44
f 49 44 48
f 49 48 46
f 49 46 47
