v 4.694516806 19.833234567 30.069000000
v 8.449516806 9.020234567 30.069000000
v 10.272516806 3.767234567 30.069000000
v 5.108516806 0.753234567 30.069000000
v 5.302516806 3.567234567 30.069000000
v 4.936516806 4.649234567 30.069000000
v 2.944516806 4.000234567 30.069000000
v 2.581516806 3.882234567 30.069000000
v -1.064483194 2.696234567 30.069000000
v -2.704483194 6.203234567 30.069000000
v 1.153516806 8.351234567 30.069000000
v -0.216483194 12.636234568 30.069000000
v -3.114483194 11.394234567 30.069000000
v -3.919483194 12.901234567 30.069000000
v -4.705483194 14.371234567 30.069000000
v -1.247483194 15.398234567 30.069000000
v -1.332483194 15.565234567 30.069000000
v -1.112483194 15.438234567 30.069000000
v 1.052516806 16.123234567 30.069000000
v 0.372516806 18.132234567 30.069000000
v -2.704483194 6.203234567 33.544000000
v -1.064483194 2.696234567 33.522000000
v 2.581516806 3.882234567 33.670000000
v 5.302516806 3.567234567 31.518000000
v 5.108516806 0.753234567 31.525000000
v 1.153516806 8.351234567 33.720000000
v -3.919483194 12.901234567 34.450000000
v -3.114483194 11.394234567 33.644000000
v -0.216483194 12.636234568 33.768000000
v -4.705483194 14.371234567 33.691000000
v 4.936516806 4.649234567 31.515000000
v 7.208516806 5.691234567 33.612000000
v 7.208516806 5.691234567 31.512000000
v 6.682516806 7.906234567 31.506000000
v 6.682516806 7.906234567 33.482000000
v -1.247483194 15.398234567 33.785000000
v -1.332483194 15.565234567 33.699000000
v 10.272516806 3.767234567 31.515000000
v 8.449516806 9.020234567 32.227000000
v 8.449516806 9.020234567 31.503000000
v 4.694516806 19.833234567 32.290000000
v -1.112483194 15.438234567 33.789000000
v 0.372516806 18.132234567 35.157000000
v 1.052516806 16.123234567 35.156000000
v 2.944516806 4.000234567 33.898000000
v 4.936516806 4.649234567 35.149000000
v 5.386516806 4.795234567 31.515000000
v 5.386516806 4.795234567 34.856000000
v 5.399516806 4.974234567 31.514000000
v 5.399516806 4.974234567 34.814000000
v -1.112483194 15.438234567 33.800000000
v 0.428516806 14.409234567 34.474000000
v 8.905516806 0.022234567 30.069000000
v 9.793516806 -3.863765432 30.069000000
v 6.218516806 -5.022765433 30.069000000
v 4.838516806 -0.769765433 30.069000000
v 8.905516806 0.022234567 32.214000000
v 4.838516806 -0.769765433 32.374000000
v 6.218516806 -5.022765433 32.354000000
v 9.793516806 -3.863765432 32.209000000
v 14.953516806 -9.711765433 30.069000000
v 13.950516806 -9.940765433 30.069000000
v 14.393516806 -11.492765433 30.069000000
v 13.984516806 -11.539765433 30.069000000
v 14.104516806 -12.553765433 30.069000000
v 9.651516806 -13.184765433 30.069000000
v 9.463516806 -10.963765433 30.069000000
v 9.330516806 -9.396765433 30.069000000
v 14.460516806 -8.292765433 30.069000000
v 9.651516806 -13.184765433 31.635000000
v 14.104516806 -12.553765433 31.264000000
v 13.984516806 -11.539765433 32.269000000
v 9.463516806 -10.963765433 33.821000000
v 9.330516806 -9.396765433 32.353000000
v 14.460516806 -8.292765433 32.414000000
v 14.953516806 -9.711765433 33.821000000
v 13.950516806 -9.940765433 33.821000000
v 14.393516806 -11.492765433 32.225000000
v -10.705483194 15.078234567 30.069000000
v -8.514483194 15.677234567 30.069000000
v -6.746483194 16.160234567 30.069000000
v -6.321483194 16.406234567 30.069000000
v -3.582483194 7.584234567 30.069000000
v -5.784483194 6.977234567 30.069000000
v -7.983483194 6.372234567 30.069000000
v -7.983483194 6.372234567 33.135000000
v -5.784483194 6.977234567 34.003000000
v -3.582483194 7.584234567 33.139000000
v -10.705483194 15.078234567 33.136000000
v -6.321483194 16.406234567 33.126000000
v -8.514483194 15.677234567 34.000000000
v -6.746483194 16.160234567 33.308000000
f 79 80 81
f 79 81 82
f 79 82 83
f 79 83 84
f 79 84 85
f 86 85 84
f 86 84 87
f 87 84 83
f 87 83 88
f 89 79 85
f 89 85 86
f 88 83 82
f 88 82 90
f 91 80 79
f 91 79 89
f 90 82 81
f 90 81 92
f 92 81 80
f 92 80 91
f 91 89 86
f 91 86 87
f 92 91 87
f 92 87 88
f 92 88 90
f 1 2 3
f 1 3 4
f 1 4 5
f 1 5 6
f 1 6 7
f 1 7 8
f 1 8 9
f 1 9 10
f 1 10 11
f 1 11 12
f 1 12 13
f 1 13 14
f 1 14 15
f 1 15 16
f 1 16 17
f 1 17 18
f 1 18 19
f 1 19 20
f 21 10 9
f 21 9 22
f 22 9 8
f 22 8 23
f 24 5 4
f 24 4 25
f 26 11 10
f 26 10 21
f 27 14 13
f 27 13 28
f 29 12 11
f 29 11 26
f 28 13 12
f 28 12 29
f 30 15 14
f 30 14 27
f 31 6 5
f 31 5 24
f 32 33 34
f 32 34 35
f 36 16 15
f 36 15 30
f 37 17 16
f 37 16 36
f 25 4 3
f 25 3 38
f 39 40 2
f 39 2 1
f 39 1 41
f 35 34 40
f 35 40 39
f 42 18 17
f 42 17 37
f 43 20 19
f 43 19 44
f 41 1 20
f 41 20 43
f 23 8 7
f 23 7 45
f 45 7 6
f 45 6 31
f 45 31 46
f 46 31 47
f 46 47 48
f 48 47 49
f 48 49 50
f 50 49 33
f 50 33 32
f 38 3 2
f 38 2 40
f 51 42 52
f 44 19 18
f 44 18 42
f 44 42 51
f 29 52 27
f 29 27 28
f 23 26 21
f 23 21 22
f 50 32 35
f 50 35 39
f 50 39 41
f 50 41 43
f 50 43 44
f 50 44 46
f 50 46 48
f 38 40 34
f 38 34 33
f 38 33 49
f 38 49 47
f 38 47 31
f 38 31 24
f 38 24 25
f 52 42 37
f 52 37 36
f 52 36 30
f 52 30 27
f 44 51 52
f 44 52 29
f 44 29 26
f 44 26 23
f 44 23 45
f 44 45 46
f 53 54 55
f 53 55 56
f 57 53 56
f 57 56 58
f 58 56 55
f 58 55 59
f 59 55 54
f 59 54 60
f 60 54 53
f 60 53 57
f 60 57 58
f 60 58 59
f 61 62 63
f 61 63 64
f 61 64 65
f 61 65 66
f 61 66 67
f 61 67 68
f 61 68 69
f 70 66 65
f 70 65 71
f 71 65 64
f 71 64 72
f 73 67 66
f 73 66 70
f 74 68 67
f 74 67 73
f 75 69 68
f 75 68 74
f 76 61 69
f 76 69 75
f 77 62 61
f 77 61 76
f 72 64 63
f 72 63 78
f 78 63 62
f 78 62 77
f 77 76 75
f 77 75 74
f 77 74 73
f 78 77 73
f 78 73 70
f 78 70 71
f 78 71 72
