v 12.719492746 -26.540010205 4.800000000
v 12.969492746 -26.385010205 4.800000000
v 13.090492746 -26.016010205 4.800000000
v -1.644507254 -29.765010205 4.800000000
v -1.630507254 -29.813010206 4.800000000
v -1.612507254 -29.860010206 4.800000000
v -1.590507254 -29.905010206 4.800000000
v -1.563507254 -29.948010205 4.800000000
v -1.531507254 -29.987010205 4.800000000
v -1.496507254 -30.023010205 4.800000000
v -1.458507254 -30.056010205 4.800000000
v -1.416507254 -30.084010205 4.800000000
v -1.372507254 -30.108010205 4.800000000
v -1.326507254 -30.128010206 4.800000000
v -1.278507254 -30.143010206 4.800000000
v -1.228507254 -30.152010205 4.800000000
v -1.178507254 -30.157010205 4.800000000
v -1.128507254 -30.157010205 4.800000000
v -1.078507254 -30.152010205 4.800000000
v -1.028507254 -30.141010205 4.800000000
v -2.372507254 -26.440010206 4.800000000
v -3.371507254 -21.887010206 4.800000000
v -1.741507254 -22.385010205 4.800000000
v -1.559507254 -20.696010206 4.800000000
v -0.027507254 -19.901010205 4.800000000
v 2.044492746 -18.825010206 4.800000000
v 3.549492746 -18.044010205 4.800000000
v 1.349492746 -8.183010206 4.800000000
v 4.815492746 -7.174010205 4.800000000
v 9.386492746 -5.844010205 4.800000000
v 11.866492746 -19.335010205 4.800000000
v 12.421492746 -22.357010205 4.800000000
v 12.719492746 -26.540010205 10.386000000
v 12.969492746 -26.385010205 10.476000000
v 13.090492746 -26.016010205 10.824000000
v 12.421492746 -22.357010205 14.802000000
v 1.349492746 -8.183010206 10.907000000
v 3.549492746 -18.044010205 11.027000000
v 2.044492746 -18.825010206 9.734000000
v -1.644507254 -29.765010205 11.101000000
v -1.630507254 -29.813010206 11.047000000
v -1.612507254 -29.860010206 10.993000000
v -1.590507254 -29.905010206 10.940000000
v -1.563507254 -29.948010205 10.889000000
v -1.531507254 -29.987010205 10.839000000
v -1.496507254 -30.023010205 10.792000000
v -1.458507254 -30.056010205 10.747000000
v -1.416507254 -30.084010205 10.706000000
v -1.372507254 -30.108010205 10.669000000
v -1.326507254 -30.128010206 10.635000000
v -1.178507254 -30.157010205 10.563000000
v -1.128507254 -30.157010205 10.549000000
v -1.228507254 -30.152010205 10.582000000
v -1.278507254 -30.143010206 10.606000000
v -1.078507254 -30.152010205 10.540000000
v -1.028507254 -30.141010205 10.537000000
v -2.372507254 -26.440010206 14.751000000
v -3.371507254 -21.887010206 8.342000000
v -0.027507254 -19.901010205 7.955000000
v -0.027507254 -19.901010205 10.039000000
v 0.501492746 -23.071010206 7.854000000
v 0.501492746 -23.071010206 11.344000000
v 0.501492746 -23.071010206 12.033000000
v 9.386492746 -5.844010205 10.124000000
v 4.815492746 -7.174010205 13.757000000
v 11.866492746 -19.335010205 10.589000000
v -1.741507254 -22.385010205 9.606000000
v -1.741507254 -22.385010205 6.226000000
v -1.559507254 -20.696010206 6.639000000
v 0.652492746 -23.978010206 12.603000000
v 8.238492746 -22.835010205 13.891000000
v 6.444492746 -22.346010205 12.579000000
f 1 20 19
f 1 19 18
f 1 18 17
f 1 17 16
f 1 16 15
f 1 15 14
f 1 14 13
f 1 13 12
f 1 12 11
f 1 11 10
f 1 10 9
f 1 9 8
f 1 8 7
f 1 7 6
f 1 6 5
f 1 5 4
f 1 4 21
f 1 21 22
f 1 22 23
f 1 23 24
f 1 24 25
f 1 25 26
f 1 26 27
f 1 27 28
f 1 28 29
f 1 29 30
f 1 30 31
f 1 31 32
f 1 32 3
f 1 3 2
f 33 1 2
f 33 2 34
f 35 3 32
f 35 32 36
f 37 28 27
f 37 27 38
f 38 27 26
f 38 26 39
f 40 4 5
f 40 5 41
f 41 5 6
f 41 6 42
f 43 7 8
f 43 8 44
f 44 8 9
f 44 9 45
f 42 6 7
f 42 7 43
f 45 9 10
f 45 10 46
f 46 10 11
f 46 11 47
f 47 11 12
f 47 12 48
f 49 13 14
f 49 14 50
f 48 12 13
f 48 13 49
f 51 17 18
f 51 18 52
f 53 16 17
f 53 17 51
f 54 15 16
f 54 16 53
f 50 14 15
f 50 15 54
f 52 18 19
f 52 19 55
f 55 19 20
f 55 20 56
f 34 2 3
f 34 3 35
f 57 21 4
f 57 4 40
f 58 22 21
f 58 21 57
f 39 26 25
f 39 25 59
f 39 59 60
f 60 59 61
f 60 61 62
f 60 62 63
f 64 30 29
f 64 29 65
f 66 31 30
f 66 30 64
f 36 32 31
f 36 31 66
f 67 68 23
f 67 23 22
f 67 22 58
f 69 24 23
f 69 23 68
f 62 61 68
f 62 68 67
f 63 62 70
f 59 25 24
f 59 24 69
f 65 29 28
f 65 28 37
f 56 20 1
f 56 1 33
f 66 64 65
f 66 65 71
f 63 70 72
f 63 72 39
f 63 39 60
f 59 69 68
f 59 68 61
f 57 36 66
f 57 66 71
f 57 71 72
f 57 72 70
f 57 70 62
f 57 62 67
f 57 67 58
f 65 37 38
f 65 38 39
f 65 39 72
f 65 72 71
f 56 33 34
f 56 34 35
f 56 35 36
f 56 36 57
f 56 57 40
f 56 40 41
f 56 41 42
f 56 42 43
f 56 43 44
f 56 44 45
f 56 45 46
f 56 46 47
f 56 47 48
f 56 48 49
f 56 49 50
f 56 50 54
f 56 54 53
f 56 53 51
f 56 51 52
f 56 52 55
