v -22.319669413 -12.526682130 42.290000000
v -16.377669413 -19.471682130 42.290000000
v -20.858669413 -23.064682130 42.290000000
v -20.246669413 -23.778682130 42.290000000
v -23.501669413 -25.948682130 42.290000000
v -24.320669413 -26.494682130 42.290000000
v -25.263669413 -27.615682130 42.290000000
v -26.339669413 -28.895682130 42.290000000
v -26.512669413 -29.101682130 42.290000000
v -29.909669413 -31.530682130 42.290000000
v -31.922669413 -32.970682130 42.290000000
v -33.857669413 -32.259682130 42.290000000
v -34.280669413 -29.975682130 42.290000000
v -35.753669413 -28.494682130 42.290000000
v -35.331669413 -28.129682130 42.290000000
v -36.015669413 -28.230682130 42.290000000
v -36.743669413 -27.498682130 42.290000000
v -35.223669413 -25.819682131 42.290000000
v -36.658669413 -24.149682130 42.290000000
v -35.062669413 -22.374682130 42.290000000
v -37.623669413 -18.949682130 42.290000000
v -35.893669413 -17.435682130 42.290000000
v -35.510669413 -17.899682130 42.290000000
v -33.806669413 -16.020682130 42.290000000
v -31.162669413 -19.243682130 42.290000000
v -30.470669413 -18.958682130 42.290000000
v -26.964669413 -15.947682130 42.290000000
v -26.131669413 -16.917682130 42.290000000
v -33.857669413 -32.259682130 41.110000000
v -34.280669413 -29.975682130 42.287000000
v -22.319669413 -12.526682130 46.072000000
v -26.131669413 -16.917682130 46.614000000
v -23.616669413 -19.849682130 51.009000000
v -23.616669413 -19.849682130 46.605000000
v -26.131669413 -16.917682130 47.685000000
v -34.130669413 -27.089682130 49.964000000
v -34.130669413 -27.089682130 47.566000000
v -34.203669413 -27.152682130 47.565000000
v -34.203669413 -27.152682130 49.966000000
v -35.223669413 -25.819682131 48.522000000
v -35.223669413 -25.819682131 46.075000000
v -35.331669413 -28.129682130 47.551000000
v -35.753669413 -28.494682130 47.546000000
v -36.015669413 -28.230682130 47.215000000
v -36.743669413 -27.498682130 46.298000000
v -28.666669413 -26.896682130 49.177000000
v -28.666669413 -26.896682130 48.807000000
v -29.909669413 -31.530682130 44.743000000
v -29.909669413 -31.530682130 46.831000000
v -34.346669413 -29.621682130 46.008000000
v -34.346669413 -29.621682130 42.469000000
v -32.693669413 -28.761682130 44.358000000
v -32.693669413 -28.761682130 45.650000000
v -34.280669413 -29.975682130 45.737000000
v -33.548669413 -27.767682130 50.733000000
v -33.548669413 -27.767682130 46.790000000
v -33.428669413 -28.087682130 46.509000000
v -33.428669413 -28.087682130 51.011000000
v -31.162669413 -19.243682130 45.507000000
v -33.806669413 -16.020682130 45.505000000
v -31.162669413 -19.243682130 46.434000000
v -31.013669413 -19.425682130 45.507000000
v -31.013669413 -19.425682130 46.636000000
v -30.470669413 -18.958682130 46.629000000
v -35.893669413 -17.435682130 46.553000000
v -37.623669413 -18.949682130 45.580000000
v -33.338669413 -28.011682130 46.509000000
v -33.338669413 -28.011682130 51.011000000
v -36.658669413 -24.149682130 46.627000000
v -29.421669413 -26.248682130 50.014000000
v -29.421669413 -26.248682130 48.635000000
v -30.736669413 -27.743682130 49.759000000
v -30.736669413 -27.743682130 46.595000000
v -32.693669413 -28.761682130 50.168000000
v -28.085669413 -24.729682130 50.708000000
v -28.085669413 -24.729682130 50.273000000
v -28.399669413 -25.901682130 49.680000000
v -33.115669413 -21.231682130 46.432000000
v -33.115669413 -21.231682130 46.664000000
v -32.989669413 -20.951682130 46.549000000
v -26.512669413 -29.101682130 46.555000000
v -26.014669413 -24.342682131 49.398000000
v -26.014669413 -24.342682131 49.390000000
v -26.046669413 -24.331682130 49.415000000
v -27.341669413 -23.883682130 50.417000000
v -27.341669413 -23.883682130 50.100000000
v -27.525669413 -24.092682131 50.382000000
v -27.912669413 -24.532682130 50.307000000
v -27.912669413 -24.532682130 50.976000000
v -26.964669413 -15.947682130 46.584000000
v -23.501669413 -25.948682130 48.569000000
v -23.501669413 -25.948682130 46.962000000
v -35.062669413 -22.374682130 45.489000000
v -35.510669413 -17.899682130 46.552000000
v -24.320669413 -26.494682130 49.565000000
v -26.339669413 -28.895682130 49.338000000
v -26.339669413 -28.895682130 46.594000000
v -25.263669413 -27.615682130 51.045000000
v -20.246669413 -23.778682130 46.593000000
v -20.858669413 -23.064682130 46.596000000
v -20.858669413 -23.064682130 47.396000000
v -16.377669413 -19.471682130 46.052000000
v -35.062669413 -22.374682130 46.339000000
v -34.821669413 -22.696682130 45.480000000
v -34.821669413 -22.696682130 46.686000000
v -33.939669413 -27.312682130 47.310000000
v -33.939669413 -27.312682130 50.217000000
v -31.922669413 -32.970682130 42.182000000
v -28.390669413 -27.133682130 48.870000000
v -31.838669413 -32.910682131 42.290000000
v -32.709669413 -20.882682130 46.658000000
v -32.709669413 -20.882682130 46.440000000
f 1 2 3
f 1 3 4
f 1 4 5
f 1 5 6
f 1 6 7
f 1 7 8
f 1 8 9
f 1 9 10
f 1 10 11
f 1 11 12
f 1 12 13
f 1 13 14
f 1 14 15
f 1 15 16
f 1 16 17
f 1 17 18
f 1 18 19
f 1 19 20
f 1 20 21
f 1 21 22
f 1 22 23
f 1 23 24
f 1 24 25
f 1 25 26
f 1 26 27
f 1 27 28
f 12 29 30
f 12 30 13
f 31 1 28
f 31 28 32
f 33 34 32
f 33 32 35
f 36 37 38
f 36 38 39
f 40 41 37
f 40 37 36
f 42 15 14
f 42 14 43
f 44 16 15
f 44 15 42
f 45 17 16
f 45 16 44
f 46 47 48
f 46 48 49
f 50 51 52
f 50 52 53
f 54 13 30
f 54 30 51
f 54 51 50
f 55 56 57
f 55 57 58
f 59 25 24
f 59 24 60
f 61 59 62
f 61 62 63
f 64 26 25
f 64 25 59
f 64 59 61
f 65 22 21
f 65 21 66
f 58 57 67
f 58 67 68
f 69 19 18
f 69 18 41
f 69 41 40
f 41 18 17
f 41 17 45
f 70 71 47
f 70 47 46
f 72 73 71
f 72 71 70
f 74 53 52
f 74 52 73
f 74 73 72
f 68 67 53
f 68 53 74
f 75 76 77
f 46 47 77
f 78 79 80
f 49 48 10
f 82 83 84
f 85 86 84
f 86 85 87
f 88 89 87
f 35 32 28
f 35 28 27
f 35 27 90
f 90 27 26
f 90 26 64
f 91 92 83
f 91 83 82
f 66 21 20
f 66 20 93
f 94 23 22
f 94 22 65
f 60 24 23
f 60 23 94
f 95 6 5
f 95 5 92
f 95 92 91
f 96 97 8
f 96 8 7
f 96 7 98
f 92 5 4
f 92 4 99
f 99 4 3
f 99 3 100
f 99 100 101
f 98 7 6
f 98 6 95
f 100 3 2
f 100 2 102
f 103 93 20
f 103 20 19
f 103 19 69
f 79 78 104
f 79 104 105
f 105 104 93
f 105 93 103
f 43 14 13
f 43 13 54
f 39 38 106
f 39 106 107
f 11 108 29
f 11 29 12
f 47 46 109
f 97 96 109
f 10 48 110
f 108 11 110
f 111 112 80
f 101 100 34
f 101 34 33
f 102 2 1
f 102 1 31
f 107 106 56
f 107 56 55
f 63 62 112
f 63 112 111
f 89 88 76
f 89 76 75
f 98 95 91
f 98 91 82
f 98 82 84
f 98 84 86
f 98 86 87
f 98 87 89
f 93 104 78
f 93 78 80
f 93 80 94
f 93 94 65
f 93 65 66
f 42 38 37
f 42 37 41
f 42 41 45
f 42 45 44
f 97 109 46
f 97 46 49
f 97 49 81
f 108 110 48
f 108 48 47
f 108 47 71
f 108 71 73
f 108 73 52
f 108 52 51
f 108 51 30
f 108 30 29
f 68 33 35
f 68 35 90
f 68 90 64
f 68 64 61
f 68 61 63
f 68 63 111
f 68 111 80
f 68 80 79
f 68 79 105
f 68 105 103
f 68 103 69
f 68 69 40
f 68 40 36
f 68 36 39
f 68 39 107
f 68 107 55
f 68 55 58
f 102 31 32
f 102 32 34
f 102 34 100
f 56 106 38
f 56 38 42
f 56 42 43
f 56 43 54
f 56 54 50
f 56 50 53
f 56 53 67
f 56 67 57
f 112 62 59
f 112 59 60
f 112 60 94
f 112 94 80
f 76 88 87
f 76 87 85
f 76 85 84
f 76 84 83
f 76 83 92
f 76 92 99
f 76 99 101
f 76 101 33
f 76 33 68
f 76 68 74
f 76 74 72
f 76 72 70
f 76 70 46
f 76 46 77
f 89 75 77
f 89 77 47
f 89 47 109
f 89 109 96
f 89 96 98
