v -8.664198220 14.209993546 22.860000000
v -3.592198220 15.082993547 22.860000000
v -2.859198220 13.799993546 22.860000000
v -5.236198220 7.771993546 22.860000000
v -7.248198220 7.953993546 22.860000000
v -3.592198220 15.082993547 25.264000000
v -8.664198220 14.209993546 25.070000000
v -2.859198220 13.799993546 25.283000000
v -5.236198220 7.771993546 25.156000000
v -7.248198220 7.953993546 25.082000000
v 6.019801780 -9.666006454 22.860000000
v 4.731801780 -3.988006454 22.860000000
v -3.038198220 -6.018006454 22.860000000
v -4.179198220 -0.806006454 22.860000000
v -5.257198220 4.113993546 22.860000000
v 5.224801780 6.738993546 22.860000000
v 6.476801780 1.911993546 22.860000000
v 7.799801780 -3.187006454 22.860000000
v 8.191801780 -4.697006454 22.860000000
v 9.047801780 -7.996006453 22.860000000
v 7.130801780 -3.362006454 22.860000000
v 6.693801780 -3.476006454 22.860000000
v 7.124801780 -5.277006454 22.860000000
v 7.537801780 -5.052006454 22.860000000
v 6.624801780 -3.189006453 22.860000000
v 5.124801780 -3.886006454 22.860000000
v 7.799801780 -3.187006454 25.585000000
v 6.476801780 1.911993546 28.038000000
v 8.191801780 -4.697006454 27.737000000
v 8.191801780 -4.697006454 25.826000000
v 7.799801780 -3.187006454 27.045000000
v 5.224801780 6.738993546 25.729000000
v -5.257198220 4.113993546 25.718000000
v 7.537801780 -5.052006454 25.765000000
v 7.124801780 -5.277006454 25.725000000
v 7.130801780 -3.362006454 25.584000000
v 7.130801780 -3.362006454 27.091000000
v 9.047801780 -7.996006453 25.839000000
v 6.693801780 -3.476006454 25.583000000
v 6.693801780 -3.476006454 25.721000000
v -4.179198220 -0.806006454 28.049000000
v 7.537801780 -5.052006454 27.864000000
v 6.019801780 -9.666006454 25.552000000
v -3.038198220 -6.018006454 25.567000000
v 4.731801780 -3.988006454 25.546000000
v 4.731801780 -3.988006454 25.580000000
v 5.124801780 -3.886006454 25.581000000
v 6.624801780 -3.189006453 25.721000000
f 11 12 13
f 11 13 14
f 11 14 15
f 11 15 16
f 11 16 17
f 11 17 18
f 11 18 19
f 11 19 20
f 21 22 23
f 21 23 24
f 22 25 26
f 27 18 17
f 27 17 28
f 29 30 19
f 29 19 18
f 29 18 27
f 29 27 31
f 32 16 15
f 32 15 33
f 34 24 23
f 34 23 35
f 28 17 16
f 28 16 32
f 31 27 36
f 31 36 37
f 38 20 19
f 38 19 30
f 35 23 22
f 35 22 39
f 35 39 40
f 33 15 14
f 33 14 41
f 37 36 21
f 37 21 24
f 37 24 34
f 37 34 42
f 39 22 21
f 39 21 36
f 42 34 30
f 42 30 29
f 43 11 20
f 43 20 38
f 41 14 13
f 41 13 44
f 44 13 12
f 44 12 45
f 44 45 46
f 45 12 11
f 45 11 43
f 40 39 22
f 40 22 26
f 40 26 47
f 46 45 47
f 47 26 25
f 47 25 48
f 48 25 22
f 48 22 39
f 41 28 32
f 41 32 33
f 42 29 31
f 42 31 37
f 47 45 43
f 47 43 38
f 47 38 30
f 47 30 34
f 47 34 35
f 47 35 40
f 48 39 36
f 48 36 27
f 48 27 28
f 48 28 41
f 48 41 44
f 48 44 46
f 48 46 47
f 1 2 3
f 1 3 4
f 1 4 5
f 6 2 1
f 6 1 7
f 8 3 2
f 8 2 6
f 9 4 3
f 9 3 8
f 10 5 4
f 10 4 9
f 7 1 5
f 7 5 10
f 7 10 9
f 7 9 8
f 7 8 6
