v 6.496095632 7.530077674 2.799000000
v 8.766095632 5.052077674 2.799000000
v 9.099095632 4.689077674 2.799000000
v 13.211095632 1.775077675 2.799000000
v 6.648095632 -5.306922326 2.799000000
v 2.587095632 -1.410922325 2.799000000
v 0.204095632 0.876077674 2.799000000
v 6.496095632 7.530077674 6.110000000
v 0.204095632 0.876077674 6.140000000
v 9.099095632 4.689077674 6.491000000
v 8.766095632 5.052077674 6.174000000
v 8.766095632 5.052077674 6.466000000
v 2.587095632 -1.410922325 6.202000000
v 2.587095632 -1.410922325 6.518000000
v 6.648095632 -5.306922326 6.812000000
v 13.211095632 1.775077675 6.747000000
v -20.499904368 -2.378922326 2.799000000
v -16.113904368 3.397077674 2.799000000
v -16.028904368 3.362077674 2.799000000
v -14.828904368 6.239077674 2.799000000
v -14.240904368 6.648077674 2.799000000
v -11.231904368 8.744077674 2.799000000
v -9.475904368 5.275077675 2.799000000
v -8.828904368 5.735077675 2.799000000
v -8.064904368 6.278077674 2.799000000
v -5.457904368 3.578077674 2.799000000
v -4.452904368 5.191077675 2.799000000
v -0.496904368 2.137077674 2.799000000
v -1.616904368 1.001077674 2.799000000
v -2.299904368 0.308077674 2.799000000
v -1.684904368 -0.328922326 2.799000000
v -12.052904368 -11.251922325 2.799000000
v -15.372904368 -8.142922326 2.799000000
v -18.874904368 -4.862922326 2.799000000
v -18.370904368 -4.327922326 2.799000000
v -16.028904368 3.362077674 6.020000000
v -16.028904368 3.362077674 6.139000000
v -15.293904368 3.062077674 6.166000000
v -14.828904368 6.239077674 7.490000000
v -1.616904368 1.001077674 6.381000000
v -0.496904368 2.137077674 6.180000000
v -1.616904368 1.001077674 6.802000000
v -4.883904368 2.950077674 6.492000000
v -4.883904368 2.950077674 8.685000000
v -8.828904368 5.735077675 6.296000000
v -9.475904368 5.275077675 6.688000000
v -11.231904368 8.744077674 6.036000000
v -8.064904368 6.278077674 6.388000000
v -5.457904368 3.578077674 8.261000000
v -5.457904368 3.578077674 6.485000000
v -12.052904368 -11.251922325 6.357000000
v -1.684904368 -0.328922326 6.362000000
v -2.299904368 0.308077674 6.811000000
v -16.113904368 3.397077674 6.136000000
v -20.499904368 -2.378922326 6.160000000
v -18.370904368 -4.327922326 6.267000000
v -4.452904368 5.191077675 6.250000000
v -15.372904368 -8.142922326 8.664000000
v -14.240904368 6.648077674 7.844000000
v -18.874904368 -4.862922326 6.267000000
v -8.697904368 1.355077675 7.842000000
v -13.103904368 1.260077674 6.272000000
f 17 18 19
f 17 19 20
f 17 20 21
f 17 21 22
f 17 22 23
f 17 23 24
f 17 24 25
f 17 25 26
f 17 26 27
f 17 27 28
f 17 28 29
f 17 29 30
f 17 30 31
f 17 31 32
f 17 32 33
f 17 33 34
f 17 34 35
f 39 20 19
f 39 19 36
f 40 29 28
f 40 28 41
f 42 40 43
f 42 43 44
f 45 24 23
f 45 23 46
f 46 23 22
f 46 22 47
f 48 25 24
f 48 24 45
f 49 50 26
f 49 26 25
f 49 25 48
f 51 32 31
f 51 31 52
f 52 31 30
f 52 30 53
f 37 36 19
f 37 19 18
f 37 18 54
f 55 17 35
f 55 35 56
f 44 43 50
f 44 50 49
f 57 27 26
f 57 26 50
f 58 33 32
f 58 32 51
f 41 28 27
f 41 27 57
f 53 30 29
f 53 29 40
f 53 40 42
f 59 21 20
f 59 20 39
f 47 22 21
f 47 21 59
f 56 35 34
f 56 34 60
f 60 34 33
f 60 33 58
f 54 18 17
f 54 17 55
f 41 57 50
f 41 50 43
f 41 43 40
f 53 42 44
f 53 44 58
f 53 58 51
f 53 51 52
f 61 59 39
f 61 39 36
f 61 36 38
f 61 38 62
f 54 55 56
f 54 56 62
f 54 62 38
f 54 38 37
f 61 62 56
f 61 56 60
f 61 60 58
f 61 58 44
f 61 44 49
f 61 49 48
f 61 48 45
f 59 61 45
f 59 45 46
f 59 46 47
f 1 2 3
f 1 3 4
f 1 4 5
f 1 5 6
f 1 6 7
f 8 1 7
f 8 7 9
f 10 3 2
f 10 2 11
f 10 11 12
f 12 11 13
f 12 13 14
f 14 13 6
f 14 6 5
f 14 5 15
f 15 5 4
f 15 4 16
f 16 4 3
f 16 3 10
f 9 7 6
f 9 6 13
f 11 2 1
f 11 1 8
f 16 10 12
f 16 12 14
f 16 14 15
f 11 8 9
f 11 9 13
