v 3.726207696 10.123207157 62.020000000
v 3.665207696 2.653207157 62.020000000
v 2.935207696 2.067207157 62.020000000
v -1.226792304 -1.266792843 62.020000000
v -4.004792304 -3.491792843 62.020000000
v -13.180792304 6.021207157 62.020000000
v -9.596792304 9.077207157 62.020000000
v -6.833792304 11.434207157 62.020000000
v -1.669792304 5.723207157 62.020000000
v -0.796792304 6.433207157 62.020000000
v -0.796792304 6.433207157 64.315000000
v -1.669792304 5.723207157 64.688000000
v -6.833792304 11.434207157 64.823000000
v 2.935207696 2.067207157 64.267000000
v 3.665207696 2.653207157 64.286000000
v 3.726207696 10.123207157 64.433000000
v -9.596792304 9.077207157 66.025000000
v -13.180792304 6.021207157 64.416000000
v -4.004792304 -3.491792843 64.816000000
v -1.226792304 -1.266792843 66.032000000
f 1 2 3
f 1 3 4
f 1 4 5
f 1 5 6
f 1 6 7
f 1 7 8
f 1 8 9
f 1 9 10
f 11 10 9
f 11 9 12
f 12 9 8
f 12 8 13
f 14 3 2
f 14 2 15
f 16 1 10
f 16 10 11
f 13 8 7
f 13 7 17
f 17 7 6
f 17 6 18
f 18 6 5
f 18 5 19
f 19 5 4
f 19 4 20
f 20 4 3
f 20 3 14
f 15 2 1
f 15 1 16
f 20 17 18
f 20 18 19
f 15 16 11
f 15 11 14
f 17 20 14
f 17 14 11
f 17 11 12
f 17 12 13
