v 34.545311518 16.176238415 36.139000000
v 37.010311518 17.607238415 36.139000000
v 39.405311518 18.997238414 36.139000000
v 44.410311518 10.508238414 36.139000000
v 42.119311518 9.168238414 36.139000000
v 39.778311518 7.798238414 36.139000000
v 37.010311518 17.607238415 40.538000000
v 34.545311518 16.176238415 39.739000000
v 39.778311518 7.798238414 39.755000000
v 39.405311518 18.997238414 39.832000000
v 42.119311518 9.168238414 40.515000000
v 44.410311518 10.508238414 39.838000000
v 17.288311518 1.481238415 36.139000000
v 15.154311518 4.914238415 36.139000000
v 13.210311518 4.011238415 36.139000000
v 12.600311518 5.122238414 36.139000000
v 12.516311518 5.072238415 36.139000000
v 12.397311518 5.393238415 36.139000000
v 12.285311518 5.696238414 36.139000000
v 11.413311518 7.282238415 36.139000000
v 13.164311518 8.113238415 36.139000000
v 11.581311518 10.659238415 36.139000000
v 18.550311518 14.819238415 36.139000000
v 20.456311518 17.780238415 36.139000000
v 22.017311518 16.902238415 36.139000000
v 27.483311518 20.152238415 36.139000000
v 30.157311518 15.811238415 36.139000000
v 32.021311518 12.785238415 36.139000000
v 34.216311518 13.688238415 36.139000000
v 38.257311518 7.757238415 36.139000000
v 34.019311518 5.244238415 36.139000000
v 29.958311518 2.835238415 36.139000000
v 26.930311518 7.891238415 36.139000000
v 26.763311518 8.170238415 36.139000000
v 20.456311518 17.780238415 38.943000000
v 18.550311518 14.819238415 40.462000000
v 19.686311518 15.498238415 45.666000000
v 19.686311518 15.498238415 40.474000000
v 18.550311518 14.819238415 44.476000000
v 11.581311518 10.659238415 40.388000000
v 29.958311518 2.835238415 40.382000000
v 34.019311518 5.244238415 42.861000000
v 38.257311518 7.757238415 40.218000000
v 34.216311518 13.688238415 40.455000000
v 14.187311518 6.467238415 45.269000000
v 14.187311518 6.467238415 41.458000000
v 14.358311518 6.193238415 41.251000000
v 14.358311518 6.193238415 45.588000000
v 22.124311518 11.226238415 45.602000000
v 22.124311518 11.226238415 45.335000000
v 22.374311518 11.376238415 45.337000000
v 22.017311518 16.902238415 43.194000000
v 22.017311518 16.902238415 40.488000000
v 21.868311518 11.073238415 45.333000000
v 32.021311518 12.785238415 41.715000000
v 30.157311518 15.811238415 45.599000000
v 27.483311518 20.152238415 40.557000000
v 23.445311518 14.822238415 42.980000000
v 23.445311518 14.822238415 42.972000000
v 22.730311518 12.528238415 44.548000000
v 12.397311518 5.393238415 41.482000000
v 12.516311518 5.072238415 41.266000000
v 13.164311518 8.113238415 43.352000000
v 13.164311518 8.113238415 40.226000000
v 12.600311518 5.122238414 41.266000000
v 13.210311518 4.011238415 40.455000000
v 26.930311518 7.891238415 40.444000000
v 32.021311518 12.785238415 41.999000000
v 31.318311518 12.495238415 42.119000000
v 15.154311518 4.914238415 40.286000000
v 15.154311518 4.914238415 44.062000000
v 11.413311518 7.282238415 40.130000000
v 17.171311518 12.678238415 41.560000000
v 17.171311518 12.678238415 42.430000000
v 19.888311518 11.468238415 43.981000000
v 26.763311518 8.170238415 40.772000000
v 17.288311518 1.481238415 39.969000000
v 23.777311518 15.912238414 42.230000000
v 12.285311518 5.696238414 41.280000000
v 29.652311518 12.400238415 42.913000000
f 13 14 15
f 13 15 16
f 13 16 17
f 13 17 18
f 13 18 19
f 13 19 20
f 13 20 21
f 13 21 22
f 13 22 23
f 13 23 24
f 13 24 25
f 13 25 26
f 13 26 27
f 13 27 28
f 13 28 29
f 13 29 30
f 13 30 31
f 13 31 32
f 13 32 33
f 13 33 34
f 35 24 23
f 35 23 36
f 37 38 36
f 37 36 39
f 36 23 22
f 36 22 40
f 41 32 31
f 41 31 42
f 43 30 29
f 43 29 44
f 45 46 47
f 45 47 48
f 52 53 38
f 52 38 37
f 53 25 24
f 53 24 35
f 42 31 30
f 42 30 43
f 44 29 28
f 44 28 55
f 56 27 26
f 56 26 57
f 61 18 17
f 61 17 62
f 63 64 46
f 63 46 45
f 65 16 15
f 65 15 66
f 67 33 32
f 67 32 41
f 48 47 70
f 48 70 71
f 66 15 14
f 66 14 70
f 64 21 20
f 64 20 72
f 40 22 21
f 40 21 64
f 40 64 63
f 68 55 28
f 68 28 27
f 68 27 56
f 39 36 73
f 39 73 74
f 74 73 75
f 76 34 33
f 76 33 67
f 77 13 34
f 77 34 76
f 57 26 25
f 57 25 53
f 53 52 78
f 72 20 19
f 72 19 79
f 79 19 18
f 79 18 61
f 62 17 16
f 62 16 65
f 71 70 14
f 71 14 13
f 71 13 77
f 53 35 36
f 53 36 38
f 80 42 43
f 80 43 44
f 80 44 55
f 80 55 69
f 42 80 67
f 42 67 41
f 49 37 39
f 49 39 74
f 49 74 75
f 49 75 54
f 79 61 46
f 79 46 64
f 79 64 72
f 62 65 66
f 62 66 70
f 62 70 47
f 62 47 46
f 62 46 61
f 48 56 57
f 48 57 53
f 48 53 78
f 48 78 58
f 48 58 60
f 48 60 51
f 48 51 50
f 48 50 54
f 48 54 75
f 48 75 73
f 48 73 36
f 48 36 40
f 48 40 63
f 48 63 45
f 37 49 51
f 37 51 60
f 37 60 59
f 37 59 78
f 37 78 52
f 56 48 71
f 56 71 77
f 56 77 76
f 56 76 67
f 56 67 80
f 56 80 69
f 56 69 68
f 1 2 3
f 1 3 4
f 1 4 5
f 1 5 6
f 7 2 1
f 7 1 8
f 8 1 6
f 8 6 9
f 10 3 2
f 10 2 7
f 9 6 5
f 9 5 11
f 11 5 4
f 11 4 12
f 12 4 3
f 12 3 10
f 11 7 8
f 11 8 9
f 12 10 7
f 12 7 11
