v -2.209954231 -11.658987810 37.799000000
v 3.076045769 -0.199987810 37.799000000
v 7.324045769 -1.981987811 37.799000000
v 2.458045769 -13.744987810 37.799000000
v -2.209954231 -11.658987810 40.709000000
v 2.458045769 -13.744987810 40.185000000
v 7.324045769 -1.981987811 40.151000000
v 3.076045769 -0.199987810 40.624000000
v 0.995045769 2.186012190 37.799000000
v -0.696954231 -1.677987810 37.799000000
v -1.496954231 -1.360987810 37.799000000
v -3.192954231 -5.073987810 37.799000000
v -4.947954231 -4.312987810 37.799000000
v -5.985954231 -4.481987811 37.799000000
v -9.908954231 -0.904987810 37.799000000
v -9.021954231 1.614012189 37.799000000
v -7.728954231 5.286012189 37.799000000
v -7.728954231 5.286012189 40.822000000
v -9.021954231 1.614012189 44.534000000
v -0.696954231 -1.677987810 44.591000000
v 0.995045769 2.186012190 40.572000000
v -1.496954231 -1.360987810 44.585000000
v -9.908954231 -0.904987810 41.983000000
v -3.192954231 -5.073987810 40.687000000
v -5.985954231 -4.481987811 40.213000000
v -4.947954231 -4.312987810 40.734000000
f 9 10 11
f 9 11 12
f 9 12 13
f 9 13 14
f 9 14 15
f 9 15 16
f 9 16 17
f 18 17 16
f 18 16 19
f 20 10 9
f 20 9 21
f 22 11 10
f 22 10 20
f 21 9 17
f 21 17 18
f 19 16 15
f 19 15 23
f 24 12 11
f 24 11 22
f 23 15 14
f 23 14 25
f 25 14 13
f 25 13 26
f 26 13 12
f 26 12 24
f 19 22 20
f 19 20 21
f 19 21 18
f 26 24 22
f 26 22 19
f 26 19 23
f 26 23 25
f 1 2 3
f 1 3 4
f 5 1 4
f 5 4 6
f 6 4 3
f 6 3 7
f 7 3 2
f 7 2 8
f 8 2 1
f 8 1 5
f 8 5 6
f 8 6 7
