v 17.797999997 -8.170947367 16.639000000
v 18.202999997 -10.735947368 16.639000000
v 15.446999997 -10.735947368 16.639000000
v 15.039999997 -8.146947368 16.639000000
v 14.940999997 -7.513947368 16.639000000
v 15.231999997 -7.476947368 16.639000000
v 15.295999997 -6.334947368 16.639000000
v 17.524999997 -6.442947368 16.639000000
v 17.680999997 -7.430947368 16.639000000
v 18.476999997 -8.176947367 16.639000000
v 17.680999997 -7.430947368 22.903000000
v 17.524999997 -6.442947368 22.551000000
v 15.295999997 -6.334947368 22.526000000
v 15.231999997 -7.476947368 22.933000000
v 15.039999997 -8.146947368 23.173000000
v 15.446999997 -10.735947368 22.280000000
v 14.940999997 -7.513947368 22.948000000
v 18.202999997 -10.735947368 22.281000000
v 17.797999997 -8.170947367 23.166000000
v 18.476999997 -8.176947367 23.164000000
v -19.099000003 5.241052632 16.639000000
v -18.456000003 5.905052632 16.639000000
v -18.531000003 3.102052633 16.639000000
v -19.657000003 2.892052632 16.639000000
v -19.991000003 7.409052632 16.639000000
v -19.657000003 2.892052632 18.313000000
v -18.531000003 3.102052633 19.096000000
v -19.991000003 7.409052632 17.968000000
v -19.099000003 5.241052632 18.646000000
v -18.456000003 5.905052632 19.080000000
v -16.675000003 -4.321947368 16.639000000
v -17.964000003 -4.197947368 16.639000000
v -18.081000003 -0.832947368 16.639000000
v -16.684000003 -0.923947368 16.639000000
v -15.234000003 -1.017947367 16.639000000
v -15.372000003 -4.445947368 16.639000000
v -17.964000003 -4.197947368 19.057000000
v -16.675000003 -4.321947368 19.999000000
v -15.234000003 -1.017947367 19.132000000
v -16.684000003 -0.923947368 20.006000000
v -15.372000003 -4.445947368 19.214000000
v -18.081000003 -0.832947368 18.985000000
v 23.871999997 3.437052633 16.639000000
v 16.486999997 3.844052632 16.639000000
v 15.762999997 2.080052632 16.639000000
v 15.645999997 -0.036947368 16.639000000
v 15.646999997 -0.221947367 16.639000000
v 15.401999997 -4.417947368 16.639000000
v 10.574999997 -4.446947368 16.639000000
v 10.540999997 -5.579947367 16.639000000
v 10.464999997 -8.116947368 16.639000000
v 5.469999997 -7.920947367 16.639000000
v 5.553999997 -5.581947368 16.639000000
v 5.592999997 -4.477947367 16.639000000
v -1.624000003 -4.521947368 16.639000000
v -1.652000003 -0.340947368 16.639000000
v -1.681000003 3.969052632 16.639000000
v 10.800999997 4.138052632 16.639000000
v 13.228999997 7.162052632 16.639000000
v 23.871999997 7.135052633 16.639000000
v 23.871999997 5.288052632 16.639000000
v 23.871999997 7.135052633 21.503000000
v 13.228999997 7.162052632 21.489000000
v 5.469999997 -7.920947367 22.593000000
v 10.464999997 -8.116947368 22.532000000
v 5.553999997 -5.581947368 23.421000000
v -1.681000003 3.969052632 22.575000000
v -1.652000003 -0.340947368 24.048000000
v 15.635999997 1.769052632 23.333000000
v 15.635999997 1.769052632 20.982000000
v 15.616999997 5.307052632 22.124000000
v 23.871999997 3.437052633 21.536000000
v 23.871999997 5.288052632 22.134000000
v 15.646999997 -0.221947367 24.014000000
v 15.645999997 -0.036947368 23.951000000
v 15.762999997 2.080052632 23.227000000
v 15.762999997 2.080052632 21.082000000
v 10.540999997 -5.579947367 23.430000000
v 10.574999997 -4.446947368 22.605000000
v 15.401999997 -4.417947368 22.594000000
v 10.800999997 4.138052632 22.522000000
v 5.592999997 -4.477947367 22.616000000
v -1.624000003 -4.521947368 22.633000000
v 16.486999997 3.844052632 21.653000000
f 21 22 23
f 21 23 24
f 21 24 25
f 26 24 23
f 26 23 27
f 28 25 24
f 28 24 26
f 29 21 25
f 29 25 28
f 27 23 22
f 27 22 30
f 30 22 21
f 30 21 29
f 30 29 28
f 30 28 26
f 30 26 27
f 1 2 3
f 1 3 4
f 1 4 5
f 1 5 6
f 1 6 7
f 1 7 8
f 1 8 9
f 1 9 10
f 11 9 8
f 11 8 12
f 12 8 7
f 12 7 13
f 13 7 6
f 13 6 14
f 15 4 3
f 15 3 16
f 17 5 4
f 17 4 15
f 14 6 5
f 14 5 17
f 16 3 2
f 16 2 18
f 18 2 1
f 18 1 19
f 20 10 9
f 20 9 11
f 19 1 10
f 19 10 20
f 18 19 15
f 18 15 16
f 19 20 11
f 19 11 12
f 19 12 13
f 19 13 14
f 19 14 17
f 19 17 15
f 43 44 45
f 43 45 46
f 43 46 47
f 43 47 48
f 43 48 49
f 43 49 50
f 43 50 51
f 43 51 52
f 43 52 53
f 43 53 54
f 43 54 55
f 43 55 56
f 43 56 57
f 43 57 58
f 43 58 59
f 43 59 60
f 43 60 61
f 62 60 59
f 62 59 63
f 64 52 51
f 64 51 65
f 66 53 52
f 66 52 64
f 67 57 56
f 67 56 68
f 69 70 71
f 72 43 61
f 72 61 73
f 73 61 60
f 73 60 62
f 74 47 46
f 74 46 75
f 76 77 70
f 76 70 69
f 78 50 49
f 78 49 79
f 79 49 48
f 79 48 80
f 81 58 57
f 81 57 67
f 82 54 53
f 82 53 66
f 83 55 54
f 83 54 82
f 65 51 50
f 65 50 78
f 63 59 58
f 63 58 81
f 80 48 47
f 80 47 74
f 68 56 55
f 68 55 83
f 75 46 45
f 75 45 77
f 75 77 76
f 77 45 44
f 77 44 84
f 84 44 43
f 84 43 72
f 66 78 79
f 66 79 82
f 65 78 66
f 65 66 64
f 74 68 83
f 74 83 82
f 74 82 79
f 74 79 80
f 75 76 69
f 75 69 71
f 75 71 73
f 75 73 62
f 75 62 63
f 75 63 81
f 75 81 67
f 75 67 68
f 75 68 74
f 84 72 73
f 84 73 71
f 84 71 70
f 84 70 77
f 31 32 33
f 31 33 34
f 31 34 35
f 31 35 36
f 37 32 31
f 37 31 38
f 39 35 34
f 39 34 40
f 38 31 36
f 38 36 41
f 40 34 33
f 40 33 42
f 42 33 32
f 42 32 37
f 41 36 35
f 41 35 39
f 42 37 38
f 42 38 40
f 41 39 40
f 41 40 38
