v 15.882840006 -14.598852154 80.529000000
v 16.119840006 -14.536852154 80.529000000
v 16.298840006 -14.368852154 80.529000000
v 16.343840006 -14.280852154 80.529000000
v 16.370840006 -14.184852154 80.529000000
v 16.378840006 -14.086852154 80.529000000
v -3.072159994 -14.751852154 80.529000000
v -3.160159994 -12.518852154 80.529000000
v -3.495159994 -3.992852154 80.529000000
v -3.544159994 -3.965852154 80.529000000
v -5.059159994 -3.120852155 80.529000000
v -5.182159994 -3.175852154 80.529000000
v -7.055159994 -4.009852154 80.529000000
v -10.350159994 -0.640852154 80.529000000
v -10.633159994 -0.351852154 80.529000000
v -10.940159994 -0.413852154 80.529000000
v -10.767159994 -0.213852154 80.529000000
v -10.890159994 -0.088852154 80.529000000
v -10.728159994 -0.167852154 80.529000000
v -7.538159994 3.531147846 80.529000000
v -7.477159994 3.534147846 80.529000000
v 6.215840006 4.117147846 80.529000000
v 6.219840006 3.387147846 80.529000000
v 7.019840006 4.151147846 80.529000000
v 7.185840006 4.158147845 80.529000000
v 6.541840006 3.465147845 80.529000000
v 6.398840006 -5.343852154 80.529000000
v 11.909840006 -4.050852154 80.529000000
v 13.119840006 -5.009852154 80.529000000
v 13.867840006 -4.187852154 80.529000000
v 13.883840006 -5.367852154 80.529000000
v 16.159840006 -5.287852154 80.529000000
v 16.273840006 -9.901852154 80.529000000
v 13.956840006 -10.578852154 80.529000000
v 13.974840006 -11.884852154 80.529000000
v 13.979840006 -12.268852154 80.529000000
v 16.342840006 -12.659852155 80.529000000
v 16.378840006 -14.086852154 83.555000000
v 16.342840006 -12.659852155 84.207000000
v 15.882840006 -14.598852154 83.328000000
v 16.119840006 -14.536852154 83.353000000
v 16.370840006 -14.184852154 83.510000000
v 16.298840006 -14.368852154 83.427000000
v 16.343840006 -14.280852154 83.467000000
v 6.398840006 -5.343852154 84.992000000
v 6.541840006 3.465147845 84.821000000
v -7.055159994 -4.009852154 84.620000000
v -5.182159994 -3.175852154 84.602000000
v -5.182159994 -3.175852154 85.504000000
v -10.767159994 -0.213852154 84.660000000
v -10.940159994 -0.413852154 84.665000000
v -10.890159994 -0.088852154 84.581000000
v -10.633159994 -0.351852154 84.748000000
v -10.350159994 -0.640852154 84.685000000
v -10.350159994 -0.640852154 84.931000000
v -2.217159994 -1.854852154 85.102000000
v -2.217159994 -1.854852154 84.980000000
v -2.575159994 -2.014852154 84.934000000
v -2.793159994 -2.111852154 84.906000000
v -2.793159994 -2.111852154 84.832000000
v -3.544159994 -3.965852154 84.193000000
v -3.544159994 -3.965852154 84.461000000
v -2.956159994 -2.513852154 84.752000000
v -1.693159994 -0.994852155 85.355000000
v -1.693159994 -0.994852155 85.304000000
v -1.693159994 -0.994852155 85.302000000
v 7.019840006 4.151147846 84.592000000
v 6.219840006 3.387147846 84.853000000
v 6.219840006 3.387147846 84.971000000
v 13.883840006 -5.367852154 84.542000000
v 13.883840006 -5.367852154 84.303000000
v 13.867840006 -4.187852154 84.533000000
v -10.728159994 -0.167852154 84.659000000
v -6.057159994 0.398147846 86.104000000
v -6.057159994 0.398147846 86.039000000
v -6.163159994 0.251147846 86.049000000
v 11.909840006 -4.050852154 84.461000000
v -7.538159994 3.531147846 84.577000000
v -3.376159994 0.422147846 85.969000000
v -3.376159994 0.422147846 86.065000000
v -4.979159994 0.408147845 86.049000000
v -5.319159994 -2.975852154 85.527000000
v -5.319159994 -2.975852154 84.691000000
v -7.325159994 -1.856852154 85.254000000
v -5.059159994 -3.120852155 84.618000000
v -3.376159994 0.422147846 86.097000000
v -2.969159994 -0.538852154 85.556000000
v -2.969159994 -0.538852154 85.569000000
v -0.815159994 0.449147846 85.779000000
v -0.815159994 0.449147846 86.079000000
v -1.566159994 -0.785852154 85.416000000
v -1.403159994 0.443147846 86.083000000
v -0.815159994 0.449147846 86.088000000
v 1.880840006 -0.320852154 86.475000000
v 1.880840006 -0.320852154 87.019000000
v 1.911840006 -1.518852154 87.019000000
v 0.631840006 0.464147846 86.450000000
v 0.631840006 0.464147846 86.101000000
v -0.135159994 0.456147846 86.094000000
v -3.072159994 -14.751852154 83.514000000
v 13.956840006 -10.578852154 84.390000000
v 16.273840006 -9.901852154 84.164000000
v 13.974840006 -11.884852154 84.593000000
v 13.956840006 -10.578852154 84.583000000
v 16.159840006 -5.287852154 84.092000000
v -3.495159994 -3.992852154 84.484000000
v -3.160159994 -12.518852154 84.535000000
v 13.119840006 -5.009852154 84.886000000
v 13.979840006 -12.268852154 84.418000000
v 6.215840006 4.117147846 84.521000000
v -7.477159994 3.534147846 84.596000000
v 7.185840006 4.158147845 84.516000000
v 6.220840006 3.120147846 84.974000000
v 1.348840006 0.177147846 86.779000000
v 1.348840006 0.177147846 86.242000000
v -8.672159994 -0.232852154 85.364000000
v 3.612840006 -8.420852154 86.316000000
v 10.148840006 -8.278852155 86.292000000
v 2.052840006 -6.928852154 87.018000000
v -7.011159994 -0.206852154 85.909000000
f 2 1 7
f 2 7 8
f 2 8 9
f 2 9 10
f 2 10 11
f 2 11 12
f 2 12 13
f 2 13 14
f 2 14 15
f 2 15 16
f 2 16 17
f 2 17 18
f 2 18 19
f 2 19 20
f 2 20 21
f 2 21 22
f 2 22 23
f 2 23 24
f 2 24 25
f 2 25 26
f 2 26 27
f 2 27 28
f 2 28 29
f 2 29 30
f 2 30 31
f 2 31 32
f 2 32 33
f 2 33 34
f 2 34 35
f 2 35 36
f 2 36 37
f 2 37 6
f 2 6 5
f 2 5 4
f 2 4 3
f 38 6 37
f 38 37 39
f 40 1 2
f 40 2 41
f 42 5 6
f 42 6 38
f 43 3 4
f 43 4 44
f 44 4 5
f 44 5 42
f 41 2 3
f 41 3 43
f 45 27 26
f 45 26 46
f 47 13 12
f 47 12 48
f 47 48 49
f 50 17 16
f 50 16 51
f 52 18 17
f 52 17 50
f 53 15 14
f 53 14 54
f 53 54 55
f 51 16 15
f 51 15 53
f 56 57 58
f 59 60 58
f 60 59 63
f 64 65 66
f 64 66 57
f 64 57 56
f 67 24 23
f 67 23 68
f 67 68 69
f 70 71 31
f 70 31 30
f 70 30 72
f 73 19 18
f 73 18 52
f 74 75 76
f 77 28 27
f 77 27 45
f 78 20 19
f 78 19 73
f 75 74 81
f 54 14 13
f 54 13 47
f 82 83 84
f 85 11 10
f 85 10 61
f 48 12 11
f 48 11 85
f 49 48 83
f 49 83 82
f 86 80 79
f 86 79 87
f 86 87 88
f 88 87 66
f 88 66 65
f 65 64 91
f 94 95 96
f 97 98 99
f 93 90 89
f 100 7 1
f 100 1 40
f 101 34 33
f 101 33 102
f 103 35 34
f 103 34 101
f 103 101 104
f 105 32 31
f 105 31 71
f 102 33 32
f 102 32 105
f 62 61 10
f 62 10 9
f 62 9 106
f 106 9 8
f 106 8 107
f 108 29 28
f 108 28 77
f 109 36 35
f 109 35 103
f 39 37 36
f 39 36 109
f 107 8 7
f 107 7 100
f 68 23 22
f 68 22 110
f 111 21 20
f 111 20 78
f 110 22 21
f 110 21 111
f 46 26 25
f 46 25 112
f 112 25 24
f 112 24 67
f 104 101 71
f 104 71 70
f 69 68 113
f 114 115 98
f 114 98 97
f 95 94 115
f 95 115 114
f 72 30 29
f 72 29 108
f 55 54 116
f 90 92 86
f 90 86 88
f 90 88 65
f 90 65 91
f 45 117 118
f 45 118 108
f 45 108 77
f 107 100 40
f 107 40 41
f 107 41 43
f 107 43 44
f 107 44 42
f 107 42 38
f 107 38 39
f 107 39 109
f 107 109 103
f 107 103 118
f 107 118 117
f 107 117 119
f 120 116 54
f 120 54 47
f 120 47 49
f 120 49 82
f 120 82 84
f 115 94 96
f 115 96 113
f 115 113 68
f 115 68 110
f 115 110 111
f 115 111 75
f 115 75 81
f 115 81 80
f 115 80 92
f 115 92 93
f 115 93 99
f 115 99 98
f 71 101 102
f 71 102 105
f 69 113 96
f 69 96 119
f 69 119 117
f 69 117 45
f 69 45 46
f 69 46 112
f 69 112 67
f 95 114 97
f 95 97 99
f 95 99 89
f 95 89 91
f 95 91 64
f 95 64 56
f 95 56 58
f 95 58 60
f 95 60 63
f 95 63 62
f 95 62 106
f 95 106 107
f 95 107 119
f 95 119 96
f 72 108 118
f 72 118 103
f 72 103 104
f 72 104 70
f 120 84 83
f 120 83 48
f 120 48 85
f 120 85 61
f 120 61 63
f 120 63 59
f 120 59 58
f 120 58 57
f 120 57 66
f 120 66 87
f 120 87 79
f 120 79 81
f 120 81 74
f 120 74 76
f 116 120 76
f 116 76 75
f 116 75 111
f 116 111 78
f 116 78 73
f 116 73 52
f 116 52 50
f 116 50 51
f 116 51 53
f 116 53 55
