v 0.672398362 16.625631415 36.619000000
v 7.401398362 17.678631416 36.619000000
v 8.692398362 9.849631416 36.619000000
v 2.121398362 8.011631415 36.619000000
v 2.121398362 8.011631415 39.611000000
v 8.692398362 9.849631416 39.572000000
v 0.672398362 16.625631415 39.613000000
v 7.401398362 17.678631416 39.573000000
v -6.237601638 -15.727368585 36.619000000
v -5.127601638 -15.421368585 36.619000000
v -5.964601638 -15.072368585 36.619000000
v -3.873601638 -10.059368584 36.619000000
v -5.544601638 -10.296368585 36.619000000
v -5.312601638 -9.964368585 36.619000000
v -7.612601638 -0.621368584 36.619000000
v -7.758601638 -0.030368584 36.619000000
v -13.896601638 -1.344368584 36.619000000
v -13.961601638 -1.358368585 36.619000000
v -14.721601638 5.962631416 36.619000000
v -14.804601638 6.018631415 36.619000000
v -8.332601638 7.153631415 36.619000000
v -8.930601638 11.362631415 36.619000000
v 0.376398362 13.465631415 36.619000000
v 0.453398362 13.020631416 36.619000000
v 4.219398362 -8.642368585 36.619000000
v 4.265398362 -8.905368584 36.619000000
v -0.393601638 -9.566368585 36.619000000
v 2.409398362 -14.716368585 36.619000000
v -6.433601638 -16.199368585 36.619000000
v -14.721601638 5.962631416 40.069000000
v -13.961601638 -1.358368585 39.853000000
v -13.896601638 -1.344368584 39.883000000
v -7.758601638 -0.030368584 40.053000000
v -6.237601638 -15.727368585 38.616000000
v -6.433601638 -16.199368585 38.593000000
v -8.332601638 7.153631415 40.024000000
v -8.332601638 7.153631415 40.024000000
v -4.891601638 4.703631415 41.445000000
v -7.612601638 -0.621368584 39.757000000
v -5.312601638 -9.964368585 40.108000000
v -5.544601638 -10.296368585 39.974000000
v -5.172601638 3.941631416 41.254000000
v -5.172601638 3.941631416 41.778000000
v -4.073601638 4.121631416 41.782000000
v 0.376398362 13.465631415 39.794000000
v -8.930601638 11.362631415 40.066000000
v -8.930601638 11.362631415 40.071000000
v -3.456601638 7.371631416 42.323000000
v -14.804601638 6.018631415 40.036000000
v 4.219398362 -8.642368585 39.943000000
v 0.453398362 13.020631416 40.006000000
v 2.409398362 -14.716368585 39.228000000
v -3.873601638 -10.059368584 38.886000000
v -3.873601638 -10.059368584 39.947000000
v -5.964601638 -15.072368585 38.647000000
v -0.393601638 -9.566368585 39.134000000
v -0.393601638 -9.566368585 39.892000000
v 4.265398362 -8.905368584 39.819000000
v -5.127601638 -15.421368585 38.698000000
v -10.446601638 3.076631416 41.759000000
v -1.480601638 -4.472368585 42.329000000
f 9 10 11
f 9 11 12
f 9 12 13
f 9 13 14
f 9 14 15
f 9 15 16
f 9 16 17
f 9 17 18
f 9 18 19
f 9 19 20
f 9 20 21
f 9 21 22
f 9 22 23
f 9 23 24
f 9 24 25
f 9 25 26
f 9 26 27
f 9 27 28
f 9 28 29
f 30 19 18
f 30 18 31
f 31 18 17
f 31 17 32
f 32 17 16
f 32 16 33
f 34 9 29
f 34 29 35
f 36 37 38
f 33 16 15
f 33 15 39
f 40 14 13
f 40 13 41
f 42 43 44
f 45 23 22
f 45 22 46
f 47 46 22
f 37 36 21
f 37 21 20
f 37 20 49
f 50 25 24
f 50 24 51
f 39 15 14
f 39 14 40
f 35 29 28
f 35 28 52
f 41 13 12
f 41 12 53
f 41 53 54
f 53 12 11
f 53 11 55
f 51 24 23
f 51 23 45
f 52 28 27
f 52 27 56
f 57 56 27
f 57 27 26
f 57 26 58
f 54 53 56
f 54 56 57
f 43 42 38
f 58 26 25
f 58 25 50
f 49 20 19
f 49 19 30
f 55 11 10
f 55 10 59
f 59 10 9
f 59 9 34
f 44 43 60
f 44 60 32
f 44 32 33
f 44 33 39
f 48 51 45
f 48 45 46
f 48 61 50
f 48 50 51
f 38 42 44
f 38 44 39
f 38 39 40
f 38 40 61
f 38 61 48
f 38 48 47
f 38 47 36
f 58 50 61
f 58 61 40
f 58 40 41
f 58 41 54
f 58 54 57
f 30 60 43
f 30 43 38
f 30 38 37
f 30 37 49
f 60 30 31
f 60 31 32
f 59 34 35
f 59 35 52
f 59 52 56
f 59 56 53
f 59 53 55
f 1 2 3
f 1 3 4
f 5 4 3
f 5 3 6
f 7 1 4
f 7 4 5
f 6 3 2
f 6 2 8
f 8 2 1
f 8 1 7
f 8 7 5
f 8 5 6
