v -1.239441533 10.842342682 72.269000000
v 16.642558467 3.686342682 72.269000000
v 21.422558467 1.773342682 72.269000000
v 19.510558467 -2.810657318 72.269000000
v 19.353558467 -3.186657318 72.269000000
v 22.085558467 -4.944657318 72.269000000
v 21.176558467 -6.433657318 72.269000000
v 20.098558467 -8.198657318 72.269000000
v 12.102558467 -4.758657318 72.269000000
v 12.306558467 -3.647657318 72.269000000
v 10.186558467 -2.853657318 72.269000000
v 8.427558467 -7.160657318 72.269000000
v 3.147558467 -4.238657318 72.269000000
v 4.250558467 -1.698657318 72.269000000
v -6.526441533 2.661342682 72.269000000
v -4.773441533 4.816342682 72.269000000
v -4.728441533 5.055342682 72.269000000
v -4.348441533 7.082342682 72.269000000
v -3.517441533 6.757342682 72.269000000
v 19.300558467 -5.352657318 75.726000000
v 19.300558467 -5.352657318 76.003000000
v 19.558558467 -5.774657318 75.865000000
v 10.186558467 -2.853657318 75.493000000
v 12.306558467 -3.647657318 75.520000000
v 12.102558467 -4.758657318 75.002000000
v 11.986558467 1.554342682 77.721000000
v 11.986558467 1.554342682 77.482000000
v 11.889558467 1.316342682 77.602000000
v 11.188558467 -0.400657318 78.468000000
v 11.188558467 -0.400657318 76.734000000
v 16.642558467 3.686342682 75.761000000
v 16.642558467 3.686342682 74.843000000
v -1.239441533 10.842342682 75.704000000
v 19.353558467 -3.186657318 76.952000000
v 19.353558467 -3.186657318 74.768000000
v 19.510558467 -2.810657318 77.143000000
v 20.098558467 -8.198657318 74.908000000
v 21.176558467 -6.433657318 75.862000000
v 5.822558467 1.710342682 77.260000000
v 5.822558467 1.710342682 78.466000000
v 5.802558467 3.109342682 77.862000000
v 5.743558467 1.741342682 77.260000000
v 5.743558467 1.741342682 78.466000000
v 18.675558467 -4.812657318 75.602000000
v 18.675558467 -4.812657318 76.128000000
v -3.272441533 6.661342682 77.868000000
v -3.272441533 6.661342682 76.006000000
v -4.220441533 5.495342682 76.661000000
v -4.220441533 5.495342682 77.203000000
v 4.999558467 0.026342682 77.592000000
v 4.999558467 0.026342682 76.391000000
v 4.250558467 -1.698657318 75.518000000
v 4.250558467 -1.698657318 76.714000000
v 18.893558467 -4.291657318 75.335000000
v 18.893558467 -4.291657318 76.392000000
v 3.147558467 -4.238657318 75.420000000
v 8.427558467 -7.160657318 75.054000000
v -6.526441533 2.661342682 75.586000000
v -4.506441533 4.982342682 76.933000000
v -3.517441533 6.757342682 77.868000000
v -3.517441533 6.757342682 75.992000000
v 19.124558467 -3.736657318 76.673000000
v 19.124558467 -3.736657318 75.050000000
v 19.265558467 -3.857657318 75.078000000
v 19.265558467 -3.857657318 76.645000000
v 10.186558467 -2.853657318 77.229000000
v 13.108558467 0.831342682 77.604000000
v 15.034558467 0.065342682 77.608000000
v 15.034558467 0.065342682 76.690000000
v 5.681558467 1.598342682 78.393000000
v 5.681558467 1.598342682 77.187000000
v 5.445558467 1.635342682 77.163000000
v 5.445558467 1.635342682 78.369000000
v 22.085558467 -4.944657318 75.046000000
v 21.422558467 1.773342682 74.826000000
v 14.871558467 -0.302657318 76.878000000
v 14.871558467 -0.302657318 77.420000000
v 17.504558467 -1.997657318 77.145000000
v -4.728441533 5.055342682 76.927000000
v -4.773441533 4.816342682 76.815000000
v -4.348441533 7.082342682 75.946000000
f 1 2 3
f 1 3 4
f 1 4 5
f 1 5 6
f 1 6 7
f 1 7 8
f 1 8 9
f 1 9 10
f 1 10 11
f 1 11 12
f 1 12 13
f 1 13 14
f 1 14 15
f 1 15 16
f 1 16 17
f 1 17 18
f 1 18 19
f 20 21 22
f 23 11 10
f 23 10 24
f 24 10 9
f 24 9 25
f 26 27 28
f 29 30 28
f 31 32 2
f 31 2 1
f 31 1 33
f 34 35 5
f 34 5 4
f 34 4 36
f 37 8 7
f 37 7 38
f 39 40 41
f 40 39 42
f 40 42 43
f 21 20 44
f 21 44 45
f 46 47 48
f 46 48 49
f 50 51 52
f 50 52 53
f 45 44 54
f 45 54 55
f 56 13 12
f 56 12 57
f 58 15 14
f 58 14 52
f 53 52 14
f 53 14 13
f 53 13 56
f 49 48 59
f 60 61 47
f 60 47 46
f 62 63 35
f 62 35 34
f 55 54 64
f 55 64 65
f 65 64 63
f 65 63 62
f 25 9 8
f 25 8 37
f 66 23 30
f 66 30 29
f 57 12 11
f 57 11 23
f 57 23 66
f 27 26 67
f 68 69 32
f 68 32 31
f 70 71 72
f 70 72 73
f 73 72 51
f 73 51 50
f 43 42 71
f 43 71 70
f 38 7 6
f 38 6 74
f 74 6 5
f 74 5 35
f 36 4 3
f 36 3 75
f 76 77 78
f 77 76 69
f 77 69 68
f 75 3 2
f 75 2 32
f 79 17 16
f 79 16 80
f 80 16 15
f 80 15 58
f 61 19 18
f 61 18 81
f 33 1 19
f 33 19 61
f 33 61 60
f 81 18 17
f 81 17 79
f 43 70 73
f 43 73 50
f 43 50 53
f 43 53 56
f 43 56 57
f 43 57 66
f 43 66 29
f 43 29 40
f 74 35 63
f 74 63 64
f 74 64 54
f 74 54 44
f 74 44 20
f 74 20 22
f 74 22 38
f 77 68 67
f 77 67 26
f 77 26 28
f 77 28 30
f 77 30 23
f 77 23 24
f 77 24 25
f 77 25 37
f 77 37 38
f 77 38 22
f 77 22 21
f 77 21 45
f 77 45 55
f 77 55 65
f 77 65 62
f 77 62 34
f 77 34 36
f 77 36 78
f 75 32 69
f 75 69 76
f 75 76 78
f 75 78 36
f 80 58 52
f 80 52 51
f 80 51 72
f 80 72 71
f 80 71 42
f 80 42 39
f 80 39 41
f 80 41 46
f 80 46 49
f 80 49 59
f 80 59 79
f 33 60 46
f 33 46 41
f 33 41 40
f 33 40 29
f 33 29 28
f 33 28 27
f 33 27 67
f 33 67 68
f 33 68 31
f 81 79 59
f 81 59 48
f 81 48 47
f 81 47 61
