v -14.872522088 6.419873600 24.950000000
v -15.085522088 6.302873599 24.950000000
v -15.217522088 6.098873599 24.950000000
v -15.244522088 5.953873600 24.950000000
v -15.237522088 5.855873600 24.950000000
v -6.450522088 7.795873600 24.950000000
v -5.906522088 4.554873600 24.950000000
v 16.684477912 8.157873600 24.950000000
v 16.746477912 7.620873599 24.950000000
v 17.803477912 -1.524126400 24.950000000
v 17.521477912 -1.318126400 24.950000000
v 16.412477912 -3.748126401 24.950000000
v 15.373477912 -2.951126400 24.950000000
v 15.560477912 -4.143126400 24.950000000
v 14.717477912 -4.273126400 24.950000000
v 8.351477912 -5.257126400 24.950000000
v 8.034477912 -5.305126401 24.950000000
v 9.030477912 -3.181126400 24.950000000
v 8.012477912 -3.337126400 24.950000000
v -7.342522088 -5.695126400 24.950000000
v -7.939522088 -5.787126401 24.950000000
v -8.847522088 3.059873600 24.950000000
v -8.951522088 4.069873599 24.950000000
v -14.795522088 3.136873600 24.950000000
v -6.450522088 7.795873600 27.254000000
v -14.872522088 6.419873600 27.253000000
v -15.085522088 6.302873599 27.254000000
v -15.217522088 6.098873599 27.256000000
v -15.244522088 5.953873600 27.258000000
v -15.237522088 5.855873600 27.259000000
v -14.795522088 3.136873600 27.293000000
v 8.034477912 -5.305126401 27.557000000
v 8.351477912 -5.257126400 27.708000000
v 9.030477912 -3.181126400 28.173000000
v 8.012477912 -3.337126400 27.688000000
v 14.717477912 -4.273126400 27.717000000
v 15.560477912 -4.143126400 27.296000000
v 15.373477912 -2.951126400 27.289000000
v -7.342522088 -5.695126400 27.820000000
v 16.746477912 7.620873599 27.547000000
v 16.684477912 8.157873600 27.298000000
v -8.951522088 4.069873599 27.294000000
v -8.847522088 3.059873600 27.763000000
v -7.939522088 -5.787126401 27.542000000
v 10.777477912 0.545873600 29.241000000
v 10.777477912 0.545873600 29.254000000
v 11.088477912 -1.463126400 29.254000000
v 16.412477912 -3.748126401 26.848000000
v 17.521477912 -1.318126400 27.858000000
v 17.803477912 -1.524126400 27.743000000
v 10.777477912 0.545873600 29.225000000
v 10.756477912 0.591873599 29.247000000
v -5.906522088 4.554873600 27.295000000
v 12.815477912 2.118873600 29.776000000
v -3.742522088 -0.633126400 29.824000000
f 6 7 8
f 6 8 9
f 6 9 10
f 6 10 11
f 6 11 12
f 6 12 13
f 6 13 14
f 6 14 15
f 6 15 16
f 6 16 17
f 6 17 18
f 6 18 19
f 6 19 20
f 6 20 21
f 6 21 22
f 6 22 23
f 6 23 24
f 6 24 5
f 6 5 4
f 6 4 3
f 6 3 2
f 6 2 1
f 25 6 1
f 25 1 26
f 27 2 3
f 27 3 28
f 28 3 4
f 28 4 29
f 29 4 5
f 29 5 30
f 30 5 24
f 30 24 31
f 32 17 16
f 32 16 33
f 34 18 17
f 34 17 32
f 35 19 18
f 35 18 34
f 36 15 14
f 36 14 37
f 37 14 13
f 37 13 38
f 39 20 19
f 39 19 35
f 33 16 15
f 33 15 36
f 40 9 8
f 40 8 41
f 42 23 22
f 42 22 43
f 31 24 23
f 31 23 42
f 43 22 21
f 43 21 44
f 38 13 12
f 38 12 48
f 48 12 11
f 48 11 49
f 26 1 2
f 26 2 27
f 49 11 10
f 49 10 50
f 46 45 51
f 46 51 52
f 50 10 9
f 50 9 40
f 44 21 20
f 44 20 39
f 41 8 7
f 41 7 53
f 53 7 6
f 53 6 25
f 47 33 36
f 51 38 48
f 51 48 49
f 51 49 54
f 51 54 55
f 51 55 39
f 51 39 35
f 51 35 52
f 46 52 35
f 46 35 34
f 46 34 32
f 46 32 33
f 46 33 47
f 38 45 47
f 38 47 36
f 38 36 37
f 50 40 54
f 50 54 49
f 43 55 54
f 43 54 40
f 43 40 41
f 43 41 53
f 43 53 42
f 53 25 26
f 53 26 27
f 53 27 28
f 53 28 29
f 53 29 30
f 53 30 31
f 53 31 42
f 55 43 44
f 55 44 39
