v 9.791417522 0.089141501 3.170000000
v 7.198417522 1.895141501 3.170000000
v 2.075417522 -7.305858498 3.170000000
v -1.917582477 -6.369858499 3.170000000
v -1.666582478 -5.890858498 3.170000000
v -4.854582477 -4.477858499 3.170000000
v -2.625582478 1.480141501 3.170000000
v -8.029582478 3.923141501 3.170000000
v -6.382582478 7.256141501 3.170000000
v -2.185582477 7.669141501 3.170000000
v 0.966417523 13.525141501 3.170000000
v 4.982417522 11.578141501 3.170000000
v 8.423417522 9.910141502 3.170000000
v 6.343417522 6.161141501 3.170000000
v 8.603417523 4.418141501 3.170000000
v 10.844417523 8.441141501 3.170000000
v 13.772417523 6.792141501 3.170000000
v -1.917582477 -6.369858499 7.330000000
v 2.075417522 -7.305858498 6.344000000
v -1.666582478 -5.890858498 7.332000000
v -2.625582478 1.480141501 7.022000000
v -2.625582478 1.480141501 6.345000000
v -0.844582477 0.676141501 6.808000000
v -0.844582477 0.676141501 7.442000000
v 8.423417522 9.910141502 6.483000000
v 4.982417522 11.578141501 7.453000000
v 0.966417523 13.525141501 6.493000000
v 5.117417522 7.107141501 7.389000000
v 5.117417522 7.107141501 6.884000000
v 4.291417522 7.743141501 7.146000000
v -4.854582477 -4.477858499 6.505000000
v -8.029582478 3.923141501 5.747000000
v -2.185582477 7.669141501 6.482000000
v -6.382582478 7.256141501 5.725000000
v 0.333417522 0.143141502 7.114000000
v 6.343417522 6.161141501 6.496000000
v 13.772417523 6.792141501 5.988000000
v 10.844417523 8.441141501 5.982000000
v 9.791417522 0.089141501 5.916000000
v 6.343417522 6.161141501 7.008000000
v 8.603417523 4.418141501 6.305000000
v 8.603417523 4.418141501 5.940000000
v 7.198417522 1.895141501 6.314000000
v 7.198417522 1.895141501 5.914000000
f 1 2 3
f 1 3 4
f 1 4 5
f 1 5 6
f 1 6 7
f 1 7 8
f 1 8 9
f 1 9 10
f 1 10 11
f 1 11 12
f 1 12 13
f 1 13 14
f 1 14 15
f 1 15 16
f 1 16 17
f 18 4 3
f 18 3 19
f 20 5 4
f 20 4 18
f 21 22 23
f 21 23 24
f 25 13 12
f 25 12 26
f 26 12 11
f 26 11 27
f 28 29 30
f 31 6 5
f 31 5 20
f 22 7 6
f 22 6 31
f 32 8 7
f 32 7 22
f 32 22 21
f 33 10 9
f 33 9 34
f 27 11 10
f 27 10 33
f 24 23 35
f 36 14 13
f 36 13 25
f 37 17 16
f 37 16 38
f 39 1 17
f 39 17 37
f 40 36 29
f 40 29 28
f 41 42 15
f 41 15 14
f 41 14 36
f 41 36 40
f 43 44 42
f 43 42 41
f 38 16 15
f 38 15 42
f 44 2 1
f 44 1 39
f 19 3 2
f 19 2 44
f 19 44 43
f 34 9 8
f 34 8 32
f 29 36 25
f 29 25 26
f 29 26 24
f 29 24 35
f 29 35 30
f 44 39 37
f 44 37 38
f 44 38 42
f 20 28 30
f 20 30 35
f 20 35 23
f 20 23 22
f 20 22 31
f 34 32 21
f 34 21 24
f 34 24 26
f 34 26 27
f 34 27 33
f 28 20 18
f 28 18 19
f 28 19 43
f 28 43 41
f 28 41 40
