v -5.010204653 -1.448390330 11.369000000
v -2.127204653 -0.857390330 11.369000000
v -1.034204653 -0.633390330 11.369000000
v -1.062204653 -0.480390330 11.369000000
v 3.490795347 0.059609670 11.369000000
v 3.681795347 -1.412390330 11.369000000
v 3.956795347 -3.540390330 11.369000000
v 12.758795347 -1.993390330 11.369000000
v 13.718795347 -5.963390330 11.369000000
v 4.485795347 -7.633390330 11.369000000
v 4.542795347 -8.071390330 11.369000000
v 1.861795347 -8.076390330 11.369000000
v 0.349795347 -8.395390330 11.369000000
v 1.007795347 -12.081390331 11.369000000
v -2.516204653 -12.921390330 11.369000000
v -3.331204653 -9.170390330 11.369000000
v 4.542795347 -8.071390330 15.325000000
v 4.485795347 -7.633390330 15.304000000
v 13.718795347 -5.963390330 15.286000000
v 12.758795347 -1.993390330 15.091000000
v 3.681795347 -1.412390330 17.713000000
v 3.681795347 -1.412390330 15.003000000
v 0.650795347 -1.988390330 17.700000000
v 3.490795347 0.059609670 14.932000000
v 1.861795347 -8.076390330 17.630000000
v 4.137795347 -4.939390331 17.732000000
v 4.137795347 -4.939390331 15.174000000
v 3.956795347 -3.540390330 15.106000000
v 3.956795347 -3.540390330 17.725000000
v 1.254795347 -5.359390331 17.719000000
v 0.349795347 -8.395390330 18.981000000
v 0.349795347 -8.395390330 15.021000000
v 1.007795347 -12.081390331 14.891000000
v -1.062204653 -0.480390330 18.932000000
v -1.034204653 -0.633390330 18.933000000
v -2.127204653 -0.857390330 17.895000000
v -0.789204653 -8.635390330 17.898000000
v -0.789204653 -8.635390330 15.017000000
v -5.010204653 -1.448390330 17.779000000
v -3.331204653 -9.170390330 15.008000000
v -3.331204653 -9.170390330 17.795000000
v -2.516204653 -12.921390330 14.875000000
f 1 2 3
f 1 3 4
f 1 4 5
f 1 5 6
f 1 6 7
f 1 7 8
f 1 8 9
f 1 9 10
f 1 10 11
f 1 11 12
f 1 12 13
f 1 13 14
f 1 14 15
f 1 15 16
f 17 11 10
f 17 10 18
f 18 10 9
f 18 9 19
f 19 9 8
f 19 8 20
f 21 22 23
f 22 6 5
f 22 5 24
f 25 12 11
f 25 11 17
f 26 27 28
f 26 28 29
f 27 26 30
f 31 32 13
f 31 13 12
f 31 12 25
f 33 14 13
f 33 13 32
f 29 28 7
f 29 7 6
f 29 6 22
f 29 22 21
f 20 8 7
f 20 7 28
f 24 5 4
f 24 4 34
f 35 3 2
f 35 2 36
f 34 4 3
f 34 3 35
f 37 38 32
f 37 32 31
f 39 1 16
f 39 16 40
f 39 40 41
f 40 16 15
f 40 15 42
f 41 40 38
f 41 38 37
f 42 15 14
f 42 14 33
f 36 2 1
f 36 1 39
f 20 28 27
f 20 27 18
f 20 18 19
f 42 33 32
f 42 32 38
f 42 38 40
f 23 30 26
f 23 26 29
f 23 29 21
f 31 35 36
f 31 36 37
f 37 36 39
f 37 39 41
f 35 31 25
f 35 25 17
f 35 17 18
f 35 18 27
f 35 27 30
f 35 30 23
f 35 23 22
f 35 22 24
f 35 24 34
