v -7.177607331 2.905483177 56.970000000
v -6.805607331 5.516483176 56.970000000
v -6.895607331 5.600483176 56.970000000
v -10.028607331 8.500483177 56.970000000
v -5.688607331 13.346483177 56.970000000
v -9.217607331 16.274483177 56.970000000
v -4.420607331 21.412483177 56.970000000
v -1.132607331 18.432483177 56.970000000
v 3.316392669 23.399483177 56.970000000
v 6.376392669 20.463483177 56.970000000
v 6.994392669 19.869483177 56.970000000
v 7.410392669 20.290483177 56.970000000
v 9.936392669 16.998483176 56.970000000
v -1.512607331 4.395483177 56.970000000
v -1.692607331 3.100483176 56.970000000
v -1.490607331 2.269483177 56.970000000
v 4.214392669 -1.610516823 56.970000000
v 0.424392669 -5.820516823 56.970000000
v -2.473607331 -9.041516824 56.970000000
v -4.010607331 -7.898516824 56.970000000
v -5.572607331 -6.415516824 56.970000000
v -6.959607331 -5.098516823 56.970000000
v -9.325607331 -2.852516823 56.970000000
v -9.593607331 -2.947516823 56.970000000
v -11.144607331 -1.367516823 56.970000000
v -8.851607331 2.435483177 56.970000000
v -8.604607331 2.846483177 56.970000000
v -6.959607331 -5.098516823 64.593000000
v -5.572607331 -6.415516824 60.464000000
v -5.572607331 -6.415516824 63.036000000
v -2.473607331 -9.041516824 60.557000000
v 0.424392669 -5.820516823 64.519000000
v 4.214392669 -1.610516823 59.219000000
v -1.490607331 2.269483177 60.051000000
v -4.010607331 -7.898516824 60.402000000
v -3.594607331 -4.806516823 62.766000000
v -3.594607331 -4.806516823 62.636000000
v -3.690607331 -4.883516823 62.655000000
v -1.132607331 18.432483177 60.731000000
v -4.420607331 21.412483177 60.216000000
v -8.851607331 2.435483177 64.510000000
v -11.144607331 -1.367516823 60.519000000
v 6.994392669 19.869483177 63.780000000
v 6.376392669 20.463483177 64.554000000
v 3.316392669 23.399483177 60.734000000
v -9.325607331 -2.852516823 61.909000000
v -9.325607331 -2.852516823 60.612000000
v -6.389607331 -1.812516823 63.151000000
v -6.389607331 -1.812516823 63.109000000
v -9.217607331 16.274483177 60.196000000
v -5.688607331 13.346483177 60.728000000
v -1.512607331 4.395483177 60.211000000
v 9.936392669 16.998483176 60.065000000
v 7.410392669 20.290483177 63.752000000
v -10.028607331 8.500483177 60.725000000
v -6.895607331 5.600483176 64.573000000
v -6.805607331 5.516483176 64.462000000
v -1.692607331 3.100483176 60.132000000
v -8.604607331 2.846483177 64.069000000
v -9.593607331 -2.947516823 60.384000000
v -7.177607331 2.905483177 63.141000000
v -5.347607331 -0.683516824 65.303000000
v -5.347607331 -0.683516824 64.513000000
v -5.285607331 -0.829516823 64.452000000
v -5.285607331 -0.829516823 65.285000000
v -5.235607331 -0.783516823 64.513000000
v -5.235607331 -0.783516823 65.293000000
v -4.870607331 -1.805516823 64.083000000
v -4.870607331 -1.805516823 64.038000000
v -4.529607331 -2.268516824 64.546000000
v -4.529607331 -2.268516824 63.929000000
v -4.745607331 -2.099516823 63.913000000
v -4.745607331 -2.099516823 64.321000000
v -3.948607331 -3.973516823 63.119000000
v -3.948607331 -3.973516823 63.293000000
v -3.746607331 -4.449516824 62.917000000
v -3.738607331 -2.889516823 63.987000000
v -3.738607331 -2.889516823 63.726000000
v -3.864607331 -3.540516824 63.466000000
v -3.973607331 -2.705516824 63.970000000
v -2.697607331 3.090483177 60.227000000
v 12.680392669 12.238483177 56.970000000
v 26.502392669 27.597483177 56.970000000
v 31.678392669 24.022483177 56.970000000
v 17.409392669 8.081483177 56.970000000
v 13.853392669 4.107483177 56.970000000
v 12.016392669 5.731483176 56.970000000
v 11.210392669 6.717483177 56.970000000
v 9.545392669 8.754483176 56.970000000
v 31.678392669 24.022483177 60.082000000
v 26.502392669 27.597483177 60.732000000
v 11.210392669 6.717483177 60.475000000
v 11.210392669 6.717483177 60.462000000
v 11.269392669 6.812483177 60.468000000
v 13.325392669 10.094483177 60.691000000
v 13.325392669 10.094483177 60.530000000
v 13.325392669 10.094483177 60.228000000
v 9.545392669 8.754483176 59.532000000
v 13.853392669 4.107483177 59.210000000
v 17.409392669 8.081483177 59.211000000
v 12.016392669 5.731483176 60.037000000
v 15.280392669 9.927483177 60.367000000
v 15.280392669 9.927483177 60.162000000
v 17.409392669 8.081483177 60.073000000
v 14.949392669 9.502483177 60.363000000
v 14.949392669 9.502483177 60.150000000
v 12.680392669 12.238483177 59.534000000
v 14.067392669 11.279483177 60.555000000
v 14.067392669 11.279483177 60.141000000
v 14.025392669 9.839483176 60.458000000
v 12.680392669 12.238483177 60.729000000
f 1 2 3
f 1 3 4
f 1 4 5
f 1 5 6
f 1 6 7
f 1 7 8
f 1 8 9
f 1 9 10
f 1 10 11
f 1 11 12
f 1 12 13
f 1 13 14
f 1 14 15
f 1 15 16
f 1 16 17
f 1 17 18
f 1 18 19
f 1 19 20
f 1 20 21
f 1 21 22
f 1 22 23
f 1 23 24
f 1 24 25
f 1 25 26
f 1 26 27
f 28 22 21
f 28 21 29
f 28 29 30
f 31 19 18
f 31 18 32
f 32 18 17
f 32 17 33
f 33 17 16
f 33 16 34
f 29 21 20
f 29 20 35
f 36 37 38
f 30 29 38
f 35 20 19
f 35 19 31
f 39 8 7
f 39 7 40
f 41 26 25
f 41 25 42
f 43 11 10
f 43 10 44
f 45 9 8
f 45 8 39
f 46 47 23
f 46 23 22
f 46 22 28
f 48 49 47
f 48 47 46
f 44 10 9
f 44 9 45
f 40 7 6
f 40 6 50
f 50 6 5
f 50 5 51
f 52 14 13
f 52 13 53
f 54 12 11
f 54 11 43
f 53 13 12
f 53 12 54
f 55 4 3
f 55 3 56
f 51 5 4
f 51 4 55
f 56 3 2
f 56 2 57
f 58 15 14
f 58 14 52
f 59 27 26
f 59 26 41
f 34 16 15
f 34 15 58
f 42 25 24
f 42 24 60
f 60 24 23
f 60 23 47
f 61 1 27
f 61 27 59
f 62 63 64
f 62 64 65
f 57 2 1
f 57 1 61
f 65 64 66
f 65 66 67
f 67 66 63
f 67 63 62
f 68 69 49
f 68 49 48
f 70 71 72
f 70 72 73
f 73 72 69
f 73 69 68
f 74 75 76
f 37 36 76
f 77 78 79
f 75 74 79
f 78 77 80
f 71 70 80
f 50 51 39
f 50 39 40
f 34 58 52
f 34 52 81
f 44 56 57
f 44 57 61
f 44 61 81
f 44 81 52
f 44 52 53
f 44 53 54
f 44 54 43
f 78 80 70
f 78 70 28
f 78 28 30
f 78 30 38
f 78 38 37
f 78 37 76
f 78 76 75
f 78 75 79
f 67 62 65
f 63 66 32
f 63 32 33
f 63 33 34
f 63 34 81
f 63 81 61
f 63 61 59
f 63 59 41
f 73 68 48
f 73 48 46
f 73 46 28
f 73 28 70
f 71 80 77
f 71 77 79
f 71 79 74
f 71 74 76
f 71 76 36
f 71 36 38
f 71 38 29
f 71 29 35
f 71 35 31
f 71 31 32
f 71 32 66
f 71 66 64
f 71 64 63
f 71 63 41
f 71 41 42
f 71 42 60
f 71 60 47
f 71 47 49
f 71 49 69
f 71 69 72
f 56 44 45
f 56 45 39
f 56 39 51
f 56 51 55
f 82 83 84
f 82 84 85
f 82 85 86
f 82 86 87
f 82 87 88
f 82 88 89
f 90 84 83
f 90 83 91
f 92 93 94
f 95 96 97
f 98 89 88
f 98 88 93
f 98 93 92
f 99 86 85
f 99 85 100
f 93 88 87
f 93 87 101
f 102 103 100
f 102 100 104
f 105 106 103
f 105 103 102
f 104 100 85
f 104 85 84
f 104 84 90
f 107 82 89
f 107 89 98
f 101 87 86
f 101 86 99
f 108 109 97
f 108 97 96
f 106 105 110
f 91 83 82
f 91 82 107
f 91 107 111
f 111 107 109
f 111 109 108
f 106 110 95
f 106 95 94
f 106 94 93
f 106 93 101
f 106 101 99
f 106 99 100
f 106 100 103
f 111 108 96
f 111 96 110
f 111 110 105
f 111 105 102
f 111 102 104
f 111 104 90
f 111 90 91
f 109 107 98
f 109 98 92
f 109 92 94
f 109 94 97
