v 7.272989502 10.755083062 23.709000000
v 6.226989502 7.503083061 23.709000000
v 6.165989502 7.529083062 23.709000000
v 5.934989502 6.972083062 23.709000000
v 4.768989502 4.272083062 23.709000000
v 4.787989502 4.216083062 23.709000000
v 4.463989502 3.438083062 23.709000000
v -4.951010498 6.721083062 23.709000000
v -6.590010498 0.730083061 23.709000000
v -6.739010498 0.752083061 23.709000000
v -6.814010498 -0.088916938 23.709000000
v -7.198010498 -1.493916938 23.709000000
v -11.730010498 -0.099916939 23.709000000
v -11.088010498 1.863083062 23.709000000
v -9.033010498 8.144083062 23.709000000
v -6.643010498 7.311083062 23.709000000
v -6.278010498 8.411083062 23.709000000
v -5.468010498 8.160083062 23.709000000
v -5.409010498 8.330083062 23.709000000
v -5.945010498 9.415083062 23.709000000
v -5.026010498 9.445083062 23.709000000
v -4.914010498 9.771083062 23.709000000
v -5.087010498 9.816083062 23.709000000
v -4.863010498 9.921083062 23.709000000
v -4.558010498 10.809083061 23.709000000
v -4.716010498 11.386083062 23.709000000
v -4.404010498 11.257083062 23.709000000
v -4.145010498 12.012083062 23.709000000
v -0.011010498 12.188083062 23.709000000
v 1.280989502 12.791083062 23.709000000
v 3.556989502 13.855083061 23.709000000
v 3.815989502 13.531083061 23.709000000
v 3.544989502 12.395083061 23.709000000
v 3.416989502 4.818083062 28.790000000
v 3.416989502 4.818083062 27.384000000
v 4.287989502 7.124083062 29.824000000
v 2.817989502 5.060083061 28.792000000
v 2.817989502 5.060083061 27.382000000
v -2.221010498 10.829083062 31.074000000
v -2.221010498 10.829083062 29.928000000
v -2.152010498 10.324083062 30.357000000
v -2.152010498 10.324083062 30.359000000
v -2.152010498 10.324083062 31.098000000
v -4.404010498 11.257083062 30.351000000
v -4.404010498 11.257083062 30.375000000
v -4.716010498 11.386083062 30.378000000
v -4.558010498 10.809083061 29.908000000
v 5.934989502 6.972083062 30.376000000
v 5.934989502 6.972083062 30.298000000
v 6.165989502 7.529083062 29.792000000
v 6.226989502 7.503083061 29.793000000
v -1.187010498 9.354083062 29.850000000
v -1.187010498 9.354083062 29.829000000
v -3.528010498 10.197083062 29.730000000
v -3.528010498 10.197083062 29.798000000
v -5.087010498 9.816083062 28.799000000
v -4.914010498 9.771083062 28.822000000
v -5.026010498 9.445083062 28.482000000
v -4.145010498 12.012083062 29.578000000
v 4.787989502 4.216083062 27.342000000
v 4.768989502 4.272083062 27.386000000
v -4.951010498 6.721083062 26.438000000
v -4.951010498 6.721083062 26.011000000
v -6.643010498 7.311083062 25.922000000
v -6.643010498 7.311083062 28.110000000
v -0.960010498 10.281083061 31.050000000
v -0.960010498 10.281083061 29.954000000
v 2.277989502 4.815083061 28.614000000
v 2.277989502 4.815083061 26.957000000
v -11.730010498 -0.099916939 25.502000000
v -7.198010498 -1.493916938 25.753000000
v -8.720010498 1.050083062 28.109000000
v -8.720010498 1.050083062 26.094000000
v -8.670010498 1.033083062 26.097000000
v -8.670010498 1.033083062 28.060000000
v -4.554010498 7.878083061 27.220000000
v -4.554010498 7.878083061 28.719000000
v -9.033010498 8.144083062 25.679000000
v -11.088010498 1.863083062 25.704000000
v -11.088010498 1.863083062 25.981000000
v -6.278010498 8.411083062 27.067000000
v -10.802010498 1.765083062 25.994000000
v 4.463989502 3.438083062 26.508000000
v -1.061010498 9.871083062 31.075000000
v -1.061010498 9.871083062 30.350000000
v -1.061010498 9.871083062 30.150000000
v -5.945010498 9.415083062 28.112000000
v -5.409010498 8.330083062 27.317000000
v -4.863010498 9.921083062 28.979000000
v 2.580989502 8.362083062 30.323000000
v 2.580989502 8.362083062 30.193000000
v -3.546010498 7.118083062 28.587000000
v -3.546010498 7.118083062 26.899000000
v -1.780010498 6.935083061 27.388000000
v -1.780010498 6.935083061 28.804000000
v -3.680010498 7.607083062 28.757000000
v -3.680010498 7.607083062 27.298000000
v 1.280989502 12.791083062 28.481000000
v 1.280989502 12.791083062 26.875000000
v -0.011010498 12.188083062 27.893000000
v -0.011010498 12.188083062 28.962000000
v 3.556989502 13.855083061 25.080000000
v -5.468010498 8.160083062 27.139000000
v -6.814010498 -0.088916938 26.086000000
v -6.739010498 0.752083061 26.267000000
v -6.590010498 0.730083061 26.128000000
v -2.263010498 11.136083062 29.669000000
v -2.263010498 11.136083062 29.802000000
v -2.129010498 10.151083061 30.209000000
v -2.129010498 10.151083061 31.106000000
v -1.094010498 9.736083061 31.084000000
v -1.094010498 9.736083061 30.214000000
v 3.544989502 12.395083061 26.395000000
v 3.815989502 13.531083061 25.275000000
v 7.272989502 10.755083062 26.489000000
v 1.944989502 5.413083062 28.796000000
v 1.944989502 5.413083062 27.381000000
v 0.938989502 5.819083062 28.800000000
v 0.938989502 5.819083062 27.379000000
v 1.753989502 8.177083062 29.845000000
v 3.342989502 11.550083062 28.674000000
v 3.342989502 11.550083062 27.227000000
v 2.662989502 8.706083062 30.029000000
v 2.580989502 8.362083062 30.368000000
f 1 2 3
f 1 3 4
f 1 4 5
f 1 5 6
f 1 6 7
f 1 7 8
f 1 8 9
f 1 9 10
f 1 10 11
f 1 11 12
f 1 12 13
f 1 13 14
f 1 14 15
f 1 15 16
f 1 16 17
f 1 17 18
f 1 18 19
f 1 19 20
f 1 20 21
f 1 21 22
f 1 22 23
f 1 23 24
f 1 24 25
f 1 25 26
f 1 26 27
f 1 27 28
f 1 28 29
f 1 29 30
f 1 30 31
f 1 31 32
f 1 32 33
f 34 35 36
f 37 38 35
f 37 35 34
f 39 40 41
f 39 41 42
f 39 42 43
f 42 41 44
f 42 44 45
f 45 44 27
f 45 27 26
f 45 26 46
f 46 26 25
f 46 25 47
f 48 49 4
f 48 4 3
f 48 3 50
f 50 3 2
f 50 2 51
f 52 53 54
f 52 54 55
f 56 23 22
f 56 22 57
f 57 22 21
f 57 21 58
f 59 28 27
f 59 27 44
f 60 6 5
f 60 5 61
f 61 5 4
f 61 4 49
f 62 63 64
f 62 64 65
f 66 67 40
f 66 40 39
f 68 69 38
f 68 38 37
f 70 13 12
f 70 12 71
f 72 73 74
f 72 74 75
f 55 54 76
f 55 76 77
f 78 15 14
f 78 14 79
f 80 79 14
f 80 14 13
f 80 13 70
f 81 17 16
f 81 16 64
f 73 72 82
f 79 80 82
f 65 64 16
f 65 16 15
f 65 15 78
f 83 7 6
f 83 6 60
f 84 85 86
f 84 86 67
f 84 67 66
f 87 20 19
f 87 19 88
f 89 24 23
f 89 23 56
f 47 25 24
f 47 24 89
f 92 93 94
f 92 94 95
f 96 97 93
f 96 93 92
f 98 99 30
f 98 30 29
f 98 29 100
f 98 100 101
f 102 31 30
f 102 30 99
f 77 76 97
f 77 97 96
f 95 94 53
f 95 53 52
f 58 21 20
f 58 20 87
f 88 19 18
f 88 18 103
f 103 18 17
f 103 17 81
f 71 12 11
f 71 11 104
f 104 11 10
f 104 10 105
f 105 10 9
f 105 9 106
f 75 74 105
f 106 9 8
f 106 8 63
f 106 63 62
f 101 100 107
f 101 107 108
f 100 29 28
f 100 28 59
f 43 42 109
f 43 109 110
f 111 112 85
f 111 85 84
f 110 109 112
f 110 112 111
f 108 107 40
f 113 33 32
f 113 32 114
f 115 1 33
f 115 33 113
f 114 32 31
f 114 31 102
f 116 117 69
f 116 69 68
f 118 119 117
f 118 117 116
f 63 8 7
f 63 7 83
f 119 118 120
f 121 122 99
f 121 99 98
f 51 2 1
f 51 1 115
f 122 121 123
f 91 90 124
f 91 124 123
f 65 78 79
f 65 79 82
f 65 82 72
f 95 52 55
f 95 55 77
f 95 77 96
f 95 96 92
f 105 74 73
f 105 73 82
f 105 82 80
f 105 80 70
f 105 70 71
f 105 71 104
f 106 62 65
f 106 65 72
f 106 72 75
f 106 75 105
f 110 111 84
f 110 84 66
f 110 66 39
f 110 39 43
f 40 107 100
f 40 100 59
f 40 59 44
f 40 44 41
f 120 118 116
f 120 116 68
f 120 68 37
f 120 37 34
f 120 34 36
f 124 48 50
f 124 50 51
f 124 51 115
f 124 115 113
f 124 113 114
f 124 114 102
f 124 102 99
f 124 99 122
f 124 122 123
f 91 123 121
f 91 121 98
f 91 98 101
f 91 101 108
f 91 108 40
f 91 40 67
f 91 67 86
f 49 90 85
f 49 85 112
f 49 112 109
f 49 109 42
f 49 42 45
f 49 45 46
f 49 46 47
f 49 47 89
f 49 89 56
f 49 56 57
f 49 57 58
f 49 58 87
f 49 87 88
f 49 88 103
f 49 103 81
f 49 81 64
f 49 64 63
f 49 63 83
f 49 83 60
f 49 60 61
f 36 35 38
f 36 38 69
f 36 69 117
f 36 117 119
f 36 119 120
f 54 53 94
f 54 94 93
f 54 93 97
f 54 97 76
