v -8.490870993 -6.493989261 28.450000000
v -7.642870993 -3.178989260 28.450000000
v -4.247870993 -4.171989261 28.450000000
v -4.891870993 -7.274989260 28.450000000
v -7.642870993 -3.178989260 30.928000000
v -8.490870993 -6.493989261 30.808000000
v -4.247870993 -4.171989261 30.921000000
v -4.891870993 -7.274989260 30.810000000
v -11.033870993 -3.489989261 28.450000000
v -14.289870993 -2.858989261 28.450000000
v -13.419870993 0.782010739 28.450000000
v -10.449870993 0.225010740 28.450000000
v -14.289870993 -2.858989261 30.676000000
v -11.033870993 -3.489989261 30.721000000
v -13.419870993 0.782010739 30.668000000
v -10.449870993 0.225010740 30.709000000
v -3.589870993 17.803010739 28.450000000
v 11.831129007 14.028010739 28.450000000
v 10.048129007 6.508010739 28.450000000
v 2.184129007 7.975010740 28.450000000
v 1.233129007 4.138010739 28.450000000
v -9.085870993 6.450010739 28.450000000
v -8.151870993 13.066010739 28.450000000
v -4.639870993 14.092010739 28.450000000
v -4.639870993 14.092010739 31.533000000
v -8.151870993 13.066010739 31.530000000
v -3.589870993 17.803010739 31.535000000
v -9.085870993 6.450010739 31.527000000
v 2.184129007 7.975010740 31.537000000
v 10.048129007 6.508010739 31.543000000
v 1.233129007 4.138010739 31.535000000
v 11.831129007 14.028010739 31.547000000
f 17 18 19
f 17 19 20
f 17 20 21
f 17 21 22
f 17 22 23
f 17 23 24
f 25 24 23
f 25 23 26
f 27 17 24
f 27 24 25
f 26 23 22
f 26 22 28
f 29 20 19
f 29 19 30
f 31 21 20
f 31 20 29
f 30 19 18
f 30 18 32
f 28 22 21
f 28 21 31
f 32 18 17
f 32 17 27
f 32 27 25
f 32 25 26
f 32 26 28
f 32 28 31
f 32 31 29
f 32 29 30
f 9 10 11
f 9 11 12
f 13 10 9
f 13 9 14
f 15 11 10
f 15 10 13
f 16 12 11
f 16 11 15
f 14 9 12
f 14 12 16
f 14 16 15
f 14 15 13
f 1 2 3
f 1 3 4
f 5 2 1
f 5 1 6
f 7 3 2
f 7 2 5
f 6 1 4
f 6 4 8
f 8 4 3
f 8 3 7
f 8 7 5
f 8 5 6
