v 19.508277161 -0.595587832 32.310000000
v 19.612277161 -0.324587832 32.310000000
v 19.589277161 -0.131587832 32.310000000
v 19.523277161 -0.000587832 32.310000000
v 19.458277161 0.073412168 32.310000000
v 11.556277161 -5.074587832 32.310000000
v 10.898277161 -4.827587832 32.310000000
v 1.213277161 -15.241587832 32.310000000
v -1.801722839 -16.617587832 32.310000000
v -4.086722839 -14.592587831 32.310000000
v -6.639722839 -12.329587832 32.310000000
v -4.438722839 -9.038587832 32.310000000
v -9.357722839 -5.149587831 32.310000000
v -6.798722839 -2.281587832 32.310000000
v -3.599722839 1.301412168 32.310000000
v -0.526722839 -4.419587832 32.310000000
v 0.287277161 -3.590587832 32.310000000
v 5.684277161 1.901412169 32.310000000
v 6.612277161 3.974412168 32.310000000
v 9.971277161 9.102412168 32.310000000
v 13.807277161 5.452412168 32.310000000
v 14.278277161 -6.094587832 32.310000000
v 13.568277161 -5.828587832 32.310000000
v 13.470277161 -5.792587832 32.310000000
v 14.278277161 -6.094587832 34.781000000
v 19.508277161 -0.595587832 34.790000000
v 19.612277161 -0.324587832 34.789000000
v 19.589277161 -0.131587832 34.789000000
v 19.458277161 0.073412168 34.787000000
v 13.807277161 5.452412168 34.747000000
v 19.523277161 -0.000587832 34.788000000
v -1.801722839 -16.617587832 35.624000000
v 1.213277161 -15.241587832 35.161000000
v -4.086722839 -14.592587831 36.782000000
v -4.438722839 -9.038587832 35.454000000
v -4.438722839 -9.038587832 35.276000000
v -4.019722839 -9.369587832 35.474000000
v -6.639722839 -12.329587832 35.509000000
v 11.771277161 -3.966587832 35.242000000
v 11.771277161 -3.966587832 34.764000000
v 8.885277161 -0.865587831 34.742000000
v 8.885277161 -0.865587831 36.848000000
v 0.287277161 -3.590587832 35.186000000
v -0.526722839 -4.419587832 35.674000000
v -3.599722839 1.301412168 34.820000000
v 13.568277161 -5.828587832 34.777000000
v 0.654277161 -9.342587831 36.747000000
v 0.654277161 -9.342587831 36.832000000
v 0.587277161 -9.492587832 36.767000000
v 5.684277161 1.901412169 35.269000000
v 1.319277161 -7.857587832 36.552000000
v 1.319277161 -7.857587832 35.779000000
v 5.049277161 0.482412168 35.456000000
v 5.684277161 1.901412169 35.401000000
v 13.807277161 5.452412168 30.080000000
v 8.308277161 -0.245587832 32.641000000
v 8.308277161 -0.245587832 34.738000000
v 6.612277161 3.974412168 35.320000000
v 9.971277161 9.102412168 34.277000000
v 1.667277161 -8.504587832 36.811000000
v 1.667277161 -8.504587832 35.298000000
v 8.885277161 -0.865587831 31.987000000
v 11.556277161 -5.074587832 35.009000000
v 11.556277161 -5.074587832 34.766000000
v 13.470277161 -5.792587832 34.777000000
v -9.357722839 -5.149587831 35.221000000
v -6.798722839 -2.281587832 36.835000000
v 11.769277161 7.391412168 32.310000000
v 10.898277161 -4.827587832 35.254000000
v 0.780277161 -9.062587832 36.710000000
f 6 7 8
f 6 8 9
f 6 9 10
f 6 10 11
f 6 11 12
f 6 12 13
f 6 13 14
f 6 14 15
f 6 15 16
f 6 16 17
f 6 17 18
f 6 18 19
f 6 19 20
f 6 20 21
f 6 21 5
f 6 5 4
f 6 4 3
f 6 3 2
f 6 2 1
f 6 1 22
f 6 22 23
f 6 23 24
f 25 22 1
f 25 1 26
f 26 1 2
f 26 2 27
f 27 2 3
f 27 3 28
f 29 5 21
f 29 21 30
f 28 3 4
f 28 4 31
f 31 4 5
f 31 5 29
f 32 9 8
f 32 8 33
f 34 10 9
f 34 9 32
f 35 36 37
f 36 12 11
f 36 11 38
f 39 40 41
f 39 41 42
f 43 17 16
f 43 16 44
f 44 16 15
f 44 15 45
f 46 23 22
f 46 22 25
f 47 48 49
f 50 18 17
f 50 17 43
f 51 52 53
f 54 50 53
f 30 21 55
f 30 55 56
f 30 56 57
f 58 19 18
f 58 18 50
f 58 50 54
f 59 20 19
f 59 19 58
f 60 61 52
f 60 52 51
f 42 41 62
f 42 62 61
f 42 61 60
f 63 64 40
f 63 40 39
f 64 6 24
f 64 24 65
f 65 24 23
f 65 23 46
f 66 13 12
f 66 12 36
f 66 36 35
f 67 14 13
f 67 13 66
f 38 11 10
f 38 10 34
f 45 15 14
f 45 14 67
f 57 56 62
f 57 62 41
f 20 59 68
f 33 8 7
f 33 7 69
f 69 7 6
f 69 6 64
f 69 64 63
f 48 47 70
f 48 70 43
f 48 43 44
f 48 44 45
f 48 45 67
f 57 41 40
f 57 40 64
f 57 64 65
f 57 65 46
f 57 46 25
f 57 25 26
f 57 26 27
f 57 27 28
f 57 28 31
f 57 31 29
f 57 29 30
f 55 68 59
f 55 59 58
f 55 58 54
f 55 54 53
f 55 53 52
f 55 52 61
f 55 61 62
f 55 62 56
f 69 63 39
f 69 39 42
f 69 42 60
f 69 60 34
f 69 34 32
f 69 32 33
f 48 67 66
f 48 66 35
f 48 35 37
f 48 37 49
f 70 47 49
f 70 49 37
f 70 37 36
f 70 36 38
f 70 38 34
f 70 34 60
f 70 60 51
f 70 51 53
f 70 53 50
f 70 50 43
