v -8.393015518 19.780257698 32.509000000
v -5.959015518 19.787257697 32.509000000
v -6.379015518 19.013257698 32.509000000
v -0.829015518 18.581257698 32.509000000
v -1.218015518 19.803257698 32.509000000
v 1.918984482 19.813257698 32.509000000
v 0.318984482 18.251257698 32.509000000
v 0.020984482 16.923257698 32.509000000
v -0.112015518 16.330257698 32.509000000
v 0.017984482 15.923257698 32.509000000
v 0.440984482 15.511257698 32.509000000
v -7.019015518 14.932257698 32.509000000
v -7.015015518 15.629257698 32.509000000
v -7.673015518 15.475257698 32.509000000
v -8.384015518 15.307257698 32.509000000
v -6.886015518 18.075257698 32.509000000
v -6.379015518 19.013257698 34.998000000
v -5.959015518 19.787257697 34.732000000
v -7.673015518 15.475257698 35.076000000
v -7.673015518 15.475257698 34.973000000
v -7.015015518 15.629257698 35.136000000
v 0.440984482 15.511257698 35.084000000
v 0.017984482 15.923257698 35.243000000
v -1.218015518 19.803257698 34.673000000
v -0.829015518 18.581257698 35.080000000
v -7.019015518 14.932257698 34.866000000
v 0.318984482 18.251257698 35.178000000
v 1.918984482 19.813257698 34.634000000
v 0.020984482 16.923257698 35.630000000
v -5.945015518 17.011257698 35.766000000
v -5.945015518 17.011257698 35.668000000
v -6.886015518 18.075257698 35.320000000
v -6.886015518 18.075257698 35.333000000
v -6.786015518 16.263257698 35.380000000
v -8.384015518 15.307257698 34.646000000
v -0.112015518 16.330257698 35.401000000
v -8.393015518 19.780257698 34.763000000
v -7.335015518 13.041257698 32.509000000
v -3.122015518 12.777257698 32.509000000
v 1.086984482 12.514257698 32.509000000
v 0.991984482 -5.414742302 32.509000000
v -3.179015518 -5.630742302 32.509000000
v -7.204015518 -5.838742302 32.509000000
v -7.274015518 4.149257698 32.509000000
v -11.186015518 4.203257698 32.509000000
v -11.224015518 13.285257698 32.509000000
v -11.224015518 13.285257698 34.849000000
v -11.186015518 4.203257698 34.881000000
v -7.274015518 4.149257698 35.162000000
v 0.991984482 -5.414742302 35.126000000
v 1.086984482 12.514257698 35.125000000
v -3.122015518 12.777257698 37.065000000
v -3.179015518 -5.630742302 37.048000000
v -7.204015518 -5.838742302 35.198000000
v -7.335015518 13.041257698 35.129000000
f 1 2 3
f 1 3 4
f 1 4 5
f 1 5 6
f 1 6 7
f 1 7 8
f 1 8 9
f 1 9 10
f 1 10 11
f 1 11 12
f 1 12 13
f 1 13 14
f 1 14 15
f 1 15 16
f 17 3 2
f 17 2 18
f 19 20 14
f 19 14 13
f 19 13 21
f 22 11 10
f 22 10 23
f 24 5 4
f 24 4 25
f 21 13 12
f 21 12 26
f 27 7 6
f 27 6 28
f 28 6 5
f 28 5 24
f 26 12 11
f 26 11 22
f 29 8 7
f 29 7 27
f 30 31 32
f 30 32 33
f 31 30 34
f 35 15 14
f 35 14 20
f 25 4 3
f 25 3 17
f 36 9 8
f 36 8 29
f 23 10 9
f 23 9 36
f 33 32 16
f 33 16 15
f 33 15 35
f 37 1 16
f 37 16 32
f 18 2 1
f 18 1 37
f 23 36 29
f 23 29 31
f 23 31 34
f 23 34 19
f 23 19 21
f 23 21 26
f 23 26 22
f 33 35 20
f 33 20 34
f 33 34 30
f 18 37 32
f 18 32 31
f 18 31 29
f 18 29 27
f 18 27 28
f 18 28 24
f 18 24 25
f 18 25 17
f 38 39 40
f 38 40 41
f 38 41 42
f 38 42 43
f 38 43 44
f 38 44 45
f 38 45 46
f 47 46 45
f 47 45 48
f 48 45 44
f 48 44 49
f 50 41 40
f 50 40 51
f 51 40 39
f 51 39 52
f 53 42 41
f 53 41 50
f 54 43 42
f 54 42 53
f 49 44 43
f 49 43 54
f 52 39 38
f 52 38 55
f 55 38 46
f 55 46 47
f 53 52 55
f 53 55 49
f 53 49 54
f 55 47 48
f 55 48 49
f 52 53 50
f 52 50 51
