v -2.827464121 -9.446812494 3.890000000
v -4.542464121 -8.519812494 3.890000000
v -5.765464121 -7.858812493 3.890000000
v -9.103464121 -6.052812493 3.890000000
v -6.889464121 -2.569812493 3.890000000
v -4.820464121 0.685187506 3.890000000
v -3.604464121 2.600187507 3.890000000
v 0.133535879 8.482187507 3.890000000
v 3.262535879 6.134187507 3.890000000
v -0.056464121 0.724187506 3.890000000
v -1.324464121 1.395187506 3.890000000
v -2.501464121 -0.257812493 3.890000000
v 1.514535879 -3.200812493 3.890000000
v -0.870464121 -6.631812493 3.890000000
v -1.324464121 1.395187506 6.780000000
v -1.324464121 1.395187506 6.467000000
v -3.604464121 2.600187507 7.066000000
v -3.604464121 2.600187507 7.518000000
v -4.542464121 -8.519812494 7.719000000
v -2.827464121 -9.446812494 7.880000000
v -4.542464121 -8.519812494 10.118000000
v -3.049464121 -6.822812494 9.810000000
v -3.049464121 -6.822812494 10.203000000
v -0.870464121 -6.631812493 11.081000000
v -6.889464121 -2.569812493 11.144000000
v -9.103464121 -6.052812493 7.291000000
v -4.820464121 0.685187506 7.494000000
v 1.514535879 -3.200812493 7.125000000
v 0.133535879 8.482187507 7.108000000
v 3.262535879 6.134187507 6.196000000
v -2.501464121 -0.257812493 6.790000000
v -2.501464121 -0.257812493 6.985000000
v -0.056464121 0.724187506 6.134000000
v -5.765464121 -7.858812493 7.605000000
v -5.765464121 -7.858812493 9.917000000
v -3.865464121 -5.982812493 10.043000000
v -3.809464121 -6.008812494 10.052000000
v -2.999464121 0.107187507 6.967000000
f 1 2 3
f 1 3 4
f 1 4 5
f 1 5 6
f 1 6 7
f 1 7 8
f 1 8 9
f 1 9 10
f 1 10 11
f 1 11 12
f 1 12 13
f 1 13 14
f 15 16 17
f 15 17 18
f 19 2 1
f 19 1 20
f 21 19 22
f 21 22 23
f 20 1 14
f 20 14 24
f 25 5 4
f 25 4 26
f 27 6 5
f 27 5 25
f 24 14 13
f 24 13 28
f 29 8 7
f 29 7 17
f 30 9 8
f 30 8 29
f 18 17 7
f 18 7 6
f 18 6 27
f 28 13 12
f 28 12 31
f 28 31 32
f 16 11 10
f 16 10 33
f 33 10 9
f 33 9 30
f 31 12 11
f 31 11 16
f 31 16 15
f 26 4 3
f 26 3 34
f 35 34 3
f 35 3 2
f 35 2 19
f 35 19 21
f 23 22 37
f 32 31 38
f 33 30 29
f 33 29 17
f 33 17 16
f 24 25 26
f 24 26 34
f 24 34 36
f 24 36 37
f 24 37 22
f 24 22 19
f 24 19 20
f 23 37 36
f 23 36 35
f 23 35 21
f 38 31 15
f 38 15 18
f 38 18 27
f 25 24 28
f 25 28 32
f 25 32 38
f 25 38 27
