v 0.711711043 5.227762403 40.200000000
v 1.096711044 7.213762403 40.200000000
v 1.635711043 9.987762403 40.200000000
v 7.386711044 9.163762403 40.200000000
v 7.051711044 6.698762403 40.200000000
v 6.766711044 4.596762403 40.200000000
v 11.067711044 4.148762403 40.200000000
v 10.861711044 2.168762403 40.200000000
v 9.725711044 2.090762403 40.200000000
v 9.665711044 2.001762403 40.200000000
v 9.694711043 1.795762403 40.200000000
v 10.824711044 1.813762403 40.200000000
v 10.441711044 -1.865237597 40.200000000
v 9.770711044 -1.276237598 40.200000000
v 9.403711044 -2.834237597 40.200000000
v -10.775288956 -1.042237598 40.200000000
v -10.352288956 2.491762402 40.200000000
v -9.892288956 6.332762402 40.200000000
v 4.097711044 1.702762403 46.637000000
v 4.097711044 1.702762403 46.339000000
v 1.293711044 1.509762403 46.981000000
v 1.293711044 1.509762403 47.066000000
v 3.102711044 1.119762403 47.330000000
v 3.102711044 1.119762403 47.210000000
v 7.453711044 0.755762403 47.254000000
v 7.453711044 0.755762403 47.362000000
v 10.441711044 -1.865237597 44.257000000
v 10.824711044 1.813762403 44.222000000
v 7.965711044 1.766762403 46.258000000
v 7.965711044 1.766762403 45.706000000
v -9.892288956 6.332762402 42.558000000
v -10.352288956 2.491762402 47.387000000
v -10.352288956 2.491762402 47.420000000
v 0.293711044 1.597762403 47.014000000
v 0.293711044 1.597762403 47.054000000
v 0.105711044 1.427762403 47.253000000
v 0.105711044 1.427762403 47.247000000
v 0.127711044 1.447762403 47.224000000
v -1.147288956 1.483762403 47.178000000
v -1.147288956 1.483762403 47.362000000
v 7.561711044 0.660762403 47.145000000
v 7.561711044 0.660762403 47.453000000
v 8.293711044 1.089762403 46.504000000
v 8.293711044 1.089762403 46.942000000
v 11.067711044 4.148762403 42.289000000
v 6.766711044 4.596762403 42.344000000
v 7.051711044 6.698762403 44.255000000
v -0.699288956 1.372762403 47.088000000
v -0.699288956 1.372762403 47.437000000
v 7.386711044 9.163762403 41.874000000
v 0.711711043 5.227762403 42.422000000
v 1.096711044 7.213762403 44.237000000
v 1.635711043 9.987762403 41.544000000
v 9.694711043 1.795762403 45.268000000
v 9.694711043 1.795762403 45.423000000
v 9.490711044 1.791762403 45.457000000
v 9.665711044 2.001762403 45.169000000
v 9.725711044 2.090762403 45.050000000
v 10.861711044 2.168762403 44.790000000
v 0.233711043 1.414762403 47.251000000
v -10.775288956 -1.042237598 42.824000000
v 9.403711044 -2.834237597 42.897000000
v 9.770711044 -1.276237598 44.930000000
f 1 2 3
f 1 3 4
f 1 4 5
f 1 5 6
f 1 6 7
f 1 7 8
f 1 8 9
f 1 9 10
f 1 10 11
f 1 11 12
f 1 12 13
f 1 13 14
f 1 14 15
f 1 15 16
f 1 16 17
f 1 17 18
f 19 20 21
f 19 21 22
f 23 24 25
f 23 25 26
f 27 13 12
f 27 12 28
f 29 30 20
f 29 20 19
f 31 18 17
f 31 17 32
f 31 32 33
f 22 21 34
f 22 34 35
f 36 37 38
f 35 34 38
f 33 32 39
f 33 39 40
f 26 25 41
f 26 41 42
f 42 41 43
f 42 43 44
f 44 43 30
f 44 30 29
f 45 7 6
f 45 6 46
f 46 6 5
f 46 5 47
f 40 39 48
f 40 48 49
f 47 5 4
f 47 4 50
f 51 1 18
f 51 18 31
f 52 2 1
f 52 1 51
f 53 3 2
f 53 2 52
f 50 4 3
f 50 3 53
f 54 55 56
f 55 54 11
f 55 11 10
f 55 10 57
f 28 12 11
f 28 11 54
f 57 10 9
f 57 9 58
f 58 9 8
f 58 8 59
f 59 8 7
f 59 7 45
f 49 48 36
f 24 23 60
f 37 36 60
f 61 16 15
f 61 15 62
f 32 17 16
f 32 16 61
f 63 14 13
f 63 13 27
f 62 15 14
f 62 14 63
f 52 51 46
f 52 46 47
f 50 53 52
f 50 52 47
f 49 36 38
f 49 38 34
f 49 34 21
f 49 21 20
f 49 20 30
f 49 30 43
f 49 43 56
f 49 56 55
f 49 55 57
f 49 57 58
f 49 58 59
f 49 59 45
f 49 45 46
f 49 46 51
f 49 51 31
f 49 31 33
f 49 33 40
f 37 60 23
f 37 23 26
f 37 26 42
f 37 42 44
f 37 44 29
f 37 29 19
f 37 19 22
f 37 22 35
f 37 35 38
f 63 27 28
f 63 28 54
f 63 54 56
f 63 56 43
f 63 43 41
f 62 63 41
f 62 41 25
f 62 25 24
f 62 24 60
f 62 60 36
f 62 36 48
f 62 48 39
f 62 39 32
f 62 32 61
