v 129.291439188 23.760796490 78.000000000
v 129.246439188 23.785796490 78.000000000
v 106.137439188 35.233796490 78.000000000
v 95.481439188 44.029796490 78.000000000
v 95.428439188 44.067796490 78.000000000
v 79.785439188 53.823796490 78.000000000
v 79.770439188 53.832796490 78.000000000
v 72.741439188 57.881796490 78.000000000
v 61.110439188 65.918796490 78.000000000
v 47.507439188 79.571796490 78.000000000
v 47.467439188 79.608796490 78.000000000
v 37.655439188 87.504796490 78.000000000
v 26.800439188 97.777796490 78.000000000
v 26.778439188 97.797796490 78.000000000
v 13.677439188 108.813796490 78.000000000
v 13.671439188 108.818796490 78.000000000
v 1.276439188 118.925796490 78.000000000
v -4.793560812 127.997796490 78.000000000
v -12.897560812 140.816796490 78.000000000
v -20.700560812 153.996796490 78.000000000
v -20.724560812 154.033796490 78.000000000
v -29.672560812 166.458796490 78.000000000
v -29.703560812 166.496796490 78.000000000
v -42.493560812 181.022796490 78.000000000
v -42.526560812 181.057796490 78.000000000
v -61.879560812 199.193796490 78.000000000
v -61.915560812 199.223796491 78.000000000
v -61.953560812 199.250796490 78.000000000
v -61.993560812 199.273796490 78.000000000
v -62.036560812 199.293796490 78.000000000
v -62.080560812 199.308796491 78.000000000
v -62.126560812 199.319796490 78.000000000
v -62.172560812 199.326796490 78.000000000
v -62.218560812 199.328796490 78.000000000
v -62.265560812 199.326796490 78.000000000
v -62.311560812 199.320796490 78.000000000
v -86.938560812 194.786796490 78.000000000
v -87.008560812 194.768796491 78.000000000
v -111.346560812 186.535796490 78.000000000
v -111.359560812 186.530796490 78.000000000
v -139.922560812 176.018796491 78.000000000
v -139.968560812 175.999796490 78.000000000
v -140.011560812 175.975796490 78.000000000
v -140.053560812 175.946796490 78.000000000
v -140.091560812 175.914796490 78.000000000
v -140.126560812 175.878796490 78.000000000
v -223.338560812 80.574796490 78.000000000
v -223.364560812 80.541796491 78.000000000
v -223.388560812 80.505796490 78.000000000
v -223.408560812 80.468796490 78.000000000
v -276.601560812 -26.128203510 78.000000000
v -276.621560812 -26.174203509 78.000000000
v -276.637560812 -26.221203510 78.000000000
v -276.647560812 -26.270203510 78.000000000
v -276.653560812 -26.320203510 78.000000000
v -276.654560812 -26.370203510 78.000000000
v -276.649560812 -26.419203510 78.000000000
v -276.640560812 -26.468203510 78.000000000
v -276.626560812 -26.516203510 78.000000000
v -276.607560812 -26.563203510 78.000000000
v -276.583560812 -26.607203510 78.000000000
v -276.556560812 -26.648203510 78.000000000
v -276.524560812 -26.687203510 78.000000000
v -276.489560812 -26.722203510 78.000000000
v -276.450560812 -26.754203510 78.000000000
v -276.408560812 -26.781203510 78.000000000
v -276.364560812 -26.805203510 78.000000000
v -276.318560812 -26.823203510 78.000000000
v -254.930560812 -34.237203510 78.000000000
v -254.889560812 -34.250203510 78.000000000
v -227.170560812 -41.268203510 78.000000000
v -208.867560812 -46.786203510 78.000000000
v -191.922560812 -55.634203509 78.000000000
v -191.868560812 -55.659203510 78.000000000
v -172.628560812 -62.922203510 78.000000000
v -152.680560812 -70.837203510 78.000000000
v -135.285560812 -79.436203510 78.000000000
v -135.236560812 -79.457203510 78.000000000
v -122.070560812 -84.294203510 78.000000000
v -99.629560812 -95.250203510 78.000000000
v -99.627560812 -95.251203510 78.000000000
v -67.795560812 -110.612203510 78.000000000
v -23.120560812 -132.934203510 78.000000000
v 9.721439188 -149.671203510 78.000000000
v 9.767439188 -149.692203510 78.000000000
v 33.499439188 -158.886203510 78.000000000
v 74.096439188 -176.065203510 78.000000000
v 99.029439188 -188.327203510 78.000000000
v 99.074439188 -188.346203510 78.000000000
v 99.121439188 -188.361203510 78.000000000
v 99.169439188 -188.371203510 78.000000000
v 99.217439188 -188.377203510 78.000000000
v 99.266439188 -188.378203510 78.000000000
v 99.315439188 -188.374203510 78.000000000
v 99.363439188 -188.365203510 78.000000000
v 99.410439188 -188.352203510 78.000000000
v 99.455439188 -188.334203510 78.000000000
v 99.499439188 -188.312203510 78.000000000
v 99.540439188 -188.285203510 78.000000000
v 99.578439188 -188.255203510 78.000000000
v 99.613439188 -188.221203510 78.000000000
v 99.645439188 -188.184203510 78.000000000
v 99.673439188 -188.144203510 78.000000000
v 99.697439188 -188.102203510 78.000000000
v 99.717439188 -188.057203510 78.000000000
v 101.573439188 -183.219203510 78.000000000
v 115.689439188 -146.871203510 78.000000000
v 119.981439188 -138.105203510 78.000000000
v 130.687439188 -119.669203510 78.000000000
v 147.923439188 -105.865203510 78.000000000
v 168.996439188 -92.425203510 78.000000000
v 169.036439188 -92.396203510 78.000000000
v 169.073439188 -92.364203510 78.000000000
v 169.106439188 -92.329203510 78.000000000
v 169.136439188 -92.291203510 78.000000000
v 169.162439188 -92.249203510 78.000000000
v 169.184439188 -92.206203510 78.000000000
v 169.202439188 -92.160203510 78.000000000
v 169.215439188 -92.113203510 78.000000000
v 169.223439188 -92.065203510 78.000000000
v 169.227439188 -92.017203510 78.000000000
v 169.442439188 -84.079203510 78.000000000
v 200.515439188 -22.506203510 78.000000000
v 200.535439188 -22.463203510 78.000000000
v 200.550439188 -22.418203509 78.000000000
v 200.561439188 -22.371203510 78.000000000
v 200.567439188 -22.324203510 78.000000000
v 200.569439188 -22.277203510 78.000000000
v 200.566439188 -22.229203510 78.000000000
v 200.559439188 -22.182203510 78.000000000
v 200.548439188 -22.136203510 78.000000000
v 200.532439188 -22.091203510 78.000000000
v 200.512439188 -22.048203510 78.000000000
v 200.487439188 -22.007203510 78.000000000
v 200.460439188 -21.969203510 78.000000000
v 200.428439188 -21.933203510 78.000000000
v 200.393439188 -21.900203510 78.000000000
v 200.356439188 -21.871203510 78.000000000
v 183.656439188 -10.185203510 78.000000000
v 169.832439188 0.127796490 78.000000000
v 169.772439188 0.165796490 78.000000000
v 147.228439188 12.407796490 78.000000000
v 129.291439188 23.760796490 82.830000000
v 129.246439188 23.785796490 82.830000000
v 106.137439188 35.233796490 82.830000000
v 95.481439188 44.029796490 82.830000000
v 95.428439188 44.067796490 82.830000000
v 79.785439188 53.823796490 82.830000000
v 79.770439188 53.832796490 82.830000000
v 72.741439188 57.881796490 82.830000000
v 61.110439188 65.918796490 82.830000000
v 47.507439188 79.571796490 82.830000000
v 47.467439188 79.608796490 82.830000000
v 37.655439188 87.504796490 82.830000000
v 26.800439188 97.777796490 82.830000000
v 26.778439188 97.797796490 82.830000000
v 13.677439188 108.813796490 82.830000000
v 13.671439188 108.818796490 82.830000000
v 1.276439188 118.925796490 82.830000000
v -4.793560812 127.997796490 82.830000000
v -12.897560812 140.816796490 82.830000000
v -20.700560812 153.996796490 82.830000000
v -20.724560812 154.033796490 82.830000000
v -29.672560812 166.458796490 82.830000000
v -29.703560812 166.496796490 82.830000000
v -42.493560812 181.022796490 82.830000000
v -42.526560812 181.057796490 82.830000000
v -61.879560812 199.193796490 82.830000000
v -61.915560812 199.223796491 82.830000000
v -61.953560812 199.250796490 82.830000000
v -61.993560812 199.273796490 82.830000000
v -62.036560812 199.293796490 82.830000000
v -62.080560812 199.308796491 82.830000000
v -62.126560812 199.319796490 82.830000000
v -62.172560812 199.326796490 82.830000000
v -62.218560812 199.328796490 82.830000000
v -62.265560812 199.326796490 82.830000000
v -62.311560812 199.320796490 82.830000000
v -86.938560812 194.786796490 82.830000000
v -87.008560812 194.768796491 82.830000000
v -111.346560812 186.535796490 82.830000000
v -111.359560812 186.530796490 82.830000000
v -139.922560812 176.018796491 82.830000000
v -139.968560812 175.999796490 82.830000000
v -140.011560812 175.975796490 82.830000000
v -140.053560812 175.946796490 82.830000000
v -140.091560812 175.914796490 82.830000000
v -140.126560812 175.878796490 82.830000000
v -223.338560812 80.574796490 82.830000000
v -223.364560812 80.541796491 82.830000000
v -223.388560812 80.505796490 82.830000000
v -223.408560812 80.468796490 82.830000000
v -276.601560812 -26.128203510 82.830000000
v -276.621560812 -26.174203509 82.830000000
v -276.637560812 -26.221203510 82.830000000
v -276.647560812 -26.270203510 82.830000000
v -276.653560812 -26.320203510 82.830000000
v -276.654560812 -26.370203510 82.830000000
v -276.649560812 -26.419203510 82.830000000
v -276.640560812 -26.468203510 82.830000000
v -276.626560812 -26.516203510 82.830000000
v -276.607560812 -26.563203510 82.830000000
v -276.583560812 -26.607203510 82.830000000
v -276.556560812 -26.648203510 82.830000000
v -276.524560812 -26.687203510 82.830000000
v -276.489560812 -26.722203510 82.830000000
v -276.450560812 -26.754203510 82.830000000
v -276.408560812 -26.781203510 82.830000000
v -276.364560812 -26.805203510 82.830000000
v -276.318560812 -26.823203510 82.830000000
v -254.930560812 -34.237203510 82.830000000
v -254.889560812 -34.250203510 82.830000000
v -227.170560812 -41.268203510 82.830000000
v -208.867560812 -46.786203510 82.830000000
v -191.922560812 -55.634203509 82.830000000
v -191.868560812 -55.659203510 82.830000000
v -172.628560812 -62.922203510 82.830000000
v -152.680560812 -70.837203510 82.830000000
v -135.285560812 -79.436203510 82.830000000
v -135.236560812 -79.457203510 82.830000000
v -122.070560812 -84.294203510 82.830000000
v -99.629560812 -95.250203510 82.830000000
v -99.627560812 -95.251203510 82.830000000
v -67.795560812 -110.612203510 82.830000000
v -23.120560812 -132.934203510 82.830000000
v 9.721439188 -149.671203510 82.830000000
v 9.767439188 -149.692203510 82.830000000
v 33.499439188 -158.886203510 82.830000000
v 74.096439188 -176.065203510 82.830000000
v 99.029439188 -188.327203510 82.830000000
v 99.074439188 -188.346203510 82.830000000
v 99.121439188 -188.361203510 82.830000000
v 99.169439188 -188.371203510 82.830000000
v 99.217439188 -188.377203510 82.830000000
v 99.266439188 -188.378203510 82.830000000
v 99.315439188 -188.374203510 82.830000000
v 99.363439188 -188.365203510 82.830000000
v 99.410439188 -188.352203510 82.830000000
v 99.455439188 -188.334203510 82.830000000
v 99.499439188 -188.312203510 82.830000000
v 99.540439188 -188.285203510 82.830000000
v 99.578439188 -188.255203510 82.830000000
v 99.613439188 -188.221203510 82.830000000
v 99.645439188 -188.184203510 82.830000000
v 99.673439188 -188.144203510 82.830000000
v 99.697439188 -188.102203510 82.830000000
v 99.717439188 -188.057203510 82.830000000
v 101.573439188 -183.219203510 82.830000000
v 115.689439188 -146.871203510 82.830000000
v 119.981439188 -138.105203510 82.830000000
v 130.687439188 -119.669203510 82.830000000
v 147.923439188 -105.865203510 82.830000000
v 168.996439188 -92.425203510 82.830000000
v 169.036439188 -92.396203510 82.830000000
v 169.073439188 -92.364203510 82.830000000
v 169.106439188 -92.329203510 82.830000000
v 169.136439188 -92.291203510 82.830000000
v 169.162439188 -92.249203510 82.830000000
v 169.184439188 -92.206203510 82.830000000
v 169.202439188 -92.160203510 82.830000000
v 169.215439188 -92.113203510 82.830000000
v 169.223439188 -92.065203510 82.830000000
v 169.227439188 -92.017203510 82.830000000
v 169.442439188 -84.079203510 82.830000000
v 200.515439188 -22.506203510 82.830000000
v 200.535439188 -22.463203510 82.830000000
v 200.550439188 -22.418203509 82.830000000
v 200.561439188 -22.371203510 82.830000000
v 200.567439188 -22.324203510 82.830000000
v 200.569439188 -22.277203510 82.830000000
v 200.566439188 -22.229203510 82.830000000
v 200.559439188 -22.182203510 82.830000000
v 200.548439188 -22.136203510 82.830000000
v 200.532439188 -22.091203510 82.830000000
v 200.512439188 -22.048203510 82.830000000
v 200.487439188 -22.007203510 82.830000000
v 200.460439188 -21.969203510 82.830000000
v 200.428439188 -21.933203510 82.830000000
v 200.393439188 -21.900203510 82.830000000
v 200.356439188 -21.871203510 82.830000000
v 183.656439188 -10.185203510 82.830000000
v 169.832439188 0.127796490 82.830000000
v 169.772439188 0.165796490 82.830000000
v 147.228439188 12.407796490 82.830000000
f 143 144 145
f 143 145 146
f 143 146 147
f 143 147 148
f 143 148 149
f 143 149 150
f 143 150 151
f 143 151 152
f 143 152 153
f 143 153 154
f 143 154 155
f 143 155 156
f 143 156 157
f 143 157 158
f 143 158 159
f 143 159 160
f 143 160 161
f 143 161 162
f 143 162 163
f 143 163 164
f 143 164 165
f 143 165 166
f 143 166 167
f 143 167 168
f 143 168 169
f 143 169 170
f 143 170 171
f 143 171 172
f 143 172 173
f 143 173 174
f 143 174 175
f 143 175 176
f 143 176 177
f 143 177 178
f 143 178 179
f 143 179 180
f 143 180 181
f 143 181 182
f 143 182 183
f 143 183 184
f 143 184 185
f 143 185 186
f 143 186 187
f 143 187 188
f 143 188 189
f 143 189 190
f 143 190 191
f 143 191 192
f 143 192 193
f 143 193 194
f 143 194 195
f 143 195 196
f 143 196 197
f 143 197 198
f 143 198 199
f 143 199 200
f 143 200 201
f 143 201 202
f 143 202 203
f 143 203 204
f 143 204 205
f 143 205 206
f 143 206 207
f 143 207 208
f 143 208 209
f 143 209 210
f 143 210 211
f 143 211 212
f 143 212 213
f 143 213 214
f 143 214 215
f 143 215 216
f 143 216 217
f 143 217 218
f 143 218 219
f 143 219 220
f 143 220 221
f 143 221 222
f 143 222 223
f 143 223 224
f 143 224 225
f 143 225 226
f 143 226 227
f 143 227 228
f 143 228 229
f 143 229 230
f 143 230 231
f 143 231 232
f 143 232 233
f 143 233 234
f 143 234 235
f 143 235 236
f 143 236 237
f 143 237 238
f 143 238 239
f 143 239 240
f 143 240 241
f 143 241 242
f 143 242 243
f 143 243 244
f 143 244 245
f 143 245 246
f 143 246 247
f 143 247 248
f 143 248 249
f 143 249 250
f 143 250 251
f 143 251 252
f 143 252 253
f 143 253 254
f 143 254 255
f 143 255 256
f 143 256 257
f 143 257 258
f 143 258 259
f 143 259 260
f 143 260 261
f 143 261 262
f 143 262 263
f 143 263 264
f 143 264 265
f 143 265 266
f 143 266 267
f 143 267 268
f 143 268 269
f 143 269 270
f 143 270 271
f 143 271 272
f 143 272 273
f 143 273 274
f 143 274 275
f 143 275 276
f 143 276 277
f 143 277 278
f 143 278 279
f 143 279 280
f 143 280 281
f 143 281 282
f 143 282 283
f 143 283 284
f 142 1 143
f 142 143 284
f 1 2 144
f 1 144 143
f 2 3 145
f 2 145 144
f 3 4 146
f 3 146 145
f 4 5 147
f 4 147 146
f 5 6 148
f 5 148 147
f 6 7 149
f 6 149 148
f 7 8 150
f 7 150 149
f 8 9 151
f 8 151 150
f 9 10 152
f 9 152 151
f 10 11 153
f 10 153 152
f 11 12 154
f 11 154 153
f 12 13 155
f 12 155 154
f 13 14 156
f 13 156 155
f 14 15 157
f 14 157 156
f 15 16 158
f 15 158 157
f 16 17 159
f 16 159 158
f 17 18 160
f 17 160 159
f 18 19 161
f 18 161 160
f 19 20 162
f 19 162 161
f 20 21 163
f 20 163 162
f 21 22 164
f 21 164 163
f 22 23 165
f 22 165 164
f 23 24 166
f 23 166 165
f 24 25 167
f 24 167 166
f 25 26 168
f 25 168 167
f 26 27 169
f 26 169 168
f 27 28 170
f 27 170 169
f 28 29 171
f 28 171 170
f 29 30 172
f 29 172 171
f 30 31 173
f 30 173 172
f 31 32 174
f 31 174 173
f 32 33 175
f 32 175 174
f 33 34 176
f 33 176 175
f 34 35 177
f 34 177 176
f 35 36 178
f 35 178 177
f 36 37 179
f 36 179 178
f 37 38 180
f 37 180 179
f 38 39 181
f 38 181 180
f 39 40 182
f 39 182 181
f 40 41 183
f 40 183 182
f 41 42 184
f 41 184 183
f 42 43 185
f 42 185 184
f 43 44 186
f 43 186 185
f 44 45 187
f 44 187 186
f 45 46 188
f 45 188 187
f 46 47 189
f 46 189 188
f 47 48 190
f 47 190 189
f 48 49 191
f 48 191 190
f 49 50 192
f 49 192 191
f 50 51 193
f 50 193 192
f 51 52 194
f 51 194 193
f 52 53 195
f 52 195 194
f 53 54 196
f 53 196 195
f 54 55 197
f 54 197 196
f 55 56 198
f 55 198 197
f 56 57 199
f 56 199 198
f 57 58 200
f 57 200 199
f 58 59 201
f 58 201 200
f 59 60 202
f 59 202 201
f 60 61 203
f 60 203 202
f 61 62 204
f 61 204 203
f 62 63 205
f 62 205 204
f 63 64 206
f 63 206 205
f 64 65 207
f 64 207 206
f 65 66 208
f 65 208 207
f 66 67 209
f 66 209 208
f 67 68 210
f 67 210 209
f 68 69 211
f 68 211 210
f 69 70 212
f 69 212 211
f 70 71 213
f 70 213 212
f 71 72 214
f 71 214 213
f 72 73 215
f 72 215 214
f 73 74 216
f 73 216 215
f 74 75 217
f 74 217 216
f 75 76 218
f 75 218 217
f 76 77 219
f 76 219 218
f 77 78 220
f 77 220 219
f 78 79 221
f 78 221 220
f 79 80 222
f 79 222 221
f 80 81 223
f 80 223 222
f 81 82 224
f 81 224 223
f 82 83 225
f 82 225 224
f 83 84 226
f 83 226 225
f 84 85 227
f 84 227 226
f 85 86 228
f 85 228 227
f 86 87 229
f 86 229 228
f 87 88 230
f 87 230 229
f 88 89 231
f 88 231 230
f 89 90 232
f 89 232 231
f 90 91 233
f 90 233 232
f 91 92 234
f 91 234 233
f 92 93 235
f 92 235 234
f 93 94 236
f 93 236 235
f 94 95 237
f 94 237 236
f 95 96 238
f 95 238 237
f 96 97 239
f 96 239 238
f 97 98 240
f 97 240 239
f 98 99 241
f 98 241 240
f 99 100 242
f 99 242 241
f 100 101 243
f 100 243 242
f 101 102 244
f 101 244 243
f 102 103 245
f 102 245 244
f 103 104 246
f 103 246 245
f 104 105 247
f 104 247 246
f 105 106 248
f 105 248 247
f 106 107 249
f 106 249 248
f 107 108 250
f 107 250 249
f 108 109 251
f 108 251 250
f 109 110 252
f 109 252 251
f 110 111 253
f 110 253 252
f 111 112 254
f 111 254 253
f 112 113 255
f 112 255 254
f 113 114 256
f 113 256 255
f 114 115 257
f 114 257 256
f 115 116 258
f 115 258 257
f 116 117 259
f 116 259 258
f 117 118 260
f 117 260 259
f 118 119 261
f 118 261 260
f 119 120 262
f 119 262 261
f 120 121 263
f 120 263 262
f 121 122 264
f 121 264 263
f 122 123 265
f 122 265 264
f 123 124 266
f 123 266 265
f 124 125 267
f 124 267 266
f 125 126 268
f 125 268 267
f 126 127 269
f 126 269 268
f 127 128 270
f 127 270 269
f 128 129 271
f 128 271 270
f 129 130 272
f 129 272 271
f 130 131 273
f 130 273 272
f 131 132 274
f 131 274 273
f 132 133 275
f 132 275 274
f 133 134 276
f 133 276 275
f 134 135 277
f 134 277 276
f 135 136 278
f 135 278 277
f 136 137 279
f 136 279 278
f 137 138 280
f 137 280 279
f 138 139 281
f 138 281 280
f 139 140 282
f 139 282 281
f 140 141 283
f 140 283 282
f 141 142 284
f 141 284 283
f 142 141 140
f 142 140 139
f 142 139 138
f 142 138 137
f 142 137 136
f 142 136 135
f 142 135 134
f 142 134 133
f 142 133 132
f 142 132 131
f 142 131 130
f 142 130 129
f 142 129 128
f 142 128 127
f 142 127 126
f 142 126 125
f 142 125 124
f 142 124 123
f 142 123 122
f 142 122 121
f 142 121 120
f 142 120 119
f 142 119 118
f 142 118 117
f 142 117 116
f 142 116 115
f 142 115 114
f 142 114 113
f 142 113 112
f 142 112 111
f 142 111 110
f 142 110 109
f 142 109 108
f 142 108 107
f 142 107 106
f 142 106 105
f 142 105 104
f 142 104 103
f 142 103 102
f 142 102 101
f 142 101 100
f 142 100 99
f 142 99 98
f 142 98 97
f 142 97 96
f 142 96 95
f 142 95 94
f 142 94 93
f 142 93 92
f 142 92 91
f 142 91 90
f 142 90 89
f 142 89 88
f 142 88 87
f 142 87 86
f 142 86 85
f 142 85 84
f 142 84 83
f 142 83 82
f 142 82 81
f 142 81 80
f 142 80 79
f 142 79 78
f 142 78 77
f 142 77 76
f 142 76 75
f 142 75 74
f 142 74 73
f 142 73 72
f 142 72 71
f 142 71 70
f 142 70 69
f 142 69 68
f 142 68 67
f 142 67 66
f 142 66 65
f 142 65 64
f 142 64 63
f 142 63 62
f 142 62 61
f 142 61 60
f 142 60 59
f 142 59 58
f 142 58 57
f 142 57 56
f 142 56 55
f 142 55 54
f 142 54 53
f 142 53 52
f 142 52 51
f 142 51 50
f 142 50 49
f 142 49 48
f 142 48 47
f 142 47 46
f 142 46 45
f 142 45 44
f 142 44 43
f 142 43 42
f 142 42 41
f 142 41 40
f 142 40 39
f 142 39 38
f 142 38 37
f 142 37 36
f 142 36 35
f 142 35 34
f 142 34 33
f 142 33 32
f 142 32 31
f 142 31 30
f 142 30 29
f 142 29 28
f 142 28 27
f 142 27 26
f 142 26 25
f 142 25 24
f 142 24 23
f 142 23 22
f 142 22 21
f 142 21 20
f 142 20 19
f 142 19 18
f 142 18 17
f 142 17 16
f 142 16 15
f 142 15 14
f 142 14 13
f 142 13 12
f 142 12 11
f 142 11 10
f 142 10 9
f 142 9 8
f 142 8 7
f 142 7 6
f 142 6 5
f 142 5 4
f 142 4 3
f 142 3 2
f 142 2 1
