v 15.474896688 15.215855425 117.949000000
v 15.398896688 15.393855425 117.949000000
v 15.335896688 15.467855425 117.949000000
v 14.887896688 15.599855425 117.949000000
v -8.695103312 -4.141144575 117.949000000
v -9.885103312 -2.999144575 117.949000000
v -7.485103312 1.525855425 117.949000000
v -8.411103312 2.317855425 117.949000000
v -10.157103312 1.919855425 117.949000000
v -10.483103312 5.897855425 117.949000000
v 1.653896688 8.604855425 117.949000000
v 2.586896688 7.007855425 117.949000000
v 3.083896688 4.946855425 117.949000000
v 4.476896688 -0.836144575 117.949000000
v -1.396103312 -1.065144575 117.949000000
v -2.302103312 -0.428144575 117.949000000
v -0.951103312 -6.626144575 117.949000000
v -4.469103312 -7.226144575 117.949000000
v -8.077103312 -7.842144575 117.949000000
v 3.083896688 4.946855425 123.338000000
v 3.083896688 4.946855425 123.333000000
v -6.872103312 2.682855425 123.321000000
v -6.872103312 2.682855425 123.330000000
v 2.586896688 7.007855425 122.646000000
v -8.411103312 2.317855425 123.324000000
v -6.747103312 2.497855425 123.261000000
v -6.747103312 2.497855425 123.341000000
v -5.795103312 2.026855425 123.038000000
v 1.653896688 8.604855425 122.074000000
v -10.483103312 5.897855425 122.042000000
v -4.469103312 -7.226144575 123.317000000
v -0.951103312 -6.626144575 122.004000000
v -2.302103312 -0.428144575 121.983000000
v -1.396103312 -1.065144575 121.710000000
v -7.485103312 1.525855425 122.998000000
v -6.923103312 2.584855425 123.287000000
v -6.923103312 2.584855425 123.302000000
v -10.157103312 1.919855425 123.322000000
v -6.895103312 2.570855425 123.295000000
v 4.476896688 -0.836144575 121.354000000
v -9.885103312 -2.999144575 121.767000000
v -8.695103312 -4.141144575 122.090000000
v -8.077103312 -7.842144575 121.993000000
v 8.605896688 -6.453144575 117.949000000
v 10.690896688 -6.290144575 117.949000000
v 11.703896688 -9.976144575 117.949000000
v 8.367896688 -10.691144575 117.949000000
v 11.703896688 -9.976144575 119.823000000
v 10.690896688 -6.290144575 119.934000000
v 8.367896688 -10.691144575 119.821000000
v 8.605896688 -6.453144575 119.942000000
v 13.578896688 15.336855425 117.949000000
v 16.274896688 8.441855425 117.949000000
v 15.428896688 8.259855425 117.949000000
v 9.169896688 6.916855425 117.949000000
v 6.483896688 11.811855425 117.949000000
v 5.445896688 13.703855425 117.949000000
v 15.474896688 15.215855425 120.520000000
v 15.398896688 15.393855425 120.533000000
v 15.335896688 15.467855425 120.545000000
v 16.274896688 8.441855425 120.431000000
v 14.887896688 15.599855425 120.633000000
v 13.578896688 15.336855425 120.896000000
v 14.023896688 13.635855425 121.400000000
v 14.023896688 13.635855425 120.825000000
v 13.578896688 15.336855425 120.946000000
v 15.428896688 8.259855425 120.601000000
v 15.428896688 8.259855425 120.574000000
v 5.445896688 13.703855425 120.862000000
v 6.483896688 11.811855425 121.400000000
v 15.365896688 8.502855425 120.611000000
v 9.169896688 6.916855425 120.599000000
f 5 6 7
f 5 7 8
f 5 8 9
f 5 9 10
f 5 10 11
f 5 11 12
f 5 12 13
f 5 13 14
f 5 14 15
f 5 15 16
f 5 16 17
f 5 17 18
f 5 18 19
f 20 21 22
f 20 22 23
f 21 13 12
f 21 12 24
f 23 22 25
f 29 11 10
f 29 10 30
f 31 18 17
f 31 17 32
f 33 16 15
f 33 15 34
f 32 17 16
f 32 16 33
f 25 8 7
f 25 7 35
f 30 10 9
f 30 9 38
f 38 9 8
f 38 8 25
f 24 12 11
f 24 11 29
f 40 14 13
f 40 13 21
f 40 21 20
f 41 6 5
f 41 5 42
f 35 7 6
f 35 6 41
f 43 19 18
f 43 18 31
f 42 5 19
f 42 19 43
f 34 15 14
f 34 14 40
f 24 29 30
f 24 30 38
f 24 38 25
f 24 25 22
f 24 22 21
f 27 31 32
f 27 32 33
f 27 33 28
f 42 43 31
f 42 31 27
f 42 27 39
f 42 39 36
f 42 36 35
f 42 35 41
f 34 40 20
f 34 20 23
f 34 23 25
f 34 25 35
f 34 35 37
f 34 37 39
f 34 39 26
f 34 26 28
f 34 28 33
f 52 4 3
f 52 3 2
f 52 2 1
f 52 1 53
f 52 53 54
f 52 54 55
f 52 55 56
f 52 56 57
f 58 1 2
f 58 2 59
f 59 2 3
f 59 3 60
f 61 53 1
f 61 1 58
f 62 4 52
f 62 52 63
f 60 3 4
f 60 4 62
f 67 68 54
f 67 54 53
f 67 53 61
f 66 63 52
f 66 52 57
f 66 57 69
f 69 57 56
f 69 56 70
f 68 67 71
f 70 56 55
f 70 55 72
f 72 55 54
f 72 54 68
f 65 71 67
f 65 67 61
f 65 61 58
f 65 58 59
f 65 59 60
f 65 60 62
f 65 62 63
f 70 64 66
f 70 66 69
f 72 68 71
f 72 71 64
f 72 64 70
f 44 45 46
f 44 46 47
f 48 46 45
f 48 45 49
f 50 47 46
f 50 46 48
f 51 44 47
f 51 47 50
f 49 45 44
f 49 44 51
f 49 51 50
f 49 50 48
