v 1.251989909 -2.417340139 1.159000000
v 3.341989909 -0.080340139 1.159000000
v 2.672989909 -0.399340139 1.159000000
v 4.469989909 2.740659861 1.159000000
v 5.890989909 5.224659861 1.159000000
v 12.777989909 1.571659861 1.159000000
v 11.208989909 -0.172340139 1.159000000
v 11.101989909 -0.434340139 1.159000000
v 9.855989909 -3.491340139 1.159000000
v 9.564989909 -4.204340139 1.159000000
v 9.419989909 -6.008340139 1.159000000
v 11.208989909 -0.172340139 8.410000000
v 12.777989909 1.571659861 6.019000000
v 5.890989909 5.224659861 5.686000000
v 4.469989909 2.740659861 8.720000000
v 2.672989909 -0.399340139 8.377000000
v 11.101989909 -0.434340139 8.711000000
v 9.564989909 -4.204340139 7.885000000
v 9.855989909 -3.491340139 8.698000000
v 9.419989909 -6.008340139 6.097000000
v 1.251989909 -2.417340139 5.805000000
v 3.341989909 -0.080340139 8.986000000
v 9.381989909 -1.427340139 10.452000000
v 4.956989909 0.690659861 10.458000000
v -9.845010091 11.688659861 1.159000000
v -8.441010091 14.743659861 1.159000000
v -2.230010091 12.023659861 1.159000000
v -3.917010091 9.013659861 1.159000000
v -8.441010091 14.743659861 3.401000000
v -9.845010091 11.688659861 3.405000000
v -3.917010091 9.013659861 3.210000000
v -2.230010091 12.023659861 3.197000000
f 25 26 27
f 25 27 28
f 29 26 25
f 29 25 30
f 30 25 28
f 30 28 31
f 32 27 26
f 32 26 29
f 31 28 27
f 31 27 32
f 31 32 29
f 31 29 30
f 1 2 3
f 1 3 4
f 1 4 5
f 1 5 6
f 1 6 7
f 1 7 8
f 1 8 9
f 1 9 10
f 1 10 11
f 12 7 6
f 12 6 13
f 13 6 5
f 13 5 14
f 15 4 3
f 15 3 16
f 17 8 7
f 17 7 12
f 18 10 9
f 18 9 19
f 20 11 10
f 20 10 18
f 21 1 11
f 21 11 20
f 14 5 4
f 14 4 15
f 19 9 8
f 19 8 17
f 22 2 1
f 22 1 21
f 16 3 2
f 16 2 22
f 19 17 23
f 15 24 23
f 15 23 17
f 15 17 12
f 15 12 13
f 15 13 14
f 22 21 20
f 22 20 18
f 22 18 19
f 22 19 23
f 22 23 24
f 16 22 24
f 16 24 15
