v 14.387900174 6.236875699 13.859000000
v 14.367900174 6.332875699 13.859000000
v 14.272900174 6.502875699 13.859000000
v 14.161900174 6.599875699 13.859000000
v 14.075900174 6.644875699 13.859000000
v 13.981900174 6.670875698 13.859000000
v 13.883900174 6.678875699 13.859000000
v -8.342099826 3.791875699 13.859000000
v -8.251099826 6.294875698 13.859000000
v -5.819099826 6.336875699 13.859000000
v 0.447900174 6.445875699 13.859000000
v 4.916900174 6.523875698 13.859000000
v 5.041900174 -4.371124301 13.859000000
v 0.576900174 -4.448124302 13.859000000
v -3.957099826 -4.527124302 13.859000000
v -7.328099826 -4.586124302 13.859000000
v -7.495099826 1.873875699 13.859000000
v -4.409099826 2.055875698 13.859000000
v -4.388099826 3.997875699 13.859000000
v -5.894099826 3.918875699 13.859000000
v -5.894099826 3.918875699 15.863000000
v -4.388099826 3.997875699 16.551000000
v -4.409099826 2.055875698 16.531000000
v -4.409099826 2.055875698 16.675000000
v -3.983099826 1.443875698 16.722000000
v 4.916900174 6.523875698 16.676000000
v 0.447900174 6.445875699 18.772000000
v 0.576900174 -4.448124302 18.773000000
v 5.041900174 -4.371124301 16.679000000
v -3.957099826 -4.527124302 16.702000000
v -7.328099826 -4.586124302 16.309000000
v -5.819099826 6.336875699 15.910000000
v -8.251099826 6.294875698 15.962000000
v -8.342099826 3.791875699 15.913000000
v -7.495099826 1.873875699 16.314000000
v 14.440900174 3.392875698 13.859000000
v 7.580900174 3.304875699 13.859000000
v 7.535900174 6.568875698 13.859000000
v 14.440900174 3.392875698 16.324000000
v 14.387900174 6.236875699 16.329000000
v 14.367900174 6.332875699 16.329000000
v 14.272900174 6.502875699 16.327000000
v 14.161900174 6.599875699 16.324000000
v 14.075900174 6.644875699 16.322000000
v 13.981900174 6.670875698 16.320000000
v 13.883900174 6.678875699 16.317000000
v 7.535900174 6.568875698 16.156000000
v 7.580900174 3.304875699 16.150000000
f 8 9 10
f 8 10 11
f 8 11 12
f 8 12 13
f 8 13 14
f 8 14 15
f 8 15 16
f 8 16 17
f 8 17 18
f 8 18 19
f 8 19 20
f 21 20 19
f 21 19 22
f 22 19 18
f 22 18 23
f 26 12 11
f 26 11 27
f 28 14 13
f 28 13 29
f 30 15 14
f 30 14 28
f 31 16 15
f 31 15 30
f 32 10 9
f 32 9 33
f 34 8 20
f 34 20 21
f 35 17 16
f 35 16 31
f 27 11 10
f 27 10 32
f 24 23 18
f 24 18 17
f 24 17 35
f 33 9 8
f 33 8 34
f 29 13 12
f 29 12 26
f 24 35 31
f 24 31 30
f 24 30 25
f 33 34 21
f 33 21 32
f 28 27 32
f 28 32 21
f 28 21 22
f 28 22 23
f 28 23 25
f 28 25 30
f 29 26 27
f 29 27 28
f 36 37 38
f 36 38 7
f 36 7 6
f 36 6 5
f 36 5 4
f 36 4 3
f 36 3 2
f 36 2 1
f 39 36 1
f 39 1 40
f 40 1 2
f 40 2 41
f 41 2 3
f 41 3 42
f 42 3 4
f 42 4 43
f 43 4 5
f 43 5 44
f 45 6 7
f 45 7 46
f 44 5 6
f 44 6 45
f 46 7 38
f 46 38 47
f 47 38 37
f 47 37 48
f 48 37 36
f 48 36 39
f 48 39 40
f 48 40 41
f 48 41 42
f 48 42 43
f 48 43 44
f 48 44 45
f 48 45 46
f 48 46 47
