v 20.313260230 13.851559441 2.420000000
v 16.755260230 8.149559441 2.420000000
v 13.357260230 10.389559441 2.420000000
v 11.742260230 11.454559441 2.420000000
v 15.110260230 17.415559441 2.420000000
v 16.928260230 16.170559441 2.420000000
v 11.742260230 11.454559441 5.906000000
v 13.357260230 10.389559441 6.732000000
v 16.928260230 16.170559441 6.732000000
v 15.110260230 17.415559441 5.792000000
v 20.313260230 13.851559441 5.231000000
v 16.755260230 8.149559441 5.242000000
v 3.724260230 9.179559441 2.420000000
v 6.685260230 7.927559441 2.420000000
v 5.755260230 6.016559441 2.420000000
v 4.734260230 3.917559441 2.420000000
v 4.090260230 2.593559441 2.420000000
v 3.429260230 0.172559441 2.420000000
v -4.663739770 2.641559441 2.420000000
v -3.992739770 4.224559441 2.420000000
v -1.137739770 10.961559441 2.420000000
v -2.528739770 11.560559441 2.420000000
v 1.957260230 20.022559441 2.420000000
v 4.597260230 16.901559441 2.420000000
v 4.833260230 16.844559441 2.420000000
v 7.884260230 16.103559441 2.420000000
v -3.992739770 4.224559441 5.425000000
v -4.663739770 2.641559441 5.297000000
v 3.429260230 0.172559441 5.744000000
v 4.090260230 2.593559441 5.914000000
v 4.734260230 3.917559441 6.027000000
v 0.701260230 2.266559441 6.026000000
v 0.701260230 2.266559441 5.658000000
v 1.736260230 3.430559441 5.790000000
v -0.471739770 2.963559441 6.766000000
v -0.471739770 2.963559441 5.610000000
v 3.494260230 9.276559441 6.227000000
v 3.494260230 9.276559441 6.298000000
v 3.402260230 9.163559441 6.316000000
v 2.219260230 7.712559441 6.557000000
v 2.219260230 7.712559441 7.468000000
v 1.264260230 8.170559441 7.134000000
v 1.264260230 8.170559441 7.451000000
v 6.685260230 7.927559441 6.177000000
v 3.724260230 9.179559441 6.162000000
v 3.724260230 9.179559441 6.223000000
v 5.755260230 6.016559441 7.531000000
v -3.992739770 4.224559441 6.144000000
v -1.674739770 3.395559441 5.547000000
v -1.674739770 3.395559441 7.459000000
v -1.137739770 10.961559441 5.926000000
v -2.528739770 11.560559441 5.113000000
v 7.884260230 16.103559441 5.741000000
v 4.833260230 16.844559441 7.414000000
v 3.617260230 9.224559441 6.225000000
v 0.569260230 5.688559441 5.823000000
v 0.569260230 5.688559441 6.894000000
v 2.241260230 4.977559441 5.905000000
v 1.488260230 6.815559441 6.739000000
v 1.488260230 6.815559441 6.707000000
v 1.461260230 6.782559441 6.712000000
v 1.957260230 20.022559441 5.274000000
v 4.597260230 16.901559441 7.287000000
f 13 14 15
f 13 15 16
f 13 16 17
f 13 17 18
f 13 18 19
f 13 19 20
f 13 20 21
f 13 21 22
f 13 22 23
f 13 23 24
f 13 24 25
f 13 25 26
f 27 20 19
f 27 19 28
f 28 19 18
f 28 18 29
f 30 17 16
f 30 16 31
f 32 33 34
f 35 36 33
f 35 33 32
f 29 18 17
f 29 17 30
f 37 38 39
f 40 41 39
f 41 40 42
f 41 42 43
f 44 14 13
f 44 13 45
f 44 45 46
f 47 15 14
f 47 14 44
f 48 27 49
f 48 49 50
f 51 21 20
f 51 20 27
f 51 27 48
f 52 22 21
f 52 21 51
f 31 16 15
f 31 15 47
f 45 13 26
f 45 26 53
f 53 26 25
f 53 25 54
f 38 37 55
f 46 45 55
f 50 49 36
f 50 36 35
f 56 57 58
f 59 60 61
f 57 56 61
f 43 42 60
f 43 60 59
f 62 23 22
f 62 22 52
f 63 24 23
f 63 23 62
f 54 25 24
f 54 24 63
f 46 55 37
f 46 37 39
f 46 39 41
f 46 41 47
f 46 47 44
f 58 34 33
f 58 33 36
f 58 36 49
f 58 49 27
f 58 27 28
f 58 28 29
f 58 29 30
f 58 30 31
f 43 59 61
f 43 61 56
f 43 56 58
f 43 58 31
f 43 31 47
f 43 47 41
f 50 54 63
f 50 63 62
f 50 62 52
f 50 52 51
f 50 51 48
f 54 50 35
f 54 35 32
f 54 32 34
f 54 34 58
f 54 58 57
f 54 57 61
f 54 61 60
f 54 60 42
f 54 42 40
f 54 40 39
f 54 39 38
f 54 38 55
f 54 55 45
f 54 45 53
f 1 2 3
f 1 3 4
f 1 4 5
f 1 5 6
f 7 4 3
f 7 3 8
f 9 6 5
f 9 5 10
f 10 5 4
f 10 4 7
f 11 1 6
f 11 6 9
f 8 3 2
f 8 2 12
f 12 2 1
f 12 1 11
f 8 9 10
f 8 10 7
f 12 11 9
f 12 9 8
