v -12.502537052 5.182255182 20.469000000
v -11.515537052 8.046255182 20.469000000
v 5.510462948 1.595255182 20.469000000
v 11.090462948 -0.517744818 20.469000000
v 7.754462948 -8.152744818 20.469000000
v 5.405462948 -9.511744818 20.469000000
v 2.357462948 -5.010744818 20.469000000
v 1.812462948 -6.154744818 20.469000000
v -13.486537052 2.328255182 20.469000000
v 11.090462948 -0.517744818 22.825000000
v 5.510462948 1.595255182 23.027000000
v -11.515537052 8.046255182 23.642000000
v -12.502537052 5.182255182 25.042000000
v 7.754462948 -8.152744818 22.829000000
v 2.357462948 -5.010744818 23.637000000
v 2.357462948 -5.010744818 23.039000000
v 3.642462948 -2.318744818 23.034000000
v 3.642462948 -2.318744818 25.042000000
v 5.405462948 -9.511744818 22.885000000
v -13.486537052 2.328255182 23.629000000
v 1.812462948 -6.154744818 23.041000000
f 1 2 3
f 1 3 4
f 1 4 5
f 1 5 6
f 1 6 7
f 1 7 8
f 1 8 9
f 10 4 3
f 10 3 11
f 12 2 1
f 12 1 13
f 11 3 2
f 11 2 12
f 14 5 4
f 14 4 10
f 15 16 17
f 15 17 18
f 19 6 5
f 19 5 14
f 16 7 6
f 16 6 19
f 13 1 9
f 13 9 20
f 18 17 11
f 20 9 8
f 20 8 21
f 21 8 7
f 21 7 16
f 21 16 15
f 11 17 16
f 11 16 19
f 11 19 14
f 11 14 10
f 18 11 12
f 18 12 13
f 21 15 18
f 21 18 13
f 21 13 20
