v -7.891234219 0.740529199 23.090000000
v -7.673234219 5.372529199 23.090000000
v 8.438765781 4.126529199 23.090000000
v 8.344765781 -0.213470801 23.090000000
v 8.256765781 -4.237470801 23.090000000
v 11.397765781 -4.428470801 23.090000000
v 11.051765781 -7.294470801 23.090000000
v 10.603765781 -11.003470801 23.090000000
v 3.598765781 -10.593470801 23.090000000
v 3.724765781 -6.905470801 23.090000000
v 3.824765781 -3.968470801 23.090000000
v -1.917234219 -3.620470800 23.090000000
v -2.764234219 -4.831470801 23.090000000
v -8.136234219 -4.473470801 23.090000000
v -7.891234219 0.740529199 28.024000000
v -8.136234219 -4.473470801 25.433000000
v -2.764234219 -4.831470801 25.411000000
v -1.917234219 -3.620470800 26.035000000
v 10.603765781 -11.003470801 25.609000000
v 11.051765781 -7.294470801 25.651000000
v 3.724765781 -6.905470801 26.024000000
v 3.724765781 -6.905470801 25.675000000
v 11.051765781 -7.294470801 26.014000000
v 11.397765781 -4.428470801 26.018000000
v 8.256765781 -4.237470801 26.022000000
v 8.344765781 -0.213470801 28.019000000
v 3.598765781 -10.593470801 25.632000000
v 8.438765781 4.126529199 25.870000000
v 3.824765781 -3.968470801 26.028000000
v -7.673234219 5.372529199 25.727000000
f 1 2 3
f 1 3 4
f 1 4 5
f 1 5 6
f 1 6 7
f 1 7 8
f 1 8 9
f 1 9 10
f 1 10 11
f 1 11 12
f 1 12 13
f 1 13 14
f 15 1 14
f 15 14 16
f 16 14 13
f 16 13 17
f 17 13 12
f 17 12 18
f 19 8 7
f 19 7 20
f 21 22 20
f 21 20 23
f 23 20 7
f 23 7 6
f 23 6 24
f 24 6 5
f 24 5 25
f 25 5 4
f 25 4 26
f 22 10 9
f 22 9 27
f 26 4 3
f 26 3 28
f 27 9 8
f 27 8 19
f 29 11 10
f 29 10 22
f 29 22 21
f 18 12 11
f 18 11 29
f 28 3 2
f 28 2 30
f 30 2 1
f 30 1 15
f 27 19 20
f 27 20 22
f 29 21 23
f 29 23 24
f 29 24 25
f 26 15 16
f 26 16 17
f 26 17 18
f 26 18 29
f 26 29 25
f 30 15 26
f 30 26 28
