v -13.801786376 2.300472346 14.640000000
v 6.594213624 3.406472347 14.640000000
v 7.652213624 -0.849527653 14.640000000
v 4.804213624 -1.274527653 14.640000000
v 5.604213624 -5.285527654 14.640000000
v 8.983213624 -3.794527654 14.640000000
v 9.765213624 -6.938527654 14.640000000
v 5.156213624 -7.656527653 14.640000000
v 5.052213624 -8.083527653 14.640000000
v 4.719213624 -7.724527653 14.640000000
v 4.907213624 -8.677527654 14.640000000
v 4.642213624 -9.761527654 14.640000000
v 1.607213624 -10.194527654 14.640000000
v -1.380786376 -10.620527654 14.640000000
v -1.637786376 -6.350527653 14.640000000
v -6.570786376 -7.244527654 14.640000000
v -6.611786376 -2.979527653 14.640000000
v -6.617786376 -2.287527653 14.640000000
v -8.144786376 0.939472347 14.640000000
v -6.611786376 -2.979527653 19.784000000
v -6.570786376 -7.244527654 17.455000000
v -1.637786376 -6.350527653 17.529000000
v -1.637786376 -6.350527653 17.720000000
v -1.661786376 -5.963527653 17.743000000
v 7.652213624 -0.849527653 19.753000000
v 6.594213624 3.406472347 17.328000000
v 4.804213624 -1.274527653 19.759000000
v 5.604213624 -5.285527654 17.504000000
v 5.604213624 -5.285527654 16.801000000
v 5.156213624 -7.656527653 16.789000000
v 9.765213624 -6.938527654 16.807000000
v 8.983213624 -3.794527654 16.819000000
v 4.642213624 -9.761527654 17.487000000
v 4.907213624 -8.677527654 17.252000000
v 1.607213624 -10.194527654 19.207000000
v -1.380786376 -10.620527654 17.471000000
v -8.144786376 0.939472347 17.507000000
v 4.379213624 -5.826527653 17.312000000
v 4.379213624 -5.826527653 16.795000000
v 0.370213624 -3.039527654 19.310000000
v 0.370213624 -3.039527654 19.168000000
v 0.522213624 -3.203527654 19.239000000
v 0.474213624 -2.889527653 19.240000000
v 4.192213624 -5.685527653 17.404000000
v 4.192213624 -5.685527653 16.795000000
v 4.719213624 -7.724527653 17.278000000
v 4.719213624 -7.724527653 16.787000000
v 5.052213624 -8.083527653 16.787000000
v -6.617786376 -2.287527653 19.403000000
v -13.904786376 2.873472346 14.640000000
v -11.675786376 2.863472346 14.640000000
v -10.002786376 2.855472347 14.640000000
v -9.403786376 -0.455527654 14.640000000
v -11.588786376 -0.645527653 14.640000000
v -13.237786376 -0.788527654 14.640000000
v -11.675786376 2.863472346 16.020000000
v -13.904786376 2.873472346 14.647000000
v -13.801786376 2.300472346 14.658000000
v -9.403786376 -0.455527654 16.786000000
v -10.002786376 2.855472347 16.756000000
v -11.588786376 -0.645527653 16.726000000
v -11.588786376 -0.645527653 15.751000000
v -13.237786376 -0.788527654 14.721000000
v -11.675786376 2.863472346 16.709000000
v -8.284786376 -14.540527654 14.640000000
v -8.999786376 -12.837527653 14.640000000
v -7.771786376 -11.398527654 14.640000000
v -7.477786376 -13.370527654 14.640000000
v -8.284786376 -14.540527654 16.509000000
v -7.477786376 -13.370527654 17.114000000
v -7.771786376 -11.398527654 17.114000000
v -8.999786376 -12.837527653 16.225000000
f 65 66 67
f 65 67 68
f 69 65 68
f 69 68 70
f 71 67 66
f 71 66 72
f 70 68 67
f 70 67 71
f 72 66 65
f 72 65 69
f 72 69 70
f 72 70 71
f 2 3 4
f 2 4 5
f 2 5 6
f 2 6 7
f 2 7 8
f 2 8 9
f 2 9 10
f 2 10 11
f 2 11 12
f 2 12 13
f 2 13 14
f 2 14 15
f 2 15 16
f 2 16 17
f 2 17 18
f 2 18 19
f 20 17 16
f 20 16 21
f 21 16 15
f 21 15 22
f 22 23 24
f 25 3 2
f 25 2 26
f 27 4 3
f 27 3 25
f 28 29 5
f 28 5 4
f 28 4 27
f 30 8 7
f 30 7 31
f 32 6 5
f 32 5 29
f 31 7 6
f 31 6 32
f 33 12 11
f 33 11 34
f 35 13 12
f 35 12 33
f 23 22 15
f 23 15 14
f 23 14 36
f 36 14 13
f 36 13 35
f 26 2 19
f 26 19 37
f 38 39 29
f 38 29 28
f 40 41 42
f 41 40 43
f 44 45 39
f 44 39 38
f 46 47 45
f 46 45 44
f 47 10 9
f 47 9 48
f 34 11 10
f 34 10 47
f 34 47 46
f 48 9 8
f 48 8 30
f 49 18 17
f 49 17 20
f 37 19 18
f 37 18 49
f 34 46 44
f 34 44 43
f 34 43 40
f 34 40 42
f 34 42 35
f 34 35 33
f 48 30 31
f 48 31 32
f 48 32 29
f 48 29 39
f 48 39 45
f 48 45 47
f 41 24 23
f 41 23 36
f 41 36 35
f 41 35 42
f 20 27 25
f 20 25 26
f 20 26 37
f 20 37 49
f 27 20 21
f 27 21 22
f 27 22 24
f 27 24 41
f 27 41 43
f 27 43 44
f 27 44 38
f 27 38 28
f 50 51 52
f 50 52 53
f 50 53 54
f 50 54 55
f 50 55 1
f 56 51 50
f 56 50 57
f 57 50 1
f 57 1 58
f 59 53 52
f 59 52 60
f 61 62 54
f 61 54 53
f 61 53 59
f 58 1 55
f 58 55 63
f 63 55 54
f 63 54 62
f 64 56 62
f 64 62 61
f 60 52 51
f 60 51 56
f 60 56 64
f 62 56 57
f 62 57 58
f 62 58 63
f 60 64 61
f 60 61 59
