v -3.310696552 -6.880020590 10.630000000
v 0.305303448 9.305979409 10.630000000
v 5.078303448 8.307979410 10.630000000
v 10.378303448 7.198979409 10.630000000
v 11.475303448 11.865979409 10.630000000
v 15.808303448 9.656979409 10.630000000
v 14.159303448 2.234979410 10.630000000
v 9.389303448 2.992979409 10.630000000
v 6.741303448 -8.275020591 10.630000000
v 1.548303448 -7.412020591 10.630000000
v 1.657303448 -6.924020590 10.630000000
v 6.741303448 -8.275020591 13.052000000
v 9.389303448 2.992979409 13.001000000
v 0.305303448 9.305979409 13.223000000
v -3.310696552 -6.880020590 13.228000000
v 1.657303448 -6.924020590 15.492000000
v 5.078303448 8.307979410 15.495000000
v 1.548303448 -7.412020591 15.492000000
v 10.378303448 7.198979409 12.982000000
v 11.475303448 11.865979409 12.961000000
v 14.159303448 2.234979410 12.922000000
v 15.808303448 9.656979409 12.890000000
f 1 2 3
f 1 3 4
f 1 4 5
f 1 5 6
f 1 6 7
f 1 7 8
f 1 8 9
f 1 9 10
f 1 10 11
f 12 9 8
f 12 8 13
f 14 2 1
f 14 1 15
f 15 1 11
f 15 11 16
f 17 3 2
f 17 2 14
f 18 10 9
f 18 9 12
f 19 4 3
f 19 3 17
f 20 5 4
f 20 4 19
f 13 8 7
f 13 7 21
f 21 7 6
f 21 6 22
f 22 6 5
f 22 5 20
f 16 11 10
f 16 10 18
f 16 17 14
f 16 14 15
f 22 20 19
f 22 19 13
f 22 13 21
f 16 18 12
f 16 12 13
f 16 13 19
f 16 19 17
