v 1.483199276 -1.002505647 30.829000000
v -5.891800724 -1.605505647 30.829000000
v -6.810800723 2.157494353 30.829000000
v -7.911800724 6.669494353 30.829000000
v -0.087800724 7.970494353 30.829000000
v 1.356199277 8.211494354 30.829000000
v 1.480199276 6.889494353 30.829000000
v 4.925199277 4.513494354 30.829000000
v 5.782199276 6.176494353 30.829000000
v 5.398199277 8.437494353 30.829000000
v 10.150199277 9.941494353 30.829000000
v 11.907199276 -0.012505647 30.829000000
v 6.932199277 -0.588505647 30.829000000
v 5.673199277 -0.733505647 30.829000000
v 0.962199277 -3.173505647 30.829000000
v 2.108199276 -0.951505647 30.829000000
v 0.962199277 -3.173505647 34.554000000
v 5.673199277 -0.733505647 37.938000000
v 2.108199276 -0.951505647 35.564000000
v -5.891800724 -1.605505647 35.618000000
v 1.483199276 -1.002505647 35.147000000
v -6.810800723 2.157494353 38.304000000
v 4.925199277 4.513494354 38.047000000
v 1.480199276 6.889494353 36.048000000
v 5.782199276 6.176494353 38.802000000
v 4.732199276 4.140494353 38.278000000
v 4.732199276 4.140494353 37.877000000
v 5.321199276 4.241494353 38.276000000
v 6.932199277 -0.588505647 38.785000000
v 1.356199277 8.211494354 36.118000000
v -0.087800724 7.970494353 35.139000000
v -7.911800724 6.669494353 35.129000000
v 5.398199277 8.437494353 38.808000000
v 11.907199276 -0.012505647 35.483000000
v 10.150199277 9.941494353 35.550000000
f 1 2 3
f 1 3 4
f 1 4 5
f 1 5 6
f 1 6 7
f 1 7 8
f 1 8 9
f 1 9 10
f 1 10 11
f 1 11 12
f 1 12 13
f 1 13 14
f 1 14 15
f 1 15 16
f 17 15 14
f 17 14 18
f 19 16 15
f 19 15 17
f 20 2 1
f 20 1 21
f 22 3 2
f 22 2 20
f 23 8 7
f 23 7 24
f 25 9 8
f 25 8 23
f 26 27 23
f 27 26 28
f 21 1 16
f 21 16 19
f 18 14 13
f 18 13 29
f 24 7 6
f 24 6 30
f 30 6 5
f 30 5 31
f 32 4 3
f 32 3 22
f 31 5 4
f 31 4 32
f 33 10 9
f 33 9 25
f 34 12 11
f 34 11 35
f 29 13 12
f 29 12 34
f 35 11 10
f 35 10 33
f 30 31 24
f 22 26 23
f 22 23 24
f 22 24 31
f 22 31 32
f 26 22 20
f 26 20 21
f 26 21 28
f 29 25 23
f 29 23 27
f 29 27 28
f 29 28 21
f 29 21 19
f 29 19 17
f 29 17 18
f 25 29 34
f 25 34 35
f 25 35 33
