v -5.441986911 5.928140117 75.120000000
v -6.652986911 10.336140118 75.120000000
v 5.348013089 12.197140117 75.120000000
v 4.598013089 16.931140117 75.120000000
v 16.946013089 19.022140117 75.120000000
v 18.053013089 14.167140117 75.120000000
v 19.021013089 9.927140118 75.120000000
v 20.145013089 5.001140118 75.120000000
v -4.098986911 1.042140117 75.120000000
v -6.652986911 10.336140118 78.742000000
v -5.441986911 5.928140117 80.985000000
v 5.348013089 12.197140117 78.772000000
v 16.946013089 19.022140117 78.015000000
v 4.598013089 16.931140117 78.012000000
v 18.053013089 14.167140117 78.804000000
v 19.021013089 9.927140118 80.946000000
v -4.098986911 1.042140117 78.528000000
v 20.145013089 5.001140118 78.487000000
f 1 2 3
f 1 3 4
f 1 4 5
f 1 5 6
f 1 6 7
f 1 7 8
f 1 8 9
f 10 2 1
f 10 1 11
f 12 3 2
f 12 2 10
f 13 5 4
f 13 4 14
f 14 4 3
f 14 3 12
f 15 6 5
f 15 5 13
f 16 7 6
f 16 6 15
f 17 9 8
f 17 8 18
f 18 8 7
f 18 7 16
f 11 1 9
f 11 9 17
f 15 13 14
f 15 14 12
f 16 11 17
f 16 17 18
f 11 16 15
f 11 15 12
f 11 12 10
