v -17.992459155 -1.522649548 51.529000000
v -19.010459155 -1.783649548 51.529000000
v -19.528459155 -0.362649549 51.529000000
v -20.237459155 1.586350451 51.529000000
v -14.769459155 2.161350451 51.529000000
v -14.410459155 0.802350451 51.529000000
v -14.062459155 -0.513649548 51.529000000
v -17.582459155 -1.416649548 51.529000000
v -17.541459155 -1.653649548 51.529000000
v -14.769459155 2.161350451 54.027000000
v -20.237459155 1.586350451 53.704000000
v -14.410459155 0.802350451 54.461000000
v -14.410459155 0.802350451 54.140000000
v -19.528459155 -0.362649549 54.343000000
v -19.010459155 -1.783649548 54.002000000
v -16.716459155 0.628350452 54.304000000
v -14.062459155 -0.513649548 53.836000000
v -17.582459155 -1.416649548 53.954000000
v -17.541459155 -1.653649548 53.901000000
v -17.992459155 -1.522649548 53.967000000
v 5.271540845 -0.226649548 51.529000000
v 1.016540845 -1.130649548 51.529000000
v 3.318540845 -6.979649548 51.529000000
v 1.910540845 -7.735649548 51.529000000
v -0.349459155 -8.514649549 51.529000000
v -4.335459155 -9.888649548 51.529000000
v -6.000459155 -4.621649548 51.529000000
v -6.684459155 -3.915649548 51.529000000
v -11.742459155 1.301350452 51.529000000
v -13.251459155 6.352350452 51.529000000
v -5.895459155 8.792350451 51.529000000
v -4.563459155 4.637350451 51.529000000
v -3.272459155 5.191350452 51.529000000
v -3.116459155 4.611350452 51.529000000
v -2.947459155 4.647350452 51.529000000
v -0.963459155 5.372350452 51.529000000
v -0.948459155 5.377350451 51.529000000
v 3.004540845 6.822350452 51.529000000
v 4.119540845 3.354350451 51.529000000
v -4.563459155 4.637350451 58.667000000
v -4.563459155 4.637350451 54.709000000
v -8.404459155 2.987350452 54.364000000
v -5.895459155 8.792350451 54.709000000
v -13.251459155 6.352350452 54.066000000
v -2.947459155 4.647350452 57.051000000
v -3.116459155 4.611350452 57.231000000
v -2.531459155 2.446350452 57.348000000
v -2.531459155 2.446350452 57.349000000
v -3.358459155 0.899350451 58.676000000
v -11.742459155 1.301350452 54.057000000
v -6.684459155 -3.915649548 54.325000000
v -6.684459155 -3.915649548 53.906000000
v -6.413459155 -3.313649548 54.362000000
v -6.000459155 -4.621649548 54.361000000
v -3.272459155 5.191350452 57.200000000
v -1.930459155 3.563350451 56.388000000
v -1.930459155 3.563350451 56.390000000
v -1.149459155 5.024350451 55.135000000
v -0.948459155 5.377350451 54.820000000
v -0.963459155 5.372350452 54.837000000
v 3.004540845 6.822350452 54.688000000
v -0.948459155 5.377350451 54.837000000
v 4.119540845 3.354350451 58.683000000
v -4.335459155 -9.888649548 54.359000000
v -0.349459155 -8.514649549 58.721000000
v 5.271540845 -0.226649548 54.619000000
v -2.281459155 2.911350451 56.949000000
v 1.910540845 -7.735649548 56.214000000
v 3.318540845 -6.979649548 54.565000000
v 1.016540845 -1.130649548 54.967000000
v 1.016540845 -1.130649548 55.120000000
v 0.855540845 -1.165649548 55.139000000
f 1 2 3
f 1 3 4
f 1 4 5
f 1 5 6
f 1 6 7
f 1 7 8
f 1 8 9
f 10 5 4
f 10 4 11
f 12 13 6
f 12 6 5
f 12 5 10
f 14 3 2
f 14 2 15
f 11 4 3
f 11 3 14
f 17 7 6
f 17 6 13
f 18 8 7
f 18 7 17
f 19 9 8
f 19 8 18
f 20 1 9
f 20 9 19
f 15 2 1
f 15 1 20
f 14 16 12
f 14 12 10
f 14 10 11
f 15 20 19
f 15 19 18
f 15 18 17
f 15 17 13
f 15 13 16
f 15 16 14
f 21 22 23
f 21 23 24
f 21 24 25
f 21 25 26
f 21 26 27
f 21 27 28
f 21 28 29
f 21 29 30
f 21 30 31
f 21 31 32
f 21 32 33
f 21 33 34
f 21 34 35
f 21 35 36
f 21 36 37
f 21 37 38
f 21 38 39
f 40 41 42
f 41 32 31
f 41 31 43
f 43 31 30
f 43 30 44
f 45 35 34
f 45 34 46
f 44 30 29
f 44 29 50
f 51 52 53
f 52 28 27
f 52 27 54
f 46 34 33
f 46 33 55
f 59 37 36
f 59 36 60
f 61 38 37
f 61 37 59
f 61 59 62
f 63 39 38
f 63 38 61
f 64 26 25
f 64 25 65
f 54 27 26
f 54 26 64
f 66 21 39
f 66 39 63
f 55 33 32
f 55 32 41
f 55 41 40
f 62 59 58
f 60 36 35
f 60 35 45
f 50 29 28
f 50 28 52
f 50 52 51
f 65 25 24
f 65 24 68
f 69 23 22
f 69 22 70
f 70 71 72
f 68 24 23
f 68 23 69
f 71 70 22
f 71 22 21
f 71 21 66
f 54 64 65
f 54 65 40
f 54 40 42
f 54 42 53
f 54 53 52
f 50 51 53
f 50 53 42
f 50 42 41
f 50 41 43
f 50 43 44
f 68 69 70
f 68 70 72
f 68 72 49
f 68 49 48
f 68 48 67
f 68 67 56
f 68 56 58
f 68 58 59
f 68 59 60
f 68 60 45
f 68 45 46
f 68 46 55
f 68 55 40
f 68 40 65
f 49 63 61
f 49 61 62
f 49 62 58
f 49 58 57
f 49 57 67
f 49 67 47
f 63 49 72
f 63 72 71
f 63 71 66
