v -6.165377833 8.406679793 57.540000000
v -13.520377833 6.395679793 57.540000000
v -13.941377833 7.850679793 57.540000000
v -14.167377833 8.261679794 57.540000000
v -15.294377833 10.309679793 57.540000000
v -7.576377833 12.127679793 57.540000000
v -6.953377833 10.485679793 57.540000000
v -6.997377833 10.180679793 57.540000000
v -6.853377833 10.218679793 57.540000000
v -13.941377833 7.850679793 62.539000000
v -13.520377833 6.395679793 60.945000000
v -14.167377833 8.261679794 63.019000000
v -15.294377833 10.309679793 60.631000000
v -7.576377833 12.127679793 60.882000000
v -6.953377833 10.485679793 62.720000000
v -6.997377833 10.180679793 63.018000000
v -6.165377833 8.406679793 60.987000000
v -6.853377833 10.218679793 63.018000000
v 10.251622167 -7.683320207 57.540000000
v 6.373622167 -10.394320207 57.540000000
v 5.000622167 -3.237320207 57.540000000
v -1.360377833 -5.968320207 57.540000000
v -2.583377833 -6.494320206 57.540000000
v -4.671377833 -5.477320206 57.540000000
v -5.022377833 -5.506320206 57.540000000
v -6.542377833 -6.022320206 57.540000000
v -9.302377833 -6.958320207 57.540000000
v -12.099377833 3.024679793 57.540000000
v -9.368377833 3.930679793 57.540000000
v -6.876377833 4.757679793 57.540000000
v -6.683377833 4.808679793 57.540000000
v -6.272377833 5.362679793 57.540000000
v -5.916377833 5.009679793 57.540000000
v -4.319377833 5.427679793 57.540000000
v 11.343622167 9.533679794 57.540000000
v 10.209622167 6.644679793 57.540000000
v 10.978622167 5.435679793 57.540000000
v 10.996622167 3.887679793 57.540000000
v 11.017622167 1.973679793 57.540000000
v 12.444622167 1.243679794 57.540000000
v 11.342622167 -0.401320207 57.540000000
v 12.597622167 -1.475320207 57.540000000
v 12.103622167 -2.529320206 57.540000000
v 12.251622167 -2.809320207 57.540000000
v 12.653622167 -2.708320207 57.540000000
v 13.054622167 -4.413320207 57.540000000
v 13.440622167 -5.060320207 57.540000000
v 13.201622167 -5.036320207 57.540000000
v 13.572622167 -6.608320206 57.540000000
v 14.092622167 -7.063320206 57.540000000
v 12.396622167 -8.547320207 57.540000000
v 10.814622167 -9.933320207 57.540000000
v -5.091377833 4.190679793 63.324000000
v -5.091377833 4.190679793 63.312000000
v -4.319377833 5.427679793 62.134000000
v -4.319377833 5.427679793 62.146000000
v -5.022377833 -5.506320206 65.606000000
v -4.671377833 -5.477320206 65.513000000
v 11.017622167 1.973679793 62.695000000
v 10.996622167 3.887679793 64.890000000
v -9.368377833 3.930679793 65.184000000
v -12.099377833 3.024679793 61.960000000
v 12.251622167 -2.809320207 65.985000000
v 12.103622167 -2.529320206 65.653000000
v -6.683377833 4.808679793 64.888000000
v -6.876377833 4.757679793 64.893000000
v -5.916377833 5.009679793 63.998000000
v 5.000622167 -3.237320207 61.801000000
v 6.373622167 -10.394320207 61.391000000
v 12.396622167 -8.547320207 63.955000000
v 12.396622167 -8.547320207 59.829000000
v 14.092622167 -7.063320206 61.880000000
v -6.272377833 5.362679793 64.289000000
v 12.653622167 -2.708320207 65.997000000
v -6.709377833 0.885679794 65.989000000
v -6.709377833 0.885679794 66.594000000
v -6.933377833 1.224679793 66.141000000
v -9.302377833 -6.958320207 62.280000000
v -6.542377833 -6.022320206 65.543000000
v 12.597622167 -1.475320207 64.709000000
v 11.342622167 -0.401320207 62.966000000
v 11.342622167 -0.401320207 63.237000000
v 11.847622167 -5.099320207 63.637000000
v 11.847622167 -5.099320207 63.640000000
v 11.849622167 -5.098320207 63.637000000
v 13.054622167 -4.413320207 62.255000000
v 13.054622167 -4.413320207 64.084000000
v 10.814622167 -9.933320207 58.724000000
v 10.209622167 6.644679793 65.097000000
v 11.343622167 9.533679794 62.146000000
v 13.440622167 -5.060320207 62.030000000
v -6.258377833 0.204679794 65.685000000
v 13.201622167 -5.036320207 62.264000000
v 13.572622167 -6.608320206 62.287000000
v -2.583377833 -6.494320206 63.519000000
v -1.360377833 -5.968320207 61.720000000
v -1.360377833 -5.968320207 62.044000000
v -1.519377833 -4.459320207 61.805000000
v 10.978622167 5.435679793 64.320000000
v 12.444622167 1.243679794 61.446000000
v 9.544622167 -3.084320207 65.482000000
v 9.544622167 -3.084320207 65.445000000
v 9.903622167 -3.398320206 65.164000000
v 9.903622167 -3.398320206 65.909000000
v 10.251622167 -7.683320207 61.257000000
v 10.251622167 -7.683320207 65.892000000
v 11.839622167 -5.093320207 63.645000000
v 10.634622167 -7.415320206 65.441000000
v 10.634622167 -7.415320206 61.452000000
v -7.871377833 3.209679794 66.618000000
v -5.832377833 -4.911320207 66.621000000
v 4.442622167 -0.331320207 61.967000000
v -2.255377833 -2.049320207 61.946000000
v 9.601622167 5.097679793 66.678000000
v 7.369622167 3.840679794 65.888000000
f 19 20 21
f 19 21 22
f 19 22 23
f 19 23 24
f 19 24 25
f 19 25 26
f 19 26 27
f 19 27 28
f 19 28 29
f 19 29 30
f 19 30 31
f 19 31 32
f 19 32 33
f 19 33 34
f 19 34 35
f 19 35 36
f 19 36 37
f 19 37 38
f 19 38 39
f 19 39 40
f 19 40 41
f 19 41 42
f 19 42 43
f 19 43 44
f 19 44 45
f 19 45 46
f 19 46 47
f 19 47 48
f 19 48 49
f 19 49 50
f 19 50 51
f 19 51 52
f 57 25 24
f 57 24 58
f 59 39 38
f 59 38 60
f 61 29 28
f 61 28 62
f 63 44 43
f 63 43 64
f 65 31 30
f 65 30 66
f 56 55 34
f 56 34 33
f 56 33 67
f 68 21 20
f 68 20 69
f 70 71 51
f 70 51 50
f 70 50 72
f 73 32 31
f 73 31 65
f 67 33 32
f 67 32 73
f 74 45 44
f 74 44 63
f 66 30 29
f 66 29 61
f 62 28 27
f 62 27 78
f 78 27 26
f 78 26 79
f 80 42 41
f 80 41 81
f 80 81 82
f 83 84 85
f 88 52 51
f 88 51 71
f 64 43 42
f 64 42 80
f 89 36 35
f 89 35 90
f 90 35 34
f 90 34 55
f 87 86 46
f 87 46 45
f 87 45 74
f 91 47 46
f 91 46 86
f 93 48 47
f 93 47 91
f 94 49 48
f 94 48 93
f 79 26 25
f 79 25 57
f 58 24 23
f 58 23 95
f 72 50 49
f 72 49 94
f 96 22 21
f 96 21 68
f 97 96 98
f 95 23 22
f 95 22 96
f 95 96 97
f 60 38 37
f 60 37 99
f 100 40 39
f 100 39 59
f 81 41 40
f 81 40 100
f 101 102 103
f 101 103 104
f 105 19 52
f 105 52 88
f 69 20 19
f 69 19 105
f 69 105 106
f 84 83 107
f 104 103 107
f 108 109 71
f 108 71 70
f 106 105 109
f 106 109 108
f 99 37 36
f 99 36 89
f 82 81 102
f 82 102 101
f 66 61 110
f 66 110 65
f 111 79 57
f 111 57 58
f 79 111 110
f 79 110 61
f 79 61 62
f 79 62 78
f 98 96 68
f 98 68 112
f 98 112 113
f 95 97 98
f 95 98 113
f 95 113 92
f 95 92 75
f 95 75 77
f 95 77 53
f 95 53 56
f 95 56 67
f 95 67 73
f 95 73 65
f 95 65 110
f 95 110 111
f 95 111 58
f 60 114 76
f 60 76 92
f 60 92 113
f 60 113 112
f 60 112 115
f 60 115 59
f 109 105 88
f 109 88 71
f 104 107 83
f 104 83 85
f 104 85 87
f 104 87 74
f 104 74 63
f 115 106 108
f 115 108 70
f 115 70 72
f 115 72 94
f 115 94 93
f 115 93 91
f 115 91 86
f 115 86 85
f 115 85 84
f 115 84 107
f 115 107 103
f 115 103 102
f 115 102 81
f 115 81 100
f 115 100 59
f 89 114 60
f 89 60 99
f 114 89 90
f 114 90 55
f 114 55 54
f 114 54 77
f 114 77 76
f 82 101 104
f 82 104 63
f 82 63 64
f 82 64 80
f 106 115 112
f 106 112 68
f 106 68 69
f 1 2 3
f 1 3 4
f 1 4 5
f 1 5 6
f 1 6 7
f 1 7 8
f 1 8 9
f 10 3 2
f 10 2 11
f 12 4 3
f 12 3 10
f 13 5 4
f 13 4 12
f 14 6 5
f 14 5 13
f 15 7 6
f 15 6 14
f 16 8 7
f 16 7 15
f 17 1 9
f 17 9 18
f 18 9 8
f 18 8 16
f 11 2 1
f 11 1 17
f 16 15 14
f 16 14 13
f 16 13 12
f 11 17 18
f 11 18 16
f 11 16 12
f 11 12 10
