v 26.270745585 -19.710520850 77.900000000
v 24.780745585 -19.935520849 77.900000000
v 20.163745585 -20.632520849 77.900000000
v 18.855745585 -20.830520850 77.900000000
v 18.397745585 -20.727520850 77.900000000
v 18.174745585 -17.356520849 77.900000000
v 11.352745585 -19.280520849 77.900000000
v 11.130745585 -17.575520849 77.900000000
v 10.475745585 -12.558520849 77.900000000
v 10.300745585 -11.212520849 77.900000000
v 33.638745585 -7.190520849 77.900000000
v 33.229745585 -8.145520849 77.900000000
v 33.393745585 -8.950520849 77.900000000
v 34.365745585 -13.703520849 77.900000000
v 34.748745585 -15.579520850 77.900000000
v 25.174745585 -16.183520849 77.900000000
v 26.807745585 -19.324520850 77.900000000
v 25.061745585 -15.967520849 87.744000000
v 25.061745585 -15.967520849 87.691000000
v 21.314745585 -13.307520850 91.456000000
v 21.314745585 -13.307520850 91.553000000
v 33.229745585 -8.145520849 87.773000000
v 33.638745585 -7.190520849 86.737000000
v 10.475745585 -12.558520849 88.656000000
v 11.130745585 -17.575520849 88.425000000
v 11.130745585 -17.575520849 88.449000000
v 13.340745585 -14.557520850 91.497000000
v 13.340745585 -14.557520850 91.516000000
v 18.360745585 -17.303520849 87.405000000
v 18.360745585 -17.303520849 87.394000000
v 18.350745585 -17.306520849 87.393000000
v 18.174745585 -17.356520849 87.368000000
v 18.174745585 -17.356520849 87.181000000
v 18.397745585 -20.727520850 86.799000000
v 24.780745585 -19.935520849 88.779000000
v 26.270745585 -19.710520850 87.034000000
v 33.393745585 -8.950520849 88.739000000
v 25.174745585 -16.183520849 87.654000000
v 25.174745585 -16.183520849 87.420000000
v 18.855745585 -20.830520850 87.305000000
v 20.163745585 -20.632520849 88.843000000
v 18.288745585 -13.752520849 91.505000000
v 11.352745585 -19.280520849 86.416000000
v 34.365745585 -13.703520849 88.574000000
v 34.748745585 -15.579520850 86.338000000
v 10.300745585 -11.212520849 87.056000000
v 26.807745585 -19.324520850 86.350000000
v 22.058745585 -17.923520849 91.531000000
v 31.482745585 -11.630520849 91.501000000
f 1 2 3
f 1 3 4
f 1 4 5
f 1 5 6
f 1 6 7
f 1 7 8
f 1 8 9
f 1 9 10
f 1 10 11
f 1 11 12
f 1 12 13
f 1 13 14
f 1 14 15
f 1 15 16
f 1 16 17
f 18 19 20
f 18 20 21
f 22 12 11
f 22 11 23
f 24 9 8
f 24 8 25
f 24 25 26
f 26 25 27
f 26 27 28
f 29 30 31
f 32 33 31
f 33 6 5
f 33 5 34
f 35 2 1
f 35 1 36
f 37 13 12
f 37 12 22
f 38 39 19
f 38 19 18
f 40 4 3
f 40 3 41
f 28 27 42
f 34 5 4
f 34 4 40
f 43 7 6
f 43 6 33
f 43 33 32
f 44 14 13
f 44 13 37
f 45 15 14
f 45 14 44
f 23 11 10
f 23 10 46
f 47 17 16
f 47 16 39
f 47 39 38
f 39 16 15
f 39 15 45
f 21 20 30
f 21 30 29
f 41 3 2
f 41 2 35
f 36 1 17
f 36 17 47
f 25 8 7
f 25 7 43
f 46 10 9
f 46 9 24
f 28 24 26
f 48 21 29
f 48 29 31
f 48 31 33
f 48 33 34
f 48 34 40
f 48 40 41
f 41 35 48
f 36 47 38
f 36 38 18
f 36 18 21
f 36 21 48
f 36 48 35
f 44 49 42
f 44 42 27
f 44 27 25
f 44 25 43
f 44 43 32
f 44 32 31
f 44 31 30
f 44 30 20
f 44 20 19
f 44 19 39
f 44 39 45
f 46 24 28
f 46 28 42
f 46 42 49
f 46 49 37
f 46 37 22
f 46 22 23
f 49 44 37
