v 13.387981706 -4.757939806 7.710000000
v 12.765981706 -4.383939806 7.710000000
v 11.173981706 -7.096939806 7.710000000
v 6.912981706 -4.864939806 7.710000000
v 7.922981706 -3.887939806 7.710000000
v 8.029981706 -1.536939806 7.710000000
v 5.641981706 -0.101939806 7.710000000
v 2.763981706 -6.317939806 7.710000000
v -0.808018294 -4.278939806 7.710000000
v -1.958018294 -3.621939806 7.710000000
v -4.091018294 -3.184939806 7.710000000
v 0.380981706 4.945060194 7.710000000
v 1.799981706 7.526060194 7.710000000
v 1.807981706 7.540060194 7.710000000
v 4.142981706 11.786060194 7.710000000
v 17.979981706 4.691060194 7.710000000
v 15.651981706 -0.097939806 7.710000000
v 1.807981706 7.540060194 12.757000000
v 1.807981706 7.540060194 12.742000000
v 1.799981706 7.526060194 12.750000000
v 0.380981706 4.945060194 10.760000000
v 0.380981706 4.945060194 11.381000000
v 4.345981706 5.042060194 12.307000000
v 4.345981706 5.042060194 12.352000000
v 4.411981706 5.058060193 12.329000000
v -4.091018294 -3.184939806 10.769000000
v 1.767981706 4.387060194 11.450000000
v 1.767981706 4.387060194 11.464000000
v 2.458981706 7.163060194 12.749000000
v 4.142981706 11.786060194 10.475000000
v 2.390981706 4.545060194 11.668000000
v -1.958018294 -3.621939806 11.736000000
v -0.808018294 -4.278939806 12.352000000
v 12.765981706 -4.383939806 10.351000000
v 13.387981706 -4.757939806 10.338000000
v 5.641981706 -0.101939806 10.662000000
v 5.641981706 -0.101939806 10.502000000
v 5.798981706 0.237060194 10.675000000
v 15.651981706 -0.097939806 12.743000000
v 17.979981706 4.691060194 10.254000000
v 2.763981706 -6.317939806 10.434000000
v 7.922981706 -3.887939806 10.226000000
v 6.912981706 -4.864939806 10.097000000
v 8.029981706 -1.536939806 10.451000000
v 11.173981706 -7.096939806 10.038000000
v 1.050981706 17.961060194 7.710000000
v 6.027981706 15.212060194 7.710000000
v 4.588981706 12.596060194 7.710000000
v -0.751018294 17.019060194 7.710000000
v -0.751018294 17.019060194 9.912000000
v 4.588981706 12.596060194 10.177000000
v 6.027981706 15.212060194 10.223000000
v 1.050981706 17.961060194 9.986000000
v -6.503018294 13.819060194 7.710000000
v -10.454018294 16.576060194 7.710000000
v -10.059018294 17.291060193 7.710000000
v -9.382018294 18.516060194 7.710000000
v -7.318018294 16.792060194 7.710000000
v -5.577018294 17.681060194 7.710000000
v -6.120018294 15.416060193 7.710000000
v -10.059018294 17.291060193 10.296000000
v -10.454018294 16.576060194 10.050000000
v -9.382018294 18.516060194 9.931000000
v -6.503018294 13.819060194 9.870000000
v -6.120018294 15.416060193 10.350000000
v -7.318018294 16.792060194 10.138000000
v -5.577018294 17.681060194 9.746000000
f 1 2 3
f 1 3 4
f 1 4 5
f 1 5 6
f 1 6 7
f 1 7 8
f 1 8 9
f 1 9 10
f 1 10 11
f 1 11 12
f 1 12 13
f 1 13 14
f 1 14 15
f 1 15 16
f 1 16 17
f 18 19 14
f 18 14 13
f 18 13 20
f 20 13 12
f 20 12 21
f 20 21 22
f 21 12 11
f 21 11 26
f 22 21 27
f 22 27 28
f 30 15 14
f 30 14 19
f 28 27 31
f 26 11 10
f 26 10 32
f 32 10 9
f 32 9 33
f 34 2 1
f 34 1 35
f 36 37 38
f 39 17 16
f 39 16 40
f 35 1 17
f 35 17 39
f 41 8 7
f 41 7 37
f 41 37 36
f 33 9 8
f 33 8 41
f 42 5 4
f 42 4 43
f 37 7 6
f 37 6 44
f 44 6 5
f 44 5 42
f 43 4 3
f 43 3 45
f 45 3 2
f 45 2 34
f 40 16 15
f 40 15 30
f 32 33 24
f 32 24 31
f 32 31 27
f 32 27 21
f 32 21 26
f 38 25 24
f 38 24 33
f 38 33 41
f 38 41 36
f 45 34 44
f 45 44 42
f 45 42 43
f 39 29 18
f 39 18 20
f 39 20 22
f 39 22 28
f 39 28 31
f 39 31 23
f 39 23 25
f 39 25 38
f 39 38 37
f 39 37 44
f 39 44 34
f 39 34 35
f 40 30 19
f 40 19 29
f 40 29 39
f 54 55 56
f 54 56 57
f 54 57 58
f 54 58 59
f 54 59 60
f 61 56 55
f 61 55 62
f 63 57 56
f 63 56 61
f 64 54 60
f 64 60 65
f 62 55 54
f 62 54 64
f 66 58 57
f 66 57 63
f 65 60 59
f 65 59 67
f 67 59 58
f 67 58 66
f 62 64 65
f 62 65 61
f 67 66 63
f 67 63 61
f 67 61 65
f 46 47 48
f 46 48 49
f 50 49 48
f 50 48 51
f 52 47 46
f 52 46 53
f 53 46 49
f 53 49 50
f 51 48 47
f 51 47 52
f 51 52 53
f 51 53 50
