v -5.764888758 8.968891590 75.550000000
v -5.742888758 8.876891590 75.550000000
v 6.085111242 11.565891590 75.550000000
v 7.211111242 7.457891590 75.550000000
v 8.286111242 3.536891590 75.550000000
v -7.132888758 -0.301108411 75.550000000
v -7.530888758 3.978891590 75.550000000
v -7.913888758 8.086891590 75.550000000
v -13.870888758 5.640891590 75.550000000
v -15.371888758 9.282891590 75.550000000
v -6.467888758 11.944891590 75.550000000
v -7.530888758 3.978891590 80.313000000
v -7.132888758 -0.301108411 78.314000000
v 8.286111242 3.536891590 78.407000000
v 7.211111242 7.457891590 80.314000000
v 6.085111242 11.565891590 78.331000000
v -5.742888758 8.876891590 78.283000000
v -6.467888758 11.944891590 77.843000000
v -15.371888758 9.282891590 77.468000000
v -5.764888758 8.968891590 77.836000000
v -13.870888758 5.640891590 77.484000000
v -7.913888758 8.086891590 78.409000000
v -7.913888758 8.086891590 77.743000000
v -7.940888758 8.377891590 78.275000000
v -7.940888758 8.377891590 77.745000000
v -6.292888758 8.751891590 78.281000000
v -6.292888758 8.751891590 77.813000000
v -5.764888758 8.968891590 78.239000000
f 1 2 3
f 1 3 4
f 1 4 5
f 1 5 6
f 1 6 7
f 1 7 8
f 1 8 9
f 1 9 10
f 1 10 11
f 12 7 6
f 12 6 13
f 13 6 5
f 13 5 14
f 15 4 3
f 15 3 16
f 16 3 2
f 16 2 17
f 14 5 4
f 14 4 15
f 18 11 10
f 18 10 19
f 20 1 11
f 20 11 18
f 19 10 9
f 19 9 21
f 22 23 8
f 22 8 7
f 22 7 12
f 21 9 8
f 21 8 23
f 24 25 23
f 24 23 22
f 26 27 25
f 26 25 24
f 28 20 27
f 28 27 26
f 17 2 1
f 17 1 20
f 17 20 28
f 15 12 13
f 15 13 14
f 27 20 18
f 27 18 19
f 27 19 21
f 27 21 23
f 27 23 25
f 17 28 26
f 17 26 24
f 17 24 22
f 17 22 12
f 17 12 15
f 17 15 16
