v 22.160184145 -10.941155502 24.909000000
v 20.309184145 -10.721155502 24.909000000
v 20.471184145 -7.620155501 24.909000000
v 22.793184145 -8.216155502 24.909000000
v 22.793184145 -8.216155502 27.534000000
v 20.471184145 -7.620155501 27.670000000
v 20.309184145 -10.721155502 27.653000000
v 22.160184145 -10.941155502 27.547000000
v 11.964184145 1.306844498 24.909000000
v 12.235184145 -4.914155502 24.909000000
v 13.777184145 -5.004155502 24.909000000
v 12.596184145 -11.417155501 24.909000000
v 5.644184145 -10.466155502 24.909000000
v 0.817184145 -9.806155502 24.909000000
v 2.276184145 2.149844498 24.909000000
v 7.209184145 1.720844499 24.909000000
v 7.209184145 1.720844499 28.117000000
v 2.276184145 2.149844498 27.423000000
v 12.596184145 -11.417155501 27.279000000
v 13.777184145 -5.004155502 27.225000000
v 12.235184145 -4.914155502 27.414000000
v 0.817184145 -9.806155502 27.452000000
v 5.644184145 -10.466155502 28.135000000
v 11.964184145 1.306844498 27.534000000
f 1 2 3
f 1 3 4
f 5 4 3
f 5 3 6
f 6 3 2
f 6 2 7
f 8 1 4
f 8 4 5
f 7 2 1
f 7 1 8
f 7 8 5
f 7 5 6
f 9 10 11
f 9 11 12
f 9 12 13
f 9 13 14
f 9 14 15
f 9 15 16
f 17 16 15
f 17 15 18
f 19 12 11
f 19 11 20
f 20 11 10
f 20 10 21
f 22 14 13
f 22 13 23
f 23 13 12
f 23 12 19
f 18 15 14
f 18 14 22
f 24 9 16
f 24 16 17
f 21 10 9
f 21 9 24
f 18 22 23
f 18 23 17
f 21 24 17
f 21 17 23
f 21 23 19
f 21 19 20
