v 5.486327228 13.055370509 38.599000000
v 14.890327228 4.148370509 38.599000000
v 11.883327228 0.742370510 38.599000000
v 8.912327228 -2.623629491 38.599000000
v -0.718672772 6.600370510 38.599000000
v 2.384327228 9.828370509 38.599000000
v 2.384327228 9.828370509 43.329000000
v -0.718672772 6.600370510 41.341000000
v 8.912327228 -2.623629491 41.335000000
v 11.883327228 0.742370510 43.327000000
v 5.486327228 13.055370509 41.379000000
v 14.890327228 4.148370509 41.349000000
v 8.100327228 12.362370509 38.599000000
v 6.689327228 13.702370510 38.599000000
v 5.295327228 15.025370509 38.599000000
v 9.206327228 19.733370509 38.599000000
v 10.904327228 18.157370509 38.599000000
v 11.062327228 18.011370509 38.599000000
v 12.645327228 17.079370509 38.599000000
v 6.689327228 13.702370510 41.808000000
v 8.100327228 12.362370509 40.992000000
v 11.062327228 18.011370509 41.720000000
v 10.904327228 18.157370509 41.810000000
v 12.645327228 17.079370509 40.970000000
v 5.295327228 15.025370509 41.070000000
v 9.206327228 19.733370509 40.921000000
f 1 2 3
f 1 3 4
f 1 4 5
f 1 5 6
f 7 6 5
f 7 5 8
f 8 5 4
f 8 4 9
f 9 4 3
f 9 3 10
f 11 1 6
f 11 6 7
f 10 3 2
f 10 2 12
f 12 2 1
f 12 1 11
f 10 7 8
f 10 8 9
f 12 11 7
f 12 7 10
f 13 14 15
f 13 15 16
f 13 16 17
f 13 17 18
f 13 18 19
f 20 14 13
f 20 13 21
f 22 18 17
f 22 17 23
f 24 19 18
f 24 18 22
f 25 15 14
f 25 14 20
f 26 16 15
f 26 15 25
f 23 17 16
f 23 16 26
f 21 13 19
f 21 19 24
f 23 26 25
f 23 25 20
f 21 24 22
f 21 22 23
f 21 23 20
