v -14.438818192 12.957468339 16.870000000
v -13.458818192 14.823468340 16.870000000
v -5.336818192 11.008468339 16.870000000
v -6.246818192 8.946468339 16.870000000
v -6.179818192 8.908468340 16.870000000
v 7.714181808 1.086468339 16.870000000
v 6.123181808 -2.225531661 16.870000000
v 4.415181808 -5.781531661 16.870000000
v -9.902818192 0.664468340 16.870000000
v -9.310818192 2.006468340 16.870000000
v -12.837818192 3.232468340 16.870000000
v -13.902818192 3.603468339 16.870000000
v -13.974818192 11.632468339 16.870000000
v -15.370818192 11.183468339 16.870000000
v -8.224818192 4.465468340 21.371000000
v -8.224818192 4.465468340 19.593000000
v -9.310818192 2.006468340 19.609000000
v -9.310818192 2.006468340 20.184000000
v -5.336818192 11.008468339 19.227000000
v -13.458818192 14.823468340 18.834000000
v 4.415181808 -5.781531661 19.616000000
v 6.123181808 -2.225531661 21.359000000
v -15.370818192 11.183468339 19.202000000
v -13.974818192 11.632468339 18.408000000
v -13.974818192 11.632468339 18.912000000
v -13.902818192 3.603468339 19.154000000
v -10.047818192 8.638468339 19.415000000
v -10.047818192 8.638468339 19.136000000
v -12.837818192 3.232468340 19.201000000
v -12.837818192 3.232468340 19.433000000
v -9.902818192 0.664468340 19.536000000
v -6.246818192 8.946468339 19.257000000
v -6.959818192 7.330468340 19.997000000
v -6.959818192 7.330468340 19.575000000
v -6.179818192 8.908468340 19.260000000
v -6.179818192 8.908468340 19.224000000
v 7.714181808 1.086468339 19.746000000
v -6.959818192 7.330468340 19.281000000
v -6.386818192 8.629468339 19.373000000
v -6.386818192 8.629468339 19.261000000
v -6.229818192 8.840468340 19.261000000
v -14.438818192 12.957468339 19.152000000
v -14.438818192 12.957468339 18.856000000
v -13.985818192 12.836468339 18.808000000
v -13.985818192 12.836468339 18.875000000
v -14.069818192 12.859468339 18.872000000
v -18.690818192 11.812468340 16.870000000
v -18.749818192 11.683468339 16.870000000
v -20.205818192 12.019468339 16.870000000
v -18.859818192 14.722468340 16.870000000
v -17.769818192 13.849468339 16.870000000
v -16.006818192 13.376468339 16.870000000
v -17.422818192 10.514468339 16.870000000
v -17.684818192 10.156468339 16.870000000
v -17.422818192 10.514468339 18.139000000
v -16.006818192 13.376468339 18.003000000
v -18.859818192 14.722468340 18.467000000
v -20.205818192 12.019468339 18.459000000
v -17.769818192 13.849468339 19.247000000
v -18.749818192 11.683468339 19.291000000
v -18.690818192 11.812468340 19.289000000
v -17.684818192 10.156468339 18.209000000
f 1 2 3
f 1 3 4
f 1 4 5
f 1 5 6
f 1 6 7
f 1 7 8
f 1 8 9
f 1 9 10
f 1 10 11
f 1 11 12
f 1 12 13
f 1 13 14
f 15 16 17
f 15 17 18
f 19 3 2
f 19 2 20
f 21 8 7
f 21 7 22
f 23 14 13
f 23 13 24
f 25 24 13
f 25 13 12
f 25 12 26
f 27 28 29
f 27 29 30
f 26 12 11
f 26 11 29
f 30 29 11
f 18 17 10
f 18 10 9
f 18 9 31
f 31 9 8
f 31 8 21
f 32 4 3
f 32 3 19
f 33 34 16
f 33 16 15
f 35 36 5
f 35 5 4
f 35 4 32
f 37 6 5
f 37 5 36
f 34 38 28
f 34 28 27
f 22 7 6
f 22 6 37
f 39 40 38
f 39 38 34
f 39 34 33
f 40 39 41
f 36 35 41
f 42 43 1
f 42 1 14
f 42 14 23
f 20 2 1
f 20 1 43
f 44 45 46
f 43 42 46
f 45 44 24
f 45 24 25
f 31 21 22
f 31 22 15
f 31 15 18
f 34 27 30
f 34 30 17
f 34 17 16
f 36 41 39
f 36 39 33
f 36 33 15
f 36 15 22
f 36 22 37
f 24 44 46
f 24 46 42
f 24 42 23
f 45 25 26
f 45 26 29
f 45 29 28
f 45 28 38
f 45 38 40
f 45 40 41
f 45 41 35
f 45 35 32
f 45 32 19
f 45 19 20
f 45 20 43
f 45 43 46
f 47 48 49
f 47 49 50
f 47 50 51
f 47 51 52
f 47 52 53
f 47 53 54
f 55 53 52
f 55 52 56
f 57 50 49
f 57 49 58
f 59 51 50
f 59 50 57
f 58 49 48
f 58 48 60
f 56 52 51
f 56 51 59
f 60 48 47
f 60 47 61
f 61 47 54
f 61 54 62
f 62 54 53
f 62 53 55
f 60 61 59
f 60 59 57
f 60 57 58
f 62 55 56
f 62 56 59
f 62 59 61
