v -20.390657319 5.668900679 101.986000000
v -20.390657319 5.668900679 99.769000000
v -20.052657319 3.813900679 99.769000000
v -20.052657319 3.813900679 101.815000000
v -17.767657319 6.058900679 102.097000000
v -17.767657319 6.058900679 99.769000000
v -17.405657319 4.450900679 99.769000000
v -17.405657319 4.450900679 101.951000000
v 29.403342681 -23.565099320 99.769000000
v 27.397342681 -23.937099321 99.769000000
v 26.139342681 -25.495099321 99.769000000
v 25.783342681 -23.535099321 99.769000000
v 25.412342681 -23.232099321 99.769000000
v 15.823342681 -24.990099321 99.769000000
v 15.797342681 -24.855099320 99.769000000
v 12.716342681 -25.455099321 99.769000000
v 12.916342681 -26.526099321 99.769000000
v 3.271342681 -28.546099321 99.769000000
v 3.053342681 -27.561099321 99.769000000
v -0.159657319 -28.213099320 99.769000000
v -9.978657319 -30.207099320 99.769000000
v -12.517657319 -30.722099321 99.769000000
v -14.582657319 -24.072099321 99.769000000
v -11.387657319 -23.135099321 99.769000000
v -11.944657319 -20.337099321 99.769000000
v -3.524657319 -18.379099321 99.769000000
v -4.714657319 -15.549099321 99.769000000
v -2.964657319 -15.242099321 99.769000000
v -2.378657319 -18.113099321 99.769000000
v -1.863657319 -17.993099321 99.769000000
v -1.395657319 -20.803099321 99.769000000
v 1.442342681 -20.272099321 99.769000000
v 0.927342681 -17.942099321 99.769000000
v 10.897342681 -15.735099321 99.769000000
v 11.316342681 -17.971099321 99.769000000
v 14.365342681 -17.359099321 99.769000000
v 13.910342681 -14.979099321 99.769000000
v 23.905342681 -13.202099320 99.769000000
v 24.293342681 -15.337099321 99.769000000
v 27.254342681 -14.873099321 99.769000000
v 26.653342681 -12.443099321 99.769000000
v 36.430342681 -10.264099320 99.769000000
v 36.990342681 -12.890099321 99.769000000
v 40.002342681 -11.808099321 99.769000000
v 39.487342681 -9.614099321 99.769000000
v 48.875342681 -7.655099321 99.769000000
v 49.979342681 -10.703099321 99.769000000
v 50.373342681 -12.617099321 99.769000000
v 51.448342681 -17.837099321 99.769000000
v 51.792342681 -17.777099321 99.769000000
v 52.269342681 -20.517099321 99.769000000
v 47.168342681 -20.850099321 99.769000000
v 46.384342681 -18.730099320 99.769000000
v 41.816342681 -19.534099321 99.769000000
v 41.734342681 -19.184099321 99.769000000
v 38.471342681 -19.829099321 99.769000000
v 38.531342681 -20.113099321 99.769000000
v 29.151342681 -21.765099321 99.769000000
v 29.003342681 -21.947099321 99.769000000
v -1.395657319 -20.803099321 104.209000000
v -1.395657319 -20.803099321 103.481000000
v -1.863657319 -17.993099321 102.892000000
v -9.978657319 -30.207099320 103.426000000
v -9.978657319 -30.207099320 103.010000000
v -0.159657319 -28.213099320 103.365000000
v -10.864657319 -25.759099321 105.549000000
v -10.864657319 -25.759099321 103.065000000
v 24.799342681 -18.120099321 104.221000000
v 24.799342681 -18.120099321 104.122000000
v 25.344342681 -18.016099321 104.116000000
v 25.344342681 -18.016099321 104.212000000
v 25.674342681 -22.934099321 104.053000000
v 25.674342681 -22.934099321 104.184000000
v 25.625342681 -22.665099321 104.180000000
v 24.799342681 -18.120099321 106.330000000
v 25.783342681 -23.535099321 103.769000000
v 25.783342681 -23.535099321 103.775000000
v 25.781342681 -23.521099321 103.775000000
v 25.674342681 -22.934099321 103.765000000
v 27.254342681 -14.873099321 105.505000000
v 27.254342681 -14.873099321 104.322000000
v 27.898342681 -17.476099321 104.172000000
v 27.898342681 -17.476099321 106.753000000
v 27.898342681 -17.476099321 104.087000000
v 3.053342681 -27.561099321 103.799000000
v 3.053342681 -27.561099321 103.345000000
v 3.271342681 -28.546099321 103.329000000
v 12.916342681 -26.526099321 103.270000000
v 1.442342681 -20.272099321 104.657000000
v 1.442342681 -20.272099321 103.463000000
v 2.049342681 -23.019099321 103.419000000
v 2.049342681 -23.019099321 105.969000000
v -0.922657319 -23.634099321 103.437000000
v -0.922657319 -23.634099321 105.536000000
v 28.679342681 -22.350099321 103.733000000
v 28.679342681 -22.350099321 104.151000000
v 29.003342681 -21.947099321 103.723000000
v 29.003342681 -21.947099321 104.142000000
v 24.293342681 -15.337099321 104.377000000
v 11.858342681 -20.873099321 103.837000000
v 11.858342681 -20.873099321 105.950000000
v 12.716342681 -25.455099321 103.778000000
v 25.412342681 -23.232099321 103.944000000
v -11.387657319 -23.135099321 104.310000000
v -11.387657319 -23.135099321 103.098000000
v 26.139342681 -25.495099321 103.808000000
v 27.397342681 -23.937099321 103.771000000
v 29.403342681 -23.565099320 103.749000000
v 41.816342681 -19.534099321 104.842000000
v 46.384342681 -18.730099320 104.747000000
v 36.430342681 -10.264099320 104.286000000
v 26.653342681 -12.443099321 104.340000000
v 11.316342681 -17.971099321 103.875000000
v 11.316342681 -17.971099321 104.574000000
v 0.927342681 -17.942099321 103.544000000
v 10.897342681 -15.735099321 103.514000000
v -14.582657319 -24.072099321 103.048000000
v 40.002342681 -11.808099321 104.643000000
v 36.990342681 -12.890099321 104.675000000
v 36.990342681 -12.890099321 105.536000000
v 40.685342681 -14.716099321 107.138000000
v 40.685342681 -14.716099321 104.612000000
v 41.734342681 -19.184099321 104.563000000
v 41.734342681 -19.184099321 105.009000000
v 37.523342681 -15.388099321 106.725000000
v 37.523342681 -15.388099321 104.648000000
v 38.531342681 -20.113099321 104.466000000
v 38.471342681 -19.829099321 104.602000000
v 29.151342681 -21.765099321 104.668000000
v -2.378657319 -18.113099321 102.897000000
v -2.964657319 -15.242099321 102.622000000
v -4.714657319 -15.549099321 102.629000000
v 24.293342681 -15.337099321 105.010000000
v 23.905342681 -13.202099320 103.997000000
v 13.910342681 -14.979099321 103.848000000
v 14.365342681 -17.359099321 103.836000000
v 14.365342681 -17.359099321 104.979000000
v 14.918342681 -20.253099320 103.798000000
v 14.918342681 -20.253099320 106.355000000
v 15.797342681 -24.855099320 103.739000000
v 15.797342681 -24.855099320 104.174000000
v 15.823342681 -24.990099321 104.110000000
v -12.517657319 -30.722099321 102.974000000
v 49.979342681 -10.703099321 106.205000000
v 48.875342681 -7.655099321 104.710000000
v 40.002342681 -11.808099321 105.747000000
v -3.524657319 -18.379099321 102.908000000
v -11.944657319 -20.337099321 102.990000000
v 50.373342681 -12.617099321 107.115000000
v 39.487342681 -9.614099321 104.699000000
v 47.168342681 -20.850099321 104.509000000
v 51.448342681 -17.837099321 104.642000000
v 51.792342681 -17.777099321 104.635000000
v 52.269342681 -20.517099321 104.348000000
v 29.003342681 -21.947099321 104.599000000
v 20.564342681 2.497900679 99.769000000
v 10.114342681 0.612900679 99.769000000
v 9.763342681 2.672900680 99.769000000
v 6.889342681 2.557900679 99.769000000
v 7.527342681 -0.178099321 99.769000000
v -2.690657319 -2.348099321 99.769000000
v -3.155657319 0.262900679 99.769000000
v -5.933657319 -0.422099321 99.769000000
v -5.254657319 -3.323099321 99.769000000
v -4.850657319 -5.051099321 99.769000000
v -5.433657319 -6.874099321 99.769000000
v -6.830657319 -6.398099321 99.769000000
v -5.853657319 -4.401099321 99.769000000
v -6.997657319 -3.615099321 99.769000000
v -15.280657319 -5.006099321 99.769000000
v -15.825657319 -2.580099321 99.769000000
v -18.744657319 -3.382099321 99.769000000
v -19.934657319 3.163900679 99.769000000
v -17.259657319 3.801900679 99.769000000
v -7.622657319 6.801900679 99.769000000
v -7.557657319 6.521900679 99.769000000
v -4.403657319 7.263900680 99.769000000
v -4.456657319 7.562900679 99.769000000
v -2.122657319 8.123900679 99.769000000
v 5.169342681 9.930900679 99.769000000
v 5.341342681 9.192900679 99.769000000
v 8.523342681 9.951900680 99.769000000
v 8.391342681 10.728900679 99.769000000
v 17.808342681 13.061900679 99.769000000
v 18.041342681 12.221900679 99.769000000
v 21.580342681 13.066900679 99.769000000
v 21.517342681 13.659900679 99.769000000
v 30.879342681 15.828900679 99.769000000
v 30.459342681 17.730900679 99.769000000
v 31.372342681 17.284900679 99.769000000
v 33.304342681 18.548900679 99.769000000
v 33.766342681 16.497900679 99.769000000
v 43.737342681 18.807900679 99.769000000
v 44.631342681 13.295900679 99.769000000
v 45.466342681 8.156900679 99.769000000
v 36.319342681 5.175900679 99.769000000
v 35.586342681 8.424900679 99.769000000
v 32.699342681 7.591900679 99.769000000
v 33.190342681 5.366900680 99.769000000
v 22.631342681 3.246900680 99.769000000
v 22.401342681 5.397900679 99.769000000
v 20.025342681 5.062900679 99.769000000
v 19.632342681 5.007900679 99.769000000
v 22.631342681 3.246900680 103.937000000
v 33.190342681 5.366900680 103.842000000
v -5.254657319 -3.323099321 102.501000000
v -5.933657319 -0.422099321 103.042000000
v -5.933657319 -0.422099321 103.875000000
v -7.622657319 6.801900679 102.917000000
v -17.405657319 4.450900679 106.330000000
v -7.557657319 6.521900679 103.051000000
v -7.557657319 6.521900679 102.922000000
v 21.580342681 13.066900679 104.113000000
v 21.580342681 13.066900679 103.700000000
v 22.081342681 8.387900679 103.763000000
v 22.081342681 8.387900679 106.309000000
v 22.401342681 5.397900679 104.929000000
v 22.401342681 5.397900679 103.803000000
v -3.613657319 2.832900679 105.533000000
v -3.613657319 2.832900679 102.966000000
v -3.155657319 0.262900679 103.012000000
v -3.155657319 0.262900679 104.319000000
v 32.699342681 7.591900679 104.894000000
v 32.699342681 7.591900679 104.249000000
v 32.046342681 10.547900680 104.192000000
v 32.046342681 10.547900680 106.292000000
v 35.586342681 8.424900679 104.234000000
v 18.041342681 12.221900679 103.741000000
v 33.766342681 16.497900679 104.155000000
v 33.766342681 16.497900679 104.080000000
v 34.970342681 11.159900679 104.182000000
v 34.970342681 11.159900679 106.701000000
v 9.265342681 5.598900679 105.920000000
v 9.265342681 5.598900679 103.371000000
v 9.763342681 2.672900680 103.420000000
v 9.763342681 2.672900680 104.537000000
v -4.403657319 7.263900680 102.888000000
v -2.122657319 8.123900679 103.268000000
v -4.456657319 7.562900679 103.300000000
v -4.403657319 7.263900680 103.442000000
v 30.879342681 15.828900679 104.172000000
v 30.879342681 15.828900679 104.091000000
v 6.328342681 4.963900679 105.513000000
v 6.328342681 4.963900679 103.404000000
v 5.341342681 9.192900679 103.335000000
v 5.341342681 9.192900679 103.494000000
v 5.169342681 9.930900679 103.142000000
v 8.391342681 10.728900679 103.482000000
v 8.523342681 9.951900680 103.298000000
v 8.523342681 9.951900680 103.851000000
v -19.934657319 3.163900679 102.322000000
v -18.744657319 -3.382099321 102.680000000
v 6.889342681 2.557900679 103.444000000
v 17.808342681 13.061900679 103.333000000
v 10.114342681 0.612900679 103.563000000
v 20.564342681 2.497900679 103.356000000
v 21.517342681 13.659900679 103.835000000
v 31.040342681 15.099900679 104.105000000
v 30.879342681 15.828900679 103.755000000
v 35.586342681 8.424900679 105.408000000
v -6.548657319 2.206900680 102.996000000
v -6.548657319 2.206900680 105.121000000
v 36.319342681 5.175900679 103.870000000
v -6.830657319 -6.398099321 102.345000000
v -5.433657319 -6.874099321 102.269000000
v -5.853657319 -4.401099321 102.448000000
v -4.850657319 -5.051099321 102.372000000
v 7.527342681 -0.178099321 103.055000000
v 6.889342681 2.557900679 104.362000000
v -17.259657319 3.801900679 102.284000000
v -17.405657319 4.450900679 102.922000000
v -17.259657319 3.801900679 103.332000000
v -16.424657319 0.083900679 105.112000000
v -16.424657319 0.083900679 102.487000000
v -15.825657319 -2.580099321 102.633000000
v -15.825657319 -2.580099321 103.852000000
v -15.280657319 -5.006099321 102.705000000
v -6.997657319 -3.615099321 102.537000000
v 43.737342681 18.807900679 104.096000000
v 33.304342681 18.548900679 104.080000000
v 45.466342681 8.156900679 104.291000000
v 44.631342681 13.295900679 106.689000000
v 20.025342681 5.062900679 104.579000000
v 20.025342681 5.062900679 103.828000000
v 19.270342681 7.786900680 103.795000000
v 19.270342681 7.786900680 105.896000000
v 19.632342681 5.007900679 104.594000000
v 31.372342681 17.284900679 104.121000000
v 30.459342681 17.730900679 104.102000000
v -2.690657319 -2.348099321 103.085000000
v -17.405657319 4.450900679 103.022000000
f 9 10 11
f 9 11 12
f 9 12 13
f 9 13 14
f 9 14 15
f 9 15 16
f 9 16 17
f 9 17 18
f 9 18 19
f 9 19 20
f 9 20 21
f 9 21 22
f 9 22 23
f 9 23 24
f 9 24 25
f 9 25 26
f 9 26 27
f 9 27 28
f 9 28 29
f 9 29 30
f 9 30 31
f 9 31 32
f 9 32 33
f 9 33 34
f 9 34 35
f 9 35 36
f 9 36 37
f 9 37 38
f 9 38 39
f 9 39 40
f 9 40 41
f 9 41 42
f 9 42 43
f 9 43 44
f 9 44 45
f 9 45 46
f 9 46 47
f 9 47 48
f 9 48 49
f 9 49 50
f 9 50 51
f 9 51 52
f 9 52 53
f 9 53 54
f 9 54 55
f 9 55 56
f 9 56 57
f 9 57 58
f 9 58 59
f 60 61 31
f 60 31 30
f 60 30 62
f 63 64 21
f 66 67 64
f 66 64 63
f 68 69 70
f 68 70 71
f 72 73 74
f 69 68 75
f 76 77 78
f 80 81 82
f 80 82 83
f 71 70 84
f 71 84 82
f 85 86 19
f 85 19 18
f 85 18 87
f 87 18 17
f 87 17 88
f 89 90 91
f 89 91 92
f 90 32 31
f 90 31 61
f 92 91 86
f 92 86 85
f 73 72 79
f 73 79 95
f 73 95 96
f 96 95 97
f 96 97 98
f 81 40 39
f 81 39 99
f 103 13 12
f 103 12 76
f 104 105 67
f 104 67 66
f 77 76 12
f 77 12 11
f 77 11 106
f 107 10 9
f 107 9 108
f 108 9 59
f 108 59 97
f 109 54 53
f 109 53 110
f 111 42 41
f 111 41 112
f 115 33 32
f 115 32 90
f 115 90 89
f 106 11 10
f 106 10 107
f 116 34 33
f 116 33 115
f 105 24 23
f 105 23 117
f 118 44 43
f 118 43 119
f 120 119 43
f 120 43 42
f 120 42 111
f 121 122 123
f 121 123 124
f 88 17 16
f 88 16 102
f 127 57 56
f 127 56 128
f 128 56 55
f 128 55 123
f 124 123 55
f 124 55 54
f 124 54 109
f 129 58 57
f 129 57 127
f 62 30 29
f 62 29 130
f 130 29 28
f 130 28 131
f 131 28 27
f 131 27 132
f 133 99 39
f 133 39 38
f 133 38 134
f 134 38 37
f 134 37 135
f 112 41 40
f 112 40 81
f 112 81 80
f 136 36 35
f 136 35 113
f 114 113 35
f 114 35 34
f 114 34 116
f 135 37 36
f 135 36 136
f 135 136 137
f 137 136 138
f 137 138 139
f 139 138 140
f 139 140 141
f 142 14 13
f 142 13 103
f 141 140 15
f 141 15 14
f 141 14 142
f 102 16 15
f 102 15 140
f 117 23 22
f 117 22 143
f 143 22 21
f 143 21 64
f 144 47 46
f 144 46 145
f 146 118 122
f 146 122 121
f 132 27 26
f 132 26 147
f 147 26 25
f 147 25 148
f 148 25 24
f 148 24 105
f 148 105 104
f 149 48 47
f 149 47 144
f 150 45 44
f 150 44 118
f 150 118 146
f 145 46 45
f 145 45 150
f 110 53 52
f 110 52 151
f 152 49 48
f 152 48 149
f 153 50 49
f 153 49 152
f 154 51 50
f 154 50 153
f 151 52 51
f 151 51 154
f 83 82 84
f 155 98 97
f 155 97 59
f 155 59 58
f 155 58 129
f 94 66 63
f 94 63 65
f 61 93 65
f 61 65 86
f 61 86 91
f 61 91 90
f 106 107 108
f 106 108 97
f 106 97 95
f 106 95 79
f 106 79 78
f 106 78 77
f 88 102 101
f 88 101 92
f 88 92 85
f 88 85 87
f 112 80 83
f 112 83 125
f 112 125 120
f 112 120 111
f 114 116 115
f 114 115 89
f 114 89 92
f 114 92 101
f 99 68 71
f 99 71 82
f 99 82 81
f 137 139 75
f 137 75 133
f 137 133 134
f 137 134 135
f 141 142 103
f 141 103 76
f 141 76 78
f 141 78 72
f 141 72 74
f 141 74 75
f 141 75 139
f 102 140 138
f 102 138 136
f 102 136 113
f 102 113 100
f 143 64 67
f 143 67 105
f 143 105 117
f 122 118 119
f 122 119 126
f 122 126 128
f 122 128 123
f 132 147 130
f 132 130 131
f 148 104 66
f 148 66 94
f 148 94 60
f 148 60 62
f 148 62 130
f 148 130 147
f 145 150 146
f 145 146 121
f 145 121 149
f 145 149 144
f 152 149 121
f 152 121 124
f 152 124 109
f 152 109 110
f 151 154 153
f 151 153 152
f 151 152 110
f 98 84 70
f 98 70 69
f 98 69 74
f 98 74 73
f 98 73 96
f 155 129 127
f 155 127 128
f 155 128 125
f 155 125 83
f 156 157 158
f 156 158 159
f 156 159 160
f 156 160 161
f 156 161 162
f 156 162 163
f 156 163 164
f 156 164 165
f 156 165 166
f 156 166 167
f 156 167 168
f 156 168 169
f 156 169 170
f 156 170 171
f 156 171 172
f 156 172 173
f 156 173 174
f 156 174 7
f 156 7 3
f 156 3 2
f 156 2 6
f 156 6 7
f 156 7 175
f 156 175 176
f 156 176 177
f 156 177 178
f 156 178 179
f 156 179 180
f 156 180 181
f 156 181 182
f 156 182 183
f 156 183 184
f 156 184 185
f 156 185 186
f 156 186 187
f 156 187 188
f 156 188 189
f 156 189 190
f 156 190 191
f 156 191 192
f 156 192 193
f 156 193 194
f 156 194 195
f 156 195 196
f 156 196 197
f 156 197 198
f 156 198 199
f 156 199 200
f 156 200 201
f 156 201 202
f 156 202 203
f 204 200 199
f 204 199 205
f 206 164 163
f 206 163 207
f 206 207 208
f 209 175 7
f 209 7 210
f 211 212 176
f 211 176 175
f 211 175 209
f 213 214 215
f 213 215 216
f 217 218 201
f 217 201 200
f 217 200 204
f 219 220 221
f 219 221 222
f 223 224 225
f 223 225 226
f 224 198 197
f 224 197 227
f 214 186 185
f 214 185 228
f 229 230 231
f 229 231 232
f 205 199 198
f 205 198 224
f 205 224 223
f 233 234 235
f 233 235 236
f 237 177 176
f 237 176 212
f 238 179 178
f 238 178 239
f 239 178 177
f 239 177 237
f 239 237 240
f 241 242 230
f 241 230 229
f 243 244 245
f 243 245 246
f 246 245 181
f 246 181 180
f 246 180 247
f 248 183 182
f 248 182 249
f 248 249 250
f 251 173 172
f 251 172 252
f 240 237 220
f 240 220 219
f 253 159 158
f 253 158 235
f 228 185 184
f 228 184 254
f 255 157 156
f 255 156 256
f 257 187 186
f 257 186 214
f 257 214 213
f 226 225 258
f 242 259 258
f 259 188 187
f 259 187 257
f 232 231 227
f 232 227 260
f 208 207 261
f 208 261 262
f 260 227 197
f 260 197 196
f 260 196 263
f 264 167 166
f 264 166 265
f 266 168 167
f 266 167 264
f 265 166 165
f 265 165 267
f 268 160 159
f 268 159 253
f 268 253 269
f 267 165 164
f 267 164 206
f 270 174 173
f 270 173 251
f 247 180 179
f 247 179 238
f 262 261 212
f 262 212 211
f 271 7 174
f 271 174 270
f 271 270 272
f 273 274 275
f 273 275 276
f 272 270 274
f 272 274 273
f 277 170 169
f 277 169 278
f 276 275 171
f 276 171 170
f 276 170 277
f 252 172 171
f 252 171 275
f 279 193 192
f 279 192 230
f 279 230 229
f 229 230 192
f 229 192 191
f 229 191 280
f 281 195 194
f 281 194 282
f 282 194 193
f 282 193 279
f 269 253 244
f 269 244 243
f 250 249 234
f 250 234 233
f 278 169 168
f 278 168 266
f 249 182 181
f 249 181 245
f 283 284 285
f 283 285 286
f 286 285 228
f 236 235 158
f 236 158 157
f 236 157 255
f 287 203 202
f 287 202 284
f 287 284 283
f 256 156 203
f 256 203 287
f 284 202 201
f 284 201 218
f 216 215 218
f 216 218 217
f 254 184 183
f 254 183 248
f 280 191 190
f 280 190 288
f 288 190 189
f 288 189 289
f 289 189 188
f 289 188 259
f 289 259 242
f 289 242 241
f 290 161 160
f 290 160 268
f 222 221 162
f 222 162 161
f 222 161 290
f 207 163 162
f 207 162 221
f 263 196 195
f 263 195 281
f 259 257 213
f 259 213 216
f 259 216 226
f 259 226 258
f 227 231 230
f 227 230 242
f 227 242 258
f 227 258 225
f 227 225 224
f 247 238 239
f 247 239 240
f 247 240 219
f 247 219 243
f 247 243 246
f 272 273 262
f 272 262 211
f 272 211 209
f 272 209 291
f 276 277 278
f 276 278 206
f 276 206 208
f 276 208 262
f 276 262 273
f 252 275 274
f 252 274 270
f 252 270 251
f 282 279 229
f 282 229 232
f 278 266 264
f 278 264 265
f 278 265 267
f 278 267 206
f 249 245 244
f 249 244 253
f 249 253 235
f 249 235 234
f 256 287 283
f 256 283 286
f 256 286 233
f 256 233 236
f 256 236 255
f 216 217 204
f 216 204 205
f 216 205 223
f 216 223 226
f 218 215 214
f 218 214 228
f 218 228 285
f 218 285 284
f 254 248 250
f 254 250 233
f 254 233 286
f 254 286 228
f 289 241 229
f 289 229 280
f 289 280 288
f 222 290 268
f 222 268 269
f 222 269 243
f 222 243 219
f 207 221 220
f 207 220 237
f 207 237 212
f 207 212 261
f 263 281 282
f 263 282 232
f 263 232 260
f 1 2 3
f 1 3 4
f 5 6 2
f 5 2 1
f 6 5 7
f 4 3 7
f 4 8 5
f 4 5 1
