v 20.573040880 20.026111290 21.879000000
v 20.472040880 20.193111290 21.879000000
v 20.399040880 20.259111290 21.879000000
v 20.222040880 20.342111290 21.879000000
v 20.125040880 20.356111290 21.879000000
v 19.978040880 20.342111290 21.879000000
v 2.636040880 1.280111291 21.879000000
v 4.140040880 -0.077888709 21.879000000
v 5.884040880 -6.247888709 21.879000000
v 2.948040880 -7.423888709 21.879000000
v 0.200040880 -8.227888710 21.879000000
v -2.377959120 -0.443888710 21.879000000
v -2.667959120 0.432111290 21.879000000
v -2.383959120 0.648111290 21.879000000
v -3.747959120 4.012111290 21.879000000
v -3.949959120 4.509111290 21.879000000
v -5.215959120 8.661111291 21.879000000
v 13.095040880 13.463111290 21.879000000
v 12.324040880 18.389111290 21.879000000
v 21.483040880 16.414111290 21.879000000
v 19.225040880 15.361111290 21.879000000
v 19.299040880 15.091111290 21.879000000
v 20.528040880 10.556111290 21.879000000
v 21.704040880 6.218111291 21.879000000
v 3.583040880 1.525111290 21.879000000
v 20.222040880 20.342111290 25.060000000
v 20.125040880 20.356111290 25.060000000
v 20.399040880 20.259111290 25.060000000
v 20.573040880 20.026111290 25.061000000
v 20.472040880 20.193111290 25.061000000
v 19.978040880 20.342111290 25.059000000
v 12.324040880 18.389111290 25.027000000
v 13.095040880 13.463111290 25.019000000
v -5.215959120 8.661111291 24.942000000
v 5.884040880 -6.247888709 25.138000000
v 4.140040880 -0.077888709 25.146000000
v 0.200040880 -8.227888710 25.229000000
v 2.948040880 -7.423888709 26.604000000
v 14.729040880 13.264111290 25.307000000
v 14.729040880 13.264111290 25.025000000
v 13.800040880 13.648111290 25.022000000
v 17.807040880 14.699111290 25.039000000
v -2.383959120 0.648111290 25.519000000
v -2.667959120 0.432111290 25.456000000
v -3.747959120 4.012111290 27.199000000
v 3.583040880 1.525111290 25.195000000
v 21.704040880 6.218111291 25.125000000
v -2.377959120 -0.443888710 25.027000000
v 20.528040880 10.556111290 27.222000000
v 21.483040880 16.414111290 25.056000000
v 19.299040880 15.091111290 25.045000000
v 2.636040880 1.280111291 25.651000000
v 19.225040880 15.361111290 25.046000000
v -3.949959120 4.509111290 26.952000000
v -0.119959120 3.638111291 26.593000000
f 7 8 9
f 7 9 10
f 7 10 11
f 7 11 12
f 7 12 13
f 7 13 14
f 7 14 15
f 7 15 16
f 7 16 17
f 7 17 18
f 7 18 19
f 7 19 6
f 7 6 5
f 7 5 4
f 7 4 3
f 7 3 2
f 7 2 1
f 7 1 20
f 7 20 21
f 7 21 22
f 7 22 23
f 7 23 24
f 7 24 25
f 26 4 5
f 26 5 27
f 28 3 4
f 28 4 26
f 29 1 2
f 29 2 30
f 30 2 3
f 30 3 28
f 31 6 19
f 31 19 32
f 27 5 6
f 27 6 31
f 32 19 18
f 32 18 33
f 33 18 17
f 33 17 34
f 35 9 8
f 35 8 36
f 37 11 10
f 37 10 38
f 39 40 41
f 40 39 42
f 43 14 13
f 43 13 44
f 45 15 14
f 45 14 43
f 38 10 9
f 38 9 35
f 46 25 24
f 46 24 47
f 44 13 12
f 44 12 48
f 48 12 11
f 48 11 37
f 47 24 23
f 47 23 49
f 50 20 1
f 50 1 29
f 49 23 22
f 49 22 51
f 52 7 25
f 52 25 46
f 36 8 7
f 36 7 52
f 51 22 21
f 51 21 53
f 53 21 20
f 53 20 50
f 34 17 16
f 34 16 54
f 54 16 15
f 54 15 45
f 48 37 38
f 48 38 55
f 55 46 47
f 55 47 49
f 55 49 45
f 55 45 43
f 55 43 44
f 55 44 48
f 36 52 46
f 36 46 55
f 36 55 38
f 36 38 35
f 53 50 29
f 53 29 30
f 53 30 28
f 53 28 26
f 53 26 27
f 53 27 31
f 53 31 32
f 53 32 33
f 53 33 41
f 53 41 40
f 53 40 42
f 53 42 51
f 54 45 49
f 54 49 51
f 54 51 42
f 54 42 39
f 54 39 41
f 54 41 33
f 54 33 34
