v -3.256416859 3.851068002 11.220000000
v 0.788583141 1.204068002 11.220000000
v 1.257583141 2.199068002 11.220000000
v 2.212583141 4.229068002 11.220000000
v 10.233583141 -1.843931998 11.220000000
v 11.550583141 -2.131931998 11.220000000
v 11.543583141 -1.542931998 11.220000000
v 11.531583141 -0.670931998 11.220000000
v 10.924583141 1.447068002 11.220000000
v 14.565583141 8.172068002 11.220000000
v 17.171583141 5.997068002 11.220000000
v 21.166583141 2.663068002 11.220000000
v 14.738583141 -2.717931998 11.220000000
v 14.609583141 -3.128931998 11.220000000
v 15.160583141 -3.413931998 11.220000000
v 16.238583141 -2.888931998 11.220000000
v 14.175583141 -7.148931998 11.220000000
v 13.594583141 -8.347931998 11.220000000
v -0.263416859 -1.031931998 11.220000000
v -4.993416859 -11.085931998 11.220000000
v -9.543416859 -8.716931998 11.220000000
v -13.403416859 -6.706931998 11.220000000
v -11.658416859 -2.203931998 11.220000000
v -10.540416859 -2.204931998 11.220000000
v -10.896416859 -0.498931998 11.220000000
v -10.239416859 0.477068002 11.220000000
v -8.949416859 2.391068002 11.220000000
v -6.892416859 5.442068002 11.220000000
v -3.401416859 3.561068002 11.220000000
v 11.531583141 -0.670931998 16.567000000
v 11.543583141 -1.542931998 17.065000000
v -11.658416859 -2.203931998 14.965000000
v -13.403416859 -6.706931998 15.417000000
v -6.774416859 -1.321931998 19.092000000
v -6.774416859 -1.321931998 19.913000000
v -6.752416859 -1.890931998 19.375000000
v -6.739416859 -2.208931998 19.075000000
v -6.739416859 -2.208931998 19.533000000
v -10.540416859 -2.204931998 16.007000000
v -6.066416859 -1.739931998 19.932000000
v -6.066416859 -1.739931998 19.946000000
v -3.401416859 3.561068002 19.930000000
v 17.171583141 5.997068002 19.019000000
v 14.565583141 8.172068002 14.959000000
v 10.924583141 1.447068002 14.724000000
v 21.166583141 2.663068002 12.833000000
v -6.892416859 5.442068002 15.872000000
v -8.949416859 2.391068002 15.396000000
v -6.853416859 0.658068002 18.142000000
v -6.853416859 0.658068002 18.109000000
v -8.949416859 2.391068002 17.590000000
v -10.239416859 0.477068002 19.978000000
v -6.307416859 -2.208931998 19.928000000
v -6.307416859 -2.208931998 19.952000000
v -9.543416859 -8.716931998 19.940000000
v -4.993416859 -11.085931998 14.702000000
v -6.707416859 -3.022931998 19.946000000
v -6.707416859 -3.022931998 19.955000000
v -7.925416859 -5.463931998 19.946000000
v -0.263416859 -1.031931998 14.967000000
v -0.263416859 -1.031931998 14.977000000
v 13.594583141 -8.347931998 14.716000000
v 14.738583141 -2.717931998 16.677000000
v 11.543583141 -1.542931998 17.452000000
v 11.550583141 -2.131931998 18.049000000
v 10.233583141 -1.843931998 18.449000000
v 14.347583141 -2.741931998 17.201000000
v 14.347583141 -2.741931998 17.083000000
v 14.216583141 -2.712931998 17.240000000
v 14.609583141 -3.128931998 17.458000000
v 14.738583141 -2.717931998 16.971000000
v 14.780583141 -2.582931998 16.811000000
v 14.780583141 -2.582931998 16.709000000
v 15.160583141 -3.413931998 17.459000000
v 14.175583141 -7.148931998 16.234000000
v 16.238583141 -2.888931998 16.355000000
v 0.788583141 1.204068002 17.791000000
v 0.788583141 1.204068002 15.026000000
v -10.896416859 -0.498931998 18.720000000
v 11.824583141 -1.688931998 17.453000000
v -10.540416859 -2.204931998 17.246000000
v -6.739416859 -2.208931998 19.549000000
v -7.792416859 -2.207931998 18.568000000
v -3.256416859 3.851068002 19.929000000
v 1.257583141 2.199068002 19.044000000
v 2.212583141 4.229068002 16.468000000
v 13.649583141 -4.149931998 19.006000000
v 12.306583141 -3.370931998 18.917000000
f 1 2 3
f 1 3 4
f 1 4 5
f 1 5 6
f 1 6 7
f 1 7 8
f 1 8 9
f 1 9 10
f 1 10 11
f 1 11 12
f 1 12 13
f 1 13 14
f 1 14 15
f 1 15 16
f 1 16 17
f 1 17 18
f 1 18 19
f 1 19 20
f 1 20 21
f 1 21 22
f 1 22 23
f 1 23 24
f 1 24 25
f 1 25 26
f 1 26 27
f 1 27 28
f 1 28 29
f 30 8 7
f 30 7 31
f 32 23 22
f 32 22 33
f 34 35 36
f 37 38 36
f 39 24 23
f 39 23 32
f 40 41 42
f 43 11 10
f 43 10 44
f 44 10 9
f 44 9 45
f 46 12 11
f 46 11 43
f 42 29 28
f 42 28 47
f 47 28 27
f 47 27 48
f 49 50 48
f 49 48 51
f 51 48 27
f 51 27 26
f 51 26 52
f 35 34 50
f 35 50 49
f 41 40 53
f 41 53 54
f 33 22 21
f 33 21 55
f 55 21 20
f 55 20 56
f 56 20 19
f 56 19 60
f 61 60 19
f 61 19 18
f 61 18 62
f 63 13 12
f 63 12 46
f 64 31 7
f 64 7 6
f 64 6 65
f 65 6 5
f 65 5 66
f 67 68 69
f 70 14 13
f 70 13 63
f 70 63 71
f 72 73 68
f 72 68 67
f 74 15 14
f 74 14 70
f 62 18 17
f 62 17 75
f 75 17 16
f 75 16 76
f 76 16 15
f 76 15 74
f 77 78 60
f 77 60 61
f 52 26 25
f 52 25 79
f 31 64 80
f 79 25 24
f 79 24 39
f 79 39 81
f 82 38 37
f 81 39 83
f 54 53 38
f 54 38 82
f 84 1 29
f 84 29 42
f 78 2 1
f 78 1 84
f 71 63 73
f 71 73 72
f 85 3 2
f 85 2 78
f 85 78 77
f 86 4 3
f 86 3 85
f 66 5 4
f 66 4 86
f 45 9 8
f 45 8 30
f 52 35 49
f 52 49 51
f 87 75 76
f 87 76 74
f 81 83 37
f 81 37 36
f 81 36 35
f 81 35 52
f 81 52 79
f 54 82 83
f 54 83 39
f 54 39 32
f 54 32 33
f 54 33 55
f 54 55 59
f 54 59 58
f 38 53 40
f 38 40 42
f 38 42 47
f 38 47 48
f 38 48 50
f 38 50 34
f 38 34 36
f 78 84 42
f 78 42 41
f 78 41 54
f 78 54 57
f 78 57 59
f 78 59 55
f 78 55 56
f 78 56 60
f 73 63 46
f 73 46 43
f 73 43 88
f 73 88 69
f 73 69 68
f 85 77 61
f 85 61 62
f 85 62 75
f 85 75 87
f 66 86 85
f 66 85 87
f 66 87 74
f 66 74 70
f 66 70 71
f 66 71 72
f 66 72 67
f 66 67 69
f 66 69 88
f 66 88 80
f 66 80 64
f 66 64 65
f 45 30 31
f 45 31 80
f 45 80 88
f 45 88 43
f 45 43 44
