v -11.765719349 4.495655964 48.229000000
v -12.757719349 9.617655964 48.229000000
v -13.786719349 14.935655964 48.229000000
v -2.987719349 17.415655964 48.229000000
v -2.651719349 15.886655964 48.229000000
v 0.417280651 16.514655964 48.229000000
v 1.540280651 7.553655964 48.229000000
v -0.740719349 7.197655964 48.229000000
v -0.505719349 6.129655964 48.229000000
v -5.382719349 5.421655964 48.229000000
v -4.979719349 2.832655963 48.229000000
v -11.251719349 1.841655964 48.229000000
v -12.757719349 9.617655964 52.979000000
v -11.765719349 4.495655964 50.846000000
v -11.765719349 4.495655964 51.017000000
v -5.382719349 5.421655964 50.828000000
v -5.382719349 5.421655964 50.934000000
v -11.251719349 1.841655964 50.401000000
v -1.724719349 11.672655964 53.003000000
v -1.724719349 11.672655964 50.836000000
v -2.651719349 15.886655964 50.811000000
v -2.651719349 15.886655964 51.387000000
v -4.979719349 2.832655963 50.396000000
v -13.786719349 14.935655964 50.950000000
v -0.740719349 7.197655964 51.281000000
v -0.740719349 7.197655964 50.864000000
v 1.540280651 7.553655964 50.834000000
v -2.987719349 17.415655964 50.801000000
v 0.417280651 16.514655964 50.769000000
v -0.505719349 6.129655964 50.870000000
f 1 2 3
f 1 3 4
f 1 4 5
f 1 5 6
f 1 6 7
f 1 7 8
f 1 8 9
f 1 9 10
f 1 10 11
f 1 11 12
f 13 2 1
f 13 1 14
f 13 14 15
f 15 14 16
f 15 16 17
f 14 1 12
f 14 12 18
f 19 20 21
f 19 21 22
f 18 12 11
f 18 11 23
f 24 3 2
f 24 2 13
f 25 26 20
f 25 20 19
f 26 8 7
f 26 7 27
f 23 11 10
f 23 10 16
f 28 4 3
f 28 3 24
f 22 21 5
f 22 5 4
f 22 4 28
f 29 6 5
f 29 5 21
f 30 9 8
f 30 8 26
f 30 26 25
f 17 16 10
f 17 10 9
f 17 9 30
f 27 7 6
f 27 6 29
f 23 16 14
f 23 14 18
f 22 28 24
f 22 24 13
f 22 13 19
f 17 30 25
f 17 25 19
f 17 19 13
f 17 13 15
f 27 29 21
f 27 21 20
f 27 20 26
