v -16.240634868 8.044807452 15.399000000
v -16.256634868 8.133807452 15.399000000
v -18.058634868 18.478807452 15.399000000
v -18.138634868 18.533807452 15.399000000
v 3.178365132 22.185807452 15.399000000
v 3.243365132 22.196807452 15.399000000
v 4.750365132 12.074807452 15.399000000
v 4.795365132 11.771807452 15.399000000
v 0.691365132 11.441807452 15.399000000
v 4.375365132 -9.088192548 15.399000000
v -5.169634868 -10.468192548 15.399000000
v -5.440634868 -10.862192548 15.399000000
v -8.881634868 9.407807452 15.399000000
v -4.444634868 14.806807452 20.928000000
v -4.444634868 14.806807452 20.927000000
v -4.917634868 15.134807452 21.160000000
v -4.917634868 15.134807452 21.163000000
v -5.169634868 -10.468192548 18.493000000
v 4.375365132 -9.088192548 18.326000000
v -5.440634868 -10.862192548 18.301000000
v -8.881634868 9.407807452 18.311000000
v -8.881634868 9.407807452 18.365000000
v -8.897634868 9.500807452 18.365000000
v -4.975634868 15.461807452 21.352000000
v -4.975634868 15.461807452 21.355000000
v 0.417365132 11.419807452 18.531000000
v 0.417365132 11.419807452 18.516000000
v 0.691365132 11.441807452 18.358000000
v 0.691365132 11.441807452 18.518000000
v 4.795365132 11.771807452 18.319000000
v 4.750365132 12.074807452 18.497000000
v -3.905634868 14.429807452 20.661000000
v -4.283634868 15.582807452 21.356000000
v -1.074634868 16.138807452 21.371000000
v -1.074634868 16.138807452 21.359000000
v 3.178365132 22.185807452 18.377000000
v -16.240634868 8.044807452 18.279000000
v -18.058634868 18.478807452 18.370000000
v -16.256634868 8.133807452 18.331000000
v -18.138634868 18.533807452 18.332000000
v 3.243365132 22.196807452 18.339000000
v -1.380634868 -4.965192548 21.171000000
v -11.891634868 14.242807452 21.360000000
f 1 2 3
f 1 3 4
f 1 4 5
f 1 5 6
f 1 6 7
f 1 7 8
f 1 8 9
f 1 9 10
f 1 10 11
f 1 11 12
f 1 12 13
f 14 15 16
f 14 16 17
f 18 11 10
f 18 10 19
f 20 12 11
f 20 11 18
f 21 22 23
f 17 16 24
f 17 24 25
f 26 27 28
f 26 28 29
f 29 28 9
f 29 9 8
f 29 8 30
f 30 8 7
f 30 7 31
f 27 26 32
f 25 24 33
f 34 35 33
f 35 34 36
f 22 21 13
f 22 13 12
f 22 12 20
f 37 1 13
f 37 13 21
f 15 14 32
f 19 10 9
f 19 9 28
f 38 3 2
f 38 2 39
f 39 2 1
f 39 1 37
f 36 5 4
f 36 4 40
f 40 4 3
f 40 3 38
f 31 7 6
f 31 6 41
f 41 6 5
f 41 5 36
f 15 32 26
f 15 26 29
f 15 29 30
f 15 30 31
f 15 31 34
f 15 34 33
f 15 33 24
f 15 24 16
f 42 18 19
f 42 19 28
f 42 28 27
f 42 27 32
f 42 32 14
f 42 14 17
f 18 42 17
f 18 17 23
f 18 23 22
f 18 22 20
f 43 38 39
f 39 37 21
f 39 21 23
f 39 23 17
f 39 17 25
f 39 25 43
f 40 38 43
f 40 43 25
f 40 25 33
f 40 33 35
f 40 35 36
f 41 36 34
f 41 34 31
