v -67.719431089 -53.370615528 43.159000000
v -67.965431089 -51.212615527 43.159000000
v -68.163431089 -49.811615528 43.159000000
v -69.360431089 -41.403615528 43.159000000
v -70.106431089 -41.135615528 43.159000000
v -84.859431089 -43.888615527 43.159000000
v -84.968431089 -42.992615527 43.159000000
v -85.671431089 -37.169615528 43.159000000
v -86.261431089 -36.419615528 43.159000000
v -69.583431089 -33.476615528 43.159000000
v -68.875431089 -33.316615527 43.159000000
v -70.975431089 -28.032615528 43.159000000
v -67.761431089 -29.110615527 43.159000000
v -67.290431089 -28.878615527 43.159000000
v -64.640431089 -27.571615527 43.159000000
v -62.711431089 -36.964615528 43.159000000
v -65.725431089 -35.819615528 43.159000000
v -65.063431089 -37.638615527 43.159000000
v -66.423431089 -36.144615527 43.159000000
v -66.448431089 -37.505615528 43.159000000
v -67.993431089 -37.255615528 43.159000000
v -68.446431089 -37.643615528 43.159000000
v -68.052431089 -40.450615528 43.159000000
v -67.857431089 -40.715615528 43.159000000
v -66.690431089 -42.301615528 43.159000000
v -63.780431089 -39.766615528 43.159000000
v -61.445431089 -57.311615528 43.159000000
v -60.949431089 -56.846615528 43.159000000
v -61.038431089 -57.290615528 43.159000000
v -55.184431089 -56.476615528 43.159000000
v -54.463431089 -60.470615528 43.159000000
v -53.594431089 -65.287615527 43.159000000
v -60.237431089 -66.184615527 43.159000000
v -59.937431089 -72.264615527 43.159000000
v -73.661431089 -73.783615528 43.159000000
v -74.646431089 -68.131615528 43.159000000
v -75.660431089 -68.267615528 43.159000000
v -74.887431089 -63.288615528 43.159000000
v -74.798431089 -63.276615527 43.159000000
v -76.638431089 -58.967615528 43.159000000
v -69.911431089 -58.021615528 43.159000000
v -69.382431089 -57.728615528 43.159000000
v -69.503431089 -57.963615527 43.159000000
v -67.233431089 -57.644615527 43.159000000
v -68.278431089 -40.794615528 43.159000000
v -67.901431089 -41.640615528 43.159000000
v -68.015431089 -40.745615528 43.159000000
v -76.638431089 -58.967615528 47.501000000
v -74.798431089 -63.276615527 50.722000000
v -53.594431089 -65.287615527 46.764000000
v -54.463431089 -60.470615528 47.980000000
v -67.761431089 -29.110615527 49.552000000
v -70.975431089 -28.032615528 46.398000000
v -68.875431089 -33.316615527 47.631000000
v -84.968431089 -42.992615527 47.916000000
v -84.968431089 -42.992615527 47.281000000
v -84.859431089 -43.888615527 46.963000000
v -61.153431089 -61.393615528 48.091000000
v -61.153431089 -61.393615528 48.033000000
v -54.463431089 -60.470615528 48.004000000
v -68.163431089 -49.811615528 48.272000000
v -68.163431089 -49.811615528 47.177000000
v -67.965431089 -51.212615527 49.617000000
v -69.583431089 -33.476615528 46.863000000
v -70.106431089 -41.135615528 47.010000000
v -67.233431089 -57.644615527 47.093000000
v -67.233431089 -57.644615527 47.443000000
v -66.887431089 -57.595615528 47.441000000
v -75.660431089 -68.267615528 47.401000000
v -74.646431089 -68.131615528 47.395000000
v -74.887431089 -63.288615528 50.722000000
v -60.237431089 -66.184615527 47.306000000
v -60.237431089 -66.184615527 46.821000000
v -60.760431089 -66.255615528 46.825000000
v -60.760431089 -66.255615528 47.310000000
v -73.661431089 -73.783615528 46.481000000
v -69.784431089 -36.353615528 49.988000000
v -69.784431089 -36.353615528 49.580000000
v -69.724431089 -36.596615528 49.533000000
v -66.423431089 -36.144615527 49.370000000
v -65.063431089 -37.638615527 46.280000000
v -68.278431089 -40.794615528 47.016000000
v -68.015431089 -40.745615528 47.017000000
v -68.015431089 -40.745615528 48.486000000
v -67.901431089 -41.640615528 48.484000000
v -68.052431089 -40.450615528 47.332000000
v -68.446431089 -37.643615528 47.271000000
v -67.993431089 -37.255615528 47.836000000
v -66.448431089 -37.505615528 46.929000000
v -69.360431089 -41.403615528 46.589000000
v -59.937431089 -72.264615527 46.344000000
v -55.184431089 -56.476615528 46.651000000
v -61.038431089 -57.290615528 46.729000000
v -67.857431089 -40.715615528 48.646000000
v -67.857431089 -40.715615528 47.018000000
v -66.000431089 -50.974615527 49.168000000
v -66.000431089 -50.974615527 49.541000000
v -65.834431089 -51.154615528 49.310000000
v -69.911431089 -58.021615528 47.460000000
v -86.261431089 -36.419615528 46.962000000
v -61.673431089 -57.525615527 47.379000000
v -61.673431089 -57.525615527 46.786000000
v -61.445431089 -57.311615528 46.722000000
v -61.445431089 -57.311615528 47.129000000
v -61.673431089 -57.525615527 47.878000000
v -61.692431089 -57.381615528 47.380000000
v -61.692431089 -57.381615528 47.775000000
v -64.102431089 -59.798615527 49.915000000
v -64.102431089 -59.798615527 50.045000000
v -64.043431089 -59.743615528 49.980000000
v -60.684431089 -63.465615528 47.506000000
v -60.684431089 -63.465615528 49.205000000
v -61.016431089 -62.411615527 47.778000000
v -61.016431089 -62.411615527 49.957000000
v -61.153431089 -61.393615528 50.664000000
v -60.949431089 -56.846615528 46.584000000
v -67.449431089 -49.400615527 47.936000000
v -68.278431089 -40.794615528 48.220000000
v -69.417431089 -41.006615528 47.013000000
v -69.417431089 -41.006615528 47.065000000
v -69.360431089 -41.403615528 47.070000000
v -66.690431089 -42.301615528 50.325000000
v -66.690431089 -42.301615528 49.598000000
v -66.240431089 -42.912615527 49.964000000
v -64.640431089 -27.571615527 47.052000000
v -67.290431089 -28.878615527 49.236000000
v -67.290431089 -28.878615527 50.085000000
v -62.092431089 -57.437615528 47.777000000
v -65.725431089 -35.819615528 49.749000000
v -62.711431089 -36.964615528 46.797000000
v -67.719431089 -53.370615528 47.160000000
v -63.780431089 -39.766615528 47.156000000
v -66.416431089 -35.791615528 49.744000000
v -66.416431089 -35.791615528 50.004000000
v -66.174431089 -35.750615528 50.005000000
v -66.413431089 -35.591615528 49.784000000
v -67.495431089 -49.361615527 47.895000000
v -71.674431089 -60.643615528 50.050000000
v -71.674431089 -60.643615528 49.151000000
v -71.501431089 -61.850615527 50.021000000
v -72.301431089 -60.998615528 49.344000000
v -70.987431089 -58.616615527 49.081000000
v -70.987431089 -58.616615527 47.781000000
v -71.894431089 -59.117615527 48.051000000
v -71.894431089 -59.117615527 50.087000000
v -70.203431089 -59.324615528 48.355000000
v -69.382431089 -57.728615528 47.302000000
v -69.503431089 -57.963615527 47.457000000
v -84.501431089 -42.407615528 48.435000000
v -85.671431089 -37.169615528 47.898000000
v -64.102431089 -59.798615527 49.261000000
v -63.596431089 -60.218615527 49.605000000
v -64.492431089 -60.163615528 49.482000000
v -73.323431089 -59.909615528 48.478000000
v -67.217431089 -29.293615527 50.086000000
v -69.981431089 -36.386615528 49.987000000
v -66.089431089 -35.680615528 50.106000000
v -83.668431089 -39.717615528 51.075000000
v -70.330431089 -37.355615527 50.987000000
f 1 2 3
f 1 3 4
f 1 4 5
f 1 5 6
f 1 6 7
f 1 7 8
f 1 8 9
f 1 9 10
f 1 10 11
f 1 11 12
f 1 12 13
f 1 13 14
f 1 14 15
f 1 15 16
f 1 16 17
f 1 17 18
f 1 18 19
f 1 19 20
f 1 20 21
f 1 21 22
f 1 22 23
f 1 23 24
f 1 24 25
f 1 25 26
f 1 26 27
f 1 27 28
f 1 28 29
f 1 29 30
f 1 30 31
f 1 31 32
f 1 32 33
f 1 33 34
f 1 34 35
f 1 35 36
f 1 36 37
f 1 37 38
f 1 38 39
f 1 39 40
f 1 40 41
f 1 41 42
f 1 42 43
f 1 43 44
f 45 46 47
f 48 40 39
f 48 39 49
f 50 32 31
f 50 31 51
f 52 13 12
f 52 12 53
f 53 12 11
f 53 11 54
f 55 56 7
f 55 7 6
f 55 6 57
f 58 59 51
f 58 51 60
f 61 62 3
f 54 11 10
f 54 10 64
f 57 6 5
f 57 5 65
f 66 67 68
f 69 37 36
f 69 36 70
f 71 38 37
f 71 37 69
f 72 73 74
f 72 74 75
f 70 36 35
f 70 35 76
f 77 78 79
f 80 19 18
f 80 18 81
f 82 45 47
f 82 47 83
f 84 83 47
f 84 47 46
f 84 46 85
f 86 23 22
f 86 22 87
f 88 21 20
f 88 20 89
f 89 20 19
f 89 19 80
f 65 5 4
f 65 4 90
f 73 33 32
f 73 32 50
f 91 34 33
f 91 33 73
f 91 73 72
f 76 35 34
f 76 34 91
f 60 51 31
f 60 31 30
f 60 30 92
f 92 30 29
f 92 29 93
f 94 95 83
f 94 83 84
f 95 24 23
f 95 23 86
f 99 41 40
f 99 40 48
f 64 10 9
f 64 9 100
f 101 102 103
f 101 103 104
f 105 101 106
f 105 106 107
f 108 109 110
f 75 74 111
f 75 111 112
f 112 111 113
f 112 113 114
f 114 113 59
f 114 59 58
f 114 58 115
f 93 29 28
f 93 28 116
f 49 39 38
f 49 38 71
f 118 82 119
f 118 119 120
f 120 119 90
f 120 90 121
f 122 123 124
f 85 46 45
f 85 45 82
f 85 82 118
f 125 15 14
f 125 14 126
f 125 126 127
f 107 106 128
f 129 17 16
f 129 16 130
f 130 16 15
f 130 15 125
f 81 18 17
f 81 17 129
f 116 28 27
f 116 27 103
f 104 103 27
f 104 27 26
f 104 26 132
f 123 25 24
f 123 24 95
f 123 95 94
f 132 26 25
f 132 25 123
f 132 123 122
f 87 22 21
f 87 21 88
f 133 134 135
f 134 133 136
f 121 90 4
f 138 139 140
f 139 138 141
f 142 143 144
f 142 144 145
f 143 142 146
f 147 42 41
f 147 41 99
f 148 43 42
f 148 42 147
f 150 8 7
f 150 7 56
f 100 9 8
f 100 8 150
f 109 108 151
f 145 144 154
f 126 14 13
f 126 13 52
f 127 126 155
f 78 77 156
f 115 58 102
f 115 102 101
f 115 101 105
f 67 66 44
f 67 44 43
f 67 43 148
f 59 113 111
f 59 111 74
f 59 74 73
f 59 73 50
f 59 50 51
f 136 133 135
f 136 135 157
f 136 157 155
f 136 155 52
f 136 52 53
f 136 53 54
f 136 54 64
f 63 131 98
f 63 98 97
f 158 150 56
f 158 56 149
f 158 149 55
f 158 55 57
f 158 57 65
f 158 65 90
f 158 90 119
f 158 119 82
f 158 82 83
f 158 83 95
f 158 95 86
f 158 86 159
f 156 77 134
f 156 134 136
f 156 136 64
f 156 64 100
f 156 100 150
f 156 150 158
f 156 158 159
f 117 137 61
f 117 61 63
f 117 63 97
f 145 154 141
f 145 141 138
f 70 75 112
f 70 112 114
f 70 114 115
f 70 115 49
f 70 49 71
f 70 71 69
f 140 146 142
f 140 142 145
f 140 145 138
f 127 155 157
f 127 157 129
f 127 129 130
f 127 130 125
f 155 126 52
f 134 77 79
f 134 79 87
f 134 87 88
f 134 88 89
f 134 89 80
f 134 80 81
f 134 81 129
f 134 129 157
f 134 157 135
f 137 117 96
f 137 96 98
f 137 98 131
f 137 131 66
f 137 66 68
f 137 68 153
f 137 153 108
f 137 108 110
f 137 110 124
f 137 124 123
f 137 123 94
f 137 94 84
f 137 84 85
f 137 85 118
f 137 118 120
f 137 120 121
f 137 121 62
f 78 156 159
f 78 159 86
f 78 86 87
f 78 87 79
f 102 58 60
f 102 60 92
f 102 92 93
f 102 93 116
f 102 116 103
f 152 128 106
f 152 106 101
f 152 101 104
f 152 104 132
f 152 132 122
f 152 122 124
f 152 124 110
f 152 110 109
f 67 148 147
f 67 147 99
f 67 99 48
f 67 48 49
f 67 49 115
f 67 115 105
f 67 105 107
f 67 107 128
f 67 128 152
f 67 152 151
f 67 151 153
f 67 153 68
f 146 140 139
f 146 139 141
f 146 141 154
f 146 154 144
f 146 144 143
f 75 70 76
f 75 76 91
f 75 91 72
