v -5.813342399 -14.255488877 37.049000000
v -18.409342399 -16.639488878 37.049000000
v -19.229342399 -13.226488877 37.049000000
v -20.057342399 -9.777488878 37.049000000
v -7.483342399 -7.291488877 37.049000000
v -5.913342399 -6.980488878 37.049000000
v -6.427342399 -4.663488878 37.049000000
v -5.748342399 -4.368488877 37.049000000
v -5.067342399 -4.994488877 37.049000000
v -3.451342399 -4.917488878 37.049000000
v -1.837342399 -6.548488878 37.049000000
v 3.313657601 -5.525488878 37.049000000
v 7.766657601 -4.640488878 37.049000000
v 8.486657601 -7.704488877 37.049000000
v 9.313657601 -11.225488878 37.049000000
v -0.680342399 -13.349488878 37.049000000
v -0.951342399 -12.795488877 37.049000000
v -3.229342399 -13.766488877 37.049000000
v -3.410342399 -13.800488877 37.049000000
v -3.439342399 -13.662488878 37.049000000
v -3.473342399 -13.812488877 37.049000000
v 8.486657601 -7.704488877 43.972000000
v 7.766657601 -4.640488878 39.938000000
v -4.224342399 -9.890488878 43.949000000
v -4.224342399 -9.890488878 43.858000000
v -4.103342399 -9.871488878 43.854000000
v -2.519342399 -9.618488877 43.805000000
v -2.519342399 -9.618488877 43.727000000
v -2.519342399 -9.618488877 42.610000000
v -20.057342399 -9.777488878 39.539000000
v -19.229342399 -13.226488877 44.146000000
v 3.313657601 -5.525488878 39.978000000
v -4.127342399 -10.354488878 43.939000000
v -4.127342399 -10.354488878 43.854000000
v -2.418342399 -9.803488878 43.801000000
v -2.418342399 -9.803488878 43.985000000
v -2.489342399 -9.673488878 43.804000000
v -2.308342399 -10.026488878 42.506000000
v -2.308342399 -10.026488878 43.692000000
v -2.308342399 -10.026488878 43.797000000
v -4.015342399 -10.334488877 43.851000000
v -4.876342399 -6.757488878 44.012000000
v -4.876342399 -6.757488878 40.039000000
v -4.995342399 -6.799488878 40.041000000
v -4.995342399 -6.799488878 43.912000000
v -18.409342399 -16.639488878 39.676000000
v -1.837342399 -6.548488878 40.025000000
v -1.837342399 -6.548488878 41.664000000
v -2.242342399 -8.373488878 42.226000000
v -3.788342399 -6.168488878 43.100000000
v -3.788342399 -6.168488878 40.017000000
v -5.854342399 -7.248488878 40.058000000
v -5.854342399 -7.248488878 43.165000000
v -4.998342399 -10.492488878 43.240000000
v -4.998342399 -10.492488878 43.906000000
v -5.793342399 -11.887488877 42.369000000
v -6.463342399 -13.062488877 41.075000000
v -6.463342399 -13.062488877 41.636000000
v -4.998342399 -10.492488878 44.164000000
v -5.085342399 -10.407488878 44.034000000
v -4.697342399 -9.965488877 43.568000000
v -4.697342399 -9.965488877 43.565000000
v -4.698342399 -9.967488877 43.567000000
v -3.451342399 -4.917488878 39.975000000
v -5.067342399 -4.994488877 39.982000000
v -3.101342399 -6.800488877 40.036000000
v -3.101342399 -6.800488877 42.663000000
v -5.748342399 -4.368488877 39.963000000
v -7.151342399 -7.925488877 42.036000000
v -7.151342399 -7.925488877 40.356000000
v -7.482342399 -8.098488878 40.495000000
v -7.482342399 -8.098488878 41.748000000
v -7.488342399 -7.424488878 41.865000000
v -7.488342399 -7.424488878 39.633000000
v -7.483342399 -7.291488877 41.893000000
v -7.483342399 -7.291488877 39.464000000
v -5.424342399 -10.081488878 43.534000000
v -5.424342399 -10.081488878 42.984000000
v -6.052342399 -9.476488877 42.607000000
v 3.305657601 -5.527488878 39.978000000
v 3.305657601 -5.527488878 37.049000000
v -6.501342399 -13.249488877 40.852000000
v -6.501342399 -13.249488877 41.573000000
v -5.813342399 -14.255488877 41.924000000
v -5.813342399 -14.255488877 39.419000000
v -3.473342399 -13.812488877 43.819000000
v -3.439342399 -13.662488878 43.873000000
v -3.410342399 -13.800488877 43.870000000
v -3.229342399 -13.766488877 43.727000000
v -0.951342399 -12.795488877 40.055000000
v -0.951342399 -12.795488877 41.854000000
v -0.680342399 -13.349488878 39.328000000
v -5.913342399 -6.980488878 43.167000000
v -5.913342399 -6.980488878 40.049000000
v -6.427342399 -4.663488878 39.975000000
v -4.701342399 -9.966488877 43.565000000
v 9.313657601 -11.225488878 39.557000000
v -1.769342399 -11.126488877 42.247000000
v -2.348342399 -9.944488877 43.799000000
v -13.593342399 24.641511123 37.049000000
v -16.137342399 27.652511123 37.049000000
v -9.272342399 29.203511123 37.049000000
v -8.498342399 26.814511122 37.049000000
v -8.498342399 26.814511122 39.882000000
v -9.272342399 29.203511123 39.386000000
v -16.137342399 27.652511123 39.294000000
v -13.593342399 24.641511123 40.008000000
v 4.557657601 29.074511123 37.049000000
v 7.046657601 30.264511122 37.049000000
v 12.872657601 19.304511122 37.049000000
v 10.349657601 18.020511122 37.049000000
v 7.634657601 16.638511122 37.049000000
v 2.136657601 27.917511122 37.049000000
v 2.136657601 27.917511122 39.953000000
v 7.634657601 16.638511122 39.851000000
v 7.046657601 30.264511122 39.846000000
v 4.557657601 29.074511123 40.734000000
v 12.872657601 19.304511122 39.827000000
v 10.349657601 18.020511122 40.739000000
v -1.568342399 4.975511122 37.049000000
v -9.814342399 3.526511122 37.049000000
v -11.982342399 3.145511122 37.049000000
v -12.456342399 5.567511123 37.049000000
v -10.449342399 5.977511123 37.049000000
v -11.098342399 8.485511122 37.049000000
v -3.783342399 9.862511123 37.049000000
v -3.389342399 10.147511123 37.049000000
v -2.735342399 12.494511123 37.049000000
v -2.877342399 13.125511123 37.049000000
v -4.070342399 12.946511122 37.049000000
v -11.095342399 11.890511123 37.049000000
v -11.627342399 13.379511123 37.049000000
v -3.940342399 14.787511122 37.049000000
v -3.898342399 14.990511122 37.049000000
v -3.716342399 14.829511123 37.049000000
v -3.219342399 14.920511123 37.049000000
v -3.001342399 18.551511123 37.049000000
v -1.464342399 18.956511122 37.049000000
v 1.848657601 19.828511123 37.049000000
v 3.764657601 9.321511122 37.049000000
v 4.424657601 9.306511123 37.049000000
v 4.321657601 7.877511122 37.049000000
v 4.518657601 6.833511123 37.049000000
v 4.725657601 5.740511122 37.049000000
v 6.438657601 -3.327488878 37.049000000
v 3.163657601 -3.876488877 37.049000000
v 0.298657601 -4.356488878 37.049000000
v -0.183342399 -1.947488878 37.049000000
v -4.534342399 -3.840488877 37.049000000
v -5.069342399 -3.307488877 37.049000000
v -6.238342399 2.663511123 37.049000000
v -1.528342399 4.777511123 37.049000000
v -6.238342399 2.663511123 39.752000000
v -5.069342399 -3.307488877 39.766000000
v 3.163657601 -3.876488877 42.681000000
v 6.438657601 -3.327488878 39.582000000
v -4.534342399 -3.840488877 39.786000000
v -0.183342399 -1.947488878 39.979000000
v -10.449342399 5.977511123 38.073000000
v -12.456342399 5.567511123 39.536000000
v -11.098342399 8.485511122 39.589000000
v -10.449342399 5.977511123 40.551000000
v -3.940342399 14.787511122 40.240000000
v -11.627342399 13.379511123 40.207000000
v 4.424657601 9.306511123 39.124000000
v 3.764657601 9.321511122 39.725000000
v 0.298657601 -4.356488878 39.985000000
v 0.323657601 10.456511122 42.076000000
v 0.323657601 10.456511122 41.947000000
v -1.464342399 18.956511122 41.958000000
v -1.464342399 18.956511122 42.062000000
v 1.848657601 19.828511123 40.173000000
v -2.735342399 12.494511123 40.638000000
v -3.389342399 10.147511123 39.539000000
v -3.389342399 10.147511123 40.016000000
v -3.219342399 14.920511123 40.649000000
v -3.716342399 14.829511123 40.241000000
v -3.716342399 14.829511123 40.367000000
v -3.898342399 14.990511122 40.286000000
v -4.070342399 12.946511122 39.810000000
v -4.070342399 12.946511122 39.961000000
v -3.353342399 7.428511122 40.534000000
v -3.353342399 7.428511122 40.882000000
v -2.797342399 7.941511123 40.387000000
v -2.471342399 8.242511122 40.097000000
v -2.471342399 8.242511122 40.301000000
v -1.197342399 9.417511122 41.129000000
v -1.197342399 9.417511122 41.096000000
v -1.106342399 9.407511123 41.178000000
v 0.570657601 9.206511122 42.669000000
v 0.570657601 9.206511122 42.070000000
v 0.532657601 9.399511122 42.071000000
v 0.532657601 9.399511122 41.952000000
v 3.764657601 9.321511122 40.310000000
v 2.312657601 9.356511123 41.047000000
v 0.532657601 9.399511122 42.669000000
v 4.321657601 7.877511122 39.478000000
v 4.518657601 6.833511123 39.488000000
v -2.471342399 8.242511122 39.724000000
v -2.159342399 7.933511122 39.953000000
v -2.159342399 7.933511122 39.902000000
v -2.109342399 7.682511123 39.898000000
v -2.109342399 7.682511123 39.954000000
v -2.197342399 7.970511123 39.925000000
v 4.725657601 5.740511122 39.498000000
v 1.425657601 4.892511123 42.653000000
v 1.425657601 4.892511123 42.673000000
v 1.473657601 4.904511122 42.628000000
v 4.725657601 5.740511122 40.862000000
v -1.568342399 4.975511122 39.961000000
v -1.568342399 4.975511122 39.590000000
v -1.528342399 4.777511123 39.961000000
v -3.783342399 9.862511123 39.615000000
v -3.607342399 9.366511122 39.809000000
v -11.095342399 11.890511123 39.834000000
v -2.877342399 13.125511123 40.632000000
v 4.518657601 6.833511123 40.846000000
v -3.001342399 18.551511123 41.178000000
v -9.814342399 3.526511122 37.913000000
v -9.814342399 3.526511122 39.688000000
v -11.982342399 3.145511122 39.486000000
v -1.780342399 6.035511122 39.958000000
v -2.109342399 7.682511123 40.531000000
v -2.911342399 7.518511122 40.533000000
v 1.210657601 5.980511122 42.642000000
v 1.210657601 5.980511122 42.672000000
v 1.281657601 5.998511123 42.604000000
v -14.122342399 22.455511122 37.049000000
v -7.641342399 24.364511123 37.049000000
v -6.584342399 24.675511123 37.049000000
v -7.121342399 22.650511122 37.049000000
v -6.759342399 21.456511122 37.049000000
v -5.906342399 18.642511123 37.049000000
v -12.456342399 16.885511123 37.049000000
v -13.637342399 20.162511122 37.049000000
v -13.637342399 20.162511122 40.173000000
v -12.456342399 16.885511123 39.793000000
v -6.759342399 21.456511122 40.321000000
v -7.121342399 22.650511122 37.995000000
v -7.121342399 22.650511122 40.083000000
v -6.584342399 24.675511123 37.488000000
v -7.641342399 24.364511123 37.515000000
v -5.906342399 18.642511123 39.995000000
v -14.122342399 22.455511122 39.727000000
v -7.641342399 24.364511123 39.741000000
f 120 121 122
f 120 122 123
f 120 123 124
f 120 124 125
f 120 125 126
f 120 126 127
f 120 127 128
f 120 128 129
f 120 129 130
f 120 130 131
f 120 131 132
f 120 132 133
f 120 133 134
f 120 134 135
f 120 135 136
f 120 136 137
f 120 137 138
f 120 138 139
f 120 139 140
f 120 140 141
f 120 141 142
f 120 142 143
f 120 143 144
f 120 144 145
f 120 145 146
f 120 146 147
f 120 147 148
f 120 148 149
f 120 149 150
f 120 150 151
f 120 151 152
f 153 151 150
f 153 150 154
f 155 146 145
f 155 145 156
f 154 150 149
f 154 149 157
f 157 149 148
f 157 148 158
f 159 124 123
f 159 123 160
f 161 125 124
f 161 124 159
f 161 159 162
f 163 133 132
f 163 132 164
f 165 141 140
f 165 140 166
f 167 147 146
f 167 146 155
f 168 169 170
f 168 170 171
f 172 139 138
f 172 138 170
f 173 128 127
f 173 127 174
f 173 174 175
f 176 136 135
f 176 135 177
f 176 177 178
f 179 134 133
f 179 133 163
f 177 135 134
f 177 134 179
f 178 177 180
f 178 180 181
f 182 183 184
f 185 186 184
f 190 191 189
f 192 193 169
f 192 169 168
f 193 192 196
f 196 192 191
f 196 191 190
f 197 142 141
f 197 141 165
f 198 143 142
f 198 142 197
f 158 148 147
f 158 147 167
f 186 185 199
f 200 201 202
f 200 202 203
f 199 185 204
f 201 200 204
f 156 145 144
f 156 144 205
f 206 207 208
f 205 209 208
f 210 211 120
f 210 120 152
f 210 152 212
f 212 152 151
f 212 151 153
f 213 126 125
f 213 125 161
f 175 174 214
f 174 127 126
f 174 126 213
f 164 132 131
f 164 131 215
f 215 131 130
f 215 130 180
f 181 180 130
f 181 130 129
f 181 129 216
f 216 129 128
f 216 128 173
f 209 205 144
f 209 144 143
f 209 143 198
f 209 198 217
f 171 170 138
f 171 138 137
f 171 137 218
f 218 137 136
f 218 136 176
f 162 159 219
f 162 219 220
f 220 219 121
f 160 123 122
f 160 122 221
f 221 122 121
f 221 121 219
f 223 203 202
f 183 182 224
f 207 206 225
f 207 225 226
f 217 198 227
f 226 225 227
f 194 166 140
f 194 140 139
f 194 139 172
f 212 153 154
f 212 154 157
f 212 157 158
f 174 213 161
f 174 161 162
f 174 162 182
f 174 182 184
f 174 184 186
f 174 186 214
f 215 180 177
f 215 177 179
f 215 179 163
f 215 163 164
f 218 176 178
f 218 178 181
f 218 181 216
f 218 216 173
f 218 173 175
f 218 175 214
f 218 214 186
f 218 186 187
f 218 187 189
f 218 189 191
f 218 191 192
f 218 192 168
f 218 168 171
f 223 224 182
f 223 182 162
f 223 162 220
f 223 220 211
f 223 211 222
f 221 219 159
f 221 159 160
f 155 207 226
f 155 226 190
f 155 190 189
f 155 189 188
f 155 188 199
f 155 199 204
f 155 204 200
f 155 200 203
f 155 203 222
f 155 222 210
f 155 210 212
f 155 212 158
f 155 158 167
f 183 224 202
f 183 202 201
f 183 201 204
f 183 204 185
f 183 185 184
f 217 227 225
f 217 225 206
f 217 206 208
f 217 208 209
f 207 155 156
f 207 156 205
f 207 205 208
f 226 227 198
f 226 198 197
f 226 197 165
f 226 165 166
f 226 166 195
f 226 195 196
f 226 196 190
f 194 172 170
f 194 170 169
f 194 169 193
f 228 229 230
f 228 230 231
f 228 231 232
f 228 232 233
f 228 233 234
f 228 234 235
f 236 235 234
f 236 234 237
f 238 232 231
f 238 231 239
f 238 239 240
f 241 230 229
f 241 229 242
f 243 233 232
f 243 232 238
f 239 231 230
f 239 230 241
f 244 228 235
f 244 235 236
f 240 239 242
f 240 242 245
f 245 242 229
f 245 229 228
f 245 228 244
f 237 234 233
f 237 233 243
f 242 239 241
f 245 244 236
f 245 236 238
f 245 238 240
f 237 243 238
f 237 238 236
f 100 101 102
f 100 102 103
f 104 103 102
f 104 102 105
f 106 101 100
f 106 100 107
f 105 102 101
f 105 101 106
f 107 100 103
f 107 103 104
f 107 104 105
f 107 105 106
f 1 2 3
f 1 3 4
f 1 4 5
f 1 5 6
f 1 6 7
f 1 7 8
f 1 8 9
f 1 9 10
f 1 10 11
f 1 11 12
f 1 12 13
f 1 13 14
f 1 14 15
f 1 15 16
f 1 16 17
f 1 17 18
f 1 18 19
f 1 19 20
f 1 20 21
f 22 14 13
f 22 13 23
f 24 25 26
f 27 28 29
f 30 4 3
f 30 3 31
f 23 13 12
f 23 12 32
f 33 34 25
f 33 25 24
f 35 36 37
f 28 27 37
f 38 39 40
f 34 33 41
f 42 43 44
f 42 44 45
f 31 3 2
f 31 2 46
f 47 48 49
f 50 51 43
f 50 43 42
f 45 44 52
f 45 52 53
f 57 58 56
f 55 59 60
f 61 62 63
f 59 55 54
f 64 10 9
f 64 9 65
f 48 47 66
f 48 66 67
f 47 11 10
f 47 10 64
f 65 9 8
f 65 8 68
f 67 66 51
f 67 51 50
f 69 70 71
f 69 71 72
f 73 74 70
f 73 70 69
f 75 76 74
f 75 74 73
f 76 5 4
f 76 4 30
f 77 78 79
f 72 71 79
f 80 81 11
f 80 11 47
f 58 57 82
f 58 82 83
f 84 85 1
f 84 1 21
f 84 21 86
f 86 21 20
f 86 20 87
f 87 20 19
f 87 19 88
f 89 18 17
f 89 17 90
f 89 90 91
f 88 19 18
f 88 18 89
f 90 17 16
f 90 16 92
f 93 94 6
f 93 6 5
f 93 5 76
f 93 76 75
f 95 7 6
f 95 6 94
f 68 8 7
f 68 7 95
f 53 52 94
f 53 94 93
f 78 77 96
f 62 61 96
f 46 2 1
f 46 1 85
f 83 82 85
f 83 85 84
f 97 15 14
f 97 14 22
f 92 16 15
f 92 15 97
f 91 90 98
f 36 35 99
f 40 39 99
f 67 50 42
f 67 42 24
f 67 24 26
f 67 26 29
f 67 29 49
f 67 49 48
f 94 52 44
f 94 44 43
f 94 43 51
f 94 51 66
f 94 66 47
f 94 47 64
f 94 64 65
f 94 65 68
f 94 68 95
f 62 96 77
f 62 77 79
f 62 79 71
f 62 71 70
f 62 70 74
f 62 74 76
f 62 76 30
f 62 30 31
f 62 31 60
f 62 60 59
f 62 59 63
f 85 82 57
f 85 57 56
f 85 56 55
f 85 55 60
f 85 60 31
f 85 31 46
f 83 84 86
f 83 86 87
f 83 87 33
f 83 33 24
f 83 24 42
f 83 42 45
f 83 45 53
f 83 53 93
f 83 93 75
f 83 75 73
f 83 73 69
f 83 69 72
f 83 72 79
f 83 79 78
f 83 78 96
f 83 96 61
f 83 61 63
f 83 63 54
f 83 54 56
f 83 56 58
f 22 36 99
f 22 99 39
f 22 39 98
f 22 98 90
f 22 90 92
f 22 92 97
f 91 98 38
f 91 38 41
f 91 41 33
f 91 33 87
f 91 87 88
f 91 88 89
f 40 99 35
f 40 35 37
f 40 37 27
f 40 27 26
f 40 26 25
f 40 25 34
f 40 34 41
f 36 22 23
f 36 23 80
f 36 80 47
f 36 47 49
f 36 49 28
f 36 28 37
f 108 109 110
f 108 110 111
f 108 111 112
f 108 112 113
f 114 113 112
f 114 112 115
f 116 109 108
f 116 108 117
f 118 110 109
f 118 109 116
f 119 111 110
f 119 110 118
f 117 108 113
f 117 113 114
f 115 112 111
f 115 111 119
f 119 118 116
f 119 116 117
f 115 119 117
f 115 117 114
