v 2.766065732 3.620163755 115.029000000
v 3.257065731 3.970163754 115.029000000
v 10.148065732 -7.544836245 115.029000000
v 7.438065731 -9.766836246 115.029000000
v 4.728065731 -11.989836246 115.029000000
v -4.098934269 -1.283836246 115.029000000
v -6.067934269 1.160163755 115.029000000
v 0.545065732 5.216163754 115.029000000
v -0.401934269 1.357163754 120.139000000
v -0.401934269 1.357163754 117.827000000
v -4.098934269 -1.283836246 117.828000000
v 7.438065731 -9.766836246 120.118000000
v 10.148065732 -7.544836245 118.320000000
v 4.728065731 -11.989836246 118.339000000
v -6.067934269 1.160163755 117.713000000
v 3.257065731 3.970163754 117.826000000
v 2.766065732 3.620163755 117.826000000
v 2.766065732 3.620163755 118.136000000
v 0.545065732 5.216163754 117.731000000
v -2.958934269 18.194163755 115.029000000
v 2.597065732 10.396163754 115.029000000
v -0.929934268 8.460163754 115.029000000
v -5.907934268 15.741163755 115.029000000
v -0.929934268 8.460163754 117.966000000
v 2.597065732 10.396163754 117.942000000
v -2.958934269 18.194163755 117.944000000
v -5.907934268 15.741163755 117.967000000
f 20 21 22
f 20 22 23
f 24 22 21
f 24 21 25
f 26 20 23
f 26 23 27
f 27 23 22
f 27 22 24
f 25 21 20
f 25 20 26
f 25 26 27
f 25 27 24
f 1 2 3
f 1 3 4
f 1 4 5
f 1 5 6
f 1 6 7
f 1 7 8
f 9 10 11
f 12 4 3
f 12 3 13
f 11 6 5
f 11 5 14
f 15 7 6
f 15 6 11
f 14 5 4
f 14 4 12
f 16 2 1
f 16 1 17
f 16 17 18
f 13 3 2
f 13 2 16
f 19 8 7
f 19 7 15
f 17 1 8
f 17 8 19
f 18 17 10
f 18 10 9
f 14 12 9
f 14 9 11
f 10 17 19
f 10 19 15
f 10 15 11
f 18 9 12
f 18 12 13
f 18 13 16
