v 5.533225448 5.499467976 14.340000000
v 2.023225448 5.826467977 14.340000000
v 1.988225448 5.607467976 14.340000000
v 1.216225448 0.790467977 14.340000000
v -4.110774552 1.430467977 14.340000000
v -3.947774552 8.669467976 14.340000000
v 0.613225448 8.353467977 14.340000000
v 1.414225448 16.345467977 14.340000000
v 7.237225448 15.816467977 14.340000000
v 12.434225448 15.344467977 14.340000000
v 11.949225448 10.473467977 14.340000000
v 14.820225448 10.024467977 14.340000000
v 14.001225448 2.043467977 14.340000000
v 10.088225448 2.400467977 14.340000000
v 10.932225448 4.995467977 14.340000000
v 9.979225448 5.084467976 14.340000000
v 6.894225448 4.849467977 14.340000000
v 6.418225448 5.077467977 14.340000000
v 6.200225448 5.181467976 14.340000000
v 0.611225448 6.161467977 18.277000000
v 0.611225448 6.161467977 18.033000000
v 1.988225448 5.607467976 18.036000000
v 1.988225448 5.607467976 19.894000000
v 2.023225448 5.826467977 19.907000000
v 10.088225448 2.400467977 16.690000000
v 14.001225448 2.043467977 16.685000000
v 6.418225448 5.077467977 24.188000000
v 6.418225448 5.077467977 16.622000000
v 6.894225448 4.849467977 23.621000000
v 6.469225448 5.412467977 24.171000000
v 6.469225448 5.412467977 16.458000000
v 9.979225448 5.084467976 20.150000000
v 10.932225448 4.995467977 16.764000000
v 10.932225448 4.995467977 19.058000000
v 11.400225448 4.952467977 16.763000000
v 11.400225448 4.952467977 18.521000000
v 11.949225448 10.473467977 16.917000000
v 11.949225448 10.473467977 18.569000000
v -4.110774552 1.430467977 18.076000000
v 1.216225448 0.790467977 18.076000000
v 6.200225448 5.181467976 16.562000000
v 5.533225448 5.499467976 23.896000000
v 6.200225448 5.181467976 24.684000000
v 6.195225448 5.437467976 16.434000000
v 6.195225448 5.437467976 24.485000000
v 6.195225448 5.437467976 24.648000000
v -3.947774552 8.669467976 18.017000000
v 0.590225448 8.120467977 18.017000000
v 0.613225448 8.353467977 18.015000000
v 1.414225448 16.345467977 17.949000000
v 14.820225448 10.024467977 16.908000000
v 6.186225448 6.023467977 24.567000000
v 12.434225448 15.344467977 18.611000000
v 7.237225448 15.816467977 24.565000000
f 1 2 3
f 1 3 4
f 1 4 5
f 1 5 6
f 1 6 7
f 1 7 8
f 1 8 9
f 1 9 10
f 1 10 11
f 1 11 12
f 1 12 13
f 1 13 14
f 1 14 15
f 1 15 16
f 1 16 17
f 1 17 18
f 1 18 19
f 20 21 22
f 20 22 23
f 23 22 3
f 23 3 2
f 23 2 24
f 25 14 13
f 25 13 26
f 27 28 18
f 27 18 17
f 27 17 29
f 30 31 28
f 30 28 27
f 32 16 15
f 32 15 33
f 32 33 34
f 33 15 14
f 33 14 25
f 34 33 35
f 34 35 36
f 36 35 37
f 36 37 38
f 39 5 4
f 39 4 40
f 41 19 18
f 41 18 28
f 42 1 19
f 42 19 41
f 42 41 43
f 43 41 44
f 43 44 45
f 43 45 46
f 29 17 16
f 29 16 32
f 47 6 5
f 47 5 39
f 21 20 48
f 49 7 6
f 49 6 47
f 50 8 7
f 50 7 49
f 26 13 12
f 26 12 51
f 51 12 11
f 51 11 37
f 46 45 52
f 45 44 31
f 45 31 30
f 38 37 11
f 38 11 10
f 38 10 53
f 54 9 8
f 54 8 50
f 53 10 9
f 53 9 54
f 40 4 3
f 40 3 22
f 24 2 1
f 24 1 42
f 51 37 35
f 51 35 33
f 51 33 25
f 51 25 26
f 31 44 41
f 31 41 28
f 53 54 52
f 53 52 45
f 53 45 30
f 53 30 27
f 53 27 29
f 53 29 32
f 53 32 34
f 53 34 36
f 53 36 38
f 48 49 47
f 48 47 39
f 48 39 40
f 48 40 22
f 48 22 21
f 24 42 43
f 24 43 46
f 24 46 52
f 24 52 54
f 24 54 50
f 24 50 49
f 24 49 48
f 24 48 20
f 24 20 23
