v 12.615348719 1.275190116 12.180000000
v 12.615348719 1.275190116 17.339000000
v 11.314348719 -2.872809884 12.180000000
v -0.136651281 9.552190117 14.985000000
v -0.136651281 9.552190117 12.180000000
v -1.542651281 5.430190116 12.180000000
v -1.542651281 5.430190116 17.357000000
v 13.928348719 5.462190116 12.180000000
v 13.928348719 5.462190116 14.948000000
v 11.314348719 -2.872809884 14.968000000
v 11.645348719 -3.084809883 12.180000000
v 11.280348719 -2.979809884 12.180000000
v 11.280348719 -2.979809884 14.906000000
v 11.645348719 -3.084809883 14.907000000
v 8.353348719 -10.701809884 12.180000000
v 4.544348719 -9.440809884 12.180000000
v 4.558348719 -8.442809884 12.180000000
v 6.839348719 -6.450809884 12.180000000
v 7.642348719 -7.315809884 12.180000000
v 11.185348719 -7.702809883 12.180000000
v 12.214348719 -3.247809884 12.180000000
v 15.627348719 -4.223809884 12.180000000
v 13.340348719 -12.351809883 12.180000000
v 10.368348719 -11.367809883 12.180000000
v 9.774348719 -13.208809883 12.180000000
v 7.927348719 -12.807809884 12.180000000
v 4.544348719 -9.440809884 14.900000000
v 8.353348719 -10.701809884 14.910000000
v 4.558348719 -8.442809884 14.899000000
v 7.927348719 -12.807809884 13.887000000
v 6.839348719 -6.450809884 14.901000000
v 7.642348719 -7.315809884 14.904000000
v 13.340348719 -12.351809883 14.923000000
v 15.627348719 -4.223809884 14.918000000
v 12.214348719 -3.247809884 14.909000000
v 11.185348719 -7.702809883 14.912000000
v 10.368348719 -11.367809883 14.915000000
v 9.774348719 -13.208809883 13.987000000
f 15 16 17
f 15 17 18
f 15 18 19
f 15 19 20
f 15 20 21
f 15 21 22
f 15 22 23
f 15 23 24
f 15 24 25
f 15 25 26
f 27 16 15
f 27 15 28
f 29 17 16
f 29 16 27
f 28 15 26
f 28 26 30
f 31 18 17
f 31 17 29
f 32 19 18
f 32 18 31
f 33 23 22
f 33 22 34
f 34 22 21
f 34 21 35
f 35 21 20
f 35 20 36
f 36 20 19
f 36 19 32
f 37 24 23
f 37 23 33
f 38 25 24
f 38 24 37
f 30 26 25
f 30 25 38
f 37 33 34
f 37 34 35
f 37 35 36
f 37 36 32
f 37 32 31
f 37 31 29
f 37 29 27
f 37 27 28
f 30 38 37
f 30 37 28
f 1 2 3
f 4 5 6
f 4 6 7
f 7 6 3
f 2 1 8
f 2 8 9
f 9 8 5
f 9 5 4
f 2 7 10
f 9 4 7
f 9 7 2
f 3 11 12
f 3 12 3
f 3 3 6
f 3 6 5
f 3 5 8
f 3 8 1
f 12 13 3
f 13 12 11
f 13 11 14
f 14 11 3
f 14 10 13
