v -0.107393344 -4.689831170 17.379000000
v 6.293606656 -9.146831171 17.379000000
v 4.175606656 -13.214831171 17.379000000
v -2.824393344 -8.996831170 17.379000000
v 6.293606656 -9.146831171 19.962000000
v -0.107393344 -4.689831170 19.797000000
v -2.824393344 -8.996831170 19.784000000
v 4.175606656 -13.214831171 19.959000000
v -4.538393344 5.150168830 17.379000000
v -5.972393344 5.925168830 17.379000000
v -1.316393344 12.915168830 17.379000000
v 0.045606656 11.980168830 17.379000000
v 15.437606656 1.414168830 17.379000000
v 13.835606656 -1.262831170 17.379000000
v 12.953606656 -2.737831171 17.379000000
v 12.485606656 -4.045831170 17.379000000
v 0.045606656 11.980168830 20.121000000
v -1.316393344 12.915168830 20.071000000
v 15.437606656 1.414168830 20.693000000
v 13.835606656 -1.262831170 22.478000000
v -5.972393344 5.925168830 20.065000000
v -2.249393344 8.560168830 20.118000000
v -2.249393344 8.560168830 22.475000000
v -4.538393344 5.150168830 20.115000000
v 12.953606656 -2.737831171 21.489000000
v 12.485606656 -4.045831170 20.706000000
f 9 10 11
f 9 11 12
f 9 12 13
f 9 13 14
f 9 14 15
f 9 15 16
f 17 12 11
f 17 11 18
f 19 13 12
f 19 12 17
f 20 14 13
f 20 13 19
f 18 11 10
f 18 10 21
f 21 10 9
f 21 9 24
f 25 15 14
f 25 14 20
f 26 16 15
f 26 15 25
f 24 9 16
f 24 16 26
f 17 23 20
f 17 20 19
f 21 24 22
f 21 22 17
f 21 17 18
f 24 26 25
f 24 25 20
f 24 20 23
f 1 2 3
f 1 3 4
f 5 2 1
f 5 1 6
f 6 1 4
f 6 4 7
f 8 3 2
f 8 2 5
f 7 4 3
f 7 3 8
f 7 8 5
f 7 5 6
