v -10.461377863 -3.693580353 6.809000000
v -9.828377863 0.619419647 6.809000000
v -9.207377863 4.854419648 6.809000000
v -0.006377863 3.761419647 6.809000000
v -0.733377863 -0.533580353 6.809000000
v -1.624377863 -5.801580353 6.809000000
v -1.913377863 -7.506580353 6.809000000
v -6.324377863 -6.953580352 6.809000000
v -6.427377863 -5.108580353 6.809000000
v -6.478377863 -4.192580353 6.809000000
v -6.427377863 -5.108580353 10.397000000
v -6.427377863 -5.108580353 9.741000000
v -1.624377863 -5.801580353 9.735000000
v -1.624377863 -5.801580353 10.294000000
v -6.324377863 -6.953580352 9.438000000
v -0.733377863 -0.533580353 16.740000000
v -0.006377863 3.761419647 11.429000000
v -9.207377863 4.854419648 11.523000000
v -6.478377863 -4.192580353 11.486000000
v -10.461377863 -3.693580353 11.480000000
v -1.913377863 -7.506580353 9.447000000
v -9.828377863 0.619419647 16.744000000
f 1 2 3
f 1 3 4
f 1 4 5
f 1 5 6
f 1 6 7
f 1 7 8
f 1 8 9
f 1 9 10
f 11 12 13
f 11 13 14
f 12 9 8
f 12 8 15
f 14 13 6
f 14 6 5
f 14 5 16
f 17 4 3
f 17 3 18
f 19 10 9
f 19 9 12
f 19 12 11
f 20 1 10
f 20 10 19
f 21 7 6
f 21 6 13
f 15 8 7
f 15 7 21
f 18 3 2
f 18 2 22
f 16 5 4
f 16 4 17
f 22 2 1
f 22 1 20
f 15 21 13
f 15 13 12
f 16 17 18
f 16 18 22
f 22 20 19
f 22 19 11
f 22 11 14
f 22 14 16
