v -3.999534774 -1.047154076 44.970000000
v 0.821465226 -6.015154077 44.970000000
v 3.985465226 -0.407154077 44.970000000
v 7.306465226 2.788845923 44.970000000
v 8.454465226 0.276845924 44.970000000
v 8.546465226 0.624845923 44.970000000
v 9.695465226 -0.523154077 44.970000000
v 10.565465226 -1.391154077 44.970000000
v 13.308465226 -4.130154077 44.970000000
v 11.459465226 -6.186154077 44.970000000
v 9.965465226 -7.848154076 44.970000000
v 8.936465226 -7.052154077 44.970000000
v 7.708465226 -8.250154077 44.970000000
v 5.311465226 -10.587154076 44.970000000
v 2.712465226 -7.941154077 44.970000000
v -0.465534774 -4.689154076 44.970000000
v -1.362534774 -3.765154077 44.970000000
v -5.219534774 0.153845923 44.970000000
v -1.792534774 3.710845923 44.970000000
v 1.935465226 -0.178154076 44.970000000
v 2.127465226 -0.379154077 44.970000000
v 2.779465226 0.611845924 44.970000000
v 6.992465226 -3.394154076 52.514000000
v 6.992465226 -3.394154076 52.443000000
v 6.992465226 -3.394154076 51.919000000
v 7.742465226 -2.598154076 52.490000000
v 7.742465226 -2.598154076 52.505000000
v 3.985465226 -0.407154077 48.457000000
v 2.779465226 0.611845924 48.483000000
v 2.127465226 -0.379154077 48.432000000
v 1.935465226 -0.178154076 48.437000000
v 7.857465226 -3.833154077 51.565000000
v 7.857465226 -3.833154077 52.074000000
v 7.431465226 -3.616154077 51.998000000
v 7.080465226 -5.324154077 51.132000000
v 7.080465226 -5.324154077 51.235000000
v 9.695465226 -0.523154077 52.483000000
v 8.546465226 0.624845923 50.929000000
v 4.048465226 -1.904154077 50.954000000
v 4.048465226 -1.904154077 49.492000000
v 5.841465226 -2.812154077 51.332000000
v 5.010465226 -1.167154077 51.833000000
v 5.010465226 -1.167154077 49.669000000
v 6.294465226 -2.369154077 51.799000000
v 6.294465226 -2.369154077 51.352000000
v 6.702465226 -1.733154077 51.214000000
v 6.029465226 -2.780154076 51.442000000
v 2.712465226 -7.941154077 52.562000000
v 2.712465226 -7.941154077 52.434000000
v 9.965465226 -7.848154076 51.360000000
v 11.459465226 -6.186154077 52.527000000
v 8.936465226 -7.052154077 51.277000000
v 8.936465226 -7.052154077 50.508000000
v 13.308465226 -4.130154077 51.106000000
v 10.565465226 -1.391154077 51.044000000
v 8.890465226 -2.306154077 51.891000000
v 8.890465226 -2.306154077 51.976000000
v 9.297465226 -2.084154077 51.750000000
v 10.565465226 -1.391154077 51.312000000
v 5.311465226 -10.587154076 48.934000000
v 7.708465226 -8.250154077 49.244000000
v 7.708465226 -8.250154077 48.804000000
v 8.454465226 0.276845924 51.096000000
v 7.306465226 2.788845923 48.640000000
v 7.154465226 -5.673154077 50.854000000
v 7.154465226 -5.673154077 51.133000000
v 7.154465226 -5.673154077 50.396000000
v 7.436465226 -6.987154077 49.809000000
v 0.821465226 -6.015154077 49.980000000
v -1.362534774 -3.765154077 48.239000000
v -0.465534774 -4.689154076 48.213000000
v -1.362534774 -3.765154077 48.275000000
v 1.935465226 -0.178154076 49.134000000
v -3.999534774 -1.047154076 48.310000000
v -5.219534774 0.153845923 48.319000000
v -1.792534774 3.710845923 49.189000000
v 7.860465226 -2.475154077 52.502000000
v 7.860465226 -2.475154077 52.402000000
v 8.414465226 -2.384154077 52.173000000
v 7.860465226 -2.475154077 52.506000000
v 6.166465226 -0.282154077 49.883000000
v 6.166465226 -0.282154077 50.693000000
v 6.756465226 -1.046154077 50.797000000
v 4.008465226 5.239845923 44.970000000
v -0.770534774 9.470845923 44.970000000
v 1.123465226 11.880845923 44.970000000
v 5.990465226 7.455845923 44.970000000
v -0.770534774 9.470845923 48.236000000
v 4.008465226 5.239845923 48.341000000
v 5.990465226 7.455845923 48.318000000
v 1.123465226 11.880845923 48.210000000
f 3 4 5
f 3 5 6
f 3 6 7
f 3 7 8
f 3 8 9
f 3 9 10
f 3 10 11
f 3 11 12
f 3 12 13
f 3 13 14
f 3 14 15
f 3 15 2
f 3 2 16
f 3 16 17
f 3 17 1
f 3 1 18
f 3 18 19
f 3 19 20
f 3 20 21
f 3 21 22
f 23 24 25
f 23 25 26
f 23 26 27
f 28 3 22
f 28 22 29
f 29 22 21
f 29 21 30
f 30 21 20
f 30 20 31
f 32 33 34
f 25 24 34
f 33 32 35
f 33 35 36
f 37 7 6
f 37 6 38
f 39 40 41
f 42 43 40
f 42 40 39
f 48 49 24
f 48 24 23
f 50 11 10
f 50 10 51
f 52 53 12
f 52 12 11
f 52 11 50
f 54 9 8
f 54 8 55
f 51 10 9
f 51 9 54
f 59 55 8
f 59 8 7
f 59 7 37
f 49 15 14
f 49 14 60
f 61 62 13
f 38 6 5
f 38 5 63
f 63 5 4
f 63 4 64
f 60 14 13
f 60 13 62
f 36 35 65
f 36 65 66
f 66 65 67
f 69 2 15
f 69 15 49
f 69 49 48
f 70 17 16
f 70 16 71
f 72 70 31
f 72 31 73
f 74 1 17
f 74 17 70
f 74 70 72
f 71 16 2
f 71 2 69
f 75 18 1
f 75 1 74
f 73 31 20
f 73 20 19
f 73 19 76
f 76 19 18
f 76 18 75
f 77 78 79
f 80 77 37
f 81 82 83
f 82 81 43
f 82 43 42
f 64 4 3
f 64 3 28
f 27 26 78
f 27 78 77
f 27 77 80
f 41 47 44
f 41 44 42
f 41 42 39
f 67 68 61
f 67 61 53
f 66 52 50
f 66 50 51
f 66 51 26
f 66 26 25
f 66 25 34
f 66 34 33
f 66 33 36
f 62 68 65
f 62 65 35
f 62 35 32
f 62 32 34
f 62 34 24
f 62 24 49
f 62 49 60
f 76 75 74
f 76 74 72
f 76 72 73
f 37 77 79
f 37 79 56
f 37 56 58
f 37 58 59
f 82 42 44
f 82 44 46
f 82 46 83
f 71 28 29
f 71 29 30
f 71 30 31
f 71 31 70
f 78 26 51
f 78 51 54
f 78 54 55
f 78 55 58
f 78 58 57
f 78 57 79
f 27 80 37
f 27 37 38
f 27 38 63
f 27 63 64
f 27 64 28
f 27 28 71
f 27 71 69
f 27 69 48
f 27 48 23
f 41 40 43
f 41 43 81
f 41 81 83
f 41 83 46
f 41 46 45
f 41 45 47
f 84 85 86
f 84 86 87
f 88 85 84
f 88 84 89
f 89 84 87
f 89 87 90
f 90 87 86
f 90 86 91
f 91 86 85
f 91 85 88
f 91 88 89
f 91 89 90
