v 6.068203358 -5.620181037 74.569000000
v -11.310796642 -8.502181037 74.569000000
v -11.745796642 1.124818963 74.569000000
v -7.856796642 1.143818963 74.569000000
v -7.976796642 3.290818963 74.569000000
v 1.277203358 4.212818963 74.569000000
v 1.030203358 6.609818963 74.569000000
v 6.703203358 7.648818963 74.569000000
v 7.089203358 -4.020181037 74.569000000
v 6.350203358 -4.025181037 74.569000000
v 7.089203358 -4.020181037 77.708000000
v 6.703203358 7.648818963 77.723000000
v 1.030203358 6.609818963 77.724000000
v 1.277203358 4.212818963 77.720000000
v -7.856796642 1.143818963 77.080000000
v -11.745796642 1.124818963 76.996000000
v -7.976796642 3.290818963 77.722000000
v -7.856796642 1.143818963 77.719000000
v -7.560796642 -4.118181037 77.095000000
v -7.560796642 -4.118181037 77.712000000
v -11.310796642 -8.502181037 77.021000000
v 6.350203358 -4.025181037 77.392000000
v 6.350203358 -4.025181037 77.708000000
v 6.068203358 -5.620181037 77.389000000
f 1 2 3
f 1 3 4
f 1 4 5
f 1 5 6
f 1 6 7
f 1 7 8
f 1 8 9
f 1 9 10
f 11 9 8
f 11 8 12
f 12 8 7
f 12 7 13
f 13 7 6
f 13 6 14
f 15 4 3
f 15 3 16
f 17 5 4
f 17 4 15
f 17 15 18
f 18 15 19
f 18 19 20
f 16 3 2
f 16 2 21
f 14 6 5
f 14 5 17
f 20 19 22
f 20 22 23
f 24 1 10
f 24 10 22
f 23 22 10
f 23 10 9
f 23 9 11
f 21 2 1
f 21 1 24
f 23 11 12
f 23 12 13
f 23 13 14
f 23 14 17
f 23 17 18
f 23 18 20
f 21 24 22
f 21 22 19
f 21 19 15
f 21 15 16
