v 12.886590478 2.295767352 61.619000000
v 13.572590478 6.706767351 61.619000000
v 17.163590478 5.725767352 61.619000000
v 15.979590478 -5.881232648 61.619000000
v 11.679590479 -5.466232648 61.619000000
v 10.250590479 -14.655232648 61.619000000
v 7.773590478 -13.772232648 61.619000000
v 6.175590478 -13.594232649 61.619000000
v 1.953590479 -13.121232648 61.619000000
v 2.676590479 -3.659232648 61.619000000
v -0.822409522 -3.316232649 61.619000000
v -0.375409522 3.468767351 61.619000000
v 3.197590478 3.152767352 61.619000000
v 7.790590478 2.746767351 61.619000000
v 7.790590478 2.746767351 66.429000000
v 3.197590478 3.152767352 64.309000000
v 13.572590478 6.706767351 63.935000000
v 12.886590478 2.295767352 64.053000000
v 17.163590478 5.725767352 63.611000000
v 11.679590479 -5.466232648 64.261000000
v 15.979590478 -5.881232648 63.864000000
v 2.676590479 -3.659232648 64.383000000
v 1.953590479 -13.121232648 64.486000000
v 6.175590478 -13.594232649 66.439000000
v -0.375409522 3.468767351 63.957000000
v -0.822409522 -3.316232649 64.038000000
v 7.773590478 -13.772232648 65.692000000
v 10.250590479 -14.655232648 64.507000000
f 1 2 3
f 1 3 4
f 1 4 5
f 1 5 6
f 1 6 7
f 1 7 8
f 1 8 9
f 1 9 10
f 1 10 11
f 1 11 12
f 1 12 13
f 1 13 14
f 15 14 13
f 15 13 16
f 17 2 1
f 17 1 18
f 19 3 2
f 19 2 17
f 18 1 14
f 18 14 15
f 20 5 4
f 20 4 21
f 21 4 3
f 21 3 19
f 22 10 9
f 22 9 23
f 23 9 8
f 23 8 24
f 25 12 11
f 25 11 26
f 26 11 10
f 26 10 22
f 16 13 12
f 16 12 25
f 27 7 6
f 27 6 28
f 24 8 7
f 24 7 27
f 28 6 5
f 28 5 20
f 21 19 17
f 21 17 18
f 21 18 20
f 16 25 26
f 16 26 22
f 24 15 16
f 24 16 22
f 24 22 23
f 15 24 27
f 15 27 28
f 15 28 20
f 15 20 18
