v 5.278937537 1.381802546 21.280000000
v 6.300937537 2.467802546 21.280000000
v 6.299937537 0.932802546 21.280000000
v 6.428937537 0.875802546 21.280000000
v 6.546937537 1.058802546 21.280000000
v 6.492937537 -1.039197454 21.280000000
v 6.463937537 -2.187197453 21.280000000
v 6.309937537 -8.125197453 21.280000000
v 2.026937537 -5.908197454 21.280000000
v -7.654062463 -0.897197454 21.280000000
v -5.909062463 2.600802546 21.280000000
v -4.394062463 5.638802546 21.280000000
v 2.026937537 -5.908197454 23.963000000
v 6.309937537 -8.125197453 23.931000000
v -7.654062463 -0.897197454 24.035000000
v -5.909062463 2.600802546 25.917000000
v -4.394062463 5.638802546 24.298000000
v 6.463937537 -2.187197453 24.353000000
v 6.492937537 -1.039197454 24.838000000
v 6.300937537 2.467802546 23.381000000
v 5.278937537 1.381802546 24.062000000
v 6.299937537 0.932802546 24.037000000
v 4.257937537 -2.470197454 24.269000000
v 4.257937537 -2.470197454 25.924000000
v 4.917937537 -1.453197454 25.349000000
v 4.917937537 -1.453197454 24.360000000
v 5.496937537 -0.560197454 24.845000000
v 4.604937537 -1.935197454 25.622000000
v 4.604937537 -1.935197454 24.317000000
v 6.428937537 0.875802546 24.034000000
v 6.546937537 1.058802546 23.930000000
v 4.041937537 -2.362197454 24.270000000
v 4.041937537 -2.362197454 25.924000000
f 1 2 3
f 1 3 4
f 1 4 5
f 1 5 6
f 1 6 7
f 1 7 8
f 1 8 9
f 1 9 10
f 1 10 11
f 1 11 12
f 13 9 8
f 13 8 14
f 15 10 9
f 15 9 13
f 16 11 10
f 16 10 15
f 17 12 11
f 17 11 16
f 18 7 6
f 18 6 19
f 14 8 7
f 14 7 18
f 20 2 1
f 20 1 21
f 22 3 2
f 22 2 20
f 23 24 13
f 25 26 27
f 28 29 26
f 28 26 25
f 21 1 12
f 21 12 17
f 30 4 3
f 30 3 22
f 31 5 4
f 31 4 30
f 19 6 5
f 19 5 31
f 24 23 32
f 24 32 33
f 33 32 29
f 33 29 28
f 19 27 26
f 19 26 18
f 24 33 16
f 24 16 15
f 24 15 13
f 33 28 25
f 33 25 27
f 33 27 19
f 33 19 31
f 33 31 30
f 33 30 22
f 33 22 20
f 33 20 21
f 33 21 17
f 33 17 16
f 29 32 23
f 29 23 13
f 29 13 14
f 29 14 18
f 29 18 26
