v -94.441532327 222.553199282 44.849000000
v -94.488532327 222.563199282 44.849000000
v -94.537532327 222.569199282 44.849000000
v -94.586532327 222.570199282 44.849000000
v -94.635532327 222.566199282 44.849000000
v -94.684532327 222.557199282 44.849000000
v -94.731532327 222.545199282 44.849000000
v -94.777532327 222.527199282 44.849000000
v -94.821532327 222.505199281 44.849000000
v -94.862532326 222.478199282 44.849000000
v -94.900532327 222.448199281 44.849000000
v -94.936532327 222.414199281 44.849000000
v -94.968532327 222.376199282 44.849000000
v -94.996532327 222.336199282 44.849000000
v -95.020532327 222.293199282 44.849000000
v -95.039532327 222.248199282 44.849000000
v -95.055532326 222.201199282 44.849000000
v -95.065532326 222.153199282 44.849000000
v -97.264532326 208.995199282 44.849000000
v -103.508532327 190.119199282 44.849000000
v -111.497532326 168.264199282 44.849000000
v -117.757532327 153.636199282 44.849000000
v -117.771532326 153.601199282 44.849000000
v -122.106532327 140.953199282 44.849000000
v -126.856532327 127.443199282 44.849000000
v -126.856532327 127.441199282 44.849000000
v -130.353532327 117.376199282 44.849000000
v -134.190532326 107.014199282 44.849000000
v -136.286532326 102.327199282 44.849000000
v -144.009532326 85.823199281 44.849000000
v -149.355532327 74.665199282 44.849000000
v -149.372532326 74.625199282 44.849000000
v -149.385532327 74.584199282 44.849000000
v -154.005532327 58.056199281 44.849000000
v -154.014532326 58.019199282 44.849000000
v -156.832532326 43.906199282 44.849000000
v -160.118532327 27.638199282 44.849000000
v -160.125532327 27.590199281 44.849000000
v -162.087532326 8.583199282 44.849000000
v -162.089532327 8.555199282 44.849000000
v -162.539532327 -1.435800718 44.849000000
v -163.660532327 -21.878800718 44.849000000
v -163.660532327 -21.924800718 44.849000000
v -163.656532326 -21.971800718 44.849000000
v -163.648532327 -22.017800719 44.849000000
v -163.635532327 -22.062800718 44.849000000
v -163.619532326 -22.106800718 44.849000000
v -163.598532327 -22.148800718 44.849000000
v -163.573532326 -22.188800718 44.849000000
v -163.545532327 -22.225800718 44.849000000
v -163.513532327 -22.260800718 44.849000000
v -163.478532327 -22.291800718 44.849000000
v -163.441532327 -22.319800718 44.849000000
v 148.843467674 -233.174800718 44.849000000
v 118.789467674 -296.910800718 44.849000000
v 118.768467673 -296.963800718 44.849000000
v 115.252467674 -307.345800718 44.849000000
v 115.238467674 -307.391800718 44.849000000
v 115.230467674 -307.439800718 44.849000000
v 115.225467674 -307.487800718 44.849000000
v 115.226467673 -307.536800718 44.849000000
v 115.231467673 -307.584800718 44.849000000
v 115.241467673 -307.631800718 44.849000000
v 115.256467673 -307.678800718 44.849000000
v 115.275467673 -307.722800718 44.849000000
v 115.298467673 -307.765800718 44.849000000
v 115.325467673 -307.805800718 44.849000000
v 115.356467673 -307.842800718 44.849000000
v 115.391467673 -307.877800718 44.849000000
v 115.428467673 -307.907800718 44.849000000
v 115.469467673 -307.934800718 44.849000000
v 115.511467673 -307.957800718 44.849000000
v 115.556467674 -307.976800718 44.849000000
v 115.591467674 -307.986800718 44.849000000
v 113.627467674 -312.353800718 44.849000000
v 113.609467673 -312.398800718 44.849000000
v 113.596467673 -312.445800718 44.849000000
v 113.587467673 -312.493800718 44.849000000
v 113.583467674 -312.541800718 44.849000000
v 113.584467673 -312.590800718 44.849000000
v 113.590467673 -312.639800718 44.849000000
v 113.600467674 -312.686800718 44.849000000
v 113.615467674 -312.733800718 44.849000000
v 113.634467673 -312.777800718 44.849000000
v 113.657467674 -312.820800718 44.849000000
v 113.685467673 -312.860800718 44.849000000
v 113.716467674 -312.897800718 44.849000000
v 113.751467673 -312.932800718 44.849000000
v 113.789467674 -312.962800718 44.849000000
v 113.830467673 -312.989800718 44.849000000
v 113.873467673 -313.011800718 44.849000000
v 120.016467673 -315.863800718 44.849000000
v 120.061467674 -315.882800718 44.849000000
v 120.108467674 -315.896800718 44.849000000
v 120.157467674 -315.905800718 44.849000000
v 120.206467674 -315.910800718 44.849000000
v 120.255467674 -315.909800719 44.849000000
v 120.304467674 -315.904800718 44.849000000
v 120.352467673 -315.894800718 44.849000000
v 120.399467674 -315.879800718 44.849000000
v 120.444467674 -315.860800718 44.849000000
v 120.487467673 -315.836800718 44.849000000
v 120.528467673 -315.809800718 44.849000000
v 120.566467674 -315.777800718 44.849000000
v 120.600467674 -315.742800718 44.849000000
v 120.631467673 -315.704800718 44.849000000
v 120.658467673 -315.663800718 44.849000000
v 120.680467673 -315.619800719 44.849000000
v 170.086467674 -208.238800718 44.849000000
v 228.994467673 -88.690800718 44.849000000
v 239.481467673 -91.574800718 44.849000000
v 239.530467673 -91.585800719 44.849000000
v 239.580467673 -91.591800718 44.849000000
v 239.630467674 -91.592800718 44.849000000
v 239.680467673 -91.587800718 44.849000000
v 239.730467674 -91.578800718 44.849000000
v 239.778467673 -91.564800718 44.849000000
v 239.824467673 -91.545800718 44.849000000
v 239.869467673 -91.522800718 44.849000000
v 239.911467673 -91.494800719 44.849000000
v 239.950467673 -91.462800718 44.849000000
v 239.985467674 -91.426800719 44.849000000
v 240.017467674 -91.387800718 44.849000000
v 240.044467674 -91.345800718 44.849000000
v 240.068467673 -91.300800718 44.849000000
v 272.034467674 -21.608800718 44.849000000
v 272.052467673 -21.563800718 44.849000000
v 272.065467673 -21.516800718 44.849000000
v 272.074467673 -21.468800718 44.849000000
v 272.079467673 -21.420800718 44.849000000
v 272.078467674 -21.371800718 44.849000000
v 272.073467674 -21.322800718 44.849000000
v 272.063467673 -21.274800718 44.849000000
v 272.049467674 -21.228800718 44.849000000
v 272.030467673 -21.183800718 44.849000000
v 272.006467673 -21.140800718 44.849000000
v 271.979467673 -21.099800718 44.849000000
v 271.948467674 -21.062800718 44.849000000
v 271.913467673 -21.028800718 44.849000000
v 271.875467674 -20.997800718 44.849000000
v 271.834467673 -20.970800718 44.849000000
v 271.791467673 -20.947800718 44.849000000
v 271.746467673 -20.929800718 44.849000000
v 271.699467673 -20.915800718 44.849000000
v 258.858467674 -17.743800718 44.849000000
v 295.630467674 55.973199282 44.849000000
v 295.650467673 56.020199282 44.849000000
v 315.999467673 110.274199282 44.849000000
v 316.014467673 110.321199282 44.849000000
v 316.025467673 110.369199282 44.849000000
v 316.030467673 110.417199282 44.849000000
v 316.031467673 110.466199282 44.849000000
v 316.027467674 110.515199282 44.849000000
v 316.018467673 110.563199282 44.849000000
v 316.005467674 110.610199282 44.849000000
v 315.987467673 110.656199282 44.849000000
v 315.965467673 110.699199282 44.849000000
v 315.938467673 110.741199282 44.849000000
v 315.908467673 110.779199282 44.849000000
v 315.874467673 110.814199282 44.849000000
v 315.837467673 110.846199282 44.849000000
v 315.797467673 110.874199282 44.849000000
v 315.754467673 110.898199282 44.849000000
v 315.709467673 110.917199282 44.849000000
v 315.663467673 110.932199282 44.849000000
v -94.441532327 222.553199282 49.450000000
v -94.488532327 222.563199282 49.450000000
v -94.537532327 222.569199282 49.450000000
v -94.586532327 222.570199282 49.450000000
v -94.635532327 222.566199282 49.450000000
v -94.684532327 222.557199282 49.450000000
v -94.731532327 222.545199282 49.450000000
v -94.777532327 222.527199282 49.450000000
v -94.821532327 222.505199281 49.450000000
v -94.862532326 222.478199282 49.450000000
v -94.900532327 222.448199281 49.450000000
v -94.936532327 222.414199281 49.450000000
v -94.968532327 222.376199282 49.450000000
v -94.996532327 222.336199282 49.450000000
v -95.020532327 222.293199282 49.450000000
v -95.039532327 222.248199282 49.450000000
v -95.055532326 222.201199282 49.450000000
v -95.065532326 222.153199282 49.450000000
v -97.264532326 208.995199282 49.450000000
v -103.508532327 190.119199282 49.450000000
v -111.497532326 168.264199282 49.450000000
v -117.757532327 153.636199282 49.450000000
v -117.771532326 153.601199282 49.450000000
v -122.106532327 140.953199282 49.450000000
v -126.856532327 127.443199282 49.450000000
v -126.856532327 127.441199282 49.450000000
v -130.353532327 117.376199282 49.450000000
v -134.190532326 107.014199282 49.450000000
v -136.286532326 102.327199282 49.450000000
v -144.009532326 85.823199281 49.450000000
v -149.355532327 74.665199282 49.450000000
v -149.372532326 74.625199282 49.450000000
v -149.385532327 74.584199282 49.450000000
v -154.005532327 58.056199281 49.450000000
v -154.014532326 58.019199282 49.450000000
v -156.832532326 43.906199282 49.450000000
v -160.118532327 27.638199282 49.450000000
v -160.125532327 27.590199281 49.450000000
v -162.087532326 8.583199282 49.450000000
v -162.089532327 8.555199282 49.450000000
v -162.539532327 -1.435800718 49.450000000
v -163.660532327 -21.878800718 49.450000000
v -163.660532327 -21.924800718 49.450000000
v -163.656532326 -21.971800718 49.450000000
v -163.648532327 -22.017800719 49.450000000
v -163.635532327 -22.062800718 49.450000000
v -163.619532326 -22.106800718 49.450000000
v -163.598532327 -22.148800718 49.450000000
v -163.573532326 -22.188800718 49.450000000
v -163.545532327 -22.225800718 49.450000000
v -163.513532327 -22.260800718 49.450000000
v -163.478532327 -22.291800718 49.450000000
v -163.441532327 -22.319800718 49.450000000
v 148.843467674 -233.174800718 49.450000000
v 118.789467674 -296.910800718 49.450000000
v 118.768467673 -296.963800718 49.450000000
v 115.252467674 -307.345800718 49.450000000
v 115.238467674 -307.391800718 49.450000000
v 115.230467674 -307.439800718 49.450000000
v 115.225467674 -307.487800718 49.450000000
v 115.226467673 -307.536800718 49.450000000
v 115.231467673 -307.584800718 49.450000000
v 115.241467673 -307.631800718 49.450000000
v 115.256467673 -307.678800718 49.450000000
v 115.275467673 -307.722800718 49.450000000
v 115.298467673 -307.765800718 49.450000000
v 115.325467673 -307.805800718 49.450000000
v 115.356467673 -307.842800718 49.450000000
v 115.391467673 -307.877800718 49.450000000
v 115.428467673 -307.907800718 49.450000000
v 115.469467673 -307.934800718 49.450000000
v 115.511467673 -307.957800718 49.450000000
v 115.556467674 -307.976800718 49.450000000
v 115.591467674 -307.986800718 49.450000000
v 113.627467674 -312.353800718 49.450000000
v 113.609467673 -312.398800718 49.450000000
v 113.596467673 -312.445800718 49.450000000
v 113.587467673 -312.493800718 49.450000000
v 113.583467674 -312.541800718 49.450000000
v 113.584467673 -312.590800718 49.450000000
v 113.590467673 -312.639800718 49.450000000
v 113.600467674 -312.686800718 49.450000000
v 113.615467674 -312.733800718 49.450000000
v 113.634467673 -312.777800718 49.450000000
v 113.657467674 -312.820800718 49.450000000
v 113.685467673 -312.860800718 49.450000000
v 113.716467674 -312.897800718 49.450000000
v 113.751467673 -312.932800718 49.450000000
v 113.789467674 -312.962800718 49.450000000
v 113.830467673 -312.989800718 49.450000000
v 113.873467673 -313.011800718 49.450000000
v 120.016467673 -315.863800718 49.450000000
v 120.061467674 -315.882800718 49.450000000
v 120.108467674 -315.896800718 49.450000000
v 120.157467674 -315.905800718 49.450000000
v 120.206467674 -315.910800718 49.450000000
v 120.255467674 -315.909800719 49.450000000
v 120.304467674 -315.904800718 49.450000000
v 120.352467673 -315.894800718 49.450000000
v 120.399467674 -315.879800718 49.450000000
v 120.444467674 -315.860800718 49.450000000
v 120.487467673 -315.836800718 49.450000000
v 120.528467673 -315.809800718 49.450000000
v 120.566467674 -315.777800718 49.450000000
v 120.600467674 -315.742800718 49.450000000
v 120.631467673 -315.704800718 49.450000000
v 120.658467673 -315.663800718 49.450000000
v 120.680467673 -315.619800719 49.450000000
v 170.086467674 -208.238800718 49.450000000
v 228.994467673 -88.690800718 49.450000000
v 239.481467673 -91.574800718 49.450000000
v 239.530467673 -91.585800719 49.450000000
v 239.580467673 -91.591800718 49.450000000
v 239.630467674 -91.592800718 49.450000000
v 239.680467673 -91.587800718 49.450000000
v 239.730467674 -91.578800718 49.450000000
v 239.778467673 -91.564800718 49.450000000
v 239.824467673 -91.545800718 49.450000000
v 239.869467673 -91.522800718 49.450000000
v 239.911467673 -91.494800719 49.450000000
v 239.950467673 -91.462800718 49.450000000
v 239.985467674 -91.426800719 49.450000000
v 240.017467674 -91.387800718 49.450000000
v 240.044467674 -91.345800718 49.450000000
v 240.068467673 -91.300800718 49.450000000
v 272.034467674 -21.608800718 49.450000000
v 272.052467673 -21.563800718 49.450000000
v 272.065467673 -21.516800718 49.450000000
v 272.074467673 -21.468800718 49.450000000
v 272.079467673 -21.420800718 49.450000000
v 272.078467674 -21.371800718 49.450000000
v 272.073467674 -21.322800718 49.450000000
v 272.063467673 -21.274800718 49.450000000
v 272.049467674 -21.228800718 49.450000000
v 272.030467673 -21.183800718 49.450000000
v 272.006467673 -21.140800718 49.450000000
v 271.979467673 -21.099800718 49.450000000
v 271.948467674 -21.062800718 49.450000000
v 271.913467673 -21.028800718 49.450000000
v 271.875467674 -20.997800718 49.450000000
v 271.834467673 -20.970800718 49.450000000
v 271.791467673 -20.947800718 49.450000000
v 271.746467673 -20.929800718 49.450000000
v 271.699467673 -20.915800718 49.450000000
v 258.858467674 -17.743800718 49.450000000
v 295.630467674 55.973199282 49.450000000
v 295.650467673 56.020199282 49.450000000
v 315.999467673 110.274199282 49.450000000
v 316.014467673 110.321199282 49.450000000
v 316.025467673 110.369199282 49.450000000
v 316.030467673 110.417199282 49.450000000
v 316.031467673 110.466199282 49.450000000
v 316.027467674 110.515199282 49.450000000
v 316.018467673 110.563199282 49.450000000
v 316.005467674 110.610199282 49.450000000
v 315.987467673 110.656199282 49.450000000
v 315.965467673 110.699199282 49.450000000
v 315.938467673 110.741199282 49.450000000
v 315.908467673 110.779199282 49.450000000
v 315.874467673 110.814199282 49.450000000
v 315.837467673 110.846199282 49.450000000
v 315.797467673 110.874199282 49.450000000
v 315.754467673 110.898199282 49.450000000
v 315.709467673 110.917199282 49.450000000
v 315.663467673 110.932199282 49.450000000
f 166 167 168
f 166 168 169
f 166 169 170
f 166 170 171
f 166 171 172
f 166 172 173
f 166 173 174
f 166 174 175
f 166 175 176
f 166 176 177
f 166 177 178
f 166 178 179
f 166 179 180
f 166 180 181
f 166 181 182
f 166 182 183
f 166 183 184
f 166 184 185
f 166 185 186
f 166 186 187
f 166 187 188
f 166 188 189
f 166 189 190
f 166 190 191
f 166 191 192
f 166 192 193
f 166 193 194
f 166 194 195
f 166 195 196
f 166 196 197
f 166 197 198
f 166 198 199
f 166 199 200
f 166 200 201
f 166 201 202
f 166 202 203
f 166 203 204
f 166 204 205
f 166 205 206
f 166 206 207
f 166 207 208
f 166 208 209
f 166 209 210
f 166 210 211
f 166 211 212
f 166 212 213
f 166 213 214
f 166 214 215
f 166 215 216
f 166 216 217
f 166 217 218
f 166 218 219
f 166 219 220
f 166 220 221
f 166 221 222
f 166 222 223
f 166 223 224
f 166 224 225
f 166 225 226
f 166 226 227
f 166 227 228
f 166 228 229
f 166 229 230
f 166 230 231
f 166 231 232
f 166 232 233
f 166 233 234
f 166 234 235
f 166 235 236
f 166 236 237
f 166 237 238
f 166 238 239
f 166 239 240
f 166 240 241
f 166 241 242
f 166 242 243
f 166 243 244
f 166 244 245
f 166 245 246
f 166 246 247
f 166 247 248
f 166 248 249
f 166 249 250
f 166 250 251
f 166 251 252
f 166 252 253
f 166 253 254
f 166 254 255
f 166 255 256
f 166 256 257
f 166 257 258
f 166 258 259
f 166 259 260
f 166 260 261
f 166 261 262
f 166 262 263
f 166 263 264
f 166 264 265
f 166 265 266
f 166 266 267
f 166 267 268
f 166 268 269
f 166 269 270
f 166 270 271
f 166 271 272
f 166 272 273
f 166 273 274
f 166 274 275
f 166 275 276
f 166 276 277
f 166 277 278
f 166 278 279
f 166 279 280
f 166 280 281
f 166 281 282
f 166 282 283
f 166 283 284
f 166 284 285
f 166 285 286
f 166 286 287
f 166 287 288
f 166 288 289
f 166 289 290
f 166 290 291
f 166 291 292
f 166 292 293
f 166 293 294
f 166 294 295
f 166 295 296
f 166 296 297
f 166 297 298
f 166 298 299
f 166 299 300
f 166 300 301
f 166 301 302
f 166 302 303
f 166 303 304
f 166 304 305
f 166 305 306
f 166 306 307
f 166 307 308
f 166 308 309
f 166 309 310
f 166 310 311
f 166 311 312
f 166 312 313
f 166 313 314
f 166 314 315
f 166 315 316
f 166 316 317
f 166 317 318
f 166 318 319
f 166 319 320
f 166 320 321
f 166 321 322
f 166 322 323
f 166 323 324
f 166 324 325
f 166 325 326
f 166 326 327
f 166 327 328
f 166 328 329
f 166 329 330
f 165 1 166
f 165 166 330
f 1 2 167
f 1 167 166
f 2 3 168
f 2 168 167
f 3 4 169
f 3 169 168
f 4 5 170
f 4 170 169
f 5 6 171
f 5 171 170
f 6 7 172
f 6 172 171
f 7 8 173
f 7 173 172
f 8 9 174
f 8 174 173
f 9 10 175
f 9 175 174
f 10 11 176
f 10 176 175
f 11 12 177
f 11 177 176
f 12 13 178
f 12 178 177
f 13 14 179
f 13 179 178
f 14 15 180
f 14 180 179
f 15 16 181
f 15 181 180
f 16 17 182
f 16 182 181
f 17 18 183
f 17 183 182
f 18 19 184
f 18 184 183
f 19 20 185
f 19 185 184
f 20 21 186
f 20 186 185
f 21 22 187
f 21 187 186
f 22 23 188
f 22 188 187
f 23 24 189
f 23 189 188
f 24 25 190
f 24 190 189
f 25 26 191
f 25 191 190
f 26 27 192
f 26 192 191
f 27 28 193
f 27 193 192
f 28 29 194
f 28 194 193
f 29 30 195
f 29 195 194
f 30 31 196
f 30 196 195
f 31 32 197
f 31 197 196
f 32 33 198
f 32 198 197
f 33 34 199
f 33 199 198
f 34 35 200
f 34 200 199
f 35 36 201
f 35 201 200
f 36 37 202
f 36 202 201
f 37 38 203
f 37 203 202
f 38 39 204
f 38 204 203
f 39 40 205
f 39 205 204
f 40 41 206
f 40 206 205
f 41 42 207
f 41 207 206
f 42 43 208
f 42 208 207
f 43 44 209
f 43 209 208
f 44 45 210
f 44 210 209
f 45 46 211
f 45 211 210
f 46 47 212
f 46 212 211
f 47 48 213
f 47 213 212
f 48 49 214
f 48 214 213
f 49 50 215
f 49 215 214
f 50 51 216
f 50 216 215
f 51 52 217
f 51 217 216
f 52 53 218
f 52 218 217
f 53 54 219
f 53 219 218
f 54 55 220
f 54 220 219
f 55 56 221
f 55 221 220
f 56 57 222
f 56 222 221
f 57 58 223
f 57 223 222
f 58 59 224
f 58 224 223
f 59 60 225
f 59 225 224
f 60 61 226
f 60 226 225
f 61 62 227
f 61 227 226
f 62 63 228
f 62 228 227
f 63 64 229
f 63 229 228
f 64 65 230
f 64 230 229
f 65 66 231
f 65 231 230
f 66 67 232
f 66 232 231
f 67 68 233
f 67 233 232
f 68 69 234
f 68 234 233
f 69 70 235
f 69 235 234
f 70 71 236
f 70 236 235
f 71 72 237
f 71 237 236
f 72 73 238
f 72 238 237
f 73 74 239
f 73 239 238
f 74 75 240
f 74 240 239
f 75 76 241
f 75 241 240
f 76 77 242
f 76 242 241
f 77 78 243
f 77 243 242
f 78 79 244
f 78 244 243
f 79 80 245
f 79 245 244
f 80 81 246
f 80 246 245
f 81 82 247
f 81 247 246
f 82 83 248
f 82 248 247
f 83 84 249
f 83 249 248
f 84 85 250
f 84 250 249
f 85 86 251
f 85 251 250
f 86 87 252
f 86 252 251
f 87 88 253
f 87 253 252
f 88 89 254
f 88 254 253
f 89 90 255
f 89 255 254
f 90 91 256
f 90 256 255
f 91 92 257
f 91 257 256
f 92 93 258
f 92 258 257
f 93 94 259
f 93 259 258
f 94 95 260
f 94 260 259
f 95 96 261
f 95 261 260
f 96 97 262
f 96 262 261
f 97 98 263
f 97 263 262
f 98 99 264
f 98 264 263
f 99 100 265
f 99 265 264
f 100 101 266
f 100 266 265
f 101 102 267
f 101 267 266
f 102 103 268
f 102 268 267
f 103 104 269
f 103 269 268
f 104 105 270
f 104 270 269
f 105 106 271
f 105 271 270
f 106 107 272
f 106 272 271
f 107 108 273
f 107 273 272
f 108 109 274
f 108 274 273
f 109 110 275
f 109 275 274
f 110 111 276
f 110 276 275
f 111 112 277
f 111 277 276
f 112 113 278
f 112 278 277
f 113 114 279
f 113 279 278
f 114 115 280
f 114 280 279
f 115 116 281
f 115 281 280
f 116 117 282
f 116 282 281
f 117 118 283
f 117 283 282
f 118 119 284
f 118 284 283
f 119 120 285
f 119 285 284
f 120 121 286
f 120 286 285
f 121 122 287
f 121 287 286
f 122 123 288
f 122 288 287
f 123 124 289
f 123 289 288
f 124 125 290
f 124 290 289
f 125 126 291
f 125 291 290
f 126 127 292
f 126 292 291
f 127 128 293
f 127 293 292
f 128 129 294
f 128 294 293
f 129 130 295
f 129 295 294
f 130 131 296
f 130 296 295
f 131 132 297
f 131 297 296
f 132 133 298
f 132 298 297
f 133 134 299
f 133 299 298
f 134 135 300
f 134 300 299
f 135 136 301
f 135 301 300
f 136 137 302
f 136 302 301
f 137 138 303
f 137 303 302
f 138 139 304
f 138 304 303
f 139 140 305
f 139 305 304
f 140 141 306
f 140 306 305
f 141 142 307
f 141 307 306
f 142 143 308
f 142 308 307
f 143 144 309
f 143 309 308
f 144 145 310
f 144 310 309
f 145 146 311
f 145 311 310
f 146 147 312
f 146 312 311
f 147 148 313
f 147 313 312
f 148 149 314
f 148 314 313
f 149 150 315
f 149 315 314
f 150 151 316
f 150 316 315
f 151 152 317
f 151 317 316
f 152 153 318
f 152 318 317
f 153 154 319
f 153 319 318
f 154 155 320
f 154 320 319
f 155 156 321
f 155 321 320
f 156 157 322
f 156 322 321
f 157 158 323
f 157 323 322
f 158 159 324
f 158 324 323
f 159 160 325
f 159 325 324
f 160 161 326
f 160 326 325
f 161 162 327
f 161 327 326
f 162 163 328
f 162 328 327
f 163 164 329
f 163 329 328
f 164 165 330
f 164 330 329
f 165 164 163
f 165 163 162
f 165 162 161
f 165 161 160
f 165 160 159
f 165 159 158
f 165 158 157
f 165 157 156
f 165 156 155
f 165 155 154
f 165 154 153
f 165 153 152
f 165 152 151
f 165 151 150
f 165 150 149
f 165 149 148
f 165 148 147
f 165 147 146
f 165 146 145
f 165 145 144
f 165 144 143
f 165 143 142
f 165 142 141
f 165 141 140
f 165 140 139
f 165 139 138
f 165 138 137
f 165 137 136
f 165 136 135
f 165 135 134
f 165 134 133
f 165 133 132
f 165 132 131
f 165 131 130
f 165 130 129
f 165 129 128
f 165 128 127
f 165 127 126
f 165 126 125
f 165 125 124
f 165 124 123
f 165 123 122
f 165 122 121
f 165 121 120
f 165 120 119
f 165 119 118
f 165 118 117
f 165 117 116
f 165 116 115
f 165 115 114
f 165 114 113
f 165 113 112
f 165 112 111
f 165 111 110
f 165 110 109
f 165 109 108
f 165 108 107
f 165 107 106
f 165 106 105
f 165 105 104
f 165 104 103
f 165 103 102
f 165 102 101
f 165 101 100
f 165 100 99
f 165 99 98
f 165 98 97
f 165 97 96
f 165 96 95
f 165 95 94
f 165 94 93
f 165 93 92
f 165 92 91
f 165 91 90
f 165 90 89
f 165 89 88
f 165 88 87
f 165 87 86
f 165 86 85
f 165 85 84
f 165 84 83
f 165 83 82
f 165 82 81
f 165 81 80
f 165 80 79
f 165 79 78
f 165 78 77
f 165 77 76
f 165 76 75
f 165 75 74
f 165 74 73
f 165 73 72
f 165 72 71
f 165 71 70
f 165 70 69
f 165 69 68
f 165 68 67
f 165 67 66
f 165 66 65
f 165 65 64
f 165 64 63
f 165 63 62
f 165 62 61
f 165 61 60
f 165 60 59
f 165 59 58
f 165 58 57
f 165 57 56
f 165 56 55
f 165 55 54
f 165 54 53
f 165 53 52
f 165 52 51
f 165 51 50
f 165 50 49
f 165 49 48
f 165 48 47
f 165 47 46
f 165 46 45
f 165 45 44
f 165 44 43
f 165 43 42
f 165 42 41
f 165 41 40
f 165 40 39
f 165 39 38
f 165 38 37
f 165 37 36
f 165 36 35
f 165 35 34
f 165 34 33
f 165 33 32
f 165 32 31
f 165 31 30
f 165 30 29
f 165 29 28
f 165 28 27
f 165 27 26
f 165 26 25
f 165 25 24
f 165 24 23
f 165 23 22
f 165 22 21
f 165 21 20
f 165 20 19
f 165 19 18
f 165 18 17
f 165 17 16
f 165 16 15
f 165 15 14
f 165 14 13
f 165 13 12
f 165 12 11
f 165 11 10
f 165 10 9
f 165 9 8
f 165 8 7
f 165 7 6
f 165 6 5
f 165 5 4
f 165 4 3
f 165 3 2
f 165 2 1
