v -18.315693117 -3.423206903 66.669000000
v -15.020693117 0.312793097 66.669000000
v -12.948693117 -2.149206903 66.669000000
v -6.865693117 1.007793097 66.669000000
v -6.728693117 0.887793097 66.669000000
v 8.993306883 -13.024206903 66.669000000
v 5.988306883 -16.737206903 66.669000000
v 2.479306883 -21.074206904 66.669000000
v -13.723693117 -7.321206903 66.669000000
v -15.020693117 0.312793097 69.982000000
v -18.315693117 -3.423206903 69.812000000
v -12.948693117 -2.149206903 69.978000000
v -13.723693117 -7.321206903 69.840000000
v -6.865693117 1.007793097 70.206000000
v 2.479306883 -21.074206904 69.939000000
v 5.988306883 -16.737206903 72.425000000
v -9.954693117 -2.898206904 72.431000000
v 8.993306883 -13.024206903 70.290000000
v -6.728693117 0.887793097 70.207000000
f 1 2 3
f 1 3 4
f 1 4 5
f 1 5 6
f 1 6 7
f 1 7 8
f 1 8 9
f 10 2 1
f 10 1 11
f 12 3 2
f 12 2 10
f 11 1 9
f 11 9 13
f 14 4 3
f 14 3 12
f 13 9 8
f 13 8 15
f 15 8 7
f 15 7 16
f 16 7 6
f 16 6 18
f 18 6 5
f 18 5 19
f 19 5 4
f 19 4 14
f 17 13 15
f 17 15 16
f 18 19 17
f 18 17 16
f 19 14 12
f 19 12 10
f 19 10 11
f 19 11 13
