v 25.945397638 0.238349991 69.440000000
v 26.041397638 0.461349991 69.440000000
v 26.043397638 0.608349991 69.440000000
v 26.002397638 0.749349991 69.440000000
v 25.888397638 0.907349992 69.440000000
v -14.463602362 -9.086650008 69.440000000
v -17.335602362 -7.041650008 69.440000000
v -15.992602362 -5.344650009 69.440000000
v -13.309602362 -7.655650008 69.440000000
v -13.309602362 -7.655650008 72.529000000
v -15.992602362 -5.344650009 72.533000000
v -17.335602362 -7.041650008 72.313000000
v -14.463602362 -9.086650008 72.342000000
v 11.535397638 -3.201650009 69.440000000
v 8.021397638 -4.068650009 69.440000000
v 4.530397638 -4.929650009 69.440000000
v 1.213397638 7.330349991 69.440000000
v 0.084397638 7.084349991 69.440000000
v -0.693602362 10.302349991 69.440000000
v 9.347397638 12.307349991 69.440000000
v 9.519397638 11.086349991 69.440000000
v 9.829397638 10.840349991 69.440000000
v 9.820397638 9.203349992 69.440000000
v 9.819397638 8.966349991 69.440000000
v 8.021397638 -4.068650009 77.636000000
v 11.535397638 -3.201650009 74.013000000
v 5.492397638 8.261349991 77.670000000
v 5.492397638 8.261349991 73.273000000
v 1.213397638 7.330349991 73.278000000
v 4.530397638 -4.929650009 74.033000000
v 9.519397638 11.086349991 73.155000000
v 9.347397638 12.307349991 73.081000000
v 0.084397638 7.084349991 73.279000000
v 9.820397638 9.203349992 73.233000000
v 9.820397638 9.203349992 73.268000000
v 9.786397638 9.196349991 73.268000000
v 9.819397638 8.966349991 73.282000000
v -0.693602362 10.302349991 73.082000000
v 9.829397638 10.840349991 73.172000000
v 16.794397638 -5.037650009 69.440000000
v 14.526397638 -3.276650009 69.440000000
v 20.543397638 4.983349991 69.440000000
v 23.070397638 3.057349991 69.440000000
v 20.017397638 -7.540650009 69.440000000
v 23.070397638 3.057349991 72.571000000
v 20.543397638 4.983349991 71.545000000
v 26.002397638 0.749349991 71.348000000
v 25.888397638 0.907349992 71.409000000
v 26.041397638 0.461349991 71.280000000
v 26.043397638 0.608349991 71.309000000
v 25.945397638 0.238349991 71.260000000
v 16.794397638 -5.037650009 72.570000000
v 20.017397638 -7.540650009 71.233000000
v 14.526397638 -3.276650009 71.642000000
f 6 7 8
f 6 8 9
f 10 9 8
f 10 8 11
f 12 7 6
f 12 6 13
f 11 8 7
f 11 7 12
f 13 6 9
f 13 9 10
f 13 10 11
f 13 11 12
f 14 15 16
f 14 16 17
f 14 17 18
f 14 18 19
f 14 19 20
f 14 20 21
f 14 21 22
f 14 22 23
f 14 23 24
f 25 15 14
f 25 14 26
f 29 17 16
f 29 16 30
f 30 16 15
f 30 15 25
f 31 21 20
f 31 20 32
f 33 18 17
f 33 17 29
f 34 35 36
f 26 14 24
f 26 24 37
f 38 19 18
f 38 18 33
f 32 20 19
f 32 19 38
f 39 22 21
f 39 21 31
f 37 24 23
f 37 23 34
f 35 34 23
f 35 23 22
f 35 22 39
f 30 25 27
f 30 27 29
f 37 34 36
f 37 36 27
f 37 27 25
f 37 25 26
f 35 39 31
f 35 31 32
f 35 32 38
f 35 38 33
f 35 33 29
f 35 29 28
f 35 28 36
f 40 41 42
f 40 42 43
f 40 43 5
f 40 5 4
f 40 4 3
f 40 3 2
f 40 2 1
f 40 1 44
f 45 43 42
f 45 42 46
f 47 4 5
f 47 5 48
f 48 5 43
f 48 43 45
f 49 2 3
f 49 3 50
f 50 3 4
f 50 4 47
f 51 1 2
f 51 2 49
f 52 40 44
f 52 44 53
f 53 44 1
f 53 1 51
f 46 42 41
f 46 41 54
f 54 41 40
f 54 40 52
f 53 51 49
f 53 49 50
f 53 50 47
f 53 47 48
f 53 48 45
f 53 45 52
f 54 52 45
f 54 45 46
