v 6.662238540 -9.043638367 6.400000000
v 1.243238540 -10.910638367 6.400000000
v 1.038238540 -9.975638367 6.400000000
v 0.732238540 -8.581638367 6.400000000
v 0.433238540 -7.215638367 6.400000000
v 0.120238540 -5.791638367 6.400000000
v 5.279238540 -4.995638367 6.400000000
v 4.497238540 -8.177638367 9.695000000
v 4.497238540 -8.177638367 9.308000000
v 3.670238540 -7.546638367 9.172000000
v 3.670238540 -7.546638367 9.452000000
v 0.433238540 -7.215638367 8.975000000
v 0.433238540 -7.215638367 9.396000000
v 0.120238540 -5.791638367 8.738000000
v 3.092238540 -8.328638366 9.795000000
v 3.092238540 -8.328638366 9.662000000
v 3.092238540 -8.328638366 9.268000000
v 3.452238540 -9.203638366 9.066000000
v 3.452238540 -9.203638366 9.421000000
v 3.281238540 -8.787638367 9.349000000
v 1.243238540 -10.910638367 9.588000000
v 6.662238540 -9.043638367 9.541000000
v 0.732238540 -8.581638367 9.964000000
v 2.199238540 -8.424638367 9.859000000
v 0.732238540 -8.581638367 10.182000000
v 1.038238540 -9.975638367 9.307000000
v 1.038238540 -9.975638367 9.433000000
v 5.279238540 -4.995638367 8.846000000
v -9.659761460 4.768361633 6.400000000
v -7.635761460 8.396361633 6.400000000
v -2.641761460 8.996361633 6.400000000
v -1.984761460 6.103361633 6.400000000
v -1.984761460 6.103361633 9.147000000
v -2.641761460 8.996361633 9.052000000
v -7.635761460 8.396361633 9.049000000
v -9.659761460 4.768361633 9.156000000
v 6.560238540 -5.225638367 6.400000000
v 4.991238540 -0.116638367 6.400000000
v 3.444238540 4.920361633 6.400000000
v 11.779238540 7.551361633 6.400000000
v 13.483238540 2.647361633 6.400000000
v 15.189238540 -2.265638367 6.400000000
v 4.991238540 -0.116638367 15.852000000
v 6.560238540 -5.225638367 10.871000000
v 15.189238540 -2.265638367 10.974000000
v 11.779238540 7.551361633 11.000000000
v 3.444238540 4.920361633 10.957000000
v 13.483238540 2.647361633 15.822000000
f 37 38 39
f 37 39 40
f 37 40 41
f 37 41 42
f 43 38 37
f 43 37 44
f 44 37 42
f 44 42 45
f 46 40 39
f 46 39 47
f 47 39 38
f 47 38 43
f 48 41 40
f 48 40 46
f 45 42 41
f 45 41 48
f 43 48 46
f 43 46 47
f 45 48 43
f 45 43 44
f 1 2 3
f 1 3 4
f 1 4 5
f 1 5 6
f 1 6 7
f 8 9 10
f 8 10 11
f 11 10 12
f 11 12 13
f 14 6 5
f 14 5 12
f 15 16 17
f 15 17 9
f 15 9 8
f 18 19 20
f 17 16 20
f 21 2 1
f 21 1 22
f 13 12 5
f 25 23 4
f 19 18 26
f 19 26 27
f 27 26 3
f 27 3 2
f 27 2 21
f 28 7 6
f 28 6 14
f 22 1 7
f 22 7 28
f 23 24 15
f 23 15 8
f 23 8 11
f 23 11 13
f 26 18 20
f 26 20 16
f 26 16 24
f 26 24 25
f 22 28 14
f 22 14 12
f 22 12 10
f 22 10 9
f 22 9 17
f 22 17 20
f 22 20 19
f 22 19 27
f 22 27 21
f 29 30 31
f 29 31 32
f 33 32 31
f 33 31 34
f 34 31 30
f 34 30 35
f 36 29 32
f 36 32 33
f 35 30 29
f 35 29 36
f 35 36 33
f 35 33 34
