v 10.015606213 39.351633233 95.319000000
v 13.086606213 18.553633233 95.319000000
v 4.991606213 17.356633233 95.319000000
v -3.128393787 16.155633233 95.319000000
v -6.233393787 36.343633233 95.319000000
v 1.873606213 37.844633233 95.319000000
v 13.086606213 18.553633233 99.671000000
v 10.015606213 39.351633233 99.648000000
v 1.873606213 37.844633233 102.577000000
v 4.991606213 17.356633233 102.567000000
v -3.128393787 16.155633233 99.667000000
v -6.233393787 36.343633233 99.665000000
v 23.748606213 65.635633233 95.319000000
v 23.615606213 66.110633233 95.319000000
v 21.613606213 65.702633233 95.319000000
v 17.398606213 64.844633233 95.319000000
v 19.002606213 52.508633233 95.319000000
v 15.487606213 52.010633233 95.319000000
v 11.932606213 51.507633233 95.319000000
v 10.032606213 64.077633233 95.319000000
v 10.216606213 64.320633233 95.319000000
v 10.173606213 64.864633233 95.319000000
v 9.922606213 64.803633233 95.319000000
v 9.872606213 65.133633233 95.319000000
v 10.141606213 65.258633233 95.319000000
v 9.948606213 67.652633233 95.319000000
v 9.941606213 67.737633233 95.319000000
v 8.926606213 67.599633233 95.319000000
v 9.381606213 71.129633233 95.319000000
v 16.532606213 72.190633233 95.319000000
v 16.582606213 72.198633233 95.319000000
v 16.732606213 72.220633233 95.319000000
v 16.516606213 72.343633233 95.319000000
v 15.858606213 78.485633233 95.319000000
v 20.282606213 79.070633233 95.319000000
v 23.139606213 79.448633233 95.319000000
v 25.317606213 79.391633233 95.319000000
v 25.744606213 73.381633233 95.319000000
v 37.218606213 75.056633233 95.319000000
v 37.813606213 75.138633233 95.319000000
v 38.175606213 75.180633233 95.319000000
v 40.117606213 75.461633233 95.319000000
v 49.617606213 76.769633233 95.319000000
v 46.322606213 88.420633233 95.319000000
v 55.381606213 89.679633233 95.319000000
v 66.190606213 91.180633233 95.319000000
v 67.586606213 72.461633233 95.319000000
v 65.945606213 71.664633233 95.319000000
v 66.491606213 68.924633233 95.319000000
v 58.291606213 68.117633233 95.319000000
v 51.679606213 67.467633233 95.319000000
v 41.180606213 66.435633233 95.319000000
v 41.220606213 66.168633233 95.319000000
v 42.788606213 55.543633233 95.319000000
v 39.364606213 55.298633233 95.319000000
v 36.008606213 55.057633233 95.319000000
v 34.118606213 67.257633233 95.319000000
v 34.071606213 67.559633233 95.319000000
v 22.453606213 69.430633233 103.302000000
v 22.453606213 69.430633233 102.655000000
v 21.780606213 69.340633233 103.288000000
v 21.780606213 69.340633233 103.304000000
v 21.780606213 69.340633233 103.234000000
v 20.282606213 79.070633233 103.288000000
v 13.112606213 68.114633233 103.252000000
v 13.112606213 68.114633233 103.237000000
v 15.487606213 52.010633233 103.365000000
v 10.749606213 65.006633233 99.758000000
v 10.749606213 65.006633233 99.745000000
v 13.087606213 68.082633233 103.201000000
v 13.112606213 68.114633233 103.237000000
v 15.858606213 78.485633233 98.887000000
v 16.516606213 72.343633233 98.573000000
v 22.602606213 70.092633233 102.506000000
v 22.602606213 70.092633233 102.424000000
v 38.203606213 73.349633233 101.330000000
v 38.203606213 73.349633233 101.059000000
v 39.478606213 73.298633233 101.333000000
v 39.478606213 73.298633233 101.487000000
v 21.133606213 67.561633233 101.257000000
v 21.133606213 67.561633233 101.237000000
v 21.659606213 65.909633233 99.129000000
v 21.659606213 65.909633233 100.605000000
v 25.756606213 73.211633233 99.164000000
v 25.756606213 73.211633233 99.079000000
v 37.536606213 68.961633233 103.279000000
v 37.536606213 68.961633233 103.020000000
v 37.775606213 69.500633233 103.670000000
v 38.166606213 70.381633233 104.732000000
v 38.166606213 70.381633233 104.308000000
v 9.872606213 65.133633233 100.099000000
v 9.922606213 64.803633233 99.667000000
v 58.291606213 68.117633233 101.475000000
v 66.491606213 68.924633233 98.696000000
v 65.945606213 71.664633233 98.755000000
v 37.459606213 68.787633233 103.153000000
v 41.220606213 66.168633233 98.812000000
v 41.180606213 66.435633233 99.160000000
v 42.788606213 55.543633233 98.842000000
v 39.364606213 55.298633233 103.301000000
v 16.732606213 72.220633233 98.764000000
v 37.102606213 71.312633233 103.152000000
v 37.102606213 71.312633233 103.400000000
v 36.408606213 71.319633233 103.277000000
v 17.398606213 64.844633233 98.637000000
v 17.398606213 64.844633233 98.541000000
v 17.391606213 64.896633233 98.605000000
v 17.391606213 64.896633233 98.635000000
v 15.098606213 66.629633233 101.107000000
v 25.744606213 73.381633233 98.951000000
v 25.744606213 73.381633233 99.066000000
v 25.750606213 73.283633233 99.073000000
v 8.926606213 67.599633233 103.182000000
v 9.941606213 67.737633233 103.186000000
v 9.948606213 67.652633233 103.292000000
v 10.032606213 64.077633233 98.688000000
v 11.932606213 51.507633233 98.845000000
v 10.216606213 64.320633233 98.961000000
v 37.102606213 71.312633233 103.125000000
v 37.321606213 71.338633233 103.404000000
v 55.381606213 89.679633233 101.479000000
v 46.322606213 88.420633233 98.214000000
v 49.617606213 76.769633233 98.714000000
v 49.617606213 76.769633233 98.822000000
v 19.002606213 52.508633233 98.986000000
v 21.613606213 65.702633233 98.885000000
v 51.679606213 67.467633233 98.693000000
v 21.613606213 65.702633233 100.526000000
v 23.615606213 66.110633233 99.048000000
v 23.615606213 66.110633233 100.635000000
v 16.582606213 72.198633233 98.766000000
v 13.112606213 68.114633233 103.256000000
v 13.112606213 68.114633233 103.259000000
v 21.724606213 69.298633233 103.262000000
v 25.317606213 79.391633233 98.606000000
v 37.218606213 75.056633233 98.779000000
v 21.780606213 69.340633233 103.220000000
v 9.381606213 71.129633233 98.861000000
v 34.118606213 67.257633233 98.693000000
v 34.071606213 67.559633233 99.071000000
v 23.748606213 65.635633233 98.446000000
v 40.117606213 75.461633233 98.757000000
v 40.117606213 75.461633233 100.499000000
v 50.941606213 72.086633233 104.738000000
v 50.941606213 72.086633233 99.066000000
v 49.642606213 76.681633233 98.826000000
v 38.175606213 75.180633233 98.784000000
v 38.175606213 75.180633233 100.434000000
v 51.759606213 69.194633233 100.893000000
v 51.759606213 69.194633233 99.216000000
v 51.695606213 67.808633233 99.127000000
v 51.679606213 67.467633233 99.105000000
v 66.190606213 91.180633233 97.796000000
v 10.216606213 64.320633233 98.992000000
v 10.173606213 64.864633233 99.695000000
v 12.471606213 68.028633233 103.257000000
v 16.532606213 72.190633233 98.766000000
v 38.249606213 70.392633233 104.414000000
v 38.249606213 70.392633233 104.732000000
v 38.245606213 70.620633233 104.448000000
v 21.452606213 67.639633233 101.280000000
v 23.103606213 67.922633233 101.349000000
v 36.008606213 55.057633233 99.038000000
v 37.813606213 75.138633233 98.776000000
v 23.139606213 79.448633233 100.604000000
v 67.586606213 72.461633233 98.170000000
v 10.141606213 65.258633233 100.203000000
v 38.304606213 48.622633233 95.319000000
v 38.369606213 48.167633233 95.319000000
v 38.843606213 44.845633233 95.319000000
v 38.962606213 44.012633233 95.319000000
v 40.386606213 42.421633233 95.319000000
v 32.382606213 41.547633233 95.319000000
v 24.726606213 40.711633233 95.319000000
v 24.674606213 40.705633233 95.319000000
v 18.434606213 40.024633233 95.319000000
v 18.635606213 40.518633233 95.319000000
v 17.272606213 47.191633233 95.319000000
v 17.146606213 47.807633233 95.319000000
v 39.601606213 51.275633233 95.319000000
v 32.382606213 41.547633233 99.813000000
v 40.386606213 42.421633233 99.509000000
v 38.962606213 44.012633233 101.661000000
v 38.843606213 44.845633233 101.678000000
v 38.843606213 44.845633233 102.682000000
v 17.146606213 47.807633233 99.298000000
v 17.272606213 47.191633233 100.044000000
v 32.382606213 41.547633233 101.516000000
v 32.719606213 44.255633233 103.009000000
v 18.434606213 40.024633233 100.343000000
v 24.674606213 40.705633233 100.106000000
v 18.635606213 40.518633233 100.903000000
v 24.726606213 40.711633233 101.659000000
v 37.934606213 45.161633233 103.214000000
v 38.369606213 48.167633233 101.746000000
v 24.674606213 40.705633233 101.660000000
v 23.509606213 42.972633233 103.025000000
v 38.304606213 48.622633233 101.755000000
v 39.601606213 51.275633233 98.839000000
v 38.369606213 48.167633233 102.302000000
v 38.013606213 48.029633233 102.407000000
v 19.938606213 43.735633233 104.545000000
v 37.078606213 46.117633233 104.508000000
f 13 14 15
f 13 15 16
f 13 16 17
f 13 17 18
f 13 18 19
f 13 19 20
f 13 20 21
f 13 21 22
f 13 22 23
f 13 23 24
f 13 24 25
f 13 25 26
f 13 26 27
f 13 27 28
f 13 28 29
f 13 29 30
f 13 30 31
f 13 31 32
f 13 32 33
f 13 33 34
f 13 34 35
f 13 35 36
f 13 36 37
f 13 37 38
f 13 38 39
f 13 39 40
f 13 40 41
f 13 41 42
f 13 42 43
f 13 43 44
f 13 44 45
f 13 45 46
f 13 46 47
f 13 47 48
f 13 48 49
f 13 49 50
f 13 50 51
f 13 51 52
f 13 52 53
f 13 53 54
f 13 54 55
f 13 55 56
f 13 56 57
f 13 57 58
f 59 60 61
f 59 61 62
f 68 69 70
f 66 71 70
f 64 35 34
f 64 34 72
f 72 34 33
f 72 33 73
f 74 75 60
f 74 60 59
f 76 77 78
f 76 78 79
f 80 81 82
f 80 82 83
f 84 85 75
f 84 75 74
f 91 24 23
f 91 23 92
f 93 50 49
f 93 49 94
f 94 49 48
f 94 48 95
f 97 53 52
f 97 52 98
f 99 54 53
f 99 53 97
f 100 55 54
f 100 54 99
f 73 33 32
f 73 32 101
f 105 106 107
f 105 107 108
f 108 107 109
f 110 111 112
f 85 84 112
f 113 28 27
f 113 27 114
f 114 27 26
f 114 26 115
f 116 20 19
f 116 19 117
f 118 21 20
f 118 20 116
f 103 102 119
f 103 119 120
f 121 45 44
f 121 44 122
f 122 44 43
f 122 43 123
f 122 123 124
f 67 18 17
f 67 17 125
f 117 19 18
f 117 18 67
f 106 16 15
f 106 15 126
f 125 17 16
f 125 16 106
f 125 106 105
f 98 52 51
f 98 51 127
f 83 82 126
f 83 126 128
f 128 126 15
f 128 15 14
f 128 14 129
f 128 129 130
f 101 32 31
f 101 31 131
f 111 110 38
f 111 38 37
f 111 37 135
f 136 39 38
f 136 38 110
f 62 61 63
f 62 63 137
f 62 137 134
f 138 29 28
f 138 28 113
f 140 58 57
f 140 57 139
f 141 13 58
f 141 58 140
f 79 78 142
f 79 142 143
f 144 145 146
f 124 123 146
f 143 142 42
f 143 42 41
f 143 41 147
f 143 147 148
f 149 150 145
f 149 145 144
f 150 149 151
f 127 152 151
f 152 127 51
f 152 51 50
f 152 50 93
f 153 46 45
f 153 45 121
f 154 118 69
f 154 69 68
f 155 22 21
f 155 21 118
f 155 118 154
f 92 23 22
f 92 22 155
f 71 66 65
f 71 65 132
f 71 132 133
f 157 30 29
f 157 29 138
f 131 31 30
f 131 30 157
f 81 80 161
f 129 14 13
f 129 13 141
f 130 129 162
f 139 57 56
f 139 56 163
f 164 40 39
f 164 39 136
f 148 147 77
f 148 77 76
f 165 36 35
f 165 35 64
f 135 37 36
f 135 36 165
f 95 48 47
f 95 47 166
f 166 47 46
f 166 46 153
f 115 26 25
f 115 25 167
f 167 25 24
f 167 24 91
f 163 56 55
f 163 55 100
f 123 43 42
f 123 42 142
f 147 41 40
f 147 40 164
f 109 65 67
f 109 67 125
f 109 125 105
f 109 105 108
f 101 63 64
f 101 64 72
f 101 72 73
f 152 93 121
f 152 121 122
f 152 122 124
f 152 124 146
f 152 146 145
f 152 145 150
f 152 150 151
f 69 118 116
f 69 116 117
f 69 117 67
f 69 67 66
f 69 66 70
f 131 157 138
f 131 138 113
f 131 113 114
f 131 114 115
f 131 115 156
f 131 156 133
f 131 133 134
f 131 134 137
f 131 137 101
f 130 162 161
f 130 161 80
f 130 80 83
f 130 83 128
f 162 129 141
f 162 141 140
f 162 140 139
f 162 139 102
f 162 102 104
f 162 104 59
f 162 59 62
f 162 62 134
f 162 134 132
f 162 132 109
f 162 109 107
f 162 107 106
f 162 106 126
f 162 126 82
f 162 82 81
f 162 81 161
f 148 76 79
f 148 79 143
f 135 165 64
f 135 64 61
f 135 61 60
f 135 60 75
f 135 75 85
f 135 85 112
f 135 112 111
f 166 153 121
f 166 121 93
f 166 93 94
f 166 94 95
f 167 91 92
f 167 92 155
f 167 155 154
f 167 154 68
f 167 68 70
f 167 70 71
f 167 71 156
f 167 156 115
f 159 89 88
f 159 88 87
f 159 87 97
f 159 97 98
f 159 98 127
f 159 127 151
f 159 151 149
f 159 149 144
f 100 96 86
f 100 86 88
f 100 88 90
f 100 90 158
f 100 158 160
f 100 160 120
f 100 120 119
f 100 119 139
f 100 139 163
f 147 164 136
f 147 136 110
f 147 110 112
f 147 112 84
f 147 84 74
f 147 74 59
f 147 59 104
f 147 104 103
f 147 103 120
f 147 120 160
f 147 160 159
f 147 159 144
f 147 144 146
f 147 146 123
f 147 123 142
f 147 142 78
f 147 78 77
f 96 100 99
f 96 99 97
f 96 97 87
f 168 169 170
f 168 170 171
f 168 171 172
f 168 172 173
f 168 173 174
f 168 174 175
f 168 175 176
f 168 176 177
f 168 177 178
f 168 178 179
f 168 179 180
f 181 173 172
f 181 172 182
f 182 172 171
f 182 171 183
f 183 171 170
f 183 170 184
f 183 184 185
f 186 179 178
f 186 178 187
f 188 181 189
f 190 176 175
f 190 175 191
f 187 178 177
f 187 177 192
f 193 174 173
f 193 173 181
f 193 181 188
f 192 177 176
f 192 176 190
f 185 184 194
f 184 170 169
f 184 169 195
f 198 168 180
f 198 180 199
f 199 180 179
f 199 179 186
f 196 191 175
f 196 175 174
f 196 174 193
f 195 200 201
f 200 195 169
f 200 169 168
f 200 168 198
f 192 202 187
f 203 202 192
f 203 192 190
f 203 190 191
f 203 191 197
f 203 197 189
f 203 189 181
f 203 181 182
f 203 182 183
f 203 183 185
f 203 185 194
f 196 193 188
f 196 188 189
f 196 189 197
f 195 201 203
f 195 203 194
f 195 194 184
f 200 198 199
f 200 199 186
f 200 186 187
f 200 187 202
f 200 202 203
f 200 203 201
f 1 2 3
f 1 3 4
f 1 4 5
f 1 5 6
f 7 2 1
f 7 1 8
f 8 1 6
f 8 6 9
f 10 3 2
f 10 2 7
f 11 4 3
f 11 3 10
f 9 6 5
f 9 5 12
f 12 5 4
f 12 4 11
f 9 10 7
f 9 7 8
f 12 11 10
f 12 10 9
