v -1.676983087 -4.604109025 13.039000000
v -2.103983087 -5.100109024 13.039000000
v -3.173983087 -4.787109024 13.039000000
v -1.691983087 -0.624109024 13.039000000
v -0.719983087 -0.310109024 13.039000000
v -1.464983087 0.013890976 13.039000000
v 0.517016913 5.580890976 13.039000000
v 1.762016913 9.076890975 13.039000000
v 12.216016913 5.403890976 13.039000000
v 12.023016913 3.717890976 13.039000000
v 11.742016913 1.259890975 13.039000000
v 10.953016913 1.563890976 13.039000000
v 9.438016913 -1.485109025 13.039000000
v 9.521016913 -1.686109024 13.039000000
v 9.390016913 -1.580109024 13.039000000
v 6.404016913 -7.592109025 13.039000000
v 4.334016913 -6.986109024 13.039000000
v -1.925983087 -5.153109024 13.039000000
v 10.953016913 1.563890976 16.258000000
v 11.742016913 1.259890975 16.033000000
v 9.438016913 -1.485109025 16.357000000
v 10.953016913 1.563890976 17.212000000
v 9.521016913 -1.686109024 16.318000000
v 6.404016913 -7.592109025 16.555000000
v 9.390016913 -1.580109024 16.360000000
v 4.334016913 -6.986109024 17.128000000
v 12.023016913 3.717890976 16.188000000
v -1.464983087 0.013890976 15.684000000
v -0.719983087 -0.310109024 15.678000000
v 0.517016913 5.580890976 17.172000000
v 1.762016913 9.076890975 16.187000000
v -1.691983087 -0.624109024 15.514000000
v -3.173983087 -4.787109024 15.525000000
v 12.216016913 5.403890976 16.140000000
v 12.023016913 3.717890976 16.577000000
v -1.925983087 -5.153109024 15.791000000
v -2.103983087 -5.100109024 15.753000000
v -1.676983087 -4.604109025 15.800000000
v 7.809016913 2.450890976 17.124000000
v 11.875016913 -9.822109024 13.039000000
v 11.202016913 -11.145109024 13.039000000
v 9.593016913 -9.949109024 13.039000000
v 10.676016913 -9.352109024 13.039000000
v 10.676016913 -9.352109024 14.873000000
v 9.593016913 -9.949109024 14.948000000
v 11.875016913 -9.822109024 14.786000000
v 11.202016913 -11.145109024 14.829000000
v -5.608983087 -1.938109024 13.039000000
v -4.724983087 -2.726109024 13.039000000
v -4.816983087 -3.220109024 13.039000000
v -7.669983087 -1.544109024 13.039000000
v -6.949983087 -0.612109024 13.039000000
v -4.384983087 -1.645109024 13.039000000
v -4.384983087 -1.645109024 16.030000000
v -6.949983087 -0.612109024 15.947000000
v -7.669983087 -1.544109024 15.027000000
v -4.816983087 -3.220109024 14.733000000
v -5.608983087 -1.938109024 15.414000000
v -4.724983087 -2.726109024 15.126000000
v -1.870983087 -12.775109025 13.039000000
v -3.169983087 -11.640109024 13.039000000
v -4.284983087 -12.056109024 13.039000000
v -4.218983087 -11.402109024 13.039000000
v -4.728983087 -11.340109024 13.039000000
v -4.383983087 -10.578109024 13.039000000
v -4.556983087 -10.426109024 13.039000000
v -4.870983087 -10.151109024 13.039000000
v -6.217983087 -10.617109024 13.039000000
v -5.135983087 -4.903109024 13.039000000
v -4.391983087 -5.332109025 13.039000000
v -4.328983087 -5.568109024 13.039000000
v -0.858983087 -6.307109024 13.039000000
v -1.217983087 -6.880109024 13.039000000
v 2.764016913 -8.708109024 13.039000000
v 1.570016913 -12.112109024 13.039000000
v 2.074016913 -12.174109024 13.039000000
v 0.824016913 -15.931109024 13.039000000
v -1.912983087 -15.253109024 13.039000000
v -2.147983087 -15.226109024 13.039000000
v -1.217983087 -6.880109024 15.886000000
v -0.858983087 -6.307109024 15.896000000
v -2.147983087 -15.226109024 15.396000000
v -1.912983087 -15.253109024 15.408000000
v 0.824016913 -15.931109024 15.540000000
v -3.169983087 -11.640109024 15.337000000
v -1.870983087 -12.775109025 15.152000000
v 2.764016913 -8.708109024 15.952000000
v -1.870983087 -12.775109025 15.423000000
v -4.328983087 -5.568109024 15.833000000
v -4.391983087 -5.332109025 15.833000000
v -4.218983087 -11.402109024 15.314000000
v -4.284983087 -12.056109024 15.142000000
v -4.383983087 -10.578109024 15.511000000
v -4.728983087 -11.340109024 15.289000000
v -1.749983087 -11.705109024 15.434000000
v -1.749983087 -11.705109024 15.850000000
v -1.566983087 -10.080109024 15.862000000
v 1.570016913 -12.112109024 15.912000000
v 1.570016913 -12.112109024 15.596000000
v 2.074016913 -12.174109024 15.621000000
v -4.556983087 -10.426109024 15.535000000
v -4.556983087 -10.426109024 15.804000000
v -4.334983087 -9.965109024 15.670000000
v -4.334983087 -9.965109024 15.810000000
v -5.135983087 -4.903109024 15.822000000
v -4.870983087 -10.151109024 15.799000000
v -6.217983087 -10.617109024 15.771000000
v -3.383983087 -9.637109024 15.830000000
f 1 2 3
f 1 3 4
f 1 4 5
f 1 5 6
f 1 6 7
f 1 7 8
f 1 8 9
f 1 9 10
f 1 10 11
f 1 11 12
f 1 12 13
f 1 13 14
f 1 14 15
f 1 15 16
f 1 16 17
f 1 17 18
f 19 12 11
f 19 11 20
f 21 13 12
f 21 12 19
f 21 19 22
f 23 14 13
f 23 13 21
f 24 16 15
f 24 15 25
f 26 17 16
f 26 16 24
f 20 11 10
f 20 10 27
f 28 6 5
f 28 5 29
f 30 7 6
f 30 6 28
f 31 8 7
f 31 7 30
f 32 4 3
f 32 3 33
f 34 9 8
f 34 8 31
f 35 27 10
f 35 10 9
f 35 9 34
f 36 18 17
f 36 17 26
f 37 2 1
f 37 1 38
f 33 3 2
f 33 2 37
f 38 1 18
f 38 18 36
f 25 15 14
f 25 14 23
f 29 5 4
f 29 4 32
f 22 19 27
f 22 27 35
f 22 35 34
f 22 34 31
f 22 31 30
f 39 26 24
f 39 24 25
f 39 25 23
f 39 23 21
f 27 19 20
f 39 29 32
f 39 32 33
f 39 33 37
f 39 37 38
f 39 38 36
f 39 36 26
f 29 39 21
f 29 21 22
f 29 22 30
f 29 30 28
f 48 49 50
f 48 50 51
f 48 51 52
f 48 52 53
f 54 53 52
f 54 52 55
f 56 51 50
f 56 50 57
f 55 52 51
f 55 51 56
f 58 48 53
f 58 53 54
f 57 50 49
f 57 49 59
f 59 49 48
f 59 48 58
f 59 58 54
f 59 54 55
f 59 55 56
f 59 56 57
f 40 41 42
f 40 42 43
f 44 43 42
f 44 42 45
f 46 40 43
f 46 43 44
f 45 42 41
f 45 41 47
f 47 41 40
f 47 40 46
f 47 46 44
f 47 44 45
f 60 61 62
f 60 62 63
f 60 63 64
f 60 64 65
f 60 65 66
f 60 66 67
f 60 67 68
f 60 68 69
f 60 69 70
f 60 70 71
f 60 71 72
f 60 72 73
f 60 73 74
f 60 74 75
f 60 75 76
f 60 76 77
f 60 77 78
f 60 78 79
f 80 73 72
f 80 72 81
f 82 79 78
f 82 78 83
f 83 78 77
f 83 77 84
f 85 61 60
f 85 60 86
f 87 74 73
f 87 73 80
f 88 86 60
f 88 60 79
f 88 79 82
f 81 72 71
f 81 71 89
f 89 71 70
f 89 70 90
f 91 63 62
f 91 62 92
f 92 62 61
f 92 61 85
f 93 65 64
f 93 64 94
f 94 64 63
f 94 63 91
f 95 96 97
f 98 99 75
f 98 75 74
f 98 74 87
f 96 95 99
f 96 99 98
f 84 77 76
f 84 76 100
f 100 76 75
f 100 75 99
f 101 66 65
f 101 65 93
f 102 101 103
f 102 103 104
f 90 70 69
f 90 69 105
f 106 67 66
f 106 66 101
f 106 101 102
f 107 68 67
f 107 67 106
f 105 69 68
f 105 68 107
f 104 103 108
f 100 99 95
f 100 95 88
f 100 88 82
f 100 82 83
f 100 83 84
f 108 103 101
f 108 101 93
f 108 93 94
f 108 94 91
f 108 91 92
f 108 92 85
f 108 85 86
f 108 86 95
f 108 95 97
f 104 108 97
f 104 97 96
f 104 96 98
f 104 98 87
f 104 87 80
f 104 80 81
f 104 81 89
f 104 89 90
f 104 90 105
f 104 105 107
f 104 107 106
f 104 106 102
