v -5.190501722 2.082719253 0.310000000
v -4.956501722 2.221719254 0.310000000
v -4.890501722 2.294719254 0.310000000
v -2.897501722 2.112719254 0.310000000
v 5.433498278 1.351719254 0.310000000
v 5.741498278 7.146719254 0.310000000
v 8.513498278 5.782719254 0.310000000
v 8.001498278 -3.861280746 0.310000000
v 7.953498278 -4.771280746 0.310000000
v 1.804498278 -4.772280746 0.310000000
v 2.307498278 -2.337280747 0.310000000
v -3.026501722 -2.045280746 0.310000000
v -2.913501722 1.610719254 0.310000000
v -5.098501722 2.063719254 0.310000000
v -5.949501722 1.121719254 0.310000000
v -7.518501722 2.565719253 0.310000000
v 5.741498278 7.146719254 3.503000000
v 5.433498278 1.351719254 3.430000000
v -2.897501722 2.112719254 3.620000000
v -4.890501722 2.294719254 5.631000000
v -5.098501722 2.063719254 5.830000000
v -2.913501722 1.610719254 3.614000000
v -5.949501722 1.121719254 6.644000000
v -7.518501722 2.565719253 8.285000000
v 8.513498278 5.782719254 3.424000000
v -4.956501722 2.221719254 5.695000000
v -5.190501722 2.082719253 5.924000000
v 8.001498278 -3.861280746 3.302000000
v 8.001498278 -3.861280746 2.993000000
v -3.026501722 -2.045280746 3.566000000
v 7.953498278 -4.771280746 2.911000000
v 2.307498278 -2.337280747 3.125000000
v 2.307498278 -2.337280747 3.446000000
v 1.804498278 -4.772280746 2.904000000
v 3.170498278 -2.384280746 3.122000000
v 3.170498278 -2.384280746 3.427000000
f 1 2 3
f 1 3 4
f 1 4 5
f 1 5 6
f 1 6 7
f 1 7 8
f 1 8 9
f 1 9 10
f 1 10 11
f 1 11 12
f 1 12 13
f 1 13 14
f 1 14 15
f 1 15 16
f 17 6 5
f 17 5 18
f 18 5 4
f 18 4 19
f 19 4 3
f 19 3 20
f 21 14 13
f 21 13 22
f 23 15 14
f 23 14 21
f 24 16 15
f 24 15 23
f 25 7 6
f 25 6 17
f 26 2 1
f 26 1 27
f 28 29 8
f 28 8 7
f 28 7 25
f 22 13 12
f 22 12 30
f 27 1 16
f 27 16 24
f 20 3 2
f 20 2 26
f 31 9 8
f 31 8 29
f 30 12 11
f 30 11 32
f 30 32 33
f 32 11 10
f 32 10 34
f 33 32 35
f 33 35 36
f 36 35 29
f 36 29 28
f 34 10 9
f 34 9 31
f 20 26 27
f 20 27 24
f 20 24 23
f 20 23 21
f 20 21 22
f 20 22 19
f 36 28 25
f 36 25 17
f 36 17 18
f 36 18 19
f 36 19 22
f 36 22 30
f 36 30 33
f 34 31 29
f 34 29 35
f 34 35 32
