v -8.250818233 9.786864864 70.260000000
v -8.777818233 14.555864863 70.260000000
v 11.213181767 15.285864864 70.260000000
v 11.292181767 10.457864863 70.260000000
v 11.455181767 10.463864863 70.260000000
v 11.438181767 9.238864863 70.260000000
v 15.066181767 9.915864863 70.260000000
v 15.404181767 1.175864863 70.260000000
v 11.115181767 0.720864863 70.260000000
v 10.479181767 5.128864863 70.260000000
v -7.580818233 3.726864863 70.260000000
v 11.213181767 15.285864864 72.880000000
v -8.777818233 14.555864863 72.911000000
v 11.292181767 10.457864863 74.612000000
v -8.250818233 9.786864864 74.627000000
v -7.580818233 3.726864863 72.436000000
v 11.438181767 9.238864863 72.703000000
v 11.438181767 9.238864863 74.171000000
v 11.382181767 5.198864863 72.717000000
v 15.066181767 9.915864863 72.755000000
v 11.455181767 10.463864863 74.612000000
v 15.404181767 1.175864863 72.793000000
v 10.479181767 5.128864863 72.704000000
v 11.115181767 0.720864863 72.730000000
f 1 2 3
f 1 3 4
f 1 4 5
f 1 5 6
f 1 6 7
f 1 7 8
f 1 8 9
f 1 9 10
f 1 10 11
f 12 3 2
f 12 2 13
f 14 4 3
f 14 3 12
f 15 1 11
f 15 11 16
f 13 2 1
f 13 1 15
f 20 7 6
f 20 6 17
f 18 17 6
f 18 6 5
f 18 5 21
f 21 5 4
f 21 4 14
f 22 8 7
f 22 7 20
f 23 10 9
f 23 9 24
f 16 11 10
f 16 10 23
f 24 9 8
f 24 8 22
f 13 15 14
f 13 14 12
f 16 23 19
f 16 19 18
f 16 18 21
f 16 21 14
f 16 14 15
f 24 22 20
f 24 20 17
f 24 17 19
f 24 19 23
