v 0.614228795 -16.966298978 5.949000000
v 0.731228795 -17.055298978 5.949000000
v 0.821228795 -17.094298977 5.949000000
v 0.916228795 -17.115298978 5.949000000
v 1.063228795 -17.111298977 5.949000000
v 1.158228795 -17.084298978 5.949000000
v 1.245228795 -17.039298978 5.949000000
v 1.322228795 -16.978298978 5.949000000
v -6.582771205 0.521701022 5.949000000
v -9.007771205 -6.983298978 5.949000000
v -17.026771205 1.334701022 5.949000000
v -15.887771205 2.017701022 5.949000000
v -16.902771205 6.243701022 5.949000000
v -16.830771205 6.286701023 5.949000000
v -16.941771205 6.405701023 5.949000000
v -17.432771205 8.450701023 5.949000000
v -16.731771205 8.927701022 5.949000000
v -17.982771205 10.210701022 5.949000000
v -19.380771205 11.643701022 5.949000000
v -16.097771205 14.378701023 5.949000000
v -12.547771205 17.334701022 5.949000000
v -6.219771205 10.212701023 5.949000000
v -9.262771205 7.271701022 5.949000000
v -13.730771205 2.953701022 5.949000000
v -12.164771205 1.269701023 5.949000000
v -8.283771205 2.430701022 5.949000000
v -6.219771205 10.212701023 10.179000000
v -12.547771205 17.334701022 9.795000000
v -16.097771205 14.378701023 14.380000000
v -19.380771205 11.643701022 10.122000000
v -12.164771205 1.269701023 8.450000000
v -13.730771205 2.953701022 8.181000000
v -13.730771205 2.953701022 8.523000000
v -8.283771205 2.430701022 8.428000000
v -17.982771205 10.210701022 10.137000000
v -17.982771205 10.210701022 11.829000000
v -16.085771205 11.531701023 12.419000000
v -15.131771205 7.287701023 11.801000000
v -15.131771205 7.287701023 10.170000000
v -13.487771205 5.602701022 10.189000000
v -13.487771205 5.602701022 11.806000000
v -16.731771205 8.927701022 11.835000000
v -16.731771205 8.927701022 10.152000000
v -14.825771205 10.222701022 12.422000000
v -11.885771205 7.293701022 12.514000000
v -6.582771205 0.521701022 8.347000000
v -13.054771205 8.512701022 12.515000000
v -17.432771205 8.450701023 9.316000000
v -16.941771205 6.405701023 8.255000000
v -15.887771205 2.017701022 8.527000000
v -17.026771205 1.334701022 8.523000000
v -16.902771205 6.243701022 8.666000000
v -16.830771205 6.286701023 8.252000000
v -16.830771205 6.286701023 8.666000000
v -9.007771205 -6.983298978 8.161000000
v -9.262771205 7.271701022 14.390000000
v 1.546228795 4.482701022 5.949000000
v 3.304228795 2.505701022 5.949000000
v 4.070228795 1.643701022 5.949000000
v 2.116228795 -0.355298977 5.949000000
v 1.856228795 -0.994298978 5.949000000
v 1.310228795 -0.477298978 5.949000000
v -1.690771205 2.359701023 5.949000000
v 1.546228795 4.482701022 8.015000000
v -1.690771205 2.359701023 8.084000000
v 1.310228795 -0.477298978 8.063000000
v 1.310228795 -0.477298978 8.864000000
v 1.856228795 -0.994298978 11.014000000
v 1.636228795 -0.428298977 9.327000000
v 1.636228795 -0.428298977 8.058000000
v 2.116228795 -0.355298977 10.009000000
v 4.070228795 1.643701022 11.035000000
v 2.316228795 1.150701023 8.777000000
v 2.316228795 1.150701023 8.033000000
v 3.304228795 2.505701022 8.943000000
v 3.304228795 2.505701022 8.006000000
v -0.655771205 -12.406298977 5.949000000
v 2.575228795 -15.767298978 5.949000000
v -2.306771205 -13.935298977 5.949000000
v -2.306771205 -13.935298977 8.549000000
v 0.614228795 -16.966298978 8.570000000
v 0.731228795 -17.055298978 8.570000000
v 0.821228795 -17.094298977 8.568000000
v 1.063228795 -17.111298977 8.560000000
v 1.158228795 -17.084298978 8.556000000
v 1.245228795 -17.039298978 8.551000000
v 0.916228795 -17.115298978 8.566000000
v 1.322228795 -16.978298978 8.545000000
v 2.575228795 -15.767298978 8.449000000
v -0.655771205 -12.406298977 8.426000000
f 9 10 11
f 9 11 12
f 9 12 13
f 9 13 14
f 9 14 15
f 9 15 16
f 9 16 17
f 9 17 18
f 9 18 19
f 9 19 20
f 9 20 21
f 9 21 22
f 9 22 23
f 9 23 24
f 9 24 25
f 9 25 26
f 27 22 21
f 27 21 28
f 28 21 20
f 28 20 29
f 29 20 19
f 29 19 30
f 31 25 24
f 31 24 32
f 31 32 33
f 34 26 25
f 34 25 31
f 30 19 18
f 30 18 35
f 38 39 40
f 38 40 41
f 42 43 44
f 36 35 18
f 36 18 17
f 36 17 43
f 36 43 42
f 41 40 45
f 46 9 26
f 46 26 34
f 39 38 47
f 43 17 16
f 43 16 48
f 48 16 15
f 48 15 49
f 50 12 11
f 50 11 51
f 52 13 12
f 52 12 50
f 33 32 53
f 33 53 54
f 51 11 10
f 51 10 55
f 32 24 23
f 32 23 56
f 49 15 14
f 49 14 53
f 54 53 14
f 54 14 13
f 54 13 52
f 55 10 9
f 55 9 46
f 56 23 22
f 56 22 27
f 44 37 36
f 44 36 42
f 45 47 38
f 45 38 41
f 55 46 34
f 55 34 31
f 55 31 33
f 55 33 54
f 55 54 52
f 55 52 50
f 55 50 51
f 56 29 30
f 56 30 35
f 56 35 37
f 56 37 44
f 56 44 43
f 56 43 48
f 56 48 49
f 56 49 53
f 56 53 32
f 47 45 40
f 47 40 39
f 56 27 28
f 56 28 29
f 77 78 8
f 77 8 7
f 77 7 6
f 77 6 5
f 77 5 4
f 77 4 3
f 77 3 2
f 77 2 1
f 77 1 79
f 80 79 1
f 80 1 81
f 82 2 3
f 82 3 83
f 84 5 6
f 84 6 85
f 85 6 7
f 85 7 86
f 87 4 5
f 87 5 84
f 86 7 8
f 86 8 88
f 83 3 4
f 83 4 87
f 88 8 78
f 88 78 89
f 81 1 2
f 81 2 82
f 90 77 79
f 90 79 80
f 89 78 77
f 89 77 90
f 89 90 80
f 89 80 81
f 89 81 82
f 89 82 83
f 89 83 87
f 89 87 84
f 89 84 85
f 89 85 86
f 89 86 88
f 57 58 59
f 57 59 60
f 57 60 61
f 57 61 62
f 57 62 63
f 64 57 63
f 64 63 65
f 65 63 62
f 65 62 66
f 67 66 62
f 67 62 61
f 67 61 68
f 69 70 66
f 69 66 67
f 68 61 60
f 68 60 71
f 71 60 59
f 71 59 72
f 73 74 70
f 73 70 69
f 75 76 74
f 75 74 73
f 76 58 57
f 76 57 64
f 72 59 58
f 72 58 76
f 72 76 75
f 71 69 67
f 71 67 68
f 76 64 65
f 76 65 66
f 76 66 70
f 76 70 74
f 72 75 73
f 72 73 69
f 72 69 71
