v -19.601453299 -1.774816725 35.830000000
v -18.871453299 5.427183274 35.830000000
v -13.304453299 5.158183275 35.830000000
v 4.079546701 4.319183274 35.830000000
v 4.195546701 0.305183275 35.830000000
v 4.065546701 0.313183274 35.830000000
v 3.917546701 -3.892816726 35.830000000
v -13.855453299 -2.944816725 35.830000000
v -13.797453299 -2.096816726 35.830000000
v -18.871453299 5.427183274 38.243000000
v -19.601453299 -1.774816725 38.230000000
v -13.797453299 -2.096816726 38.410000000
v -13.562453299 1.369183274 40.655000000
v -13.562453299 1.369183274 38.413000000
v -13.797453299 -2.096816726 39.038000000
v -13.304453299 5.158183275 38.878000000
v -13.304453299 5.158183275 38.416000000
v 4.079546701 4.319183274 38.779000000
v 4.195546701 0.305183275 40.651000000
v 4.065546701 0.313183274 40.651000000
v 3.917546701 -3.892816726 38.692000000
v -13.855453299 -2.944816725 38.642000000
f 1 2 3
f 1 3 4
f 1 4 5
f 1 5 6
f 1 6 7
f 1 7 8
f 1 8 9
f 10 2 1
f 10 1 11
f 11 1 9
f 11 9 12
f 13 14 12
f 13 12 15
f 16 17 14
f 16 14 13
f 17 3 2
f 17 2 10
f 18 4 3
f 18 3 17
f 18 17 16
f 19 5 4
f 19 4 18
f 20 6 5
f 20 5 19
f 21 7 6
f 21 6 20
f 22 8 7
f 22 7 21
f 15 12 9
f 15 9 8
f 15 8 22
f 17 10 11
f 17 11 12
f 17 12 14
f 13 20 19
f 13 19 18
f 13 18 16
f 15 22 21
f 15 21 20
f 15 20 13
