v -8.914941410 -10.101475250 44.729000000
v -8.930941410 -10.197475250 44.729000000
v -8.886941410 -10.436475250 44.729000000
v -8.838941410 -10.521475250 44.729000000
v -8.696941410 -10.654475249 44.729000000
v -8.608941410 -10.698475250 44.729000000
v 1.407058590 -14.489475249 44.729000000
v 1.503058590 -14.505475250 44.729000000
v 1.601058590 -14.502475250 44.729000000
v 1.742058590 -14.462475250 44.729000000
v 1.865058590 -14.383475250 44.729000000
v 1.960058590 -14.272475250 44.729000000
v 2.004058590 -14.185475250 44.729000000
v 1.622058590 1.946524750 44.729000000
v 2.077058590 0.906524750 44.729000000
v 6.694058590 -0.693475250 44.729000000
v 7.113058590 -0.838475250 44.729000000
v 4.850058590 -6.749475250 44.729000000
v 3.472058590 -10.349475250 44.729000000
v -7.387941410 -6.037475250 44.729000000
v -6.688941410 -6.318475250 44.729000000
v -3.057941410 1.373524751 44.729000000
v -0.555941410 -4.003475250 44.729000000
v -6.688941410 -6.318475250 49.545000000
v -6.688941410 -6.318475250 49.398000000
v -7.387941410 -6.037475250 49.552000000
v -8.914941410 -10.101475250 47.525000000
v -8.886941410 -10.436475250 47.383000000
v -8.838941410 -10.521475250 47.354000000
v -8.930941410 -10.197475250 47.480000000
v -8.696941410 -10.654475249 47.319000000
v -8.608941410 -10.698475250 47.315000000
v 1.742058590 -14.462475250 47.388000000
v 1.865058590 -14.383475250 47.443000000
v 0.621058590 -9.266475250 49.471000000
v 1.503058590 -14.505475250 47.330000000
v 1.601058590 -14.502475250 47.347000000
v 1.407058590 -14.489475249 47.321000000
v 1.960058590 -14.272475250 47.507000000
v 2.004058590 -14.185475250 47.552000000
v 3.472058590 -10.349475250 49.470000000
v 7.113058590 -0.838475250 47.337000000
v 6.694058590 -0.693475250 47.542000000
v 1.622058590 1.946524750 47.242000000
v -0.555941410 -4.003475250 47.365000000
v 1.235058590 -7.691475250 48.723000000
v 1.235058590 -7.691475250 48.680000000
v 3.705058590 -6.588475250 47.787000000
v 3.705058590 -6.588475250 47.844000000
v 4.850058590 -6.749475250 47.667000000
v 4.850058590 -6.749475250 47.323000000
v 3.867058590 -6.611475250 47.770000000
v -3.057941410 1.373524751 45.431000000
v 1.174058590 -7.719475250 48.702000000
v 2.077058590 0.906524750 47.605000000
v 3.439058590 -2.211475249 48.690000000
f 14 15 16
f 14 16 17
f 14 17 18
f 14 18 19
f 14 19 13
f 14 13 12
f 14 12 11
f 14 11 10
f 14 10 9
f 14 9 8
f 14 8 7
f 14 7 6
f 14 6 5
f 14 5 4
f 14 4 3
f 14 3 2
f 14 2 1
f 14 1 20
f 14 20 21
f 14 21 22
f 14 22 23
f 24 25 21
f 24 21 20
f 24 20 26
f 26 20 1
f 26 1 27
f 28 3 4
f 28 4 29
f 30 2 3
f 30 3 28
f 31 5 6
f 31 6 32
f 33 10 11
f 33 11 34
f 29 4 5
f 29 5 31
f 36 8 9
f 36 9 37
f 32 6 7
f 32 7 38
f 37 9 10
f 37 10 33
f 38 7 8
f 38 8 36
f 34 11 12
f 34 12 39
f 40 13 19
f 40 19 41
f 39 12 13
f 39 13 40
f 27 1 2
f 27 2 30
f 42 17 16
f 42 16 43
f 44 14 23
f 44 23 45
f 50 51 52
f 41 19 18
f 41 18 51
f 41 51 50
f 51 18 17
f 51 17 42
f 45 23 22
f 45 22 53
f 53 22 21
f 53 21 25
f 55 15 14
f 55 14 44
f 43 16 15
f 43 15 55
f 27 30 28
f 27 28 29
f 27 29 31
f 27 31 32
f 27 32 38
f 27 38 36
f 27 36 37
f 27 37 33
f 27 33 34
f 27 34 39
f 27 39 40
f 27 40 41
f 27 41 35
f 27 35 24
f 27 24 26
f 51 42 43
f 51 43 56
f 51 56 46
f 51 46 49
f 51 49 52
f 47 54 45
f 47 45 53
f 47 53 25
f 47 25 35
f 47 35 41
f 47 41 50
f 47 50 52
f 47 52 48
f 55 44 45
f 55 45 54
f 55 54 46
f 55 46 56
f 43 55 56
