v -14.382103133 -10.460631338 7.920000000
v -14.049103133 -11.215631338 7.920000000
v -11.963103133 -10.331631337 7.920000000
v -11.767103133 -11.794631338 7.920000000
v -11.557103133 -12.409631338 7.920000000
v -11.681103133 -12.430631338 7.920000000
v -10.587103133 -20.581631337 7.920000000
v -14.062103133 -20.968631337 7.920000000
v -14.867103133 -12.982631338 7.920000000
v -15.004103133 -11.620631337 7.920000000
v -14.293103133 -11.319631337 7.920000000
v -14.867103133 -12.982631338 11.314000000
v -14.867103133 -12.982631338 11.163000000
v -14.062103133 -20.968631337 11.682000000
v -10.587103133 -20.581631337 11.716000000
v -11.681103133 -12.430631338 11.157000000
v -11.681103133 -12.430631338 11.337000000
v -11.767103133 -11.794631338 11.058000000
v -11.963103133 -10.331631337 10.830000000
v -11.557103133 -12.409631338 11.157000000
v -14.049103133 -11.215631338 10.914000000
v -15.004103133 -11.620631337 10.952000000
v -14.382103133 -10.460631338 10.791000000
v -14.293103133 -11.319631337 10.924000000
v 7.056896867 -13.784631338 7.920000000
v -1.254103133 -14.860631337 7.920000000
v -1.260103133 -14.680631338 7.920000000
v -1.323103133 -12.820631337 7.920000000
v -2.556103133 -12.281631337 7.920000000
v -5.480103133 -11.002631337 7.920000000
v -6.337103133 -11.707631337 7.920000000
v -7.487103133 -3.138631337 7.920000000
v -7.404103133 -3.130631338 7.920000000
v 5.571896867 -1.952631338 7.920000000
v 5.906896867 -1.921631337 7.920000000
v 7.125896867 -13.775631337 7.920000000
v -1.390103133 -10.838631338 11.650000000
v -1.390103133 -10.838631338 11.564000000
v -2.556103133 -12.281631337 10.959000000
v -2.556103133 -12.281631337 11.043000000
v -1.398103133 -10.621631337 11.663000000
v 5.571896867 -1.952631338 11.546000000
v 5.571896867 -1.952631338 11.435000000
v 1.863896867 -6.564631337 13.363000000
v 1.863896867 -6.564631337 13.464000000
v -7.404103133 -3.130631338 11.373000000
v -5.480103133 -11.002631337 11.676000000
v 7.125896867 -13.775631337 11.402000000
v 5.906896867 -1.921631337 11.391000000
v -6.337103133 -11.707631337 11.441000000
v -5.480103133 -11.002631337 11.857000000
v -1.323103133 -12.820631337 11.537000000
v -1.260103133 -14.680631338 11.431000000
v -5.750103133 -10.884631338 11.742000000
v -1.254103133 -14.860631337 11.349000000
v 7.056896867 -13.784631338 11.434000000
v -7.487103133 -3.138631337 11.335000000
v 1.989896867 -6.657631338 13.411000000
v -2.535103133 -7.008631337 13.362000000
v 2.436896867 -9.975631338 13.365000000
f 1 2 3
f 1 3 4
f 1 4 5
f 1 5 6
f 1 6 7
f 1 7 8
f 1 8 9
f 1 9 10
f 1 10 11
f 12 13 9
f 12 9 8
f 12 8 14
f 15 7 6
f 15 6 16
f 15 16 17
f 14 8 7
f 14 7 15
f 18 4 3
f 18 3 19
f 20 5 4
f 20 4 18
f 16 6 5
f 16 5 20
f 19 3 2
f 19 2 21
f 22 10 9
f 22 9 13
f 17 16 13
f 17 13 12
f 23 1 11
f 23 11 24
f 24 11 10
f 24 10 22
f 21 2 1
f 21 1 23
f 17 12 14
f 17 14 15
f 21 23 24
f 21 24 22
f 21 22 13
f 21 13 16
f 21 16 20
f 21 20 18
f 21 18 19
f 25 26 27
f 25 27 28
f 25 28 29
f 25 29 30
f 25 30 31
f 25 31 32
f 25 32 33
f 25 33 34
f 25 34 35
f 25 35 36
f 37 38 39
f 37 39 40
f 38 37 41
f 42 43 44
f 42 44 45
f 43 34 33
f 43 33 46
f 47 30 29
f 47 29 39
f 48 36 35
f 48 35 49
f 50 31 30
f 50 30 47
f 50 47 51
f 40 39 29
f 40 29 28
f 40 28 52
f 52 28 27
f 52 27 53
f 49 35 34
f 49 34 43
f 49 43 42
f 51 47 54
f 55 26 25
f 55 25 56
f 53 27 26
f 53 26 55
f 46 33 32
f 46 32 57
f 45 44 58
f 56 25 36
f 56 36 48
f 57 32 31
f 57 31 50
f 46 59 44
f 46 44 43
f 41 44 59
f 41 59 54
f 41 54 47
f 41 47 39
f 41 39 38
f 60 53 55
f 60 55 56
f 60 56 48
f 60 48 49
f 60 49 42
f 60 42 45
f 60 45 58
f 53 60 58
f 53 58 44
f 53 44 41
f 53 41 37
f 53 37 40
f 53 40 52
f 57 50 51
f 57 51 54
f 57 54 59
f 57 59 46
