v -13.191819033 9.956480365 46.240000000
v -13.525819033 9.786480365 46.240000000
v -13.621819033 9.621480365 46.240000000
v -13.647819033 9.480480365 46.240000000
v 8.604180967 -10.128519635 46.240000000
v 4.426180967 -11.001519634 46.240000000
v 3.907180967 -9.257519634 46.240000000
v 7.838180967 -7.719519635 46.240000000
v 7.838180967 -7.719519635 49.990000000
v 3.907180967 -9.257519634 50.055000000
v 4.426180967 -11.001519634 50.167000000
v 8.604180967 -10.128519635 50.144000000
v -5.406819033 9.889480365 46.240000000
v -5.645819033 6.218480365 46.240000000
v -3.812819033 6.239480365 46.240000000
v -0.198819033 6.280480365 46.240000000
v 8.336180967 6.377480365 46.240000000
v 8.477180967 1.608480365 46.240000000
v -0.107819033 1.279480365 46.240000000
v 0.046180967 -7.211519634 46.240000000
v -2.162819033 -8.536519635 46.240000000
v -3.593819033 -7.958519635 46.240000000
v -3.855819033 -7.852519634 46.240000000
v -8.586819033 -8.440519635 46.240000000
v -9.288819033 5.288480366 46.240000000
v -13.820819033 5.590480366 46.240000000
v -13.647819033 9.480480365 50.171000000
v -13.820819033 5.590480366 50.224000000
v -13.525819033 9.786480365 50.168000000
v -13.621819033 9.621480365 50.169000000
v -5.406819033 9.889480365 50.217000000
v -13.191819033 9.956480365 50.167000000
v -5.645819033 6.218480365 50.266000000
v -0.198819033 6.280480365 51.002000000
v -3.812819033 6.239480365 52.467000000
v -9.288819033 5.288480366 50.256000000
v -8.586819033 -8.440519635 50.451000000
v 0.046180967 -7.211519634 50.985000000
v -0.107819033 1.279480365 50.996000000
v 8.336180967 6.377480365 51.003000000
v 8.477180967 1.608480365 50.997000000
v -2.162819033 -8.536519635 51.888000000
v -3.593819033 -7.958519635 52.465000000
v -3.855819033 -7.852519634 52.360000000
v -5.645819033 6.218480365 51.729000000
v -9.333819033 6.176480365 50.244000000
f 2 1 13
f 2 13 14
f 2 14 15
f 2 15 16
f 2 16 17
f 2 17 18
f 2 18 19
f 2 19 20
f 2 20 21
f 2 21 22
f 2 22 23
f 2 23 24
f 2 24 25
f 2 25 26
f 2 26 4
f 2 4 3
f 27 4 26
f 27 26 28
f 29 2 3
f 29 3 30
f 31 13 1
f 31 1 32
f 30 3 4
f 30 4 27
f 33 14 13
f 33 13 31
f 34 16 15
f 34 15 35
f 28 26 25
f 28 25 36
f 36 25 24
f 36 24 37
f 38 20 19
f 38 19 39
f 40 17 16
f 40 16 34
f 41 18 17
f 41 17 40
f 42 21 20
f 42 20 38
f 43 22 21
f 43 21 42
f 39 19 18
f 39 18 41
f 44 23 22
f 44 22 43
f 37 24 23
f 37 23 44
f 45 33 46
f 32 1 2
f 32 2 29
f 35 15 14
f 35 14 33
f 35 33 45
f 39 41 40
f 39 40 34
f 32 29 30
f 32 30 27
f 32 27 28
f 32 28 36
f 32 36 46
f 32 46 33
f 32 33 31
f 35 43 42
f 35 42 38
f 35 38 39
f 35 39 34
f 35 45 46
f 35 46 36
f 35 36 37
f 35 37 44
f 35 44 43
f 5 6 7
f 5 7 8
f 9 8 7
f 9 7 10
f 10 7 6
f 10 6 11
f 12 5 8
f 12 8 9
f 11 6 5
f 11 5 12
f 11 12 9
f 11 9 10
