v 8.623758268 0.115003523 18.250000000
v 6.050758268 -0.119996477 18.250000000
v 4.210758268 -0.288996477 18.250000000
v 3.865758268 3.212003523 18.250000000
v 5.661758268 3.376003523 18.250000000
v 8.246758268 3.611003524 18.250000000
v 8.246758268 3.611003524 17.952000000
v 8.623758268 0.115003523 17.861000000
v 5.661758268 3.376003523 19.904000000
v 7.851758268 3.575003523 18.250000000
v 6.050758268 -0.119996477 20.441000000
v 6.050758268 -0.119996477 19.804000000
v 5.661758268 3.376003523 20.395000000
v 3.865758268 3.212003523 20.431000000
v 8.108758268 0.068003523 18.250000000
v 4.210758268 -0.288996477 20.478000000
v 2.462758268 20.625003523 18.250000000
v 6.401758268 20.706003523 18.250000000
v 7.533758268 10.220003524 18.250000000
v 3.181758268 9.432003523 18.250000000
v 3.102758268 10.655003523 18.250000000
v 1.278758268 11.728003523 18.250000000
v -11.453241732 11.538003524 18.250000000
v -11.776241732 15.576003524 18.250000000
v -12.238241732 21.358003523 18.250000000
v 1.946758268 20.614003523 18.250000000
v 1.946758268 20.614003523 21.147000000
v -12.238241732 21.358003523 20.646000000
v 2.462758268 20.625003523 21.154000000
v 2.462758268 20.625003523 19.992000000
v 3.334758268 11.758003524 20.823000000
v 3.334758268 11.758003524 19.972000000
v 3.382758268 16.709003523 19.952000000
v 3.382758268 16.709003523 22.319000000
v 3.102758268 10.655003523 19.989000000
v 3.181758268 9.432003523 19.989000000
v 1.278758268 11.728003523 20.864000000
v 3.102758268 10.655003523 20.494000000
v -11.453241732 11.538003524 21.119000000
v 2.717758268 16.659003523 22.321000000
v 2.717758268 16.659003523 19.991000000
v 3.032758268 11.754003524 19.989000000
v 3.032758268 11.754003524 20.829000000
v 7.533758268 10.220003524 19.736000000
v -11.776241732 15.576003524 22.349000000
v 6.401758268 20.706003523 19.765000000
v 4.049758268 4.416003523 18.250000000
v 4.086758268 6.139003524 18.250000000
v 5.172758268 5.759003524 18.250000000
v 5.078758268 4.408003523 18.250000000
v 5.078758268 4.408003523 20.390000000
v 5.172758268 5.759003524 20.367000000
v 4.049758268 4.416003523 20.409000000
v 4.086758268 6.139003524 20.382000000
f 1 2 3
f 1 3 4
f 1 4 5
f 1 5 6
f 6 7 8
f 6 8 1
f 7 6 10
f 11 12 9
f 11 9 13
f 13 9 5
f 13 5 4
f 13 4 14
f 1 8 15
f 12 2 15
f 14 4 3
f 14 3 16
f 16 3 2
f 16 2 12
f 16 12 11
f 12 15 8
f 12 8 7
f 12 7 10
f 12 10 9
f 16 11 13
f 16 13 14
f 17 18 19
f 17 19 20
f 17 20 21
f 17 21 22
f 17 22 23
f 17 23 24
f 17 24 25
f 17 25 26
f 27 26 25
f 27 25 28
f 29 30 17
f 29 17 26
f 29 26 27
f 31 32 33
f 31 33 34
f 35 21 20
f 35 20 36
f 37 22 21
f 37 21 35
f 37 35 38
f 39 23 22
f 39 22 37
f 40 41 30
f 40 30 29
f 34 33 41
f 34 41 40
f 38 35 42
f 38 42 43
f 36 20 19
f 36 19 44
f 45 24 23
f 45 23 39
f 28 25 24
f 28 24 45
f 43 42 32
f 43 32 31
f 44 19 18
f 44 18 46
f 46 18 17
f 46 17 30
f 28 45 40
f 28 40 29
f 28 29 27
f 43 31 34
f 43 34 40
f 43 40 45
f 43 45 39
f 43 39 37
f 43 37 38
f 46 30 41
f 46 41 33
f 46 33 32
f 46 32 42
f 46 42 35
f 46 35 36
f 46 36 44
f 47 48 49
f 47 49 50
f 51 50 49
f 51 49 52
f 53 47 50
f 53 50 51
f 52 49 48
f 52 48 54
f 54 48 47
f 54 47 53
f 54 53 51
f 54 51 52
