v -4.100132487 24.786282927 20.469000000
v -1.621132487 22.978282927 20.469000000
v -4.650132487 15.354282927 20.469000000
v -9.767132487 14.417282927 20.469000000
v -11.119132487 16.148282927 20.469000000
v -9.767132487 14.417282927 24.489000000
v -4.650132487 15.354282927 24.548000000
v -11.119132487 16.148282927 24.460000000
v -4.100132487 24.786282927 24.491000000
v -1.621132487 22.978282927 24.534000000
f 1 2 3
f 1 3 4
f 1 4 5
f 6 4 3
f 6 3 7
f 8 5 4
f 8 4 6
f 9 1 5
f 9 5 8
f 7 3 2
f 7 2 10
f 10 2 1
f 10 1 9
f 10 9 8
f 10 8 6
f 10 6 7
