v -12.360370295 -17.598833888 11.539000000
v 4.954629705 -22.487833888 11.539000000
v 5.098629705 -22.492833888 11.539000000
v 5.361629705 -22.381833888 11.539000000
v 5.429629705 -22.313833888 11.539000000
v 5.503629705 -22.190833888 11.539000000
v 15.719629705 7.972166113 11.539000000
v 15.280629705 7.499166112 11.539000000
v 15.502629705 7.438166112 11.539000000
v 17.785629705 6.810166112 11.539000000
v 15.867629705 2.283166112 11.539000000
v 13.291629705 -3.801833888 11.539000000
v 10.403629705 -2.954833888 11.539000000
v 11.838629705 1.397166112 11.539000000
v 11.793629705 1.430166112 11.539000000
v 11.903629705 1.592166112 11.539000000
v 12.238629706 2.609166112 11.539000000
v -0.613370295 8.170166112 11.539000000
v 1.396629705 12.613166112 11.539000000
v 2.896629705 15.930166112 11.539000000
v 4.311629705 19.059166112 11.539000000
v 4.514629705 20.960166113 11.539000000
v 9.165629705 17.510166112 11.539000000
v 9.561629705 18.051166113 11.539000000
v 18.187629705 14.039166112 11.539000000
v 16.453629705 9.776166112 11.539000000
v 14.662629706 5.761166112 11.539000000
v 14.792629706 5.694166112 11.539000000
v 15.154629705 6.583166112 11.539000000
v 2.896629705 15.930166112 17.090000000
v 1.396629705 12.613166112 15.244000000
v 13.291629705 -3.801833888 14.298000000
v 15.867629705 2.283166112 14.320000000
v -0.613370295 8.170166112 14.795000000
v 12.238629706 2.609166112 14.563000000
v 12.238629706 2.609166112 14.542000000
v 11.903629705 1.592166112 14.553000000
v 12.509629705 2.491166112 14.542000000
v 12.509629705 2.491166112 14.536000000
v 15.719629705 7.972166113 16.122000000
v 16.453629705 9.776166112 17.110000000
v 15.154629705 6.583166112 15.363000000
v 15.154629705 6.583166112 14.424000000
v 15.502629705 7.438166112 14.449000000
v 15.502629705 7.438166112 15.830000000
v 15.280629705 7.499166112 15.812000000
v 15.867629705 2.283166112 14.343000000
v 17.785629705 6.810166112 14.479000000
v 9.561629705 18.051166113 15.069000000
v 9.165629705 17.510166112 15.353000000
v 18.187629705 14.039166112 15.119000000
v 4.311629705 19.059166112 15.604000000
v 13.382629705 3.785166112 14.328000000
v 13.382629705 3.785166112 14.526000000
v 15.605629705 2.441166112 14.342000000
v 13.382629705 3.785166112 14.672000000
v 12.540629705 2.537166112 14.541000000
v 11.793629705 1.430166112 14.555000000
v 11.838629705 1.397166112 14.551000000
v 14.662629706 5.761166112 14.880000000
v 14.662629706 5.761166112 14.396000000
v 13.989629705 6.109166112 14.898000000
v 13.989629705 6.109166112 14.391000000
v 13.676629705 4.221166112 14.344000000
v 13.676629705 4.221166112 14.718000000
v 14.792629706 5.694166112 14.397000000
v 13.254629705 5.317166112 14.359000000
v 13.254629705 5.317166112 14.811000000
v 10.403629705 -2.954833888 14.509000000
v 4.514629705 20.960166113 14.818000000
v 8.717629705 -14.603833888 11.539000000
v 2.899629705 -21.910833888 11.539000000
v 6.591629706 -13.730833888 11.539000000
v 2.899629705 -21.910833888 13.554000000
v 4.954629705 -22.487833888 13.418000000
v 5.098629705 -22.492833888 13.409000000
v 5.503629705 -22.190833888 13.394000000
v 8.717629705 -14.603833888 13.425000000
v 5.361629705 -22.381833888 13.397000000
v 5.429629705 -22.313833888 13.395000000
v 6.591629706 -13.730833888 13.574000000
v -13.436370295 -15.138833888 11.539000000
v -9.017370295 -15.600833888 11.539000000
v -9.912370295 -18.295833888 11.539000000
v -13.213370295 -17.195833888 11.539000000
v -9.017370295 -15.600833888 13.970000000
v -13.436370295 -15.138833888 13.838000000
v -13.213370295 -17.195833888 13.530000000
v -12.360370295 -17.598833888 13.507000000
v -9.912370295 -18.295833888 13.511000000
f 7 8 9
f 7 9 10
f 7 10 11
f 7 11 12
f 7 12 13
f 7 13 14
f 7 14 15
f 7 15 16
f 7 16 17
f 7 17 18
f 7 18 19
f 7 19 20
f 7 20 21
f 7 21 22
f 7 22 23
f 7 23 24
f 7 24 25
f 7 25 26
f 27 28 29
f 30 20 19
f 30 19 31
f 32 12 11
f 32 11 33
f 31 19 18
f 31 18 34
f 35 36 17
f 35 17 16
f 35 16 37
f 38 39 36
f 38 36 35
f 34 18 17
f 34 17 36
f 40 7 26
f 40 26 41
f 42 43 44
f 42 44 45
f 45 44 9
f 45 9 8
f 45 8 46
f 47 33 11
f 47 11 10
f 47 10 48
f 49 24 23
f 49 23 50
f 51 25 24
f 51 24 49
f 52 21 20
f 52 20 30
f 48 10 9
f 48 9 44
f 33 47 55
f 39 38 57
f 37 16 15
f 37 15 58
f 58 15 14
f 58 14 59
f 60 61 27
f 60 27 29
f 60 29 43
f 60 43 42
f 62 63 61
f 62 61 60
f 56 54 53
f 56 53 64
f 56 64 65
f 41 26 25
f 41 25 51
f 43 29 28
f 43 28 66
f 66 28 27
f 66 27 61
f 65 64 67
f 65 67 68
f 69 13 12
f 69 12 32
f 59 14 13
f 59 13 69
f 70 22 21
f 70 21 52
f 68 67 63
f 68 63 62
f 46 8 7
f 46 7 40
f 50 23 22
f 50 22 70
f 59 69 32
f 59 32 33
f 59 33 55
f 59 55 54
f 59 54 57
f 59 57 38
f 59 38 35
f 59 35 37
f 59 37 58
f 63 67 64
f 63 64 53
f 63 53 55
f 63 55 47
f 63 47 48
f 63 48 44
f 63 44 43
f 63 43 66
f 63 66 61
f 31 62 60
f 31 60 42
f 31 42 45
f 31 45 46
f 31 46 40
f 31 40 41
f 31 41 30
f 50 70 52
f 50 52 30
f 50 30 41
f 50 41 51
f 50 51 49
f 62 31 34
f 62 34 36
f 62 36 39
f 62 39 57
f 62 57 56
f 62 56 65
f 62 65 68
f 82 83 84
f 82 84 1
f 82 1 85
f 86 83 82
f 86 82 87
f 88 85 1
f 88 1 89
f 90 84 83
f 90 83 86
f 89 1 84
f 89 84 90
f 87 82 85
f 87 85 88
f 87 88 89
f 87 89 90
f 87 90 86
f 71 6 5
f 71 5 4
f 71 4 3
f 71 3 2
f 71 2 72
f 71 72 73
f 74 72 2
f 74 2 75
f 75 2 3
f 75 3 76
f 77 6 71
f 77 71 78
f 79 4 5
f 79 5 80
f 76 3 4
f 76 4 79
f 80 5 6
f 80 6 77
f 81 73 72
f 81 72 74
f 78 71 73
f 78 73 81
f 78 81 74
f 78 74 75
f 78 75 76
f 78 76 79
f 78 79 80
f 78 80 77
