v -2.628832763 17.965408953 51.189000000
v -2.675832763 17.846408953 51.189000000
v 0.912167237 18.466408953 51.189000000
v 1.305167237 18.930408953 51.189000000
v 1.527167237 18.572408953 51.189000000
v 1.738167237 18.609408953 51.189000000
v 1.681167237 18.325408953 51.189000000
v 2.921167237 16.331408952 51.189000000
v 5.506167237 12.176408953 51.189000000
v 16.762167237 9.661408952 51.189000000
v 19.234167237 8.645408953 51.189000000
v 19.096167237 6.299408953 51.189000000
v 18.909167237 5.785408953 51.189000000
v 17.051167237 0.678408952 51.189000000
v 16.697167237 -0.294591047 51.189000000
v 17.138167237 -2.311591047 51.189000000
v 16.215167237 -3.259591048 51.189000000
v -4.246832763 1.570408952 51.189000000
v -4.476832763 1.625408953 51.189000000
v -2.569832763 8.844408953 51.189000000
v -2.513832763 9.055408953 51.189000000
v -5.342832763 13.496408952 51.189000000
v -5.645832763 13.583408953 51.189000000
v -5.549832763 13.778408953 51.189000000
v -4.068832763 16.796408953 51.189000000
v -3.398832763 17.122408953 51.189000000
v -2.777832763 18.101408953 51.189000000
v 16.215167237 -3.259591048 55.171000000
v 17.138167237 -2.311591047 55.970000000
v -0.267832763 13.681408953 58.000000000
v -0.267832763 13.681408953 55.281000000
v -1.262832763 13.699408953 55.287000000
v -1.262832763 13.699408953 57.427000000
v -0.878832763 13.173408953 55.288000000
v -0.878832763 13.173408953 58.079000000
v -5.549832763 13.778408953 55.285000000
v -5.645832763 13.583408953 55.095000000
v -4.068832763 16.796408953 54.888000000
v 0.963167237 14.704408953 57.840000000
v 0.963167237 14.704408953 55.267000000
v 1.305167237 18.930408953 55.237000000
v 0.912167237 18.466408953 55.242000000
v -4.469832763 13.303408952 55.959000000
v -4.469832763 13.303408952 55.307000000
v -4.291832763 13.755408953 55.303000000
v -4.291832763 13.755408953 56.361000000
v 1.527167237 18.572408953 55.238000000
v -1.284832763 12.836408953 55.293000000
v -1.284832763 12.836408953 58.131000000
v -0.853832763 12.504408953 55.292000000
v -0.853832763 12.504408953 58.648000000
v -3.398832763 17.122408953 55.275000000
v 1.738167237 18.609408953 55.236000000
v 1.681167237 18.325408953 55.239000000
v 4.325167237 6.145408953 59.646000000
v 4.325167237 6.145408953 59.580000000
v 4.275167237 6.165408953 59.613000000
v 4.322167237 6.091408953 59.651000000
v 4.322167237 6.091408953 59.641000000
v 4.322167237 6.091408953 59.618000000
v 15.290167237 3.516408953 59.660000000
v -2.777832763 18.101408953 55.265000000
v -2.857832763 17.386408953 55.588000000
v -2.857832763 17.386408953 55.270000000
v -2.770832763 17.428408952 55.269000000
v -2.770832763 17.428408952 55.638000000
v 5.506167237 12.176408953 55.260000000
v 2.921167237 16.331408952 55.246000000
v -4.246832763 1.570408952 55.154000000
v 19.234167237 8.645408953 55.524000000
v 16.762167237 9.661408952 55.216000000
v -2.513832763 9.055408953 55.325000000
v -2.569832763 8.844408953 55.162000000
v -2.628832763 17.965408953 55.464000000
v -5.342832763 13.496408952 55.310000000
v 17.051167237 0.678408952 58.003000000
v 18.909167237 5.785408953 57.536000000
v -4.476832763 1.625408953 55.010000000
v 19.096167237 6.299408953 57.154000000
v -2.811832763 17.502408952 55.269000000
v -2.811832763 17.502408952 55.563000000
v -2.675832763 17.846408953 55.266000000
v -2.675832763 17.846408953 55.490000000
v 16.697167237 -0.294591047 57.279000000
v 0.469167237 12.212408952 59.632000000
f 1 2 3
f 1 3 4
f 1 4 5
f 1 5 6
f 1 6 7
f 1 7 8
f 1 8 9
f 1 9 10
f 1 10 11
f 1 11 12
f 1 12 13
f 1 13 14
f 1 14 15
f 1 15 16
f 1 16 17
f 1 17 18
f 1 18 19
f 1 19 20
f 1 20 21
f 1 21 22
f 1 22 23
f 1 23 24
f 1 24 25
f 1 25 26
f 1 26 27
f 28 17 16
f 28 16 29
f 30 31 32
f 30 32 33
f 33 32 34
f 33 34 35
f 36 24 23
f 36 23 37
f 38 25 24
f 38 24 36
f 39 40 31
f 39 31 30
f 41 4 3
f 41 3 42
f 43 44 45
f 43 45 46
f 47 5 4
f 47 4 41
f 35 34 48
f 35 48 49
f 49 48 50
f 49 50 51
f 52 26 25
f 52 25 38
f 53 6 5
f 53 5 47
f 54 7 6
f 54 6 53
f 55 56 57
f 58 59 60
f 58 60 56
f 58 56 55
f 62 27 26
f 62 26 52
f 63 64 65
f 63 65 66
f 67 9 8
f 67 8 68
f 40 39 68
f 68 8 7
f 68 7 54
f 70 11 10
f 70 10 71
f 69 18 17
f 69 17 28
f 71 10 9
f 71 9 67
f 72 21 20
f 72 20 73
f 74 1 27
f 74 27 62
f 37 23 22
f 37 22 75
f 76 14 13
f 76 13 77
f 75 22 21
f 75 21 72
f 73 20 19
f 73 19 78
f 78 19 18
f 78 18 69
f 77 13 12
f 77 12 79
f 51 50 44
f 51 44 43
f 66 65 80
f 66 80 81
f 81 80 82
f 81 82 83
f 46 45 64
f 46 64 63
f 83 82 2
f 83 2 1
f 83 1 74
f 29 16 15
f 29 15 84
f 84 15 14
f 84 14 76
f 79 12 11
f 79 11 70
f 42 3 2
f 42 2 82
f 85 39 30
f 85 30 33
f 85 33 35
f 85 35 49
f 85 49 51
f 85 57 56
f 85 56 67
f 85 67 68
f 85 68 39
f 61 76 77
f 78 69 58
f 78 58 55
f 78 55 57
f 78 57 73
f 51 43 46
f 51 46 36
f 51 36 37
f 51 37 75
f 51 75 72
f 51 72 73
f 51 73 57
f 51 57 85
f 83 74 62
f 83 62 52
f 83 52 38
f 83 38 36
f 83 36 46
f 83 46 63
f 83 63 66
f 83 66 81
f 84 76 61
f 84 61 59
f 84 59 69
f 84 69 28
f 84 28 29
f 79 70 71
f 79 71 67
f 79 67 56
f 79 56 60
f 79 60 61
f 79 61 77
f 42 82 80
f 42 80 65
f 42 65 64
f 42 64 45
f 42 45 44
f 42 44 50
f 42 50 48
f 42 48 34
f 42 34 32
f 42 32 31
f 42 31 40
f 42 40 68
f 42 68 54
f 42 54 53
f 42 53 47
f 42 47 41
