v -40.478384143 35.923539236 76.080000000
v -48.060384143 35.780539236 76.080000000
v -49.149384143 38.187539237 76.080000000
v -46.157384143 41.710539237 76.080000000
v -47.755384143 43.276539236 76.080000000
v -41.276384143 43.854539236 76.080000000
v -46.157384143 41.710539237 79.646000000
v -49.149384143 38.187539237 79.445000000
v -47.755384143 43.276539236 79.563000000
v -48.060384143 35.780539236 79.491000000
v -40.478384143 35.923539236 79.937000000
v -41.276384143 43.854539236 79.947000000
v -39.283384143 43.142539237 76.080000000
v -38.434384143 44.887539236 76.080000000
v -18.847384143 46.831539236 76.080000000
v -18.555384143 43.083539236 76.080000000
v -18.435384143 41.538539236 76.080000000
v -18.422384143 41.377539236 76.080000000
v -17.651384143 40.626539236 76.080000000
v -18.429384143 38.096539237 76.080000000
v -28.657384143 36.738539237 76.080000000
v -27.531384143 26.083539236 76.080000000
v -30.619384143 26.306539237 76.080000000
v -32.871384143 26.469539236 76.080000000
v -33.633384143 26.524539236 76.080000000
v -36.509384143 25.205539236 76.080000000
v -37.472384143 36.099539236 76.080000000
v -37.497384143 36.378539236 76.080000000
v -37.268384143 39.610539236 76.080000000
v -37.158384143 41.155539236 76.080000000
v -28.687384143 37.013539236 80.362000000
v -28.687384143 37.013539236 80.080000000
v -28.657384143 36.738539237 80.082000000
v -28.657384143 36.738539237 80.093000000
v -38.434384143 44.887539236 80.073000000
v -39.283384143 43.142539237 81.717000000
v -33.656384143 40.854539236 84.582000000
v -33.656384143 40.854539236 84.574000000
v -33.565384143 40.864539236 84.483000000
v -33.565384143 40.864539236 84.582000000
v -33.656384143 40.854539236 84.497000000
v -33.656384143 40.854539236 84.483000000
v -37.472384143 36.099539236 80.145000000
v -37.472384143 36.099539236 80.184000000
v -32.093384143 27.262539236 84.568000000
v -27.531384143 26.083539236 80.176000000
v -36.509384143 25.205539236 79.952000000
v -33.633384143 26.524539236 82.956000000
v -18.555384143 43.083539236 83.476000000
v -18.555384143 43.083539236 83.960000000
v -19.146384143 42.774539236 84.204000000
v -18.847384143 46.831539236 80.207000000
v -37.497384143 36.378539236 80.427000000
v -36.514384143 40.552539236 84.499000000
v -36.514384143 40.552539236 84.581000000
v -36.553384143 40.589539236 84.540000000
v -32.871384143 26.469539236 83.708000000
v -30.619384143 26.306539237 83.215000000
v -18.429384143 38.096539237 80.364000000
v -17.651384143 40.626539236 82.731000000
v -18.422384143 41.377539236 83.536000000
v -18.435384143 41.538539236 83.530000000
v -18.435384143 41.538539236 83.693000000
v -18.728384143 41.675539237 83.854000000
v -37.268384143 39.610539236 83.639000000
v -37.158384143 41.155539236 83.915000000
v -19.429384143 42.359539236 84.587000000
f 13 14 15
f 13 15 16
f 13 16 17
f 13 17 18
f 13 18 19
f 13 19 20
f 13 20 21
f 13 21 22
f 13 22 23
f 13 23 24
f 13 24 25
f 13 25 26
f 13 26 27
f 13 27 28
f 13 28 29
f 13 29 30
f 31 32 33
f 31 33 34
f 35 14 13
f 35 13 36
f 37 38 39
f 37 39 40
f 41 42 43
f 41 43 44
f 38 41 45
f 46 22 21
f 46 21 33
f 47 26 25
f 47 25 48
f 44 43 27
f 44 27 26
f 44 26 47
f 40 39 32
f 40 32 31
f 50 49 16
f 50 16 15
f 50 15 52
f 53 28 27
f 53 27 43
f 54 55 56
f 55 54 42
f 55 42 41
f 55 41 38
f 55 38 37
f 57 24 23
f 57 23 58
f 59 20 19
f 59 19 60
f 60 19 18
f 60 18 61
f 62 17 16
f 62 16 49
f 48 25 24
f 48 24 57
f 34 33 21
f 34 21 20
f 34 20 59
f 58 23 22
f 58 22 46
f 52 15 14
f 52 14 35
f 63 62 64
f 61 18 17
f 61 17 62
f 61 62 63
f 65 29 28
f 65 28 53
f 66 30 29
f 66 29 65
f 36 13 30
f 36 30 66
f 57 58 45
f 48 57 45
f 48 45 41
f 48 41 44
f 48 44 47
f 58 46 33
f 58 33 32
f 58 32 39
f 58 39 38
f 58 38 45
f 64 62 49
f 64 49 51
f 64 51 67
f 61 63 64
f 61 67 40
f 61 40 31
f 61 31 34
f 61 34 59
f 61 59 60
f 65 53 43
f 65 43 42
f 65 42 54
f 65 54 56
f 66 65 56
f 36 66 56
f 36 56 55
f 36 55 37
f 36 37 40
f 36 40 67
f 36 67 51
f 36 51 50
f 36 50 52
f 36 52 35
f 1 2 3
f 1 3 4
f 1 4 5
f 1 5 6
f 7 4 3
f 7 3 8
f 9 5 4
f 9 4 7
f 8 3 2
f 8 2 10
f 11 1 6
f 11 6 12
f 12 6 5
f 12 5 9
f 10 2 1
f 10 1 11
f 10 11 12
f 10 12 9
f 10 9 7
f 10 7 8
