v 14.173150145 30.093968131 44.689000000
v 20.460150145 29.104968131 44.689000000
v 20.654150145 30.241968131 44.689000000
v 23.910150145 31.660968131 44.689000000
v 25.167150145 30.861968131 44.689000000
v 22.241150145 24.383968131 44.689000000
v 21.697150145 23.180968131 44.689000000
v 20.467150145 23.649968131 44.689000000
v 12.480150145 6.807968131 44.689000000
v 13.129150145 6.171968131 44.689000000
v 12.340150145 6.512968131 44.689000000
v 12.218150145 6.256968131 44.689000000
v 12.115150145 6.609968130 44.689000000
v 8.754150145 8.061968131 44.689000000
v 6.518150145 7.820968131 44.689000000
v 8.928150145 14.411968131 44.689000000
v 8.277150145 15.443968131 44.689000000
v 9.056150145 14.762968131 44.689000000
v 11.369150145 21.088968131 44.689000000
v 13.236150145 26.196968131 44.689000000
v 20.467150145 23.649968131 48.754000000
v 21.697150145 23.180968131 48.063000000
v 22.241150145 24.383968131 48.676000000
v 22.241150145 24.383968131 48.871000000
v 21.129150145 24.230968131 48.925000000
v 19.523150145 24.009968131 49.001000000
v 19.523150145 24.009968131 50.081000000
v 20.467150145 23.649968131 49.008000000
v 11.369150145 21.088968131 50.410000000
v 11.369150145 21.088968131 48.890000000
v 9.056150145 14.762968131 48.784000000
v 9.056150145 14.762968131 50.329000000
v 20.661150145 24.057968131 48.959000000
v 25.167150145 30.861968131 48.088000000
v 23.910150145 31.660968131 48.045000000
v 6.518150145 7.820968131 48.668000000
v 8.754150145 8.061968131 50.904000000
v 12.218150145 6.256968131 49.669000000
v 12.340150145 6.512968131 50.313000000
v 12.115150145 6.609968130 50.350000000
v 14.236150145 26.027968131 49.828000000
v 14.236150145 26.027968131 50.076000000
v 14.524150145 25.550968131 50.549000000
v 14.236150145 26.027968131 48.963000000
v 13.129150145 6.171968131 50.183000000
v 12.480150145 6.807968131 51.058000000
v 20.654150145 30.241968131 48.304000000
v 20.460150145 29.104968131 48.431000000
v 8.928150145 14.411968131 48.778000000
v 8.277150145 15.443968131 47.727000000
v 14.152150145 26.059968131 49.977000000
v 14.152150145 26.059968131 48.963000000
v 13.239150145 26.196968131 48.979000000
v 13.236150145 26.196968131 48.979000000
v 13.236150145 26.196968131 48.976000000
v 12.139150145 12.067968131 52.967000000
v 12.247150145 11.972968131 53.113000000
v 12.247150145 11.972968131 53.059000000
v 14.968150145 19.723968131 53.126000000
v 14.968150145 19.723968131 53.083000000
v 14.871150145 19.760968131 53.011000000
v 14.173150145 30.093968131 48.535000000
v 10.957150145 8.298968131 53.107000000
v 16.318150145 23.569968131 53.132000000
v 48.163150145 16.114968131 44.689000000
v 48.341150145 16.063968131 44.689000000
v 48.782150145 15.934968131 44.689000000
v 50.055150145 16.373968131 44.689000000
v 50.377150145 15.470968131 44.689000000
v 52.794150145 14.767968131 44.689000000
v 52.299150145 12.978968131 44.689000000
v 52.172150145 12.701968131 44.689000000
v 51.801150145 11.468968131 44.689000000
v 51.716150145 11.706968131 44.689000000
v 41.253150145 -11.133031869 44.689000000
v 36.777150145 -9.058031869 44.689000000
v 32.350150145 -7.005031869 44.689000000
v 43.116150145 16.003968131 44.689000000
v 47.564150145 17.365968131 44.689000000
v 32.350150145 -7.005031869 48.756000000
v 36.777150145 -9.058031869 53.114000000
v 48.341150145 16.063968131 53.047000000
v 48.163150145 16.114968131 52.884000000
v 51.716150145 11.706968131 48.619000000
v 51.801150145 11.468968131 48.459000000
v 47.564150145 17.365968131 51.929000000
v 52.794150145 14.767968131 51.453000000
v 50.377150145 15.470968131 51.144000000
v 48.782150145 15.934968131 52.635000000
v 50.055150145 16.373968131 51.749000000
v 41.253150145 -11.133031869 48.638000000
v 43.116150145 16.003968131 48.837000000
v 52.172150145 12.701968131 49.578000000
v 52.299150145 12.978968131 49.845000000
f 1 2 3
f 1 3 4
f 1 4 5
f 1 5 6
f 1 6 7
f 1 7 8
f 1 8 9
f 1 9 10
f 1 10 11
f 1 11 12
f 1 12 13
f 1 13 14
f 1 14 15
f 1 15 16
f 1 16 17
f 1 17 18
f 1 18 19
f 1 19 20
f 21 8 7
f 21 7 22
f 22 7 6
f 22 6 23
f 29 30 19
f 29 19 18
f 29 18 31
f 29 31 32
f 28 21 33
f 34 5 4
f 34 4 35
f 24 23 6
f 24 6 5
f 24 5 34
f 36 15 14
f 36 14 37
f 38 12 11
f 38 11 39
f 40 13 12
f 40 12 38
f 37 14 13
f 37 13 40
f 39 11 10
f 39 10 45
f 45 10 9
f 45 9 46
f 35 4 3
f 35 3 47
f 47 3 2
f 47 2 48
f 49 16 15
f 49 15 36
f 50 17 16
f 50 16 49
f 54 55 53
f 31 18 17
f 31 17 50
f 32 31 56
f 57 58 56
f 59 60 58
f 59 58 57
f 42 41 44
f 60 59 61
f 55 20 19
f 55 19 30
f 62 1 20
f 62 20 55
f 62 55 54
f 48 2 1
f 48 1 62
f 46 9 8
f 46 8 21
f 46 21 28
f 33 21 22
f 33 22 23
f 33 23 25
f 45 46 63
f 45 63 37
f 45 37 40
f 45 40 38
f 45 38 39
f 57 56 31
f 57 31 50
f 57 50 49
f 57 49 36
f 57 36 37
f 57 37 63
f 64 27 41
f 64 41 43
f 60 61 29
f 60 29 32
f 60 32 56
f 60 56 58
f 55 30 61
f 55 61 59
f 55 59 64
f 55 64 43
f 55 43 42
f 55 42 51
f 55 51 53
f 48 62 54
f 48 54 53
f 48 53 52
f 48 52 44
f 48 44 26
f 48 26 28
f 48 28 33
f 48 33 25
f 48 25 24
f 48 24 34
f 48 34 35
f 48 35 47
f 46 28 27
f 46 27 64
f 46 64 59
f 46 59 57
f 46 57 63
f 65 66 67
f 65 67 68
f 65 68 69
f 65 69 70
f 65 70 71
f 65 71 72
f 65 72 73
f 65 73 74
f 65 74 75
f 65 75 76
f 65 76 77
f 65 77 78
f 65 78 79
f 80 77 76
f 80 76 81
f 82 66 65
f 82 65 83
f 84 74 73
f 84 73 85
f 83 65 79
f 83 79 86
f 87 70 69
f 87 69 88
f 89 67 66
f 89 66 82
f 90 68 67
f 90 67 89
f 88 69 68
f 88 68 90
f 81 76 75
f 81 75 91
f 91 75 74
f 91 74 84
f 92 78 77
f 92 77 80
f 93 72 71
f 93 71 94
f 85 73 72
f 85 72 93
f 94 71 70
f 94 70 87
f 86 79 78
f 86 78 92
f 94 87 88
f 94 88 84
f 94 84 85
f 94 85 93
f 81 82 83
f 81 83 86
f 81 86 92
f 81 92 80
f 82 81 91
f 82 91 84
f 82 84 88
f 82 88 90
f 82 90 89
