v -16.588152590 -9.956302023 34.569000000
v -16.647152590 -12.529302022 34.569000000
v -16.650152590 -13.373302023 34.569000000
v -1.888152590 -13.856302023 34.569000000
v -3.089152590 -15.704302023 34.569000000
v -3.079152590 -15.787302023 34.569000000
v -2.567152590 -20.043302023 34.569000000
v -2.448152590 -21.031302023 34.569000000
v -8.533152590 -20.949302022 34.569000000
v -10.852152590 -20.918302023 34.569000000
v -13.380152590 -20.884302023 34.569000000
v -19.348152590 -20.804302023 34.569000000
v -19.190152590 -19.696302023 34.569000000
v -18.531152590 -15.089302023 34.569000000
v -18.365152590 -13.930302023 34.569000000
v -18.359152590 -13.317302023 34.569000000
v -22.771152590 -13.173302023 34.569000000
v -22.962152590 -13.336302022 34.569000000
v -22.959152590 -13.235302023 34.569000000
v -27.628152590 -13.116302023 34.569000000
v -26.772152590 -1.282302023 34.569000000
v -23.450152590 -1.649302023 34.569000000
v -22.603152590 -1.363302023 34.569000000
v -21.007152590 -0.824302022 34.569000000
v -19.109152590 -0.183302023 34.569000000
v -17.714152590 -0.803302023 34.569000000
v -16.834152590 -0.060302023 34.569000000
v -15.915152590 -0.928302023 34.569000000
v -16.948152590 -5.934302023 34.569000000
v -17.358152590 -7.920302023 34.569000000
v -16.543152590 -7.979302023 34.569000000
v -10.852152590 -20.918302023 43.047000000
v -8.533152590 -20.949302022 39.174000000
v -8.533152590 -20.949302022 40.783000000
v -18.365152590 -13.930302023 39.390000000
v -18.531152590 -15.089302023 40.654000000
v -17.444152590 -12.837302023 39.768000000
v -17.444152590 -12.837302023 39.447000000
v -17.444152590 -12.837302023 38.179000000
v -16.647152590 -12.529302022 37.823000000
v -16.647152590 -12.529302022 38.752000000
v -15.915152590 -0.928302023 38.023000000
v -16.834152590 -0.060302023 39.216000000
v -17.358152590 -7.920302023 40.518000000
v -16.948152590 -5.934302023 39.256000000
v -18.357152590 -13.191302023 38.586000000
v -18.357152590 -13.191302023 38.901000000
v -18.359152590 -13.317302023 38.724000000
v -16.588152590 -9.956302023 38.724000000
v -16.543152590 -7.979302023 39.790000000
v -2.448152590 -21.031302023 39.297000000
v -3.079152590 -15.787302023 41.018000000
v -3.089152590 -15.704302023 40.928000000
v -2.567152590 -20.043302023 40.360000000
v -22.959152590 -13.235302023 38.440000000
v -22.962152590 -13.336302022 38.441000000
v -22.771152590 -13.173302023 38.680000000
v -16.650152590 -13.373302023 38.741000000
v -19.190152590 -19.696302023 40.155000000
v -19.348152590 -20.804302023 38.954000000
v -13.380152590 -20.884302023 39.075000000
v -12.183152590 -18.313302022 41.640000000
v -12.183152590 -18.313302022 41.891000000
v -12.352152590 -18.678302023 41.492000000
v -13.380152590 -20.884302023 40.597000000
v -18.003152590 -12.065302023 40.497000000
v -17.714152590 -0.803302023 40.328000000
v -23.450152590 -1.649302023 38.283000000
v -26.772152590 -1.282302023 37.890000000
v -27.628152590 -13.116302023 37.891000000
v -21.007152590 -0.824302022 40.414000000
v -22.603152590 -1.363302023 38.380000000
v -19.109152590 -0.183302023 39.435000000
v -11.719152590 -18.152302023 42.081000000
v -10.777152590 -17.824302022 42.980000000
v -10.777152590 -17.824302022 42.468000000
v -8.435152590 -19.627302023 40.690000000
v -8.435152590 -19.627302023 40.604000000
v -10.445152590 -17.709302023 42.604000000
v -10.445152590 -17.709302023 42.656000000
v -4.115152590 -17.566302023 42.349000000
v -4.115152590 -17.566302023 42.979000000
v -3.880152590 -18.438302022 42.046000000
v -1.888152590 -13.856302023 38.888000000
v -4.169152590 -17.366302023 42.418000000
v -4.169152590 -17.366302023 42.763000000
v -3.337152590 -16.085302023 41.348000000
v -16.518152590 -17.220302023 42.920000000
v -19.347152590 -7.778302023 42.293000000
v -19.632152590 -10.491302023 42.610000000
v -19.435152590 -2.257302023 42.505000000
f 1 2 3
f 1 3 4
f 1 4 5
f 1 5 6
f 1 6 7
f 1 7 8
f 1 8 9
f 1 9 10
f 1 10 11
f 1 11 12
f 1 12 13
f 1 13 14
f 1 14 15
f 1 15 16
f 1 16 17
f 1 17 18
f 1 18 19
f 1 19 20
f 1 20 21
f 1 21 22
f 1 22 23
f 1 23 24
f 1 24 25
f 1 25 26
f 1 26 27
f 1 27 28
f 1 28 29
f 1 29 30
f 1 30 31
f 32 10 9
f 32 9 33
f 32 33 34
f 35 15 14
f 35 14 36
f 37 38 39
f 42 28 27
f 42 27 43
f 44 30 29
f 44 29 45
f 46 47 48
f 47 46 39
f 47 39 38
f 49 1 31
f 49 31 50
f 50 31 30
f 50 30 44
f 33 9 8
f 33 8 51
f 52 6 5
f 52 5 53
f 54 7 6
f 54 6 52
f 55 19 18
f 55 18 56
f 56 18 17
f 56 17 57
f 57 17 16
f 57 16 48
f 58 3 2
f 58 2 40
f 59 13 12
f 59 12 60
f 60 12 11
f 60 11 61
f 36 14 13
f 36 13 59
f 62 63 64
f 65 61 11
f 65 11 10
f 65 10 32
f 51 8 7
f 51 7 54
f 45 29 28
f 45 28 42
f 48 16 15
f 48 15 35
f 43 27 26
f 43 26 67
f 68 22 21
f 68 21 69
f 69 21 20
f 69 20 70
f 71 24 23
f 71 23 72
f 73 25 24
f 73 24 71
f 63 62 74
f 75 76 74
f 77 78 79
f 77 79 80
f 80 79 76
f 80 76 75
f 81 82 83
f 34 33 78
f 34 78 77
f 70 20 19
f 70 19 55
f 72 23 22
f 72 22 68
f 53 5 4
f 53 4 84
f 84 4 3
f 84 3 58
f 67 26 25
f 67 25 73
f 41 40 2
f 41 2 1
f 41 1 49
f 82 81 85
f 82 85 86
f 86 85 87
f 36 59 88
f 89 44 45
f 89 49 50
f 89 50 44
f 38 66 90
f 38 90 57
f 38 57 48
f 38 48 47
f 75 74 62
f 75 62 64
f 75 64 65
f 75 65 32
f 34 77 80
f 34 80 75
f 34 75 32
f 55 72 68
f 55 68 69
f 55 69 70
f 72 55 56
f 72 56 57
f 72 57 90
f 72 90 91
f 72 91 71
f 86 87 52
f 86 52 53
f 86 53 84
f 86 84 58
f 86 58 40
f 86 40 39
f 86 39 46
f 86 46 48
f 86 48 35
f 86 35 36
f 86 36 88
f 86 88 82
f 67 73 71
f 67 71 91
f 41 49 89
f 41 89 45
f 41 45 42
f 41 42 43
f 41 43 67
f 41 67 91
f 41 91 90
f 41 90 66
f 41 66 37
f 82 88 59
f 82 59 60
f 82 60 61
f 82 61 64
f 82 64 63
f 82 63 74
f 82 74 76
f 82 76 79
f 82 79 78
f 82 78 33
f 82 33 51
f 82 51 54
f 82 54 83
f 87 85 81
f 87 81 83
f 87 83 54
f 87 54 52
