v -6.008798658 9.216856161 33.020000000
v -5.812798658 12.825856161 33.020000000
v 2.236201342 12.310856161 33.020000000
v 1.906201342 5.723856161 33.020000000
v 12.324201342 5.142856161 33.020000000
v 12.034201342 0.597856161 33.020000000
v 11.749201342 -3.852143839 33.020000000
v -9.043798658 -2.767143839 33.020000000
v -9.652798658 1.812856161 33.020000000
v -8.910798658 1.771856161 33.020000000
v -9.099798658 6.337856161 33.020000000
v -3.641798658 6.033856161 33.020000000
v -9.099798658 6.337856161 36.771000000
v -8.910798658 1.771856161 38.935000000
v -3.641798658 6.033856161 36.786000000
v -3.641798658 6.033856161 35.823000000
v -6.008798658 9.216856161 35.623000000
v 12.324201342 5.142856161 36.832000000
v 1.906201342 5.723856161 35.924000000
v 1.906201342 5.723856161 36.802000000
v 12.034201342 0.597856161 38.997000000
v 2.236201342 12.310856161 35.590000000
v -5.812798658 12.825856161 35.440000000
v -9.652798658 1.812856161 38.933000000
v -9.043798658 -2.767143839 36.799000000
v 11.749201342 -3.852143839 36.898000000
f 1 2 3
f 1 3 4
f 1 4 5
f 1 5 6
f 1 6 7
f 1 7 8
f 1 8 9
f 1 9 10
f 1 10 11
f 1 11 12
f 13 11 10
f 13 10 14
f 15 16 12
f 15 12 11
f 15 11 13
f 17 1 12
f 17 12 16
f 18 5 4
f 18 4 19
f 18 19 20
f 21 6 5
f 21 5 18
f 22 3 2
f 22 2 23
f 20 19 16
f 20 16 15
f 19 4 3
f 19 3 22
f 14 10 9
f 14 9 24
f 24 9 8
f 24 8 25
f 26 7 6
f 26 6 21
f 25 8 7
f 25 7 26
f 23 2 1
f 23 1 17
f 21 14 24
f 21 24 25
f 21 25 26
f 23 17 16
f 23 16 19
f 23 19 22
f 14 21 18
f 14 18 20
f 14 20 15
f 14 15 13
