v -15.476828890 9.097227073 13.760000000
v 3.535171110 6.519227074 13.760000000
v 2.966171110 3.258227074 13.760000000
v 2.231171110 -0.949772927 13.760000000
v 0.648171110 -1.288772927 13.760000000
v -0.786828890 -0.303772926 13.760000000
v -1.232828890 -1.690772926 13.760000000
v -1.402828890 -1.726772927 13.760000000
v -1.307828890 -1.924772927 13.760000000
v -1.801828890 -3.458772927 13.760000000
v -4.864828890 -2.638772926 13.760000000
v -8.433828890 -1.683772926 13.760000000
v -6.825828890 0.324227073 13.760000000
v -7.560828890 0.439227073 13.760000000
v -16.426828890 1.487227074 13.760000000
v -15.897828890 5.727227073 13.760000000
v -15.656828890 7.651227074 13.760000000
v -24.364828890 9.035227073 13.760000000
v -23.983828890 11.967227073 13.760000000
v -23.577828890 15.087227073 13.760000000
v -14.876828890 13.904227073 13.760000000
v -15.265828890 10.785227073 13.760000000
v -15.656828890 7.651227074 17.403000000
v -15.656828890 7.651227074 16.055000000
v -15.897828890 5.727227073 18.287000000
v -23.983828890 11.967227073 17.519000000
v -24.364828890 9.035227073 16.128000000
v 2.966171110 3.258227074 18.293000000
v 3.535171110 6.519227074 16.786000000
v -16.426828890 1.487227074 16.356000000
v -7.560828890 0.439227073 16.409000000
v -15.476828890 9.097227073 16.739000000
v -15.265828890 10.785227073 17.540000000
v -14.876828890 13.904227073 16.054000000
v -23.577828890 15.087227073 16.033000000
v -1.402828890 -1.726772927 15.801000000
v -1.232828890 -1.690772926 15.828000000
v -0.786828890 -0.303772926 16.476000000
v 0.648171110 -1.288772927 16.119000000
v 2.231171110 -0.949772927 16.364000000
v -1.801828890 -3.458772927 16.377000000
v -1.307828890 -1.924772927 16.240000000
v -8.433828890 -1.683772926 16.154000000
v -4.864828890 -2.638772926 17.816000000
v -6.825828890 0.324227073 16.746000000
v -1.402828890 -1.726772927 16.294000000
v -3.056828890 1.704227073 17.241000000
v -4.099828890 3.072227074 17.793000000
f 1 2 3
f 1 3 4
f 1 4 5
f 1 5 6
f 1 6 7
f 1 7 8
f 1 8 9
f 1 9 10
f 1 10 11
f 1 11 12
f 1 12 13
f 1 13 14
f 1 14 15
f 1 15 16
f 1 16 17
f 1 17 18
f 1 18 19
f 1 19 20
f 1 20 21
f 1 21 22
f 23 24 17
f 23 17 16
f 23 16 25
f 26 19 18
f 26 18 27
f 28 3 2
f 28 2 29
f 30 15 14
f 30 14 31
f 32 1 22
f 32 22 33
f 33 22 21
f 33 21 34
f 34 21 20
f 34 20 35
f 35 20 19
f 35 19 26
f 36 8 7
f 36 7 37
f 37 7 6
f 37 6 38
f 38 6 5
f 38 5 39
f 39 5 4
f 39 4 40
f 41 10 9
f 41 9 42
f 43 12 11
f 43 11 44
f 45 13 12
f 45 12 43
f 42 9 8
f 42 8 36
f 42 36 46
f 31 14 13
f 31 13 45
f 40 4 3
f 40 3 28
f 46 36 47
f 25 16 15
f 25 15 30
f 27 18 17
f 27 17 24
f 44 11 10
f 44 10 41
f 29 2 1
f 29 1 32
f 35 26 33
f 35 33 34
f 31 48 47
f 31 47 36
f 31 36 37
f 31 37 38
f 31 38 39
f 31 39 40
f 31 40 28
f 31 28 25
f 31 25 30
f 24 32 33
f 24 33 26
f 24 26 27
f 44 41 42
f 44 42 46
f 44 46 47
f 44 47 48
f 48 31 45
f 48 45 43
f 48 43 44
f 29 32 23
f 29 23 25
f 29 25 28
