v -11.062703193 12.166838760 5.929000000
v -11.015703193 12.103838761 5.929000000
v -18.086703193 13.171838761 5.929000000
v -17.120703193 16.144838761 5.929000000
v -10.545703193 15.259838761 5.929000000
v -11.015703193 12.103838761 9.052000000
v -11.062703193 12.166838760 9.051000000
v -18.086703193 13.171838761 8.771000000
v -17.120703193 16.144838761 8.842000000
v -10.545703193 15.259838761 9.104000000
v 6.215296807 0.367838761 5.929000000
v 5.269296807 0.537838761 5.929000000
v -5.574703193 2.491838761 5.929000000
v -6.075703193 0.828838761 5.929000000
v -6.457703193 -0.438161239 5.929000000
v -11.940703193 0.021838761 5.929000000
v -10.565703193 3.051838761 5.929000000
v -11.271703193 3.400838761 5.929000000
v -12.000703193 2.891838761 5.929000000
v -10.089703193 10.855838761 5.929000000
v 6.875296807 8.607838761 5.929000000
v 7.027296807 8.587838761 5.929000000
v 6.714296807 4.900838761 5.929000000
v 11.576296807 3.677838761 5.929000000
v 10.346296807 -0.376161239 5.929000000
v 6.714296807 4.900838761 9.497000000
v 7.027296807 8.587838761 9.634000000
v 11.576296807 3.677838761 9.407000000
v -5.574703193 2.491838761 9.891000000
v 5.269296807 0.537838761 9.822000000
v 6.875296807 8.607838761 9.636000000
v 6.875296807 8.607838761 9.704000000
v 6.306296807 8.073838761 9.921000000
v -10.089703193 10.855838761 9.871000000
v -12.000703193 2.891838761 9.586000000
v -11.271703193 3.400838761 9.874000000
v -10.565703193 3.051838761 9.343000000
v -10.565703193 3.051838761 9.768000000
v 10.346296807 -0.376161239 9.264000000
v 6.140296807 2.809838761 9.599000000
v 6.140296807 2.809838761 9.423000000
v 6.580296807 3.318838761 9.438000000
v 6.215296807 0.367838761 9.380000000
v 6.215296807 0.367838761 9.329000000
v -11.940703193 0.021838761 9.043000000
v -6.457703193 -0.438161239 9.090000000
v -6.075703193 0.828838761 9.212000000
v -6.075703193 0.828838761 9.093000000
v -7.063703193 1.317838761 9.241000000
v -6.847703193 6.484838761 11.622000000
v 2.028296807 5.024838760 11.629000000
f 11 12 13
f 11 13 14
f 11 14 15
f 11 15 16
f 11 16 17
f 11 17 18
f 11 18 19
f 11 19 20
f 11 20 21
f 11 21 22
f 11 22 23
f 11 23 24
f 11 24 25
f 26 23 22
f 26 22 27
f 28 24 23
f 28 23 26
f 29 13 12
f 29 12 30
f 27 22 21
f 27 21 31
f 27 31 32
f 32 31 33
f 31 21 20
f 31 20 34
f 34 20 19
f 34 19 35
f 36 18 17
f 36 17 37
f 36 37 38
f 35 19 18
f 35 18 36
f 39 25 24
f 39 24 28
f 40 41 42
f 43 44 41
f 43 41 40
f 30 12 11
f 30 11 44
f 30 44 43
f 44 11 25
f 44 25 39
f 45 16 15
f 45 15 46
f 47 48 49
f 38 37 49
f 46 15 14
f 46 14 48
f 46 48 47
f 37 17 16
f 37 16 45
f 48 14 13
f 48 13 29
f 50 34 35
f 50 35 36
f 30 43 40
f 30 40 42
f 30 42 26
f 30 26 27
f 30 27 32
f 30 32 33
f 30 33 51
f 44 39 28
f 44 28 26
f 44 26 42
f 44 42 41
f 50 51 33
f 50 33 31
f 50 31 34
f 37 45 46
f 37 46 47
f 37 47 49
f 48 29 30
f 48 30 51
f 48 51 50
f 48 50 36
f 48 36 38
f 48 38 49
f 1 2 3
f 1 3 4
f 1 4 5
f 6 2 1
f 6 1 7
f 8 3 2
f 8 2 6
f 9 4 3
f 9 3 8
f 7 1 5
f 7 5 10
f 10 5 4
f 10 4 9
f 10 9 8
f 10 8 6
f 10 6 7
