v 23.720488845 3.607303669 72.500000000
v 22.557488845 4.242303669 72.500000000
v 21.678488845 2.534303668 72.500000000
v 19.336488845 4.377303668 72.500000000
v 21.621488845 5.649303668 72.500000000
v 23.947488845 6.943303668 72.500000000
v 22.727488845 4.573303669 72.500000000
v 21.621488845 5.649303668 75.903000000
v 21.621488845 5.649303668 75.335000000
v 19.336488845 4.377303668 75.098000000
v 23.947488845 6.943303668 74.529000000
v 21.678488845 2.534303668 74.907000000
v 22.557488845 4.242303669 75.610000000
v 23.720488845 3.607303669 75.606000000
v 22.727488845 4.573303669 75.478000000
v 22.727488845 4.573303669 75.746000000
v 18.178488845 -3.491696332 72.500000000
v 17.273488845 -5.475696332 72.500000000
v 14.775488845 -4.518696331 72.500000000
v 15.704488845 -2.462696332 72.500000000
v 18.178488845 -3.491696332 75.346000000
v 15.704488845 -2.462696332 75.347000000
v 14.775488845 -4.518696331 75.238000000
v 17.273488845 -5.475696332 75.241000000
v 6.435488845 11.158303669 72.500000000
v 7.657488845 12.252303668 72.500000000
v 7.898488845 15.458303669 72.500000000
v 10.823488845 13.987303669 72.500000000
v 13.684488845 12.549303669 72.500000000
v 9.096488845 2.524303668 72.500000000
v 6.217488845 3.908303669 72.500000000
v 2.668488845 5.615303668 72.500000000
v 4.108488845 7.011303669 72.500000000
v -1.137511155 9.696303668 72.500000000
v -4.551511155 -0.015696332 72.500000000
v -7.347511155 1.345303669 72.500000000
v -9.927511155 2.599303668 72.500000000
v -2.949511155 16.249303669 72.500000000
v -1.955511155 14.737303669 72.500000000
v -1.269511155 14.416303668 72.500000000
v -0.551511155 14.081303668 72.500000000
v 2.369488845 19.138303668 72.500000000
v 2.846488845 13.817303669 72.500000000
v -9.927511155 2.599303668 74.645000000
v -7.347511155 1.345303669 77.480000000
v -2.949511155 16.249303669 75.372000000
v -4.551511155 -0.015696332 74.425000000
v -1.137511155 9.696303668 75.494000000
v -1.137511155 9.696303668 75.515000000
v -1.955511155 14.737303669 76.884000000
v 10.823488845 13.987303669 78.635000000
v 7.898488845 15.458303669 75.343000000
v -1.269511155 14.416303668 77.632000000
v 13.684488845 12.549303669 75.385000000
v -0.551511155 14.081303668 76.855000000
v 2.369488845 19.138303668 74.988000000
v -0.551511155 14.081303668 77.156000000
v -1.112511155 9.767303668 75.523000000
v 4.108488845 7.011303669 75.398000000
v 2.668488845 5.615303668 74.662000000
v 6.217488845 3.908303669 78.623000000
v 9.096488845 2.524303668 75.378000000
v -0.874511155 13.523303668 76.904000000
v 7.657488845 12.252303668 76.460000000
v 2.846488845 13.817303669 76.702000000
v 6.435488845 11.158303669 77.023000000
v 7.511488845 10.311303669 77.137000000
f 17 18 19
f 17 19 20
f 21 17 20
f 21 20 22
f 22 20 19
f 22 19 23
f 23 19 18
f 23 18 24
f 24 18 17
f 24 17 21
f 24 21 22
f 24 22 23
f 25 26 27
f 25 27 28
f 25 28 29
f 25 29 30
f 25 30 31
f 25 31 32
f 25 32 33
f 25 33 34
f 25 34 35
f 25 35 36
f 25 36 37
f 25 37 38
f 25 38 39
f 25 39 40
f 25 40 41
f 25 41 42
f 25 42 43
f 44 37 36
f 44 36 45
f 46 38 37
f 46 37 44
f 47 35 34
f 47 34 48
f 47 48 49
f 45 36 35
f 45 35 47
f 50 39 38
f 50 38 46
f 51 28 27
f 51 27 52
f 53 40 39
f 53 39 50
f 54 29 28
f 54 28 51
f 55 41 40
f 55 40 53
f 56 42 41
f 56 41 55
f 56 55 57
f 49 48 58
f 48 34 33
f 48 33 59
f 60 32 31
f 60 31 61
f 62 30 29
f 62 29 54
f 61 31 30
f 61 30 62
f 57 55 63
f 52 27 26
f 52 26 64
f 59 33 32
f 59 32 60
f 65 43 42
f 65 42 56
f 66 25 43
f 66 43 65
f 64 26 25
f 64 25 66
f 45 53 50
f 45 50 46
f 45 46 44
f 61 62 54
f 61 54 51
f 63 55 53
f 63 53 45
f 63 45 47
f 63 47 49
f 63 49 58
f 59 60 61
f 59 61 51
f 59 51 52
f 59 52 64
f 59 64 67
f 67 57 63
f 67 63 58
f 67 58 48
f 67 48 59
f 64 66 65
f 64 65 56
f 64 56 57
f 64 57 67
f 1 2 3
f 1 3 4
f 1 4 5
f 1 5 6
f 1 6 7
f 8 9 5
f 8 5 4
f 8 4 10
f 11 6 5
f 11 5 9
f 10 4 3
f 10 3 12
f 12 3 2
f 12 2 13
f 14 1 7
f 14 7 15
f 14 15 16
f 15 7 6
f 15 6 11
f 13 2 1
f 13 1 14
f 16 15 9
f 16 9 8
f 9 15 11
f 16 8 10
f 16 10 12
f 16 12 13
f 16 13 14
