v -8.767339223 -15.468057136 30.819000000
v -8.533339223 -11.504057136 30.819000000
v -5.565339223 -11.522057137 30.819000000
v -5.565339223 -15.019057136 30.819000000
v -5.565339223 -15.019057136 33.196000000
v -5.565339223 -11.522057137 33.202000000
v -8.533339223 -11.504057136 33.127000000
v -8.767339223 -15.468057136 33.114000000
v 7.399660777 -11.635057136 30.819000000
v 2.195660777 -11.340057136 30.819000000
v 1.571660777 -7.654057137 30.819000000
v 1.178660777 -5.330057137 30.819000000
v 2.150660777 9.455942864 30.819000000
v 6.807660777 8.885942863 30.819000000
v 11.156660777 8.352942863 30.819000000
v 10.590660777 -3.685057136 30.819000000
v 14.909660777 -4.689057136 30.819000000
v 14.338660777 -14.259057136 30.819000000
v 14.233660777 -16.013057136 30.819000000
v 9.710660777 -15.874057136 30.819000000
v 9.730660777 -14.291057136 30.819000000
v 9.748660777 -12.916057136 30.819000000
v 2.195660777 -11.340057136 34.200000000
v 7.399660777 -11.635057136 34.049000000
v 14.338660777 -14.259057136 33.825000000
v 14.338660777 -14.259057136 33.312000000
v 14.909660777 -4.689057136 33.908000000
v 2.150660777 9.455942864 34.415000000
v 1.178660777 -5.330057137 34.290000000
v 6.807660777 8.885942863 36.566000000
v 10.590660777 -3.685057136 34.481000000
v 10.590660777 -3.685057136 34.040000000
v 11.156660777 8.352942863 34.536000000
v 10.389660777 -7.958057136 34.462000000
v 10.389660777 -7.958057136 34.002000000
v 1.571660777 -7.654057137 34.255000000
v 1.571660777 -7.654057137 34.521000000
v 5.937660777 -7.804057136 34.130000000
v 5.937660777 -7.804057136 36.529000000
v 9.730660777 -14.291057136 33.285000000
v 9.710660777 -15.874057136 33.128000000
v 9.748660777 -12.916057136 33.969000000
v 9.730660777 -14.291057136 33.956000000
v 14.233660777 -16.013057136 33.138000000
f 9 10 11
f 9 11 12
f 9 12 13
f 9 13 14
f 9 14 15
f 9 15 16
f 9 16 17
f 9 17 18
f 9 18 19
f 9 19 20
f 9 20 21
f 9 21 22
f 23 10 9
f 23 9 24
f 25 26 18
f 25 18 17
f 25 17 27
f 28 13 12
f 28 12 29
f 30 14 13
f 30 13 28
f 31 32 16
f 31 16 15
f 31 15 33
f 27 17 16
f 27 16 32
f 34 35 32
f 34 32 31
f 29 12 11
f 29 11 36
f 29 36 37
f 37 36 38
f 37 38 39
f 39 38 35
f 39 35 34
f 33 15 14
f 33 14 30
f 36 11 10
f 36 10 23
f 40 21 20
f 40 20 41
f 24 9 22
f 24 22 42
f 42 22 21
f 42 21 40
f 42 40 43
f 43 40 26
f 43 26 25
f 41 20 19
f 41 19 44
f 44 19 18
f 44 18 26
f 30 39 34
f 30 34 31
f 30 31 33
f 43 25 27
f 43 27 32
f 43 32 35
f 43 35 38
f 43 38 36
f 43 36 23
f 43 23 24
f 43 24 42
f 44 26 40
f 44 40 41
f 39 30 28
f 39 28 29
f 39 29 37
f 1 2 3
f 1 3 4
f 5 4 3
f 5 3 6
f 6 3 2
f 6 2 7
f 8 1 4
f 8 4 5
f 7 2 1
f 7 1 8
f 7 8 5
f 7 5 6
