v 11.705343409 0.392922462 39.439000000
v 11.777343409 -1.227077538 39.439000000
v 12.019343409 -6.663077539 39.439000000
v 7.942343409 -6.012077538 39.439000000
v 6.030343409 -5.706077538 39.439000000
v 6.012343409 -6.833077539 39.439000000
v 0.612343409 -6.162077539 39.439000000
v 0.784343409 -1.329077538 39.439000000
v 0.963343409 3.690922461 39.439000000
v 11.972343409 3.671922461 39.439000000
v 11.777343409 -1.227077538 49.412000000
v 11.705343409 0.392922462 47.598000000
v 11.972343409 3.671922461 43.928000000
v 5.773343409 1.426922462 46.715000000
v 5.773343409 1.426922462 46.372000000
v 6.497343409 1.995922461 45.743000000
v 5.718343409 3.030922461 46.862000000
v 5.718343409 3.030922461 44.575000000
v 4.775343409 2.289922462 45.394000000
v 6.030343409 -5.706077538 44.518000000
v 6.030343409 -5.706077538 46.827000000
v 4.554343409 -5.470077539 44.792000000
v 6.402343409 3.567922462 43.981000000
v 6.402343409 3.567922462 45.943000000
v 6.974343409 2.565922461 45.110000000
v 0.784343409 -1.329077538 49.401000000
v 0.612343409 -6.162077539 44.065000000
v 6.012343409 -6.833077539 43.274000000
v 7.942343409 -6.012077538 44.163000000
v 12.019343409 -6.663077539 43.406000000
v 5.860343409 -3.954077538 47.000000000
v 5.860343409 -3.954077538 46.455000000
v 6.050343409 -4.450077538 46.753000000
v 5.631343409 1.315922461 46.495000000
v 0.963343409 3.690922461 43.782000000
v 6.061343409 -3.721077538 46.711000000
v -7.479656591 0.960922462 39.439000000
v -15.160656591 0.565922461 39.439000000
v -16.394656591 7.333922462 39.439000000
v -7.332656591 7.421922461 39.439000000
v -7.332656591 7.421922461 41.884000000
v -16.394656591 7.333922462 41.617000000
v -15.160656591 0.565922461 41.680000000
v -7.479656591 0.960922462 41.905000000
f 1 2 3
f 1 3 4
f 1 4 5
f 1 5 6
f 1 6 7
f 1 7 8
f 1 8 9
f 1 9 10
f 11 2 1
f 11 1 12
f 12 1 10
f 12 10 13
f 17 18 19
f 23 24 25
f 24 23 18
f 24 18 17
f 26 8 7
f 26 7 27
f 28 6 5
f 28 5 20
f 29 4 3
f 29 3 30
f 30 3 2
f 30 2 11
f 31 32 33
f 35 9 8
f 35 8 26
f 32 31 36
f 27 7 6
f 27 6 28
f 21 20 5
f 21 5 4
f 21 4 29
f 13 10 9
f 13 9 35
f 33 32 22
f 33 22 21
f 14 17 19
f 14 19 34
f 21 29 36
f 21 36 31
f 21 31 33
f 16 25 24
f 16 24 17
f 16 17 14
f 26 11 12
f 26 12 13
f 26 13 35
f 25 16 15
f 25 15 34
f 25 34 19
f 25 19 18
f 25 18 23
f 11 26 27
f 11 27 28
f 11 28 20
f 11 20 22
f 11 22 32
f 11 32 36
f 11 36 29
f 11 29 30
f 37 38 39
f 37 39 40
f 41 40 39
f 41 39 42
f 42 39 38
f 42 38 43
f 44 37 40
f 44 40 41
f 43 38 37
f 43 37 44
f 43 44 41
f 43 41 42
