v 15.949000955 12.063492474 57.066000000
v 15.949000955 12.063492474 54.900000000
v 12.336000955 4.556492474 54.900000000
v 12.336000955 4.556492474 57.550000000
v 15.333000955 3.386492474 54.900000000
v 15.333000955 3.386492474 57.409000000
v 18.305000955 11.350492475 57.074000000
v 18.305000955 11.350492475 54.900000000
v 12.336000955 4.556492474 57.389000000
v -5.307999045 -2.383507526 54.900000000
v -3.232999045 3.218492474 54.900000000
v -0.608999045 2.362492474 54.900000000
v 1.780000955 8.673492474 54.900000000
v 6.986000955 6.643492474 54.900000000
v 6.415000955 -7.748507526 54.900000000
v 2.067000955 -6.158507526 54.900000000
v -3.115999045 -4.262507526 54.900000000
v -2.800999045 -3.430507526 54.900000000
v 6.986000955 6.643492474 60.073000000
v 6.415000955 -7.748507526 57.918000000
v 2.067000955 -6.158507526 60.082000000
v -3.115999045 -4.262507526 57.552000000
v 1.780000955 8.673492474 57.512000000
v -0.608999045 2.362492474 57.532000000
v -2.800999045 -3.430507526 57.550000000
v -3.232999045 3.218492474 57.356000000
v -5.307999045 -2.383507526 57.376000000
f 10 11 12
f 10 12 13
f 10 13 14
f 10 14 3
f 10 3 2
f 10 2 8
f 10 8 5
f 10 5 3
f 10 3 15
f 10 15 16
f 10 16 17
f 10 17 18
f 14 19 3
f 20 15 3
f 21 16 15
f 21 15 20
f 22 17 16
f 22 16 21
f 19 14 13
f 19 13 23
f 23 13 12
f 23 12 24
f 25 18 17
f 25 17 22
f 24 12 11
f 24 11 26
f 27 10 18
f 27 18 25
f 26 11 10
f 26 10 27
f 21 20 9
f 21 9 19
f 25 22 21
f 25 21 19
f 25 19 23
f 25 23 24
f 26 27 25
f 26 25 24
f 1 2 3
f 1 3 4
f 5 6 3
f 7 8 2
f 7 2 1
f 6 5 8
f 6 8 7
f 6 7 1
f 6 1 9
