v -15.099631596 23.501299266 20.510000000
v -15.337631596 23.554299266 20.510000000
v -15.527631596 23.510299265 20.510000000
v -15.686631596 23.397299265 20.510000000
v -15.770631596 23.277299265 20.510000000
v -11.554631596 8.005299265 20.510000000
v -9.949631596 13.140299265 20.510000000
v -8.385631596 13.989299266 20.510000000
v -7.130631596 14.670299266 20.510000000
v 5.394368404 7.062299266 20.510000000
v 6.318368404 7.363299266 20.510000000
v 2.365368404 -0.343700734 20.510000000
v 2.259368404 -0.034700735 20.510000000
v -4.975631596 3.687299266 20.510000000
v -4.240631596 1.382299266 20.510000000
v -6.895631596 0.080299266 20.510000000
v -6.544631596 -0.917700734 20.510000000
v -20.446631596 5.928299266 20.510000000
v -19.874631596 6.114299266 20.510000000
v -17.905631596 11.366299266 20.510000000
v -17.487631596 10.124299265 20.510000000
v -11.818631596 7.208299265 20.510000000
v -12.625631596 9.514299266 20.510000000
v 2.259368404 -0.034700735 24.179000000
v 2.365368404 -0.343700734 24.067000000
v -19.874631596 6.114299266 24.133000000
v -20.446631596 5.928299266 23.923000000
v -17.905631596 11.366299266 23.834000000
v -6.544631596 -0.917700734 23.982000000
v -6.895631596 0.080299266 24.288000000
v -6.895631596 0.080299266 24.346000000
v -7.130631596 14.670299266 23.731000000
v -8.385631596 13.989299266 24.307000000
v -7.835631596 2.747299266 25.317000000
v -7.835631596 2.747299266 25.313000000
v -5.914631596 6.635299265 25.309000000
v -9.949631596 13.140299265 23.807000000
v -11.554631596 8.005299265 24.205000000
v 6.318368404 7.363299266 24.027000000
v 5.394368404 7.062299266 24.304000000
v 5.394368404 7.062299266 24.362000000
v -4.240631596 1.382299266 23.370000000
v -4.975631596 3.687299266 24.221000000
v -8.033631596 3.331299266 25.107000000
v -8.033631596 3.331299266 25.104000000
v -8.034631596 3.320299266 25.109000000
v -8.070631596 2.868299265 25.321000000
v -8.070631596 2.868299265 25.191000000
v -7.835631596 2.747299266 25.319000000
v 5.488368404 7.004299265 24.308000000
v -12.625631596 9.514299266 23.416000000
v -11.818631596 7.208299265 24.260000000
v -17.487631596 10.124299265 24.293000000
v -8.802631596 5.710299266 24.219000000
v -8.802631596 5.710299266 24.266000000
v -8.866631596 5.689299266 24.243000000
v 0.419368404 5.369299266 26.148000000
v -6.643631596 8.916299266 26.151000000
v -16.506631596 7.210299266 25.368000000
v -8.392631596 14.009299265 20.510000000
v -9.012631596 15.813299266 20.510000000
v -14.786631596 19.321299266 20.510000000
v -16.415631596 15.743299265 20.510000000
v -19.212631596 16.372299266 20.510000000
v -7.716631596 19.822299265 20.510000000
v -6.599631596 16.301299266 20.510000000
v -7.635631596 14.977299266 20.510000000
v -15.099631596 23.501299266 23.399000000
v -15.337631596 23.554299266 23.388000000
v -15.527631596 23.510299265 23.378000000
v -15.686631596 23.397299265 23.369000000
v -15.770631596 23.277299265 23.363000000
v -8.392631596 14.009299265 24.300000000
v -7.635631596 14.977299266 23.708000000
v -6.599631596 16.301299266 23.771000000
v -7.716631596 19.822299265 23.744000000
v -19.212631596 16.372299266 23.131000000
v -16.415631596 15.743299265 23.268000000
v -14.786631596 19.321299266 23.380000000
v -9.012631596 15.813299266 23.645000000
f 60 61 62
f 60 62 63
f 60 63 64
f 60 64 5
f 60 5 4
f 60 4 3
f 60 3 2
f 60 2 1
f 60 1 65
f 60 65 66
f 60 66 67
f 68 1 2
f 68 2 69
f 69 2 3
f 69 3 70
f 71 4 5
f 71 5 72
f 70 3 4
f 70 4 71
f 73 60 67
f 73 67 74
f 74 67 66
f 74 66 75
f 75 66 65
f 75 65 76
f 77 64 63
f 77 63 78
f 76 65 1
f 76 1 68
f 79 62 61
f 79 61 80
f 72 5 64
f 72 64 77
f 78 63 62
f 78 62 79
f 80 61 60
f 80 60 73
f 78 79 80
f 78 80 74
f 78 74 75
f 78 75 76
f 78 76 68
f 78 68 69
f 78 69 70
f 78 70 71
f 78 71 72
f 78 72 77
f 80 73 74
f 6 7 8
f 6 8 9
f 6 9 10
f 6 10 11
f 6 11 12
f 6 12 13
f 6 13 14
f 6 14 15
f 6 15 16
f 6 16 17
f 6 17 18
f 6 18 19
f 6 19 20
f 6 20 21
f 6 21 22
f 6 22 23
f 24 13 12
f 24 12 25
f 26 19 18
f 26 18 27
f 28 20 19
f 28 19 26
f 29 17 16
f 29 16 30
f 29 30 31
f 32 9 8
f 32 8 33
f 34 35 36
f 37 7 6
f 37 6 38
f 39 11 10
f 39 10 40
f 39 40 41
f 42 15 14
f 42 14 43
f 47 48 46
f 49 34 48
f 49 48 47
f 40 10 9
f 40 9 32
f 41 40 50
f 33 8 7
f 33 7 37
f 38 6 23
f 38 23 51
f 51 23 22
f 51 22 52
f 27 18 17
f 27 17 29
f 53 21 20
f 53 20 28
f 31 30 35
f 31 35 34
f 31 34 49
f 30 16 15
f 30 15 42
f 52 22 21
f 52 21 53
f 25 12 11
f 25 11 39
f 43 14 13
f 43 13 24
f 57 50 40
f 57 40 32
f 57 32 33
f 57 33 58
f 31 49 47
f 31 47 59
f 31 59 26
f 31 26 27
f 31 27 29
f 55 44 46
f 55 46 48
f 55 48 34
f 55 34 36
f 30 42 43
f 30 43 36
f 30 36 35
f 59 53 28
f 59 28 26
f 52 58 33
f 52 33 37
f 52 37 38
f 52 38 51
f 56 52 53
f 56 53 59
f 56 59 47
f 56 47 46
f 56 46 45
f 56 45 54
f 57 24 25
f 57 25 39
f 57 39 41
f 57 41 50
f 43 24 57
f 43 57 58
f 43 58 52
f 43 52 56
f 43 56 55
f 43 55 36
