v -2.611031280 2.934762813 25.729000000
v -0.814031280 3.228762813 25.729000000
v -0.768031280 0.471762813 25.729000000
v -2.104031280 0.305762812 25.729000000
v -1.411031280 -6.835237187 25.729000000
v -5.681031280 -7.704237187 25.729000000
v -5.164031280 -10.890237187 25.729000000
v -9.547031280 -10.240237188 25.729000000
v -9.601031280 -8.620237187 25.729000000
v -10.439031280 -8.897237187 25.729000000
v -10.654031280 -7.956237188 25.729000000
v -11.125031280 -5.899237188 25.729000000
v -10.504031280 -5.663237187 25.729000000
v -11.233031280 -3.583237187 25.729000000
v -10.789031280 -3.474237187 25.729000000
v -11.251031280 -3.531237187 25.729000000
v -11.569031280 -2.623237187 25.729000000
v -11.957031280 1.405762813 25.729000000
v -12.113031280 3.023762813 25.729000000
v -7.536031280 3.720762813 25.729000000
v -7.455031280 3.732762813 25.729000000
v -7.494031280 4.024762813 25.729000000
v -6.121031280 4.165762813 25.729000000
v -8.172031280 10.925762813 25.729000000
v 8.051968720 11.804762813 25.729000000
v 8.497968720 9.660762813 25.729000000
v 0.829968720 6.501762813 25.729000000
v 1.210968720 4.189762813 25.729000000
v -3.411031280 6.010762813 25.729000000
v -3.013031280 4.482762813 25.729000000
v -11.957031280 1.405762813 29.920000000
v -11.957031280 1.405762813 29.134000000
v -11.569031280 -2.623237187 29.726000000
v -12.113031280 3.023762813 29.235000000
v -10.789031280 -3.474237187 34.189000000
v -10.789031280 -3.474237187 30.302000000
v -11.233031280 -3.583237187 34.152000000
v -11.251031280 -3.531237187 29.886000000
v -10.504031280 -5.663237187 30.293000000
v -10.504031280 -5.663237187 32.024000000
v -6.573031280 -3.000237187 34.994000000
v -6.573031280 -3.000237187 34.090000000
v -6.428031280 -3.106237187 33.975000000
v -6.428031280 -3.106237187 34.985000000
v -6.538031280 -2.431237187 33.992000000
v -6.538031280 -2.431237187 35.013000000
v -10.439031280 -8.897237187 28.881000000
v -9.601031280 -8.620237187 29.021000000
v -9.615031280 -8.203237187 30.795000000
v -9.615031280 -8.203237187 29.428000000
v -9.601031280 -8.620237187 29.482000000
v -9.601031280 -8.620237187 30.760000000
v -7.848031280 -3.108237187 35.043000000
v -7.848031280 -3.108237187 34.091000000
v -7.848031280 -3.108237187 32.944000000
v -6.631031280 -2.957237187 34.043000000
v -6.631031280 -2.957237187 34.998000000
v -9.547031280 -10.240237188 29.270000000
v -5.164031280 -10.890237187 29.086000000
v -8.004031280 -8.091237187 29.515000000
v -8.004031280 -8.091237187 32.240000000
v -0.768031280 0.471762813 28.583000000
v -0.814031280 3.228762813 28.297000000
v -11.125031280 -5.899237188 29.714000000
v -6.422031280 -4.112237187 34.098000000
v -6.422031280 -4.112237187 34.089000000
v -6.534031280 -3.292237187 34.091000000
v -5.681031280 -7.704237187 29.513000000
v 8.051968720 11.804762813 28.529000000
v -8.172031280 10.925762813 28.520000000
v -7.113031280 1.111762813 34.167000000
v -7.113031280 1.111762813 34.078000000
v -7.285031280 2.169762813 34.103000000
v -7.285031280 2.169762813 34.156000000
v 0.829968720 6.501762813 28.357000000
v 8.497968720 9.660762813 28.456000000
v 1.210968720 4.189762813 28.278000000
v -5.969031280 -7.418237187 34.083000000
v -5.969031280 -7.418237187 29.556000000
v -5.898031280 -7.748237187 29.512000000
v -5.898031280 -7.748237187 34.059000000
v -5.949031280 -7.759237187 34.105000000
v -5.949031280 -7.759237187 29.512000000
v -5.969031280 -7.418237187 34.126000000
v -7.668031280 -8.109237188 29.505000000
v -7.668031280 -8.109237188 32.537000000
v -9.586031280 -0.910237188 31.709000000
v -9.586031280 -0.910237188 31.832000000
v -7.852031280 -2.065237187 33.089000000
v -6.653031280 -2.459237187 34.097000000
v -6.653031280 -2.459237187 35.016000000
v -7.147031280 -2.580237187 33.644000000
v -7.147031280 -2.580237187 35.032000000
v -6.577031280 -2.997237187 34.093000000
v -6.577031280 -2.997237187 34.087000000
v -10.986031280 -1.289237187 32.076000000
v -10.986031280 -1.289237187 30.419000000
v -10.608031280 -3.451237187 30.465000000
v -10.608031280 -3.451237187 34.183000000
v -7.536031280 3.720762813 33.417000000
v -7.536031280 3.720762813 33.417000000
v -7.455031280 3.732762813 33.344000000
v -7.494031280 4.024762813 33.337000000
v -10.654031280 -7.956237188 29.826000000
v -10.654031280 -7.956237188 29.899000000
v -9.684031280 -8.006237187 29.629000000
v -9.684031280 -8.006237187 30.756000000
v -5.681031280 -7.704237187 33.864000000
v -1.411031280 -6.835237187 30.012000000
v -7.919031280 -4.681237187 32.702000000
v -7.919031280 -4.681237187 32.579000000
v -8.091031280 -4.746237187 32.542000000
v -7.912031280 -4.528237187 32.725000000
v -6.577031280 -2.997237187 34.995000000
v -6.121031280 4.165762813 28.286000000
v -6.121031280 4.165762813 32.111000000
v -2.104031280 0.305762812 29.776000000
v -2.611031280 2.934762813 29.909000000
v -2.611031280 2.934762813 29.200000000
v -7.285031280 2.169762813 33.411000000
v -7.320031280 2.388762813 33.412000000
v -7.320031280 2.388762813 34.154000000
v -9.390031280 1.825762813 31.484000000
v -9.390031280 1.825762813 32.247000000
v -3.013031280 4.482762813 28.293000000
v -3.013031280 4.482762813 29.338000000
v -3.411031280 6.010762813 28.346000000
v -7.145031280 0.983762813 34.121000000
v -7.831031280 -2.748237187 33.746000000
v -7.831031280 -2.748237187 35.054000000
f 1 2 3
f 1 3 4
f 1 4 5
f 1 5 6
f 1 6 7
f 1 7 8
f 1 8 9
f 1 9 10
f 1 10 11
f 1 11 12
f 1 12 13
f 1 13 14
f 1 14 15
f 1 15 16
f 1 16 17
f 1 17 18
f 1 18 19
f 1 19 20
f 1 20 21
f 1 21 22
f 1 22 23
f 1 23 24
f 1 24 25
f 1 25 26
f 1 26 27
f 1 27 28
f 1 28 29
f 1 29 30
f 31 32 18
f 31 18 17
f 31 17 33
f 34 19 18
f 34 18 32
f 35 36 15
f 35 15 14
f 35 14 37
f 38 16 15
f 38 15 36
f 33 17 16
f 33 16 38
f 37 14 13
f 37 13 39
f 37 39 40
f 41 42 43
f 41 43 44
f 44 43 45
f 44 45 46
f 47 10 9
f 47 9 48
f 49 50 48
f 49 48 51
f 49 51 52
f 53 54 55
f 53 55 56
f 53 56 57
f 58 8 7
f 58 7 59
f 51 48 9
f 51 9 8
f 51 8 58
f 52 51 60
f 52 60 61
f 62 3 2
f 62 2 63
f 39 13 12
f 39 12 64
f 65 66 67
f 59 7 6
f 59 6 68
f 69 25 24
f 69 24 70
f 75 27 26
f 75 26 76
f 76 26 25
f 76 25 69
f 77 28 27
f 77 27 75
f 78 79 80
f 78 80 81
f 82 83 79
f 82 79 78
f 82 78 84
f 61 60 85
f 61 85 86
f 87 88 89
f 46 45 90
f 46 90 91
f 91 90 92
f 91 92 93
f 94 95 67
f 96 97 98
f 96 98 99
f 100 101 20
f 100 20 19
f 100 19 34
f 102 21 20
f 102 20 101
f 103 22 21
f 103 21 102
f 64 12 11
f 64 11 104
f 64 104 105
f 104 11 10
f 104 10 47
f 105 104 106
f 105 106 107
f 107 106 50
f 107 50 49
f 108 68 6
f 108 6 5
f 108 5 109
f 99 98 36
f 99 36 35
f 110 111 112
f 40 39 112
f 88 87 97
f 88 97 96
f 111 110 113
f 55 54 113
f 57 56 95
f 57 95 94
f 57 94 114
f 70 24 23
f 70 23 115
f 116 115 23
f 116 23 22
f 116 22 103
f 84 78 66
f 84 66 65
f 117 4 3
f 117 3 62
f 109 5 4
f 109 4 117
f 118 119 120
f 118 120 73
f 101 100 121
f 74 73 120
f 74 120 121
f 74 121 122
f 122 121 123
f 122 123 124
f 119 1 30
f 119 30 125
f 119 125 126
f 63 2 1
f 63 1 119
f 63 119 118
f 124 123 32
f 124 32 31
f 127 29 28
f 127 28 77
f 81 80 68
f 81 68 108
f 86 85 83
f 86 83 82
f 93 92 129
f 93 129 130
f 130 129 54
f 130 54 53
f 126 125 115
f 126 115 116
f 125 30 29
f 125 29 127
f 50 106 104
f 50 104 47
f 50 47 48
f 54 99 35
f 54 35 37
f 54 37 40
f 54 40 112
f 54 112 111
f 54 111 113
f 130 53 57
f 130 57 41
f 130 41 44
f 130 44 46
f 130 46 91
f 130 91 93
f 32 123 121
f 32 121 100
f 32 100 34
f 90 128 71
f 90 71 74
f 90 74 122
f 90 122 124
f 90 124 31
f 90 31 33
f 90 33 38
f 90 38 36
f 90 36 98
f 90 98 97
f 90 97 87
f 90 87 89
f 90 89 92
f 83 85 60
f 83 60 51
f 83 51 58
f 83 58 59
f 83 59 68
f 83 68 80
f 83 80 79
f 86 82 84
f 86 84 65
f 86 65 67
f 86 67 95
f 86 95 56
f 86 56 55
f 86 55 113
f 86 113 110
f 86 110 112
f 86 112 39
f 86 39 64
f 86 64 105
f 86 105 107
f 86 107 49
f 86 49 52
f 86 52 61
f 54 129 92
f 54 92 89
f 54 89 88
f 54 88 96
f 54 96 99
f 126 116 103
f 126 103 102
f 126 102 101
f 126 101 121
f 126 121 120
f 126 120 119
f 125 127 77
f 125 77 75
f 125 75 76
f 125 76 69
f 125 69 70
f 125 70 115
f 128 90 45
f 128 45 43
f 128 43 94
f 128 94 67
f 128 67 66
f 128 66 78
f 128 78 81
f 128 81 108
f 128 108 109
f 128 109 117
f 128 117 62
f 128 62 63
f 128 63 118
f 128 118 73
f 128 73 72
