v 15.211111575 -14.723828509 72.260000000
v 13.192111575 -8.999828509 72.260000000
v 18.862111575 -6.625828509 72.260000000
v 22.261111575 -8.405828509 72.260000000
v 21.002111575 -12.592828508 72.260000000
v 22.261111575 -8.405828509 74.372000000
v 18.862111575 -6.625828509 74.444000000
v 13.192111575 -8.999828509 74.572000000
v 15.211111575 -14.723828509 74.535000000
v 21.002111575 -12.592828508 74.405000000
v 3.029111575 32.286171491 72.260000000
v 8.216111575 34.714171492 72.260000000
v 9.218111575 31.882171491 72.260000000
v 6.591111575 31.019171491 72.260000000
v 6.544111575 30.757171491 72.260000000
v 7.153111575 29.694171491 72.260000000
v 4.477111575 28.492171491 72.260000000
v 3.856111575 30.120171491 72.260000000
v 8.216111575 34.714171492 76.286000000
v 3.029111575 32.286171491 76.298000000
v 4.477111575 28.492171491 75.599000000
v 7.153111575 29.694171491 75.646000000
v 6.544111575 30.757171491 75.679000000
v 3.856111575 30.120171491 75.651000000
v 3.856111575 30.120171491 76.241000000
v 9.218111575 31.882171491 76.212000000
v 6.591111575 31.019171491 76.226000000
v 6.591111575 31.019171491 75.687000000
v -0.069888425 -0.044828509 72.260000000
v -2.110888425 4.164171491 72.260000000
v 4.323111575 7.464171492 72.260000000
v 4.053111575 8.404171491 72.260000000
v 8.952111575 10.927171491 72.260000000
v 11.651111575 4.987171492 72.260000000
v 13.887111575 0.066171492 72.260000000
v 6.408111575 -2.440828509 72.260000000
v 9.596111575 -3.667828509 72.260000000
v 5.324111575 -6.159828509 72.260000000
v 5.554111575 -6.699828509 72.260000000
v 5.219111575 -6.219828509 72.260000000
v 3.168111575 -7.416828508 72.260000000
v 1.512111575 -5.537828509 72.260000000
v 1.997111575 -4.306828509 72.260000000
v 1.952111575 -4.212828509 72.260000000
v 1.952111575 -4.212828509 75.708000000
v 1.952111575 -4.212828509 75.668000000
v 2.112111575 -4.013828509 75.752000000
v 8.952111575 10.927171491 74.944000000
v 4.053111575 8.404171491 75.092000000
v 6.408111575 -2.440828509 75.657000000
v 13.887111575 0.066171492 75.415000000
v 9.596111575 -3.667828509 74.786000000
v 11.651111575 4.987171492 77.383000000
v 4.323111575 7.464171492 75.455000000
v 5.219111575 -6.219828509 76.512000000
v 5.554111575 -6.699828509 76.560000000
v 5.324111575 -6.159828509 76.557000000
v 3.613111575 -2.148828509 76.159000000
v 3.613111575 -2.148828509 76.535000000
v 4.094111575 -1.550828509 76.289000000
v 1.512111575 -5.537828509 75.329000000
v 3.168111575 -7.416828508 75.634000000
v 1.997111575 -4.306828509 75.671000000
v -0.069888425 -0.044828509 77.394000000
v -2.110888425 4.164171491 75.646000000
v 2.945111575 -2.978828508 76.186000000
v 2.945111575 -2.978828508 75.978000000
v 2.424111575 -3.221828509 75.972000000
f 29 30 31
f 29 31 32
f 29 32 33
f 29 33 34
f 29 34 35
f 29 35 36
f 29 36 37
f 29 37 38
f 29 38 39
f 29 39 40
f 29 40 41
f 29 41 42
f 29 42 43
f 29 43 44
f 45 46 47
f 48 33 32
f 48 32 49
f 50 36 35
f 50 35 51
f 52 37 36
f 52 36 50
f 53 34 33
f 53 33 48
f 49 32 31
f 49 31 54
f 51 35 34
f 51 34 53
f 55 40 39
f 55 39 56
f 56 39 38
f 56 38 57
f 58 59 60
f 61 42 41
f 61 41 62
f 63 43 42
f 63 42 61
f 62 41 40
f 62 40 55
f 64 29 44
f 64 44 46
f 64 46 45
f 54 31 30
f 54 30 65
f 57 38 37
f 57 37 52
f 46 44 43
f 46 43 63
f 66 67 68
f 59 58 67
f 59 67 66
f 65 30 29
f 65 29 64
f 57 52 50
f 57 50 60
f 57 60 59
f 59 66 68
f 59 68 47
f 59 47 46
f 59 46 63
f 59 63 61
f 59 61 62
f 59 62 55
f 59 55 56
f 59 56 57
f 64 53 48
f 64 48 49
f 64 49 54
f 64 54 65
f 53 64 45
f 53 45 47
f 53 47 68
f 53 68 67
f 53 67 58
f 53 58 60
f 53 60 50
f 53 50 51
f 11 12 13
f 11 13 14
f 11 14 15
f 11 15 16
f 11 16 17
f 11 17 18
f 19 12 11
f 19 11 20
f 21 17 16
f 21 16 22
f 22 16 15
f 22 15 23
f 24 18 17
f 24 17 21
f 20 11 18
f 20 18 24
f 20 24 25
f 26 13 12
f 26 12 19
f 27 28 14
f 27 14 13
f 27 13 26
f 25 24 28
f 25 28 27
f 23 15 14
f 23 14 28
f 25 27 26
f 25 26 19
f 25 19 20
f 23 28 24
f 23 24 21
f 23 21 22
f 1 2 3
f 1 3 4
f 1 4 5
f 6 4 3
f 6 3 7
f 8 2 1
f 8 1 9
f 9 1 5
f 9 5 10
f 7 3 2
f 7 2 8
f 10 5 4
f 10 4 6
f 10 6 7
f 10 7 8
f 10 8 9
